G04 #@! TF.GenerationSoftware,KiCad,Pcbnew,(5.1.2)-1*
G04 #@! TF.CreationDate,2019-06-09T17:51:18+09:00*
G04 #@! TF.ProjectId,STEPPER_MOTOR04,53544550-5045-4525-9f4d-4f544f523034,rev?*
G04 #@! TF.SameCoordinates,Original*
G04 #@! TF.FileFunction,Soldermask,Bot*
G04 #@! TF.FilePolarity,Negative*
%FSLAX46Y46*%
G04 Gerber Fmt 4.6, Leading zero omitted, Abs format (unit mm)*
G04 Created by KiCad (PCBNEW (5.1.2)-1) date 2019-06-09 17:51:18*
%MOMM*%
%LPD*%
G04 APERTURE LIST*
%ADD10C,0.100000*%
%ADD11C,2.100000*%
%ADD12O,2.350000X2.100000*%
%ADD13R,2.100000X1.050000*%
%ADD14C,1.275000*%
%ADD15R,1.900000X2.800000*%
%ADD16R,1.900000X1.450000*%
%ADD17C,1.250000*%
%ADD18R,1.400000X1.900000*%
%ADD19R,1.400000X2.200000*%
%ADD20R,2.600000X2.240000*%
%ADD21C,1.400000*%
%ADD22O,2.100000X2.400000*%
%ADD23C,2.000000*%
%ADD24R,2.000000X2.000000*%
%ADD25O,2.000000X2.000000*%
G04 APERTURE END LIST*
D10*
G36*
X101646447Y-86201487D02*
G01*
X101676425Y-86205934D01*
X101705824Y-86213298D01*
X101734358Y-86223508D01*
X101761755Y-86236465D01*
X101787750Y-86252046D01*
X101812092Y-86270100D01*
X101834548Y-86290452D01*
X101854900Y-86312908D01*
X101872954Y-86337250D01*
X101888535Y-86363245D01*
X101901492Y-86390642D01*
X101911702Y-86419176D01*
X101919066Y-86448575D01*
X101923513Y-86478553D01*
X101925000Y-86508823D01*
X101925000Y-87991177D01*
X101923513Y-88021447D01*
X101919066Y-88051425D01*
X101911702Y-88080824D01*
X101901492Y-88109358D01*
X101888535Y-88136755D01*
X101872954Y-88162750D01*
X101854900Y-88187092D01*
X101834548Y-88209548D01*
X101812092Y-88229900D01*
X101787750Y-88247954D01*
X101761755Y-88263535D01*
X101734358Y-88276492D01*
X101705824Y-88286702D01*
X101676425Y-88294066D01*
X101646447Y-88298513D01*
X101616177Y-88300000D01*
X99883823Y-88300000D01*
X99853553Y-88298513D01*
X99823575Y-88294066D01*
X99794176Y-88286702D01*
X99765642Y-88276492D01*
X99738245Y-88263535D01*
X99712250Y-88247954D01*
X99687908Y-88229900D01*
X99665452Y-88209548D01*
X99645100Y-88187092D01*
X99627046Y-88162750D01*
X99611465Y-88136755D01*
X99598508Y-88109358D01*
X99588298Y-88080824D01*
X99580934Y-88051425D01*
X99576487Y-88021447D01*
X99575000Y-87991177D01*
X99575000Y-86508823D01*
X99576487Y-86478553D01*
X99580934Y-86448575D01*
X99588298Y-86419176D01*
X99598508Y-86390642D01*
X99611465Y-86363245D01*
X99627046Y-86337250D01*
X99645100Y-86312908D01*
X99665452Y-86290452D01*
X99687908Y-86270100D01*
X99712250Y-86252046D01*
X99738245Y-86236465D01*
X99765642Y-86223508D01*
X99794176Y-86213298D01*
X99823575Y-86205934D01*
X99853553Y-86201487D01*
X99883823Y-86200000D01*
X101616177Y-86200000D01*
X101646447Y-86201487D01*
X101646447Y-86201487D01*
G37*
D11*
X100750000Y-87250000D03*
D12*
X100750000Y-89750000D03*
X100750000Y-92250000D03*
X100750000Y-94750000D03*
X100750000Y-97250000D03*
X100750000Y-99750000D03*
D13*
X110050000Y-101885000D03*
X110050000Y-100615000D03*
X103450000Y-100615000D03*
X103450000Y-101885000D03*
X103450000Y-95885000D03*
X103450000Y-94615000D03*
X110050000Y-94615000D03*
X110050000Y-95885000D03*
X103450000Y-89885000D03*
X103450000Y-88615000D03*
X110050000Y-88615000D03*
X110050000Y-89885000D03*
D10*
G36*
X114737493Y-87826535D02*
G01*
X114768435Y-87831125D01*
X114798778Y-87838725D01*
X114828230Y-87849263D01*
X114856508Y-87862638D01*
X114883338Y-87878719D01*
X114908463Y-87897353D01*
X114931640Y-87918360D01*
X114952647Y-87941537D01*
X114971281Y-87966662D01*
X114987362Y-87993492D01*
X115000737Y-88021770D01*
X115011275Y-88051222D01*
X115018875Y-88081565D01*
X115023465Y-88112507D01*
X115025000Y-88143750D01*
X115025000Y-88781250D01*
X115023465Y-88812493D01*
X115018875Y-88843435D01*
X115011275Y-88873778D01*
X115000737Y-88903230D01*
X114987362Y-88931508D01*
X114971281Y-88958338D01*
X114952647Y-88983463D01*
X114931640Y-89006640D01*
X114908463Y-89027647D01*
X114883338Y-89046281D01*
X114856508Y-89062362D01*
X114828230Y-89075737D01*
X114798778Y-89086275D01*
X114768435Y-89093875D01*
X114737493Y-89098465D01*
X114706250Y-89100000D01*
X113993750Y-89100000D01*
X113962507Y-89098465D01*
X113931565Y-89093875D01*
X113901222Y-89086275D01*
X113871770Y-89075737D01*
X113843492Y-89062362D01*
X113816662Y-89046281D01*
X113791537Y-89027647D01*
X113768360Y-89006640D01*
X113747353Y-88983463D01*
X113728719Y-88958338D01*
X113712638Y-88931508D01*
X113699263Y-88903230D01*
X113688725Y-88873778D01*
X113681125Y-88843435D01*
X113676535Y-88812493D01*
X113675000Y-88781250D01*
X113675000Y-88143750D01*
X113676535Y-88112507D01*
X113681125Y-88081565D01*
X113688725Y-88051222D01*
X113699263Y-88021770D01*
X113712638Y-87993492D01*
X113728719Y-87966662D01*
X113747353Y-87941537D01*
X113768360Y-87918360D01*
X113791537Y-87897353D01*
X113816662Y-87878719D01*
X113843492Y-87862638D01*
X113871770Y-87849263D01*
X113901222Y-87838725D01*
X113931565Y-87831125D01*
X113962507Y-87826535D01*
X113993750Y-87825000D01*
X114706250Y-87825000D01*
X114737493Y-87826535D01*
X114737493Y-87826535D01*
G37*
D14*
X114350000Y-88462500D03*
D10*
G36*
X114737493Y-89401535D02*
G01*
X114768435Y-89406125D01*
X114798778Y-89413725D01*
X114828230Y-89424263D01*
X114856508Y-89437638D01*
X114883338Y-89453719D01*
X114908463Y-89472353D01*
X114931640Y-89493360D01*
X114952647Y-89516537D01*
X114971281Y-89541662D01*
X114987362Y-89568492D01*
X115000737Y-89596770D01*
X115011275Y-89626222D01*
X115018875Y-89656565D01*
X115023465Y-89687507D01*
X115025000Y-89718750D01*
X115025000Y-90356250D01*
X115023465Y-90387493D01*
X115018875Y-90418435D01*
X115011275Y-90448778D01*
X115000737Y-90478230D01*
X114987362Y-90506508D01*
X114971281Y-90533338D01*
X114952647Y-90558463D01*
X114931640Y-90581640D01*
X114908463Y-90602647D01*
X114883338Y-90621281D01*
X114856508Y-90637362D01*
X114828230Y-90650737D01*
X114798778Y-90661275D01*
X114768435Y-90668875D01*
X114737493Y-90673465D01*
X114706250Y-90675000D01*
X113993750Y-90675000D01*
X113962507Y-90673465D01*
X113931565Y-90668875D01*
X113901222Y-90661275D01*
X113871770Y-90650737D01*
X113843492Y-90637362D01*
X113816662Y-90621281D01*
X113791537Y-90602647D01*
X113768360Y-90581640D01*
X113747353Y-90558463D01*
X113728719Y-90533338D01*
X113712638Y-90506508D01*
X113699263Y-90478230D01*
X113688725Y-90448778D01*
X113681125Y-90418435D01*
X113676535Y-90387493D01*
X113675000Y-90356250D01*
X113675000Y-89718750D01*
X113676535Y-89687507D01*
X113681125Y-89656565D01*
X113688725Y-89626222D01*
X113699263Y-89596770D01*
X113712638Y-89568492D01*
X113728719Y-89541662D01*
X113747353Y-89516537D01*
X113768360Y-89493360D01*
X113791537Y-89472353D01*
X113816662Y-89453719D01*
X113843492Y-89437638D01*
X113871770Y-89424263D01*
X113901222Y-89413725D01*
X113931565Y-89406125D01*
X113962507Y-89401535D01*
X113993750Y-89400000D01*
X114706250Y-89400000D01*
X114737493Y-89401535D01*
X114737493Y-89401535D01*
G37*
D14*
X114350000Y-90037500D03*
D10*
G36*
X120387493Y-83401535D02*
G01*
X120418435Y-83406125D01*
X120448778Y-83413725D01*
X120478230Y-83424263D01*
X120506508Y-83437638D01*
X120533338Y-83453719D01*
X120558463Y-83472353D01*
X120581640Y-83493360D01*
X120602647Y-83516537D01*
X120621281Y-83541662D01*
X120637362Y-83568492D01*
X120650737Y-83596770D01*
X120661275Y-83626222D01*
X120668875Y-83656565D01*
X120673465Y-83687507D01*
X120675000Y-83718750D01*
X120675000Y-84356250D01*
X120673465Y-84387493D01*
X120668875Y-84418435D01*
X120661275Y-84448778D01*
X120650737Y-84478230D01*
X120637362Y-84506508D01*
X120621281Y-84533338D01*
X120602647Y-84558463D01*
X120581640Y-84581640D01*
X120558463Y-84602647D01*
X120533338Y-84621281D01*
X120506508Y-84637362D01*
X120478230Y-84650737D01*
X120448778Y-84661275D01*
X120418435Y-84668875D01*
X120387493Y-84673465D01*
X120356250Y-84675000D01*
X119643750Y-84675000D01*
X119612507Y-84673465D01*
X119581565Y-84668875D01*
X119551222Y-84661275D01*
X119521770Y-84650737D01*
X119493492Y-84637362D01*
X119466662Y-84621281D01*
X119441537Y-84602647D01*
X119418360Y-84581640D01*
X119397353Y-84558463D01*
X119378719Y-84533338D01*
X119362638Y-84506508D01*
X119349263Y-84478230D01*
X119338725Y-84448778D01*
X119331125Y-84418435D01*
X119326535Y-84387493D01*
X119325000Y-84356250D01*
X119325000Y-83718750D01*
X119326535Y-83687507D01*
X119331125Y-83656565D01*
X119338725Y-83626222D01*
X119349263Y-83596770D01*
X119362638Y-83568492D01*
X119378719Y-83541662D01*
X119397353Y-83516537D01*
X119418360Y-83493360D01*
X119441537Y-83472353D01*
X119466662Y-83453719D01*
X119493492Y-83437638D01*
X119521770Y-83424263D01*
X119551222Y-83413725D01*
X119581565Y-83406125D01*
X119612507Y-83401535D01*
X119643750Y-83400000D01*
X120356250Y-83400000D01*
X120387493Y-83401535D01*
X120387493Y-83401535D01*
G37*
D14*
X120000000Y-84037500D03*
D10*
G36*
X120387493Y-81826535D02*
G01*
X120418435Y-81831125D01*
X120448778Y-81838725D01*
X120478230Y-81849263D01*
X120506508Y-81862638D01*
X120533338Y-81878719D01*
X120558463Y-81897353D01*
X120581640Y-81918360D01*
X120602647Y-81941537D01*
X120621281Y-81966662D01*
X120637362Y-81993492D01*
X120650737Y-82021770D01*
X120661275Y-82051222D01*
X120668875Y-82081565D01*
X120673465Y-82112507D01*
X120675000Y-82143750D01*
X120675000Y-82781250D01*
X120673465Y-82812493D01*
X120668875Y-82843435D01*
X120661275Y-82873778D01*
X120650737Y-82903230D01*
X120637362Y-82931508D01*
X120621281Y-82958338D01*
X120602647Y-82983463D01*
X120581640Y-83006640D01*
X120558463Y-83027647D01*
X120533338Y-83046281D01*
X120506508Y-83062362D01*
X120478230Y-83075737D01*
X120448778Y-83086275D01*
X120418435Y-83093875D01*
X120387493Y-83098465D01*
X120356250Y-83100000D01*
X119643750Y-83100000D01*
X119612507Y-83098465D01*
X119581565Y-83093875D01*
X119551222Y-83086275D01*
X119521770Y-83075737D01*
X119493492Y-83062362D01*
X119466662Y-83046281D01*
X119441537Y-83027647D01*
X119418360Y-83006640D01*
X119397353Y-82983463D01*
X119378719Y-82958338D01*
X119362638Y-82931508D01*
X119349263Y-82903230D01*
X119338725Y-82873778D01*
X119331125Y-82843435D01*
X119326535Y-82812493D01*
X119325000Y-82781250D01*
X119325000Y-82143750D01*
X119326535Y-82112507D01*
X119331125Y-82081565D01*
X119338725Y-82051222D01*
X119349263Y-82021770D01*
X119362638Y-81993492D01*
X119378719Y-81966662D01*
X119397353Y-81941537D01*
X119418360Y-81918360D01*
X119441537Y-81897353D01*
X119466662Y-81878719D01*
X119493492Y-81862638D01*
X119521770Y-81849263D01*
X119551222Y-81838725D01*
X119581565Y-81831125D01*
X119612507Y-81826535D01*
X119643750Y-81825000D01*
X120356250Y-81825000D01*
X120387493Y-81826535D01*
X120387493Y-81826535D01*
G37*
D14*
X120000000Y-82462500D03*
D10*
G36*
X112062493Y-83326535D02*
G01*
X112093435Y-83331125D01*
X112123778Y-83338725D01*
X112153230Y-83349263D01*
X112181508Y-83362638D01*
X112208338Y-83378719D01*
X112233463Y-83397353D01*
X112256640Y-83418360D01*
X112277647Y-83441537D01*
X112296281Y-83466662D01*
X112312362Y-83493492D01*
X112325737Y-83521770D01*
X112336275Y-83551222D01*
X112343875Y-83581565D01*
X112348465Y-83612507D01*
X112350000Y-83643750D01*
X112350000Y-84356250D01*
X112348465Y-84387493D01*
X112343875Y-84418435D01*
X112336275Y-84448778D01*
X112325737Y-84478230D01*
X112312362Y-84506508D01*
X112296281Y-84533338D01*
X112277647Y-84558463D01*
X112256640Y-84581640D01*
X112233463Y-84602647D01*
X112208338Y-84621281D01*
X112181508Y-84637362D01*
X112153230Y-84650737D01*
X112123778Y-84661275D01*
X112093435Y-84668875D01*
X112062493Y-84673465D01*
X112031250Y-84675000D01*
X111393750Y-84675000D01*
X111362507Y-84673465D01*
X111331565Y-84668875D01*
X111301222Y-84661275D01*
X111271770Y-84650737D01*
X111243492Y-84637362D01*
X111216662Y-84621281D01*
X111191537Y-84602647D01*
X111168360Y-84581640D01*
X111147353Y-84558463D01*
X111128719Y-84533338D01*
X111112638Y-84506508D01*
X111099263Y-84478230D01*
X111088725Y-84448778D01*
X111081125Y-84418435D01*
X111076535Y-84387493D01*
X111075000Y-84356250D01*
X111075000Y-83643750D01*
X111076535Y-83612507D01*
X111081125Y-83581565D01*
X111088725Y-83551222D01*
X111099263Y-83521770D01*
X111112638Y-83493492D01*
X111128719Y-83466662D01*
X111147353Y-83441537D01*
X111168360Y-83418360D01*
X111191537Y-83397353D01*
X111216662Y-83378719D01*
X111243492Y-83362638D01*
X111271770Y-83349263D01*
X111301222Y-83338725D01*
X111331565Y-83331125D01*
X111362507Y-83326535D01*
X111393750Y-83325000D01*
X112031250Y-83325000D01*
X112062493Y-83326535D01*
X112062493Y-83326535D01*
G37*
D14*
X111712500Y-84000000D03*
D10*
G36*
X113637493Y-83326535D02*
G01*
X113668435Y-83331125D01*
X113698778Y-83338725D01*
X113728230Y-83349263D01*
X113756508Y-83362638D01*
X113783338Y-83378719D01*
X113808463Y-83397353D01*
X113831640Y-83418360D01*
X113852647Y-83441537D01*
X113871281Y-83466662D01*
X113887362Y-83493492D01*
X113900737Y-83521770D01*
X113911275Y-83551222D01*
X113918875Y-83581565D01*
X113923465Y-83612507D01*
X113925000Y-83643750D01*
X113925000Y-84356250D01*
X113923465Y-84387493D01*
X113918875Y-84418435D01*
X113911275Y-84448778D01*
X113900737Y-84478230D01*
X113887362Y-84506508D01*
X113871281Y-84533338D01*
X113852647Y-84558463D01*
X113831640Y-84581640D01*
X113808463Y-84602647D01*
X113783338Y-84621281D01*
X113756508Y-84637362D01*
X113728230Y-84650737D01*
X113698778Y-84661275D01*
X113668435Y-84668875D01*
X113637493Y-84673465D01*
X113606250Y-84675000D01*
X112968750Y-84675000D01*
X112937507Y-84673465D01*
X112906565Y-84668875D01*
X112876222Y-84661275D01*
X112846770Y-84650737D01*
X112818492Y-84637362D01*
X112791662Y-84621281D01*
X112766537Y-84602647D01*
X112743360Y-84581640D01*
X112722353Y-84558463D01*
X112703719Y-84533338D01*
X112687638Y-84506508D01*
X112674263Y-84478230D01*
X112663725Y-84448778D01*
X112656125Y-84418435D01*
X112651535Y-84387493D01*
X112650000Y-84356250D01*
X112650000Y-83643750D01*
X112651535Y-83612507D01*
X112656125Y-83581565D01*
X112663725Y-83551222D01*
X112674263Y-83521770D01*
X112687638Y-83493492D01*
X112703719Y-83466662D01*
X112722353Y-83441537D01*
X112743360Y-83418360D01*
X112766537Y-83397353D01*
X112791662Y-83378719D01*
X112818492Y-83362638D01*
X112846770Y-83349263D01*
X112876222Y-83338725D01*
X112906565Y-83331125D01*
X112937507Y-83326535D01*
X112968750Y-83325000D01*
X113606250Y-83325000D01*
X113637493Y-83326535D01*
X113637493Y-83326535D01*
G37*
D14*
X113287500Y-84000000D03*
D10*
G36*
X103562493Y-92076535D02*
G01*
X103593435Y-92081125D01*
X103623778Y-92088725D01*
X103653230Y-92099263D01*
X103681508Y-92112638D01*
X103708338Y-92128719D01*
X103733463Y-92147353D01*
X103756640Y-92168360D01*
X103777647Y-92191537D01*
X103796281Y-92216662D01*
X103812362Y-92243492D01*
X103825737Y-92271770D01*
X103836275Y-92301222D01*
X103843875Y-92331565D01*
X103848465Y-92362507D01*
X103850000Y-92393750D01*
X103850000Y-93106250D01*
X103848465Y-93137493D01*
X103843875Y-93168435D01*
X103836275Y-93198778D01*
X103825737Y-93228230D01*
X103812362Y-93256508D01*
X103796281Y-93283338D01*
X103777647Y-93308463D01*
X103756640Y-93331640D01*
X103733463Y-93352647D01*
X103708338Y-93371281D01*
X103681508Y-93387362D01*
X103653230Y-93400737D01*
X103623778Y-93411275D01*
X103593435Y-93418875D01*
X103562493Y-93423465D01*
X103531250Y-93425000D01*
X102893750Y-93425000D01*
X102862507Y-93423465D01*
X102831565Y-93418875D01*
X102801222Y-93411275D01*
X102771770Y-93400737D01*
X102743492Y-93387362D01*
X102716662Y-93371281D01*
X102691537Y-93352647D01*
X102668360Y-93331640D01*
X102647353Y-93308463D01*
X102628719Y-93283338D01*
X102612638Y-93256508D01*
X102599263Y-93228230D01*
X102588725Y-93198778D01*
X102581125Y-93168435D01*
X102576535Y-93137493D01*
X102575000Y-93106250D01*
X102575000Y-92393750D01*
X102576535Y-92362507D01*
X102581125Y-92331565D01*
X102588725Y-92301222D01*
X102599263Y-92271770D01*
X102612638Y-92243492D01*
X102628719Y-92216662D01*
X102647353Y-92191537D01*
X102668360Y-92168360D01*
X102691537Y-92147353D01*
X102716662Y-92128719D01*
X102743492Y-92112638D01*
X102771770Y-92099263D01*
X102801222Y-92088725D01*
X102831565Y-92081125D01*
X102862507Y-92076535D01*
X102893750Y-92075000D01*
X103531250Y-92075000D01*
X103562493Y-92076535D01*
X103562493Y-92076535D01*
G37*
D14*
X103212500Y-92750000D03*
D10*
G36*
X105137493Y-92076535D02*
G01*
X105168435Y-92081125D01*
X105198778Y-92088725D01*
X105228230Y-92099263D01*
X105256508Y-92112638D01*
X105283338Y-92128719D01*
X105308463Y-92147353D01*
X105331640Y-92168360D01*
X105352647Y-92191537D01*
X105371281Y-92216662D01*
X105387362Y-92243492D01*
X105400737Y-92271770D01*
X105411275Y-92301222D01*
X105418875Y-92331565D01*
X105423465Y-92362507D01*
X105425000Y-92393750D01*
X105425000Y-93106250D01*
X105423465Y-93137493D01*
X105418875Y-93168435D01*
X105411275Y-93198778D01*
X105400737Y-93228230D01*
X105387362Y-93256508D01*
X105371281Y-93283338D01*
X105352647Y-93308463D01*
X105331640Y-93331640D01*
X105308463Y-93352647D01*
X105283338Y-93371281D01*
X105256508Y-93387362D01*
X105228230Y-93400737D01*
X105198778Y-93411275D01*
X105168435Y-93418875D01*
X105137493Y-93423465D01*
X105106250Y-93425000D01*
X104468750Y-93425000D01*
X104437507Y-93423465D01*
X104406565Y-93418875D01*
X104376222Y-93411275D01*
X104346770Y-93400737D01*
X104318492Y-93387362D01*
X104291662Y-93371281D01*
X104266537Y-93352647D01*
X104243360Y-93331640D01*
X104222353Y-93308463D01*
X104203719Y-93283338D01*
X104187638Y-93256508D01*
X104174263Y-93228230D01*
X104163725Y-93198778D01*
X104156125Y-93168435D01*
X104151535Y-93137493D01*
X104150000Y-93106250D01*
X104150000Y-92393750D01*
X104151535Y-92362507D01*
X104156125Y-92331565D01*
X104163725Y-92301222D01*
X104174263Y-92271770D01*
X104187638Y-92243492D01*
X104203719Y-92216662D01*
X104222353Y-92191537D01*
X104243360Y-92168360D01*
X104266537Y-92147353D01*
X104291662Y-92128719D01*
X104318492Y-92112638D01*
X104346770Y-92099263D01*
X104376222Y-92088725D01*
X104406565Y-92081125D01*
X104437507Y-92076535D01*
X104468750Y-92075000D01*
X105106250Y-92075000D01*
X105137493Y-92076535D01*
X105137493Y-92076535D01*
G37*
D14*
X104787500Y-92750000D03*
D10*
G36*
X105137493Y-98076535D02*
G01*
X105168435Y-98081125D01*
X105198778Y-98088725D01*
X105228230Y-98099263D01*
X105256508Y-98112638D01*
X105283338Y-98128719D01*
X105308463Y-98147353D01*
X105331640Y-98168360D01*
X105352647Y-98191537D01*
X105371281Y-98216662D01*
X105387362Y-98243492D01*
X105400737Y-98271770D01*
X105411275Y-98301222D01*
X105418875Y-98331565D01*
X105423465Y-98362507D01*
X105425000Y-98393750D01*
X105425000Y-99106250D01*
X105423465Y-99137493D01*
X105418875Y-99168435D01*
X105411275Y-99198778D01*
X105400737Y-99228230D01*
X105387362Y-99256508D01*
X105371281Y-99283338D01*
X105352647Y-99308463D01*
X105331640Y-99331640D01*
X105308463Y-99352647D01*
X105283338Y-99371281D01*
X105256508Y-99387362D01*
X105228230Y-99400737D01*
X105198778Y-99411275D01*
X105168435Y-99418875D01*
X105137493Y-99423465D01*
X105106250Y-99425000D01*
X104468750Y-99425000D01*
X104437507Y-99423465D01*
X104406565Y-99418875D01*
X104376222Y-99411275D01*
X104346770Y-99400737D01*
X104318492Y-99387362D01*
X104291662Y-99371281D01*
X104266537Y-99352647D01*
X104243360Y-99331640D01*
X104222353Y-99308463D01*
X104203719Y-99283338D01*
X104187638Y-99256508D01*
X104174263Y-99228230D01*
X104163725Y-99198778D01*
X104156125Y-99168435D01*
X104151535Y-99137493D01*
X104150000Y-99106250D01*
X104150000Y-98393750D01*
X104151535Y-98362507D01*
X104156125Y-98331565D01*
X104163725Y-98301222D01*
X104174263Y-98271770D01*
X104187638Y-98243492D01*
X104203719Y-98216662D01*
X104222353Y-98191537D01*
X104243360Y-98168360D01*
X104266537Y-98147353D01*
X104291662Y-98128719D01*
X104318492Y-98112638D01*
X104346770Y-98099263D01*
X104376222Y-98088725D01*
X104406565Y-98081125D01*
X104437507Y-98076535D01*
X104468750Y-98075000D01*
X105106250Y-98075000D01*
X105137493Y-98076535D01*
X105137493Y-98076535D01*
G37*
D14*
X104787500Y-98750000D03*
D10*
G36*
X103562493Y-98076535D02*
G01*
X103593435Y-98081125D01*
X103623778Y-98088725D01*
X103653230Y-98099263D01*
X103681508Y-98112638D01*
X103708338Y-98128719D01*
X103733463Y-98147353D01*
X103756640Y-98168360D01*
X103777647Y-98191537D01*
X103796281Y-98216662D01*
X103812362Y-98243492D01*
X103825737Y-98271770D01*
X103836275Y-98301222D01*
X103843875Y-98331565D01*
X103848465Y-98362507D01*
X103850000Y-98393750D01*
X103850000Y-99106250D01*
X103848465Y-99137493D01*
X103843875Y-99168435D01*
X103836275Y-99198778D01*
X103825737Y-99228230D01*
X103812362Y-99256508D01*
X103796281Y-99283338D01*
X103777647Y-99308463D01*
X103756640Y-99331640D01*
X103733463Y-99352647D01*
X103708338Y-99371281D01*
X103681508Y-99387362D01*
X103653230Y-99400737D01*
X103623778Y-99411275D01*
X103593435Y-99418875D01*
X103562493Y-99423465D01*
X103531250Y-99425000D01*
X102893750Y-99425000D01*
X102862507Y-99423465D01*
X102831565Y-99418875D01*
X102801222Y-99411275D01*
X102771770Y-99400737D01*
X102743492Y-99387362D01*
X102716662Y-99371281D01*
X102691537Y-99352647D01*
X102668360Y-99331640D01*
X102647353Y-99308463D01*
X102628719Y-99283338D01*
X102612638Y-99256508D01*
X102599263Y-99228230D01*
X102588725Y-99198778D01*
X102581125Y-99168435D01*
X102576535Y-99137493D01*
X102575000Y-99106250D01*
X102575000Y-98393750D01*
X102576535Y-98362507D01*
X102581125Y-98331565D01*
X102588725Y-98301222D01*
X102599263Y-98271770D01*
X102612638Y-98243492D01*
X102628719Y-98216662D01*
X102647353Y-98191537D01*
X102668360Y-98168360D01*
X102691537Y-98147353D01*
X102716662Y-98128719D01*
X102743492Y-98112638D01*
X102771770Y-98099263D01*
X102801222Y-98088725D01*
X102831565Y-98081125D01*
X102862507Y-98076535D01*
X102893750Y-98075000D01*
X103531250Y-98075000D01*
X103562493Y-98076535D01*
X103562493Y-98076535D01*
G37*
D14*
X103212500Y-98750000D03*
D10*
G36*
X103062493Y-86076535D02*
G01*
X103093435Y-86081125D01*
X103123778Y-86088725D01*
X103153230Y-86099263D01*
X103181508Y-86112638D01*
X103208338Y-86128719D01*
X103233463Y-86147353D01*
X103256640Y-86168360D01*
X103277647Y-86191537D01*
X103296281Y-86216662D01*
X103312362Y-86243492D01*
X103325737Y-86271770D01*
X103336275Y-86301222D01*
X103343875Y-86331565D01*
X103348465Y-86362507D01*
X103350000Y-86393750D01*
X103350000Y-87106250D01*
X103348465Y-87137493D01*
X103343875Y-87168435D01*
X103336275Y-87198778D01*
X103325737Y-87228230D01*
X103312362Y-87256508D01*
X103296281Y-87283338D01*
X103277647Y-87308463D01*
X103256640Y-87331640D01*
X103233463Y-87352647D01*
X103208338Y-87371281D01*
X103181508Y-87387362D01*
X103153230Y-87400737D01*
X103123778Y-87411275D01*
X103093435Y-87418875D01*
X103062493Y-87423465D01*
X103031250Y-87425000D01*
X102393750Y-87425000D01*
X102362507Y-87423465D01*
X102331565Y-87418875D01*
X102301222Y-87411275D01*
X102271770Y-87400737D01*
X102243492Y-87387362D01*
X102216662Y-87371281D01*
X102191537Y-87352647D01*
X102168360Y-87331640D01*
X102147353Y-87308463D01*
X102128719Y-87283338D01*
X102112638Y-87256508D01*
X102099263Y-87228230D01*
X102088725Y-87198778D01*
X102081125Y-87168435D01*
X102076535Y-87137493D01*
X102075000Y-87106250D01*
X102075000Y-86393750D01*
X102076535Y-86362507D01*
X102081125Y-86331565D01*
X102088725Y-86301222D01*
X102099263Y-86271770D01*
X102112638Y-86243492D01*
X102128719Y-86216662D01*
X102147353Y-86191537D01*
X102168360Y-86168360D01*
X102191537Y-86147353D01*
X102216662Y-86128719D01*
X102243492Y-86112638D01*
X102271770Y-86099263D01*
X102301222Y-86088725D01*
X102331565Y-86081125D01*
X102362507Y-86076535D01*
X102393750Y-86075000D01*
X103031250Y-86075000D01*
X103062493Y-86076535D01*
X103062493Y-86076535D01*
G37*
D14*
X102712500Y-86750000D03*
D10*
G36*
X104637493Y-86076535D02*
G01*
X104668435Y-86081125D01*
X104698778Y-86088725D01*
X104728230Y-86099263D01*
X104756508Y-86112638D01*
X104783338Y-86128719D01*
X104808463Y-86147353D01*
X104831640Y-86168360D01*
X104852647Y-86191537D01*
X104871281Y-86216662D01*
X104887362Y-86243492D01*
X104900737Y-86271770D01*
X104911275Y-86301222D01*
X104918875Y-86331565D01*
X104923465Y-86362507D01*
X104925000Y-86393750D01*
X104925000Y-87106250D01*
X104923465Y-87137493D01*
X104918875Y-87168435D01*
X104911275Y-87198778D01*
X104900737Y-87228230D01*
X104887362Y-87256508D01*
X104871281Y-87283338D01*
X104852647Y-87308463D01*
X104831640Y-87331640D01*
X104808463Y-87352647D01*
X104783338Y-87371281D01*
X104756508Y-87387362D01*
X104728230Y-87400737D01*
X104698778Y-87411275D01*
X104668435Y-87418875D01*
X104637493Y-87423465D01*
X104606250Y-87425000D01*
X103968750Y-87425000D01*
X103937507Y-87423465D01*
X103906565Y-87418875D01*
X103876222Y-87411275D01*
X103846770Y-87400737D01*
X103818492Y-87387362D01*
X103791662Y-87371281D01*
X103766537Y-87352647D01*
X103743360Y-87331640D01*
X103722353Y-87308463D01*
X103703719Y-87283338D01*
X103687638Y-87256508D01*
X103674263Y-87228230D01*
X103663725Y-87198778D01*
X103656125Y-87168435D01*
X103651535Y-87137493D01*
X103650000Y-87106250D01*
X103650000Y-86393750D01*
X103651535Y-86362507D01*
X103656125Y-86331565D01*
X103663725Y-86301222D01*
X103674263Y-86271770D01*
X103687638Y-86243492D01*
X103703719Y-86216662D01*
X103722353Y-86191537D01*
X103743360Y-86168360D01*
X103766537Y-86147353D01*
X103791662Y-86128719D01*
X103818492Y-86112638D01*
X103846770Y-86099263D01*
X103876222Y-86088725D01*
X103906565Y-86081125D01*
X103937507Y-86076535D01*
X103968750Y-86075000D01*
X104606250Y-86075000D01*
X104637493Y-86076535D01*
X104637493Y-86076535D01*
G37*
D14*
X104287500Y-86750000D03*
D15*
X124000000Y-82600000D03*
D16*
X124000000Y-80225000D03*
D17*
X116500000Y-88243200D03*
D10*
G36*
X115896368Y-88868200D02*
G01*
X115014016Y-87618200D01*
X117985984Y-87618200D01*
X117103632Y-88868200D01*
X115896368Y-88868200D01*
X115896368Y-88868200D01*
G37*
D18*
X115000000Y-84096200D03*
D19*
X116500000Y-84242700D03*
D18*
X118000000Y-84096200D03*
D20*
X116500000Y-86909700D03*
D21*
X116500000Y-85500000D03*
D10*
G36*
X117004131Y-84800000D02*
G01*
X117984131Y-86200000D01*
X115015869Y-86200000D01*
X115995869Y-84800000D01*
X117004131Y-84800000D01*
X117004131Y-84800000D01*
G37*
D22*
X106800000Y-81500000D03*
D10*
G36*
X110071447Y-80301487D02*
G01*
X110101425Y-80305934D01*
X110130824Y-80313298D01*
X110159358Y-80323508D01*
X110186755Y-80336465D01*
X110212750Y-80352046D01*
X110237092Y-80370100D01*
X110259548Y-80390452D01*
X110279900Y-80412908D01*
X110297954Y-80437250D01*
X110313535Y-80463245D01*
X110326492Y-80490642D01*
X110336702Y-80519176D01*
X110344066Y-80548575D01*
X110348513Y-80578553D01*
X110350000Y-80608823D01*
X110350000Y-82391177D01*
X110348513Y-82421447D01*
X110344066Y-82451425D01*
X110336702Y-82480824D01*
X110326492Y-82509358D01*
X110313535Y-82536755D01*
X110297954Y-82562750D01*
X110279900Y-82587092D01*
X110259548Y-82609548D01*
X110237092Y-82629900D01*
X110212750Y-82647954D01*
X110186755Y-82663535D01*
X110159358Y-82676492D01*
X110130824Y-82686702D01*
X110101425Y-82694066D01*
X110071447Y-82698513D01*
X110041177Y-82700000D01*
X108558823Y-82700000D01*
X108528553Y-82698513D01*
X108498575Y-82694066D01*
X108469176Y-82686702D01*
X108440642Y-82676492D01*
X108413245Y-82663535D01*
X108387250Y-82647954D01*
X108362908Y-82629900D01*
X108340452Y-82609548D01*
X108320100Y-82587092D01*
X108302046Y-82562750D01*
X108286465Y-82536755D01*
X108273508Y-82509358D01*
X108263298Y-82480824D01*
X108255934Y-82451425D01*
X108251487Y-82421447D01*
X108250000Y-82391177D01*
X108250000Y-80608823D01*
X108251487Y-80578553D01*
X108255934Y-80548575D01*
X108263298Y-80519176D01*
X108273508Y-80490642D01*
X108286465Y-80463245D01*
X108302046Y-80437250D01*
X108320100Y-80412908D01*
X108340452Y-80390452D01*
X108362908Y-80370100D01*
X108387250Y-80352046D01*
X108413245Y-80336465D01*
X108440642Y-80323508D01*
X108469176Y-80313298D01*
X108498575Y-80305934D01*
X108528553Y-80301487D01*
X108558823Y-80300000D01*
X110041177Y-80300000D01*
X110071447Y-80301487D01*
X110071447Y-80301487D01*
G37*
D11*
X109300000Y-81500000D03*
D10*
G36*
X125536447Y-99023487D02*
G01*
X125566425Y-99027934D01*
X125595824Y-99035298D01*
X125624358Y-99045508D01*
X125651755Y-99058465D01*
X125677750Y-99074046D01*
X125702092Y-99092100D01*
X125724548Y-99112452D01*
X125744900Y-99134908D01*
X125762954Y-99159250D01*
X125778535Y-99185245D01*
X125791492Y-99212642D01*
X125801702Y-99241176D01*
X125809066Y-99270575D01*
X125813513Y-99300553D01*
X125815000Y-99330823D01*
X125815000Y-100813177D01*
X125813513Y-100843447D01*
X125809066Y-100873425D01*
X125801702Y-100902824D01*
X125791492Y-100931358D01*
X125778535Y-100958755D01*
X125762954Y-100984750D01*
X125744900Y-101009092D01*
X125724548Y-101031548D01*
X125702092Y-101051900D01*
X125677750Y-101069954D01*
X125651755Y-101085535D01*
X125624358Y-101098492D01*
X125595824Y-101108702D01*
X125566425Y-101116066D01*
X125536447Y-101120513D01*
X125506177Y-101122000D01*
X123773823Y-101122000D01*
X123743553Y-101120513D01*
X123713575Y-101116066D01*
X123684176Y-101108702D01*
X123655642Y-101098492D01*
X123628245Y-101085535D01*
X123602250Y-101069954D01*
X123577908Y-101051900D01*
X123555452Y-101031548D01*
X123535100Y-101009092D01*
X123517046Y-100984750D01*
X123501465Y-100958755D01*
X123488508Y-100931358D01*
X123478298Y-100902824D01*
X123470934Y-100873425D01*
X123466487Y-100843447D01*
X123465000Y-100813177D01*
X123465000Y-99330823D01*
X123466487Y-99300553D01*
X123470934Y-99270575D01*
X123478298Y-99241176D01*
X123488508Y-99212642D01*
X123501465Y-99185245D01*
X123517046Y-99159250D01*
X123535100Y-99134908D01*
X123555452Y-99112452D01*
X123577908Y-99092100D01*
X123602250Y-99074046D01*
X123628245Y-99058465D01*
X123655642Y-99045508D01*
X123684176Y-99035298D01*
X123713575Y-99027934D01*
X123743553Y-99023487D01*
X123773823Y-99022000D01*
X125506177Y-99022000D01*
X125536447Y-99023487D01*
X125536447Y-99023487D01*
G37*
D11*
X124640000Y-100072000D03*
D12*
X124640000Y-97572000D03*
X124640000Y-95072000D03*
X124640000Y-92572000D03*
X124640000Y-90072000D03*
X124640000Y-87572000D03*
D10*
G36*
X118271447Y-80301487D02*
G01*
X118301425Y-80305934D01*
X118330824Y-80313298D01*
X118359358Y-80323508D01*
X118386755Y-80336465D01*
X118412750Y-80352046D01*
X118437092Y-80370100D01*
X118459548Y-80390452D01*
X118479900Y-80412908D01*
X118497954Y-80437250D01*
X118513535Y-80463245D01*
X118526492Y-80490642D01*
X118536702Y-80519176D01*
X118544066Y-80548575D01*
X118548513Y-80578553D01*
X118550000Y-80608823D01*
X118550000Y-82391177D01*
X118548513Y-82421447D01*
X118544066Y-82451425D01*
X118536702Y-82480824D01*
X118526492Y-82509358D01*
X118513535Y-82536755D01*
X118497954Y-82562750D01*
X118479900Y-82587092D01*
X118459548Y-82609548D01*
X118437092Y-82629900D01*
X118412750Y-82647954D01*
X118386755Y-82663535D01*
X118359358Y-82676492D01*
X118330824Y-82686702D01*
X118301425Y-82694066D01*
X118271447Y-82698513D01*
X118241177Y-82700000D01*
X116758823Y-82700000D01*
X116728553Y-82698513D01*
X116698575Y-82694066D01*
X116669176Y-82686702D01*
X116640642Y-82676492D01*
X116613245Y-82663535D01*
X116587250Y-82647954D01*
X116562908Y-82629900D01*
X116540452Y-82609548D01*
X116520100Y-82587092D01*
X116502046Y-82562750D01*
X116486465Y-82536755D01*
X116473508Y-82509358D01*
X116463298Y-82480824D01*
X116455934Y-82451425D01*
X116451487Y-82421447D01*
X116450000Y-82391177D01*
X116450000Y-80608823D01*
X116451487Y-80578553D01*
X116455934Y-80548575D01*
X116463298Y-80519176D01*
X116473508Y-80490642D01*
X116486465Y-80463245D01*
X116502046Y-80437250D01*
X116520100Y-80412908D01*
X116540452Y-80390452D01*
X116562908Y-80370100D01*
X116587250Y-80352046D01*
X116613245Y-80336465D01*
X116640642Y-80323508D01*
X116669176Y-80313298D01*
X116698575Y-80305934D01*
X116728553Y-80301487D01*
X116758823Y-80300000D01*
X118241177Y-80300000D01*
X118271447Y-80301487D01*
X118271447Y-80301487D01*
G37*
D11*
X117500000Y-81500000D03*
D22*
X115000000Y-81500000D03*
D23*
X124000000Y-78000000D03*
X124000000Y-75500000D03*
D24*
X112500000Y-88500000D03*
D25*
X120120000Y-106280000D03*
X112500000Y-91040000D03*
X120120000Y-103740000D03*
X112500000Y-93580000D03*
X120120000Y-101200000D03*
X112500000Y-96120000D03*
X120120000Y-98660000D03*
X112500000Y-98660000D03*
X120120000Y-96120000D03*
X112500000Y-101200000D03*
X120120000Y-93580000D03*
X112500000Y-103740000D03*
X120120000Y-91040000D03*
X112500000Y-106280000D03*
X120120000Y-88500000D03*
D10*
G36*
X110887493Y-86576535D02*
G01*
X110918435Y-86581125D01*
X110948778Y-86588725D01*
X110978230Y-86599263D01*
X111006508Y-86612638D01*
X111033338Y-86628719D01*
X111058463Y-86647353D01*
X111081640Y-86668360D01*
X111102647Y-86691537D01*
X111121281Y-86716662D01*
X111137362Y-86743492D01*
X111150737Y-86771770D01*
X111161275Y-86801222D01*
X111168875Y-86831565D01*
X111173465Y-86862507D01*
X111175000Y-86893750D01*
X111175000Y-87606250D01*
X111173465Y-87637493D01*
X111168875Y-87668435D01*
X111161275Y-87698778D01*
X111150737Y-87728230D01*
X111137362Y-87756508D01*
X111121281Y-87783338D01*
X111102647Y-87808463D01*
X111081640Y-87831640D01*
X111058463Y-87852647D01*
X111033338Y-87871281D01*
X111006508Y-87887362D01*
X110978230Y-87900737D01*
X110948778Y-87911275D01*
X110918435Y-87918875D01*
X110887493Y-87923465D01*
X110856250Y-87925000D01*
X110218750Y-87925000D01*
X110187507Y-87923465D01*
X110156565Y-87918875D01*
X110126222Y-87911275D01*
X110096770Y-87900737D01*
X110068492Y-87887362D01*
X110041662Y-87871281D01*
X110016537Y-87852647D01*
X109993360Y-87831640D01*
X109972353Y-87808463D01*
X109953719Y-87783338D01*
X109937638Y-87756508D01*
X109924263Y-87728230D01*
X109913725Y-87698778D01*
X109906125Y-87668435D01*
X109901535Y-87637493D01*
X109900000Y-87606250D01*
X109900000Y-86893750D01*
X109901535Y-86862507D01*
X109906125Y-86831565D01*
X109913725Y-86801222D01*
X109924263Y-86771770D01*
X109937638Y-86743492D01*
X109953719Y-86716662D01*
X109972353Y-86691537D01*
X109993360Y-86668360D01*
X110016537Y-86647353D01*
X110041662Y-86628719D01*
X110068492Y-86612638D01*
X110096770Y-86599263D01*
X110126222Y-86588725D01*
X110156565Y-86581125D01*
X110187507Y-86576535D01*
X110218750Y-86575000D01*
X110856250Y-86575000D01*
X110887493Y-86576535D01*
X110887493Y-86576535D01*
G37*
D14*
X110537500Y-87250000D03*
D10*
G36*
X109312493Y-86576535D02*
G01*
X109343435Y-86581125D01*
X109373778Y-86588725D01*
X109403230Y-86599263D01*
X109431508Y-86612638D01*
X109458338Y-86628719D01*
X109483463Y-86647353D01*
X109506640Y-86668360D01*
X109527647Y-86691537D01*
X109546281Y-86716662D01*
X109562362Y-86743492D01*
X109575737Y-86771770D01*
X109586275Y-86801222D01*
X109593875Y-86831565D01*
X109598465Y-86862507D01*
X109600000Y-86893750D01*
X109600000Y-87606250D01*
X109598465Y-87637493D01*
X109593875Y-87668435D01*
X109586275Y-87698778D01*
X109575737Y-87728230D01*
X109562362Y-87756508D01*
X109546281Y-87783338D01*
X109527647Y-87808463D01*
X109506640Y-87831640D01*
X109483463Y-87852647D01*
X109458338Y-87871281D01*
X109431508Y-87887362D01*
X109403230Y-87900737D01*
X109373778Y-87911275D01*
X109343435Y-87918875D01*
X109312493Y-87923465D01*
X109281250Y-87925000D01*
X108643750Y-87925000D01*
X108612507Y-87923465D01*
X108581565Y-87918875D01*
X108551222Y-87911275D01*
X108521770Y-87900737D01*
X108493492Y-87887362D01*
X108466662Y-87871281D01*
X108441537Y-87852647D01*
X108418360Y-87831640D01*
X108397353Y-87808463D01*
X108378719Y-87783338D01*
X108362638Y-87756508D01*
X108349263Y-87728230D01*
X108338725Y-87698778D01*
X108331125Y-87668435D01*
X108326535Y-87637493D01*
X108325000Y-87606250D01*
X108325000Y-86893750D01*
X108326535Y-86862507D01*
X108331125Y-86831565D01*
X108338725Y-86801222D01*
X108349263Y-86771770D01*
X108362638Y-86743492D01*
X108378719Y-86716662D01*
X108397353Y-86691537D01*
X108418360Y-86668360D01*
X108441537Y-86647353D01*
X108466662Y-86628719D01*
X108493492Y-86612638D01*
X108521770Y-86599263D01*
X108551222Y-86588725D01*
X108581565Y-86581125D01*
X108612507Y-86576535D01*
X108643750Y-86575000D01*
X109281250Y-86575000D01*
X109312493Y-86576535D01*
X109312493Y-86576535D01*
G37*
D14*
X108962500Y-87250000D03*
D10*
G36*
X109062493Y-92076535D02*
G01*
X109093435Y-92081125D01*
X109123778Y-92088725D01*
X109153230Y-92099263D01*
X109181508Y-92112638D01*
X109208338Y-92128719D01*
X109233463Y-92147353D01*
X109256640Y-92168360D01*
X109277647Y-92191537D01*
X109296281Y-92216662D01*
X109312362Y-92243492D01*
X109325737Y-92271770D01*
X109336275Y-92301222D01*
X109343875Y-92331565D01*
X109348465Y-92362507D01*
X109350000Y-92393750D01*
X109350000Y-93106250D01*
X109348465Y-93137493D01*
X109343875Y-93168435D01*
X109336275Y-93198778D01*
X109325737Y-93228230D01*
X109312362Y-93256508D01*
X109296281Y-93283338D01*
X109277647Y-93308463D01*
X109256640Y-93331640D01*
X109233463Y-93352647D01*
X109208338Y-93371281D01*
X109181508Y-93387362D01*
X109153230Y-93400737D01*
X109123778Y-93411275D01*
X109093435Y-93418875D01*
X109062493Y-93423465D01*
X109031250Y-93425000D01*
X108393750Y-93425000D01*
X108362507Y-93423465D01*
X108331565Y-93418875D01*
X108301222Y-93411275D01*
X108271770Y-93400737D01*
X108243492Y-93387362D01*
X108216662Y-93371281D01*
X108191537Y-93352647D01*
X108168360Y-93331640D01*
X108147353Y-93308463D01*
X108128719Y-93283338D01*
X108112638Y-93256508D01*
X108099263Y-93228230D01*
X108088725Y-93198778D01*
X108081125Y-93168435D01*
X108076535Y-93137493D01*
X108075000Y-93106250D01*
X108075000Y-92393750D01*
X108076535Y-92362507D01*
X108081125Y-92331565D01*
X108088725Y-92301222D01*
X108099263Y-92271770D01*
X108112638Y-92243492D01*
X108128719Y-92216662D01*
X108147353Y-92191537D01*
X108168360Y-92168360D01*
X108191537Y-92147353D01*
X108216662Y-92128719D01*
X108243492Y-92112638D01*
X108271770Y-92099263D01*
X108301222Y-92088725D01*
X108331565Y-92081125D01*
X108362507Y-92076535D01*
X108393750Y-92075000D01*
X109031250Y-92075000D01*
X109062493Y-92076535D01*
X109062493Y-92076535D01*
G37*
D14*
X108712500Y-92750000D03*
D10*
G36*
X110637493Y-92076535D02*
G01*
X110668435Y-92081125D01*
X110698778Y-92088725D01*
X110728230Y-92099263D01*
X110756508Y-92112638D01*
X110783338Y-92128719D01*
X110808463Y-92147353D01*
X110831640Y-92168360D01*
X110852647Y-92191537D01*
X110871281Y-92216662D01*
X110887362Y-92243492D01*
X110900737Y-92271770D01*
X110911275Y-92301222D01*
X110918875Y-92331565D01*
X110923465Y-92362507D01*
X110925000Y-92393750D01*
X110925000Y-93106250D01*
X110923465Y-93137493D01*
X110918875Y-93168435D01*
X110911275Y-93198778D01*
X110900737Y-93228230D01*
X110887362Y-93256508D01*
X110871281Y-93283338D01*
X110852647Y-93308463D01*
X110831640Y-93331640D01*
X110808463Y-93352647D01*
X110783338Y-93371281D01*
X110756508Y-93387362D01*
X110728230Y-93400737D01*
X110698778Y-93411275D01*
X110668435Y-93418875D01*
X110637493Y-93423465D01*
X110606250Y-93425000D01*
X109968750Y-93425000D01*
X109937507Y-93423465D01*
X109906565Y-93418875D01*
X109876222Y-93411275D01*
X109846770Y-93400737D01*
X109818492Y-93387362D01*
X109791662Y-93371281D01*
X109766537Y-93352647D01*
X109743360Y-93331640D01*
X109722353Y-93308463D01*
X109703719Y-93283338D01*
X109687638Y-93256508D01*
X109674263Y-93228230D01*
X109663725Y-93198778D01*
X109656125Y-93168435D01*
X109651535Y-93137493D01*
X109650000Y-93106250D01*
X109650000Y-92393750D01*
X109651535Y-92362507D01*
X109656125Y-92331565D01*
X109663725Y-92301222D01*
X109674263Y-92271770D01*
X109687638Y-92243492D01*
X109703719Y-92216662D01*
X109722353Y-92191537D01*
X109743360Y-92168360D01*
X109766537Y-92147353D01*
X109791662Y-92128719D01*
X109818492Y-92112638D01*
X109846770Y-92099263D01*
X109876222Y-92088725D01*
X109906565Y-92081125D01*
X109937507Y-92076535D01*
X109968750Y-92075000D01*
X110606250Y-92075000D01*
X110637493Y-92076535D01*
X110637493Y-92076535D01*
G37*
D14*
X110287500Y-92750000D03*
D10*
G36*
X110637493Y-98076535D02*
G01*
X110668435Y-98081125D01*
X110698778Y-98088725D01*
X110728230Y-98099263D01*
X110756508Y-98112638D01*
X110783338Y-98128719D01*
X110808463Y-98147353D01*
X110831640Y-98168360D01*
X110852647Y-98191537D01*
X110871281Y-98216662D01*
X110887362Y-98243492D01*
X110900737Y-98271770D01*
X110911275Y-98301222D01*
X110918875Y-98331565D01*
X110923465Y-98362507D01*
X110925000Y-98393750D01*
X110925000Y-99106250D01*
X110923465Y-99137493D01*
X110918875Y-99168435D01*
X110911275Y-99198778D01*
X110900737Y-99228230D01*
X110887362Y-99256508D01*
X110871281Y-99283338D01*
X110852647Y-99308463D01*
X110831640Y-99331640D01*
X110808463Y-99352647D01*
X110783338Y-99371281D01*
X110756508Y-99387362D01*
X110728230Y-99400737D01*
X110698778Y-99411275D01*
X110668435Y-99418875D01*
X110637493Y-99423465D01*
X110606250Y-99425000D01*
X109968750Y-99425000D01*
X109937507Y-99423465D01*
X109906565Y-99418875D01*
X109876222Y-99411275D01*
X109846770Y-99400737D01*
X109818492Y-99387362D01*
X109791662Y-99371281D01*
X109766537Y-99352647D01*
X109743360Y-99331640D01*
X109722353Y-99308463D01*
X109703719Y-99283338D01*
X109687638Y-99256508D01*
X109674263Y-99228230D01*
X109663725Y-99198778D01*
X109656125Y-99168435D01*
X109651535Y-99137493D01*
X109650000Y-99106250D01*
X109650000Y-98393750D01*
X109651535Y-98362507D01*
X109656125Y-98331565D01*
X109663725Y-98301222D01*
X109674263Y-98271770D01*
X109687638Y-98243492D01*
X109703719Y-98216662D01*
X109722353Y-98191537D01*
X109743360Y-98168360D01*
X109766537Y-98147353D01*
X109791662Y-98128719D01*
X109818492Y-98112638D01*
X109846770Y-98099263D01*
X109876222Y-98088725D01*
X109906565Y-98081125D01*
X109937507Y-98076535D01*
X109968750Y-98075000D01*
X110606250Y-98075000D01*
X110637493Y-98076535D01*
X110637493Y-98076535D01*
G37*
D14*
X110287500Y-98750000D03*
D10*
G36*
X109062493Y-98076535D02*
G01*
X109093435Y-98081125D01*
X109123778Y-98088725D01*
X109153230Y-98099263D01*
X109181508Y-98112638D01*
X109208338Y-98128719D01*
X109233463Y-98147353D01*
X109256640Y-98168360D01*
X109277647Y-98191537D01*
X109296281Y-98216662D01*
X109312362Y-98243492D01*
X109325737Y-98271770D01*
X109336275Y-98301222D01*
X109343875Y-98331565D01*
X109348465Y-98362507D01*
X109350000Y-98393750D01*
X109350000Y-99106250D01*
X109348465Y-99137493D01*
X109343875Y-99168435D01*
X109336275Y-99198778D01*
X109325737Y-99228230D01*
X109312362Y-99256508D01*
X109296281Y-99283338D01*
X109277647Y-99308463D01*
X109256640Y-99331640D01*
X109233463Y-99352647D01*
X109208338Y-99371281D01*
X109181508Y-99387362D01*
X109153230Y-99400737D01*
X109123778Y-99411275D01*
X109093435Y-99418875D01*
X109062493Y-99423465D01*
X109031250Y-99425000D01*
X108393750Y-99425000D01*
X108362507Y-99423465D01*
X108331565Y-99418875D01*
X108301222Y-99411275D01*
X108271770Y-99400737D01*
X108243492Y-99387362D01*
X108216662Y-99371281D01*
X108191537Y-99352647D01*
X108168360Y-99331640D01*
X108147353Y-99308463D01*
X108128719Y-99283338D01*
X108112638Y-99256508D01*
X108099263Y-99228230D01*
X108088725Y-99198778D01*
X108081125Y-99168435D01*
X108076535Y-99137493D01*
X108075000Y-99106250D01*
X108075000Y-98393750D01*
X108076535Y-98362507D01*
X108081125Y-98331565D01*
X108088725Y-98301222D01*
X108099263Y-98271770D01*
X108112638Y-98243492D01*
X108128719Y-98216662D01*
X108147353Y-98191537D01*
X108168360Y-98168360D01*
X108191537Y-98147353D01*
X108216662Y-98128719D01*
X108243492Y-98112638D01*
X108271770Y-98099263D01*
X108301222Y-98088725D01*
X108331565Y-98081125D01*
X108362507Y-98076535D01*
X108393750Y-98075000D01*
X109031250Y-98075000D01*
X109062493Y-98076535D01*
X109062493Y-98076535D01*
G37*
D14*
X108712500Y-98750000D03*
M02*
