M48
; DRILL file {KiCad (5.1.2)-1} date 2019/06/23 22:35:23
; FORMAT={-:-/ absolute / inch / decimal}
; #@! TF.CreationDate,2019-06-23T22:35:23+09:00
; #@! TF.GenerationSoftware,Kicad,Pcbnew,(5.1.2)-1
FMAT,2
INCH
T1C0.0354
T2C0.0394
T3C0.0787
T4C0.1181
T5C0.1772
%
G90
G05
T1
X8.7697Y-2.7461
X8.8697Y-2.7461
X9.3882Y-2.5197
X9.4882Y-2.5197
X8.7697Y-2.9134
X8.8697Y-2.9134
T2
X10.3346Y-2.2736
X10.3346Y-2.372
X9.7146Y-2.3031
X9.813Y-2.3031
X9.4193Y-2.3031
X9.5177Y-2.3031
X10.0098Y-2.3031
X10.1083Y-2.3031
T3
X9.5669Y-2.6772
X10.5906Y-2.6772
T4
X8.6024Y-2.2933
X8.6024Y-2.9626
X10.5906Y-2.2933
X10.5906Y-2.9626
X10.5906Y-2.9626
T5
X8.8583Y-2.4508
X9.1339Y-2.4508
T0
M30
