M48
; DRILL file {KiCad (5.1.4)-1} date 2019/10/10 13:13:53
; FORMAT={-:-/ absolute / inch / decimal}
; #@! TF.CreationDate,2019-10-10T13:13:53+09:00
; #@! TF.GenerationSoftware,Kicad,Pcbnew,(5.1.4)-1
; #@! TF.FileFunction,Plated,1,2,PTH
FMAT,2
INCH
T1C0.0118
T2C0.0157
T3C0.0276
T4C0.0300
T5C0.0394
T6C0.0394
T7C0.0433
T8C0.0472
T9C0.0906
T10C0.1181
%
G90
G05
T1
X6.3169Y-4.2618
X6.4681Y-4.3677
X6.4779Y-4.2717
X6.5032Y-4.5485
X6.5098Y-4.6177
X6.5642Y-4.6177
X6.571Y-4.508
X6.5875Y-4.6403
X6.6024Y-4.0822
X6.6024Y-4.4961
X6.6127Y-4.5669
X6.6339Y-4.4001
X6.6747Y-4.5669
X6.6747Y-4.685
X6.6988Y-4.4021
X6.7436Y-4.5669
X6.7436Y-4.685
X6.7579Y-4.3248
X6.7761Y-4.3518
X6.7938Y-4.2421
X6.9571Y-3.0606
X6.9776Y-3.0031
X7.0882Y-3.8709
X7.126Y-4.1472
X7.1264Y-3.9106
X7.1555Y-4.4862
X7.1752Y-4.2657
X7.2075Y-3.0425
X7.2323Y-3.0563
X7.2555Y-3.0728
X7.2976Y-3.6563
X7.3202Y-3.6789
X7.3431Y-3.7016
X7.3543Y-4.5543
X7.3553Y-4.1663
X7.3654Y-3.7242
X7.3768Y-4.5776
X7.3799Y-4.2496
X7.3996Y-4.4909
X7.4382Y-3.4461
X7.4524Y-3.6083
X7.4732Y-2.6201
X7.4818Y-4.2028
X7.486Y-4.0636
X7.487Y-2.5933
X7.4996Y-2.565
X7.5046Y-4.0433
X7.5157Y-2.5413
X7.5243Y-4.024
X7.5418Y-4.0027
X7.5514Y-3.6425
X7.5612Y-3.9832
X7.5822Y-3.9653
X7.587Y-3.724
X7.6002Y-3.9445
X7.6122Y-3.7104
X7.6157Y-3.9217
X7.6294Y-4.1683
X7.6328Y-3.9001
X7.6472Y-3.0638
X7.6508Y-3.8764
X7.6656Y-3.3718
X7.6661Y-4.3885
X7.6673Y-4.4193
X7.6907Y-3.3467
X7.7385Y-3.5592
X7.7483Y-3.8265
X7.7642Y-3.2157
X7.7723Y-3.1321
X7.7852Y-2.5406
X7.7972Y-3.8433
X7.8065Y-2.5654
X7.818Y-3.8615
X7.8185Y-3.2283
X7.8293Y-3.0969
X7.8299Y-2.9811
X7.8383Y-3.8801
X7.8593Y-3.8979
X7.8717Y-2.6567
X7.8949Y-3.2559
X7.8992Y-2.7697
X7.9Y-3.0208
X7.9187Y-3.1719
X7.9224Y-3.2287
X7.9226Y-3.063
X7.9226Y-3.0972
X7.9226Y-3.2
X7.9345Y-3.3275
X7.9394Y-3.3547
X7.9582Y-3.5039
X7.9609Y-4.0428
X7.9712Y-3.3549
X7.9761Y-3.6125
X7.999Y-3.3591
X8.0293Y-3.6656
X8.072Y-3.3709
X8.0791Y-3.4512
X8.0915Y-3.2715
X8.1201Y-3.1734
X8.1374Y-2.8701
X8.1413Y-3.0201
X8.1476Y-4.4311
X8.1949Y-2.628
X8.2051Y-3.6157
X8.2117Y-3.9962
X8.2281Y-4.0222
X8.235Y-3.1366
X8.2441Y-2.628
X8.2506Y-3.5094
X8.2506Y-3.5776
X8.2583Y-3.4673
X8.2728Y-3.9729
X8.2741Y-3.6422
X8.2748Y-4.0449
X8.2797Y-3.5042
X8.2889Y-4.5394
X8.2953Y-2.628
X8.2969Y-3.5882
X8.3185Y-3.9154
X8.3188Y-3.4793
X8.3195Y-3.7982
X8.3445Y-2.628
X8.3512Y-3.7799
X8.3524Y-2.8146
X8.3711Y-2.7334
X8.3933Y-4.2047
X8.3957Y-2.628
X8.402Y-2.7994
X8.4219Y-4.0471
X8.4449Y-2.628
X8.4634Y-3.8406
X8.4783Y-4.0335
X8.4941Y-2.628
X8.502Y-3.9252
X8.5453Y-2.628
X8.6102Y-2.6831
X8.6181Y-4.0517
X8.6181Y-4.2298
X8.6358Y-3.8189
X8.6417Y-3.9941
X8.7461Y-2.6909
X8.748Y-3.9232
X8.781Y-4.4587
X8.878Y-2.2456
X8.8962Y-2.8642
T2
X5.7776Y-2.0866
X5.7776Y-2.2146
X5.7776Y-2.3622
X5.7776Y-2.5591
X5.7776Y-2.7559
X5.7776Y-2.9528
X5.7776Y-3.1496
X5.7776Y-3.3465
X5.7776Y-3.5433
X5.7776Y-3.7402
X5.7776Y-3.937
X5.7776Y-4.1339
X5.7776Y-4.3307
X5.7776Y-4.5276
X5.8661Y-4.498
X5.876Y-2.1161
X5.9055Y-2.2146
X5.9055Y-2.3622
X5.9055Y-2.5591
X5.9055Y-2.7559
X5.9055Y-2.9528
X5.9055Y-3.1496
X5.9055Y-3.3465
X5.9055Y-3.5433
X5.9055Y-3.7402
X5.9055Y-3.937
X5.9055Y-4.1339
X5.9055Y-4.3307
X5.9646Y-2.0768
X5.9646Y-4.5374
X5.9843Y-1.8799
X6.0138Y-1.9685
X6.0236Y-2.9528
X6.0236Y-3.1791
X6.0236Y-3.3465
X6.0236Y-3.5433
X6.0236Y-3.7402
X6.0236Y-3.937
X6.0236Y-4.1339
X6.0236Y-4.3307
X6.0236Y-4.4685
X6.0335Y-2.2146
X6.0335Y-2.3622
X6.0335Y-2.5591
X6.0335Y-2.7559
X6.0531Y-4.6161
X6.0531Y-4.7343
X6.0728Y-1.8799
X6.0728Y-1.9587
X6.0728Y-2.0669
X6.1024Y-4.5079
X6.1417Y-2.7559
X6.1417Y-2.9528
X6.1417Y-3.1791
X6.1417Y-3.3465
X6.1417Y-3.5433
X6.1417Y-3.7402
X6.1417Y-4.1339
X6.1909Y-2.0669
X6.1909Y-2.1654
X6.1909Y-2.3228
X6.1909Y-2.4508
X6.1909Y-2.5591
X6.2106Y-4.5079
X6.25Y-4.7343
X6.2598Y-2.7559
X6.2598Y-2.9528
X6.2598Y-3.1791
X6.2598Y-3.3465
X6.2598Y-3.5433
X6.2598Y-3.7402
X6.2598Y-3.9173
X6.2795Y-2.0669
X6.2795Y-2.1654
X6.2795Y-2.3228
X6.2795Y-2.4508
X6.3189Y-4.5079
X6.3386Y-4.065
X6.378Y-2.0669
X6.378Y-2.1654
X6.378Y-2.3228
X6.378Y-2.4508
X6.378Y-2.7559
X6.378Y-2.9528
X6.3878Y-4.7343
X6.4075Y-3.3465
X6.4075Y-3.7402
X6.4075Y-3.9173
X6.4272Y-4.5079
X6.4469Y-4.7343
X6.4665Y-4.0748
X6.4665Y-4.1831
X6.4665Y-4.3209
X6.4665Y-4.4094
X6.4764Y-2.0669
X6.4764Y-2.1654
X6.4764Y-2.3228
X6.4764Y-2.4508
X6.4764Y-2.7559
X6.4764Y-2.9528
X6.5059Y-3.435
X6.5059Y-3.7402
X6.5059Y-3.878
X6.5256Y-4.6752
X6.5256Y-4.7343
X6.5551Y-4.0748
X6.5846Y-2.0669
X6.5846Y-2.1654
X6.5846Y-2.3228
X6.5846Y-2.4508
X6.5846Y-2.7559
X6.5846Y-2.9528
X6.5945Y-4.3602
X6.6339Y-4.7343
X6.6437Y-4.1339
X6.6476Y-4.0807
X6.6535Y-3.7402
X6.6535Y-3.878
X6.6732Y-4.3602
X6.6831Y-2.0669
X6.6831Y-2.1654
X6.6831Y-2.3228
X6.6831Y-2.4508
X6.6831Y-2.7559
X6.6831Y-2.9528
X6.6929Y-3.3858
X6.7421Y-4.7343
X6.7436Y-4.6239
X6.7717Y-2.4508
X6.7717Y-3.4547
X6.7815Y-2.0669
X6.7815Y-2.1654
X6.7815Y-2.3228
X6.7913Y-3.878
X6.8012Y-2.9528
X6.8012Y-4.0748
X6.8012Y-4.189
X6.8012Y-4.2815
X6.811Y-3.5827
X6.8406Y-3.7598
X6.8406Y-4.5079
X6.8406Y-4.626
X6.8406Y-4.7343
X6.8504Y-3.4055
X6.8529Y-3.6673
X6.8799Y-2.0669
X6.8799Y-2.1654
X6.8799Y-2.3228
X6.8898Y-2.5098
X6.9193Y-2.9528
X6.9193Y-4.311
X6.9291Y-3.878
X6.9291Y-3.9764
X6.9291Y-4.124
X6.939Y-4.626
X6.939Y-4.7343
X6.9685Y-2.5984
X6.9783Y-2.0669
X6.9783Y-2.1654
X6.9783Y-2.3228
X6.9783Y-4.3602
X7.0177Y-2.4508
X7.0177Y-4.1437
X7.0276Y-4.2815
X7.0374Y-4.5079
X7.0374Y-4.7343
X7.0472Y-2.6673
X7.0472Y-3.9764
X7.0866Y-2.0669
X7.0866Y-2.1654
X7.0866Y-2.3228
X7.126Y-2.7461
X7.126Y-4.2815
X7.1358Y-2.5689
X7.1457Y-2.4409
X7.1654Y-3.3957
X7.1654Y-3.563
X7.1654Y-3.9764
X7.1752Y-2.8642
X7.1752Y-4.1437
X7.185Y-2.0669
X7.185Y-2.1654
X7.185Y-2.2835
X7.2283Y-3.4047
X7.2736Y-4.1437
X7.2835Y-3.3957
X7.2835Y-3.563
X7.3031Y-1.9685
X7.3031Y-2.0768
X7.3031Y-2.1654
X7.3031Y-2.2343
X7.3031Y-2.313
X7.3031Y-2.4114
X7.3031Y-2.7461
X7.3031Y-2.8543
X7.3031Y-2.9429
X7.3031Y-3.1102
X7.3253Y-4.1299
X7.3819Y-2.6575
X7.4016Y-1.9685
X7.4016Y-2.0866
X7.4016Y-2.1654
X7.4016Y-2.2343
X7.4114Y-2.3228
X7.4114Y-2.4114
X7.4213Y-3.5531
X7.4311Y-2.9429
X7.4311Y-4.626
X7.4311Y-4.7343
X7.4705Y-3.2382
X7.4705Y-3.3661
X7.4769Y-4.6417
X7.5098Y-3.5138
X7.5197Y-2.1654
X7.5197Y-2.6575
X7.5197Y-2.7559
X7.5197Y-2.8642
X7.5295Y-2.4114
X7.5394Y-3.1102
X7.5492Y-2.9724
X7.5984Y-2.2736
X7.6083Y-2.1654
X7.6083Y-3.6122
X7.628Y-4.626
X7.628Y-4.7343
X7.6575Y-2.4114
X7.6673Y-2.6575
X7.6673Y-2.7559
X7.6673Y-2.8642
X7.6673Y-2.9724
X7.687Y-3.8189
X7.7165Y-2.1654
X7.7264Y-2.2736
X7.7579Y-4.5551
X7.7736Y-4.3406
X7.7936Y-3.7778
X7.815Y-2.2736
X7.8248Y-2.4114
X7.8248Y-3.7402
X7.8248Y-4.5768
X7.8248Y-4.7343
X7.8346Y-1.9685
X7.8346Y-2.0866
X7.8346Y-2.1654
X7.8445Y-2.5197
X7.8484Y-4.311
X7.8543Y-2.7067
X7.8819Y-2.3386
X7.8839Y-2.2756
X7.8839Y-2.815
X7.8839Y-2.9331
X7.8937Y-3.3169
X7.9134Y-3.7894
X7.9134Y-4.0059
X7.9232Y-1.9685
X7.9232Y-2.0866
X7.9232Y-2.1654
X7.9232Y-3.6417
X7.9331Y-2.4213
X7.9429Y-4.5965
X7.9531Y-2.8091
X7.9587Y-2.2106
X7.9626Y-2.5591
X7.9626Y-4.3012
X7.9626Y-4.3406
X7.9793Y-4.3794
X7.9961Y-2.7323
X8.002Y-3.7008
X8.002Y-3.7894
X8.0217Y-4.7343
X8.0315Y-2.6476
X8.0413Y-3.8583
X8.0413Y-4.5276
X8.0413Y-4.5965
X8.061Y-2.0669
X8.061Y-2.1654
X8.0906Y-2.6969
X8.0906Y-3.9075
X8.0915Y-2.9199
X8.0945Y-3.2283
X8.1299Y-3.8681
X8.1299Y-4.3248
X8.1358Y-4.2224
X8.1398Y-3.7795
X8.1496Y-2.0669
X8.1867Y-3.8363
X8.2185Y-4.5866
X8.2185Y-4.6654
X8.2185Y-4.7343
X8.2402Y-4.3228
X8.248Y-2.0669
X8.3465Y-2.0669
X8.3465Y-4.4783
X8.3642Y-4.096
X8.3957Y-3.2283
X8.3957Y-3.2874
X8.3961Y-3.7197
X8.4154Y-4.7343
X8.4173Y-4.3228
X8.435Y-3.9311
X8.4547Y-2.0669
X8.4646Y-4.5276
X8.4646Y-4.5866
X8.4646Y-4.6654
X8.4744Y-3.2283
X8.4744Y-3.2874
X8.4941Y-3.7106
X8.5217Y-3.0595
X8.5217Y-3.5517
X8.5236Y-2.815
X8.5236Y-2.9134
X8.5236Y-3.002
X8.5236Y-3.4055
X8.5236Y-3.5039
X8.5236Y-4.3504
X8.5236Y-4.5276
X8.5236Y-4.5866
X8.5236Y-4.6654
X8.5265Y-4.2294
X8.5433Y-3.2283
X8.5433Y-3.2874
X8.5531Y-2.0669
X8.5531Y-3.7106
X8.5827Y-2.815
X8.5827Y-3.1063
X8.5906Y-2.562
X8.6024Y-3.5039
X8.6122Y-4.7343
X8.6433Y-2.2445
X8.6516Y-2.0669
X8.6516Y-2.9134
X8.6516Y-3.0118
X8.6516Y-3.1063
X8.6614Y-2.7953
X8.7008Y-3.7598
X8.7119Y-2.7301
X8.7402Y-1.9685
X8.7402Y-2.0669
X8.7402Y-2.1654
X8.7402Y-2.7953
X8.7598Y-3.3071
X8.7598Y-3.4055
X8.7598Y-3.5039
X8.7598Y-3.6024
X8.7598Y-3.7106
X8.7697Y-3.0118
X8.7697Y-3.1102
X8.7697Y-3.9764
X8.7697Y-4.0846
X8.7697Y-4.1732
X8.7697Y-4.2815
X8.7697Y-4.3996
X8.7795Y-2.7461
X8.7795Y-2.9035
X8.7894Y-1.998
X8.7894Y-4.626
X8.8091Y-4.7343
X8.8189Y-1.8799
X8.8287Y-3.878
X8.8287Y-4.5276
X8.8386Y-2.0768
X8.8583Y-3.2587
X8.8583Y-3.6469
X8.878Y-3.061
X8.878Y-4.0748
X8.878Y-4.3209
X8.9075Y-3.6516
X8.9075Y-3.7402
X8.9173Y-2.1161
X8.9272Y-3.1201
X8.9272Y-3.2087
X8.9272Y-3.3071
X8.9272Y-3.4055
X8.9272Y-4.4882
X8.9449Y-2.2953
X8.9449Y-2.3957
X8.9449Y-2.4961
X8.9449Y-2.6004
X9.0276Y-2.0827
X9.0295Y-2.2067
X9.0295Y-2.2953
X9.0295Y-2.3957
X9.0295Y-2.4961
X9.0295Y-2.6004
X9.0295Y-2.8346
X9.0295Y-3.061
X9.0295Y-3.2579
X9.0295Y-3.4547
X9.0295Y-3.6516
X9.0295Y-3.878
X9.0295Y-4.0748
X9.0295Y-4.3209
X9.0295Y-4.5177
T3
X6.0925Y-4.6752
X6.1516Y-4.6752
X6.2106Y-4.6752
X6.2697Y-4.6752
X6.3287Y-4.6752
X6.3878Y-4.6752
T4
X6.3224Y-3.2494
X6.4224Y-3.2494
X6.5224Y-3.2494
X6.6224Y-3.2494
X6.7224Y-3.2494
X6.8224Y-3.2494
X6.9224Y-3.2494
X7.0224Y-3.2494
X7.1224Y-3.2494
T5
X8.437Y-2.8622
X8.437Y-2.9606
X8.437Y-3.0591
X8.437Y-3.1575
X7.4626Y-1.9138
X7.4626Y-2.0138
X7.5626Y-1.9138
X7.5626Y-2.0138
X7.6626Y-1.9138
X7.6626Y-2.0138
X7.7626Y-1.9138
X7.7626Y-2.0138
X8.437Y-3.3543
X8.437Y-3.4528
X8.437Y-3.5512
X8.437Y-3.6496
X8.5886Y-4.626
X8.687Y-4.626
X8.8878Y-2.687
X8.9878Y-2.687
X8.7008Y-3.3543
X8.7008Y-3.4528
X8.7008Y-3.5512
X8.7008Y-3.6496
X8.0Y-2.1161
X8.1Y-2.1161
X8.2Y-2.1161
X8.3Y-2.1161
X8.4Y-2.1161
X8.5Y-2.1161
X8.6Y-2.1161
X8.7Y-2.1161
X8.6969Y-4.0335
X8.6969Y-4.1319
X8.6969Y-4.2303
X8.6969Y-4.3287
X8.8878Y-3.8268
X8.9878Y-3.8268
X8.0Y-1.9138
X8.0Y-2.0138
X8.1Y-1.9138
X8.1Y-2.0138
X8.2Y-1.9138
X8.2Y-2.0138
X8.3Y-1.9138
X8.3Y-2.0138
X8.4Y-1.9138
X8.4Y-2.0138
X8.5Y-1.9138
X8.5Y-2.0138
X8.6Y-1.9138
X8.6Y-2.0138
X8.7Y-1.9138
X8.7Y-2.0138
X6.1319Y-2.1161
X6.2319Y-2.1161
X6.3319Y-2.1161
X6.4319Y-2.1161
X6.5319Y-2.1161
X6.6319Y-2.1161
X6.7319Y-2.1161
X6.8319Y-2.1161
X6.9319Y-2.1161
X7.0319Y-2.1161
X7.1319Y-2.1161
X7.2319Y-2.1161
X7.4626Y-2.1161
X7.5626Y-2.1161
X7.6626Y-2.1161
X7.7626Y-2.1161
X6.1299Y-1.9138
X6.1299Y-2.0138
X6.2299Y-1.9138
X6.2299Y-2.0138
X6.3299Y-1.9138
X6.3299Y-2.0138
X6.4299Y-1.9138
X6.4299Y-2.0138
X6.5299Y-1.9138
X6.5299Y-2.0138
X6.6299Y-1.9138
X6.6299Y-2.0138
X6.7299Y-1.9138
X6.7299Y-2.0138
X6.8299Y-1.9138
X6.8299Y-2.0138
X6.9299Y-1.9138
X6.9299Y-2.0138
X7.0299Y-1.9138
X7.0299Y-2.0138
X7.1299Y-1.9138
X7.1299Y-2.0138
X7.2299Y-1.9138
X7.2299Y-2.0138
X8.7008Y-2.8622
X8.7008Y-2.9606
X8.7008Y-3.0591
X8.7008Y-3.1575
X8.2933Y-4.626
X8.3917Y-4.626
X8.9862Y-2.1457
X8.9862Y-2.2457
X8.9862Y-2.3457
X8.9862Y-2.4457
X8.9862Y-2.5457
T6
X6.2599Y-4.0059
X6.2599Y-4.1059
X6.2599Y-4.1859
X6.2599Y-4.2859
T8
X7.6937Y-4.6555
X7.7941Y-4.6555
X7.8937Y-4.6555
X7.9937Y-4.6555
X8.0937Y-4.6555
T9
X6.1549Y-3.8659
X6.1549Y-4.4059
T10
X5.8661Y-1.9685
X5.8661Y-4.6457
X8.937Y-1.9685
X8.937Y-4.6457
X8.9567Y-3.502
X8.9528Y-4.1811
X8.9567Y-3.0098
T7
G00X6.002Y-3.0998
M15
G01X6.0571Y-3.0998
M16
G05
G00X7.3878Y-3.0998
M15
G01X7.4429Y-3.0998
M16
G05
T0
M30
