G04 #@! TF.GenerationSoftware,KiCad,Pcbnew,(5.1.4)-1*
G04 #@! TF.CreationDate,2019-10-10T13:13:50+09:00*
G04 #@! TF.ProjectId,stm32f446_main,73746d33-3266-4343-9436-5f6d61696e2e,rev?*
G04 #@! TF.SameCoordinates,Original*
G04 #@! TF.FileFunction,Legend,Bot*
G04 #@! TF.FilePolarity,Positive*
%FSLAX46Y46*%
G04 Gerber Fmt 4.6, Leading zero omitted, Abs format (unit mm)*
G04 Created by KiCad (PCBNEW (5.1.4)-1) date 2019-10-10 13:13:50*
%MOMM*%
%LPD*%
G04 APERTURE LIST*
%ADD10C,0.150000*%
%ADD11C,0.200000*%
%ADD12C,0.120000*%
%ADD13C,0.010000*%
G04 APERTURE END LIST*
D10*
X184307261Y-71011904D02*
X184207261Y-70211904D01*
X184016785Y-70211904D01*
X183907261Y-70250000D01*
X183840595Y-70326190D01*
X183812023Y-70402380D01*
X183792976Y-70554761D01*
X183807261Y-70669047D01*
X183864404Y-70821428D01*
X183912023Y-70897619D01*
X183997738Y-70973809D01*
X184116785Y-71011904D01*
X184307261Y-71011904D01*
X183197738Y-70973809D02*
X183278690Y-71011904D01*
X183431071Y-71011904D01*
X183502500Y-70973809D01*
X183531071Y-70897619D01*
X183492976Y-70592857D01*
X183445357Y-70516666D01*
X183364404Y-70478571D01*
X183212023Y-70478571D01*
X183140595Y-70516666D01*
X183112023Y-70592857D01*
X183121547Y-70669047D01*
X183512023Y-70745238D01*
X182854880Y-70973809D02*
X182783452Y-71011904D01*
X182631071Y-71011904D01*
X182550119Y-70973809D01*
X182502500Y-70897619D01*
X182497738Y-70859523D01*
X182526309Y-70783333D01*
X182597738Y-70745238D01*
X182712023Y-70745238D01*
X182783452Y-70707142D01*
X182812023Y-70630952D01*
X182807261Y-70592857D01*
X182759642Y-70516666D01*
X182678690Y-70478571D01*
X182564404Y-70478571D01*
X182492976Y-70516666D01*
X182173928Y-71011904D02*
X182107261Y-70478571D01*
X182073928Y-70211904D02*
X182116785Y-70250000D01*
X182083452Y-70288095D01*
X182040595Y-70250000D01*
X182073928Y-70211904D01*
X182083452Y-70288095D01*
X181383452Y-70478571D02*
X181464404Y-71126190D01*
X181512023Y-71202380D01*
X181554880Y-71240476D01*
X181635833Y-71278571D01*
X181750119Y-71278571D01*
X181821547Y-71240476D01*
X181445357Y-70973809D02*
X181526309Y-71011904D01*
X181678690Y-71011904D01*
X181750119Y-70973809D01*
X181783452Y-70935714D01*
X181812023Y-70859523D01*
X181783452Y-70630952D01*
X181735833Y-70554761D01*
X181692976Y-70516666D01*
X181612023Y-70478571D01*
X181459642Y-70478571D01*
X181388214Y-70516666D01*
X181002500Y-70478571D02*
X181069166Y-71011904D01*
X181012023Y-70554761D02*
X180969166Y-70516666D01*
X180888214Y-70478571D01*
X180773928Y-70478571D01*
X180702500Y-70516666D01*
X180673928Y-70592857D01*
X180726309Y-71011904D01*
X180035833Y-70973809D02*
X180116785Y-71011904D01*
X180269166Y-71011904D01*
X180340595Y-70973809D01*
X180369166Y-70897619D01*
X180331071Y-70592857D01*
X180283452Y-70516666D01*
X180202500Y-70478571D01*
X180050119Y-70478571D01*
X179978690Y-70516666D01*
X179950119Y-70592857D01*
X179959642Y-70669047D01*
X180350119Y-70745238D01*
X179316785Y-71011904D02*
X179216785Y-70211904D01*
X179312023Y-70973809D02*
X179392976Y-71011904D01*
X179545357Y-71011904D01*
X179616785Y-70973809D01*
X179650119Y-70935714D01*
X179678690Y-70859523D01*
X179650119Y-70630952D01*
X179602500Y-70554761D01*
X179559642Y-70516666D01*
X179478690Y-70478571D01*
X179326309Y-70478571D01*
X179254880Y-70516666D01*
X178326309Y-71011904D02*
X178226309Y-70211904D01*
X178264404Y-70516666D02*
X178183452Y-70478571D01*
X178031071Y-70478571D01*
X177959642Y-70516666D01*
X177926309Y-70554761D01*
X177897738Y-70630952D01*
X177926309Y-70859523D01*
X177973928Y-70935714D01*
X178016785Y-70973809D01*
X178097738Y-71011904D01*
X178250119Y-71011904D01*
X178321547Y-70973809D01*
X177612023Y-70478571D02*
X177488214Y-71011904D01*
X177231071Y-70478571D02*
X177488214Y-71011904D01*
X177588214Y-71202380D01*
X177631071Y-71240476D01*
X177712023Y-71278571D01*
X176392976Y-70783333D02*
X176012023Y-70783333D01*
X176497738Y-71011904D02*
X176131071Y-70211904D01*
X175964404Y-71011904D01*
X175688214Y-70935714D02*
X175654880Y-70973809D01*
X175697738Y-71011904D01*
X175731071Y-70973809D01*
X175688214Y-70935714D01*
X175697738Y-71011904D01*
X175316785Y-71011904D02*
X175216785Y-70211904D01*
X175021547Y-70783333D01*
X174683452Y-70211904D01*
X174783452Y-71011904D01*
X174402500Y-71011904D02*
X174335833Y-70478571D01*
X174302500Y-70211904D02*
X174345357Y-70250000D01*
X174312023Y-70288095D01*
X174269166Y-70250000D01*
X174302500Y-70211904D01*
X174312023Y-70288095D01*
X174031071Y-70478571D02*
X173612023Y-70478571D01*
X174097738Y-71011904D01*
X173678690Y-71011904D01*
X172964404Y-70478571D02*
X173031071Y-71011904D01*
X173307261Y-70478571D02*
X173359642Y-70897619D01*
X173331071Y-70973809D01*
X173259642Y-71011904D01*
X173145357Y-71011904D01*
X173064404Y-70973809D01*
X173021547Y-70935714D01*
X172697738Y-70478571D02*
X172392976Y-70478571D01*
X172550119Y-70211904D02*
X172635833Y-70897619D01*
X172607261Y-70973809D01*
X172535833Y-71011904D01*
X172459642Y-71011904D01*
X171850119Y-71011904D02*
X171797738Y-70592857D01*
X171826309Y-70516666D01*
X171897738Y-70478571D01*
X172050119Y-70478571D01*
X172131071Y-70516666D01*
X171845357Y-70973809D02*
X171926309Y-71011904D01*
X172116785Y-71011904D01*
X172188214Y-70973809D01*
X172216785Y-70897619D01*
X172207261Y-70821428D01*
X172159642Y-70745238D01*
X172078690Y-70707142D01*
X171888214Y-70707142D01*
X171807261Y-70669047D01*
X171278690Y-71316666D02*
X171312023Y-71278571D01*
X171373928Y-71164285D01*
X171402500Y-71088095D01*
X171426309Y-70973809D01*
X171440595Y-70783333D01*
X171421547Y-70630952D01*
X171359642Y-70440476D01*
X171307261Y-70326190D01*
X171259642Y-70250000D01*
X171169166Y-70135714D01*
X171126309Y-70097619D01*
X170950119Y-70211904D02*
X170492976Y-70211904D01*
X170821547Y-71011904D02*
X170721547Y-70211904D01*
X170335833Y-70478571D02*
X170250119Y-71011904D01*
X170050119Y-70630952D01*
X169945357Y-71011904D01*
X169726309Y-70478571D01*
X169488214Y-71011904D02*
X169421547Y-70478571D01*
X169388214Y-70211904D02*
X169431071Y-70250000D01*
X169397738Y-70288095D01*
X169354880Y-70250000D01*
X169388214Y-70211904D01*
X169397738Y-70288095D01*
X169154880Y-70478571D02*
X168850119Y-70478571D01*
X169007261Y-70211904D02*
X169092976Y-70897619D01*
X169064404Y-70973809D01*
X168992976Y-71011904D01*
X168916785Y-71011904D01*
X168697738Y-70478571D02*
X168392976Y-70478571D01*
X168550119Y-70211904D02*
X168635833Y-70897619D01*
X168607261Y-70973809D01*
X168535833Y-71011904D01*
X168459642Y-71011904D01*
X167883452Y-70973809D02*
X167964404Y-71011904D01*
X168116785Y-71011904D01*
X168188214Y-70973809D01*
X168216785Y-70897619D01*
X168178690Y-70592857D01*
X168131071Y-70516666D01*
X168050119Y-70478571D01*
X167897738Y-70478571D01*
X167826309Y-70516666D01*
X167797738Y-70592857D01*
X167807261Y-70669047D01*
X168197738Y-70745238D01*
X167507261Y-71011904D02*
X167440595Y-70478571D01*
X167459642Y-70630952D02*
X167412023Y-70554761D01*
X167369166Y-70516666D01*
X167288214Y-70478571D01*
X167212023Y-70478571D01*
X167002500Y-70935714D02*
X166969166Y-70973809D01*
X167012023Y-71011904D01*
X167045357Y-70973809D01*
X167002500Y-70935714D01*
X167012023Y-71011904D01*
X166950119Y-70516666D02*
X166916785Y-70554761D01*
X166959642Y-70592857D01*
X166992976Y-70554761D01*
X166950119Y-70516666D01*
X166959642Y-70592857D01*
X166088214Y-70630952D02*
X166121547Y-70592857D01*
X166192976Y-70554761D01*
X166269166Y-70554761D01*
X166350119Y-70592857D01*
X166392976Y-70630952D01*
X166440595Y-70707142D01*
X166450119Y-70783333D01*
X166421547Y-70859523D01*
X166388214Y-70897619D01*
X166316785Y-70935714D01*
X166240595Y-70935714D01*
X166159642Y-70897619D01*
X166116785Y-70859523D01*
X166078690Y-70554761D02*
X166116785Y-70859523D01*
X166083452Y-70897619D01*
X166045357Y-70897619D01*
X165964404Y-70859523D01*
X165916785Y-70783333D01*
X165892976Y-70592857D01*
X165954880Y-70478571D01*
X166059642Y-70402380D01*
X166207261Y-70364285D01*
X166364404Y-70402380D01*
X166488214Y-70478571D01*
X166578690Y-70592857D01*
X166635833Y-70745238D01*
X166616785Y-70897619D01*
X166554880Y-71011904D01*
X166450119Y-71088095D01*
X166302500Y-71126190D01*
X166145357Y-71088095D01*
X166021547Y-71011904D01*
X165612023Y-70478571D02*
X165526309Y-71011904D01*
X165326309Y-70630952D01*
X165221547Y-71011904D01*
X165002500Y-70478571D01*
X164764404Y-71011904D02*
X164697738Y-70478571D01*
X164716785Y-70630952D02*
X164669166Y-70554761D01*
X164626309Y-70516666D01*
X164545357Y-70478571D01*
X164469166Y-70478571D01*
X164316785Y-70478571D02*
X164012023Y-70478571D01*
X164269166Y-71011904D02*
X164183452Y-70326190D01*
X164135833Y-70250000D01*
X164054880Y-70211904D01*
X163978690Y-70211904D01*
X164012023Y-71088095D02*
X163402500Y-71088095D01*
X163088214Y-71011904D02*
X163159642Y-70973809D01*
X163188214Y-70897619D01*
X163102500Y-70211904D01*
X162440595Y-71011904D02*
X162388214Y-70592857D01*
X162416785Y-70516666D01*
X162488214Y-70478571D01*
X162640595Y-70478571D01*
X162721547Y-70516666D01*
X162435833Y-70973809D02*
X162516785Y-71011904D01*
X162707261Y-71011904D01*
X162778690Y-70973809D01*
X162807261Y-70897619D01*
X162797738Y-70821428D01*
X162750119Y-70745238D01*
X162669166Y-70707142D01*
X162478690Y-70707142D01*
X162397738Y-70669047D01*
X162059642Y-71011904D02*
X161959642Y-70211904D01*
X161997738Y-70516666D02*
X161916785Y-70478571D01*
X161764404Y-70478571D01*
X161692976Y-70516666D01*
X161659642Y-70554761D01*
X161631071Y-70630952D01*
X161659642Y-70859523D01*
X161707261Y-70935714D01*
X161750119Y-70973809D01*
X161831071Y-71011904D01*
X161983452Y-71011904D01*
X162054880Y-70973809D01*
X161450119Y-71316666D02*
X161407261Y-71278571D01*
X161316785Y-71164285D01*
X161269166Y-71088095D01*
X161216785Y-70973809D01*
X161154880Y-70783333D01*
X161135833Y-70630952D01*
X161150119Y-70440476D01*
X161173928Y-70326190D01*
X161202500Y-70250000D01*
X161264404Y-70135714D01*
X161297738Y-70097619D01*
X160192976Y-71011904D02*
X160126309Y-70478571D01*
X160092976Y-70211904D02*
X160135833Y-70250000D01*
X160102500Y-70288095D01*
X160059642Y-70250000D01*
X160092976Y-70211904D01*
X160102500Y-70288095D01*
X159745357Y-70478571D02*
X159812023Y-71011904D01*
X159754880Y-70554761D02*
X159712023Y-70516666D01*
X159631071Y-70478571D01*
X159516785Y-70478571D01*
X159445357Y-70516666D01*
X159416785Y-70592857D01*
X159469166Y-71011904D01*
X158426309Y-70288095D02*
X158383452Y-70250000D01*
X158302500Y-70211904D01*
X158112023Y-70211904D01*
X158040595Y-70250000D01*
X158007261Y-70288095D01*
X157978690Y-70364285D01*
X157988214Y-70440476D01*
X158040595Y-70554761D01*
X158554880Y-71011904D01*
X158059642Y-71011904D01*
X157464404Y-70211904D02*
X157388214Y-70211904D01*
X157316785Y-70250000D01*
X157283452Y-70288095D01*
X157254880Y-70364285D01*
X157235833Y-70516666D01*
X157259642Y-70707142D01*
X157316785Y-70859523D01*
X157364404Y-70935714D01*
X157407261Y-70973809D01*
X157488214Y-71011904D01*
X157564404Y-71011904D01*
X157635833Y-70973809D01*
X157669166Y-70935714D01*
X157697738Y-70859523D01*
X157716785Y-70707142D01*
X157692976Y-70516666D01*
X157635833Y-70364285D01*
X157588214Y-70288095D01*
X157545357Y-70250000D01*
X157464404Y-70211904D01*
X156535833Y-71011904D02*
X156992976Y-71011904D01*
X156764404Y-71011904D02*
X156664404Y-70211904D01*
X156754880Y-70326190D01*
X156840595Y-70402380D01*
X156921547Y-70440476D01*
X156154880Y-71011904D02*
X156002500Y-71011904D01*
X155921547Y-70973809D01*
X155878690Y-70935714D01*
X155788214Y-70821428D01*
X155731071Y-70669047D01*
X155692976Y-70364285D01*
X155721547Y-70288095D01*
X155754880Y-70250000D01*
X155826309Y-70211904D01*
X155978690Y-70211904D01*
X156059642Y-70250000D01*
X156102500Y-70288095D01*
X156150119Y-70364285D01*
X156173928Y-70554761D01*
X156145357Y-70630952D01*
X156112023Y-70669047D01*
X156040595Y-70707142D01*
X155888214Y-70707142D01*
X155807261Y-70669047D01*
X155764404Y-70630952D01*
X155716785Y-70554761D01*
X154754880Y-70173809D02*
X155569166Y-71202380D01*
X154173928Y-71011904D02*
X154631071Y-71011904D01*
X154402500Y-71011904D02*
X154302500Y-70211904D01*
X154392976Y-70326190D01*
X154478690Y-70402380D01*
X154559642Y-70440476D01*
X153578690Y-70211904D02*
X153502500Y-70211904D01*
X153431071Y-70250000D01*
X153397738Y-70288095D01*
X153369166Y-70364285D01*
X153350119Y-70516666D01*
X153373928Y-70707142D01*
X153431071Y-70859523D01*
X153478690Y-70935714D01*
X153521547Y-70973809D01*
X153602500Y-71011904D01*
X153678690Y-71011904D01*
X153750119Y-70973809D01*
X153783452Y-70935714D01*
X153812023Y-70859523D01*
X153831071Y-70707142D01*
X153807261Y-70516666D01*
X153750119Y-70364285D01*
X153702500Y-70288095D01*
X153659642Y-70250000D01*
X153578690Y-70211904D01*
X152392976Y-70173809D02*
X153207261Y-71202380D01*
X151812023Y-71011904D02*
X152269166Y-71011904D01*
X152040595Y-71011904D02*
X151940595Y-70211904D01*
X152031071Y-70326190D01*
X152116785Y-70402380D01*
X152197738Y-70440476D01*
X151216785Y-70211904D02*
X151140595Y-70211904D01*
X151069166Y-70250000D01*
X151035833Y-70288095D01*
X151007261Y-70364285D01*
X150988214Y-70516666D01*
X151012023Y-70707142D01*
X151069166Y-70859523D01*
X151116785Y-70935714D01*
X151159642Y-70973809D01*
X151240595Y-71011904D01*
X151316785Y-71011904D01*
X151388214Y-70973809D01*
X151421547Y-70935714D01*
X151450119Y-70859523D01*
X151469166Y-70707142D01*
X151445357Y-70516666D01*
X151388214Y-70364285D01*
X151340595Y-70288095D01*
X151297738Y-70250000D01*
X151216785Y-70211904D01*
X150697738Y-70935714D02*
X150664404Y-70973809D01*
X150707261Y-71011904D01*
X150740595Y-70973809D01*
X150697738Y-70935714D01*
X150707261Y-71011904D01*
D11*
X159871428Y-69761904D02*
X160328571Y-69761904D01*
X160100000Y-69761904D02*
X160100000Y-68961904D01*
X160176190Y-69076190D01*
X160252380Y-69152380D01*
X160328571Y-69190476D01*
X160328571Y-66538095D02*
X160290476Y-66500000D01*
X160214285Y-66461904D01*
X160023809Y-66461904D01*
X159947619Y-66500000D01*
X159909523Y-66538095D01*
X159871428Y-66614285D01*
X159871428Y-66690476D01*
X159909523Y-66804761D01*
X160366666Y-67261904D01*
X159871428Y-67261904D01*
X159909523Y-67711904D02*
X160290476Y-67711904D01*
X160328571Y-68092857D01*
X160290476Y-68054761D01*
X160214285Y-68016666D01*
X160023809Y-68016666D01*
X159947619Y-68054761D01*
X159909523Y-68092857D01*
X159871428Y-68169047D01*
X159871428Y-68359523D01*
X159909523Y-68435714D01*
X159947619Y-68473809D01*
X160023809Y-68511904D01*
X160214285Y-68511904D01*
X160290476Y-68473809D01*
X160328571Y-68435714D01*
D12*
X150500000Y-70000000D02*
X153250000Y-68750000D01*
X150500000Y-70000000D02*
X150500000Y-62500000D01*
X159000000Y-68750000D02*
X153250000Y-70000000D01*
D11*
X151521428Y-68511904D02*
X151978571Y-68511904D01*
X151750000Y-68511904D02*
X151750000Y-67711904D01*
X151826190Y-67826190D01*
X151902380Y-67902380D01*
X151978571Y-67940476D01*
X151521428Y-67261904D02*
X151978571Y-67261904D01*
X151750000Y-67261904D02*
X151750000Y-66461904D01*
X151826190Y-66576190D01*
X151902380Y-66652380D01*
X151978571Y-66690476D01*
X151521428Y-66011904D02*
X151978571Y-66011904D01*
X151750000Y-66011904D02*
X151750000Y-65211904D01*
X151826190Y-65326190D01*
X151902380Y-65402380D01*
X151978571Y-65440476D01*
X151521428Y-64761904D02*
X151978571Y-64761904D01*
X151750000Y-64761904D02*
X151750000Y-63961904D01*
X151826190Y-64076190D01*
X151902380Y-64152380D01*
X151978571Y-64190476D01*
X151978571Y-62788095D02*
X151940476Y-62750000D01*
X151864285Y-62711904D01*
X151673809Y-62711904D01*
X151597619Y-62750000D01*
X151559523Y-62788095D01*
X151521428Y-62864285D01*
X151521428Y-62940476D01*
X151559523Y-63054761D01*
X152016666Y-63511904D01*
X151521428Y-63511904D01*
D12*
X159000000Y-62500000D02*
X159000000Y-70000000D01*
X161250000Y-70000000D02*
X161250000Y-62500000D01*
X153250000Y-62500000D02*
X153250000Y-70000000D01*
X184500000Y-62500000D02*
X184500000Y-70000000D01*
X184500000Y-70000000D02*
X150500000Y-70000000D01*
X184500000Y-68750000D02*
X150500000Y-68750000D01*
X184500000Y-67500000D02*
X150500000Y-67500000D01*
X184500000Y-66250000D02*
X150500000Y-66250000D01*
X184500000Y-65000000D02*
X150500000Y-65000000D01*
X184500000Y-63750000D02*
X150500000Y-63750000D01*
X184500000Y-62500000D02*
X150500000Y-62500000D01*
D11*
X184179523Y-69342857D02*
X183912857Y-69342857D01*
X183798571Y-69761904D02*
X184179523Y-69761904D01*
X184179523Y-68961904D01*
X183798571Y-68961904D01*
X183455714Y-69761904D02*
X183455714Y-68961904D01*
X183189047Y-69533333D01*
X182922380Y-68961904D01*
X182922380Y-69761904D01*
X182541428Y-69342857D02*
X182274761Y-69342857D01*
X182160476Y-69761904D02*
X182541428Y-69761904D01*
X182541428Y-68961904D01*
X182160476Y-68961904D01*
X181360476Y-69761904D02*
X181627142Y-69380952D01*
X181817619Y-69761904D02*
X181817619Y-68961904D01*
X181512857Y-68961904D01*
X181436666Y-69000000D01*
X181398571Y-69038095D01*
X181360476Y-69114285D01*
X181360476Y-69228571D01*
X181398571Y-69304761D01*
X181436666Y-69342857D01*
X181512857Y-69380952D01*
X181817619Y-69380952D01*
X180598571Y-69000000D02*
X180674761Y-68961904D01*
X180789047Y-68961904D01*
X180903333Y-69000000D01*
X180979523Y-69076190D01*
X181017619Y-69152380D01*
X181055714Y-69304761D01*
X181055714Y-69419047D01*
X181017619Y-69571428D01*
X180979523Y-69647619D01*
X180903333Y-69723809D01*
X180789047Y-69761904D01*
X180712857Y-69761904D01*
X180598571Y-69723809D01*
X180560476Y-69685714D01*
X180560476Y-69419047D01*
X180712857Y-69419047D01*
X180217619Y-69342857D02*
X179950952Y-69342857D01*
X179836666Y-69761904D02*
X180217619Y-69761904D01*
X180217619Y-68961904D01*
X179836666Y-68961904D01*
X179493809Y-69761904D02*
X179493809Y-68961904D01*
X179036666Y-69761904D01*
X179036666Y-68961904D01*
X178198571Y-69685714D02*
X178236666Y-69723809D01*
X178350952Y-69761904D01*
X178427142Y-69761904D01*
X178541428Y-69723809D01*
X178617619Y-69647619D01*
X178655714Y-69571428D01*
X178693809Y-69419047D01*
X178693809Y-69304761D01*
X178655714Y-69152380D01*
X178617619Y-69076190D01*
X178541428Y-69000000D01*
X178427142Y-68961904D01*
X178350952Y-68961904D01*
X178236666Y-69000000D01*
X178198571Y-69038095D01*
X177703333Y-69380952D02*
X177703333Y-69761904D01*
X177970000Y-68961904D02*
X177703333Y-69380952D01*
X177436666Y-68961904D01*
X177170000Y-69457142D02*
X176560476Y-69457142D01*
X176179523Y-69761904D02*
X176179523Y-68961904D01*
X175227142Y-68923809D02*
X175912857Y-69952380D01*
X174808095Y-68961904D02*
X174655714Y-68961904D01*
X174579523Y-69000000D01*
X174503333Y-69076190D01*
X174465238Y-69228571D01*
X174465238Y-69495238D01*
X174503333Y-69647619D01*
X174579523Y-69723809D01*
X174655714Y-69761904D01*
X174808095Y-69761904D01*
X174884285Y-69723809D01*
X174960476Y-69647619D01*
X174998571Y-69495238D01*
X174998571Y-69228571D01*
X174960476Y-69076190D01*
X174884285Y-69000000D01*
X174808095Y-68961904D01*
X174122380Y-69685714D02*
X174084285Y-69723809D01*
X174122380Y-69761904D01*
X174160476Y-69723809D01*
X174122380Y-69685714D01*
X174122380Y-69761904D01*
X173741428Y-69685714D02*
X173703333Y-69723809D01*
X173741428Y-69761904D01*
X173779523Y-69723809D01*
X173741428Y-69685714D01*
X173741428Y-69761904D01*
X173360476Y-69685714D02*
X173322380Y-69723809D01*
X173360476Y-69761904D01*
X173398571Y-69723809D01*
X173360476Y-69685714D01*
X173360476Y-69761904D01*
X173017619Y-69723809D02*
X172903333Y-69761904D01*
X172712857Y-69761904D01*
X172636666Y-69723809D01*
X172598571Y-69685714D01*
X172560476Y-69609523D01*
X172560476Y-69533333D01*
X172598571Y-69457142D01*
X172636666Y-69419047D01*
X172712857Y-69380952D01*
X172865238Y-69342857D01*
X172941428Y-69304761D01*
X172979523Y-69266666D01*
X173017619Y-69190476D01*
X173017619Y-69114285D01*
X172979523Y-69038095D01*
X172941428Y-69000000D01*
X172865238Y-68961904D01*
X172674761Y-68961904D01*
X172560476Y-69000000D01*
X172217619Y-69761904D02*
X172217619Y-68961904D01*
X171874761Y-69761904D02*
X171874761Y-69342857D01*
X171912857Y-69266666D01*
X171989047Y-69228571D01*
X172103333Y-69228571D01*
X172179523Y-69266666D01*
X172217619Y-69304761D01*
X171150952Y-69228571D02*
X171150952Y-69761904D01*
X171493809Y-69228571D02*
X171493809Y-69647619D01*
X171455714Y-69723809D01*
X171379523Y-69761904D01*
X171265238Y-69761904D01*
X171189047Y-69723809D01*
X171150952Y-69685714D01*
X170884285Y-69228571D02*
X170579523Y-69228571D01*
X170770000Y-68961904D02*
X170770000Y-69647619D01*
X170731904Y-69723809D01*
X170655714Y-69761904D01*
X170579523Y-69761904D01*
X169970000Y-69761904D02*
X169970000Y-68961904D01*
X169970000Y-69723809D02*
X170046190Y-69761904D01*
X170198571Y-69761904D01*
X170274761Y-69723809D01*
X170312857Y-69685714D01*
X170350952Y-69609523D01*
X170350952Y-69380952D01*
X170312857Y-69304761D01*
X170274761Y-69266666D01*
X170198571Y-69228571D01*
X170046190Y-69228571D01*
X169970000Y-69266666D01*
X169474761Y-69761904D02*
X169550952Y-69723809D01*
X169589047Y-69685714D01*
X169627142Y-69609523D01*
X169627142Y-69380952D01*
X169589047Y-69304761D01*
X169550952Y-69266666D01*
X169474761Y-69228571D01*
X169360476Y-69228571D01*
X169284285Y-69266666D01*
X169246190Y-69304761D01*
X169208095Y-69380952D01*
X169208095Y-69609523D01*
X169246190Y-69685714D01*
X169284285Y-69723809D01*
X169360476Y-69761904D01*
X169474761Y-69761904D01*
X168941428Y-69228571D02*
X168789047Y-69761904D01*
X168636666Y-69380952D01*
X168484285Y-69761904D01*
X168331904Y-69228571D01*
X168027142Y-69228571D02*
X168027142Y-69761904D01*
X168027142Y-69304761D02*
X167989047Y-69266666D01*
X167912857Y-69228571D01*
X167798571Y-69228571D01*
X167722380Y-69266666D01*
X167684285Y-69342857D01*
X167684285Y-69761904D01*
X167265238Y-69723809D02*
X167265238Y-69761904D01*
X167303333Y-69838095D01*
X167341428Y-69876190D01*
X166922380Y-69761904D02*
X166922380Y-68961904D01*
X166617619Y-68961904D01*
X166541428Y-69000000D01*
X166503333Y-69038095D01*
X166465238Y-69114285D01*
X166465238Y-69228571D01*
X166503333Y-69304761D01*
X166541428Y-69342857D01*
X166617619Y-69380952D01*
X166922380Y-69380952D01*
X166122380Y-69761904D02*
X166122380Y-69228571D01*
X166122380Y-68961904D02*
X166160476Y-69000000D01*
X166122380Y-69038095D01*
X166084285Y-69000000D01*
X166122380Y-68961904D01*
X166122380Y-69038095D01*
X165741428Y-69228571D02*
X165741428Y-69761904D01*
X165741428Y-69304761D02*
X165703333Y-69266666D01*
X165627142Y-69228571D01*
X165512857Y-69228571D01*
X165436666Y-69266666D01*
X165398571Y-69342857D01*
X165398571Y-69761904D01*
X165017619Y-69457142D02*
X164408095Y-69457142D01*
X163570000Y-69761904D02*
X163836666Y-69380952D01*
X164027142Y-69761904D02*
X164027142Y-68961904D01*
X163722380Y-68961904D01*
X163646190Y-69000000D01*
X163608095Y-69038095D01*
X163570000Y-69114285D01*
X163570000Y-69228571D01*
X163608095Y-69304761D01*
X163646190Y-69342857D01*
X163722380Y-69380952D01*
X164027142Y-69380952D01*
X162922380Y-69723809D02*
X162998571Y-69761904D01*
X163150952Y-69761904D01*
X163227142Y-69723809D01*
X163265238Y-69647619D01*
X163265238Y-69342857D01*
X163227142Y-69266666D01*
X163150952Y-69228571D01*
X162998571Y-69228571D01*
X162922380Y-69266666D01*
X162884285Y-69342857D01*
X162884285Y-69419047D01*
X163265238Y-69495238D01*
X162198571Y-69761904D02*
X162198571Y-69342857D01*
X162236666Y-69266666D01*
X162312857Y-69228571D01*
X162465238Y-69228571D01*
X162541428Y-69266666D01*
X162198571Y-69723809D02*
X162274761Y-69761904D01*
X162465238Y-69761904D01*
X162541428Y-69723809D01*
X162579523Y-69647619D01*
X162579523Y-69571428D01*
X162541428Y-69495238D01*
X162465238Y-69457142D01*
X162274761Y-69457142D01*
X162198571Y-69419047D01*
X161474761Y-69761904D02*
X161474761Y-68961904D01*
X161474761Y-69723809D02*
X161550952Y-69761904D01*
X161703333Y-69761904D01*
X161779523Y-69723809D01*
X161817619Y-69685714D01*
X161855714Y-69609523D01*
X161855714Y-69380952D01*
X161817619Y-69304761D01*
X161779523Y-69266666D01*
X161703333Y-69228571D01*
X161550952Y-69228571D01*
X161474761Y-69266666D01*
X158162857Y-68142857D02*
X158048571Y-68180952D01*
X158010476Y-68219047D01*
X157972380Y-68295238D01*
X157972380Y-68409523D01*
X158010476Y-68485714D01*
X158048571Y-68523809D01*
X158124761Y-68561904D01*
X158429523Y-68561904D01*
X158429523Y-67761904D01*
X158162857Y-67761904D01*
X158086666Y-67800000D01*
X158048571Y-67838095D01*
X158010476Y-67914285D01*
X158010476Y-67990476D01*
X158048571Y-68066666D01*
X158086666Y-68104761D01*
X158162857Y-68142857D01*
X158429523Y-68142857D01*
X157629523Y-67761904D02*
X157629523Y-68409523D01*
X157591428Y-68485714D01*
X157553333Y-68523809D01*
X157477142Y-68561904D01*
X157324761Y-68561904D01*
X157248571Y-68523809D01*
X157210476Y-68485714D01*
X157172380Y-68409523D01*
X157172380Y-67761904D01*
X156867619Y-67761904D02*
X156334285Y-67761904D01*
X156867619Y-68561904D01*
X156334285Y-68561904D01*
X156105714Y-67761904D02*
X155572380Y-67761904D01*
X156105714Y-68561904D01*
X155572380Y-68561904D01*
X155267619Y-68142857D02*
X155000952Y-68142857D01*
X154886666Y-68561904D02*
X155267619Y-68561904D01*
X155267619Y-67761904D01*
X154886666Y-67761904D01*
X154086666Y-68561904D02*
X154353333Y-68180952D01*
X154543809Y-68561904D02*
X154543809Y-67761904D01*
X154239047Y-67761904D01*
X154162857Y-67800000D01*
X154124761Y-67838095D01*
X154086666Y-67914285D01*
X154086666Y-68028571D01*
X154124761Y-68104761D01*
X154162857Y-68142857D01*
X154239047Y-68180952D01*
X154543809Y-68180952D01*
X158467619Y-67273809D02*
X158353333Y-67311904D01*
X158162857Y-67311904D01*
X158086666Y-67273809D01*
X158048571Y-67235714D01*
X158010476Y-67159523D01*
X158010476Y-67083333D01*
X158048571Y-67007142D01*
X158086666Y-66969047D01*
X158162857Y-66930952D01*
X158315238Y-66892857D01*
X158391428Y-66854761D01*
X158429523Y-66816666D01*
X158467619Y-66740476D01*
X158467619Y-66664285D01*
X158429523Y-66588095D01*
X158391428Y-66550000D01*
X158315238Y-66511904D01*
X158124761Y-66511904D01*
X158010476Y-66550000D01*
X157400952Y-66892857D02*
X157286666Y-66930952D01*
X157248571Y-66969047D01*
X157210476Y-67045238D01*
X157210476Y-67159523D01*
X157248571Y-67235714D01*
X157286666Y-67273809D01*
X157362857Y-67311904D01*
X157667619Y-67311904D01*
X157667619Y-66511904D01*
X157400952Y-66511904D01*
X157324761Y-66550000D01*
X157286666Y-66588095D01*
X157248571Y-66664285D01*
X157248571Y-66740476D01*
X157286666Y-66816666D01*
X157324761Y-66854761D01*
X157400952Y-66892857D01*
X157667619Y-66892857D01*
X156867619Y-67311904D02*
X156867619Y-66511904D01*
X156677142Y-66511904D01*
X156562857Y-66550000D01*
X156486666Y-66626190D01*
X156448571Y-66702380D01*
X156410476Y-66854761D01*
X156410476Y-66969047D01*
X156448571Y-67121428D01*
X156486666Y-67197619D01*
X156562857Y-67273809D01*
X156677142Y-67311904D01*
X156867619Y-67311904D01*
X155800952Y-66892857D02*
X155686666Y-66930952D01*
X155648571Y-66969047D01*
X155610476Y-67045238D01*
X155610476Y-67159523D01*
X155648571Y-67235714D01*
X155686666Y-67273809D01*
X155762857Y-67311904D01*
X156067619Y-67311904D01*
X156067619Y-66511904D01*
X155800952Y-66511904D01*
X155724761Y-66550000D01*
X155686666Y-66588095D01*
X155648571Y-66664285D01*
X155648571Y-66740476D01*
X155686666Y-66816666D01*
X155724761Y-66854761D01*
X155800952Y-66892857D01*
X156067619Y-66892857D01*
X155381904Y-66511904D02*
X154924761Y-66511904D01*
X155153333Y-67311904D02*
X155153333Y-66511904D01*
X158429523Y-66061904D02*
X158429523Y-65261904D01*
X158086666Y-65338095D02*
X158048571Y-65300000D01*
X157972380Y-65261904D01*
X157781904Y-65261904D01*
X157705714Y-65300000D01*
X157667619Y-65338095D01*
X157629523Y-65414285D01*
X157629523Y-65490476D01*
X157667619Y-65604761D01*
X158124761Y-66061904D01*
X157629523Y-66061904D01*
X156829523Y-65985714D02*
X156867619Y-66023809D01*
X156981904Y-66061904D01*
X157058095Y-66061904D01*
X157172380Y-66023809D01*
X157248571Y-65947619D01*
X157286666Y-65871428D01*
X157324761Y-65719047D01*
X157324761Y-65604761D01*
X157286666Y-65452380D01*
X157248571Y-65376190D01*
X157172380Y-65300000D01*
X157058095Y-65261904D01*
X156981904Y-65261904D01*
X156867619Y-65300000D01*
X156829523Y-65338095D01*
X156486666Y-65985714D02*
X156448571Y-66023809D01*
X156486666Y-66061904D01*
X156524761Y-66023809D01*
X156486666Y-65985714D01*
X156486666Y-66061904D01*
X156105714Y-65985714D02*
X156067619Y-66023809D01*
X156105714Y-66061904D01*
X156143809Y-66023809D01*
X156105714Y-65985714D01*
X156105714Y-66061904D01*
X155724761Y-65985714D02*
X155686666Y-66023809D01*
X155724761Y-66061904D01*
X155762857Y-66023809D01*
X155724761Y-65985714D01*
X155724761Y-66061904D01*
X154962857Y-66061904D02*
X155343809Y-66061904D01*
X155343809Y-65261904D01*
X154239047Y-65985714D02*
X154277142Y-66023809D01*
X154391428Y-66061904D01*
X154467619Y-66061904D01*
X154581904Y-66023809D01*
X154658095Y-65947619D01*
X154696190Y-65871428D01*
X154734285Y-65719047D01*
X154734285Y-65604761D01*
X154696190Y-65452380D01*
X154658095Y-65376190D01*
X154581904Y-65300000D01*
X154467619Y-65261904D01*
X154391428Y-65261904D01*
X154277142Y-65300000D01*
X154239047Y-65338095D01*
X153896190Y-66061904D02*
X153896190Y-65261904D01*
X153705714Y-65261904D01*
X153591428Y-65300000D01*
X153515238Y-65376190D01*
X153477142Y-65452380D01*
X153439047Y-65604761D01*
X153439047Y-65719047D01*
X153477142Y-65871428D01*
X153515238Y-65947619D01*
X153591428Y-66023809D01*
X153705714Y-66061904D01*
X153896190Y-66061904D01*
X158429523Y-64011904D02*
X158429523Y-64659523D01*
X158391428Y-64735714D01*
X158353333Y-64773809D01*
X158277142Y-64811904D01*
X158124761Y-64811904D01*
X158048571Y-64773809D01*
X158010476Y-64735714D01*
X157972380Y-64659523D01*
X157972380Y-64011904D01*
X157629523Y-64773809D02*
X157515238Y-64811904D01*
X157324761Y-64811904D01*
X157248571Y-64773809D01*
X157210476Y-64735714D01*
X157172380Y-64659523D01*
X157172380Y-64583333D01*
X157210476Y-64507142D01*
X157248571Y-64469047D01*
X157324761Y-64430952D01*
X157477142Y-64392857D01*
X157553333Y-64354761D01*
X157591428Y-64316666D01*
X157629523Y-64240476D01*
X157629523Y-64164285D01*
X157591428Y-64088095D01*
X157553333Y-64050000D01*
X157477142Y-64011904D01*
X157286666Y-64011904D01*
X157172380Y-64050000D01*
X156867619Y-64583333D02*
X156486666Y-64583333D01*
X156943809Y-64811904D02*
X156677142Y-64011904D01*
X156410476Y-64811904D01*
X155686666Y-64811904D02*
X155953333Y-64430952D01*
X156143809Y-64811904D02*
X156143809Y-64011904D01*
X155839047Y-64011904D01*
X155762857Y-64050000D01*
X155724761Y-64088095D01*
X155686666Y-64164285D01*
X155686666Y-64278571D01*
X155724761Y-64354761D01*
X155762857Y-64392857D01*
X155839047Y-64430952D01*
X156143809Y-64430952D01*
X155458095Y-64011904D02*
X155000952Y-64011904D01*
X155229523Y-64811904D02*
X155229523Y-64011904D01*
X157972380Y-63485714D02*
X158010476Y-63523809D01*
X158124761Y-63561904D01*
X158200952Y-63561904D01*
X158315238Y-63523809D01*
X158391428Y-63447619D01*
X158429523Y-63371428D01*
X158467619Y-63219047D01*
X158467619Y-63104761D01*
X158429523Y-62952380D01*
X158391428Y-62876190D01*
X158315238Y-62800000D01*
X158200952Y-62761904D01*
X158124761Y-62761904D01*
X158010476Y-62800000D01*
X157972380Y-62838095D01*
X157667619Y-63333333D02*
X157286666Y-63333333D01*
X157743809Y-63561904D02*
X157477142Y-62761904D01*
X157210476Y-63561904D01*
X156943809Y-63561904D02*
X156943809Y-62761904D01*
X156486666Y-63561904D01*
X156486666Y-62761904D01*
X183798571Y-68511904D02*
X184179523Y-68511904D01*
X184179523Y-67711904D01*
X183531904Y-68092857D02*
X183265238Y-68092857D01*
X183150952Y-68511904D02*
X183531904Y-68511904D01*
X183531904Y-67711904D01*
X183150952Y-67711904D01*
X182808095Y-68511904D02*
X182808095Y-67711904D01*
X182617619Y-67711904D01*
X182503333Y-67750000D01*
X182427142Y-67826190D01*
X182389047Y-67902380D01*
X182350952Y-68054761D01*
X182350952Y-68169047D01*
X182389047Y-68321428D01*
X182427142Y-68397619D01*
X182503333Y-68473809D01*
X182617619Y-68511904D01*
X182808095Y-68511904D01*
X181970000Y-68473809D02*
X181970000Y-68511904D01*
X182008095Y-68588095D01*
X182046190Y-68626190D01*
X181170000Y-68511904D02*
X181436666Y-68130952D01*
X181627142Y-68511904D02*
X181627142Y-67711904D01*
X181322380Y-67711904D01*
X181246190Y-67750000D01*
X181208095Y-67788095D01*
X181170000Y-67864285D01*
X181170000Y-67978571D01*
X181208095Y-68054761D01*
X181246190Y-68092857D01*
X181322380Y-68130952D01*
X181627142Y-68130952D01*
X180408095Y-67750000D02*
X180484285Y-67711904D01*
X180598571Y-67711904D01*
X180712857Y-67750000D01*
X180789047Y-67826190D01*
X180827142Y-67902380D01*
X180865238Y-68054761D01*
X180865238Y-68169047D01*
X180827142Y-68321428D01*
X180789047Y-68397619D01*
X180712857Y-68473809D01*
X180598571Y-68511904D01*
X180522380Y-68511904D01*
X180408095Y-68473809D01*
X180370000Y-68435714D01*
X180370000Y-68169047D01*
X180522380Y-68169047D01*
X179760476Y-68092857D02*
X179646190Y-68130952D01*
X179608095Y-68169047D01*
X179570000Y-68245238D01*
X179570000Y-68359523D01*
X179608095Y-68435714D01*
X179646190Y-68473809D01*
X179722380Y-68511904D01*
X180027142Y-68511904D01*
X180027142Y-67711904D01*
X179760476Y-67711904D01*
X179684285Y-67750000D01*
X179646190Y-67788095D01*
X179608095Y-67864285D01*
X179608095Y-67940476D01*
X179646190Y-68016666D01*
X179684285Y-68054761D01*
X179760476Y-68092857D01*
X180027142Y-68092857D01*
X179189047Y-68473809D02*
X179189047Y-68511904D01*
X179227142Y-68588095D01*
X179265238Y-68626190D01*
X178465238Y-68511904D02*
X178846190Y-68511904D01*
X178846190Y-67711904D01*
X177741428Y-68435714D02*
X177779523Y-68473809D01*
X177893809Y-68511904D01*
X177970000Y-68511904D01*
X178084285Y-68473809D01*
X178160476Y-68397619D01*
X178198571Y-68321428D01*
X178236666Y-68169047D01*
X178236666Y-68054761D01*
X178198571Y-67902380D01*
X178160476Y-67826190D01*
X178084285Y-67750000D01*
X177970000Y-67711904D01*
X177893809Y-67711904D01*
X177779523Y-67750000D01*
X177741428Y-67788095D01*
X177398571Y-68511904D02*
X177398571Y-67711904D01*
X177208095Y-67711904D01*
X177093809Y-67750000D01*
X177017619Y-67826190D01*
X176979523Y-67902380D01*
X176941428Y-68054761D01*
X176941428Y-68169047D01*
X176979523Y-68321428D01*
X177017619Y-68397619D01*
X177093809Y-68473809D01*
X177208095Y-68511904D01*
X177398571Y-68511904D01*
X176789047Y-68588095D02*
X176179523Y-68588095D01*
X175722380Y-68092857D02*
X175608095Y-68130952D01*
X175570000Y-68169047D01*
X175531904Y-68245238D01*
X175531904Y-68359523D01*
X175570000Y-68435714D01*
X175608095Y-68473809D01*
X175684285Y-68511904D01*
X175989047Y-68511904D01*
X175989047Y-67711904D01*
X175722380Y-67711904D01*
X175646190Y-67750000D01*
X175608095Y-67788095D01*
X175570000Y-67864285D01*
X175570000Y-67940476D01*
X175608095Y-68016666D01*
X175646190Y-68054761D01*
X175722380Y-68092857D01*
X175989047Y-68092857D01*
X174846190Y-68511904D02*
X174846190Y-68092857D01*
X174884285Y-68016666D01*
X174960476Y-67978571D01*
X175112857Y-67978571D01*
X175189047Y-68016666D01*
X174846190Y-68473809D02*
X174922380Y-68511904D01*
X175112857Y-68511904D01*
X175189047Y-68473809D01*
X175227142Y-68397619D01*
X175227142Y-68321428D01*
X175189047Y-68245238D01*
X175112857Y-68207142D01*
X174922380Y-68207142D01*
X174846190Y-68169047D01*
X174122380Y-68473809D02*
X174198571Y-68511904D01*
X174350952Y-68511904D01*
X174427142Y-68473809D01*
X174465238Y-68435714D01*
X174503333Y-68359523D01*
X174503333Y-68130952D01*
X174465238Y-68054761D01*
X174427142Y-68016666D01*
X174350952Y-67978571D01*
X174198571Y-67978571D01*
X174122380Y-68016666D01*
X173779523Y-68511904D02*
X173779523Y-67711904D01*
X173703333Y-68207142D02*
X173474761Y-68511904D01*
X173474761Y-67978571D02*
X173779523Y-68283333D01*
X173131904Y-68207142D02*
X172522380Y-68207142D01*
X171760476Y-68511904D02*
X172141428Y-68511904D01*
X172141428Y-67711904D01*
X171493809Y-68511904D02*
X171493809Y-67978571D01*
X171493809Y-67711904D02*
X171531904Y-67750000D01*
X171493809Y-67788095D01*
X171455714Y-67750000D01*
X171493809Y-67711904D01*
X171493809Y-67788095D01*
X170770000Y-67978571D02*
X170770000Y-68626190D01*
X170808095Y-68702380D01*
X170846190Y-68740476D01*
X170922380Y-68778571D01*
X171036666Y-68778571D01*
X171112857Y-68740476D01*
X170770000Y-68473809D02*
X170846190Y-68511904D01*
X170998571Y-68511904D01*
X171074761Y-68473809D01*
X171112857Y-68435714D01*
X171150952Y-68359523D01*
X171150952Y-68130952D01*
X171112857Y-68054761D01*
X171074761Y-68016666D01*
X170998571Y-67978571D01*
X170846190Y-67978571D01*
X170770000Y-68016666D01*
X170389047Y-68511904D02*
X170389047Y-67711904D01*
X170046190Y-68511904D02*
X170046190Y-68092857D01*
X170084285Y-68016666D01*
X170160476Y-67978571D01*
X170274761Y-67978571D01*
X170350952Y-68016666D01*
X170389047Y-68054761D01*
X169779523Y-67978571D02*
X169474761Y-67978571D01*
X169665238Y-67711904D02*
X169665238Y-68397619D01*
X169627142Y-68473809D01*
X169550952Y-68511904D01*
X169474761Y-68511904D01*
X169170000Y-68473809D02*
X169170000Y-68511904D01*
X169208095Y-68588095D01*
X169246190Y-68626190D01*
X168370000Y-68511904D02*
X168636666Y-68130952D01*
X168827142Y-68511904D02*
X168827142Y-67711904D01*
X168522380Y-67711904D01*
X168446190Y-67750000D01*
X168408095Y-67788095D01*
X168370000Y-67864285D01*
X168370000Y-67978571D01*
X168408095Y-68054761D01*
X168446190Y-68092857D01*
X168522380Y-68130952D01*
X168827142Y-68130952D01*
X167722380Y-68473809D02*
X167798571Y-68511904D01*
X167950952Y-68511904D01*
X168027142Y-68473809D01*
X168065238Y-68397619D01*
X168065238Y-68092857D01*
X168027142Y-68016666D01*
X167950952Y-67978571D01*
X167798571Y-67978571D01*
X167722380Y-68016666D01*
X167684285Y-68092857D01*
X167684285Y-68169047D01*
X168065238Y-68245238D01*
X167379523Y-68473809D02*
X167303333Y-68511904D01*
X167150952Y-68511904D01*
X167074761Y-68473809D01*
X167036666Y-68397619D01*
X167036666Y-68359523D01*
X167074761Y-68283333D01*
X167150952Y-68245238D01*
X167265238Y-68245238D01*
X167341428Y-68207142D01*
X167379523Y-68130952D01*
X167379523Y-68092857D01*
X167341428Y-68016666D01*
X167265238Y-67978571D01*
X167150952Y-67978571D01*
X167074761Y-68016666D01*
X166389047Y-68473809D02*
X166465238Y-68511904D01*
X166617619Y-68511904D01*
X166693809Y-68473809D01*
X166731904Y-68397619D01*
X166731904Y-68092857D01*
X166693809Y-68016666D01*
X166617619Y-67978571D01*
X166465238Y-67978571D01*
X166389047Y-68016666D01*
X166350952Y-68092857D01*
X166350952Y-68169047D01*
X166731904Y-68245238D01*
X166122380Y-67978571D02*
X165817619Y-67978571D01*
X166008095Y-67711904D02*
X166008095Y-68397619D01*
X165970000Y-68473809D01*
X165893809Y-68511904D01*
X165817619Y-68511904D01*
X165550952Y-68207142D02*
X164941428Y-68207142D01*
X164179523Y-68511904D02*
X164560476Y-68511904D01*
X164560476Y-67711904D01*
X163912857Y-68092857D02*
X163646190Y-68092857D01*
X163531904Y-68511904D02*
X163912857Y-68511904D01*
X163912857Y-67711904D01*
X163531904Y-67711904D01*
X163189047Y-68511904D02*
X163189047Y-67711904D01*
X162998571Y-67711904D01*
X162884285Y-67750000D01*
X162808095Y-67826190D01*
X162770000Y-67902380D01*
X162731904Y-68054761D01*
X162731904Y-68169047D01*
X162770000Y-68321428D01*
X162808095Y-68397619D01*
X162884285Y-68473809D01*
X162998571Y-68511904D01*
X163189047Y-68511904D01*
X184217619Y-67223809D02*
X184103333Y-67261904D01*
X183912857Y-67261904D01*
X183836666Y-67223809D01*
X183798571Y-67185714D01*
X183760476Y-67109523D01*
X183760476Y-67033333D01*
X183798571Y-66957142D01*
X183836666Y-66919047D01*
X183912857Y-66880952D01*
X184065238Y-66842857D01*
X184141428Y-66804761D01*
X184179523Y-66766666D01*
X184217619Y-66690476D01*
X184217619Y-66614285D01*
X184179523Y-66538095D01*
X184141428Y-66500000D01*
X184065238Y-66461904D01*
X183874761Y-66461904D01*
X183760476Y-66500000D01*
X183493809Y-66461904D02*
X183303333Y-67261904D01*
X183150952Y-66690476D01*
X182998571Y-67261904D01*
X182808095Y-66461904D01*
X160176190Y-65554761D02*
X160252380Y-65516666D01*
X160290476Y-65478571D01*
X160328571Y-65402380D01*
X160328571Y-65364285D01*
X160290476Y-65288095D01*
X160252380Y-65250000D01*
X160176190Y-65211904D01*
X160023809Y-65211904D01*
X159947619Y-65250000D01*
X159909523Y-65288095D01*
X159871428Y-65364285D01*
X159871428Y-65402380D01*
X159909523Y-65478571D01*
X159947619Y-65516666D01*
X160023809Y-65554761D01*
X160176190Y-65554761D01*
X160252380Y-65592857D01*
X160290476Y-65630952D01*
X160328571Y-65707142D01*
X160328571Y-65859523D01*
X160290476Y-65935714D01*
X160252380Y-65973809D01*
X160176190Y-66011904D01*
X160023809Y-66011904D01*
X159947619Y-65973809D01*
X159909523Y-65935714D01*
X159871428Y-65859523D01*
X159871428Y-65707142D01*
X159909523Y-65630952D01*
X159947619Y-65592857D01*
X160023809Y-65554761D01*
X159997619Y-64278571D02*
X159997619Y-64811904D01*
X160188095Y-63973809D02*
X160378571Y-64545238D01*
X159883333Y-64545238D01*
X160252380Y-63511904D02*
X160709523Y-63511904D01*
X160480952Y-63511904D02*
X160480952Y-62711904D01*
X160557142Y-62826190D01*
X160633333Y-62902380D01*
X160709523Y-62940476D01*
X159947619Y-62788095D02*
X159909523Y-62750000D01*
X159833333Y-62711904D01*
X159642857Y-62711904D01*
X159566666Y-62750000D01*
X159528571Y-62788095D01*
X159490476Y-62864285D01*
X159490476Y-62940476D01*
X159528571Y-63054761D01*
X159985714Y-63511904D01*
X159490476Y-63511904D01*
X184293809Y-65211904D02*
X184027142Y-66011904D01*
X183760476Y-65211904D01*
X183531904Y-65783333D02*
X183150952Y-65783333D01*
X183608095Y-66011904D02*
X183341428Y-65211904D01*
X183074761Y-66011904D01*
X182427142Y-66011904D02*
X182808095Y-66011904D01*
X182808095Y-65211904D01*
X182274761Y-65211904D02*
X182008095Y-66011904D01*
X181741428Y-65211904D01*
X181474761Y-65592857D02*
X181208095Y-65592857D01*
X181093809Y-66011904D02*
X181474761Y-66011904D01*
X181474761Y-65211904D01*
X181093809Y-65211904D01*
X184217619Y-64533333D02*
X183836666Y-64533333D01*
X184293809Y-64761904D02*
X184027142Y-63961904D01*
X183760476Y-64761904D01*
X183493809Y-64761904D02*
X183493809Y-63961904D01*
X183303333Y-63961904D01*
X183189047Y-64000000D01*
X183112857Y-64076190D01*
X183074761Y-64152380D01*
X183036666Y-64304761D01*
X183036666Y-64419047D01*
X183074761Y-64571428D01*
X183112857Y-64647619D01*
X183189047Y-64723809D01*
X183303333Y-64761904D01*
X183493809Y-64761904D01*
X182236666Y-64685714D02*
X182274761Y-64723809D01*
X182389047Y-64761904D01*
X182465238Y-64761904D01*
X182579523Y-64723809D01*
X182655714Y-64647619D01*
X182693809Y-64571428D01*
X182731904Y-64419047D01*
X182731904Y-64304761D01*
X182693809Y-64152380D01*
X182655714Y-64076190D01*
X182579523Y-64000000D01*
X182465238Y-63961904D01*
X182389047Y-63961904D01*
X182274761Y-64000000D01*
X182236666Y-64038095D01*
X184179523Y-63511904D02*
X184179523Y-62711904D01*
X183874761Y-62711904D01*
X183798571Y-62750000D01*
X183760476Y-62788095D01*
X183722380Y-62864285D01*
X183722380Y-62978571D01*
X183760476Y-63054761D01*
X183798571Y-63092857D01*
X183874761Y-63130952D01*
X184179523Y-63130952D01*
X183455714Y-62711904D02*
X183265238Y-63511904D01*
X183112857Y-62940476D01*
X182960476Y-63511904D01*
X182770000Y-62711904D01*
X182465238Y-63511904D02*
X182465238Y-62711904D01*
X182198571Y-63283333D01*
X181931904Y-62711904D01*
X181931904Y-63511904D01*
X183912857Y-61692857D02*
X184179523Y-61692857D01*
X184179523Y-62111904D02*
X184179523Y-61311904D01*
X183798571Y-61311904D01*
X183150952Y-61578571D02*
X183150952Y-62111904D01*
X183493809Y-61578571D02*
X183493809Y-61997619D01*
X183455714Y-62073809D01*
X183379523Y-62111904D01*
X183265238Y-62111904D01*
X183189047Y-62073809D01*
X183150952Y-62035714D01*
X182770000Y-61578571D02*
X182770000Y-62111904D01*
X182770000Y-61654761D02*
X182731904Y-61616666D01*
X182655714Y-61578571D01*
X182541428Y-61578571D01*
X182465238Y-61616666D01*
X182427142Y-61692857D01*
X182427142Y-62111904D01*
X181703333Y-62073809D02*
X181779523Y-62111904D01*
X181931904Y-62111904D01*
X182008095Y-62073809D01*
X182046190Y-62035714D01*
X182084285Y-61959523D01*
X182084285Y-61730952D01*
X182046190Y-61654761D01*
X182008095Y-61616666D01*
X181931904Y-61578571D01*
X181779523Y-61578571D01*
X181703333Y-61616666D01*
X181474761Y-61578571D02*
X181170000Y-61578571D01*
X181360476Y-61311904D02*
X181360476Y-61997619D01*
X181322380Y-62073809D01*
X181246190Y-62111904D01*
X181170000Y-62111904D01*
X180903333Y-62111904D02*
X180903333Y-61578571D01*
X180903333Y-61311904D02*
X180941428Y-61350000D01*
X180903333Y-61388095D01*
X180865238Y-61350000D01*
X180903333Y-61311904D01*
X180903333Y-61388095D01*
X180408095Y-62111904D02*
X180484285Y-62073809D01*
X180522380Y-62035714D01*
X180560476Y-61959523D01*
X180560476Y-61730952D01*
X180522380Y-61654761D01*
X180484285Y-61616666D01*
X180408095Y-61578571D01*
X180293809Y-61578571D01*
X180217619Y-61616666D01*
X180179523Y-61654761D01*
X180141428Y-61730952D01*
X180141428Y-61959523D01*
X180179523Y-62035714D01*
X180217619Y-62073809D01*
X180293809Y-62111904D01*
X180408095Y-62111904D01*
X179798571Y-61578571D02*
X179798571Y-62111904D01*
X179798571Y-61654761D02*
X179760476Y-61616666D01*
X179684285Y-61578571D01*
X179570000Y-61578571D01*
X179493809Y-61616666D01*
X179455714Y-61692857D01*
X179455714Y-62111904D01*
X179074761Y-62035714D02*
X179036666Y-62073809D01*
X179074761Y-62111904D01*
X179112857Y-62073809D01*
X179074761Y-62035714D01*
X179074761Y-62111904D01*
X179074761Y-61616666D02*
X179036666Y-61654761D01*
X179074761Y-61692857D01*
X179112857Y-61654761D01*
X179074761Y-61616666D01*
X179074761Y-61692857D01*
X184208095Y-60873809D02*
X184098571Y-60911904D01*
X183908095Y-60911904D01*
X183827142Y-60873809D01*
X183784285Y-60835714D01*
X183736666Y-60759523D01*
X183727142Y-60683333D01*
X183755714Y-60607142D01*
X183789047Y-60569047D01*
X183860476Y-60530952D01*
X184008095Y-60492857D01*
X184079523Y-60454761D01*
X184112857Y-60416666D01*
X184141428Y-60340476D01*
X184131904Y-60264285D01*
X184084285Y-60188095D01*
X184041428Y-60150000D01*
X183960476Y-60111904D01*
X183770000Y-60111904D01*
X183660476Y-60150000D01*
X183427142Y-60111904D02*
X182970000Y-60111904D01*
X183298571Y-60911904D02*
X183198571Y-60111904D01*
X182803333Y-60911904D02*
X182703333Y-60111904D01*
X182508095Y-60683333D01*
X182170000Y-60111904D01*
X182270000Y-60911904D01*
X181865238Y-60111904D02*
X181370000Y-60111904D01*
X181674761Y-60416666D01*
X181560476Y-60416666D01*
X181489047Y-60454761D01*
X181455714Y-60492857D01*
X181427142Y-60569047D01*
X181450952Y-60759523D01*
X181498571Y-60835714D01*
X181541428Y-60873809D01*
X181622380Y-60911904D01*
X181850952Y-60911904D01*
X181922380Y-60873809D01*
X181955714Y-60835714D01*
X181074761Y-60188095D02*
X181031904Y-60150000D01*
X180950952Y-60111904D01*
X180760476Y-60111904D01*
X180689047Y-60150000D01*
X180655714Y-60188095D01*
X180627142Y-60264285D01*
X180636666Y-60340476D01*
X180689047Y-60454761D01*
X181203333Y-60911904D01*
X180708095Y-60911904D01*
X180046190Y-60492857D02*
X180312857Y-60492857D01*
X180365238Y-60911904D02*
X180265238Y-60111904D01*
X179884285Y-60111904D01*
X179270000Y-60378571D02*
X179336666Y-60911904D01*
X179422380Y-60073809D02*
X179684285Y-60645238D01*
X179189047Y-60645238D01*
X178508095Y-60378571D02*
X178574761Y-60911904D01*
X178660476Y-60073809D02*
X178922380Y-60645238D01*
X178427142Y-60645238D01*
X177712857Y-60111904D02*
X177865238Y-60111904D01*
X177946190Y-60150000D01*
X177989047Y-60188095D01*
X178079523Y-60302380D01*
X178136666Y-60454761D01*
X178174761Y-60759523D01*
X178146190Y-60835714D01*
X178112857Y-60873809D01*
X178041428Y-60911904D01*
X177889047Y-60911904D01*
X177808095Y-60873809D01*
X177765238Y-60835714D01*
X177717619Y-60759523D01*
X177693809Y-60569047D01*
X177722380Y-60492857D01*
X177755714Y-60454761D01*
X177827142Y-60416666D01*
X177979523Y-60416666D01*
X178060476Y-60454761D01*
X178103333Y-60492857D01*
X178150952Y-60569047D01*
X176936666Y-60911904D02*
X177155714Y-60530952D01*
X177393809Y-60911904D02*
X177293809Y-60111904D01*
X176989047Y-60111904D01*
X176917619Y-60150000D01*
X176884285Y-60188095D01*
X176855714Y-60264285D01*
X176870000Y-60378571D01*
X176917619Y-60454761D01*
X176960476Y-60492857D01*
X177041428Y-60530952D01*
X177346190Y-60530952D01*
X176541428Y-60492857D02*
X176274761Y-60492857D01*
X176212857Y-60911904D02*
X176593809Y-60911904D01*
X176493809Y-60111904D01*
X176112857Y-60111904D01*
X176070000Y-60988095D02*
X175460476Y-60988095D01*
X175260476Y-60911904D02*
X175193809Y-60378571D01*
X175203333Y-60454761D02*
X175160476Y-60416666D01*
X175079523Y-60378571D01*
X174965238Y-60378571D01*
X174893809Y-60416666D01*
X174865238Y-60492857D01*
X174917619Y-60911904D01*
X174865238Y-60492857D02*
X174817619Y-60416666D01*
X174736666Y-60378571D01*
X174622380Y-60378571D01*
X174550952Y-60416666D01*
X174522380Y-60492857D01*
X174574761Y-60911904D01*
X173850952Y-60911904D02*
X173798571Y-60492857D01*
X173827142Y-60416666D01*
X173898571Y-60378571D01*
X174050952Y-60378571D01*
X174131904Y-60416666D01*
X173846190Y-60873809D02*
X173927142Y-60911904D01*
X174117619Y-60911904D01*
X174189047Y-60873809D01*
X174217619Y-60797619D01*
X174208095Y-60721428D01*
X174160476Y-60645238D01*
X174079523Y-60607142D01*
X173889047Y-60607142D01*
X173808095Y-60569047D01*
X173470000Y-60911904D02*
X173403333Y-60378571D01*
X173370000Y-60111904D02*
X173412857Y-60150000D01*
X173379523Y-60188095D01*
X173336666Y-60150000D01*
X173370000Y-60111904D01*
X173379523Y-60188095D01*
X173022380Y-60378571D02*
X173089047Y-60911904D01*
X173031904Y-60454761D02*
X172989047Y-60416666D01*
X172908095Y-60378571D01*
X172793809Y-60378571D01*
X172722380Y-60416666D01*
X172693809Y-60492857D01*
X172746190Y-60911904D01*
X172327142Y-60607142D02*
X171717619Y-60607142D01*
X171027142Y-60873809D02*
X171108095Y-60911904D01*
X171260476Y-60911904D01*
X171331904Y-60873809D01*
X171365238Y-60835714D01*
X171393809Y-60759523D01*
X171365238Y-60530952D01*
X171317619Y-60454761D01*
X171274761Y-60416666D01*
X171193809Y-60378571D01*
X171041428Y-60378571D01*
X170970000Y-60416666D01*
X170689047Y-60911904D02*
X170622380Y-60378571D01*
X170589047Y-60111904D02*
X170631904Y-60150000D01*
X170598571Y-60188095D01*
X170555714Y-60150000D01*
X170589047Y-60111904D01*
X170598571Y-60188095D01*
X170308095Y-60911904D02*
X170241428Y-60378571D01*
X170260476Y-60530952D02*
X170212857Y-60454761D01*
X170170000Y-60416666D01*
X170089047Y-60378571D01*
X170012857Y-60378571D01*
X169465238Y-60873809D02*
X169546190Y-60911904D01*
X169698571Y-60911904D01*
X169770000Y-60873809D01*
X169803333Y-60835714D01*
X169831904Y-60759523D01*
X169803333Y-60530952D01*
X169755714Y-60454761D01*
X169712857Y-60416666D01*
X169631904Y-60378571D01*
X169479523Y-60378571D01*
X169408095Y-60416666D01*
X168717619Y-60378571D02*
X168784285Y-60911904D01*
X169060476Y-60378571D02*
X169112857Y-60797619D01*
X169084285Y-60873809D01*
X169012857Y-60911904D01*
X168898571Y-60911904D01*
X168817619Y-60873809D01*
X168774761Y-60835714D01*
X168403333Y-60911904D02*
X168336666Y-60378571D01*
X168303333Y-60111904D02*
X168346190Y-60150000D01*
X168312857Y-60188095D01*
X168270000Y-60150000D01*
X168303333Y-60111904D01*
X168312857Y-60188095D01*
X168070000Y-60378571D02*
X167765238Y-60378571D01*
X167922380Y-60111904D02*
X168008095Y-60797619D01*
X167979523Y-60873809D01*
X167908095Y-60911904D01*
X167831904Y-60911904D01*
X166955714Y-60911904D02*
X166855714Y-60111904D01*
X166893809Y-60416666D02*
X166812857Y-60378571D01*
X166660476Y-60378571D01*
X166589047Y-60416666D01*
X166555714Y-60454761D01*
X166527142Y-60530952D01*
X166555714Y-60759523D01*
X166603333Y-60835714D01*
X166646190Y-60873809D01*
X166727142Y-60911904D01*
X166879523Y-60911904D01*
X166950952Y-60873809D01*
X166117619Y-60911904D02*
X166189047Y-60873809D01*
X166222380Y-60835714D01*
X166250952Y-60759523D01*
X166222380Y-60530952D01*
X166174761Y-60454761D01*
X166131904Y-60416666D01*
X166050952Y-60378571D01*
X165936666Y-60378571D01*
X165865238Y-60416666D01*
X165831904Y-60454761D01*
X165803333Y-60530952D01*
X165831904Y-60759523D01*
X165879523Y-60835714D01*
X165922380Y-60873809D01*
X166003333Y-60911904D01*
X166117619Y-60911904D01*
X165165238Y-60911904D02*
X165112857Y-60492857D01*
X165141428Y-60416666D01*
X165212857Y-60378571D01*
X165365238Y-60378571D01*
X165446190Y-60416666D01*
X165160476Y-60873809D02*
X165241428Y-60911904D01*
X165431904Y-60911904D01*
X165503333Y-60873809D01*
X165531904Y-60797619D01*
X165522380Y-60721428D01*
X165474761Y-60645238D01*
X165393809Y-60607142D01*
X165203333Y-60607142D01*
X165122380Y-60569047D01*
X164784285Y-60911904D02*
X164717619Y-60378571D01*
X164736666Y-60530952D02*
X164689047Y-60454761D01*
X164646190Y-60416666D01*
X164565238Y-60378571D01*
X164489047Y-60378571D01*
X163946190Y-60911904D02*
X163846190Y-60111904D01*
X163941428Y-60873809D02*
X164022380Y-60911904D01*
X164174761Y-60911904D01*
X164246190Y-60873809D01*
X164279523Y-60835714D01*
X164308095Y-60759523D01*
X164279523Y-60530952D01*
X164231904Y-60454761D01*
X164189047Y-60416666D01*
X164108095Y-60378571D01*
X163955714Y-60378571D01*
X163884285Y-60416666D01*
X162893809Y-60111904D02*
X162912857Y-60264285D01*
X162589047Y-60111904D02*
X162608095Y-60264285D01*
X162355714Y-60683333D02*
X161974761Y-60683333D01*
X162460476Y-60911904D02*
X162093809Y-60111904D01*
X161927142Y-60911904D01*
X161660476Y-60911904D02*
X161593809Y-60378571D01*
X161603333Y-60454761D02*
X161560476Y-60416666D01*
X161479523Y-60378571D01*
X161365238Y-60378571D01*
X161293809Y-60416666D01*
X161265238Y-60492857D01*
X161317619Y-60911904D01*
X161265238Y-60492857D02*
X161217619Y-60416666D01*
X161136666Y-60378571D01*
X161022380Y-60378571D01*
X160950952Y-60416666D01*
X160922380Y-60492857D01*
X160974761Y-60911904D01*
X160284285Y-60873809D02*
X160365238Y-60911904D01*
X160517619Y-60911904D01*
X160589047Y-60873809D01*
X160617619Y-60797619D01*
X160579523Y-60492857D01*
X160531904Y-60416666D01*
X160450952Y-60378571D01*
X160298571Y-60378571D01*
X160227142Y-60416666D01*
X160198571Y-60492857D01*
X160208095Y-60569047D01*
X160598571Y-60645238D01*
X159955714Y-60378571D02*
X159650952Y-60378571D01*
X159808095Y-60111904D02*
X159893809Y-60797619D01*
X159865238Y-60873809D01*
X159793809Y-60911904D01*
X159717619Y-60911904D01*
X159450952Y-60911904D02*
X159350952Y-60111904D01*
X159108095Y-60911904D02*
X159055714Y-60492857D01*
X159084285Y-60416666D01*
X159155714Y-60378571D01*
X159270000Y-60378571D01*
X159350952Y-60416666D01*
X159393809Y-60454761D01*
X158736666Y-60378571D02*
X158612857Y-60911904D01*
X158355714Y-60378571D02*
X158612857Y-60911904D01*
X158712857Y-61102380D01*
X158755714Y-61140476D01*
X158836666Y-61178571D01*
X158150952Y-60873809D02*
X158079523Y-60911904D01*
X157927142Y-60911904D01*
X157846190Y-60873809D01*
X157798571Y-60797619D01*
X157793809Y-60759523D01*
X157822380Y-60683333D01*
X157893809Y-60645238D01*
X158008095Y-60645238D01*
X158079523Y-60607142D01*
X158108095Y-60530952D01*
X158103333Y-60492857D01*
X158055714Y-60416666D01*
X157974761Y-60378571D01*
X157860476Y-60378571D01*
X157789047Y-60416666D01*
X157517619Y-60378571D02*
X157212857Y-60378571D01*
X157370000Y-60111904D02*
X157455714Y-60797619D01*
X157427142Y-60873809D01*
X157355714Y-60911904D01*
X157279523Y-60911904D01*
X156950952Y-60111904D02*
X156970000Y-60264285D01*
X156646190Y-60111904D02*
X156665238Y-60264285D01*
X155374761Y-60911904D02*
X155831904Y-60911904D01*
X155603333Y-60911904D02*
X155503333Y-60111904D01*
X155593809Y-60226190D01*
X155679523Y-60302380D01*
X155760476Y-60340476D01*
X155065238Y-60873809D02*
X154993809Y-60911904D01*
X154841428Y-60911904D01*
X154760476Y-60873809D01*
X154712857Y-60797619D01*
X154708095Y-60759523D01*
X154736666Y-60683333D01*
X154808095Y-60645238D01*
X154922380Y-60645238D01*
X154993809Y-60607142D01*
X155022380Y-60530952D01*
X155017619Y-60492857D01*
X154970000Y-60416666D01*
X154889047Y-60378571D01*
X154774761Y-60378571D01*
X154703333Y-60416666D01*
X154431904Y-60378571D02*
X154127142Y-60378571D01*
X154284285Y-60111904D02*
X154370000Y-60797619D01*
X154341428Y-60873809D01*
X154270000Y-60911904D01*
X154193809Y-60911904D01*
X153008095Y-60873809D02*
X153089047Y-60911904D01*
X153241428Y-60911904D01*
X153312857Y-60873809D01*
X153341428Y-60797619D01*
X153303333Y-60492857D01*
X153255714Y-60416666D01*
X153174761Y-60378571D01*
X153022380Y-60378571D01*
X152950952Y-60416666D01*
X152922380Y-60492857D01*
X152931904Y-60569047D01*
X153322380Y-60645238D01*
X152289047Y-60911904D02*
X152189047Y-60111904D01*
X152284285Y-60873809D02*
X152365238Y-60911904D01*
X152517619Y-60911904D01*
X152589047Y-60873809D01*
X152622380Y-60835714D01*
X152650952Y-60759523D01*
X152622380Y-60530952D01*
X152574761Y-60454761D01*
X152531904Y-60416666D01*
X152450952Y-60378571D01*
X152298571Y-60378571D01*
X152227142Y-60416666D01*
X151908095Y-60911904D02*
X151841428Y-60378571D01*
X151808095Y-60111904D02*
X151850952Y-60150000D01*
X151817619Y-60188095D01*
X151774761Y-60150000D01*
X151808095Y-60111904D01*
X151817619Y-60188095D01*
X151574761Y-60378571D02*
X151270000Y-60378571D01*
X151427142Y-60111904D02*
X151512857Y-60797619D01*
X151484285Y-60873809D01*
X151412857Y-60911904D01*
X151336666Y-60911904D01*
X151070000Y-60911904D02*
X151003333Y-60378571D01*
X150970000Y-60111904D02*
X151012857Y-60150000D01*
X150979523Y-60188095D01*
X150936666Y-60150000D01*
X150970000Y-60111904D01*
X150979523Y-60188095D01*
X150574761Y-60911904D02*
X150646190Y-60873809D01*
X150679523Y-60835714D01*
X150708095Y-60759523D01*
X150679523Y-60530952D01*
X150631904Y-60454761D01*
X150589047Y-60416666D01*
X150508095Y-60378571D01*
X150393809Y-60378571D01*
X150322380Y-60416666D01*
X150289047Y-60454761D01*
X150260476Y-60530952D01*
X150289047Y-60759523D01*
X150336666Y-60835714D01*
X150379523Y-60873809D01*
X150460476Y-60911904D01*
X150574761Y-60911904D01*
X149898571Y-60378571D02*
X149965238Y-60911904D01*
X149908095Y-60454761D02*
X149865238Y-60416666D01*
X149784285Y-60378571D01*
X149670000Y-60378571D01*
X149598571Y-60416666D01*
X149570000Y-60492857D01*
X149622380Y-60911904D01*
X149231904Y-60835714D02*
X149198571Y-60873809D01*
X149241428Y-60911904D01*
X149274761Y-60873809D01*
X149231904Y-60835714D01*
X149241428Y-60911904D01*
D10*
X216752380Y-63761904D02*
X217133333Y-63761904D01*
X217171428Y-64142857D01*
X217133333Y-64104761D01*
X217057142Y-64066666D01*
X216866666Y-64066666D01*
X216790476Y-64104761D01*
X216752380Y-64142857D01*
X216714285Y-64219047D01*
X216714285Y-64409523D01*
X216752380Y-64485714D01*
X216790476Y-64523809D01*
X216866666Y-64561904D01*
X217057142Y-64561904D01*
X217133333Y-64523809D01*
X217171428Y-64485714D01*
X216485714Y-63761904D02*
X216219047Y-64561904D01*
X215952380Y-63761904D01*
X224845238Y-64561904D02*
X225302380Y-64561904D01*
X225073809Y-64561904D02*
X225073809Y-63761904D01*
X225150000Y-63876190D01*
X225226190Y-63952380D01*
X225302380Y-63990476D01*
X224540476Y-63838095D02*
X224502380Y-63800000D01*
X224426190Y-63761904D01*
X224235714Y-63761904D01*
X224159523Y-63800000D01*
X224121428Y-63838095D01*
X224083333Y-63914285D01*
X224083333Y-63990476D01*
X224121428Y-64104761D01*
X224578571Y-64561904D01*
X224083333Y-64561904D01*
X223854761Y-63761904D02*
X223588095Y-64561904D01*
X223321428Y-63761904D01*
D12*
X202912779Y-84010000D02*
X202587221Y-84010000D01*
X202912779Y-82990000D02*
X202587221Y-82990000D01*
X202912779Y-73640000D02*
X202587221Y-73640000D01*
X202912779Y-74660000D02*
X202587221Y-74660000D01*
X188662779Y-91240000D02*
X188337221Y-91240000D01*
X188662779Y-92260000D02*
X188337221Y-92260000D01*
X214997221Y-107920000D02*
X215322779Y-107920000D01*
X214997221Y-106900000D02*
X215322779Y-106900000D01*
X202762221Y-89510000D02*
X203087779Y-89510000D01*
X202762221Y-88490000D02*
X203087779Y-88490000D01*
X196725727Y-97995522D02*
X196495522Y-98225727D01*
X196004478Y-97274273D02*
X195774273Y-97504478D01*
X190537221Y-118410000D02*
X190862779Y-118410000D01*
X190537221Y-117390000D02*
X190862779Y-117390000D01*
X202125727Y-103488675D02*
X201895522Y-103718880D01*
X201404478Y-102767426D02*
X201174273Y-102997631D01*
X215940000Y-91162779D02*
X215940000Y-90837221D01*
X216960000Y-91162779D02*
X216960000Y-90837221D01*
X216960000Y-78662779D02*
X216960000Y-78337221D01*
X215940000Y-78662779D02*
X215940000Y-78337221D01*
X208745522Y-97524273D02*
X208975727Y-97754478D01*
X208024273Y-98245522D02*
X208254478Y-98475727D01*
X192787221Y-106690000D02*
X193112779Y-106690000D01*
X192787221Y-107710000D02*
X193112779Y-107710000D01*
X203395522Y-91675727D02*
X203625727Y-91445522D01*
X202674273Y-90954478D02*
X202904478Y-90724273D01*
X197875727Y-95154478D02*
X197645522Y-94924273D01*
X197154478Y-95875727D02*
X196924273Y-95645522D01*
X171762779Y-80960000D02*
X171437221Y-80960000D01*
X171762779Y-79940000D02*
X171437221Y-79940000D01*
X162690000Y-79862779D02*
X162690000Y-79537221D01*
X163710000Y-79862779D02*
X163710000Y-79537221D01*
X166887221Y-81010000D02*
X167212779Y-81010000D01*
X166887221Y-79990000D02*
X167212779Y-79990000D01*
X163912779Y-109010000D02*
X163587221Y-109010000D01*
X163912779Y-107990000D02*
X163587221Y-107990000D01*
X167190000Y-103062779D02*
X167190000Y-102737221D01*
X168210000Y-103062779D02*
X168210000Y-102737221D01*
X169010000Y-112387221D02*
X169010000Y-112712779D01*
X167990000Y-112387221D02*
X167990000Y-112712779D01*
X209587221Y-114790000D02*
X209912779Y-114790000D01*
X209587221Y-115810000D02*
X209912779Y-115810000D01*
X219112779Y-114790000D02*
X218787221Y-114790000D01*
X219112779Y-115810000D02*
X218787221Y-115810000D01*
X218140000Y-108612779D02*
X218140000Y-108287221D01*
X219160000Y-108612779D02*
X219160000Y-108287221D01*
X214700000Y-112100000D02*
X218600000Y-112100000D01*
X214700000Y-110100000D02*
X218600000Y-110100000D01*
X214700000Y-112100000D02*
X214700000Y-110100000D01*
X212800000Y-102750000D02*
X216700000Y-102750000D01*
X212800000Y-100750000D02*
X216700000Y-100750000D01*
X212800000Y-102750000D02*
X212800000Y-100750000D01*
X218940000Y-58010000D02*
X218940000Y-56010000D01*
X218940000Y-56010000D02*
X222840000Y-56010000D01*
X218940000Y-58010000D02*
X222840000Y-58010000D01*
X204300000Y-110850000D02*
X204300000Y-108850000D01*
X204300000Y-108850000D02*
X208200000Y-108850000D01*
X204300000Y-110850000D02*
X208200000Y-110850000D01*
X225000000Y-94250000D02*
X223000000Y-94250000D01*
X223000000Y-94250000D02*
X223000000Y-90350000D01*
X225000000Y-94250000D02*
X225000000Y-90350000D01*
X225000000Y-81750000D02*
X223000000Y-81750000D01*
X223000000Y-81750000D02*
X223000000Y-77850000D01*
X225000000Y-81750000D02*
X225000000Y-77850000D01*
X185250000Y-110250000D02*
X189150000Y-110250000D01*
X185250000Y-108250000D02*
X189150000Y-108250000D01*
X185250000Y-110250000D02*
X185250000Y-108250000D01*
X185750000Y-55500000D02*
X185750000Y-59400000D01*
X187750000Y-55500000D02*
X187750000Y-59400000D01*
X185750000Y-55500000D02*
X187750000Y-55500000D01*
X199200000Y-55500000D02*
X201200000Y-55500000D01*
X201200000Y-55500000D02*
X201200000Y-59400000D01*
X199200000Y-55500000D02*
X199200000Y-59400000D01*
X175600000Y-87600000D02*
X177600000Y-87600000D01*
X177600000Y-87600000D02*
X177600000Y-91500000D01*
X175600000Y-87600000D02*
X175600000Y-91500000D01*
X211750000Y-106750000D02*
X215650000Y-106750000D01*
X211750000Y-104750000D02*
X215650000Y-104750000D01*
X211750000Y-106750000D02*
X211750000Y-104750000D01*
X214700000Y-114400000D02*
X214700000Y-112400000D01*
X214700000Y-112400000D02*
X218600000Y-112400000D01*
X214700000Y-114400000D02*
X218600000Y-114400000D01*
X196850000Y-108250000D02*
X196850000Y-106250000D01*
X196850000Y-106250000D02*
X200750000Y-106250000D01*
X196850000Y-108250000D02*
X200750000Y-108250000D01*
X217400000Y-102650000D02*
X213500000Y-102650000D01*
X217400000Y-104650000D02*
X213500000Y-104650000D01*
X217400000Y-102650000D02*
X217400000Y-104650000D01*
X202750000Y-108250000D02*
X206650000Y-108250000D01*
X202750000Y-106250000D02*
X206650000Y-106250000D01*
X202750000Y-108250000D02*
X202750000Y-106250000D01*
X185650000Y-112950000D02*
X181750000Y-112950000D01*
X185650000Y-114950000D02*
X181750000Y-114950000D01*
X185650000Y-112950000D02*
X185650000Y-114950000D01*
X218750000Y-98000000D02*
X218750000Y-96000000D01*
X218750000Y-96000000D02*
X222650000Y-96000000D01*
X218750000Y-98000000D02*
X222650000Y-98000000D01*
X225875000Y-58000000D02*
X225875000Y-56000000D01*
X223075000Y-58000000D02*
X225875000Y-58000000D01*
X223075000Y-56000000D02*
X223075000Y-58000000D01*
X225875000Y-56000000D02*
X223075000Y-56000000D01*
X179475000Y-97260000D02*
X179475000Y-96350000D01*
X179475000Y-94950000D02*
X179475000Y-94040000D01*
X176900000Y-97260000D02*
X179475000Y-97260000D01*
X177325000Y-94040000D02*
X179475000Y-94040000D01*
X191140000Y-80575000D02*
X191140000Y-78425000D01*
X194360000Y-81000000D02*
X194360000Y-78425000D01*
X192050000Y-78425000D02*
X191140000Y-78425000D01*
X194360000Y-78425000D02*
X193450000Y-78425000D01*
X222075000Y-101260000D02*
X222075000Y-100350000D01*
X222075000Y-98950000D02*
X222075000Y-98040000D01*
X219500000Y-101260000D02*
X222075000Y-101260000D01*
X219925000Y-98040000D02*
X222075000Y-98040000D01*
X201125000Y-112240000D02*
X203275000Y-112240000D01*
X200700000Y-115460000D02*
X203275000Y-115460000D01*
X203275000Y-113150000D02*
X203275000Y-112240000D01*
X203275000Y-115460000D02*
X203275000Y-114550000D01*
X201125000Y-108690000D02*
X203275000Y-108690000D01*
X200700000Y-111910000D02*
X203275000Y-111910000D01*
X203275000Y-109600000D02*
X203275000Y-108690000D01*
X203275000Y-111910000D02*
X203275000Y-111000000D01*
X204024273Y-92304478D02*
X204254478Y-92074273D01*
X204745522Y-93025727D02*
X204975727Y-92795522D01*
X224337221Y-85760000D02*
X224662779Y-85760000D01*
X224337221Y-84740000D02*
X224662779Y-84740000D01*
X226587221Y-72240000D02*
X226912779Y-72240000D01*
X226587221Y-73260000D02*
X226912779Y-73260000D01*
X177837221Y-98810000D02*
X178162779Y-98810000D01*
X177837221Y-97790000D02*
X178162779Y-97790000D01*
X182887221Y-108790000D02*
X183212779Y-108790000D01*
X182887221Y-109810000D02*
X183212779Y-109810000D01*
X174687221Y-92640000D02*
X175012779Y-92640000D01*
X174687221Y-93660000D02*
X175012779Y-93660000D01*
X176410000Y-79487221D02*
X176410000Y-79812779D01*
X175390000Y-79487221D02*
X175390000Y-79812779D01*
X177940000Y-79487221D02*
X177940000Y-79812779D01*
X178960000Y-79487221D02*
X178960000Y-79812779D01*
X196087221Y-80740000D02*
X196412779Y-80740000D01*
X196087221Y-81760000D02*
X196412779Y-81760000D01*
X188987221Y-81260000D02*
X189312779Y-81260000D01*
X188987221Y-80240000D02*
X189312779Y-80240000D01*
X189087221Y-107260000D02*
X189412779Y-107260000D01*
X189087221Y-106240000D02*
X189412779Y-106240000D01*
X192837221Y-106260000D02*
X193162779Y-106260000D01*
X192837221Y-105240000D02*
X193162779Y-105240000D01*
X222412779Y-112740000D02*
X222087221Y-112740000D01*
X222412779Y-113760000D02*
X222087221Y-113760000D01*
X222087221Y-70310000D02*
X222412779Y-70310000D01*
X222087221Y-69290000D02*
X222412779Y-69290000D01*
X169640000Y-112437221D02*
X169640000Y-112762779D01*
X170660000Y-112437221D02*
X170660000Y-112762779D01*
X199062779Y-111760000D02*
X198737221Y-111760000D01*
X199062779Y-110740000D02*
X198737221Y-110740000D01*
X215300000Y-96627221D02*
X215300000Y-96952779D01*
X214280000Y-96627221D02*
X214280000Y-96952779D01*
X216587221Y-100010000D02*
X216912779Y-100010000D01*
X216587221Y-98990000D02*
X216912779Y-98990000D01*
X190087221Y-86490000D02*
X190412779Y-86490000D01*
X190087221Y-87510000D02*
X190412779Y-87510000D01*
X170662779Y-118490000D02*
X170337221Y-118490000D01*
X170662779Y-119510000D02*
X170337221Y-119510000D01*
X170662779Y-116510000D02*
X170337221Y-116510000D01*
X170662779Y-115490000D02*
X170337221Y-115490000D01*
X208000000Y-87560000D02*
X204550000Y-87560000D01*
X208000000Y-87560000D02*
X209950000Y-87560000D01*
X208000000Y-82440000D02*
X206050000Y-82440000D01*
X208000000Y-82440000D02*
X209950000Y-82440000D01*
X208000000Y-72240000D02*
X209950000Y-72240000D01*
X208000000Y-72240000D02*
X206050000Y-72240000D01*
X208000000Y-77360000D02*
X209950000Y-77360000D01*
X208000000Y-77360000D02*
X204550000Y-77360000D01*
X188790000Y-110490000D02*
X190050000Y-110490000D01*
X195610000Y-110490000D02*
X194350000Y-110490000D01*
X188790000Y-114250000D02*
X188790000Y-110490000D01*
X195610000Y-116500000D02*
X195610000Y-110490000D01*
X206065000Y-63500000D02*
X206065000Y-59640000D01*
X206065000Y-59640000D02*
X206310000Y-59640000D01*
X206065000Y-63500000D02*
X206065000Y-67360000D01*
X206065000Y-67360000D02*
X206310000Y-67360000D01*
X217835000Y-63500000D02*
X217835000Y-59640000D01*
X217835000Y-59640000D02*
X217590000Y-59640000D01*
X217835000Y-63500000D02*
X217835000Y-67360000D01*
X217835000Y-67360000D02*
X217590000Y-67360000D01*
X217590000Y-67360000D02*
X217590000Y-69175000D01*
X160250000Y-115250000D02*
X160250000Y-117250000D01*
X160250000Y-117250000D02*
X156350000Y-117250000D01*
X160250000Y-115250000D02*
X156350000Y-115250000D01*
X161350000Y-115250000D02*
X161350000Y-117250000D01*
X164150000Y-115250000D02*
X161350000Y-115250000D01*
X164150000Y-117250000D02*
X164150000Y-115250000D01*
X161350000Y-117250000D02*
X164150000Y-117250000D01*
X204490000Y-59487221D02*
X204490000Y-59812779D01*
X205510000Y-59487221D02*
X205510000Y-59812779D01*
X217200000Y-104265000D02*
X219485000Y-104265000D01*
X219485000Y-104265000D02*
X219485000Y-105735000D01*
X219485000Y-105735000D02*
X217200000Y-105735000D01*
D13*
G36*
X184675230Y-75872418D02*
G01*
X184642944Y-75947663D01*
X184613162Y-76017179D01*
X184588155Y-76075656D01*
X184570193Y-76117789D01*
X184563032Y-76134701D01*
X184544195Y-76179565D01*
X184597382Y-76179565D01*
X184635501Y-76175873D01*
X184656985Y-76161329D01*
X184666293Y-76145054D01*
X184674479Y-76129700D01*
X184685872Y-76119744D01*
X184705928Y-76114018D01*
X184740105Y-76111353D01*
X184793859Y-76110583D01*
X184827555Y-76110543D01*
X184892433Y-76110826D01*
X184935160Y-76112451D01*
X184961194Y-76116589D01*
X184975991Y-76124405D01*
X184985009Y-76137068D01*
X184988816Y-76145054D01*
X185005278Y-76168697D01*
X185032086Y-76178337D01*
X185057727Y-76179565D01*
X185110914Y-76179565D01*
X185092077Y-76134701D01*
X185080390Y-76107150D01*
X185060069Y-76059543D01*
X185033387Y-75997187D01*
X185033222Y-75996801D01*
X184911039Y-75996801D01*
X184910128Y-76000517D01*
X184891908Y-76008655D01*
X184856506Y-76012896D01*
X184814063Y-76013313D01*
X184774718Y-76009982D01*
X184748611Y-76002977D01*
X184744228Y-75999298D01*
X184744388Y-75980277D01*
X184753689Y-75945745D01*
X184769061Y-75903131D01*
X184787435Y-75859861D01*
X184805742Y-75823361D01*
X184820913Y-75801059D01*
X184827555Y-75797665D01*
X184840238Y-75812385D01*
X184857767Y-75845189D01*
X184876878Y-75888053D01*
X184894303Y-75932958D01*
X184906779Y-75971881D01*
X184911039Y-75996801D01*
X185033222Y-75996801D01*
X185002613Y-75925390D01*
X184979879Y-75872418D01*
X184886519Y-75655000D01*
X184768590Y-75655000D01*
X184675230Y-75872418D01*
X184675230Y-75872418D01*
G37*
X184675230Y-75872418D02*
X184642944Y-75947663D01*
X184613162Y-76017179D01*
X184588155Y-76075656D01*
X184570193Y-76117789D01*
X184563032Y-76134701D01*
X184544195Y-76179565D01*
X184597382Y-76179565D01*
X184635501Y-76175873D01*
X184656985Y-76161329D01*
X184666293Y-76145054D01*
X184674479Y-76129700D01*
X184685872Y-76119744D01*
X184705928Y-76114018D01*
X184740105Y-76111353D01*
X184793859Y-76110583D01*
X184827555Y-76110543D01*
X184892433Y-76110826D01*
X184935160Y-76112451D01*
X184961194Y-76116589D01*
X184975991Y-76124405D01*
X184985009Y-76137068D01*
X184988816Y-76145054D01*
X185005278Y-76168697D01*
X185032086Y-76178337D01*
X185057727Y-76179565D01*
X185110914Y-76179565D01*
X185092077Y-76134701D01*
X185080390Y-76107150D01*
X185060069Y-76059543D01*
X185033387Y-75997187D01*
X185033222Y-75996801D01*
X184911039Y-75996801D01*
X184910128Y-76000517D01*
X184891908Y-76008655D01*
X184856506Y-76012896D01*
X184814063Y-76013313D01*
X184774718Y-76009982D01*
X184748611Y-76002977D01*
X184744228Y-75999298D01*
X184744388Y-75980277D01*
X184753689Y-75945745D01*
X184769061Y-75903131D01*
X184787435Y-75859861D01*
X184805742Y-75823361D01*
X184820913Y-75801059D01*
X184827555Y-75797665D01*
X184840238Y-75812385D01*
X184857767Y-75845189D01*
X184876878Y-75888053D01*
X184894303Y-75932958D01*
X184906779Y-75971881D01*
X184911039Y-75996801D01*
X185033222Y-75996801D01*
X185002613Y-75925390D01*
X184979879Y-75872418D01*
X184886519Y-75655000D01*
X184768590Y-75655000D01*
X184675230Y-75872418D01*
G36*
X184219188Y-75848261D02*
G01*
X184186198Y-75914588D01*
X184156358Y-75971085D01*
X184132055Y-76013493D01*
X184115679Y-76037553D01*
X184110824Y-76041425D01*
X184100063Y-76029561D01*
X184080144Y-75996892D01*
X184053437Y-75947701D01*
X184022312Y-75886269D01*
X184003858Y-75848165D01*
X183911793Y-75655000D01*
X183799131Y-75655000D01*
X183799131Y-76179565D01*
X183895761Y-76179565D01*
X183895761Y-76041521D01*
X183896982Y-75982046D01*
X183900303Y-75935930D01*
X183905210Y-75908603D01*
X183908836Y-75903478D01*
X183919622Y-75915221D01*
X183938846Y-75947056D01*
X183963632Y-75993892D01*
X183986842Y-76041521D01*
X184051774Y-76179565D01*
X184167683Y-76179565D01*
X184232747Y-76041240D01*
X184259868Y-75986565D01*
X184283894Y-75943583D01*
X184302001Y-75917009D01*
X184310754Y-75910913D01*
X184316365Y-75927350D01*
X184320750Y-75964874D01*
X184323298Y-76016972D01*
X184323696Y-76049238D01*
X184323696Y-76179565D01*
X184420326Y-76179565D01*
X184420326Y-75655000D01*
X184312652Y-75655000D01*
X184219188Y-75848261D01*
X184219188Y-75848261D01*
G37*
X184219188Y-75848261D02*
X184186198Y-75914588D01*
X184156358Y-75971085D01*
X184132055Y-76013493D01*
X184115679Y-76037553D01*
X184110824Y-76041425D01*
X184100063Y-76029561D01*
X184080144Y-75996892D01*
X184053437Y-75947701D01*
X184022312Y-75886269D01*
X184003858Y-75848165D01*
X183911793Y-75655000D01*
X183799131Y-75655000D01*
X183799131Y-76179565D01*
X183895761Y-76179565D01*
X183895761Y-76041521D01*
X183896982Y-75982046D01*
X183900303Y-75935930D01*
X183905210Y-75908603D01*
X183908836Y-75903478D01*
X183919622Y-75915221D01*
X183938846Y-75947056D01*
X183963632Y-75993892D01*
X183986842Y-76041521D01*
X184051774Y-76179565D01*
X184167683Y-76179565D01*
X184232747Y-76041240D01*
X184259868Y-75986565D01*
X184283894Y-75943583D01*
X184302001Y-75917009D01*
X184310754Y-75910913D01*
X184316365Y-75927350D01*
X184320750Y-75964874D01*
X184323298Y-76016972D01*
X184323696Y-76049238D01*
X184323696Y-76179565D01*
X184420326Y-76179565D01*
X184420326Y-75655000D01*
X184312652Y-75655000D01*
X184219188Y-75848261D01*
G36*
X183457473Y-75658061D02*
G01*
X183267663Y-75661902D01*
X183263408Y-75713176D01*
X183259153Y-75764451D01*
X183401452Y-75768394D01*
X183543750Y-75772337D01*
X183552402Y-75862065D01*
X183315978Y-75862065D01*
X183315978Y-75957579D01*
X183429864Y-75961588D01*
X183543750Y-75965598D01*
X183548307Y-76005513D01*
X183545799Y-76039036D01*
X183534502Y-76057068D01*
X183513204Y-76062227D01*
X183471597Y-76066264D01*
X183416977Y-76068587D01*
X183388451Y-76068919D01*
X183260761Y-76069130D01*
X183260761Y-76179565D01*
X183647283Y-76179565D01*
X183647283Y-75654221D01*
X183457473Y-75658061D01*
X183457473Y-75658061D01*
G37*
X183457473Y-75658061D02*
X183267663Y-75661902D01*
X183263408Y-75713176D01*
X183259153Y-75764451D01*
X183401452Y-75768394D01*
X183543750Y-75772337D01*
X183552402Y-75862065D01*
X183315978Y-75862065D01*
X183315978Y-75957579D01*
X183429864Y-75961588D01*
X183543750Y-75965598D01*
X183548307Y-76005513D01*
X183545799Y-76039036D01*
X183534502Y-76057068D01*
X183513204Y-76062227D01*
X183471597Y-76066264D01*
X183416977Y-76068587D01*
X183388451Y-76068919D01*
X183260761Y-76069130D01*
X183260761Y-76179565D01*
X183647283Y-76179565D01*
X183647283Y-75654221D01*
X183457473Y-75658061D01*
G36*
X182687881Y-75661902D02*
G01*
X182683596Y-75713668D01*
X182679312Y-75765435D01*
X182874239Y-75765435D01*
X182874239Y-76179565D01*
X182970132Y-76179565D01*
X182977772Y-75772337D01*
X183070951Y-75768255D01*
X183164131Y-75764173D01*
X183164131Y-75654348D01*
X182687881Y-75661902D01*
X182687881Y-75661902D01*
G37*
X182687881Y-75661902D02*
X182683596Y-75713668D01*
X182679312Y-75765435D01*
X182874239Y-75765435D01*
X182874239Y-76179565D01*
X182970132Y-76179565D01*
X182977772Y-75772337D01*
X183070951Y-75768255D01*
X183164131Y-75764173D01*
X183164131Y-75654348D01*
X182687881Y-75661902D01*
G36*
X182518777Y-75657618D02*
G01*
X182467011Y-75661902D01*
X182462955Y-75761983D01*
X182458899Y-75862065D01*
X182197826Y-75862065D01*
X182197826Y-75655000D01*
X182101196Y-75655000D01*
X182101196Y-76179565D01*
X182196617Y-76179565D01*
X182200673Y-76079483D01*
X182204728Y-75979402D01*
X182453207Y-75979402D01*
X182457263Y-76079483D01*
X182461318Y-76179565D01*
X182570544Y-76179565D01*
X182570544Y-75653333D01*
X182518777Y-75657618D01*
X182518777Y-75657618D01*
G37*
X182518777Y-75657618D02*
X182467011Y-75661902D01*
X182462955Y-75761983D01*
X182458899Y-75862065D01*
X182197826Y-75862065D01*
X182197826Y-75655000D01*
X182101196Y-75655000D01*
X182101196Y-76179565D01*
X182196617Y-76179565D01*
X182200673Y-76079483D01*
X182204728Y-75979402D01*
X182453207Y-75979402D01*
X182457263Y-76079483D01*
X182461318Y-76179565D01*
X182570544Y-76179565D01*
X182570544Y-75653333D01*
X182518777Y-75657618D01*
G36*
X181458121Y-75656859D02*
G01*
X181439691Y-75661486D01*
X181438587Y-75663127D01*
X181446025Y-75676877D01*
X181466381Y-75708761D01*
X181496719Y-75754310D01*
X181534101Y-75809056D01*
X181542120Y-75820652D01*
X181645652Y-75970049D01*
X181645652Y-76179565D01*
X181756087Y-76179565D01*
X181756087Y-75971137D01*
X181860716Y-75816519D01*
X181902496Y-75754525D01*
X181930351Y-75711689D01*
X181945858Y-75684321D01*
X181950589Y-75668730D01*
X181946118Y-75661225D01*
X181934020Y-75658117D01*
X181928572Y-75657421D01*
X181899440Y-75655873D01*
X181875787Y-75661958D01*
X181852738Y-75679530D01*
X181825420Y-75712443D01*
X181788959Y-75764549D01*
X181784237Y-75771534D01*
X181752057Y-75817451D01*
X181724824Y-75853062D01*
X181706596Y-75873208D01*
X181702189Y-75875869D01*
X181690076Y-75865052D01*
X181667062Y-75835982D01*
X181637013Y-75793734D01*
X181618044Y-75765435D01*
X181583853Y-75714215D01*
X181559551Y-75681915D01*
X181540173Y-75664182D01*
X181520753Y-75656665D01*
X181496327Y-75655011D01*
X181492064Y-75655000D01*
X181458121Y-75656859D01*
X181458121Y-75656859D01*
G37*
X181458121Y-75656859D02*
X181439691Y-75661486D01*
X181438587Y-75663127D01*
X181446025Y-75676877D01*
X181466381Y-75708761D01*
X181496719Y-75754310D01*
X181534101Y-75809056D01*
X181542120Y-75820652D01*
X181645652Y-75970049D01*
X181645652Y-76179565D01*
X181756087Y-76179565D01*
X181756087Y-75971137D01*
X181860716Y-75816519D01*
X181902496Y-75754525D01*
X181930351Y-75711689D01*
X181945858Y-75684321D01*
X181950589Y-75668730D01*
X181946118Y-75661225D01*
X181934020Y-75658117D01*
X181928572Y-75657421D01*
X181899440Y-75655873D01*
X181875787Y-75661958D01*
X181852738Y-75679530D01*
X181825420Y-75712443D01*
X181788959Y-75764549D01*
X181784237Y-75771534D01*
X181752057Y-75817451D01*
X181724824Y-75853062D01*
X181706596Y-75873208D01*
X181702189Y-75875869D01*
X181690076Y-75865052D01*
X181667062Y-75835982D01*
X181637013Y-75793734D01*
X181618044Y-75765435D01*
X181583853Y-75714215D01*
X181559551Y-75681915D01*
X181540173Y-75664182D01*
X181520753Y-75656665D01*
X181496327Y-75655011D01*
X181492064Y-75655000D01*
X181458121Y-75656859D01*
G36*
X181107606Y-75678330D02*
G01*
X181051275Y-75710395D01*
X181036080Y-75724079D01*
X181004655Y-75762247D01*
X180997934Y-75788926D01*
X181015885Y-75803739D01*
X181043473Y-75806848D01*
X181080568Y-75801047D01*
X181106529Y-75787001D01*
X181107283Y-75786141D01*
X181133803Y-75771904D01*
X181175358Y-75765974D01*
X181220606Y-75768494D01*
X181258207Y-75779608D01*
X181265637Y-75784145D01*
X181282260Y-75809444D01*
X181278025Y-75836975D01*
X181255993Y-75854325D01*
X181234840Y-75860643D01*
X181195203Y-75872306D01*
X181145108Y-75886954D01*
X181137772Y-75889093D01*
X181084839Y-75907003D01*
X181039694Y-75926704D01*
X181011447Y-75944173D01*
X181010082Y-75945462D01*
X180990100Y-75981942D01*
X180983036Y-76030905D01*
X180989940Y-76079906D01*
X180997257Y-76097503D01*
X181029605Y-76131630D01*
X181080408Y-76156449D01*
X181141497Y-76169950D01*
X181204699Y-76170120D01*
X181250086Y-76159749D01*
X181317148Y-76124133D01*
X181364616Y-76074603D01*
X181381891Y-76039830D01*
X181389418Y-76013278D01*
X181382418Y-76002356D01*
X181354882Y-76000123D01*
X181347479Y-76000108D01*
X181300603Y-76009553D01*
X181268800Y-76035473D01*
X181226694Y-76066640D01*
X181175145Y-76080090D01*
X181124141Y-76074523D01*
X181093713Y-76058291D01*
X181071686Y-76036995D01*
X181070205Y-76020587D01*
X181078477Y-76008453D01*
X181101586Y-75992575D01*
X181141522Y-75975296D01*
X181174659Y-75964671D01*
X181258190Y-75939222D01*
X181317555Y-75914627D01*
X181356025Y-75888655D01*
X181376871Y-75859073D01*
X181383362Y-75823650D01*
X181383370Y-75822209D01*
X181371296Y-75765679D01*
X181338606Y-75720175D01*
X181290596Y-75687191D01*
X181232562Y-75668224D01*
X181169800Y-75664772D01*
X181107606Y-75678330D01*
X181107606Y-75678330D01*
G37*
X181107606Y-75678330D02*
X181051275Y-75710395D01*
X181036080Y-75724079D01*
X181004655Y-75762247D01*
X180997934Y-75788926D01*
X181015885Y-75803739D01*
X181043473Y-75806848D01*
X181080568Y-75801047D01*
X181106529Y-75787001D01*
X181107283Y-75786141D01*
X181133803Y-75771904D01*
X181175358Y-75765974D01*
X181220606Y-75768494D01*
X181258207Y-75779608D01*
X181265637Y-75784145D01*
X181282260Y-75809444D01*
X181278025Y-75836975D01*
X181255993Y-75854325D01*
X181234840Y-75860643D01*
X181195203Y-75872306D01*
X181145108Y-75886954D01*
X181137772Y-75889093D01*
X181084839Y-75907003D01*
X181039694Y-75926704D01*
X181011447Y-75944173D01*
X181010082Y-75945462D01*
X180990100Y-75981942D01*
X180983036Y-76030905D01*
X180989940Y-76079906D01*
X180997257Y-76097503D01*
X181029605Y-76131630D01*
X181080408Y-76156449D01*
X181141497Y-76169950D01*
X181204699Y-76170120D01*
X181250086Y-76159749D01*
X181317148Y-76124133D01*
X181364616Y-76074603D01*
X181381891Y-76039830D01*
X181389418Y-76013278D01*
X181382418Y-76002356D01*
X181354882Y-76000123D01*
X181347479Y-76000108D01*
X181300603Y-76009553D01*
X181268800Y-76035473D01*
X181226694Y-76066640D01*
X181175145Y-76080090D01*
X181124141Y-76074523D01*
X181093713Y-76058291D01*
X181071686Y-76036995D01*
X181070205Y-76020587D01*
X181078477Y-76008453D01*
X181101586Y-75992575D01*
X181141522Y-75975296D01*
X181174659Y-75964671D01*
X181258190Y-75939222D01*
X181317555Y-75914627D01*
X181356025Y-75888655D01*
X181376871Y-75859073D01*
X181383362Y-75823650D01*
X181383370Y-75822209D01*
X181371296Y-75765679D01*
X181338606Y-75720175D01*
X181290596Y-75687191D01*
X181232562Y-75668224D01*
X181169800Y-75664772D01*
X181107606Y-75678330D01*
G36*
X180430870Y-75765435D02*
G01*
X180610326Y-75765435D01*
X180610326Y-76179565D01*
X180720761Y-76179565D01*
X180720761Y-75765435D01*
X180900218Y-75765435D01*
X180900218Y-75655000D01*
X180430870Y-75655000D01*
X180430870Y-75765435D01*
X180430870Y-75765435D01*
G37*
X180430870Y-75765435D02*
X180610326Y-75765435D01*
X180610326Y-76179565D01*
X180720761Y-76179565D01*
X180720761Y-75765435D01*
X180900218Y-75765435D01*
X180900218Y-75655000D01*
X180430870Y-75655000D01*
X180430870Y-75765435D01*
G36*
X182765453Y-72810608D02*
G01*
X182752834Y-72840119D01*
X182736577Y-72882975D01*
X182736407Y-72883446D01*
X182724856Y-72915225D01*
X182705015Y-72969645D01*
X182678086Y-73043420D01*
X182645267Y-73133267D01*
X182607759Y-73235899D01*
X182566762Y-73348032D01*
X182523477Y-73466379D01*
X182506665Y-73512333D01*
X182464228Y-73628604D01*
X182424897Y-73736912D01*
X182389661Y-73834496D01*
X182359506Y-73918592D01*
X182335423Y-73986438D01*
X182318399Y-74035272D01*
X182309423Y-74062332D01*
X182308261Y-74066828D01*
X182319312Y-74079448D01*
X182348740Y-74100419D01*
X182390961Y-74126669D01*
X182440388Y-74155130D01*
X182491436Y-74182732D01*
X182538520Y-74206405D01*
X182576053Y-74223079D01*
X182598449Y-74229686D01*
X182602191Y-74228361D01*
X182608767Y-74210391D01*
X182622956Y-74171367D01*
X182642977Y-74116195D01*
X182667049Y-74049783D01*
X182680631Y-74012282D01*
X182706322Y-73942377D01*
X182729355Y-73881654D01*
X182747864Y-73834881D01*
X182759986Y-73806828D01*
X182763182Y-73801181D01*
X182778683Y-73800496D01*
X182787329Y-73808083D01*
X182795124Y-73824736D01*
X182811175Y-73864359D01*
X182834343Y-73923964D01*
X182863491Y-74000559D01*
X182897481Y-74091154D01*
X182935176Y-74192758D01*
X182975439Y-74302380D01*
X182977885Y-74309076D01*
X183021256Y-74427795D01*
X183064557Y-74546293D01*
X183106166Y-74660132D01*
X183144459Y-74764873D01*
X183177814Y-74856079D01*
X183204609Y-74929311D01*
X183220126Y-74971685D01*
X183285881Y-75151141D01*
X183977215Y-75154720D01*
X184133123Y-75155499D01*
X184263766Y-75156032D01*
X184371489Y-75156239D01*
X184458637Y-75156042D01*
X184527552Y-75155362D01*
X184580581Y-75154120D01*
X184620066Y-75152237D01*
X184648352Y-75149636D01*
X184667783Y-75146236D01*
X184680703Y-75141959D01*
X184689456Y-75136728D01*
X184696286Y-75130562D01*
X184718916Y-75091567D01*
X184721716Y-75046929D01*
X184704565Y-75007653D01*
X184697695Y-75000454D01*
X184671817Y-74985633D01*
X184627817Y-74968512D01*
X184574589Y-74952486D01*
X184567155Y-74950586D01*
X184468982Y-74921280D01*
X184387776Y-74884906D01*
X184312952Y-74836174D01*
X184271386Y-74802784D01*
X184230634Y-74764520D01*
X184196288Y-74722467D01*
X184164934Y-74670986D01*
X184133161Y-74604438D01*
X184097554Y-74517183D01*
X184095811Y-74512690D01*
X184075800Y-74465392D01*
X184057665Y-74430151D01*
X184044725Y-74413244D01*
X184042883Y-74412608D01*
X184025702Y-74419258D01*
X183990589Y-74437201D01*
X183943229Y-74463432D01*
X183905888Y-74485081D01*
X183783063Y-74557554D01*
X183792147Y-74643375D01*
X183792826Y-74717676D01*
X183775674Y-74773446D01*
X183738864Y-74814651D01*
X183703655Y-74835443D01*
X183668271Y-74849306D01*
X183638488Y-74850107D01*
X183600766Y-74839117D01*
X183558762Y-74817848D01*
X183524611Y-74789939D01*
X183519898Y-74784218D01*
X183509754Y-74764072D01*
X183491343Y-74720776D01*
X183465758Y-74657151D01*
X183434091Y-74576021D01*
X183397436Y-74480208D01*
X183356887Y-74372536D01*
X183313536Y-74255826D01*
X183281985Y-74169925D01*
X183236914Y-74046795D01*
X183193752Y-73929171D01*
X183153634Y-73820126D01*
X183117697Y-73722735D01*
X183087075Y-73640071D01*
X183062904Y-73575209D01*
X183046321Y-73531221D01*
X183040166Y-73515326D01*
X183026775Y-73480763D01*
X183005630Y-73425001D01*
X182978498Y-73352755D01*
X182947145Y-73268739D01*
X182913340Y-73177671D01*
X182892793Y-73122088D01*
X182860265Y-73034221D01*
X182830888Y-72955367D01*
X182806003Y-72889093D01*
X182786954Y-72838962D01*
X182775086Y-72808538D01*
X182771713Y-72800807D01*
X182765453Y-72810608D01*
X182765453Y-72810608D01*
G37*
X182765453Y-72810608D02*
X182752834Y-72840119D01*
X182736577Y-72882975D01*
X182736407Y-72883446D01*
X182724856Y-72915225D01*
X182705015Y-72969645D01*
X182678086Y-73043420D01*
X182645267Y-73133267D01*
X182607759Y-73235899D01*
X182566762Y-73348032D01*
X182523477Y-73466379D01*
X182506665Y-73512333D01*
X182464228Y-73628604D01*
X182424897Y-73736912D01*
X182389661Y-73834496D01*
X182359506Y-73918592D01*
X182335423Y-73986438D01*
X182318399Y-74035272D01*
X182309423Y-74062332D01*
X182308261Y-74066828D01*
X182319312Y-74079448D01*
X182348740Y-74100419D01*
X182390961Y-74126669D01*
X182440388Y-74155130D01*
X182491436Y-74182732D01*
X182538520Y-74206405D01*
X182576053Y-74223079D01*
X182598449Y-74229686D01*
X182602191Y-74228361D01*
X182608767Y-74210391D01*
X182622956Y-74171367D01*
X182642977Y-74116195D01*
X182667049Y-74049783D01*
X182680631Y-74012282D01*
X182706322Y-73942377D01*
X182729355Y-73881654D01*
X182747864Y-73834881D01*
X182759986Y-73806828D01*
X182763182Y-73801181D01*
X182778683Y-73800496D01*
X182787329Y-73808083D01*
X182795124Y-73824736D01*
X182811175Y-73864359D01*
X182834343Y-73923964D01*
X182863491Y-74000559D01*
X182897481Y-74091154D01*
X182935176Y-74192758D01*
X182975439Y-74302380D01*
X182977885Y-74309076D01*
X183021256Y-74427795D01*
X183064557Y-74546293D01*
X183106166Y-74660132D01*
X183144459Y-74764873D01*
X183177814Y-74856079D01*
X183204609Y-74929311D01*
X183220126Y-74971685D01*
X183285881Y-75151141D01*
X183977215Y-75154720D01*
X184133123Y-75155499D01*
X184263766Y-75156032D01*
X184371489Y-75156239D01*
X184458637Y-75156042D01*
X184527552Y-75155362D01*
X184580581Y-75154120D01*
X184620066Y-75152237D01*
X184648352Y-75149636D01*
X184667783Y-75146236D01*
X184680703Y-75141959D01*
X184689456Y-75136728D01*
X184696286Y-75130562D01*
X184718916Y-75091567D01*
X184721716Y-75046929D01*
X184704565Y-75007653D01*
X184697695Y-75000454D01*
X184671817Y-74985633D01*
X184627817Y-74968512D01*
X184574589Y-74952486D01*
X184567155Y-74950586D01*
X184468982Y-74921280D01*
X184387776Y-74884906D01*
X184312952Y-74836174D01*
X184271386Y-74802784D01*
X184230634Y-74764520D01*
X184196288Y-74722467D01*
X184164934Y-74670986D01*
X184133161Y-74604438D01*
X184097554Y-74517183D01*
X184095811Y-74512690D01*
X184075800Y-74465392D01*
X184057665Y-74430151D01*
X184044725Y-74413244D01*
X184042883Y-74412608D01*
X184025702Y-74419258D01*
X183990589Y-74437201D01*
X183943229Y-74463432D01*
X183905888Y-74485081D01*
X183783063Y-74557554D01*
X183792147Y-74643375D01*
X183792826Y-74717676D01*
X183775674Y-74773446D01*
X183738864Y-74814651D01*
X183703655Y-74835443D01*
X183668271Y-74849306D01*
X183638488Y-74850107D01*
X183600766Y-74839117D01*
X183558762Y-74817848D01*
X183524611Y-74789939D01*
X183519898Y-74784218D01*
X183509754Y-74764072D01*
X183491343Y-74720776D01*
X183465758Y-74657151D01*
X183434091Y-74576021D01*
X183397436Y-74480208D01*
X183356887Y-74372536D01*
X183313536Y-74255826D01*
X183281985Y-74169925D01*
X183236914Y-74046795D01*
X183193752Y-73929171D01*
X183153634Y-73820126D01*
X183117697Y-73722735D01*
X183087075Y-73640071D01*
X183062904Y-73575209D01*
X183046321Y-73531221D01*
X183040166Y-73515326D01*
X183026775Y-73480763D01*
X183005630Y-73425001D01*
X182978498Y-73352755D01*
X182947145Y-73268739D01*
X182913340Y-73177671D01*
X182892793Y-73122088D01*
X182860265Y-73034221D01*
X182830888Y-72955367D01*
X182806003Y-72889093D01*
X182786954Y-72838962D01*
X182775086Y-72808538D01*
X182771713Y-72800807D01*
X182765453Y-72810608D01*
G36*
X181481758Y-74414960D02*
G01*
X181467345Y-74449192D01*
X181446938Y-74498604D01*
X181423601Y-74555783D01*
X181395018Y-74623891D01*
X181371099Y-74673230D01*
X181347257Y-74711045D01*
X181318902Y-74744580D01*
X181281446Y-74781080D01*
X181280100Y-74782327D01*
X181203599Y-74844602D01*
X181122656Y-74891402D01*
X181028446Y-74927254D01*
X180962337Y-74945282D01*
X180911755Y-74958958D01*
X180870560Y-74972559D01*
X180847363Y-74983230D01*
X180846907Y-74983574D01*
X180821604Y-75018563D01*
X180815050Y-75062132D01*
X180825995Y-75104846D01*
X180853192Y-75137267D01*
X180868299Y-75145225D01*
X180888897Y-75147883D01*
X180934518Y-75150333D01*
X181002577Y-75152528D01*
X181090487Y-75154421D01*
X181195665Y-75155965D01*
X181315525Y-75157115D01*
X181447481Y-75157823D01*
X181577871Y-75158043D01*
X182253727Y-75158043D01*
X182268646Y-75120081D01*
X182282186Y-75084457D01*
X182299642Y-75037063D01*
X182308300Y-75013098D01*
X182324190Y-74969317D01*
X182337415Y-74933842D01*
X182342210Y-74921538D01*
X182341039Y-74908719D01*
X182326049Y-74891891D01*
X182294194Y-74868695D01*
X182242426Y-74836773D01*
X182203621Y-74814216D01*
X182147051Y-74782179D01*
X182099975Y-74756317D01*
X182067057Y-74739137D01*
X182052963Y-74733143D01*
X182052788Y-74733221D01*
X182044838Y-74746910D01*
X182033163Y-74768809D01*
X182004254Y-74803283D01*
X181961046Y-74833491D01*
X181915577Y-74851882D01*
X181896896Y-74854296D01*
X181843744Y-74842214D01*
X181794482Y-74810449D01*
X181761830Y-74769279D01*
X181748863Y-74734111D01*
X181745178Y-74691279D01*
X181748744Y-74639738D01*
X181757992Y-74553384D01*
X181624734Y-74474957D01*
X181571316Y-74444072D01*
X181527460Y-74419762D01*
X181498056Y-74404668D01*
X181488007Y-74401118D01*
X181481758Y-74414960D01*
X181481758Y-74414960D01*
G37*
X181481758Y-74414960D02*
X181467345Y-74449192D01*
X181446938Y-74498604D01*
X181423601Y-74555783D01*
X181395018Y-74623891D01*
X181371099Y-74673230D01*
X181347257Y-74711045D01*
X181318902Y-74744580D01*
X181281446Y-74781080D01*
X181280100Y-74782327D01*
X181203599Y-74844602D01*
X181122656Y-74891402D01*
X181028446Y-74927254D01*
X180962337Y-74945282D01*
X180911755Y-74958958D01*
X180870560Y-74972559D01*
X180847363Y-74983230D01*
X180846907Y-74983574D01*
X180821604Y-75018563D01*
X180815050Y-75062132D01*
X180825995Y-75104846D01*
X180853192Y-75137267D01*
X180868299Y-75145225D01*
X180888897Y-75147883D01*
X180934518Y-75150333D01*
X181002577Y-75152528D01*
X181090487Y-75154421D01*
X181195665Y-75155965D01*
X181315525Y-75157115D01*
X181447481Y-75157823D01*
X181577871Y-75158043D01*
X182253727Y-75158043D01*
X182268646Y-75120081D01*
X182282186Y-75084457D01*
X182299642Y-75037063D01*
X182308300Y-75013098D01*
X182324190Y-74969317D01*
X182337415Y-74933842D01*
X182342210Y-74921538D01*
X182341039Y-74908719D01*
X182326049Y-74891891D01*
X182294194Y-74868695D01*
X182242426Y-74836773D01*
X182203621Y-74814216D01*
X182147051Y-74782179D01*
X182099975Y-74756317D01*
X182067057Y-74739137D01*
X182052963Y-74733143D01*
X182052788Y-74733221D01*
X182044838Y-74746910D01*
X182033163Y-74768809D01*
X182004254Y-74803283D01*
X181961046Y-74833491D01*
X181915577Y-74851882D01*
X181896896Y-74854296D01*
X181843744Y-74842214D01*
X181794482Y-74810449D01*
X181761830Y-74769279D01*
X181748863Y-74734111D01*
X181745178Y-74691279D01*
X181748744Y-74639738D01*
X181757992Y-74553384D01*
X181624734Y-74474957D01*
X181571316Y-74444072D01*
X181527460Y-74419762D01*
X181498056Y-74404668D01*
X181488007Y-74401118D01*
X181481758Y-74414960D01*
G36*
X182357866Y-71729086D02*
G01*
X182322142Y-71747526D01*
X182265416Y-71778409D01*
X182189078Y-71820946D01*
X182094519Y-71874348D01*
X181983129Y-71937826D01*
X181856299Y-72010590D01*
X181715419Y-72091852D01*
X181561880Y-72180823D01*
X181400809Y-72274536D01*
X181273302Y-72348858D01*
X181273119Y-73212414D01*
X181272935Y-74075969D01*
X181580082Y-74254235D01*
X181732796Y-74342751D01*
X181882097Y-74429060D01*
X182026112Y-74512095D01*
X182162971Y-74590788D01*
X182290801Y-74664073D01*
X182407731Y-74730882D01*
X182511890Y-74790147D01*
X182601405Y-74840802D01*
X182674406Y-74881777D01*
X182729020Y-74912007D01*
X182763377Y-74930424D01*
X182775507Y-74936015D01*
X182790991Y-74928847D01*
X182823352Y-74911052D01*
X182865869Y-74886338D01*
X182870017Y-74883870D01*
X182913123Y-74857743D01*
X182946401Y-74836786D01*
X182963137Y-74825236D01*
X182963567Y-74824838D01*
X182961768Y-74810231D01*
X182952301Y-74776124D01*
X182937345Y-74728815D01*
X182919080Y-74674597D01*
X182899682Y-74619766D01*
X182881331Y-74570617D01*
X182866205Y-74533444D01*
X182856482Y-74514544D01*
X182856003Y-74514010D01*
X182840469Y-74514988D01*
X182811850Y-74526540D01*
X182809084Y-74527946D01*
X182799454Y-74532498D01*
X182789246Y-74535040D01*
X182776317Y-74534497D01*
X182758525Y-74529794D01*
X182733728Y-74519857D01*
X182699785Y-74503611D01*
X182654553Y-74479981D01*
X182595891Y-74447893D01*
X182521656Y-74406273D01*
X182429707Y-74354045D01*
X182317902Y-74290135D01*
X182196959Y-74220840D01*
X181624946Y-73892990D01*
X181624946Y-72531411D01*
X181903868Y-72371113D01*
X182182789Y-72210815D01*
X182280311Y-71970664D01*
X182310558Y-71895015D01*
X182336279Y-71828438D01*
X182355969Y-71775015D01*
X182368128Y-71738824D01*
X182371252Y-71723946D01*
X182371197Y-71723878D01*
X182357866Y-71729086D01*
X182357866Y-71729086D01*
G37*
X182357866Y-71729086D02*
X182322142Y-71747526D01*
X182265416Y-71778409D01*
X182189078Y-71820946D01*
X182094519Y-71874348D01*
X181983129Y-71937826D01*
X181856299Y-72010590D01*
X181715419Y-72091852D01*
X181561880Y-72180823D01*
X181400809Y-72274536D01*
X181273302Y-72348858D01*
X181273119Y-73212414D01*
X181272935Y-74075969D01*
X181580082Y-74254235D01*
X181732796Y-74342751D01*
X181882097Y-74429060D01*
X182026112Y-74512095D01*
X182162971Y-74590788D01*
X182290801Y-74664073D01*
X182407731Y-74730882D01*
X182511890Y-74790147D01*
X182601405Y-74840802D01*
X182674406Y-74881777D01*
X182729020Y-74912007D01*
X182763377Y-74930424D01*
X182775507Y-74936015D01*
X182790991Y-74928847D01*
X182823352Y-74911052D01*
X182865869Y-74886338D01*
X182870017Y-74883870D01*
X182913123Y-74857743D01*
X182946401Y-74836786D01*
X182963137Y-74825236D01*
X182963567Y-74824838D01*
X182961768Y-74810231D01*
X182952301Y-74776124D01*
X182937345Y-74728815D01*
X182919080Y-74674597D01*
X182899682Y-74619766D01*
X182881331Y-74570617D01*
X182866205Y-74533444D01*
X182856482Y-74514544D01*
X182856003Y-74514010D01*
X182840469Y-74514988D01*
X182811850Y-74526540D01*
X182809084Y-74527946D01*
X182799454Y-74532498D01*
X182789246Y-74535040D01*
X182776317Y-74534497D01*
X182758525Y-74529794D01*
X182733728Y-74519857D01*
X182699785Y-74503611D01*
X182654553Y-74479981D01*
X182595891Y-74447893D01*
X182521656Y-74406273D01*
X182429707Y-74354045D01*
X182317902Y-74290135D01*
X182196959Y-74220840D01*
X181624946Y-73892990D01*
X181624946Y-72531411D01*
X181903868Y-72371113D01*
X182182789Y-72210815D01*
X182280311Y-71970664D01*
X182310558Y-71895015D01*
X182336279Y-71828438D01*
X182355969Y-71775015D01*
X182368128Y-71738824D01*
X182371252Y-71723946D01*
X182371197Y-71723878D01*
X182357866Y-71729086D01*
G36*
X183215039Y-71765083D02*
G01*
X183228764Y-71799427D01*
X183250224Y-71852866D01*
X183276806Y-71918900D01*
X183305895Y-71991030D01*
X183315225Y-72014138D01*
X183391902Y-72203982D01*
X183674891Y-72366449D01*
X183957881Y-72528915D01*
X183957881Y-73877847D01*
X183737011Y-74007047D01*
X183666521Y-74048144D01*
X183604122Y-74084263D01*
X183553764Y-74113141D01*
X183519398Y-74132510D01*
X183505051Y-74140081D01*
X183506324Y-74153113D01*
X183514875Y-74186038D01*
X183528716Y-74232743D01*
X183545856Y-74287115D01*
X183564307Y-74343041D01*
X183582077Y-74394407D01*
X183597179Y-74435101D01*
X183607621Y-74459008D01*
X183609965Y-74462431D01*
X183622174Y-74456505D01*
X183655286Y-74438519D01*
X183706266Y-74410171D01*
X183772082Y-74373162D01*
X183849700Y-74329190D01*
X183936087Y-74279955D01*
X183954062Y-74269676D01*
X184295352Y-74074402D01*
X184292268Y-73206020D01*
X184289185Y-72337639D01*
X184151141Y-72255111D01*
X184110872Y-72231339D01*
X184052404Y-72197237D01*
X183979279Y-72154836D01*
X183895039Y-72106169D01*
X183803225Y-72053268D01*
X183707378Y-71998164D01*
X183611040Y-71942891D01*
X183517752Y-71889480D01*
X183431057Y-71839963D01*
X183354495Y-71796373D01*
X183291608Y-71760742D01*
X183245937Y-71735101D01*
X183222694Y-71722359D01*
X183191529Y-71705872D01*
X183215039Y-71765083D01*
X183215039Y-71765083D01*
G37*
X183215039Y-71765083D02*
X183228764Y-71799427D01*
X183250224Y-71852866D01*
X183276806Y-71918900D01*
X183305895Y-71991030D01*
X183315225Y-72014138D01*
X183391902Y-72203982D01*
X183674891Y-72366449D01*
X183957881Y-72528915D01*
X183957881Y-73877847D01*
X183737011Y-74007047D01*
X183666521Y-74048144D01*
X183604122Y-74084263D01*
X183553764Y-74113141D01*
X183519398Y-74132510D01*
X183505051Y-74140081D01*
X183506324Y-74153113D01*
X183514875Y-74186038D01*
X183528716Y-74232743D01*
X183545856Y-74287115D01*
X183564307Y-74343041D01*
X183582077Y-74394407D01*
X183597179Y-74435101D01*
X183607621Y-74459008D01*
X183609965Y-74462431D01*
X183622174Y-74456505D01*
X183655286Y-74438519D01*
X183706266Y-74410171D01*
X183772082Y-74373162D01*
X183849700Y-74329190D01*
X183936087Y-74279955D01*
X183954062Y-74269676D01*
X184295352Y-74074402D01*
X184292268Y-73206020D01*
X184289185Y-72337639D01*
X184151141Y-72255111D01*
X184110872Y-72231339D01*
X184052404Y-72197237D01*
X183979279Y-72154836D01*
X183895039Y-72106169D01*
X183803225Y-72053268D01*
X183707378Y-71998164D01*
X183611040Y-71942891D01*
X183517752Y-71889480D01*
X183431057Y-71839963D01*
X183354495Y-71796373D01*
X183291608Y-71760742D01*
X183245937Y-71735101D01*
X183222694Y-71722359D01*
X183191529Y-71705872D01*
X183215039Y-71765083D01*
G36*
X182763917Y-71227676D02*
G01*
X182756668Y-71240954D01*
X182754537Y-71245667D01*
X182746164Y-71265867D01*
X182728676Y-71309255D01*
X182703067Y-71373328D01*
X182670331Y-71455581D01*
X182631463Y-71553512D01*
X182587456Y-71664617D01*
X182539305Y-71786392D01*
X182488004Y-71916335D01*
X182458977Y-71989945D01*
X182398320Y-72143764D01*
X182333749Y-72307394D01*
X182267301Y-72475685D01*
X182201011Y-72643484D01*
X182136915Y-72805641D01*
X182077046Y-72957005D01*
X182023443Y-73092424D01*
X181982580Y-73195548D01*
X181938393Y-73307980D01*
X181897616Y-73413647D01*
X181861365Y-73509514D01*
X181830756Y-73592547D01*
X181806902Y-73659714D01*
X181790918Y-73707980D01*
X181783920Y-73734311D01*
X181783696Y-73736760D01*
X181786597Y-73758303D01*
X181798497Y-73777184D01*
X181824188Y-73798124D01*
X181868465Y-73825844D01*
X181882542Y-73834120D01*
X181930686Y-73861098D01*
X181971246Y-73881756D01*
X181997222Y-73892593D01*
X182001008Y-73893397D01*
X182017002Y-73881897D01*
X182037280Y-73848543D01*
X182053424Y-73812119D01*
X182142114Y-73587551D01*
X182231027Y-73361301D01*
X182318278Y-73138214D01*
X182401978Y-72923131D01*
X182480243Y-72720898D01*
X182551184Y-72536356D01*
X182591144Y-72431685D01*
X182630234Y-72329181D01*
X182666261Y-72235128D01*
X182698041Y-72152583D01*
X182724392Y-72084604D01*
X182744128Y-72034248D01*
X182756067Y-72004573D01*
X182759127Y-71997768D01*
X182764522Y-71996023D01*
X182772153Y-72002756D01*
X182782883Y-72019969D01*
X182797577Y-72049666D01*
X182817097Y-72093850D01*
X182842308Y-72154524D01*
X182874073Y-72233693D01*
X182913256Y-72333359D01*
X182960720Y-72455526D01*
X182997413Y-72550521D01*
X183084995Y-72777461D01*
X183163196Y-72979724D01*
X183232462Y-73158437D01*
X183293237Y-73314724D01*
X183345969Y-73449709D01*
X183391103Y-73564518D01*
X183429085Y-73660276D01*
X183460361Y-73738108D01*
X183485376Y-73799137D01*
X183504577Y-73844490D01*
X183518408Y-73875291D01*
X183527317Y-73892664D01*
X183531352Y-73897715D01*
X183548220Y-73893053D01*
X183582545Y-73876981D01*
X183628220Y-73852477D01*
X183650918Y-73839452D01*
X183702996Y-73807841D01*
X183735079Y-73784624D01*
X183751713Y-73765547D01*
X183757444Y-73746355D01*
X183757718Y-73739525D01*
X183752665Y-73719174D01*
X183737949Y-73674932D01*
X183714231Y-73608513D01*
X183682173Y-73521632D01*
X183642435Y-73416001D01*
X183595681Y-73293336D01*
X183542571Y-73155350D01*
X183483767Y-73003758D01*
X183419930Y-72840274D01*
X183351723Y-72666611D01*
X183279807Y-72484484D01*
X183204843Y-72295608D01*
X183127493Y-72101695D01*
X183074433Y-71969239D01*
X183029915Y-71858109D01*
X182985390Y-71746623D01*
X182942787Y-71639632D01*
X182904032Y-71541986D01*
X182871052Y-71458534D01*
X182845774Y-71394126D01*
X182839036Y-71376809D01*
X182812156Y-71307889D01*
X182793206Y-71261623D01*
X182780184Y-71234904D01*
X182771088Y-71224624D01*
X182763917Y-71227676D01*
X182763917Y-71227676D01*
G37*
X182763917Y-71227676D02*
X182756668Y-71240954D01*
X182754537Y-71245667D01*
X182746164Y-71265867D01*
X182728676Y-71309255D01*
X182703067Y-71373328D01*
X182670331Y-71455581D01*
X182631463Y-71553512D01*
X182587456Y-71664617D01*
X182539305Y-71786392D01*
X182488004Y-71916335D01*
X182458977Y-71989945D01*
X182398320Y-72143764D01*
X182333749Y-72307394D01*
X182267301Y-72475685D01*
X182201011Y-72643484D01*
X182136915Y-72805641D01*
X182077046Y-72957005D01*
X182023443Y-73092424D01*
X181982580Y-73195548D01*
X181938393Y-73307980D01*
X181897616Y-73413647D01*
X181861365Y-73509514D01*
X181830756Y-73592547D01*
X181806902Y-73659714D01*
X181790918Y-73707980D01*
X181783920Y-73734311D01*
X181783696Y-73736760D01*
X181786597Y-73758303D01*
X181798497Y-73777184D01*
X181824188Y-73798124D01*
X181868465Y-73825844D01*
X181882542Y-73834120D01*
X181930686Y-73861098D01*
X181971246Y-73881756D01*
X181997222Y-73892593D01*
X182001008Y-73893397D01*
X182017002Y-73881897D01*
X182037280Y-73848543D01*
X182053424Y-73812119D01*
X182142114Y-73587551D01*
X182231027Y-73361301D01*
X182318278Y-73138214D01*
X182401978Y-72923131D01*
X182480243Y-72720898D01*
X182551184Y-72536356D01*
X182591144Y-72431685D01*
X182630234Y-72329181D01*
X182666261Y-72235128D01*
X182698041Y-72152583D01*
X182724392Y-72084604D01*
X182744128Y-72034248D01*
X182756067Y-72004573D01*
X182759127Y-71997768D01*
X182764522Y-71996023D01*
X182772153Y-72002756D01*
X182782883Y-72019969D01*
X182797577Y-72049666D01*
X182817097Y-72093850D01*
X182842308Y-72154524D01*
X182874073Y-72233693D01*
X182913256Y-72333359D01*
X182960720Y-72455526D01*
X182997413Y-72550521D01*
X183084995Y-72777461D01*
X183163196Y-72979724D01*
X183232462Y-73158437D01*
X183293237Y-73314724D01*
X183345969Y-73449709D01*
X183391103Y-73564518D01*
X183429085Y-73660276D01*
X183460361Y-73738108D01*
X183485376Y-73799137D01*
X183504577Y-73844490D01*
X183518408Y-73875291D01*
X183527317Y-73892664D01*
X183531352Y-73897715D01*
X183548220Y-73893053D01*
X183582545Y-73876981D01*
X183628220Y-73852477D01*
X183650918Y-73839452D01*
X183702996Y-73807841D01*
X183735079Y-73784624D01*
X183751713Y-73765547D01*
X183757444Y-73746355D01*
X183757718Y-73739525D01*
X183752665Y-73719174D01*
X183737949Y-73674932D01*
X183714231Y-73608513D01*
X183682173Y-73521632D01*
X183642435Y-73416001D01*
X183595681Y-73293336D01*
X183542571Y-73155350D01*
X183483767Y-73003758D01*
X183419930Y-72840274D01*
X183351723Y-72666611D01*
X183279807Y-72484484D01*
X183204843Y-72295608D01*
X183127493Y-72101695D01*
X183074433Y-71969239D01*
X183029915Y-71858109D01*
X182985390Y-71746623D01*
X182942787Y-71639632D01*
X182904032Y-71541986D01*
X182871052Y-71458534D01*
X182845774Y-71394126D01*
X182839036Y-71376809D01*
X182812156Y-71307889D01*
X182793206Y-71261623D01*
X182780184Y-71234904D01*
X182771088Y-71224624D01*
X182763917Y-71227676D01*
D10*
X203964285Y-84382380D02*
X203869047Y-84382380D01*
X203773809Y-84430000D01*
X203726190Y-84477619D01*
X203678571Y-84572857D01*
X203630952Y-84763333D01*
X203630952Y-85001428D01*
X203678571Y-85191904D01*
X203726190Y-85287142D01*
X203773809Y-85334761D01*
X203869047Y-85382380D01*
X203964285Y-85382380D01*
X204059523Y-85334761D01*
X204107142Y-85287142D01*
X204154761Y-85191904D01*
X204202380Y-85001428D01*
X204202380Y-84763333D01*
X204154761Y-84572857D01*
X204107142Y-84477619D01*
X204059523Y-84430000D01*
X203964285Y-84382380D01*
X203202380Y-85287142D02*
X203154761Y-85334761D01*
X203202380Y-85382380D01*
X203250000Y-85334761D01*
X203202380Y-85287142D01*
X203202380Y-85382380D01*
X202202380Y-85382380D02*
X202773809Y-85382380D01*
X202488095Y-85382380D02*
X202488095Y-84382380D01*
X202583333Y-84525238D01*
X202678571Y-84620476D01*
X202773809Y-84668095D01*
X201345238Y-84715714D02*
X201345238Y-85382380D01*
X201773809Y-84715714D02*
X201773809Y-85239523D01*
X201726190Y-85334761D01*
X201630952Y-85382380D01*
X201488095Y-85382380D01*
X201392857Y-85334761D01*
X201345238Y-85287142D01*
X203964285Y-75032380D02*
X203869047Y-75032380D01*
X203773809Y-75080000D01*
X203726190Y-75127619D01*
X203678571Y-75222857D01*
X203630952Y-75413333D01*
X203630952Y-75651428D01*
X203678571Y-75841904D01*
X203726190Y-75937142D01*
X203773809Y-75984761D01*
X203869047Y-76032380D01*
X203964285Y-76032380D01*
X204059523Y-75984761D01*
X204107142Y-75937142D01*
X204154761Y-75841904D01*
X204202380Y-75651428D01*
X204202380Y-75413333D01*
X204154761Y-75222857D01*
X204107142Y-75127619D01*
X204059523Y-75080000D01*
X203964285Y-75032380D01*
X203202380Y-75937142D02*
X203154761Y-75984761D01*
X203202380Y-76032380D01*
X203250000Y-75984761D01*
X203202380Y-75937142D01*
X203202380Y-76032380D01*
X202202380Y-76032380D02*
X202773809Y-76032380D01*
X202488095Y-76032380D02*
X202488095Y-75032380D01*
X202583333Y-75175238D01*
X202678571Y-75270476D01*
X202773809Y-75318095D01*
X201345238Y-75365714D02*
X201345238Y-76032380D01*
X201773809Y-75365714D02*
X201773809Y-75889523D01*
X201726190Y-75984761D01*
X201630952Y-76032380D01*
X201488095Y-76032380D01*
X201392857Y-75984761D01*
X201345238Y-75937142D01*
X189714285Y-92632380D02*
X189619047Y-92632380D01*
X189523809Y-92680000D01*
X189476190Y-92727619D01*
X189428571Y-92822857D01*
X189380952Y-93013333D01*
X189380952Y-93251428D01*
X189428571Y-93441904D01*
X189476190Y-93537142D01*
X189523809Y-93584761D01*
X189619047Y-93632380D01*
X189714285Y-93632380D01*
X189809523Y-93584761D01*
X189857142Y-93537142D01*
X189904761Y-93441904D01*
X189952380Y-93251428D01*
X189952380Y-93013333D01*
X189904761Y-92822857D01*
X189857142Y-92727619D01*
X189809523Y-92680000D01*
X189714285Y-92632380D01*
X188952380Y-93537142D02*
X188904761Y-93584761D01*
X188952380Y-93632380D01*
X189000000Y-93584761D01*
X188952380Y-93537142D01*
X188952380Y-93632380D01*
X187952380Y-93632380D02*
X188523809Y-93632380D01*
X188238095Y-93632380D02*
X188238095Y-92632380D01*
X188333333Y-92775238D01*
X188428571Y-92870476D01*
X188523809Y-92918095D01*
X187095238Y-92965714D02*
X187095238Y-93632380D01*
X187523809Y-92965714D02*
X187523809Y-93489523D01*
X187476190Y-93584761D01*
X187380952Y-93632380D01*
X187238095Y-93632380D01*
X187142857Y-93584761D01*
X187095238Y-93537142D01*
X216512380Y-108211904D02*
X216436190Y-108211904D01*
X216360000Y-108250000D01*
X216321904Y-108288095D01*
X216283809Y-108364285D01*
X216245714Y-108516666D01*
X216245714Y-108707142D01*
X216283809Y-108859523D01*
X216321904Y-108935714D01*
X216360000Y-108973809D01*
X216436190Y-109011904D01*
X216512380Y-109011904D01*
X216588571Y-108973809D01*
X216626666Y-108935714D01*
X216664761Y-108859523D01*
X216702857Y-108707142D01*
X216702857Y-108516666D01*
X216664761Y-108364285D01*
X216626666Y-108288095D01*
X216588571Y-108250000D01*
X216512380Y-108211904D01*
X215902857Y-108935714D02*
X215864761Y-108973809D01*
X215902857Y-109011904D01*
X215940952Y-108973809D01*
X215902857Y-108935714D01*
X215902857Y-109011904D01*
X215369523Y-108211904D02*
X215293333Y-108211904D01*
X215217142Y-108250000D01*
X215179047Y-108288095D01*
X215140952Y-108364285D01*
X215102857Y-108516666D01*
X215102857Y-108707142D01*
X215140952Y-108859523D01*
X215179047Y-108935714D01*
X215217142Y-108973809D01*
X215293333Y-109011904D01*
X215369523Y-109011904D01*
X215445714Y-108973809D01*
X215483809Y-108935714D01*
X215521904Y-108859523D01*
X215560000Y-108707142D01*
X215560000Y-108516666D01*
X215521904Y-108364285D01*
X215483809Y-108288095D01*
X215445714Y-108250000D01*
X215369523Y-108211904D01*
X214340952Y-109011904D02*
X214798095Y-109011904D01*
X214569523Y-109011904D02*
X214569523Y-108211904D01*
X214645714Y-108326190D01*
X214721904Y-108402380D01*
X214798095Y-108440476D01*
X213655238Y-108478571D02*
X213655238Y-109011904D01*
X213998095Y-108478571D02*
X213998095Y-108897619D01*
X213960000Y-108973809D01*
X213883809Y-109011904D01*
X213769523Y-109011904D01*
X213693333Y-108973809D01*
X213655238Y-108935714D01*
X203705952Y-87678571D02*
X203705952Y-88211904D01*
X203896428Y-87373809D02*
X204086904Y-87945238D01*
X203591666Y-87945238D01*
X203286904Y-88135714D02*
X203248809Y-88173809D01*
X203286904Y-88211904D01*
X203325000Y-88173809D01*
X203286904Y-88135714D01*
X203286904Y-88211904D01*
X202982142Y-87411904D02*
X202448809Y-87411904D01*
X202791666Y-88211904D01*
X201801190Y-87678571D02*
X201801190Y-88211904D01*
X202144047Y-87678571D02*
X202144047Y-88097619D01*
X202105952Y-88173809D01*
X202029761Y-88211904D01*
X201915476Y-88211904D01*
X201839285Y-88173809D01*
X201801190Y-88135714D01*
X197427123Y-97603316D02*
X197373248Y-97657190D01*
X197346311Y-97738003D01*
X197346311Y-97791877D01*
X197373248Y-97872690D01*
X197454061Y-98007377D01*
X197588748Y-98142064D01*
X197723435Y-98222876D01*
X197804247Y-98249813D01*
X197858122Y-98249813D01*
X197938934Y-98222876D01*
X197992809Y-98169001D01*
X198019746Y-98088189D01*
X198019746Y-98034314D01*
X197992809Y-97953502D01*
X197911996Y-97818815D01*
X197777309Y-97684128D01*
X197642622Y-97603316D01*
X197561810Y-97576378D01*
X197507935Y-97576378D01*
X197427123Y-97603316D01*
X197507935Y-98546125D02*
X197507935Y-98600000D01*
X197561810Y-98599999D01*
X197561810Y-98546125D01*
X197507935Y-98546125D01*
X197561810Y-98599999D01*
X196996125Y-99165685D02*
X197319374Y-98842436D01*
X197157749Y-99004061D02*
X196592064Y-98438375D01*
X196726751Y-98465312D01*
X196834500Y-98465312D01*
X196915312Y-98438375D01*
X196134128Y-99273435D02*
X196511251Y-99650558D01*
X196376564Y-99030998D02*
X196672876Y-99327309D01*
X196699813Y-99408122D01*
X196672876Y-99488934D01*
X196592064Y-99569746D01*
X196511251Y-99596683D01*
X196457377Y-99596683D01*
X191342857Y-119752380D02*
X191914285Y-119752380D01*
X191628571Y-119752380D02*
X191628571Y-118752380D01*
X191723809Y-118895238D01*
X191819047Y-118990476D01*
X191914285Y-119038095D01*
X190723809Y-118752380D02*
X190628571Y-118752380D01*
X190533333Y-118800000D01*
X190485714Y-118847619D01*
X190438095Y-118942857D01*
X190390476Y-119133333D01*
X190390476Y-119371428D01*
X190438095Y-119561904D01*
X190485714Y-119657142D01*
X190533333Y-119704761D01*
X190628571Y-119752380D01*
X190723809Y-119752380D01*
X190819047Y-119704761D01*
X190866666Y-119657142D01*
X190914285Y-119561904D01*
X190961904Y-119371428D01*
X190961904Y-119133333D01*
X190914285Y-118942857D01*
X190866666Y-118847619D01*
X190819047Y-118800000D01*
X190723809Y-118752380D01*
X189533333Y-119085714D02*
X189533333Y-119752380D01*
X189961904Y-119085714D02*
X189961904Y-119609523D01*
X189914285Y-119704761D01*
X189819047Y-119752380D01*
X189676190Y-119752380D01*
X189580952Y-119704761D01*
X189533333Y-119657142D01*
X202877123Y-103103316D02*
X202823248Y-103157190D01*
X202796311Y-103238003D01*
X202796311Y-103291877D01*
X202823248Y-103372690D01*
X202904061Y-103507377D01*
X203038748Y-103642064D01*
X203173435Y-103722876D01*
X203254247Y-103749813D01*
X203308122Y-103749813D01*
X203388934Y-103722876D01*
X203442809Y-103669001D01*
X203469746Y-103588189D01*
X203469746Y-103534314D01*
X203442809Y-103453502D01*
X203361996Y-103318815D01*
X203227309Y-103184128D01*
X203092622Y-103103316D01*
X203011810Y-103076378D01*
X202957935Y-103076378D01*
X202877123Y-103103316D01*
X202957935Y-104046125D02*
X202957935Y-104100000D01*
X203011810Y-104099999D01*
X203011810Y-104046125D01*
X202957935Y-104046125D01*
X203011810Y-104099999D01*
X202446125Y-104665685D02*
X202769374Y-104342436D01*
X202607749Y-104504061D02*
X202042064Y-103938375D01*
X202176751Y-103965312D01*
X202284500Y-103965312D01*
X202365312Y-103938375D01*
X201584128Y-104773435D02*
X201961251Y-105150558D01*
X201826564Y-104530998D02*
X202122876Y-104827309D01*
X202149813Y-104908122D01*
X202122876Y-104988934D01*
X202042064Y-105069746D01*
X201961251Y-105096683D01*
X201907377Y-105096683D01*
X218202380Y-90833333D02*
X218202380Y-90261904D01*
X218202380Y-90547619D02*
X217202380Y-90547619D01*
X217345238Y-90452380D01*
X217440476Y-90357142D01*
X217488095Y-90261904D01*
X217535714Y-91690476D02*
X218202380Y-91690476D01*
X217535714Y-91261904D02*
X218059523Y-91261904D01*
X218154761Y-91309523D01*
X218202380Y-91404761D01*
X218202380Y-91547619D01*
X218154761Y-91642857D01*
X218107142Y-91690476D01*
X218202380Y-78333333D02*
X218202380Y-77761904D01*
X218202380Y-78047619D02*
X217202380Y-78047619D01*
X217345238Y-77952380D01*
X217440476Y-77857142D01*
X217488095Y-77761904D01*
X217535714Y-79190476D02*
X218202380Y-79190476D01*
X217535714Y-78761904D02*
X218059523Y-78761904D01*
X218154761Y-78809523D01*
X218202380Y-78904761D01*
X218202380Y-79047619D01*
X218154761Y-79142857D01*
X218107142Y-79190476D01*
X210296683Y-97577123D02*
X210242809Y-97523248D01*
X210161996Y-97496311D01*
X210108122Y-97496311D01*
X210027309Y-97523248D01*
X209892622Y-97604061D01*
X209757935Y-97738748D01*
X209677123Y-97873435D01*
X209650186Y-97954247D01*
X209650186Y-98008122D01*
X209677123Y-98088934D01*
X209730998Y-98142809D01*
X209811810Y-98169746D01*
X209865685Y-98169746D01*
X209946497Y-98142809D01*
X210081184Y-98061996D01*
X210215871Y-97927309D01*
X210296683Y-97792622D01*
X210323621Y-97711810D01*
X210323621Y-97657935D01*
X210296683Y-97577123D01*
X209353874Y-97657935D02*
X209300000Y-97657935D01*
X209300000Y-97711810D01*
X209353874Y-97711810D01*
X209353874Y-97657935D01*
X209300000Y-97711810D01*
X208734314Y-97146125D02*
X209057563Y-97469374D01*
X208895938Y-97307749D02*
X209461624Y-96742064D01*
X209434687Y-96876751D01*
X209434687Y-96984500D01*
X209461624Y-97065312D01*
X208626564Y-96284128D02*
X208249441Y-96661251D01*
X208869001Y-96526564D02*
X208572690Y-96822876D01*
X208491877Y-96849813D01*
X208411065Y-96822876D01*
X208330253Y-96742064D01*
X208303316Y-96661251D01*
X208303316Y-96607377D01*
X196501428Y-106898095D02*
X196463333Y-106860000D01*
X196387142Y-106821904D01*
X196196666Y-106821904D01*
X196120476Y-106860000D01*
X196082380Y-106898095D01*
X196044285Y-106974285D01*
X196044285Y-107050476D01*
X196082380Y-107164761D01*
X196539523Y-107621904D01*
X196044285Y-107621904D01*
X195739523Y-106898095D02*
X195701428Y-106860000D01*
X195625238Y-106821904D01*
X195434761Y-106821904D01*
X195358571Y-106860000D01*
X195320476Y-106898095D01*
X195282380Y-106974285D01*
X195282380Y-107050476D01*
X195320476Y-107164761D01*
X195777619Y-107621904D01*
X195282380Y-107621904D01*
X194596666Y-107088571D02*
X194596666Y-107621904D01*
X194939523Y-107088571D02*
X194939523Y-107507619D01*
X194901428Y-107583809D01*
X194825238Y-107621904D01*
X194710952Y-107621904D01*
X194634761Y-107583809D01*
X194596666Y-107545714D01*
X201627123Y-92103316D02*
X201573248Y-92157190D01*
X201546311Y-92238003D01*
X201546311Y-92291877D01*
X201573248Y-92372690D01*
X201654061Y-92507377D01*
X201788748Y-92642064D01*
X201923435Y-92722876D01*
X202004247Y-92749813D01*
X202058122Y-92749813D01*
X202138934Y-92722876D01*
X202192809Y-92669001D01*
X202219746Y-92588189D01*
X202219746Y-92534314D01*
X202192809Y-92453502D01*
X202111996Y-92318815D01*
X201977309Y-92184128D01*
X201842622Y-92103316D01*
X201761810Y-92076378D01*
X201707935Y-92076378D01*
X201627123Y-92103316D01*
X201707935Y-93046125D02*
X201707935Y-93100000D01*
X201761810Y-93099999D01*
X201761810Y-93046125D01*
X201707935Y-93046125D01*
X201761810Y-93099999D01*
X201196125Y-93665685D02*
X201519374Y-93342436D01*
X201357749Y-93504061D02*
X200792064Y-92938375D01*
X200926751Y-92965312D01*
X201034500Y-92965312D01*
X201115312Y-92938375D01*
X200334128Y-93773435D02*
X200711251Y-94150558D01*
X200576564Y-93530998D02*
X200872876Y-93827309D01*
X200899813Y-93908122D01*
X200872876Y-93988934D01*
X200792064Y-94069746D01*
X200711251Y-94096683D01*
X200657377Y-94096683D01*
X196227212Y-96761349D02*
X196550461Y-97084598D01*
X196388837Y-96922973D02*
X196954522Y-96357288D01*
X196927585Y-96491975D01*
X196927585Y-96599724D01*
X196954522Y-96680537D01*
X196119462Y-95899352D02*
X195742339Y-96276475D01*
X196361899Y-96141788D02*
X196065588Y-96438100D01*
X195984775Y-96465037D01*
X195903963Y-96438100D01*
X195823151Y-96357288D01*
X195796214Y-96276475D01*
X195796214Y-96222601D01*
X172814285Y-78502380D02*
X172719047Y-78502380D01*
X172623809Y-78550000D01*
X172576190Y-78597619D01*
X172528571Y-78692857D01*
X172480952Y-78883333D01*
X172480952Y-79121428D01*
X172528571Y-79311904D01*
X172576190Y-79407142D01*
X172623809Y-79454761D01*
X172719047Y-79502380D01*
X172814285Y-79502380D01*
X172909523Y-79454761D01*
X172957142Y-79407142D01*
X173004761Y-79311904D01*
X173052380Y-79121428D01*
X173052380Y-78883333D01*
X173004761Y-78692857D01*
X172957142Y-78597619D01*
X172909523Y-78550000D01*
X172814285Y-78502380D01*
X172052380Y-79407142D02*
X172004761Y-79454761D01*
X172052380Y-79502380D01*
X172100000Y-79454761D01*
X172052380Y-79407142D01*
X172052380Y-79502380D01*
X171052380Y-79502380D02*
X171623809Y-79502380D01*
X171338095Y-79502380D02*
X171338095Y-78502380D01*
X171433333Y-78645238D01*
X171528571Y-78740476D01*
X171623809Y-78788095D01*
X170195238Y-78835714D02*
X170195238Y-79502380D01*
X170623809Y-78835714D02*
X170623809Y-79359523D01*
X170576190Y-79454761D01*
X170480952Y-79502380D01*
X170338095Y-79502380D01*
X170242857Y-79454761D01*
X170195238Y-79407142D01*
X163652380Y-77183333D02*
X163652380Y-76611904D01*
X163652380Y-76897619D02*
X162652380Y-76897619D01*
X162795238Y-76802380D01*
X162890476Y-76707142D01*
X162938095Y-76611904D01*
X162985714Y-78040476D02*
X163652380Y-78040476D01*
X162985714Y-77611904D02*
X163509523Y-77611904D01*
X163604761Y-77659523D01*
X163652380Y-77754761D01*
X163652380Y-77897619D01*
X163604761Y-77992857D01*
X163557142Y-78040476D01*
X167216666Y-79522380D02*
X167788095Y-79522380D01*
X167502380Y-79522380D02*
X167502380Y-78522380D01*
X167597619Y-78665238D01*
X167692857Y-78760476D01*
X167788095Y-78808095D01*
X166359523Y-78855714D02*
X166359523Y-79522380D01*
X166788095Y-78855714D02*
X166788095Y-79379523D01*
X166740476Y-79474761D01*
X166645238Y-79522380D01*
X166502380Y-79522380D01*
X166407142Y-79474761D01*
X166359523Y-79427142D01*
X163916666Y-110202380D02*
X164488095Y-110202380D01*
X164202380Y-110202380D02*
X164202380Y-109202380D01*
X164297619Y-109345238D01*
X164392857Y-109440476D01*
X164488095Y-109488095D01*
X163059523Y-109535714D02*
X163059523Y-110202380D01*
X163488095Y-109535714D02*
X163488095Y-110059523D01*
X163440476Y-110154761D01*
X163345238Y-110202380D01*
X163202380Y-110202380D01*
X163107142Y-110154761D01*
X163059523Y-110107142D01*
X165722380Y-101685714D02*
X165722380Y-101780952D01*
X165770000Y-101876190D01*
X165817619Y-101923809D01*
X165912857Y-101971428D01*
X166103333Y-102019047D01*
X166341428Y-102019047D01*
X166531904Y-101971428D01*
X166627142Y-101923809D01*
X166674761Y-101876190D01*
X166722380Y-101780952D01*
X166722380Y-101685714D01*
X166674761Y-101590476D01*
X166627142Y-101542857D01*
X166531904Y-101495238D01*
X166341428Y-101447619D01*
X166103333Y-101447619D01*
X165912857Y-101495238D01*
X165817619Y-101542857D01*
X165770000Y-101590476D01*
X165722380Y-101685714D01*
X166627142Y-102447619D02*
X166674761Y-102495238D01*
X166722380Y-102447619D01*
X166674761Y-102400000D01*
X166627142Y-102447619D01*
X166722380Y-102447619D01*
X166722380Y-103447619D02*
X166722380Y-102876190D01*
X166722380Y-103161904D02*
X165722380Y-103161904D01*
X165865238Y-103066666D01*
X165960476Y-102971428D01*
X166008095Y-102876190D01*
X166055714Y-104304761D02*
X166722380Y-104304761D01*
X166055714Y-103876190D02*
X166579523Y-103876190D01*
X166674761Y-103923809D01*
X166722380Y-104019047D01*
X166722380Y-104161904D01*
X166674761Y-104257142D01*
X166627142Y-104304761D01*
X166702380Y-111335714D02*
X166702380Y-111430952D01*
X166750000Y-111526190D01*
X166797619Y-111573809D01*
X166892857Y-111621428D01*
X167083333Y-111669047D01*
X167321428Y-111669047D01*
X167511904Y-111621428D01*
X167607142Y-111573809D01*
X167654761Y-111526190D01*
X167702380Y-111430952D01*
X167702380Y-111335714D01*
X167654761Y-111240476D01*
X167607142Y-111192857D01*
X167511904Y-111145238D01*
X167321428Y-111097619D01*
X167083333Y-111097619D01*
X166892857Y-111145238D01*
X166797619Y-111192857D01*
X166750000Y-111240476D01*
X166702380Y-111335714D01*
X167607142Y-112097619D02*
X167654761Y-112145238D01*
X167702380Y-112097619D01*
X167654761Y-112050000D01*
X167607142Y-112097619D01*
X167702380Y-112097619D01*
X167702380Y-113097619D02*
X167702380Y-112526190D01*
X167702380Y-112811904D02*
X166702380Y-112811904D01*
X166845238Y-112716666D01*
X166940476Y-112621428D01*
X166988095Y-112526190D01*
X167035714Y-113954761D02*
X167702380Y-113954761D01*
X167035714Y-113526190D02*
X167559523Y-113526190D01*
X167654761Y-113573809D01*
X167702380Y-113669047D01*
X167702380Y-113811904D01*
X167654761Y-113907142D01*
X167607142Y-113954761D01*
X210721428Y-113711904D02*
X210645238Y-113711904D01*
X210569047Y-113750000D01*
X210530952Y-113788095D01*
X210492857Y-113864285D01*
X210454761Y-114016666D01*
X210454761Y-114207142D01*
X210492857Y-114359523D01*
X210530952Y-114435714D01*
X210569047Y-114473809D01*
X210645238Y-114511904D01*
X210721428Y-114511904D01*
X210797619Y-114473809D01*
X210835714Y-114435714D01*
X210873809Y-114359523D01*
X210911904Y-114207142D01*
X210911904Y-114016666D01*
X210873809Y-113864285D01*
X210835714Y-113788095D01*
X210797619Y-113750000D01*
X210721428Y-113711904D01*
X210111904Y-114435714D02*
X210073809Y-114473809D01*
X210111904Y-114511904D01*
X210150000Y-114473809D01*
X210111904Y-114435714D01*
X210111904Y-114511904D01*
X209311904Y-114511904D02*
X209769047Y-114511904D01*
X209540476Y-114511904D02*
X209540476Y-113711904D01*
X209616666Y-113826190D01*
X209692857Y-113902380D01*
X209769047Y-113940476D01*
X208626190Y-113978571D02*
X208626190Y-114511904D01*
X208969047Y-113978571D02*
X208969047Y-114397619D01*
X208930952Y-114473809D01*
X208854761Y-114511904D01*
X208740476Y-114511904D01*
X208664285Y-114473809D01*
X208626190Y-114435714D01*
X222671428Y-114861904D02*
X222595238Y-114861904D01*
X222519047Y-114900000D01*
X222480952Y-114938095D01*
X222442857Y-115014285D01*
X222404761Y-115166666D01*
X222404761Y-115357142D01*
X222442857Y-115509523D01*
X222480952Y-115585714D01*
X222519047Y-115623809D01*
X222595238Y-115661904D01*
X222671428Y-115661904D01*
X222747619Y-115623809D01*
X222785714Y-115585714D01*
X222823809Y-115509523D01*
X222861904Y-115357142D01*
X222861904Y-115166666D01*
X222823809Y-115014285D01*
X222785714Y-114938095D01*
X222747619Y-114900000D01*
X222671428Y-114861904D01*
X222061904Y-115585714D02*
X222023809Y-115623809D01*
X222061904Y-115661904D01*
X222100000Y-115623809D01*
X222061904Y-115585714D01*
X222061904Y-115661904D01*
X221261904Y-115661904D02*
X221719047Y-115661904D01*
X221490476Y-115661904D02*
X221490476Y-114861904D01*
X221566666Y-114976190D01*
X221642857Y-115052380D01*
X221719047Y-115090476D01*
X220576190Y-115128571D02*
X220576190Y-115661904D01*
X220919047Y-115128571D02*
X220919047Y-115547619D01*
X220880952Y-115623809D01*
X220804761Y-115661904D01*
X220690476Y-115661904D01*
X220614285Y-115623809D01*
X220576190Y-115585714D01*
X217061904Y-107478571D02*
X217061904Y-107554761D01*
X217100000Y-107630952D01*
X217138095Y-107669047D01*
X217214285Y-107707142D01*
X217366666Y-107745238D01*
X217557142Y-107745238D01*
X217709523Y-107707142D01*
X217785714Y-107669047D01*
X217823809Y-107630952D01*
X217861904Y-107554761D01*
X217861904Y-107478571D01*
X217823809Y-107402380D01*
X217785714Y-107364285D01*
X217709523Y-107326190D01*
X217557142Y-107288095D01*
X217366666Y-107288095D01*
X217214285Y-107326190D01*
X217138095Y-107364285D01*
X217100000Y-107402380D01*
X217061904Y-107478571D01*
X217785714Y-108088095D02*
X217823809Y-108126190D01*
X217861904Y-108088095D01*
X217823809Y-108050000D01*
X217785714Y-108088095D01*
X217861904Y-108088095D01*
X217861904Y-108888095D02*
X217861904Y-108430952D01*
X217861904Y-108659523D02*
X217061904Y-108659523D01*
X217176190Y-108583333D01*
X217252380Y-108507142D01*
X217290476Y-108430952D01*
X217328571Y-109573809D02*
X217861904Y-109573809D01*
X217328571Y-109230952D02*
X217747619Y-109230952D01*
X217823809Y-109269047D01*
X217861904Y-109345238D01*
X217861904Y-109459523D01*
X217823809Y-109535714D01*
X217785714Y-109573809D01*
X226970238Y-59223809D02*
X226855952Y-59261904D01*
X226665476Y-59261904D01*
X226589285Y-59223809D01*
X226551190Y-59185714D01*
X226513095Y-59109523D01*
X226513095Y-59033333D01*
X226551190Y-58957142D01*
X226589285Y-58919047D01*
X226665476Y-58880952D01*
X226817857Y-58842857D01*
X226894047Y-58804761D01*
X226932142Y-58766666D01*
X226970238Y-58690476D01*
X226970238Y-58614285D01*
X226932142Y-58538095D01*
X226894047Y-58500000D01*
X226817857Y-58461904D01*
X226627380Y-58461904D01*
X226513095Y-58500000D01*
X226246428Y-58461904D02*
X226055952Y-59261904D01*
X225903571Y-58690476D01*
X225751190Y-59261904D01*
X225560714Y-58461904D01*
X225255952Y-59261904D02*
X225255952Y-58461904D01*
X225065476Y-58461904D01*
X224951190Y-58500000D01*
X224875000Y-58576190D01*
X224836904Y-58652380D01*
X224798809Y-58804761D01*
X224798809Y-58919047D01*
X224836904Y-59071428D01*
X224875000Y-59147619D01*
X224951190Y-59223809D01*
X225065476Y-59261904D01*
X225255952Y-59261904D01*
X224646428Y-59338095D02*
X224036904Y-59338095D01*
X223922619Y-58461904D02*
X223427380Y-58461904D01*
X223694047Y-58766666D01*
X223579761Y-58766666D01*
X223503571Y-58804761D01*
X223465476Y-58842857D01*
X223427380Y-58919047D01*
X223427380Y-59109523D01*
X223465476Y-59185714D01*
X223503571Y-59223809D01*
X223579761Y-59261904D01*
X223808333Y-59261904D01*
X223884523Y-59223809D01*
X223922619Y-59185714D01*
X223198809Y-58461904D02*
X222932142Y-59261904D01*
X222665476Y-58461904D01*
X222475000Y-58461904D02*
X221979761Y-58461904D01*
X222246428Y-58766666D01*
X222132142Y-58766666D01*
X222055952Y-58804761D01*
X222017857Y-58842857D01*
X221979761Y-58919047D01*
X221979761Y-59109523D01*
X222017857Y-59185714D01*
X222055952Y-59223809D01*
X222132142Y-59261904D01*
X222360714Y-59261904D01*
X222436904Y-59223809D01*
X222475000Y-59185714D01*
X178761904Y-94552380D02*
X177961904Y-94552380D01*
X178761904Y-95009523D01*
X177961904Y-95009523D01*
X178761904Y-95390476D02*
X177961904Y-95390476D01*
X177961904Y-95695238D01*
X178000000Y-95771428D01*
X178038095Y-95809523D01*
X178114285Y-95847619D01*
X178228571Y-95847619D01*
X178304761Y-95809523D01*
X178342857Y-95771428D01*
X178380952Y-95695238D01*
X178380952Y-95390476D01*
X178761904Y-96190476D02*
X177961904Y-96190476D01*
X178761904Y-96647619D01*
X177961904Y-96647619D01*
X220942857Y-98392857D02*
X220942857Y-98126190D01*
X221361904Y-98126190D02*
X220561904Y-98126190D01*
X220561904Y-98507142D01*
X220942857Y-98811904D02*
X220942857Y-99078571D01*
X221361904Y-99192857D02*
X221361904Y-98811904D01*
X220561904Y-98811904D01*
X220561904Y-99192857D01*
X220561904Y-99421428D02*
X220561904Y-99878571D01*
X221361904Y-99650000D02*
X220561904Y-99650000D01*
X221438095Y-99954761D02*
X221438095Y-100564285D01*
X221361904Y-100754761D02*
X220561904Y-100754761D01*
X220561904Y-101059523D01*
X220600000Y-101135714D01*
X220638095Y-101173809D01*
X220714285Y-101211904D01*
X220828571Y-101211904D01*
X220904761Y-101173809D01*
X220942857Y-101135714D01*
X220980952Y-101059523D01*
X220980952Y-100754761D01*
X202142857Y-112592857D02*
X202142857Y-112326190D01*
X202561904Y-112326190D02*
X201761904Y-112326190D01*
X201761904Y-112707142D01*
X202142857Y-113011904D02*
X202142857Y-113278571D01*
X202561904Y-113392857D02*
X202561904Y-113011904D01*
X201761904Y-113011904D01*
X201761904Y-113392857D01*
X201761904Y-113621428D02*
X201761904Y-114078571D01*
X202561904Y-113850000D02*
X201761904Y-113850000D01*
X202638095Y-114154761D02*
X202638095Y-114764285D01*
X202561904Y-114954761D02*
X201761904Y-114954761D01*
X201761904Y-115259523D01*
X201800000Y-115335714D01*
X201838095Y-115373809D01*
X201914285Y-115411904D01*
X202028571Y-115411904D01*
X202104761Y-115373809D01*
X202142857Y-115335714D01*
X202180952Y-115259523D01*
X202180952Y-114954761D01*
X202142857Y-109042857D02*
X202142857Y-108776190D01*
X202561904Y-108776190D02*
X201761904Y-108776190D01*
X201761904Y-109157142D01*
X202142857Y-109461904D02*
X202142857Y-109728571D01*
X202561904Y-109842857D02*
X202561904Y-109461904D01*
X201761904Y-109461904D01*
X201761904Y-109842857D01*
X201761904Y-110071428D02*
X201761904Y-110528571D01*
X202561904Y-110300000D02*
X201761904Y-110300000D01*
X202638095Y-110604761D02*
X202638095Y-111214285D01*
X202561904Y-111404761D02*
X201761904Y-111404761D01*
X201761904Y-111709523D01*
X201800000Y-111785714D01*
X201838095Y-111823809D01*
X201914285Y-111861904D01*
X202028571Y-111861904D01*
X202104761Y-111823809D01*
X202142857Y-111785714D01*
X202180952Y-111709523D01*
X202180952Y-111404761D01*
X203342622Y-94219187D02*
X203665871Y-93895938D01*
X203504247Y-94057563D02*
X202938561Y-93491877D01*
X203073248Y-93518815D01*
X203180998Y-93518815D01*
X203261810Y-93491877D01*
X202426751Y-94003688D02*
X202372876Y-94057563D01*
X202345938Y-94138375D01*
X202345938Y-94192250D01*
X202372876Y-94273062D01*
X202453688Y-94407749D01*
X202588375Y-94542436D01*
X202723062Y-94623248D01*
X202803874Y-94650186D01*
X202857749Y-94650186D01*
X202938561Y-94623248D01*
X202992436Y-94569374D01*
X203019374Y-94488561D01*
X203019374Y-94434687D01*
X202992436Y-94353874D01*
X202911624Y-94219187D01*
X202776937Y-94084500D01*
X202642250Y-94003688D01*
X202561438Y-93976751D01*
X202507563Y-93976751D01*
X202426751Y-94003688D01*
X202561438Y-95000372D02*
X201995752Y-94434687D01*
X202292064Y-94838748D02*
X202345938Y-95215871D01*
X201968815Y-94838748D02*
X202399813Y-94838748D01*
X225166666Y-84272380D02*
X225738095Y-84272380D01*
X225452380Y-84272380D02*
X225452380Y-83272380D01*
X225547619Y-83415238D01*
X225642857Y-83510476D01*
X225738095Y-83558095D01*
X224785714Y-83367619D02*
X224738095Y-83320000D01*
X224642857Y-83272380D01*
X224404761Y-83272380D01*
X224309523Y-83320000D01*
X224261904Y-83367619D01*
X224214285Y-83462857D01*
X224214285Y-83558095D01*
X224261904Y-83700952D01*
X224833333Y-84272380D01*
X224214285Y-84272380D01*
X223595238Y-83272380D02*
X223500000Y-83272380D01*
X223404761Y-83320000D01*
X223357142Y-83367619D01*
X223309523Y-83462857D01*
X223261904Y-83653333D01*
X223261904Y-83891428D01*
X223309523Y-84081904D01*
X223357142Y-84177142D01*
X223404761Y-84224761D01*
X223500000Y-84272380D01*
X223595238Y-84272380D01*
X223690476Y-84224761D01*
X223738095Y-84177142D01*
X223785714Y-84081904D01*
X223833333Y-83891428D01*
X223833333Y-83653333D01*
X223785714Y-83462857D01*
X223738095Y-83367619D01*
X223690476Y-83320000D01*
X223595238Y-83272380D01*
X178190476Y-100102380D02*
X178761904Y-100102380D01*
X178476190Y-100102380D02*
X178476190Y-99102380D01*
X178571428Y-99245238D01*
X178666666Y-99340476D01*
X178761904Y-99388095D01*
X177571428Y-99102380D02*
X177476190Y-99102380D01*
X177380952Y-99150000D01*
X177333333Y-99197619D01*
X177285714Y-99292857D01*
X177238095Y-99483333D01*
X177238095Y-99721428D01*
X177285714Y-99911904D01*
X177333333Y-100007142D01*
X177380952Y-100054761D01*
X177476190Y-100102380D01*
X177571428Y-100102380D01*
X177666666Y-100054761D01*
X177714285Y-100007142D01*
X177761904Y-99911904D01*
X177809523Y-99721428D01*
X177809523Y-99483333D01*
X177761904Y-99292857D01*
X177714285Y-99197619D01*
X177666666Y-99150000D01*
X177571428Y-99102380D01*
X183526190Y-108511904D02*
X183983333Y-108511904D01*
X183754761Y-108511904D02*
X183754761Y-107711904D01*
X183830952Y-107826190D01*
X183907142Y-107902380D01*
X183983333Y-107940476D01*
X183030952Y-107711904D02*
X182954761Y-107711904D01*
X182878571Y-107750000D01*
X182840476Y-107788095D01*
X182802380Y-107864285D01*
X182764285Y-108016666D01*
X182764285Y-108207142D01*
X182802380Y-108359523D01*
X182840476Y-108435714D01*
X182878571Y-108473809D01*
X182954761Y-108511904D01*
X183030952Y-108511904D01*
X183107142Y-108473809D01*
X183145238Y-108435714D01*
X183183333Y-108359523D01*
X183221428Y-108207142D01*
X183221428Y-108016666D01*
X183183333Y-107864285D01*
X183145238Y-107788095D01*
X183107142Y-107750000D01*
X183030952Y-107711904D01*
X182421428Y-108511904D02*
X182421428Y-107711904D01*
X182345238Y-108207142D02*
X182116666Y-108511904D01*
X182116666Y-107978571D02*
X182421428Y-108283333D01*
X176135714Y-94002380D02*
X175516666Y-94002380D01*
X175850000Y-94383333D01*
X175707142Y-94383333D01*
X175611904Y-94430952D01*
X175564285Y-94478571D01*
X175516666Y-94573809D01*
X175516666Y-94811904D01*
X175564285Y-94907142D01*
X175611904Y-94954761D01*
X175707142Y-95002380D01*
X175992857Y-95002380D01*
X176088095Y-94954761D01*
X176135714Y-94907142D01*
X175183333Y-94002380D02*
X174564285Y-94002380D01*
X174897619Y-94383333D01*
X174754761Y-94383333D01*
X174659523Y-94430952D01*
X174611904Y-94478571D01*
X174564285Y-94573809D01*
X174564285Y-94811904D01*
X174611904Y-94907142D01*
X174659523Y-94954761D01*
X174754761Y-95002380D01*
X175040476Y-95002380D01*
X175135714Y-94954761D01*
X175183333Y-94907142D01*
X173945238Y-94002380D02*
X173850000Y-94002380D01*
X173754761Y-94050000D01*
X173707142Y-94097619D01*
X173659523Y-94192857D01*
X173611904Y-94383333D01*
X173611904Y-94621428D01*
X173659523Y-94811904D01*
X173707142Y-94907142D01*
X173754761Y-94954761D01*
X173850000Y-95002380D01*
X173945238Y-95002380D01*
X174040476Y-94954761D01*
X174088095Y-94907142D01*
X174135714Y-94811904D01*
X174183333Y-94621428D01*
X174183333Y-94383333D01*
X174135714Y-94192857D01*
X174088095Y-94097619D01*
X174040476Y-94050000D01*
X173945238Y-94002380D01*
X177511904Y-79173809D02*
X177511904Y-78716666D01*
X177511904Y-78945238D02*
X176711904Y-78945238D01*
X176826190Y-78869047D01*
X176902380Y-78792857D01*
X176940476Y-78716666D01*
X176711904Y-79669047D02*
X176711904Y-79745238D01*
X176750000Y-79821428D01*
X176788095Y-79859523D01*
X176864285Y-79897619D01*
X177016666Y-79935714D01*
X177207142Y-79935714D01*
X177359523Y-79897619D01*
X177435714Y-79859523D01*
X177473809Y-79821428D01*
X177511904Y-79745238D01*
X177511904Y-79669047D01*
X177473809Y-79592857D01*
X177435714Y-79554761D01*
X177359523Y-79516666D01*
X177207142Y-79478571D01*
X177016666Y-79478571D01*
X176864285Y-79516666D01*
X176788095Y-79554761D01*
X176750000Y-79592857D01*
X176711904Y-79669047D01*
X177511904Y-80278571D02*
X176711904Y-80278571D01*
X177207142Y-80354761D02*
X177511904Y-80583333D01*
X176978571Y-80583333D02*
X177283333Y-80278571D01*
X180061904Y-79173809D02*
X180061904Y-78716666D01*
X180061904Y-78945238D02*
X179261904Y-78945238D01*
X179376190Y-78869047D01*
X179452380Y-78792857D01*
X179490476Y-78716666D01*
X179261904Y-79669047D02*
X179261904Y-79745238D01*
X179300000Y-79821428D01*
X179338095Y-79859523D01*
X179414285Y-79897619D01*
X179566666Y-79935714D01*
X179757142Y-79935714D01*
X179909523Y-79897619D01*
X179985714Y-79859523D01*
X180023809Y-79821428D01*
X180061904Y-79745238D01*
X180061904Y-79669047D01*
X180023809Y-79592857D01*
X179985714Y-79554761D01*
X179909523Y-79516666D01*
X179757142Y-79478571D01*
X179566666Y-79478571D01*
X179414285Y-79516666D01*
X179338095Y-79554761D01*
X179300000Y-79592857D01*
X179261904Y-79669047D01*
X180061904Y-80278571D02*
X179261904Y-80278571D01*
X179757142Y-80354761D02*
X180061904Y-80583333D01*
X179528571Y-80583333D02*
X179833333Y-80278571D01*
X196440476Y-80272380D02*
X197011904Y-80272380D01*
X196726190Y-80272380D02*
X196726190Y-79272380D01*
X196821428Y-79415238D01*
X196916666Y-79510476D01*
X197011904Y-79558095D01*
X195821428Y-79272380D02*
X195726190Y-79272380D01*
X195630952Y-79320000D01*
X195583333Y-79367619D01*
X195535714Y-79462857D01*
X195488095Y-79653333D01*
X195488095Y-79891428D01*
X195535714Y-80081904D01*
X195583333Y-80177142D01*
X195630952Y-80224761D01*
X195726190Y-80272380D01*
X195821428Y-80272380D01*
X195916666Y-80224761D01*
X195964285Y-80177142D01*
X196011904Y-80081904D01*
X196059523Y-79891428D01*
X196059523Y-79653333D01*
X196011904Y-79462857D01*
X195964285Y-79367619D01*
X195916666Y-79320000D01*
X195821428Y-79272380D01*
X187535714Y-80202380D02*
X186916666Y-80202380D01*
X187250000Y-80583333D01*
X187107142Y-80583333D01*
X187011904Y-80630952D01*
X186964285Y-80678571D01*
X186916666Y-80773809D01*
X186916666Y-81011904D01*
X186964285Y-81107142D01*
X187011904Y-81154761D01*
X187107142Y-81202380D01*
X187392857Y-81202380D01*
X187488095Y-81154761D01*
X187535714Y-81107142D01*
X186583333Y-80202380D02*
X185964285Y-80202380D01*
X186297619Y-80583333D01*
X186154761Y-80583333D01*
X186059523Y-80630952D01*
X186011904Y-80678571D01*
X185964285Y-80773809D01*
X185964285Y-81011904D01*
X186011904Y-81107142D01*
X186059523Y-81154761D01*
X186154761Y-81202380D01*
X186440476Y-81202380D01*
X186535714Y-81154761D01*
X186583333Y-81107142D01*
X185345238Y-80202380D02*
X185250000Y-80202380D01*
X185154761Y-80250000D01*
X185107142Y-80297619D01*
X185059523Y-80392857D01*
X185011904Y-80583333D01*
X185011904Y-80821428D01*
X185059523Y-81011904D01*
X185107142Y-81107142D01*
X185154761Y-81154761D01*
X185250000Y-81202380D01*
X185345238Y-81202380D01*
X185440476Y-81154761D01*
X185488095Y-81107142D01*
X185535714Y-81011904D01*
X185583333Y-80821428D01*
X185583333Y-80583333D01*
X185535714Y-80392857D01*
X185488095Y-80297619D01*
X185440476Y-80250000D01*
X185345238Y-80202380D01*
X189726190Y-105861904D02*
X190183333Y-105861904D01*
X189954761Y-105861904D02*
X189954761Y-105061904D01*
X190030952Y-105176190D01*
X190107142Y-105252380D01*
X190183333Y-105290476D01*
X189230952Y-105061904D02*
X189154761Y-105061904D01*
X189078571Y-105100000D01*
X189040476Y-105138095D01*
X189002380Y-105214285D01*
X188964285Y-105366666D01*
X188964285Y-105557142D01*
X189002380Y-105709523D01*
X189040476Y-105785714D01*
X189078571Y-105823809D01*
X189154761Y-105861904D01*
X189230952Y-105861904D01*
X189307142Y-105823809D01*
X189345238Y-105785714D01*
X189383333Y-105709523D01*
X189421428Y-105557142D01*
X189421428Y-105366666D01*
X189383333Y-105214285D01*
X189345238Y-105138095D01*
X189307142Y-105100000D01*
X189230952Y-105061904D01*
X188621428Y-105861904D02*
X188621428Y-105061904D01*
X188545238Y-105557142D02*
X188316666Y-105861904D01*
X188316666Y-105328571D02*
X188621428Y-105633333D01*
X193476190Y-104861904D02*
X193933333Y-104861904D01*
X193704761Y-104861904D02*
X193704761Y-104061904D01*
X193780952Y-104176190D01*
X193857142Y-104252380D01*
X193933333Y-104290476D01*
X192980952Y-104061904D02*
X192904761Y-104061904D01*
X192828571Y-104100000D01*
X192790476Y-104138095D01*
X192752380Y-104214285D01*
X192714285Y-104366666D01*
X192714285Y-104557142D01*
X192752380Y-104709523D01*
X192790476Y-104785714D01*
X192828571Y-104823809D01*
X192904761Y-104861904D01*
X192980952Y-104861904D01*
X193057142Y-104823809D01*
X193095238Y-104785714D01*
X193133333Y-104709523D01*
X193171428Y-104557142D01*
X193171428Y-104366666D01*
X193133333Y-104214285D01*
X193095238Y-104138095D01*
X193057142Y-104100000D01*
X192980952Y-104061904D01*
X192371428Y-104861904D02*
X192371428Y-104061904D01*
X192295238Y-104557142D02*
X192066666Y-104861904D01*
X192066666Y-104328571D02*
X192371428Y-104633333D01*
X222916666Y-112361904D02*
X223373809Y-112361904D01*
X223145238Y-112361904D02*
X223145238Y-111561904D01*
X223221428Y-111676190D01*
X223297619Y-111752380D01*
X223373809Y-111790476D01*
X222573809Y-112285714D02*
X222535714Y-112323809D01*
X222573809Y-112361904D01*
X222611904Y-112323809D01*
X222573809Y-112285714D01*
X222573809Y-112361904D01*
X222230952Y-111638095D02*
X222192857Y-111600000D01*
X222116666Y-111561904D01*
X221926190Y-111561904D01*
X221850000Y-111600000D01*
X221811904Y-111638095D01*
X221773809Y-111714285D01*
X221773809Y-111790476D01*
X221811904Y-111904761D01*
X222269047Y-112361904D01*
X221773809Y-112361904D01*
X221430952Y-112361904D02*
X221430952Y-111561904D01*
X221354761Y-112057142D02*
X221126190Y-112361904D01*
X221126190Y-111828571D02*
X221430952Y-112133333D01*
X222916666Y-69011904D02*
X223373809Y-69011904D01*
X223145238Y-69011904D02*
X223145238Y-68211904D01*
X223221428Y-68326190D01*
X223297619Y-68402380D01*
X223373809Y-68440476D01*
X222573809Y-68935714D02*
X222535714Y-68973809D01*
X222573809Y-69011904D01*
X222611904Y-68973809D01*
X222573809Y-68935714D01*
X222573809Y-69011904D01*
X222230952Y-68288095D02*
X222192857Y-68250000D01*
X222116666Y-68211904D01*
X221926190Y-68211904D01*
X221850000Y-68250000D01*
X221811904Y-68288095D01*
X221773809Y-68364285D01*
X221773809Y-68440476D01*
X221811904Y-68554761D01*
X222269047Y-69011904D01*
X221773809Y-69011904D01*
X221430952Y-69011904D02*
X221430952Y-68211904D01*
X221354761Y-68707142D02*
X221126190Y-69011904D01*
X221126190Y-68478571D02*
X221430952Y-68783333D01*
X172032380Y-112004761D02*
X172032380Y-111433333D01*
X172032380Y-111719047D02*
X171032380Y-111719047D01*
X171175238Y-111623809D01*
X171270476Y-111528571D01*
X171318095Y-111433333D01*
X171032380Y-112623809D02*
X171032380Y-112719047D01*
X171080000Y-112814285D01*
X171127619Y-112861904D01*
X171222857Y-112909523D01*
X171413333Y-112957142D01*
X171651428Y-112957142D01*
X171841904Y-112909523D01*
X171937142Y-112861904D01*
X171984761Y-112814285D01*
X172032380Y-112719047D01*
X172032380Y-112623809D01*
X171984761Y-112528571D01*
X171937142Y-112480952D01*
X171841904Y-112433333D01*
X171651428Y-112385714D01*
X171413333Y-112385714D01*
X171222857Y-112433333D01*
X171127619Y-112480952D01*
X171080000Y-112528571D01*
X171032380Y-112623809D01*
X172032380Y-113385714D02*
X171032380Y-113385714D01*
X171651428Y-113480952D02*
X172032380Y-113766666D01*
X171365714Y-113766666D02*
X171746666Y-113385714D01*
X199376190Y-112861904D02*
X199833333Y-112861904D01*
X199604761Y-112861904D02*
X199604761Y-112061904D01*
X199680952Y-112176190D01*
X199757142Y-112252380D01*
X199833333Y-112290476D01*
X198880952Y-112061904D02*
X198804761Y-112061904D01*
X198728571Y-112100000D01*
X198690476Y-112138095D01*
X198652380Y-112214285D01*
X198614285Y-112366666D01*
X198614285Y-112557142D01*
X198652380Y-112709523D01*
X198690476Y-112785714D01*
X198728571Y-112823809D01*
X198804761Y-112861904D01*
X198880952Y-112861904D01*
X198957142Y-112823809D01*
X198995238Y-112785714D01*
X199033333Y-112709523D01*
X199071428Y-112557142D01*
X199071428Y-112366666D01*
X199033333Y-112214285D01*
X198995238Y-112138095D01*
X198957142Y-112100000D01*
X198880952Y-112061904D01*
X198271428Y-112861904D02*
X198271428Y-112061904D01*
X198195238Y-112557142D02*
X197966666Y-112861904D01*
X197966666Y-112328571D02*
X198271428Y-112633333D01*
X214011904Y-96313809D02*
X214011904Y-95856666D01*
X214011904Y-96085238D02*
X213211904Y-96085238D01*
X213326190Y-96009047D01*
X213402380Y-95932857D01*
X213440476Y-95856666D01*
X213211904Y-96809047D02*
X213211904Y-96885238D01*
X213250000Y-96961428D01*
X213288095Y-96999523D01*
X213364285Y-97037619D01*
X213516666Y-97075714D01*
X213707142Y-97075714D01*
X213859523Y-97037619D01*
X213935714Y-96999523D01*
X213973809Y-96961428D01*
X214011904Y-96885238D01*
X214011904Y-96809047D01*
X213973809Y-96732857D01*
X213935714Y-96694761D01*
X213859523Y-96656666D01*
X213707142Y-96618571D01*
X213516666Y-96618571D01*
X213364285Y-96656666D01*
X213288095Y-96694761D01*
X213250000Y-96732857D01*
X213211904Y-96809047D01*
X214011904Y-97418571D02*
X213211904Y-97418571D01*
X213707142Y-97494761D02*
X214011904Y-97723333D01*
X213478571Y-97723333D02*
X213783333Y-97418571D01*
X217226190Y-98611904D02*
X217683333Y-98611904D01*
X217454761Y-98611904D02*
X217454761Y-97811904D01*
X217530952Y-97926190D01*
X217607142Y-98002380D01*
X217683333Y-98040476D01*
X216730952Y-97811904D02*
X216654761Y-97811904D01*
X216578571Y-97850000D01*
X216540476Y-97888095D01*
X216502380Y-97964285D01*
X216464285Y-98116666D01*
X216464285Y-98307142D01*
X216502380Y-98459523D01*
X216540476Y-98535714D01*
X216578571Y-98573809D01*
X216654761Y-98611904D01*
X216730952Y-98611904D01*
X216807142Y-98573809D01*
X216845238Y-98535714D01*
X216883333Y-98459523D01*
X216921428Y-98307142D01*
X216921428Y-98116666D01*
X216883333Y-97964285D01*
X216845238Y-97888095D01*
X216807142Y-97850000D01*
X216730952Y-97811904D01*
X216121428Y-98611904D02*
X216121428Y-97811904D01*
X216045238Y-98307142D02*
X215816666Y-98611904D01*
X215816666Y-98078571D02*
X216121428Y-98383333D01*
X191535714Y-85022380D02*
X190916666Y-85022380D01*
X191250000Y-85403333D01*
X191107142Y-85403333D01*
X191011904Y-85450952D01*
X190964285Y-85498571D01*
X190916666Y-85593809D01*
X190916666Y-85831904D01*
X190964285Y-85927142D01*
X191011904Y-85974761D01*
X191107142Y-86022380D01*
X191392857Y-86022380D01*
X191488095Y-85974761D01*
X191535714Y-85927142D01*
X190583333Y-85022380D02*
X189964285Y-85022380D01*
X190297619Y-85403333D01*
X190154761Y-85403333D01*
X190059523Y-85450952D01*
X190011904Y-85498571D01*
X189964285Y-85593809D01*
X189964285Y-85831904D01*
X190011904Y-85927142D01*
X190059523Y-85974761D01*
X190154761Y-86022380D01*
X190440476Y-86022380D01*
X190535714Y-85974761D01*
X190583333Y-85927142D01*
X189345238Y-85022380D02*
X189250000Y-85022380D01*
X189154761Y-85070000D01*
X189107142Y-85117619D01*
X189059523Y-85212857D01*
X189011904Y-85403333D01*
X189011904Y-85641428D01*
X189059523Y-85831904D01*
X189107142Y-85927142D01*
X189154761Y-85974761D01*
X189250000Y-86022380D01*
X189345238Y-86022380D01*
X189440476Y-85974761D01*
X189488095Y-85927142D01*
X189535714Y-85831904D01*
X189583333Y-85641428D01*
X189583333Y-85403333D01*
X189535714Y-85212857D01*
X189488095Y-85117619D01*
X189440476Y-85070000D01*
X189345238Y-85022380D01*
X171785714Y-119882380D02*
X171166666Y-119882380D01*
X171500000Y-120263333D01*
X171357142Y-120263333D01*
X171261904Y-120310952D01*
X171214285Y-120358571D01*
X171166666Y-120453809D01*
X171166666Y-120691904D01*
X171214285Y-120787142D01*
X171261904Y-120834761D01*
X171357142Y-120882380D01*
X171642857Y-120882380D01*
X171738095Y-120834761D01*
X171785714Y-120787142D01*
X170833333Y-119882380D02*
X170214285Y-119882380D01*
X170547619Y-120263333D01*
X170404761Y-120263333D01*
X170309523Y-120310952D01*
X170261904Y-120358571D01*
X170214285Y-120453809D01*
X170214285Y-120691904D01*
X170261904Y-120787142D01*
X170309523Y-120834761D01*
X170404761Y-120882380D01*
X170690476Y-120882380D01*
X170785714Y-120834761D01*
X170833333Y-120787142D01*
X169595238Y-119882380D02*
X169500000Y-119882380D01*
X169404761Y-119930000D01*
X169357142Y-119977619D01*
X169309523Y-120072857D01*
X169261904Y-120263333D01*
X169261904Y-120501428D01*
X169309523Y-120691904D01*
X169357142Y-120787142D01*
X169404761Y-120834761D01*
X169500000Y-120882380D01*
X169595238Y-120882380D01*
X169690476Y-120834761D01*
X169738095Y-120787142D01*
X169785714Y-120691904D01*
X169833333Y-120501428D01*
X169833333Y-120263333D01*
X169785714Y-120072857D01*
X169738095Y-119977619D01*
X169690476Y-119930000D01*
X169595238Y-119882380D01*
X171785714Y-116882380D02*
X171166666Y-116882380D01*
X171500000Y-117263333D01*
X171357142Y-117263333D01*
X171261904Y-117310952D01*
X171214285Y-117358571D01*
X171166666Y-117453809D01*
X171166666Y-117691904D01*
X171214285Y-117787142D01*
X171261904Y-117834761D01*
X171357142Y-117882380D01*
X171642857Y-117882380D01*
X171738095Y-117834761D01*
X171785714Y-117787142D01*
X170833333Y-116882380D02*
X170214285Y-116882380D01*
X170547619Y-117263333D01*
X170404761Y-117263333D01*
X170309523Y-117310952D01*
X170261904Y-117358571D01*
X170214285Y-117453809D01*
X170214285Y-117691904D01*
X170261904Y-117787142D01*
X170309523Y-117834761D01*
X170404761Y-117882380D01*
X170690476Y-117882380D01*
X170785714Y-117834761D01*
X170833333Y-117787142D01*
X169595238Y-116882380D02*
X169500000Y-116882380D01*
X169404761Y-116930000D01*
X169357142Y-116977619D01*
X169309523Y-117072857D01*
X169261904Y-117263333D01*
X169261904Y-117501428D01*
X169309523Y-117691904D01*
X169357142Y-117787142D01*
X169404761Y-117834761D01*
X169500000Y-117882380D01*
X169595238Y-117882380D01*
X169690476Y-117834761D01*
X169738095Y-117787142D01*
X169785714Y-117691904D01*
X169833333Y-117501428D01*
X169833333Y-117263333D01*
X169785714Y-117072857D01*
X169738095Y-116977619D01*
X169690476Y-116930000D01*
X169595238Y-116882380D01*
X211142857Y-82052380D02*
X211142857Y-81052380D01*
X210809523Y-81766666D01*
X210476190Y-81052380D01*
X210476190Y-82052380D01*
X210047619Y-81766666D02*
X209571428Y-81766666D01*
X210142857Y-82052380D02*
X209809523Y-81052380D01*
X209476190Y-82052380D01*
X209238095Y-81052380D02*
X208571428Y-82052380D01*
X208571428Y-81052380D02*
X209238095Y-82052380D01*
X208285714Y-81052380D02*
X207666666Y-81052380D01*
X208000000Y-81433333D01*
X207857142Y-81433333D01*
X207761904Y-81480952D01*
X207714285Y-81528571D01*
X207666666Y-81623809D01*
X207666666Y-81861904D01*
X207714285Y-81957142D01*
X207761904Y-82004761D01*
X207857142Y-82052380D01*
X208142857Y-82052380D01*
X208238095Y-82004761D01*
X208285714Y-81957142D01*
X207047619Y-81052380D02*
X206952380Y-81052380D01*
X206857142Y-81100000D01*
X206809523Y-81147619D01*
X206761904Y-81242857D01*
X206714285Y-81433333D01*
X206714285Y-81671428D01*
X206761904Y-81861904D01*
X206809523Y-81957142D01*
X206857142Y-82004761D01*
X206952380Y-82052380D01*
X207047619Y-82052380D01*
X207142857Y-82004761D01*
X207190476Y-81957142D01*
X207238095Y-81861904D01*
X207285714Y-81671428D01*
X207285714Y-81433333D01*
X207238095Y-81242857D01*
X207190476Y-81147619D01*
X207142857Y-81100000D01*
X207047619Y-81052380D01*
X205809523Y-81052380D02*
X206285714Y-81052380D01*
X206333333Y-81528571D01*
X206285714Y-81480952D01*
X206190476Y-81433333D01*
X205952380Y-81433333D01*
X205857142Y-81480952D01*
X205809523Y-81528571D01*
X205761904Y-81623809D01*
X205761904Y-81861904D01*
X205809523Y-81957142D01*
X205857142Y-82004761D01*
X205952380Y-82052380D01*
X206190476Y-82052380D01*
X206285714Y-82004761D01*
X206333333Y-81957142D01*
X204809523Y-82052380D02*
X205380952Y-82052380D01*
X205095238Y-82052380D02*
X205095238Y-81052380D01*
X205190476Y-81195238D01*
X205285714Y-81290476D01*
X205380952Y-81338095D01*
X211142857Y-71852380D02*
X211142857Y-70852380D01*
X210809523Y-71566666D01*
X210476190Y-70852380D01*
X210476190Y-71852380D01*
X210047619Y-71566666D02*
X209571428Y-71566666D01*
X210142857Y-71852380D02*
X209809523Y-70852380D01*
X209476190Y-71852380D01*
X209238095Y-70852380D02*
X208571428Y-71852380D01*
X208571428Y-70852380D02*
X209238095Y-71852380D01*
X208285714Y-70852380D02*
X207666666Y-70852380D01*
X208000000Y-71233333D01*
X207857142Y-71233333D01*
X207761904Y-71280952D01*
X207714285Y-71328571D01*
X207666666Y-71423809D01*
X207666666Y-71661904D01*
X207714285Y-71757142D01*
X207761904Y-71804761D01*
X207857142Y-71852380D01*
X208142857Y-71852380D01*
X208238095Y-71804761D01*
X208285714Y-71757142D01*
X207047619Y-70852380D02*
X206952380Y-70852380D01*
X206857142Y-70900000D01*
X206809523Y-70947619D01*
X206761904Y-71042857D01*
X206714285Y-71233333D01*
X206714285Y-71471428D01*
X206761904Y-71661904D01*
X206809523Y-71757142D01*
X206857142Y-71804761D01*
X206952380Y-71852380D01*
X207047619Y-71852380D01*
X207142857Y-71804761D01*
X207190476Y-71757142D01*
X207238095Y-71661904D01*
X207285714Y-71471428D01*
X207285714Y-71233333D01*
X207238095Y-71042857D01*
X207190476Y-70947619D01*
X207142857Y-70900000D01*
X207047619Y-70852380D01*
X205809523Y-70852380D02*
X206285714Y-70852380D01*
X206333333Y-71328571D01*
X206285714Y-71280952D01*
X206190476Y-71233333D01*
X205952380Y-71233333D01*
X205857142Y-71280952D01*
X205809523Y-71328571D01*
X205761904Y-71423809D01*
X205761904Y-71661904D01*
X205809523Y-71757142D01*
X205857142Y-71804761D01*
X205952380Y-71852380D01*
X206190476Y-71852380D01*
X206285714Y-71804761D01*
X206333333Y-71757142D01*
X204809523Y-71852380D02*
X205380952Y-71852380D01*
X205095238Y-71852380D02*
X205095238Y-70852380D01*
X205190476Y-70995238D01*
X205285714Y-71090476D01*
X205380952Y-71138095D01*
X194714285Y-112533333D02*
X194333333Y-112533333D01*
X194790476Y-112761904D02*
X194523809Y-111961904D01*
X194257142Y-112761904D01*
X194066666Y-111961904D02*
X193533333Y-111961904D01*
X194066666Y-112761904D01*
X193533333Y-112761904D01*
X192809523Y-112761904D02*
X193266666Y-112761904D01*
X193038095Y-112761904D02*
X193038095Y-111961904D01*
X193114285Y-112076190D01*
X193190476Y-112152380D01*
X193266666Y-112190476D01*
X192314285Y-111961904D02*
X192238095Y-111961904D01*
X192161904Y-112000000D01*
X192123809Y-112038095D01*
X192085714Y-112114285D01*
X192047619Y-112266666D01*
X192047619Y-112457142D01*
X192085714Y-112609523D01*
X192123809Y-112685714D01*
X192161904Y-112723809D01*
X192238095Y-112761904D01*
X192314285Y-112761904D01*
X192390476Y-112723809D01*
X192428571Y-112685714D01*
X192466666Y-112609523D01*
X192504761Y-112457142D01*
X192504761Y-112266666D01*
X192466666Y-112114285D01*
X192428571Y-112038095D01*
X192390476Y-112000000D01*
X192314285Y-111961904D01*
X191590476Y-112304761D02*
X191666666Y-112266666D01*
X191704761Y-112228571D01*
X191742857Y-112152380D01*
X191742857Y-112114285D01*
X191704761Y-112038095D01*
X191666666Y-112000000D01*
X191590476Y-111961904D01*
X191438095Y-111961904D01*
X191361904Y-112000000D01*
X191323809Y-112038095D01*
X191285714Y-112114285D01*
X191285714Y-112152380D01*
X191323809Y-112228571D01*
X191361904Y-112266666D01*
X191438095Y-112304761D01*
X191590476Y-112304761D01*
X191666666Y-112342857D01*
X191704761Y-112380952D01*
X191742857Y-112457142D01*
X191742857Y-112609523D01*
X191704761Y-112685714D01*
X191666666Y-112723809D01*
X191590476Y-112761904D01*
X191438095Y-112761904D01*
X191361904Y-112723809D01*
X191323809Y-112685714D01*
X191285714Y-112609523D01*
X191285714Y-112457142D01*
X191323809Y-112380952D01*
X191361904Y-112342857D01*
X191438095Y-112304761D01*
X190600000Y-111961904D02*
X190752380Y-111961904D01*
X190828571Y-112000000D01*
X190866666Y-112038095D01*
X190942857Y-112152380D01*
X190980952Y-112304761D01*
X190980952Y-112609523D01*
X190942857Y-112685714D01*
X190904761Y-112723809D01*
X190828571Y-112761904D01*
X190676190Y-112761904D01*
X190600000Y-112723809D01*
X190561904Y-112685714D01*
X190523809Y-112609523D01*
X190523809Y-112419047D01*
X190561904Y-112342857D01*
X190600000Y-112304761D01*
X190676190Y-112266666D01*
X190828571Y-112266666D01*
X190904761Y-112304761D01*
X190942857Y-112342857D01*
X190980952Y-112419047D01*
X190180952Y-112761904D02*
X190180952Y-111961904D01*
X190180952Y-112342857D02*
X189723809Y-112342857D01*
X189723809Y-112761904D02*
X189723809Y-111961904D01*
X216045238Y-62952380D02*
X215473809Y-62952380D01*
X215759523Y-63952380D02*
X215759523Y-62952380D01*
X214807142Y-63428571D02*
X214664285Y-63476190D01*
X214616666Y-63523809D01*
X214569047Y-63619047D01*
X214569047Y-63761904D01*
X214616666Y-63857142D01*
X214664285Y-63904761D01*
X214759523Y-63952380D01*
X215140476Y-63952380D01*
X215140476Y-62952380D01*
X214807142Y-62952380D01*
X214711904Y-63000000D01*
X214664285Y-63047619D01*
X214616666Y-63142857D01*
X214616666Y-63238095D01*
X214664285Y-63333333D01*
X214711904Y-63380952D01*
X214807142Y-63428571D01*
X215140476Y-63428571D01*
X214140476Y-63952380D02*
X214140476Y-62952380D01*
X213902380Y-62952380D01*
X213759523Y-63000000D01*
X213664285Y-63095238D01*
X213616666Y-63190476D01*
X213569047Y-63380952D01*
X213569047Y-63523809D01*
X213616666Y-63714285D01*
X213664285Y-63809523D01*
X213759523Y-63904761D01*
X213902380Y-63952380D01*
X214140476Y-63952380D01*
X212711904Y-62952380D02*
X212902380Y-62952380D01*
X212997619Y-63000000D01*
X213045238Y-63047619D01*
X213140476Y-63190476D01*
X213188095Y-63380952D01*
X213188095Y-63761904D01*
X213140476Y-63857142D01*
X213092857Y-63904761D01*
X212997619Y-63952380D01*
X212807142Y-63952380D01*
X212711904Y-63904761D01*
X212664285Y-63857142D01*
X212616666Y-63761904D01*
X212616666Y-63523809D01*
X212664285Y-63428571D01*
X212711904Y-63380952D01*
X212807142Y-63333333D01*
X212997619Y-63333333D01*
X213092857Y-63380952D01*
X213140476Y-63428571D01*
X213188095Y-63523809D01*
X212235714Y-63047619D02*
X212188095Y-63000000D01*
X212092857Y-62952380D01*
X211854761Y-62952380D01*
X211759523Y-63000000D01*
X211711904Y-63047619D01*
X211664285Y-63142857D01*
X211664285Y-63238095D01*
X211711904Y-63380952D01*
X212283333Y-63952380D01*
X211664285Y-63952380D01*
X211045238Y-62952380D02*
X210950000Y-62952380D01*
X210854761Y-63000000D01*
X210807142Y-63047619D01*
X210759523Y-63142857D01*
X210711904Y-63333333D01*
X210711904Y-63571428D01*
X210759523Y-63761904D01*
X210807142Y-63857142D01*
X210854761Y-63904761D01*
X210950000Y-63952380D01*
X211045238Y-63952380D01*
X211140476Y-63904761D01*
X211188095Y-63857142D01*
X211235714Y-63761904D01*
X211283333Y-63571428D01*
X211283333Y-63333333D01*
X211235714Y-63142857D01*
X211188095Y-63047619D01*
X211140476Y-63000000D01*
X211045238Y-62952380D01*
X210140476Y-63380952D02*
X210235714Y-63333333D01*
X210283333Y-63285714D01*
X210330952Y-63190476D01*
X210330952Y-63142857D01*
X210283333Y-63047619D01*
X210235714Y-63000000D01*
X210140476Y-62952380D01*
X209950000Y-62952380D01*
X209854761Y-63000000D01*
X209807142Y-63047619D01*
X209759523Y-63142857D01*
X209759523Y-63190476D01*
X209807142Y-63285714D01*
X209854761Y-63333333D01*
X209950000Y-63380952D01*
X210140476Y-63380952D01*
X210235714Y-63428571D01*
X210283333Y-63476190D01*
X210330952Y-63571428D01*
X210330952Y-63761904D01*
X210283333Y-63857142D01*
X210235714Y-63904761D01*
X210140476Y-63952380D01*
X209950000Y-63952380D01*
X209854761Y-63904761D01*
X209807142Y-63857142D01*
X209759523Y-63761904D01*
X209759523Y-63571428D01*
X209807142Y-63476190D01*
X209854761Y-63428571D01*
X209950000Y-63380952D01*
X209426190Y-62952380D02*
X208807142Y-62952380D01*
X209140476Y-63333333D01*
X208997619Y-63333333D01*
X208902380Y-63380952D01*
X208854761Y-63428571D01*
X208807142Y-63523809D01*
X208807142Y-63761904D01*
X208854761Y-63857142D01*
X208902380Y-63904761D01*
X208997619Y-63952380D01*
X209283333Y-63952380D01*
X209378571Y-63904761D01*
X209426190Y-63857142D01*
X208426190Y-63666666D02*
X207950000Y-63666666D01*
X208521428Y-63952380D02*
X208188095Y-62952380D01*
X207854761Y-63952380D01*
X166535714Y-114802380D02*
X166535714Y-113802380D01*
X166154761Y-113802380D01*
X166059523Y-113850000D01*
X166011904Y-113897619D01*
X165964285Y-113992857D01*
X165964285Y-114135714D01*
X166011904Y-114230952D01*
X166059523Y-114278571D01*
X166154761Y-114326190D01*
X166535714Y-114326190D01*
X165535714Y-114802380D02*
X165535714Y-113802380D01*
X164488095Y-114707142D02*
X164535714Y-114754761D01*
X164678571Y-114802380D01*
X164773809Y-114802380D01*
X164916666Y-114754761D01*
X165011904Y-114659523D01*
X165059523Y-114564285D01*
X165107142Y-114373809D01*
X165107142Y-114230952D01*
X165059523Y-114040476D01*
X165011904Y-113945238D01*
X164916666Y-113850000D01*
X164773809Y-113802380D01*
X164678571Y-113802380D01*
X164535714Y-113850000D01*
X164488095Y-113897619D01*
X164059523Y-114802380D02*
X164059523Y-113802380D01*
X163488095Y-114802380D02*
X163916666Y-114230952D01*
X163488095Y-113802380D02*
X164059523Y-114373809D01*
X163059523Y-114802380D02*
X163059523Y-114135714D01*
X163059523Y-113802380D02*
X163107142Y-113850000D01*
X163059523Y-113897619D01*
X163011904Y-113850000D01*
X163059523Y-113802380D01*
X163059523Y-113897619D01*
X162726190Y-114135714D02*
X162345238Y-114135714D01*
X162583333Y-113802380D02*
X162583333Y-114659523D01*
X162535714Y-114754761D01*
X162440476Y-114802380D01*
X162345238Y-114802380D01*
X162250000Y-114897619D02*
X161488095Y-114897619D01*
X161345238Y-113802380D02*
X160726190Y-113802380D01*
X161059523Y-114183333D01*
X160916666Y-114183333D01*
X160821428Y-114230952D01*
X160773809Y-114278571D01*
X160726190Y-114373809D01*
X160726190Y-114611904D01*
X160773809Y-114707142D01*
X160821428Y-114754761D01*
X160916666Y-114802380D01*
X161202380Y-114802380D01*
X161297619Y-114754761D01*
X161345238Y-114707142D01*
X160440476Y-113802380D02*
X160107142Y-114802380D01*
X159773809Y-113802380D01*
X159535714Y-113802380D02*
X158916666Y-113802380D01*
X159250000Y-114183333D01*
X159107142Y-114183333D01*
X159011904Y-114230952D01*
X158964285Y-114278571D01*
X158916666Y-114373809D01*
X158916666Y-114611904D01*
X158964285Y-114707142D01*
X159011904Y-114754761D01*
X159107142Y-114802380D01*
X159392857Y-114802380D01*
X159488095Y-114754761D01*
X159535714Y-114707142D01*
X203202380Y-58435714D02*
X203202380Y-58530952D01*
X203250000Y-58626190D01*
X203297619Y-58673809D01*
X203392857Y-58721428D01*
X203583333Y-58769047D01*
X203821428Y-58769047D01*
X204011904Y-58721428D01*
X204107142Y-58673809D01*
X204154761Y-58626190D01*
X204202380Y-58530952D01*
X204202380Y-58435714D01*
X204154761Y-58340476D01*
X204107142Y-58292857D01*
X204011904Y-58245238D01*
X203821428Y-58197619D01*
X203583333Y-58197619D01*
X203392857Y-58245238D01*
X203297619Y-58292857D01*
X203250000Y-58340476D01*
X203202380Y-58435714D01*
X204107142Y-59197619D02*
X204154761Y-59245238D01*
X204202380Y-59197619D01*
X204154761Y-59150000D01*
X204107142Y-59197619D01*
X204202380Y-59197619D01*
X204202380Y-60197619D02*
X204202380Y-59626190D01*
X204202380Y-59911904D02*
X203202380Y-59911904D01*
X203345238Y-59816666D01*
X203440476Y-59721428D01*
X203488095Y-59626190D01*
X203535714Y-61054761D02*
X204202380Y-61054761D01*
X203535714Y-60626190D02*
X204059523Y-60626190D01*
X204154761Y-60673809D01*
X204202380Y-60769047D01*
X204202380Y-60911904D01*
X204154761Y-61007142D01*
X204107142Y-61054761D01*
M02*
