M48
; DRILL file {KiCad (5.1.2)-1} date 2019/06/25 18:08:32
; FORMAT={-:-/ absolute / metric / decimal}
; #@! TF.CreationDate,2019-06-25T18:08:32+09:00
; #@! TF.GenerationSoftware,Kicad,Pcbnew,(5.1.2)-1
FMAT,2
METRIC
T1C0.900
T2C1.000
T3C2.000
T4C3.000
T5C4.500
%
G90
G05
T1
X222.75Y-69.75
X225.29Y-69.75
X222.75Y-74.0
X225.29Y-74.0
X238.46Y-64.0
X241.0Y-64.0
T2
X262.5Y-57.75
X262.5Y-60.25
X246.75Y-58.5
X249.25Y-58.5
X254.25Y-58.5
X256.75Y-58.5
X239.25Y-58.5
X241.75Y-58.5
T3
X243.0Y-68.0
X269.0Y-68.0
T4
X218.5Y-58.25
X218.5Y-75.25
X269.0Y-58.25
X269.0Y-75.25
X269.0Y-75.25
T5
X225.0Y-62.25
X232.0Y-62.25
T0
M30
