M48
; DRILL file {KiCad (5.1.2)-1} date 2019/06/26 12:30:45
; FORMAT={-:-/ absolute / inch / decimal}
; #@! TF.CreationDate,2019-06-26T12:30:45+09:00
; #@! TF.GenerationSoftware,Kicad,Pcbnew,(5.1.2)-1
FMAT,2
INCH
T1C0.0315
T2C0.0354
T3C0.0394
T4C0.0551
T5C0.0787
T6C0.1181
T7C0.1772
%
G90
G05
T1
X4.626Y-3.2874
X4.626Y-3.4843
X5.7874Y-4.3701
X5.7874Y-4.5669
T2
X3.3449Y-3.5138
X3.4449Y-3.5138
X3.3465Y-4.0256
X3.4465Y-4.0256
X5.4232Y-4.4685
X5.5232Y-4.4685
X3.878Y-4.6063
X3.978Y-4.6063
X4.2224Y-3.2185
X4.2224Y-3.3185
T3
X4.1732Y-4.6063
X4.2717Y-4.6063
X4.4685Y-4.6063
X4.5669Y-4.6063
X3.7303Y-4.5457
X3.7303Y-4.6457
X6.1417Y-3.75
X6.1417Y-3.8484
X6.1417Y-4.0453
X6.1417Y-4.1437
X6.1417Y-3.4547
X6.1417Y-3.5531
X3.9173Y-3.3858
X3.9173Y-3.4843
X4.1535Y-4.1929
X4.3189Y-4.1929
X6.1417Y-4.3406
X6.1417Y-4.439
T4
X4.9543Y-3.35
X4.9543Y-3.65
X4.9543Y-3.85
X5.7543Y-3.35
X5.7543Y-3.75
X5.7543Y-4.15
T5
X3.9173Y-4.1929
X4.0079Y-3.7165
X4.4409Y-3.7165
X4.5472Y-4.2795
T6
X3.2185Y-3.2283
X3.2185Y-4.6654
X6.1614Y-3.2283
X6.1614Y-4.6654
T7
X3.3071Y-4.2717
X3.5827Y-4.2717
X3.3071Y-3.7795
X3.5827Y-3.7795
T0
M30
