M48
; DRILL file {KiCad (5.1.2)-1} date 2019/06/09 18:11:39
; FORMAT={-:-/ absolute / inch / decimal}
; #@! TF.CreationDate,2019-06-09T18:11:39+09:00
; #@! TF.GenerationSoftware,Kicad,Pcbnew,(5.1.2)-1
; #@! TF.FileFunction,Plated,1,2,PTH
FMAT,2
INCH
T1C0.0118
T2C0.0157
T3C0.0197
T4C0.0276
T5C0.0300
T6C0.0315
T7C0.0394
T8C0.0551
T9C0.0787
T10C0.1181
T11C0.1260
T12C0.1772
T13C0.2559
%
G90
G05
T1
X4.1654Y-3.6864
X4.1654Y-3.8734
X4.1944Y-3.9862
X4.2406Y-3.1102
X4.2629Y-3.4804
X4.2702Y-3.6909
X4.3012Y-3.5842
X4.3027Y-2.7067
X4.3189Y-3.9717
X4.3331Y-2.7949
X4.439Y-3.5842
X4.4583Y-3.9996
X4.4984Y-3.8469
X4.5655Y-3.3169
X4.6471Y-3.4252
X4.6965Y-3.1988
X4.7075Y-3.1709
X4.7399Y-3.7555
X4.8342Y-3.248
X4.8342Y-3.5728
X4.8637Y-3.6319
X4.8906Y-3.1362
X4.9198Y-3.2579
X5.0078Y-3.1433
X5.0321Y-3.7113
X5.053Y-3.6879
X5.0671Y-3.6424
X5.0697Y-3.4028
X5.0773Y-3.4449
X5.0825Y-3.6652
X5.0835Y-3.2488
X5.0886Y-3.8174
X5.1287Y-2.502
X5.1378Y-3.8174
X5.1405Y-3.3379
X5.1665Y-2.4886
X5.187Y-3.8174
X5.2374Y-3.8206
X5.2816Y-3.744
X5.3043Y-3.7988
X5.3165Y-2.2453
X5.3406Y-2.2213
X5.4067Y-2.7783
X5.4067Y-3.076
X5.4303Y-3.0614
X5.4331Y-2.763
X5.6299Y-3.7682
T2
X1.811Y-2.2736
X1.811Y-2.3327
X1.811Y-2.3917
X1.811Y-2.4508
X1.811Y-2.5098
X1.811Y-2.5689
X1.811Y-2.628
X1.811Y-2.687
X1.811Y-2.7461
X1.811Y-2.8051
X1.811Y-2.8642
X1.811Y-2.9232
X1.811Y-2.9823
X1.811Y-3.0413
X1.811Y-3.1004
X1.811Y-3.1594
X1.811Y-3.2185
X1.811Y-3.2776
X1.811Y-3.3366
X1.811Y-3.3957
X1.8406Y-2.2441
X1.8406Y-2.3031
X1.8406Y-2.3622
X1.8406Y-2.4213
X1.8406Y-2.4803
X1.8406Y-2.5394
X1.8406Y-2.5984
X1.8406Y-2.6575
X1.8406Y-2.7165
X1.8406Y-2.7756
X1.8406Y-2.8346
X1.8406Y-2.8937
X1.8406Y-2.9528
X1.8406Y-3.0118
X1.8406Y-3.0709
X1.8406Y-3.1299
X1.8406Y-3.189
X1.8406Y-3.248
X1.8406Y-3.3071
X1.8406Y-3.3661
X1.8701Y-2.2146
X1.8701Y-2.2736
X1.8701Y-2.3327
X1.8701Y-2.3917
X1.8701Y-2.4508
X1.8701Y-2.5098
X1.8701Y-2.5689
X1.8701Y-2.628
X1.8701Y-2.687
X1.8701Y-2.7461
X1.8701Y-2.8051
X1.8701Y-2.8642
X1.8701Y-2.9232
X1.8701Y-2.9823
X1.8701Y-3.0413
X1.8701Y-3.1004
X1.8701Y-3.1594
X1.8701Y-3.2185
X1.8701Y-3.2776
X1.8701Y-3.3366
X1.8701Y-3.3957
X1.8996Y-2.2441
X1.8996Y-2.3031
X1.8996Y-2.3622
X1.8996Y-2.4213
X1.8996Y-2.6575
X1.8996Y-2.7165
X1.8996Y-2.7756
X1.8996Y-2.8346
X1.8996Y-2.8937
X1.8996Y-3.0709
X1.8996Y-3.1299
X1.8996Y-3.189
X1.8996Y-3.248
X1.8996Y-3.3071
X1.8996Y-3.3661
X1.9291Y-2.2146
X1.9291Y-2.2736
X1.9291Y-2.3327
X1.9291Y-2.3917
X1.9291Y-2.687
X1.9291Y-2.7461
X1.9291Y-2.8051
X1.9291Y-3.1004
X1.9291Y-3.1594
X1.9291Y-3.2185
X1.9291Y-3.2776
X1.9587Y-2.2441
X1.9587Y-2.3031
X1.9587Y-2.3622
X1.9587Y-2.4213
X1.9587Y-2.6575
X1.9587Y-2.7165
X1.9587Y-2.7756
X1.9587Y-2.8346
X1.9587Y-3.0709
X1.9587Y-3.1299
X1.9587Y-3.189
X1.9587Y-3.248
X1.9882Y-2.2146
X1.9882Y-2.2736
X1.9882Y-2.3327
X1.9882Y-2.3917
X1.9882Y-2.687
X1.9882Y-2.7461
X1.9882Y-2.8051
X1.9882Y-3.1004
X1.9882Y-3.1594
X1.9882Y-3.2185
X1.9882Y-3.2776
X2.0177Y-2.2441
X2.0177Y-2.3031
X2.0177Y-2.3622
X2.0177Y-2.6575
X2.0177Y-2.7165
X2.0177Y-2.7756
X2.0177Y-2.8346
X2.0177Y-3.1299
X2.0177Y-3.189
X2.0177Y-3.248
X2.0472Y-2.2146
X2.0472Y-2.2736
X2.0472Y-2.3327
X2.0472Y-2.3917
X2.0472Y-2.687
X2.0472Y-2.7461
X2.0472Y-2.8051
X2.0472Y-3.1004
X2.0472Y-3.1594
X2.0472Y-3.2185
X2.0472Y-3.2776
X2.0768Y-2.2441
X2.0768Y-2.3031
X2.0768Y-2.3622
X2.0768Y-2.4213
X2.0768Y-2.6575
X2.0768Y-2.7165
X2.0768Y-2.7756
X2.0768Y-2.8346
X2.0768Y-3.0709
X2.0768Y-3.1299
X2.0768Y-3.189
X2.0768Y-3.248
X2.1063Y-2.2146
X2.1063Y-2.2736
X2.1063Y-2.3327
X2.1063Y-2.3917
X2.1063Y-2.4508
X2.1063Y-2.687
X2.1063Y-2.7461
X2.1063Y-2.8051
X2.1063Y-2.8642
X2.1063Y-3.1004
X2.1063Y-3.1594
X2.1063Y-3.2185
X2.1063Y-3.2776
X2.1358Y-2.2441
X2.1358Y-2.3031
X2.1358Y-2.3622
X2.1358Y-2.4213
X2.1358Y-2.4803
X2.1358Y-2.5394
X2.1358Y-2.5984
X2.1358Y-2.6575
X2.1358Y-2.7165
X2.1358Y-2.7756
X2.1358Y-2.8346
X2.1358Y-2.8937
X2.1358Y-2.9528
X2.1358Y-3.0118
X2.1358Y-3.0709
X2.1358Y-3.1299
X2.1358Y-3.189
X2.1358Y-3.248
X2.1654Y-2.2146
X2.1654Y-2.2736
X2.1654Y-2.3327
X2.1654Y-2.3917
X2.1654Y-2.4508
X2.1654Y-2.5098
X2.1654Y-2.5689
X2.1654Y-2.628
X2.1654Y-2.687
X2.1654Y-2.7461
X2.1654Y-2.8051
X2.1654Y-2.8642
X2.1654Y-2.9232
X2.1654Y-2.9823
X2.1654Y-3.0413
X2.1654Y-3.1004
X2.1654Y-3.1594
X2.1654Y-3.2185
X2.1949Y-2.2441
X2.1949Y-2.3031
X2.1949Y-2.3622
X2.1949Y-2.4213
X2.1949Y-2.4803
X2.1949Y-2.5394
X2.1949Y-2.5984
X2.1949Y-2.6575
X2.1949Y-2.7165
X2.1949Y-2.7756
X2.1949Y-2.8346
X2.1949Y-2.8937
X2.1949Y-2.9528
X2.1949Y-3.0118
X2.1949Y-3.0709
X2.1949Y-3.1299
X2.1949Y-3.189
X2.1949Y-3.248
X2.2244Y-2.2736
X2.2244Y-2.3327
X2.2244Y-2.3917
X2.2244Y-2.4508
X2.2244Y-2.5098
X2.2244Y-2.5689
X2.2244Y-2.628
X2.2244Y-2.687
X2.2244Y-2.7461
X2.2244Y-2.8051
X2.2244Y-2.8642
X2.2244Y-2.9232
X2.2244Y-2.9823
X2.2244Y-3.0413
X2.2244Y-3.1004
X2.2244Y-3.1594
X2.2244Y-3.2185
X2.3214Y-3.9961
X2.3834Y-3.189
X2.3834Y-3.9961
X2.4281Y-3.75
X2.4911Y-3.9081
X2.4911Y-4.0081
X2.686Y-3.9081
X2.7741Y-3.9469
X2.7741Y-4.0059
X2.7884Y-3.75
X2.8361Y-4.0059
X2.8896Y-3.9056
X3.063Y-3.9051
X3.1019Y-2.0571
X3.1299Y-4.1634
X3.3591Y-3.335
X3.3988Y-3.5374
X3.4867Y-3.2579
X3.5251Y-2.9626
X3.6713Y-3.1914
X3.6713Y-3.2653
X3.6713Y-3.3253
X3.6713Y-3.3873
X3.7697Y-3.9567
X3.7776Y-3.5795
X3.7795Y-3.1973
X3.7795Y-3.2594
X3.7795Y-3.3155
X3.7795Y-3.3775
X3.7795Y-3.4532
X3.7977Y-2.9626
X3.8204Y-3.6417
X3.8204Y-3.7402
X3.8499Y-3.1496
X3.8524Y-3.5018
X3.8689Y-2.761
X3.9055Y-3.6864
X3.9055Y-3.8734
X3.9213Y-2.9213
X3.9272Y-3.189
X3.9634Y-3.3402
X3.9961Y-4.0886
X4.0945Y-1.9587
X4.0945Y-2.0965
X4.0945Y-2.1752
X4.0945Y-2.2539
X4.0945Y-2.3327
X4.0945Y-2.5098
X4.0945Y-2.5886
X4.0945Y-2.6673
X4.0945Y-2.7461
X4.0945Y-2.9035
X4.122Y-3.9646
X4.124Y-3.1594
X4.124Y-3.2087
X4.1535Y-3.3661
X4.1535Y-3.5925
X4.1535Y-3.7303
X4.1535Y-3.7697
X4.1654Y-3.8234
X4.2126Y-1.9587
X4.2421Y-3.5433
X4.2421Y-3.8189
X4.252Y-2.8543
X4.2913Y-1.9587
X4.2913Y-2.6476
X4.2913Y-3.1511
X4.2913Y-3.4464
X4.2976Y-3.0417
X4.3209Y-3.8386
X4.3307Y-3.3268
X4.3307Y-3.4744
X4.3398Y-3.9394
X4.3406Y-2.7461
X4.3701Y-1.9587
X4.3701Y-2.8543
X4.3701Y-3.7303
X4.4008Y-3.8437
X4.4094Y-2.5689
X4.4094Y-2.6575
X4.4291Y-3.3268
X4.439Y-3.4744
X4.4488Y-1.9587
X4.4783Y-2.9331
X4.501Y-3.2069
X4.5177Y-3.3268
X4.5177Y-3.7303
X4.5261Y-4.0354
X4.5276Y-1.9587
X4.5374Y-2.9921
X4.5472Y-2.687
X4.5472Y-3.4744
X4.5881Y-4.0354
X4.6063Y-1.9587
X4.626Y-2.9035
X4.626Y-2.9921
X4.6654Y-2.5
X4.685Y-1.9587
X4.6949Y-3.3858
X4.7409Y-3.4803
X4.7638Y-1.9587
X4.7638Y-2.9823
X4.7933Y-2.5
X4.7972Y-3.2913
X4.8028Y-4.1949
X4.813Y-2.7756
X4.8425Y-1.9587
X4.8551Y-3.4835
X4.8661Y-3.2043
X4.8724Y-3.3331
X4.8819Y-2.9035
X4.8819Y-4.0256
X4.8819Y-4.1043
X4.8819Y-4.1929
X4.8917Y-3.0428
X4.9016Y-3.7992
X4.9016Y-3.8681
X4.9185Y-3.5618
X4.9213Y-1.9587
X4.9311Y-2.5
X4.9311Y-4.2618
X4.9508Y-3.7992
X4.9508Y-3.8681
X4.9508Y-3.9665
X4.9606Y-3.3071
X4.9831Y-3.4827
X4.9887Y-4.0748
X5.0Y-1.9587
X5.0098Y-4.2618
X5.0295Y-2.4213
X5.0295Y-4.0157
X5.0492Y-2.2244
X5.0492Y-2.2835
X5.0665Y-2.3514
X5.0787Y-1.9587
X5.0787Y-2.5
X5.0886Y-4.2618
X5.128Y-4.124
X5.128Y-4.2028
X5.1378Y-3.9173
X5.1575Y-1.9587
X5.1673Y-2.2244
X5.1673Y-4.0157
X5.1673Y-4.2618
X5.1772Y-3.3957
X5.1969Y-4.124
X5.1969Y-4.2028
X5.2165Y-2.2835
X5.2264Y-3.5335
X5.2362Y-1.9587
X5.2362Y-3.4547
X5.2461Y-4.2618
X5.2665Y-2.3514
X5.2843Y-4.0752
X5.2854Y-3.6909
X5.2854Y-4.0157
X5.315Y-1.9587
X5.315Y-2.6969
X5.315Y-2.7953
X5.3165Y-2.3514
X5.3248Y-4.2618
X5.3346Y-3.435
X5.3346Y-3.563
X5.3937Y-1.9587
X5.3937Y-3.7598
X5.3937Y-3.9665
X5.4035Y-2.185
X5.4035Y-2.2933
X5.4035Y-3.5039
X5.4331Y-4.1929
X5.4429Y-2.0079
X5.4429Y-2.0866
X5.4429Y-2.3819
X5.4429Y-3.3366
X5.4429Y-3.4646
X5.4429Y-4.1142
X5.4528Y-3.622
X5.4528Y-4.2618
X5.4574Y-2.515
X5.4724Y-1.9587
X5.4724Y-2.7362
X5.4724Y-2.9823
X5.4808Y-2.9232
X5.4823Y-2.1654
X5.4823Y-2.2343
X5.4921Y-3.2003
X5.4921Y-4.0551
X5.502Y-3.4956
X5.5118Y-3.5728
X5.5118Y-3.7008
X5.5118Y-3.7795
X5.5118Y-3.8386
X5.5118Y-3.8976
X5.5118Y-3.9665
X5.561Y-3.2874
X5.561Y-3.3563
X5.5709Y-2.1949
X5.5709Y-3.7795
X5.5807Y-2.7559
X5.5807Y-3.6909
X5.5807Y-4.0157
X5.6216Y-2.687
X5.6235Y-2.5689
X5.6693Y-2.5886
X5.6693Y-2.6673
X5.6693Y-2.7461
X5.6693Y-2.8248
X5.6693Y-2.9035
X5.6693Y-2.9823
X5.6693Y-3.061
X5.6693Y-3.1398
X5.6693Y-3.2185
X5.6693Y-3.2972
X5.6693Y-3.376
X5.6693Y-3.4547
X5.6693Y-3.5335
X5.6693Y-3.6122
X5.6693Y-3.6909
X5.6693Y-3.878
X5.6693Y-3.9567
X5.6693Y-4.0354
X5.6791Y-2.1654
T3
X2.1102Y-2.0768
X2.1379Y-2.01
X2.1379Y-2.1436
X2.2047Y-1.9823
X2.2047Y-2.1713
X2.2715Y-2.01
X2.2715Y-2.1436
X2.2992Y-2.0768
T4
X5.4528Y-3.6811
X5.4528Y-3.7402
X5.4528Y-3.7992
X5.4528Y-3.8583
X5.4528Y-3.9173
X5.4528Y-3.9764
T5
X3.8091Y-4.0551
X3.8091Y-4.2551
X3.9091Y-4.0551
X3.9091Y-4.2551
X4.2091Y-4.0551
X4.2091Y-4.2551
X5.0575Y-3.0118
X5.1575Y-3.0118
X5.2575Y-3.0118
X5.0575Y-2.8701
X5.1575Y-2.8701
X5.2575Y-2.8701
X5.3543Y-2.8409
X5.3543Y-2.9409
X5.3543Y-3.0409
X4.9606Y-2.8528
X4.9606Y-2.9528
X4.9606Y-3.0528
T6
X4.6063Y-2.6969
X4.6654Y-2.6969
X4.7244Y-2.6969
X4.7835Y-2.6969
X4.8425Y-2.6969
X4.9016Y-2.6969
X4.9606Y-2.6969
X5.0197Y-2.6969
X5.0787Y-2.6969
T7
X2.9514Y-2.5506
X3.0906Y-2.4114
X5.5807Y-3.4154
X5.5807Y-3.5138
X3.563Y-4.1634
X3.6614Y-4.1634
X3.1102Y-3.6417
X3.2756Y-3.6417
X2.9626Y-4.0535
X2.9626Y-4.1535
X4.4587Y-2.815
X4.4587Y-3.0118
X4.9705Y-4.1634
X5.0689Y-4.1634
X5.5807Y-3.1201
X5.5807Y-3.2185
X3.2677Y-4.1634
X3.3661Y-4.1634
X5.2657Y-4.1634
X5.3642Y-4.1634
X2.8445Y-2.0571
X2.9429Y-2.0571
X4.3504Y-4.1634
X4.4488Y-4.1634
X4.5472Y-4.1634
X4.6457Y-4.1634
T8
X3.3402Y-2.0311
X3.3402Y-2.3311
X3.3402Y-2.5311
X4.1402Y-2.0311
X4.1402Y-2.4311
X4.1402Y-2.8311
T9
X2.874Y-3.6417
X2.9646Y-3.1654
X3.3976Y-3.1654
X3.5039Y-3.7283
T10
X1.8898Y-2.0472
X1.8898Y-4.1732
X5.5906Y-2.0472
X5.5906Y-4.1732
T11
X2.2047Y-2.0768
T12
X1.9882Y-3.435
X2.2638Y-3.435
X1.9911Y-3.7785
X2.2667Y-3.7785
T13
X2.0079Y-2.5295
X2.4409Y-2.5295
X2.0079Y-2.9528
X2.4409Y-2.9528
T4
G00X4.5098Y-2.6142
M15
G01X4.5453Y-2.6142
M16
G05
G00X5.1398Y-2.6142
M15
G01X5.1752Y-2.6142
M16
G05
T0
M30
