G04 #@! TF.GenerationSoftware,KiCad,Pcbnew,(5.1.2)-1*
G04 #@! TF.CreationDate,2019-06-09T18:28:46+09:00*
G04 #@! TF.ProjectId,Control_5VOUT_ElectrocityManager,436f6e74-726f-46c5-9f35-564f55545f45,rev?*
G04 #@! TF.SameCoordinates,Original*
G04 #@! TF.FileFunction,Soldermask,Top*
G04 #@! TF.FilePolarity,Negative*
%FSLAX46Y46*%
G04 Gerber Fmt 4.6, Leading zero omitted, Abs format (unit mm)*
G04 Created by KiCad (PCBNEW (5.1.2)-1) date 2019-06-09 18:28:46*
%MOMM*%
%LPD*%
G04 APERTURE LIST*
%ADD10C,0.100000*%
G04 APERTURE END LIST*
D10*
G36*
X96987142Y-107298242D02*
G01*
X97135101Y-107359529D01*
X97268255Y-107448499D01*
X97381501Y-107561745D01*
X97470471Y-107694899D01*
X97531758Y-107842858D01*
X97563000Y-107999925D01*
X97563000Y-108160075D01*
X97531758Y-108317142D01*
X97470471Y-108465101D01*
X97381501Y-108598255D01*
X97268255Y-108711501D01*
X97135101Y-108800471D01*
X96987142Y-108861758D01*
X96830075Y-108893000D01*
X96669925Y-108893000D01*
X96512858Y-108861758D01*
X96364899Y-108800471D01*
X96231745Y-108711501D01*
X96118499Y-108598255D01*
X96029529Y-108465101D01*
X95968242Y-108317142D01*
X95937000Y-108160075D01*
X95937000Y-107999925D01*
X95968242Y-107842858D01*
X96029529Y-107694899D01*
X96118499Y-107561745D01*
X96231745Y-107448499D01*
X96364899Y-107359529D01*
X96512858Y-107298242D01*
X96669925Y-107267000D01*
X96830075Y-107267000D01*
X96987142Y-107298242D01*
X96987142Y-107298242D01*
G37*
G36*
X99527142Y-107298242D02*
G01*
X99675101Y-107359529D01*
X99808255Y-107448499D01*
X99921501Y-107561745D01*
X100010471Y-107694899D01*
X100071758Y-107842858D01*
X100103000Y-107999925D01*
X100103000Y-108160075D01*
X100071758Y-108317142D01*
X100010471Y-108465101D01*
X99921501Y-108598255D01*
X99808255Y-108711501D01*
X99675101Y-108800471D01*
X99527142Y-108861758D01*
X99370075Y-108893000D01*
X99209925Y-108893000D01*
X99052858Y-108861758D01*
X98904899Y-108800471D01*
X98771745Y-108711501D01*
X98658499Y-108598255D01*
X98569529Y-108465101D01*
X98508242Y-108317142D01*
X98477000Y-108160075D01*
X98477000Y-107999925D01*
X98508242Y-107842858D01*
X98569529Y-107694899D01*
X98658499Y-107561745D01*
X98771745Y-107448499D01*
X98904899Y-107359529D01*
X99052858Y-107298242D01*
X99209925Y-107267000D01*
X99370075Y-107267000D01*
X99527142Y-107298242D01*
X99527142Y-107298242D01*
G37*
G36*
X107147142Y-107298242D02*
G01*
X107295101Y-107359529D01*
X107428255Y-107448499D01*
X107541501Y-107561745D01*
X107630471Y-107694899D01*
X107691758Y-107842858D01*
X107723000Y-107999925D01*
X107723000Y-108160075D01*
X107691758Y-108317142D01*
X107630471Y-108465101D01*
X107541501Y-108598255D01*
X107428255Y-108711501D01*
X107295101Y-108800471D01*
X107147142Y-108861758D01*
X106990075Y-108893000D01*
X106829925Y-108893000D01*
X106672858Y-108861758D01*
X106524899Y-108800471D01*
X106391745Y-108711501D01*
X106278499Y-108598255D01*
X106189529Y-108465101D01*
X106128242Y-108317142D01*
X106097000Y-108160075D01*
X106097000Y-107999925D01*
X106128242Y-107842858D01*
X106189529Y-107694899D01*
X106278499Y-107561745D01*
X106391745Y-107448499D01*
X106524899Y-107359529D01*
X106672858Y-107298242D01*
X106829925Y-107267000D01*
X106990075Y-107267000D01*
X107147142Y-107298242D01*
X107147142Y-107298242D01*
G37*
G36*
X93157022Y-104460590D02*
G01*
X93248676Y-104488393D01*
X93308012Y-104506392D01*
X93381250Y-104545539D01*
X93447164Y-104580771D01*
X93569133Y-104680867D01*
X93599812Y-104718250D01*
X93669229Y-104802835D01*
X93743608Y-104941987D01*
X93758875Y-104992318D01*
X93789410Y-105092977D01*
X93801000Y-105210655D01*
X93801000Y-106289345D01*
X93789410Y-106407023D01*
X93758875Y-106507682D01*
X93743608Y-106558013D01*
X93669229Y-106697165D01*
X93569133Y-106819133D01*
X93447165Y-106919229D01*
X93308013Y-106993608D01*
X93257682Y-107008875D01*
X93157023Y-107039410D01*
X93000000Y-107054875D01*
X92842978Y-107039410D01*
X92742319Y-107008875D01*
X92691988Y-106993608D01*
X92552836Y-106919229D01*
X92430868Y-106819133D01*
X92330772Y-106697165D01*
X92256393Y-106558013D01*
X92241126Y-106507682D01*
X92210591Y-106407023D01*
X92199001Y-106289345D01*
X92199000Y-105210656D01*
X92210590Y-105092978D01*
X92256392Y-104941989D01*
X92256392Y-104941988D01*
X92330771Y-104802836D01*
X92330772Y-104802835D01*
X92430867Y-104680867D01*
X92552835Y-104580771D01*
X92618749Y-104545539D01*
X92691987Y-104506392D01*
X92751323Y-104488393D01*
X92842977Y-104460590D01*
X93000000Y-104445125D01*
X93157022Y-104460590D01*
X93157022Y-104460590D01*
G37*
G36*
X128907022Y-104460590D02*
G01*
X128998676Y-104488393D01*
X129058012Y-104506392D01*
X129131250Y-104545539D01*
X129197164Y-104580771D01*
X129319133Y-104680867D01*
X129349812Y-104718250D01*
X129419229Y-104802835D01*
X129493608Y-104941987D01*
X129508875Y-104992318D01*
X129539410Y-105092977D01*
X129551000Y-105210655D01*
X129551000Y-106289345D01*
X129539410Y-106407023D01*
X129508875Y-106507682D01*
X129493608Y-106558013D01*
X129419229Y-106697165D01*
X129319133Y-106819133D01*
X129197165Y-106919229D01*
X129058013Y-106993608D01*
X129007682Y-107008875D01*
X128907023Y-107039410D01*
X128750000Y-107054875D01*
X128592978Y-107039410D01*
X128492319Y-107008875D01*
X128441988Y-106993608D01*
X128302836Y-106919229D01*
X128180868Y-106819133D01*
X128080772Y-106697165D01*
X128006393Y-106558013D01*
X127991126Y-106507682D01*
X127960591Y-106407023D01*
X127949001Y-106289345D01*
X127949000Y-105210656D01*
X127960590Y-105092978D01*
X128006392Y-104941989D01*
X128006392Y-104941988D01*
X128080771Y-104802836D01*
X128080772Y-104802835D01*
X128180867Y-104680867D01*
X128302835Y-104580771D01*
X128368749Y-104545539D01*
X128441987Y-104506392D01*
X128501323Y-104488393D01*
X128592977Y-104460590D01*
X128750000Y-104445125D01*
X128907022Y-104460590D01*
X128907022Y-104460590D01*
G37*
G36*
X126407022Y-104460590D02*
G01*
X126498676Y-104488393D01*
X126558012Y-104506392D01*
X126631250Y-104545539D01*
X126697164Y-104580771D01*
X126819133Y-104680867D01*
X126849812Y-104718250D01*
X126919229Y-104802835D01*
X126993608Y-104941987D01*
X127008875Y-104992318D01*
X127039410Y-105092977D01*
X127051000Y-105210655D01*
X127051000Y-106289345D01*
X127039410Y-106407023D01*
X127008875Y-106507682D01*
X126993608Y-106558013D01*
X126919229Y-106697165D01*
X126819133Y-106819133D01*
X126697165Y-106919229D01*
X126558013Y-106993608D01*
X126507682Y-107008875D01*
X126407023Y-107039410D01*
X126250000Y-107054875D01*
X126092978Y-107039410D01*
X125992319Y-107008875D01*
X125941988Y-106993608D01*
X125802836Y-106919229D01*
X125680868Y-106819133D01*
X125580772Y-106697165D01*
X125506393Y-106558013D01*
X125491126Y-106507682D01*
X125460591Y-106407023D01*
X125449001Y-106289345D01*
X125449000Y-105210656D01*
X125460590Y-105092978D01*
X125506392Y-104941989D01*
X125506392Y-104941988D01*
X125580771Y-104802836D01*
X125580772Y-104802835D01*
X125680867Y-104680867D01*
X125802835Y-104580771D01*
X125868749Y-104545539D01*
X125941987Y-104506392D01*
X126001323Y-104488393D01*
X126092977Y-104460590D01*
X126250000Y-104445125D01*
X126407022Y-104460590D01*
X126407022Y-104460590D01*
G37*
G36*
X136407022Y-104460590D02*
G01*
X136498676Y-104488393D01*
X136558012Y-104506392D01*
X136631250Y-104545539D01*
X136697164Y-104580771D01*
X136819133Y-104680867D01*
X136849812Y-104718250D01*
X136919229Y-104802835D01*
X136993608Y-104941987D01*
X137008875Y-104992318D01*
X137039410Y-105092977D01*
X137051000Y-105210655D01*
X137051000Y-106289345D01*
X137039410Y-106407023D01*
X137008875Y-106507682D01*
X136993608Y-106558013D01*
X136919229Y-106697165D01*
X136819133Y-106819133D01*
X136697165Y-106919229D01*
X136558013Y-106993608D01*
X136507682Y-107008875D01*
X136407023Y-107039410D01*
X136250000Y-107054875D01*
X136092978Y-107039410D01*
X135992319Y-107008875D01*
X135941988Y-106993608D01*
X135802836Y-106919229D01*
X135680868Y-106819133D01*
X135580772Y-106697165D01*
X135506393Y-106558013D01*
X135491126Y-106507682D01*
X135460591Y-106407023D01*
X135449001Y-106289345D01*
X135449000Y-105210656D01*
X135460590Y-105092978D01*
X135506392Y-104941989D01*
X135506392Y-104941988D01*
X135580771Y-104802836D01*
X135580772Y-104802835D01*
X135680867Y-104680867D01*
X135802835Y-104580771D01*
X135868749Y-104545539D01*
X135941987Y-104506392D01*
X136001323Y-104488393D01*
X136092977Y-104460590D01*
X136250000Y-104445125D01*
X136407022Y-104460590D01*
X136407022Y-104460590D01*
G37*
G36*
X133907022Y-104460590D02*
G01*
X133998676Y-104488393D01*
X134058012Y-104506392D01*
X134131250Y-104545539D01*
X134197164Y-104580771D01*
X134319133Y-104680867D01*
X134349812Y-104718250D01*
X134419229Y-104802835D01*
X134493608Y-104941987D01*
X134508875Y-104992318D01*
X134539410Y-105092977D01*
X134551000Y-105210655D01*
X134551000Y-106289345D01*
X134539410Y-106407023D01*
X134508875Y-106507682D01*
X134493608Y-106558013D01*
X134419229Y-106697165D01*
X134319133Y-106819133D01*
X134197165Y-106919229D01*
X134058013Y-106993608D01*
X134007682Y-107008875D01*
X133907023Y-107039410D01*
X133750000Y-107054875D01*
X133592978Y-107039410D01*
X133492319Y-107008875D01*
X133441988Y-106993608D01*
X133302836Y-106919229D01*
X133180868Y-106819133D01*
X133080772Y-106697165D01*
X133006393Y-106558013D01*
X132991126Y-106507682D01*
X132960591Y-106407023D01*
X132949001Y-106289345D01*
X132949000Y-105210656D01*
X132960590Y-105092978D01*
X133006392Y-104941989D01*
X133006392Y-104941988D01*
X133080771Y-104802836D01*
X133080772Y-104802835D01*
X133180867Y-104680867D01*
X133302835Y-104580771D01*
X133368749Y-104545539D01*
X133441987Y-104506392D01*
X133501323Y-104488393D01*
X133592977Y-104460590D01*
X133750000Y-104445125D01*
X133907022Y-104460590D01*
X133907022Y-104460590D01*
G37*
G36*
X90657022Y-104460590D02*
G01*
X90748676Y-104488393D01*
X90808012Y-104506392D01*
X90881250Y-104545539D01*
X90947164Y-104580771D01*
X91069133Y-104680867D01*
X91099812Y-104718250D01*
X91169229Y-104802835D01*
X91243608Y-104941987D01*
X91258875Y-104992318D01*
X91289410Y-105092977D01*
X91301000Y-105210655D01*
X91301000Y-106289345D01*
X91289410Y-106407023D01*
X91258875Y-106507682D01*
X91243608Y-106558013D01*
X91169229Y-106697165D01*
X91069133Y-106819133D01*
X90947165Y-106919229D01*
X90808013Y-106993608D01*
X90757682Y-107008875D01*
X90657023Y-107039410D01*
X90500000Y-107054875D01*
X90342978Y-107039410D01*
X90242319Y-107008875D01*
X90191988Y-106993608D01*
X90052836Y-106919229D01*
X89930868Y-106819133D01*
X89830772Y-106697165D01*
X89756393Y-106558013D01*
X89741126Y-106507682D01*
X89710591Y-106407023D01*
X89699001Y-106289345D01*
X89699000Y-105210656D01*
X89710590Y-105092978D01*
X89756392Y-104941989D01*
X89756392Y-104941988D01*
X89830771Y-104802836D01*
X89830772Y-104802835D01*
X89930867Y-104680867D01*
X90052835Y-104580771D01*
X90118749Y-104545539D01*
X90191987Y-104506392D01*
X90251323Y-104488393D01*
X90342977Y-104460590D01*
X90500000Y-104445125D01*
X90657022Y-104460590D01*
X90657022Y-104460590D01*
G37*
G36*
X110657022Y-104460590D02*
G01*
X110748676Y-104488393D01*
X110808012Y-104506392D01*
X110881250Y-104545539D01*
X110947164Y-104580771D01*
X111069133Y-104680867D01*
X111099812Y-104718250D01*
X111169229Y-104802835D01*
X111243608Y-104941987D01*
X111258875Y-104992318D01*
X111289410Y-105092977D01*
X111301000Y-105210655D01*
X111301000Y-106289345D01*
X111289410Y-106407023D01*
X111258875Y-106507682D01*
X111243608Y-106558013D01*
X111169229Y-106697165D01*
X111069133Y-106819133D01*
X110947165Y-106919229D01*
X110808013Y-106993608D01*
X110757682Y-107008875D01*
X110657023Y-107039410D01*
X110500000Y-107054875D01*
X110342978Y-107039410D01*
X110242319Y-107008875D01*
X110191988Y-106993608D01*
X110052836Y-106919229D01*
X109930868Y-106819133D01*
X109830772Y-106697165D01*
X109756393Y-106558013D01*
X109741126Y-106507682D01*
X109710591Y-106407023D01*
X109699001Y-106289345D01*
X109699000Y-105210656D01*
X109710590Y-105092978D01*
X109756392Y-104941989D01*
X109756392Y-104941988D01*
X109830771Y-104802836D01*
X109830772Y-104802835D01*
X109930867Y-104680867D01*
X110052835Y-104580771D01*
X110118749Y-104545539D01*
X110191987Y-104506392D01*
X110251323Y-104488393D01*
X110342977Y-104460590D01*
X110500000Y-104445125D01*
X110657022Y-104460590D01*
X110657022Y-104460590D01*
G37*
G36*
X85657022Y-104460590D02*
G01*
X85748676Y-104488393D01*
X85808012Y-104506392D01*
X85881250Y-104545539D01*
X85947164Y-104580771D01*
X86069133Y-104680867D01*
X86099812Y-104718250D01*
X86169229Y-104802835D01*
X86243608Y-104941987D01*
X86258875Y-104992318D01*
X86289410Y-105092977D01*
X86301000Y-105210655D01*
X86301000Y-106289345D01*
X86289410Y-106407023D01*
X86258875Y-106507682D01*
X86243608Y-106558013D01*
X86169229Y-106697165D01*
X86069133Y-106819133D01*
X85947165Y-106919229D01*
X85808013Y-106993608D01*
X85757682Y-107008875D01*
X85657023Y-107039410D01*
X85500000Y-107054875D01*
X85342978Y-107039410D01*
X85242319Y-107008875D01*
X85191988Y-106993608D01*
X85052836Y-106919229D01*
X84930868Y-106819133D01*
X84830772Y-106697165D01*
X84756393Y-106558013D01*
X84741126Y-106507682D01*
X84710591Y-106407023D01*
X84699001Y-106289345D01*
X84699000Y-105210656D01*
X84710590Y-105092978D01*
X84756392Y-104941989D01*
X84756392Y-104941988D01*
X84830771Y-104802836D01*
X84830772Y-104802835D01*
X84930867Y-104680867D01*
X85052835Y-104580771D01*
X85118749Y-104545539D01*
X85191987Y-104506392D01*
X85251323Y-104488393D01*
X85342977Y-104460590D01*
X85500000Y-104445125D01*
X85657022Y-104460590D01*
X85657022Y-104460590D01*
G37*
G36*
X83157022Y-104460590D02*
G01*
X83248676Y-104488393D01*
X83308012Y-104506392D01*
X83381250Y-104545539D01*
X83447164Y-104580771D01*
X83569133Y-104680867D01*
X83599812Y-104718250D01*
X83669229Y-104802835D01*
X83743608Y-104941987D01*
X83758875Y-104992318D01*
X83789410Y-105092977D01*
X83801000Y-105210655D01*
X83801000Y-106289345D01*
X83789410Y-106407023D01*
X83758875Y-106507682D01*
X83743608Y-106558013D01*
X83669229Y-106697165D01*
X83569133Y-106819133D01*
X83447165Y-106919229D01*
X83308013Y-106993608D01*
X83257682Y-107008875D01*
X83157023Y-107039410D01*
X83000000Y-107054875D01*
X82842978Y-107039410D01*
X82742319Y-107008875D01*
X82691988Y-106993608D01*
X82552836Y-106919229D01*
X82430868Y-106819133D01*
X82330772Y-106697165D01*
X82256393Y-106558013D01*
X82241126Y-106507682D01*
X82210591Y-106407023D01*
X82199001Y-106289345D01*
X82199000Y-105210656D01*
X82210590Y-105092978D01*
X82256392Y-104941989D01*
X82256392Y-104941988D01*
X82330771Y-104802836D01*
X82330772Y-104802835D01*
X82430867Y-104680867D01*
X82552835Y-104580771D01*
X82618749Y-104545539D01*
X82691987Y-104506392D01*
X82751323Y-104488393D01*
X82842977Y-104460590D01*
X83000000Y-104445125D01*
X83157022Y-104460590D01*
X83157022Y-104460590D01*
G37*
G36*
X118157022Y-104460590D02*
G01*
X118248676Y-104488393D01*
X118308012Y-104506392D01*
X118381250Y-104545539D01*
X118447164Y-104580771D01*
X118569133Y-104680867D01*
X118599812Y-104718250D01*
X118669229Y-104802835D01*
X118743608Y-104941987D01*
X118758875Y-104992318D01*
X118789410Y-105092977D01*
X118801000Y-105210655D01*
X118801000Y-106289345D01*
X118789410Y-106407023D01*
X118758875Y-106507682D01*
X118743608Y-106558013D01*
X118669229Y-106697165D01*
X118569133Y-106819133D01*
X118447165Y-106919229D01*
X118308013Y-106993608D01*
X118257682Y-107008875D01*
X118157023Y-107039410D01*
X118000000Y-107054875D01*
X117842978Y-107039410D01*
X117742319Y-107008875D01*
X117691988Y-106993608D01*
X117552836Y-106919229D01*
X117430868Y-106819133D01*
X117330772Y-106697165D01*
X117256393Y-106558013D01*
X117241126Y-106507682D01*
X117210591Y-106407023D01*
X117199001Y-106289345D01*
X117199000Y-105210656D01*
X117210590Y-105092978D01*
X117256392Y-104941989D01*
X117256392Y-104941988D01*
X117330771Y-104802836D01*
X117330772Y-104802835D01*
X117430867Y-104680867D01*
X117552835Y-104580771D01*
X117618749Y-104545539D01*
X117691987Y-104506392D01*
X117751323Y-104488393D01*
X117842977Y-104460590D01*
X118000000Y-104445125D01*
X118157022Y-104460590D01*
X118157022Y-104460590D01*
G37*
G36*
X113157022Y-104460590D02*
G01*
X113248676Y-104488393D01*
X113308012Y-104506392D01*
X113381250Y-104545539D01*
X113447164Y-104580771D01*
X113569133Y-104680867D01*
X113599812Y-104718250D01*
X113669229Y-104802835D01*
X113743608Y-104941987D01*
X113758875Y-104992318D01*
X113789410Y-105092977D01*
X113801000Y-105210655D01*
X113801000Y-106289345D01*
X113789410Y-106407023D01*
X113758875Y-106507682D01*
X113743608Y-106558013D01*
X113669229Y-106697165D01*
X113569133Y-106819133D01*
X113447165Y-106919229D01*
X113308013Y-106993608D01*
X113257682Y-107008875D01*
X113157023Y-107039410D01*
X113000000Y-107054875D01*
X112842978Y-107039410D01*
X112742319Y-107008875D01*
X112691988Y-106993608D01*
X112552836Y-106919229D01*
X112430868Y-106819133D01*
X112330772Y-106697165D01*
X112256393Y-106558013D01*
X112241126Y-106507682D01*
X112210591Y-106407023D01*
X112199001Y-106289345D01*
X112199000Y-105210656D01*
X112210590Y-105092978D01*
X112256392Y-104941989D01*
X112256392Y-104941988D01*
X112330771Y-104802836D01*
X112330772Y-104802835D01*
X112430867Y-104680867D01*
X112552835Y-104580771D01*
X112618749Y-104545539D01*
X112691987Y-104506392D01*
X112751323Y-104488393D01*
X112842977Y-104460590D01*
X113000000Y-104445125D01*
X113157022Y-104460590D01*
X113157022Y-104460590D01*
G37*
G36*
X115657022Y-104460590D02*
G01*
X115748676Y-104488393D01*
X115808012Y-104506392D01*
X115881250Y-104545539D01*
X115947164Y-104580771D01*
X116069133Y-104680867D01*
X116099812Y-104718250D01*
X116169229Y-104802835D01*
X116243608Y-104941987D01*
X116258875Y-104992318D01*
X116289410Y-105092977D01*
X116301000Y-105210655D01*
X116301000Y-106289345D01*
X116289410Y-106407023D01*
X116258875Y-106507682D01*
X116243608Y-106558013D01*
X116169229Y-106697165D01*
X116069133Y-106819133D01*
X115947165Y-106919229D01*
X115808013Y-106993608D01*
X115757682Y-107008875D01*
X115657023Y-107039410D01*
X115500000Y-107054875D01*
X115342978Y-107039410D01*
X115242319Y-107008875D01*
X115191988Y-106993608D01*
X115052836Y-106919229D01*
X114930868Y-106819133D01*
X114830772Y-106697165D01*
X114756393Y-106558013D01*
X114741126Y-106507682D01*
X114710591Y-106407023D01*
X114699001Y-106289345D01*
X114699000Y-105210656D01*
X114710590Y-105092978D01*
X114756392Y-104941989D01*
X114756392Y-104941988D01*
X114830771Y-104802836D01*
X114830772Y-104802835D01*
X114930867Y-104680867D01*
X115052835Y-104580771D01*
X115118749Y-104545539D01*
X115191987Y-104506392D01*
X115251323Y-104488393D01*
X115342977Y-104460590D01*
X115500000Y-104445125D01*
X115657022Y-104460590D01*
X115657022Y-104460590D01*
G37*
G36*
X122379591Y-106053085D02*
G01*
X122413569Y-106063393D01*
X122444890Y-106080134D01*
X122472339Y-106102661D01*
X122494866Y-106130110D01*
X122511607Y-106161431D01*
X122521915Y-106195409D01*
X122526000Y-106236890D01*
X122526000Y-106838110D01*
X122521915Y-106879591D01*
X122511607Y-106913569D01*
X122494866Y-106944890D01*
X122472339Y-106972339D01*
X122444890Y-106994866D01*
X122413569Y-107011607D01*
X122379591Y-107021915D01*
X122338110Y-107026000D01*
X121661890Y-107026000D01*
X121620409Y-107021915D01*
X121586431Y-107011607D01*
X121555110Y-106994866D01*
X121527661Y-106972339D01*
X121505134Y-106944890D01*
X121488393Y-106913569D01*
X121478085Y-106879591D01*
X121474000Y-106838110D01*
X121474000Y-106236890D01*
X121478085Y-106195409D01*
X121488393Y-106161431D01*
X121505134Y-106130110D01*
X121527661Y-106102661D01*
X121555110Y-106080134D01*
X121586431Y-106063393D01*
X121620409Y-106053085D01*
X121661890Y-106049000D01*
X122338110Y-106049000D01*
X122379591Y-106053085D01*
X122379591Y-106053085D01*
G37*
G36*
X76151000Y-106401000D02*
G01*
X74349000Y-106401000D01*
X74349000Y-104599000D01*
X76151000Y-104599000D01*
X76151000Y-106401000D01*
X76151000Y-106401000D01*
G37*
G36*
X79629591Y-105228085D02*
G01*
X79663569Y-105238393D01*
X79694890Y-105255134D01*
X79722339Y-105277661D01*
X79744866Y-105305110D01*
X79761607Y-105336431D01*
X79771915Y-105370409D01*
X79776000Y-105411890D01*
X79776000Y-106088110D01*
X79771915Y-106129591D01*
X79761607Y-106163569D01*
X79744866Y-106194890D01*
X79722339Y-106222339D01*
X79694890Y-106244866D01*
X79663569Y-106261607D01*
X79629591Y-106271915D01*
X79588110Y-106276000D01*
X78986890Y-106276000D01*
X78945409Y-106271915D01*
X78911431Y-106261607D01*
X78880110Y-106244866D01*
X78852661Y-106222339D01*
X78830134Y-106194890D01*
X78813393Y-106163569D01*
X78803085Y-106129591D01*
X78799000Y-106088110D01*
X78799000Y-105411890D01*
X78803085Y-105370409D01*
X78813393Y-105336431D01*
X78830134Y-105305110D01*
X78852661Y-105277661D01*
X78880110Y-105255134D01*
X78911431Y-105238393D01*
X78945409Y-105228085D01*
X78986890Y-105224000D01*
X79588110Y-105224000D01*
X79629591Y-105228085D01*
X79629591Y-105228085D01*
G37*
G36*
X78054591Y-105228085D02*
G01*
X78088569Y-105238393D01*
X78119890Y-105255134D01*
X78147339Y-105277661D01*
X78169866Y-105305110D01*
X78186607Y-105336431D01*
X78196915Y-105370409D01*
X78201000Y-105411890D01*
X78201000Y-106088110D01*
X78196915Y-106129591D01*
X78186607Y-106163569D01*
X78169866Y-106194890D01*
X78147339Y-106222339D01*
X78119890Y-106244866D01*
X78088569Y-106261607D01*
X78054591Y-106271915D01*
X78013110Y-106276000D01*
X77411890Y-106276000D01*
X77370409Y-106271915D01*
X77336431Y-106261607D01*
X77305110Y-106244866D01*
X77277661Y-106222339D01*
X77255134Y-106194890D01*
X77238393Y-106163569D01*
X77228085Y-106129591D01*
X77224000Y-106088110D01*
X77224000Y-105411890D01*
X77228085Y-105370409D01*
X77238393Y-105336431D01*
X77255134Y-105305110D01*
X77277661Y-105277661D01*
X77305110Y-105255134D01*
X77336431Y-105238393D01*
X77370409Y-105228085D01*
X77411890Y-105224000D01*
X78013110Y-105224000D01*
X78054591Y-105228085D01*
X78054591Y-105228085D01*
G37*
G36*
X122379591Y-104478085D02*
G01*
X122413569Y-104488393D01*
X122444890Y-104505134D01*
X122472339Y-104527661D01*
X122494866Y-104555110D01*
X122511607Y-104586431D01*
X122521915Y-104620409D01*
X122526000Y-104661890D01*
X122526000Y-105263110D01*
X122521915Y-105304591D01*
X122511607Y-105338569D01*
X122494866Y-105369890D01*
X122472339Y-105397339D01*
X122444890Y-105419866D01*
X122413569Y-105436607D01*
X122379591Y-105446915D01*
X122338110Y-105451000D01*
X121661890Y-105451000D01*
X121620409Y-105446915D01*
X121586431Y-105436607D01*
X121555110Y-105419866D01*
X121527661Y-105397339D01*
X121505134Y-105369890D01*
X121488393Y-105338569D01*
X121478085Y-105304591D01*
X121474000Y-105263110D01*
X121474000Y-104661890D01*
X121478085Y-104620409D01*
X121488393Y-104586431D01*
X121505134Y-104555110D01*
X121527661Y-104527661D01*
X121555110Y-104505134D01*
X121586431Y-104488393D01*
X121620409Y-104478085D01*
X121661890Y-104474000D01*
X122338110Y-104474000D01*
X122379591Y-104478085D01*
X122379591Y-104478085D01*
G37*
G36*
X75354447Y-102064928D02*
G01*
X75426627Y-102072037D01*
X75596466Y-102123557D01*
X75752991Y-102207222D01*
X75766420Y-102218243D01*
X75890186Y-102319814D01*
X75973448Y-102421271D01*
X76002778Y-102457009D01*
X76086443Y-102613534D01*
X76137963Y-102783373D01*
X76155359Y-102960000D01*
X76137963Y-103136627D01*
X76086443Y-103306466D01*
X76002778Y-103462991D01*
X75973448Y-103498729D01*
X75890186Y-103600186D01*
X75788729Y-103683448D01*
X75752991Y-103712778D01*
X75674728Y-103754611D01*
X75623940Y-103781758D01*
X75596466Y-103796443D01*
X75426627Y-103847963D01*
X75360443Y-103854481D01*
X75294260Y-103861000D01*
X75205740Y-103861000D01*
X75139557Y-103854481D01*
X75073373Y-103847963D01*
X74903534Y-103796443D01*
X74876061Y-103781758D01*
X74825272Y-103754611D01*
X74747009Y-103712778D01*
X74711271Y-103683448D01*
X74609814Y-103600186D01*
X74526552Y-103498729D01*
X74497222Y-103462991D01*
X74413557Y-103306466D01*
X74362037Y-103136627D01*
X74344641Y-102960000D01*
X74362037Y-102783373D01*
X74413557Y-102613534D01*
X74497222Y-102457009D01*
X74526552Y-102421271D01*
X74609814Y-102319814D01*
X74733580Y-102218243D01*
X74747009Y-102207222D01*
X74903534Y-102123557D01*
X75073373Y-102072037D01*
X75145553Y-102064928D01*
X75205740Y-102059000D01*
X75294260Y-102059000D01*
X75354447Y-102064928D01*
X75354447Y-102064928D01*
G37*
G36*
X99527142Y-102218242D02*
G01*
X99675101Y-102279529D01*
X99808255Y-102368499D01*
X99921501Y-102481745D01*
X100010471Y-102614899D01*
X100071758Y-102762858D01*
X100103000Y-102919925D01*
X100103000Y-103080075D01*
X100071758Y-103237142D01*
X100010471Y-103385101D01*
X99921501Y-103518255D01*
X99808255Y-103631501D01*
X99675101Y-103720471D01*
X99527142Y-103781758D01*
X99370075Y-103813000D01*
X99209925Y-103813000D01*
X99052858Y-103781758D01*
X98904899Y-103720471D01*
X98771745Y-103631501D01*
X98658499Y-103518255D01*
X98569529Y-103385101D01*
X98508242Y-103237142D01*
X98477000Y-103080075D01*
X98477000Y-102919925D01*
X98508242Y-102762858D01*
X98569529Y-102614899D01*
X98658499Y-102481745D01*
X98771745Y-102368499D01*
X98904899Y-102279529D01*
X99052858Y-102218242D01*
X99209925Y-102187000D01*
X99370075Y-102187000D01*
X99527142Y-102218242D01*
X99527142Y-102218242D01*
G37*
G36*
X96987142Y-102218242D02*
G01*
X97135101Y-102279529D01*
X97268255Y-102368499D01*
X97381501Y-102481745D01*
X97470471Y-102614899D01*
X97531758Y-102762858D01*
X97563000Y-102919925D01*
X97563000Y-103080075D01*
X97531758Y-103237142D01*
X97470471Y-103385101D01*
X97381501Y-103518255D01*
X97268255Y-103631501D01*
X97135101Y-103720471D01*
X96987142Y-103781758D01*
X96830075Y-103813000D01*
X96669925Y-103813000D01*
X96512858Y-103781758D01*
X96364899Y-103720471D01*
X96231745Y-103631501D01*
X96118499Y-103518255D01*
X96029529Y-103385101D01*
X95968242Y-103237142D01*
X95937000Y-103080075D01*
X95937000Y-102919925D01*
X95968242Y-102762858D01*
X96029529Y-102614899D01*
X96118499Y-102481745D01*
X96231745Y-102368499D01*
X96364899Y-102279529D01*
X96512858Y-102218242D01*
X96669925Y-102187000D01*
X96830075Y-102187000D01*
X96987142Y-102218242D01*
X96987142Y-102218242D01*
G37*
G36*
X107147142Y-102218242D02*
G01*
X107295101Y-102279529D01*
X107428255Y-102368499D01*
X107541501Y-102481745D01*
X107630471Y-102614899D01*
X107691758Y-102762858D01*
X107723000Y-102919925D01*
X107723000Y-103080075D01*
X107691758Y-103237142D01*
X107630471Y-103385101D01*
X107541501Y-103518255D01*
X107428255Y-103631501D01*
X107295101Y-103720471D01*
X107147142Y-103781758D01*
X106990075Y-103813000D01*
X106829925Y-103813000D01*
X106672858Y-103781758D01*
X106524899Y-103720471D01*
X106391745Y-103631501D01*
X106278499Y-103518255D01*
X106189529Y-103385101D01*
X106128242Y-103237142D01*
X106097000Y-103080075D01*
X106097000Y-102919925D01*
X106128242Y-102762858D01*
X106189529Y-102614899D01*
X106278499Y-102481745D01*
X106391745Y-102368499D01*
X106524899Y-102279529D01*
X106672858Y-102218242D01*
X106829925Y-102187000D01*
X106990075Y-102187000D01*
X107147142Y-102218242D01*
X107147142Y-102218242D01*
G37*
G36*
X143801000Y-102651000D02*
G01*
X142199000Y-102651000D01*
X142199000Y-99949000D01*
X143801000Y-99949000D01*
X143801000Y-102651000D01*
X143801000Y-102651000D01*
G37*
G36*
X64209928Y-101456764D02*
G01*
X64231009Y-101463160D01*
X64250445Y-101473548D01*
X64267476Y-101487524D01*
X64281452Y-101504555D01*
X64291840Y-101523991D01*
X64298236Y-101545072D01*
X64301000Y-101573140D01*
X64301000Y-102036860D01*
X64298236Y-102064928D01*
X64291840Y-102086009D01*
X64281452Y-102105445D01*
X64267476Y-102122476D01*
X64250445Y-102136452D01*
X64231009Y-102146840D01*
X64209928Y-102153236D01*
X64181860Y-102156000D01*
X62368140Y-102156000D01*
X62340072Y-102153236D01*
X62318991Y-102146840D01*
X62299555Y-102136452D01*
X62282524Y-102122476D01*
X62268548Y-102105445D01*
X62258160Y-102086009D01*
X62251764Y-102064928D01*
X62249000Y-102036860D01*
X62249000Y-101573140D01*
X62251764Y-101545072D01*
X62258160Y-101523991D01*
X62268548Y-101504555D01*
X62282524Y-101487524D01*
X62299555Y-101473548D01*
X62318991Y-101463160D01*
X62340072Y-101456764D01*
X62368140Y-101454000D01*
X64181860Y-101454000D01*
X64209928Y-101456764D01*
X64209928Y-101456764D01*
G37*
G36*
X69159928Y-101456764D02*
G01*
X69181009Y-101463160D01*
X69200445Y-101473548D01*
X69217476Y-101487524D01*
X69231452Y-101504555D01*
X69241840Y-101523991D01*
X69248236Y-101545072D01*
X69251000Y-101573140D01*
X69251000Y-102036860D01*
X69248236Y-102064928D01*
X69241840Y-102086009D01*
X69231452Y-102105445D01*
X69217476Y-102122476D01*
X69200445Y-102136452D01*
X69181009Y-102146840D01*
X69159928Y-102153236D01*
X69131860Y-102156000D01*
X67318140Y-102156000D01*
X67290072Y-102153236D01*
X67268991Y-102146840D01*
X67249555Y-102136452D01*
X67232524Y-102122476D01*
X67218548Y-102105445D01*
X67208160Y-102086009D01*
X67201764Y-102064928D01*
X67199000Y-102036860D01*
X67199000Y-101573140D01*
X67201764Y-101545072D01*
X67208160Y-101523991D01*
X67218548Y-101504555D01*
X67232524Y-101487524D01*
X67249555Y-101473548D01*
X67268991Y-101463160D01*
X67290072Y-101456764D01*
X67318140Y-101454000D01*
X69131860Y-101454000D01*
X69159928Y-101456764D01*
X69159928Y-101456764D01*
G37*
G36*
X59304591Y-100978085D02*
G01*
X59338569Y-100988393D01*
X59369890Y-101005134D01*
X59397339Y-101027661D01*
X59419866Y-101055110D01*
X59436607Y-101086431D01*
X59446915Y-101120409D01*
X59451000Y-101161890D01*
X59451000Y-101838110D01*
X59446915Y-101879591D01*
X59436607Y-101913569D01*
X59419866Y-101944890D01*
X59397339Y-101972339D01*
X59369890Y-101994866D01*
X59338569Y-102011607D01*
X59304591Y-102021915D01*
X59263110Y-102026000D01*
X58661890Y-102026000D01*
X58620409Y-102021915D01*
X58586431Y-102011607D01*
X58555110Y-101994866D01*
X58527661Y-101972339D01*
X58505134Y-101944890D01*
X58488393Y-101913569D01*
X58478085Y-101879591D01*
X58474000Y-101838110D01*
X58474000Y-101161890D01*
X58478085Y-101120409D01*
X58488393Y-101086431D01*
X58505134Y-101055110D01*
X58527661Y-101027661D01*
X58555110Y-101005134D01*
X58586431Y-100988393D01*
X58620409Y-100978085D01*
X58661890Y-100974000D01*
X59263110Y-100974000D01*
X59304591Y-100978085D01*
X59304591Y-100978085D01*
G37*
G36*
X60879591Y-100978085D02*
G01*
X60913569Y-100988393D01*
X60944890Y-101005134D01*
X60972339Y-101027661D01*
X60994866Y-101055110D01*
X61011607Y-101086431D01*
X61021915Y-101120409D01*
X61026000Y-101161890D01*
X61026000Y-101838110D01*
X61021915Y-101879591D01*
X61011607Y-101913569D01*
X60994866Y-101944890D01*
X60972339Y-101972339D01*
X60944890Y-101994866D01*
X60913569Y-102011607D01*
X60879591Y-102021915D01*
X60838110Y-102026000D01*
X60236890Y-102026000D01*
X60195409Y-102021915D01*
X60161431Y-102011607D01*
X60130110Y-101994866D01*
X60102661Y-101972339D01*
X60080134Y-101944890D01*
X60063393Y-101913569D01*
X60053085Y-101879591D01*
X60049000Y-101838110D01*
X60049000Y-101161890D01*
X60053085Y-101120409D01*
X60063393Y-101086431D01*
X60080134Y-101055110D01*
X60102661Y-101027661D01*
X60130110Y-101005134D01*
X60161431Y-100988393D01*
X60195409Y-100978085D01*
X60236890Y-100974000D01*
X60838110Y-100974000D01*
X60879591Y-100978085D01*
X60879591Y-100978085D01*
G37*
G36*
X138870015Y-100456973D02*
G01*
X138973879Y-100488479D01*
X139001055Y-100503005D01*
X139069600Y-100539643D01*
X139153501Y-100608499D01*
X139222357Y-100692400D01*
X139250332Y-100744738D01*
X139273521Y-100788121D01*
X139305027Y-100891985D01*
X139315666Y-101000000D01*
X139305027Y-101108015D01*
X139273521Y-101211879D01*
X139258995Y-101239055D01*
X139222357Y-101307600D01*
X139153501Y-101391501D01*
X139069600Y-101460357D01*
X139001055Y-101496995D01*
X138973879Y-101511521D01*
X138870015Y-101543027D01*
X138789067Y-101551000D01*
X138210933Y-101551000D01*
X138129985Y-101543027D01*
X138026121Y-101511521D01*
X137998945Y-101496995D01*
X137930400Y-101460357D01*
X137846499Y-101391501D01*
X137777643Y-101307600D01*
X137741005Y-101239055D01*
X137726479Y-101211879D01*
X137694973Y-101108015D01*
X137684334Y-101000000D01*
X137694973Y-100891985D01*
X137726479Y-100788121D01*
X137749668Y-100744738D01*
X137777643Y-100692400D01*
X137846499Y-100608499D01*
X137930400Y-100539643D01*
X137998945Y-100503005D01*
X138026121Y-100488479D01*
X138129985Y-100456973D01*
X138210933Y-100449000D01*
X138789067Y-100449000D01*
X138870015Y-100456973D01*
X138870015Y-100456973D01*
G37*
G36*
X105251000Y-101101000D02*
G01*
X104149000Y-101101000D01*
X104149000Y-100299000D01*
X105251000Y-100299000D01*
X105251000Y-101101000D01*
X105251000Y-101101000D01*
G37*
G36*
X107304591Y-99978085D02*
G01*
X107338569Y-99988393D01*
X107369890Y-100005134D01*
X107397339Y-100027661D01*
X107419866Y-100055110D01*
X107436607Y-100086431D01*
X107446915Y-100120409D01*
X107451000Y-100161890D01*
X107451000Y-100838110D01*
X107446915Y-100879591D01*
X107436607Y-100913569D01*
X107419866Y-100944890D01*
X107397339Y-100972339D01*
X107369890Y-100994866D01*
X107338569Y-101011607D01*
X107304591Y-101021915D01*
X107263110Y-101026000D01*
X106661890Y-101026000D01*
X106620409Y-101021915D01*
X106586431Y-101011607D01*
X106555110Y-100994866D01*
X106527661Y-100972339D01*
X106505134Y-100944890D01*
X106488393Y-100913569D01*
X106478085Y-100879591D01*
X106474000Y-100838110D01*
X106474000Y-100161890D01*
X106478085Y-100120409D01*
X106488393Y-100086431D01*
X106505134Y-100055110D01*
X106527661Y-100027661D01*
X106555110Y-100005134D01*
X106586431Y-99988393D01*
X106620409Y-99978085D01*
X106661890Y-99974000D01*
X107263110Y-99974000D01*
X107304591Y-99978085D01*
X107304591Y-99978085D01*
G37*
G36*
X108879591Y-99978085D02*
G01*
X108913569Y-99988393D01*
X108944890Y-100005134D01*
X108972339Y-100027661D01*
X108994866Y-100055110D01*
X109011607Y-100086431D01*
X109021915Y-100120409D01*
X109026000Y-100161890D01*
X109026000Y-100838110D01*
X109021915Y-100879591D01*
X109011607Y-100913569D01*
X108994866Y-100944890D01*
X108972339Y-100972339D01*
X108944890Y-100994866D01*
X108913569Y-101011607D01*
X108879591Y-101021915D01*
X108838110Y-101026000D01*
X108236890Y-101026000D01*
X108195409Y-101021915D01*
X108161431Y-101011607D01*
X108130110Y-100994866D01*
X108102661Y-100972339D01*
X108080134Y-100944890D01*
X108063393Y-100913569D01*
X108053085Y-100879591D01*
X108049000Y-100838110D01*
X108049000Y-100161890D01*
X108053085Y-100120409D01*
X108063393Y-100086431D01*
X108080134Y-100055110D01*
X108102661Y-100027661D01*
X108130110Y-100005134D01*
X108161431Y-99988393D01*
X108195409Y-99978085D01*
X108236890Y-99974000D01*
X108838110Y-99974000D01*
X108879591Y-99978085D01*
X108879591Y-99978085D01*
G37*
G36*
X69159928Y-100186764D02*
G01*
X69181009Y-100193160D01*
X69200445Y-100203548D01*
X69217476Y-100217524D01*
X69231452Y-100234555D01*
X69241840Y-100253991D01*
X69248236Y-100275072D01*
X69251000Y-100303140D01*
X69251000Y-100766860D01*
X69248236Y-100794928D01*
X69241840Y-100816009D01*
X69231452Y-100835445D01*
X69217476Y-100852476D01*
X69200445Y-100866452D01*
X69181009Y-100876840D01*
X69159928Y-100883236D01*
X69131860Y-100886000D01*
X67318140Y-100886000D01*
X67290072Y-100883236D01*
X67268991Y-100876840D01*
X67249555Y-100866452D01*
X67232524Y-100852476D01*
X67218548Y-100835445D01*
X67208160Y-100816009D01*
X67201764Y-100794928D01*
X67199000Y-100766860D01*
X67199000Y-100303140D01*
X67201764Y-100275072D01*
X67208160Y-100253991D01*
X67218548Y-100234555D01*
X67232524Y-100217524D01*
X67249555Y-100203548D01*
X67268991Y-100193160D01*
X67290072Y-100186764D01*
X67318140Y-100184000D01*
X69131860Y-100184000D01*
X69159928Y-100186764D01*
X69159928Y-100186764D01*
G37*
G36*
X64209928Y-100186764D02*
G01*
X64231009Y-100193160D01*
X64250445Y-100203548D01*
X64267476Y-100217524D01*
X64281452Y-100234555D01*
X64291840Y-100253991D01*
X64298236Y-100275072D01*
X64301000Y-100303140D01*
X64301000Y-100766860D01*
X64298236Y-100794928D01*
X64291840Y-100816009D01*
X64281452Y-100835445D01*
X64267476Y-100852476D01*
X64250445Y-100866452D01*
X64231009Y-100876840D01*
X64209928Y-100883236D01*
X64181860Y-100886000D01*
X62368140Y-100886000D01*
X62340072Y-100883236D01*
X62318991Y-100876840D01*
X62299555Y-100866452D01*
X62282524Y-100852476D01*
X62268548Y-100835445D01*
X62258160Y-100816009D01*
X62251764Y-100794928D01*
X62249000Y-100766860D01*
X62249000Y-100303140D01*
X62251764Y-100275072D01*
X62258160Y-100253991D01*
X62268548Y-100234555D01*
X62282524Y-100217524D01*
X62299555Y-100203548D01*
X62318991Y-100193160D01*
X62340072Y-100186764D01*
X62368140Y-100184000D01*
X64181860Y-100184000D01*
X64209928Y-100186764D01*
X64209928Y-100186764D01*
G37*
G36*
X128201000Y-100651000D02*
G01*
X126599000Y-100651000D01*
X126599000Y-99549000D01*
X128201000Y-99549000D01*
X128201000Y-100651000D01*
X128201000Y-100651000D01*
G37*
G36*
X123201000Y-100651000D02*
G01*
X121599000Y-100651000D01*
X121599000Y-99549000D01*
X123201000Y-99549000D01*
X123201000Y-100651000D01*
X123201000Y-100651000D01*
G37*
G36*
X102851000Y-100151000D02*
G01*
X101749000Y-100151000D01*
X101749000Y-99349000D01*
X102851000Y-99349000D01*
X102851000Y-100151000D01*
X102851000Y-100151000D01*
G37*
G36*
X138870015Y-98956973D02*
G01*
X138973879Y-98988479D01*
X138985828Y-98994866D01*
X139069600Y-99039643D01*
X139153501Y-99108499D01*
X139222357Y-99192400D01*
X139258995Y-99260945D01*
X139273521Y-99288121D01*
X139305027Y-99391985D01*
X139315666Y-99500000D01*
X139305027Y-99608015D01*
X139273521Y-99711879D01*
X139273519Y-99711882D01*
X139222357Y-99807600D01*
X139153501Y-99891501D01*
X139069600Y-99960357D01*
X139017148Y-99988393D01*
X138973879Y-100011521D01*
X138870015Y-100043027D01*
X138789067Y-100051000D01*
X138210933Y-100051000D01*
X138129985Y-100043027D01*
X138026121Y-100011521D01*
X137982852Y-99988393D01*
X137930400Y-99960357D01*
X137846499Y-99891501D01*
X137777643Y-99807600D01*
X137726481Y-99711882D01*
X137726479Y-99711879D01*
X137694973Y-99608015D01*
X137684334Y-99500000D01*
X137694973Y-99391985D01*
X137726479Y-99288121D01*
X137741005Y-99260945D01*
X137777643Y-99192400D01*
X137846499Y-99108499D01*
X137930400Y-99039643D01*
X138014172Y-98994866D01*
X138026121Y-98988479D01*
X138129985Y-98956973D01*
X138210933Y-98949000D01*
X138789067Y-98949000D01*
X138870015Y-98956973D01*
X138870015Y-98956973D01*
G37*
G36*
X69159928Y-98916764D02*
G01*
X69181009Y-98923160D01*
X69200445Y-98933548D01*
X69217476Y-98947524D01*
X69231452Y-98964555D01*
X69241840Y-98983991D01*
X69248236Y-99005072D01*
X69251000Y-99033140D01*
X69251000Y-99496860D01*
X69248236Y-99524928D01*
X69241840Y-99546009D01*
X69231452Y-99565445D01*
X69217476Y-99582476D01*
X69200445Y-99596452D01*
X69181009Y-99606840D01*
X69159928Y-99613236D01*
X69131860Y-99616000D01*
X67318140Y-99616000D01*
X67290072Y-99613236D01*
X67268991Y-99606840D01*
X67249555Y-99596452D01*
X67232524Y-99582476D01*
X67218548Y-99565445D01*
X67208160Y-99546009D01*
X67201764Y-99524928D01*
X67199000Y-99496860D01*
X67199000Y-99033140D01*
X67201764Y-99005072D01*
X67208160Y-98983991D01*
X67218548Y-98964555D01*
X67232524Y-98947524D01*
X67249555Y-98933548D01*
X67268991Y-98923160D01*
X67290072Y-98916764D01*
X67318140Y-98914000D01*
X69131860Y-98914000D01*
X69159928Y-98916764D01*
X69159928Y-98916764D01*
G37*
G36*
X64209928Y-98916764D02*
G01*
X64231009Y-98923160D01*
X64250445Y-98933548D01*
X64267476Y-98947524D01*
X64281452Y-98964555D01*
X64291840Y-98983991D01*
X64298236Y-99005072D01*
X64301000Y-99033140D01*
X64301000Y-99496860D01*
X64298236Y-99524928D01*
X64291840Y-99546009D01*
X64281452Y-99565445D01*
X64267476Y-99582476D01*
X64250445Y-99596452D01*
X64231009Y-99606840D01*
X64209928Y-99613236D01*
X64181860Y-99616000D01*
X62368140Y-99616000D01*
X62340072Y-99613236D01*
X62318991Y-99606840D01*
X62299555Y-99596452D01*
X62282524Y-99582476D01*
X62268548Y-99565445D01*
X62258160Y-99546009D01*
X62251764Y-99524928D01*
X62249000Y-99496860D01*
X62249000Y-99033140D01*
X62251764Y-99005072D01*
X62258160Y-98983991D01*
X62268548Y-98964555D01*
X62282524Y-98947524D01*
X62299555Y-98933548D01*
X62318991Y-98923160D01*
X62340072Y-98916764D01*
X62368140Y-98914000D01*
X64181860Y-98914000D01*
X64209928Y-98916764D01*
X64209928Y-98916764D01*
G37*
G36*
X51537866Y-92800856D02*
G01*
X52138609Y-93049692D01*
X52138611Y-93049693D01*
X52679266Y-93410947D01*
X53139055Y-93870736D01*
X53500309Y-94411391D01*
X53500310Y-94411393D01*
X53749146Y-95012136D01*
X53876001Y-95649880D01*
X53876001Y-96300122D01*
X53749146Y-96937866D01*
X53505154Y-97526915D01*
X53500309Y-97538611D01*
X53139055Y-98079266D01*
X52679266Y-98539055D01*
X52138611Y-98900309D01*
X52138610Y-98900310D01*
X52138609Y-98900310D01*
X51537866Y-99149146D01*
X50900122Y-99276001D01*
X50249880Y-99276001D01*
X49612136Y-99149146D01*
X49011393Y-98900310D01*
X49011392Y-98900310D01*
X49011391Y-98900309D01*
X48470736Y-98539055D01*
X48010947Y-98079266D01*
X47649693Y-97538611D01*
X47644848Y-97526915D01*
X47400856Y-96937866D01*
X47274001Y-96300122D01*
X47274001Y-95649880D01*
X47400856Y-95012136D01*
X47649692Y-94411393D01*
X47649693Y-94411391D01*
X48010947Y-93870736D01*
X48470736Y-93410947D01*
X49011391Y-93049693D01*
X49011393Y-93049692D01*
X49612136Y-92800856D01*
X50249880Y-92674001D01*
X50900122Y-92674001D01*
X51537866Y-92800856D01*
X51537866Y-92800856D01*
G37*
G36*
X58537866Y-92800856D02*
G01*
X59138609Y-93049692D01*
X59138611Y-93049693D01*
X59679266Y-93410947D01*
X60139055Y-93870736D01*
X60500309Y-94411391D01*
X60500310Y-94411393D01*
X60749146Y-95012136D01*
X60876001Y-95649880D01*
X60876001Y-96300122D01*
X60749146Y-96937866D01*
X60505154Y-97526915D01*
X60500309Y-97538611D01*
X60139055Y-98079266D01*
X59679266Y-98539055D01*
X59138611Y-98900309D01*
X59138610Y-98900310D01*
X59138609Y-98900310D01*
X58537866Y-99149146D01*
X57900122Y-99276001D01*
X57249880Y-99276001D01*
X56612136Y-99149146D01*
X56011393Y-98900310D01*
X56011392Y-98900310D01*
X56011391Y-98900309D01*
X55470736Y-98539055D01*
X55010947Y-98079266D01*
X54649693Y-97538611D01*
X54644848Y-97526915D01*
X54400856Y-96937866D01*
X54274001Y-96300122D01*
X54274001Y-95649880D01*
X54400856Y-95012136D01*
X54649692Y-94411393D01*
X54649693Y-94411391D01*
X55010947Y-93870736D01*
X55470736Y-93410947D01*
X56011391Y-93049693D01*
X56011393Y-93049692D01*
X56612136Y-92800856D01*
X57249880Y-92674001D01*
X57900122Y-92674001D01*
X58537866Y-92800856D01*
X58537866Y-92800856D01*
G37*
G36*
X105251000Y-99201000D02*
G01*
X104149000Y-99201000D01*
X104149000Y-98399000D01*
X105251000Y-98399000D01*
X105251000Y-99201000D01*
X105251000Y-99201000D01*
G37*
G36*
X129629591Y-98053085D02*
G01*
X129663569Y-98063393D01*
X129694890Y-98080134D01*
X129722339Y-98102661D01*
X129744866Y-98130110D01*
X129764761Y-98167331D01*
X129778375Y-98187705D01*
X129795702Y-98205032D01*
X129816076Y-98218646D01*
X129838715Y-98228023D01*
X129862749Y-98232803D01*
X129887253Y-98232803D01*
X129911286Y-98228022D01*
X129933925Y-98218645D01*
X129954299Y-98205031D01*
X129971626Y-98187704D01*
X129985239Y-98167331D01*
X130005134Y-98130110D01*
X130027661Y-98102661D01*
X130055110Y-98080134D01*
X130086431Y-98063393D01*
X130120409Y-98053085D01*
X130161890Y-98049000D01*
X130838110Y-98049000D01*
X130879591Y-98053085D01*
X130913569Y-98063393D01*
X130944890Y-98080134D01*
X130972339Y-98102661D01*
X130994866Y-98130110D01*
X131014761Y-98167331D01*
X131028375Y-98187705D01*
X131045702Y-98205032D01*
X131066076Y-98218646D01*
X131088715Y-98228023D01*
X131112749Y-98232803D01*
X131137253Y-98232803D01*
X131161286Y-98228022D01*
X131183925Y-98218645D01*
X131204299Y-98205031D01*
X131221626Y-98187704D01*
X131235239Y-98167331D01*
X131255134Y-98130110D01*
X131277661Y-98102661D01*
X131305110Y-98080134D01*
X131336431Y-98063393D01*
X131370409Y-98053085D01*
X131411890Y-98049000D01*
X132088110Y-98049000D01*
X132129591Y-98053085D01*
X132163569Y-98063393D01*
X132194890Y-98080134D01*
X132222339Y-98102661D01*
X132244866Y-98130110D01*
X132261607Y-98161431D01*
X132271915Y-98195409D01*
X132274154Y-98218143D01*
X132278935Y-98242177D01*
X132288312Y-98264815D01*
X132301926Y-98285190D01*
X132319254Y-98302516D01*
X132339628Y-98316130D01*
X132362267Y-98325507D01*
X132386300Y-98330287D01*
X132410804Y-98330287D01*
X132434838Y-98325506D01*
X132457476Y-98316129D01*
X132477851Y-98302515D01*
X132495177Y-98285187D01*
X132508791Y-98264813D01*
X132518168Y-98242172D01*
X132518393Y-98241431D01*
X132535134Y-98210110D01*
X132557661Y-98182661D01*
X132585110Y-98160134D01*
X132616431Y-98143393D01*
X132650409Y-98133085D01*
X132691890Y-98129000D01*
X133368110Y-98129000D01*
X133409591Y-98133085D01*
X133443569Y-98143393D01*
X133474890Y-98160134D01*
X133502339Y-98182661D01*
X133524866Y-98210110D01*
X133541607Y-98241431D01*
X133551915Y-98275409D01*
X133556000Y-98316890D01*
X133556000Y-98918110D01*
X133551915Y-98959591D01*
X133541607Y-98993569D01*
X133524866Y-99024890D01*
X133502339Y-99052339D01*
X133474890Y-99074866D01*
X133443569Y-99091607D01*
X133409591Y-99101915D01*
X133368110Y-99106000D01*
X132691890Y-99106000D01*
X132650409Y-99101915D01*
X132616431Y-99091607D01*
X132585110Y-99074866D01*
X132557661Y-99052339D01*
X132535134Y-99024890D01*
X132518393Y-98993569D01*
X132508085Y-98959591D01*
X132505846Y-98936857D01*
X132501065Y-98912823D01*
X132491688Y-98890185D01*
X132478074Y-98869810D01*
X132460746Y-98852484D01*
X132440372Y-98838870D01*
X132417733Y-98829493D01*
X132393700Y-98824713D01*
X132369196Y-98824713D01*
X132345162Y-98829494D01*
X132322524Y-98838871D01*
X132302149Y-98852485D01*
X132284823Y-98869813D01*
X132271209Y-98890187D01*
X132261832Y-98912828D01*
X132261607Y-98913569D01*
X132244866Y-98944890D01*
X132222339Y-98972339D01*
X132194890Y-98994866D01*
X132163569Y-99011607D01*
X132129591Y-99021915D01*
X132088110Y-99026000D01*
X131411890Y-99026000D01*
X131370409Y-99021915D01*
X131336431Y-99011607D01*
X131305110Y-98994866D01*
X131277661Y-98972339D01*
X131255134Y-98944890D01*
X131235239Y-98907669D01*
X131221625Y-98887295D01*
X131204298Y-98869968D01*
X131183924Y-98856354D01*
X131161285Y-98846977D01*
X131137251Y-98842197D01*
X131112747Y-98842197D01*
X131088714Y-98846978D01*
X131066075Y-98856355D01*
X131045701Y-98869969D01*
X131028374Y-98887296D01*
X131014761Y-98907669D01*
X130994866Y-98944890D01*
X130972339Y-98972339D01*
X130944890Y-98994866D01*
X130913569Y-99011607D01*
X130879591Y-99021915D01*
X130838110Y-99026000D01*
X130161890Y-99026000D01*
X130120409Y-99021915D01*
X130086431Y-99011607D01*
X130055110Y-98994866D01*
X130027661Y-98972339D01*
X130005134Y-98944890D01*
X129985239Y-98907669D01*
X129971625Y-98887295D01*
X129954298Y-98869968D01*
X129933924Y-98856354D01*
X129911285Y-98846977D01*
X129887251Y-98842197D01*
X129862747Y-98842197D01*
X129838714Y-98846978D01*
X129816075Y-98856355D01*
X129795701Y-98869969D01*
X129778374Y-98887296D01*
X129764761Y-98907669D01*
X129744866Y-98944890D01*
X129722339Y-98972339D01*
X129694890Y-98994866D01*
X129663569Y-99011607D01*
X129629591Y-99021915D01*
X129588110Y-99026000D01*
X128911890Y-99026000D01*
X128870409Y-99021915D01*
X128836431Y-99011607D01*
X128805110Y-98994866D01*
X128777661Y-98972339D01*
X128755134Y-98944890D01*
X128738393Y-98913569D01*
X128728085Y-98879591D01*
X128724000Y-98838110D01*
X128724000Y-98236890D01*
X128728085Y-98195409D01*
X128738393Y-98161431D01*
X128755134Y-98130110D01*
X128777661Y-98102661D01*
X128805110Y-98080134D01*
X128836431Y-98063393D01*
X128870409Y-98053085D01*
X128911890Y-98049000D01*
X129588110Y-98049000D01*
X129629591Y-98053085D01*
X129629591Y-98053085D01*
G37*
G36*
X128201000Y-99051000D02*
G01*
X126599000Y-99051000D01*
X126599000Y-97949000D01*
X128201000Y-97949000D01*
X128201000Y-99051000D01*
X128201000Y-99051000D01*
G37*
G36*
X123201000Y-99051000D02*
G01*
X121599000Y-99051000D01*
X121599000Y-97949000D01*
X123201000Y-97949000D01*
X123201000Y-99051000D01*
X123201000Y-99051000D01*
G37*
G36*
X118879591Y-97803085D02*
G01*
X118913569Y-97813393D01*
X118944890Y-97830134D01*
X118972339Y-97852661D01*
X118994866Y-97880110D01*
X119011607Y-97911431D01*
X119021915Y-97945409D01*
X119026000Y-97986890D01*
X119026000Y-98588110D01*
X119021915Y-98629591D01*
X119011607Y-98663569D01*
X118994866Y-98694890D01*
X118972339Y-98722339D01*
X118944890Y-98744866D01*
X118913569Y-98761607D01*
X118879591Y-98771915D01*
X118838110Y-98776000D01*
X118161890Y-98776000D01*
X118120409Y-98771915D01*
X118086431Y-98761607D01*
X118055110Y-98744866D01*
X118027661Y-98722339D01*
X118005134Y-98694890D01*
X117988393Y-98663569D01*
X117978085Y-98629591D01*
X117974000Y-98588110D01*
X117974000Y-97986890D01*
X117978085Y-97945409D01*
X117988393Y-97911431D01*
X118005134Y-97880110D01*
X118027661Y-97852661D01*
X118055110Y-97830134D01*
X118086431Y-97813393D01*
X118120409Y-97803085D01*
X118161890Y-97799000D01*
X118838110Y-97799000D01*
X118879591Y-97803085D01*
X118879591Y-97803085D01*
G37*
G36*
X120379591Y-97803085D02*
G01*
X120413569Y-97813393D01*
X120444890Y-97830134D01*
X120472339Y-97852661D01*
X120494866Y-97880110D01*
X120511607Y-97911431D01*
X120521915Y-97945409D01*
X120526000Y-97986890D01*
X120526000Y-98588110D01*
X120521915Y-98629591D01*
X120511607Y-98663569D01*
X120494866Y-98694890D01*
X120472339Y-98722339D01*
X120444890Y-98744866D01*
X120413569Y-98761607D01*
X120379591Y-98771915D01*
X120338110Y-98776000D01*
X119661890Y-98776000D01*
X119620409Y-98771915D01*
X119586431Y-98761607D01*
X119555110Y-98744866D01*
X119527661Y-98722339D01*
X119505134Y-98694890D01*
X119488393Y-98663569D01*
X119478085Y-98629591D01*
X119474000Y-98588110D01*
X119474000Y-97986890D01*
X119478085Y-97945409D01*
X119488393Y-97911431D01*
X119505134Y-97880110D01*
X119527661Y-97852661D01*
X119555110Y-97830134D01*
X119586431Y-97813393D01*
X119620409Y-97803085D01*
X119661890Y-97799000D01*
X120338110Y-97799000D01*
X120379591Y-97803085D01*
X120379591Y-97803085D01*
G37*
G36*
X115879591Y-97803085D02*
G01*
X115913569Y-97813393D01*
X115944890Y-97830134D01*
X115972339Y-97852661D01*
X115994866Y-97880110D01*
X116011607Y-97911431D01*
X116021915Y-97945409D01*
X116026000Y-97986890D01*
X116026000Y-98588110D01*
X116021915Y-98629591D01*
X116011607Y-98663569D01*
X115994866Y-98694890D01*
X115972339Y-98722339D01*
X115944890Y-98744866D01*
X115913569Y-98761607D01*
X115879591Y-98771915D01*
X115838110Y-98776000D01*
X115161890Y-98776000D01*
X115120409Y-98771915D01*
X115086431Y-98761607D01*
X115055110Y-98744866D01*
X115027661Y-98722339D01*
X115005134Y-98694890D01*
X114988393Y-98663569D01*
X114978085Y-98629591D01*
X114974000Y-98588110D01*
X114974000Y-97986890D01*
X114978085Y-97945409D01*
X114988393Y-97911431D01*
X115005134Y-97880110D01*
X115027661Y-97852661D01*
X115055110Y-97830134D01*
X115086431Y-97813393D01*
X115120409Y-97803085D01*
X115161890Y-97799000D01*
X115838110Y-97799000D01*
X115879591Y-97803085D01*
X115879591Y-97803085D01*
G37*
G36*
X117379591Y-97803085D02*
G01*
X117413569Y-97813393D01*
X117444890Y-97830134D01*
X117472339Y-97852661D01*
X117494866Y-97880110D01*
X117511607Y-97911431D01*
X117521915Y-97945409D01*
X117526000Y-97986890D01*
X117526000Y-98588110D01*
X117521915Y-98629591D01*
X117511607Y-98663569D01*
X117494866Y-98694890D01*
X117472339Y-98722339D01*
X117444890Y-98744866D01*
X117413569Y-98761607D01*
X117379591Y-98771915D01*
X117338110Y-98776000D01*
X116661890Y-98776000D01*
X116620409Y-98771915D01*
X116586431Y-98761607D01*
X116555110Y-98744866D01*
X116527661Y-98722339D01*
X116505134Y-98694890D01*
X116488393Y-98663569D01*
X116478085Y-98629591D01*
X116474000Y-98588110D01*
X116474000Y-97986890D01*
X116478085Y-97945409D01*
X116488393Y-97911431D01*
X116505134Y-97880110D01*
X116527661Y-97852661D01*
X116555110Y-97830134D01*
X116586431Y-97813393D01*
X116620409Y-97803085D01*
X116661890Y-97799000D01*
X117338110Y-97799000D01*
X117379591Y-97803085D01*
X117379591Y-97803085D01*
G37*
G36*
X138870015Y-97456973D02*
G01*
X138973879Y-97488479D01*
X138995182Y-97499866D01*
X139069600Y-97539643D01*
X139153501Y-97608499D01*
X139222357Y-97692400D01*
X139254395Y-97752339D01*
X139273521Y-97788121D01*
X139305027Y-97891985D01*
X139315666Y-98000000D01*
X139305027Y-98108015D01*
X139273521Y-98211879D01*
X139269904Y-98218645D01*
X139222357Y-98307600D01*
X139153501Y-98391501D01*
X139069600Y-98460357D01*
X139001055Y-98496995D01*
X138973879Y-98511521D01*
X138870015Y-98543027D01*
X138789067Y-98551000D01*
X138210933Y-98551000D01*
X138129985Y-98543027D01*
X138026121Y-98511521D01*
X137998945Y-98496995D01*
X137930400Y-98460357D01*
X137846499Y-98391501D01*
X137777643Y-98307600D01*
X137730096Y-98218645D01*
X137726479Y-98211879D01*
X137694973Y-98108015D01*
X137684334Y-98000000D01*
X137694973Y-97891985D01*
X137726479Y-97788121D01*
X137745605Y-97752339D01*
X137777643Y-97692400D01*
X137846499Y-97608499D01*
X137930400Y-97539643D01*
X138004818Y-97499866D01*
X138026121Y-97488479D01*
X138129985Y-97456973D01*
X138210933Y-97449000D01*
X138789067Y-97449000D01*
X138870015Y-97456973D01*
X138870015Y-97456973D01*
G37*
G36*
X69159928Y-97646764D02*
G01*
X69181009Y-97653160D01*
X69200445Y-97663548D01*
X69217476Y-97677524D01*
X69231452Y-97694555D01*
X69241840Y-97713991D01*
X69248236Y-97735072D01*
X69251000Y-97763140D01*
X69251000Y-98226860D01*
X69248236Y-98254928D01*
X69241840Y-98276009D01*
X69231452Y-98295445D01*
X69217476Y-98312476D01*
X69200445Y-98326452D01*
X69181009Y-98336840D01*
X69159928Y-98343236D01*
X69131860Y-98346000D01*
X67318140Y-98346000D01*
X67290072Y-98343236D01*
X67268991Y-98336840D01*
X67249555Y-98326452D01*
X67232524Y-98312476D01*
X67218548Y-98295445D01*
X67208160Y-98276009D01*
X67201764Y-98254928D01*
X67199000Y-98226860D01*
X67199000Y-97763140D01*
X67201764Y-97735072D01*
X67208160Y-97713991D01*
X67218548Y-97694555D01*
X67232524Y-97677524D01*
X67249555Y-97663548D01*
X67268991Y-97653160D01*
X67290072Y-97646764D01*
X67318140Y-97644000D01*
X69131860Y-97644000D01*
X69159928Y-97646764D01*
X69159928Y-97646764D01*
G37*
G36*
X64209928Y-97646764D02*
G01*
X64231009Y-97653160D01*
X64250445Y-97663548D01*
X64267476Y-97677524D01*
X64281452Y-97694555D01*
X64291840Y-97713991D01*
X64298236Y-97735072D01*
X64301000Y-97763140D01*
X64301000Y-98226860D01*
X64298236Y-98254928D01*
X64291840Y-98276009D01*
X64281452Y-98295445D01*
X64267476Y-98312476D01*
X64250445Y-98326452D01*
X64231009Y-98336840D01*
X64209928Y-98343236D01*
X64181860Y-98346000D01*
X62368140Y-98346000D01*
X62340072Y-98343236D01*
X62318991Y-98336840D01*
X62299555Y-98326452D01*
X62282524Y-98312476D01*
X62268548Y-98295445D01*
X62258160Y-98276009D01*
X62251764Y-98254928D01*
X62249000Y-98226860D01*
X62249000Y-97763140D01*
X62251764Y-97735072D01*
X62258160Y-97713991D01*
X62268548Y-97694555D01*
X62282524Y-97677524D01*
X62299555Y-97663548D01*
X62318991Y-97653160D01*
X62340072Y-97646764D01*
X62368140Y-97644000D01*
X64181860Y-97644000D01*
X64209928Y-97646764D01*
X64209928Y-97646764D01*
G37*
G36*
X109951000Y-98201000D02*
G01*
X108349000Y-98201000D01*
X108349000Y-95499000D01*
X109951000Y-95499000D01*
X109951000Y-98201000D01*
X109951000Y-98201000D01*
G37*
G36*
X113551000Y-98151000D02*
G01*
X111949000Y-98151000D01*
X111949000Y-95449000D01*
X113551000Y-95449000D01*
X113551000Y-98151000D01*
X113551000Y-98151000D01*
G37*
G36*
X129629591Y-96478085D02*
G01*
X129663569Y-96488393D01*
X129694890Y-96505134D01*
X129722339Y-96527661D01*
X129744866Y-96555110D01*
X129764761Y-96592331D01*
X129778375Y-96612705D01*
X129795702Y-96630032D01*
X129816076Y-96643646D01*
X129838715Y-96653023D01*
X129862749Y-96657803D01*
X129887253Y-96657803D01*
X129911286Y-96653022D01*
X129933925Y-96643645D01*
X129954299Y-96630031D01*
X129971626Y-96612704D01*
X129985239Y-96592331D01*
X130005134Y-96555110D01*
X130027661Y-96527661D01*
X130055110Y-96505134D01*
X130086431Y-96488393D01*
X130120409Y-96478085D01*
X130161890Y-96474000D01*
X130838110Y-96474000D01*
X130879591Y-96478085D01*
X130913569Y-96488393D01*
X130944890Y-96505134D01*
X130972339Y-96527661D01*
X130994866Y-96555110D01*
X131014761Y-96592331D01*
X131028375Y-96612705D01*
X131045702Y-96630032D01*
X131066076Y-96643646D01*
X131088715Y-96653023D01*
X131112749Y-96657803D01*
X131137253Y-96657803D01*
X131161286Y-96653022D01*
X131183925Y-96643645D01*
X131204299Y-96630031D01*
X131221626Y-96612704D01*
X131235239Y-96592331D01*
X131255134Y-96555110D01*
X131277661Y-96527661D01*
X131305110Y-96505134D01*
X131336431Y-96488393D01*
X131370409Y-96478085D01*
X131411890Y-96474000D01*
X132088110Y-96474000D01*
X132129591Y-96478085D01*
X132163569Y-96488393D01*
X132194890Y-96505134D01*
X132222339Y-96527661D01*
X132244866Y-96555110D01*
X132261607Y-96586431D01*
X132271915Y-96620409D01*
X132274154Y-96643143D01*
X132278935Y-96667177D01*
X132288312Y-96689815D01*
X132301926Y-96710190D01*
X132319254Y-96727516D01*
X132339628Y-96741130D01*
X132362267Y-96750507D01*
X132386300Y-96755287D01*
X132410804Y-96755287D01*
X132434838Y-96750506D01*
X132457476Y-96741129D01*
X132477851Y-96727515D01*
X132495177Y-96710187D01*
X132508791Y-96689813D01*
X132518168Y-96667172D01*
X132518393Y-96666431D01*
X132535134Y-96635110D01*
X132557661Y-96607661D01*
X132585110Y-96585134D01*
X132616431Y-96568393D01*
X132650409Y-96558085D01*
X132691890Y-96554000D01*
X133368110Y-96554000D01*
X133409591Y-96558085D01*
X133443569Y-96568393D01*
X133474890Y-96585134D01*
X133502339Y-96607661D01*
X133524866Y-96635110D01*
X133541607Y-96666431D01*
X133551915Y-96700409D01*
X133556000Y-96741890D01*
X133556000Y-97343110D01*
X133551915Y-97384591D01*
X133541607Y-97418569D01*
X133524866Y-97449890D01*
X133502339Y-97477339D01*
X133474890Y-97499866D01*
X133443569Y-97516607D01*
X133409591Y-97526915D01*
X133368110Y-97531000D01*
X132691890Y-97531000D01*
X132650409Y-97526915D01*
X132616431Y-97516607D01*
X132585110Y-97499866D01*
X132557661Y-97477339D01*
X132535134Y-97449890D01*
X132518393Y-97418569D01*
X132508085Y-97384591D01*
X132505846Y-97361857D01*
X132501065Y-97337823D01*
X132491688Y-97315185D01*
X132478074Y-97294810D01*
X132460746Y-97277484D01*
X132440372Y-97263870D01*
X132417733Y-97254493D01*
X132393700Y-97249713D01*
X132369196Y-97249713D01*
X132345162Y-97254494D01*
X132322524Y-97263871D01*
X132302149Y-97277485D01*
X132284823Y-97294813D01*
X132271209Y-97315187D01*
X132261832Y-97337828D01*
X132261607Y-97338569D01*
X132244866Y-97369890D01*
X132222339Y-97397339D01*
X132194890Y-97419866D01*
X132163569Y-97436607D01*
X132129591Y-97446915D01*
X132088110Y-97451000D01*
X131411890Y-97451000D01*
X131370409Y-97446915D01*
X131336431Y-97436607D01*
X131305110Y-97419866D01*
X131277661Y-97397339D01*
X131255134Y-97369890D01*
X131235239Y-97332669D01*
X131221625Y-97312295D01*
X131204298Y-97294968D01*
X131183924Y-97281354D01*
X131161285Y-97271977D01*
X131137251Y-97267197D01*
X131112747Y-97267197D01*
X131088714Y-97271978D01*
X131066075Y-97281355D01*
X131045701Y-97294969D01*
X131028374Y-97312296D01*
X131014761Y-97332669D01*
X130994866Y-97369890D01*
X130972339Y-97397339D01*
X130944890Y-97419866D01*
X130913569Y-97436607D01*
X130879591Y-97446915D01*
X130838110Y-97451000D01*
X130161890Y-97451000D01*
X130120409Y-97446915D01*
X130086431Y-97436607D01*
X130055110Y-97419866D01*
X130027661Y-97397339D01*
X130005134Y-97369890D01*
X129985239Y-97332669D01*
X129971625Y-97312295D01*
X129954298Y-97294968D01*
X129933924Y-97281354D01*
X129911285Y-97271977D01*
X129887251Y-97267197D01*
X129862747Y-97267197D01*
X129838714Y-97271978D01*
X129816075Y-97281355D01*
X129795701Y-97294969D01*
X129778374Y-97312296D01*
X129764761Y-97332669D01*
X129744866Y-97369890D01*
X129722339Y-97397339D01*
X129694890Y-97419866D01*
X129663569Y-97436607D01*
X129629591Y-97446915D01*
X129588110Y-97451000D01*
X128911890Y-97451000D01*
X128870409Y-97446915D01*
X128836431Y-97436607D01*
X128805110Y-97419866D01*
X128777661Y-97397339D01*
X128755134Y-97369890D01*
X128738393Y-97338569D01*
X128728085Y-97304591D01*
X128724000Y-97263110D01*
X128724000Y-96661890D01*
X128728085Y-96620409D01*
X128738393Y-96586431D01*
X128755134Y-96555110D01*
X128777661Y-96527661D01*
X128805110Y-96505134D01*
X128836431Y-96488393D01*
X128870409Y-96478085D01*
X128911890Y-96474000D01*
X129588110Y-96474000D01*
X129629591Y-96478085D01*
X129629591Y-96478085D01*
G37*
G36*
X123201000Y-97451000D02*
G01*
X121599000Y-97451000D01*
X121599000Y-96349000D01*
X123201000Y-96349000D01*
X123201000Y-97451000D01*
X123201000Y-97451000D01*
G37*
G36*
X128201000Y-97451000D02*
G01*
X126599000Y-97451000D01*
X126599000Y-96349000D01*
X128201000Y-96349000D01*
X128201000Y-97451000D01*
X128201000Y-97451000D01*
G37*
G36*
X117379591Y-96228085D02*
G01*
X117413569Y-96238393D01*
X117444890Y-96255134D01*
X117472339Y-96277661D01*
X117494866Y-96305110D01*
X117511607Y-96336431D01*
X117521915Y-96370409D01*
X117526000Y-96411890D01*
X117526000Y-97013110D01*
X117521915Y-97054591D01*
X117511607Y-97088569D01*
X117494866Y-97119890D01*
X117472339Y-97147339D01*
X117444890Y-97169866D01*
X117413569Y-97186607D01*
X117379591Y-97196915D01*
X117338110Y-97201000D01*
X116661890Y-97201000D01*
X116620409Y-97196915D01*
X116586431Y-97186607D01*
X116555110Y-97169866D01*
X116527661Y-97147339D01*
X116505134Y-97119890D01*
X116488393Y-97088569D01*
X116478085Y-97054591D01*
X116474000Y-97013110D01*
X116474000Y-96411890D01*
X116478085Y-96370409D01*
X116488393Y-96336431D01*
X116505134Y-96305110D01*
X116527661Y-96277661D01*
X116555110Y-96255134D01*
X116586431Y-96238393D01*
X116620409Y-96228085D01*
X116661890Y-96224000D01*
X117338110Y-96224000D01*
X117379591Y-96228085D01*
X117379591Y-96228085D01*
G37*
G36*
X115879591Y-96228085D02*
G01*
X115913569Y-96238393D01*
X115944890Y-96255134D01*
X115972339Y-96277661D01*
X115994866Y-96305110D01*
X116011607Y-96336431D01*
X116021915Y-96370409D01*
X116026000Y-96411890D01*
X116026000Y-97013110D01*
X116021915Y-97054591D01*
X116011607Y-97088569D01*
X115994866Y-97119890D01*
X115972339Y-97147339D01*
X115944890Y-97169866D01*
X115913569Y-97186607D01*
X115879591Y-97196915D01*
X115838110Y-97201000D01*
X115161890Y-97201000D01*
X115120409Y-97196915D01*
X115086431Y-97186607D01*
X115055110Y-97169866D01*
X115027661Y-97147339D01*
X115005134Y-97119890D01*
X114988393Y-97088569D01*
X114978085Y-97054591D01*
X114974000Y-97013110D01*
X114974000Y-96411890D01*
X114978085Y-96370409D01*
X114988393Y-96336431D01*
X115005134Y-96305110D01*
X115027661Y-96277661D01*
X115055110Y-96255134D01*
X115086431Y-96238393D01*
X115120409Y-96228085D01*
X115161890Y-96224000D01*
X115838110Y-96224000D01*
X115879591Y-96228085D01*
X115879591Y-96228085D01*
G37*
G36*
X118879591Y-96228085D02*
G01*
X118913569Y-96238393D01*
X118944890Y-96255134D01*
X118972339Y-96277661D01*
X118994866Y-96305110D01*
X119011607Y-96336431D01*
X119021915Y-96370409D01*
X119026000Y-96411890D01*
X119026000Y-97013110D01*
X119021915Y-97054591D01*
X119011607Y-97088569D01*
X118994866Y-97119890D01*
X118972339Y-97147339D01*
X118944890Y-97169866D01*
X118913569Y-97186607D01*
X118879591Y-97196915D01*
X118838110Y-97201000D01*
X118161890Y-97201000D01*
X118120409Y-97196915D01*
X118086431Y-97186607D01*
X118055110Y-97169866D01*
X118027661Y-97147339D01*
X118005134Y-97119890D01*
X117988393Y-97088569D01*
X117978085Y-97054591D01*
X117974000Y-97013110D01*
X117974000Y-96411890D01*
X117978085Y-96370409D01*
X117988393Y-96336431D01*
X118005134Y-96305110D01*
X118027661Y-96277661D01*
X118055110Y-96255134D01*
X118086431Y-96238393D01*
X118120409Y-96228085D01*
X118161890Y-96224000D01*
X118838110Y-96224000D01*
X118879591Y-96228085D01*
X118879591Y-96228085D01*
G37*
G36*
X120379591Y-96228085D02*
G01*
X120413569Y-96238393D01*
X120444890Y-96255134D01*
X120472339Y-96277661D01*
X120494866Y-96305110D01*
X120511607Y-96336431D01*
X120521915Y-96370409D01*
X120526000Y-96411890D01*
X120526000Y-97013110D01*
X120521915Y-97054591D01*
X120511607Y-97088569D01*
X120494866Y-97119890D01*
X120472339Y-97147339D01*
X120444890Y-97169866D01*
X120413569Y-97186607D01*
X120379591Y-97196915D01*
X120338110Y-97201000D01*
X119661890Y-97201000D01*
X119620409Y-97196915D01*
X119586431Y-97186607D01*
X119555110Y-97169866D01*
X119527661Y-97147339D01*
X119505134Y-97119890D01*
X119488393Y-97088569D01*
X119478085Y-97054591D01*
X119474000Y-97013110D01*
X119474000Y-96411890D01*
X119478085Y-96370409D01*
X119488393Y-96336431D01*
X119505134Y-96305110D01*
X119527661Y-96277661D01*
X119555110Y-96255134D01*
X119586431Y-96238393D01*
X119620409Y-96228085D01*
X119661890Y-96224000D01*
X120338110Y-96224000D01*
X120379591Y-96228085D01*
X120379591Y-96228085D01*
G37*
G36*
X143801000Y-97051000D02*
G01*
X142199000Y-97051000D01*
X142199000Y-94349000D01*
X143801000Y-94349000D01*
X143801000Y-97051000D01*
X143801000Y-97051000D01*
G37*
G36*
X138870015Y-95956973D02*
G01*
X138973879Y-95988479D01*
X139001055Y-96003005D01*
X139069600Y-96039643D01*
X139153501Y-96108499D01*
X139222357Y-96192400D01*
X139249185Y-96242592D01*
X139273521Y-96288121D01*
X139305027Y-96391985D01*
X139315666Y-96500000D01*
X139305027Y-96608015D01*
X139273521Y-96711879D01*
X139265163Y-96727515D01*
X139222357Y-96807600D01*
X139153501Y-96891501D01*
X139069600Y-96960357D01*
X139001055Y-96996995D01*
X138973879Y-97011521D01*
X138870015Y-97043027D01*
X138789067Y-97051000D01*
X138210933Y-97051000D01*
X138129985Y-97043027D01*
X138026121Y-97011521D01*
X137998945Y-96996995D01*
X137930400Y-96960357D01*
X137846499Y-96891501D01*
X137777643Y-96807600D01*
X137734837Y-96727515D01*
X137726479Y-96711879D01*
X137694973Y-96608015D01*
X137684334Y-96500000D01*
X137694973Y-96391985D01*
X137726479Y-96288121D01*
X137750815Y-96242592D01*
X137777643Y-96192400D01*
X137846499Y-96108499D01*
X137930400Y-96039643D01*
X137998945Y-96003005D01*
X138026121Y-95988479D01*
X138129985Y-95956973D01*
X138210933Y-95949000D01*
X138789067Y-95949000D01*
X138870015Y-95956973D01*
X138870015Y-95956973D01*
G37*
G36*
X89525331Y-92968211D02*
G01*
X89853092Y-93103974D01*
X90148070Y-93301072D01*
X90398928Y-93551930D01*
X90596026Y-93846908D01*
X90731789Y-94174669D01*
X90801000Y-94522616D01*
X90801000Y-94877384D01*
X90731789Y-95225331D01*
X90596026Y-95553092D01*
X90398928Y-95848070D01*
X90148070Y-96098928D01*
X89853092Y-96296026D01*
X89525331Y-96431789D01*
X89177384Y-96501000D01*
X88822616Y-96501000D01*
X88474669Y-96431789D01*
X88146908Y-96296026D01*
X87851930Y-96098928D01*
X87601072Y-95848070D01*
X87403974Y-95553092D01*
X87268211Y-95225331D01*
X87199000Y-94877384D01*
X87199000Y-94522616D01*
X87268211Y-94174669D01*
X87403974Y-93846908D01*
X87601072Y-93551930D01*
X87851930Y-93301072D01*
X88146908Y-93103974D01*
X88474669Y-92968211D01*
X88822616Y-92899000D01*
X89177384Y-92899000D01*
X89525331Y-92968211D01*
X89525331Y-92968211D01*
G37*
G36*
X138870015Y-94456973D02*
G01*
X138973879Y-94488479D01*
X139001055Y-94503005D01*
X139069600Y-94539643D01*
X139153501Y-94608499D01*
X139222357Y-94692400D01*
X139258995Y-94760945D01*
X139273521Y-94788121D01*
X139305027Y-94891985D01*
X139315666Y-95000000D01*
X139305027Y-95108015D01*
X139273521Y-95211879D01*
X139266330Y-95225332D01*
X139222357Y-95307600D01*
X139153501Y-95391501D01*
X139069600Y-95460357D01*
X139001055Y-95496995D01*
X138973879Y-95511521D01*
X138870015Y-95543027D01*
X138789067Y-95551000D01*
X138210933Y-95551000D01*
X138129985Y-95543027D01*
X138026121Y-95511521D01*
X137998945Y-95496995D01*
X137930400Y-95460357D01*
X137846499Y-95391501D01*
X137777643Y-95307600D01*
X137733670Y-95225332D01*
X137726479Y-95211879D01*
X137694973Y-95108015D01*
X137684334Y-95000000D01*
X137694973Y-94891985D01*
X137726479Y-94788121D01*
X137741005Y-94760945D01*
X137777643Y-94692400D01*
X137846499Y-94608499D01*
X137930400Y-94539643D01*
X137998945Y-94503005D01*
X138026121Y-94488479D01*
X138129985Y-94456973D01*
X138210933Y-94449000D01*
X138789067Y-94449000D01*
X138870015Y-94456973D01*
X138870015Y-94456973D01*
G37*
G36*
X117284756Y-87902045D02*
G01*
X117291771Y-87904173D01*
X117298237Y-87907630D01*
X117308671Y-87916192D01*
X117530508Y-88138029D01*
X117539070Y-88148463D01*
X117542527Y-88154929D01*
X117547058Y-88169866D01*
X117556436Y-88192505D01*
X117570050Y-88212879D01*
X117587377Y-88230206D01*
X117607752Y-88243819D01*
X117630387Y-88253195D01*
X117645324Y-88257726D01*
X117651790Y-88261183D01*
X117662224Y-88269745D01*
X117884061Y-88491582D01*
X117892623Y-88502016D01*
X117896080Y-88508482D01*
X117900611Y-88523419D01*
X117909989Y-88546058D01*
X117923603Y-88566432D01*
X117940930Y-88583759D01*
X117961305Y-88597372D01*
X117983940Y-88606748D01*
X117998877Y-88611279D01*
X118005343Y-88614736D01*
X118015777Y-88623298D01*
X118237614Y-88845135D01*
X118246176Y-88855569D01*
X118249633Y-88862036D01*
X118254164Y-88876972D01*
X118263541Y-88899611D01*
X118277155Y-88919985D01*
X118294482Y-88937312D01*
X118314857Y-88950926D01*
X118337494Y-88960302D01*
X118352430Y-88964833D01*
X118358897Y-88968290D01*
X118369331Y-88976852D01*
X118591168Y-89198689D01*
X118599730Y-89209123D01*
X118603187Y-89215589D01*
X118607718Y-89230526D01*
X118617096Y-89253165D01*
X118630710Y-89273539D01*
X118648037Y-89290866D01*
X118668412Y-89304479D01*
X118691047Y-89313855D01*
X118705984Y-89318386D01*
X118712450Y-89321843D01*
X118722884Y-89330405D01*
X118944721Y-89552242D01*
X118953283Y-89562676D01*
X118956740Y-89569143D01*
X118961271Y-89584079D01*
X118970648Y-89606718D01*
X118984262Y-89627092D01*
X119001589Y-89644419D01*
X119021964Y-89658033D01*
X119044601Y-89667409D01*
X119059537Y-89671940D01*
X119066004Y-89675397D01*
X119076438Y-89683959D01*
X119298275Y-89905796D01*
X119306837Y-89916230D01*
X119310294Y-89922696D01*
X119314825Y-89937633D01*
X119324203Y-89960272D01*
X119337817Y-89980646D01*
X119355144Y-89997973D01*
X119375519Y-90011586D01*
X119398154Y-90020962D01*
X119413091Y-90025493D01*
X119419557Y-90028950D01*
X119429991Y-90037512D01*
X119651828Y-90259349D01*
X119660390Y-90269783D01*
X119663847Y-90276249D01*
X119668378Y-90291186D01*
X119677756Y-90313825D01*
X119691370Y-90334199D01*
X119708697Y-90351526D01*
X119729072Y-90365139D01*
X119751707Y-90374515D01*
X119766644Y-90379046D01*
X119773110Y-90382503D01*
X119783544Y-90391065D01*
X120005381Y-90612902D01*
X120013943Y-90623336D01*
X120017400Y-90629803D01*
X120021931Y-90644739D01*
X120031308Y-90667378D01*
X120044922Y-90687752D01*
X120062249Y-90705079D01*
X120082624Y-90718693D01*
X120105261Y-90728069D01*
X120120197Y-90732600D01*
X120126664Y-90736057D01*
X120137098Y-90744619D01*
X120358935Y-90966456D01*
X120367497Y-90976890D01*
X120370954Y-90983356D01*
X120375485Y-90998293D01*
X120384863Y-91020932D01*
X120398477Y-91041306D01*
X120415804Y-91058633D01*
X120436179Y-91072246D01*
X120458814Y-91081622D01*
X120473751Y-91086153D01*
X120480217Y-91089610D01*
X120490651Y-91098172D01*
X120712488Y-91320009D01*
X120721050Y-91330443D01*
X120724507Y-91336909D01*
X120729038Y-91351846D01*
X120738416Y-91374485D01*
X120752030Y-91394859D01*
X120769357Y-91412186D01*
X120789732Y-91425799D01*
X120812367Y-91435175D01*
X120827304Y-91439706D01*
X120833770Y-91443163D01*
X120844204Y-91451725D01*
X121066041Y-91673562D01*
X121074603Y-91683996D01*
X121078060Y-91690463D01*
X121082591Y-91705399D01*
X121091968Y-91728038D01*
X121105582Y-91748412D01*
X121122909Y-91765739D01*
X121143284Y-91779353D01*
X121165921Y-91788729D01*
X121180857Y-91793260D01*
X121187324Y-91796717D01*
X121197758Y-91805279D01*
X121419595Y-92027116D01*
X121428157Y-92037550D01*
X121431614Y-92044016D01*
X121436145Y-92058953D01*
X121445523Y-92081592D01*
X121459137Y-92101966D01*
X121476464Y-92119293D01*
X121496839Y-92132906D01*
X121519474Y-92142282D01*
X121534411Y-92146813D01*
X121540877Y-92150270D01*
X121551311Y-92158832D01*
X121773148Y-92380669D01*
X121781710Y-92391103D01*
X121785167Y-92397570D01*
X121789698Y-92412506D01*
X121799075Y-92435145D01*
X121812689Y-92455519D01*
X121830016Y-92472846D01*
X121850391Y-92486460D01*
X121873028Y-92495836D01*
X121887964Y-92500367D01*
X121894431Y-92503824D01*
X121904865Y-92512386D01*
X122126702Y-92734223D01*
X122135264Y-92744657D01*
X122138721Y-92751123D01*
X122143252Y-92766060D01*
X122152630Y-92788699D01*
X122166244Y-92809073D01*
X122183571Y-92826400D01*
X122203946Y-92840013D01*
X122226581Y-92849389D01*
X122241518Y-92853920D01*
X122247984Y-92857377D01*
X122258418Y-92865939D01*
X122480255Y-93087776D01*
X122488817Y-93098210D01*
X122492274Y-93104676D01*
X122496805Y-93119613D01*
X122506183Y-93142252D01*
X122519797Y-93162626D01*
X122537124Y-93179953D01*
X122557499Y-93193566D01*
X122580134Y-93202942D01*
X122595071Y-93207473D01*
X122601537Y-93210930D01*
X122611971Y-93219492D01*
X122833808Y-93441329D01*
X122842370Y-93451763D01*
X122845827Y-93458229D01*
X122847955Y-93465244D01*
X122848673Y-93472539D01*
X122847955Y-93479834D01*
X122845827Y-93486849D01*
X122842370Y-93493315D01*
X122833808Y-93503749D01*
X121728087Y-94609470D01*
X121717653Y-94618032D01*
X121711187Y-94621489D01*
X121704172Y-94623617D01*
X121696877Y-94624335D01*
X121689582Y-94623617D01*
X121682567Y-94621489D01*
X121676101Y-94618032D01*
X121665667Y-94609470D01*
X121443830Y-94387633D01*
X121435268Y-94377199D01*
X121431811Y-94370733D01*
X121427280Y-94355796D01*
X121417902Y-94333157D01*
X121404288Y-94312783D01*
X121386961Y-94295456D01*
X121366586Y-94281843D01*
X121343951Y-94272467D01*
X121329014Y-94267936D01*
X121322548Y-94264479D01*
X121312114Y-94255917D01*
X121090277Y-94034080D01*
X121081715Y-94023646D01*
X121078258Y-94017180D01*
X121073727Y-94002243D01*
X121064349Y-93979604D01*
X121050735Y-93959230D01*
X121033408Y-93941903D01*
X121013033Y-93928290D01*
X120990398Y-93918914D01*
X120975461Y-93914383D01*
X120968995Y-93910926D01*
X120958561Y-93902364D01*
X120736724Y-93680527D01*
X120728162Y-93670093D01*
X120724705Y-93663626D01*
X120720174Y-93648690D01*
X120710797Y-93626051D01*
X120697183Y-93605677D01*
X120679856Y-93588350D01*
X120659481Y-93574736D01*
X120636844Y-93565360D01*
X120621908Y-93560829D01*
X120615441Y-93557372D01*
X120605007Y-93548810D01*
X120383170Y-93326973D01*
X120374608Y-93316539D01*
X120371151Y-93310073D01*
X120366620Y-93295136D01*
X120357242Y-93272497D01*
X120343628Y-93252123D01*
X120326301Y-93234796D01*
X120305926Y-93221183D01*
X120283291Y-93211807D01*
X120268354Y-93207276D01*
X120261888Y-93203819D01*
X120251454Y-93195257D01*
X120029617Y-92973420D01*
X120021055Y-92962986D01*
X120017598Y-92956519D01*
X120013067Y-92941583D01*
X120003690Y-92918944D01*
X119990076Y-92898570D01*
X119972749Y-92881243D01*
X119952374Y-92867629D01*
X119929737Y-92858253D01*
X119914801Y-92853722D01*
X119908334Y-92850265D01*
X119897900Y-92841703D01*
X119676063Y-92619866D01*
X119667501Y-92609432D01*
X119664044Y-92602966D01*
X119659513Y-92588029D01*
X119650135Y-92565390D01*
X119636521Y-92545016D01*
X119619194Y-92527689D01*
X119598819Y-92514076D01*
X119576184Y-92504700D01*
X119561247Y-92500169D01*
X119554781Y-92496712D01*
X119544347Y-92488150D01*
X119322510Y-92266313D01*
X119313948Y-92255879D01*
X119310491Y-92249413D01*
X119305960Y-92234476D01*
X119296582Y-92211837D01*
X119282968Y-92191463D01*
X119265641Y-92174136D01*
X119245266Y-92160523D01*
X119222631Y-92151147D01*
X119207694Y-92146616D01*
X119201228Y-92143159D01*
X119190794Y-92134597D01*
X118968957Y-91912760D01*
X118960395Y-91902326D01*
X118956938Y-91895859D01*
X118952407Y-91880923D01*
X118943030Y-91858284D01*
X118929416Y-91837910D01*
X118912089Y-91820583D01*
X118891714Y-91806969D01*
X118869077Y-91797593D01*
X118854141Y-91793062D01*
X118847674Y-91789605D01*
X118837240Y-91781043D01*
X118615403Y-91559206D01*
X118606841Y-91548772D01*
X118603384Y-91542306D01*
X118598853Y-91527369D01*
X118589475Y-91504730D01*
X118575861Y-91484356D01*
X118558534Y-91467029D01*
X118538159Y-91453416D01*
X118515524Y-91444040D01*
X118500587Y-91439509D01*
X118494121Y-91436052D01*
X118483687Y-91427490D01*
X118261850Y-91205653D01*
X118253288Y-91195219D01*
X118249831Y-91188753D01*
X118245300Y-91173816D01*
X118235922Y-91151177D01*
X118222308Y-91130803D01*
X118204981Y-91113476D01*
X118184606Y-91099863D01*
X118161971Y-91090487D01*
X118147034Y-91085956D01*
X118140568Y-91082499D01*
X118130134Y-91073937D01*
X117908297Y-90852100D01*
X117899735Y-90841666D01*
X117896278Y-90835199D01*
X117891747Y-90820263D01*
X117882370Y-90797624D01*
X117868756Y-90777250D01*
X117851429Y-90759923D01*
X117831054Y-90746309D01*
X117808417Y-90736933D01*
X117793481Y-90732402D01*
X117787014Y-90728945D01*
X117776580Y-90720383D01*
X117554743Y-90498546D01*
X117546181Y-90488112D01*
X117542724Y-90481646D01*
X117538193Y-90466709D01*
X117528815Y-90444070D01*
X117515201Y-90423696D01*
X117497874Y-90406369D01*
X117477499Y-90392756D01*
X117454864Y-90383380D01*
X117439927Y-90378849D01*
X117433461Y-90375392D01*
X117423027Y-90366830D01*
X117201190Y-90144993D01*
X117192628Y-90134559D01*
X117189171Y-90128092D01*
X117184640Y-90113156D01*
X117175263Y-90090517D01*
X117161649Y-90070143D01*
X117144322Y-90052816D01*
X117123947Y-90039202D01*
X117101310Y-90029826D01*
X117086374Y-90025295D01*
X117079907Y-90021838D01*
X117069473Y-90013276D01*
X116847636Y-89791439D01*
X116839074Y-89781005D01*
X116835617Y-89774539D01*
X116831086Y-89759602D01*
X116821708Y-89736963D01*
X116808094Y-89716589D01*
X116790767Y-89699262D01*
X116770392Y-89685649D01*
X116747757Y-89676273D01*
X116732820Y-89671742D01*
X116726354Y-89668285D01*
X116715920Y-89659723D01*
X116494083Y-89437886D01*
X116485521Y-89427452D01*
X116482064Y-89420986D01*
X116477533Y-89406049D01*
X116468155Y-89383410D01*
X116454541Y-89363036D01*
X116437214Y-89345709D01*
X116416839Y-89332096D01*
X116394204Y-89322720D01*
X116379267Y-89318189D01*
X116372801Y-89314732D01*
X116362367Y-89306170D01*
X116140530Y-89084333D01*
X116131968Y-89073899D01*
X116128511Y-89067433D01*
X116126383Y-89060418D01*
X116125665Y-89053123D01*
X116126383Y-89045828D01*
X116128511Y-89038813D01*
X116131968Y-89032347D01*
X116140530Y-89021913D01*
X117246251Y-87916192D01*
X117256685Y-87907630D01*
X117263151Y-87904173D01*
X117270166Y-87902045D01*
X117277461Y-87901327D01*
X117284756Y-87902045D01*
X117284756Y-87902045D01*
G37*
G36*
X129729834Y-87902045D02*
G01*
X129736849Y-87904173D01*
X129743315Y-87907630D01*
X129753749Y-87916192D01*
X130859470Y-89021913D01*
X130868032Y-89032347D01*
X130871489Y-89038813D01*
X130873617Y-89045828D01*
X130874335Y-89053123D01*
X130873617Y-89060418D01*
X130871489Y-89067433D01*
X130868032Y-89073899D01*
X130859470Y-89084333D01*
X130637633Y-89306170D01*
X130627199Y-89314732D01*
X130620733Y-89318189D01*
X130605796Y-89322720D01*
X130583157Y-89332098D01*
X130562783Y-89345712D01*
X130545456Y-89363039D01*
X130531843Y-89383414D01*
X130522467Y-89406049D01*
X130517936Y-89420986D01*
X130514479Y-89427452D01*
X130505917Y-89437886D01*
X130284080Y-89659723D01*
X130273646Y-89668285D01*
X130267180Y-89671742D01*
X130252243Y-89676273D01*
X130229604Y-89685651D01*
X130209230Y-89699265D01*
X130191903Y-89716592D01*
X130178290Y-89736967D01*
X130168914Y-89759602D01*
X130164383Y-89774539D01*
X130160926Y-89781005D01*
X130152364Y-89791439D01*
X129930527Y-90013276D01*
X129920093Y-90021838D01*
X129913626Y-90025295D01*
X129898690Y-90029826D01*
X129876051Y-90039203D01*
X129855677Y-90052817D01*
X129838350Y-90070144D01*
X129824736Y-90090519D01*
X129815360Y-90113156D01*
X129810829Y-90128092D01*
X129807372Y-90134559D01*
X129798810Y-90144993D01*
X129576973Y-90366830D01*
X129566539Y-90375392D01*
X129560073Y-90378849D01*
X129545136Y-90383380D01*
X129522497Y-90392758D01*
X129502123Y-90406372D01*
X129484796Y-90423699D01*
X129471183Y-90444074D01*
X129461807Y-90466709D01*
X129457276Y-90481646D01*
X129453819Y-90488112D01*
X129445257Y-90498546D01*
X129223420Y-90720383D01*
X129212986Y-90728945D01*
X129206519Y-90732402D01*
X129191583Y-90736933D01*
X129168944Y-90746310D01*
X129148570Y-90759924D01*
X129131243Y-90777251D01*
X129117629Y-90797626D01*
X129108253Y-90820263D01*
X129103722Y-90835199D01*
X129100265Y-90841666D01*
X129091703Y-90852100D01*
X128869866Y-91073937D01*
X128859432Y-91082499D01*
X128852966Y-91085956D01*
X128838029Y-91090487D01*
X128815390Y-91099865D01*
X128795016Y-91113479D01*
X128777689Y-91130806D01*
X128764076Y-91151181D01*
X128754700Y-91173816D01*
X128750169Y-91188753D01*
X128746712Y-91195219D01*
X128738150Y-91205653D01*
X128516313Y-91427490D01*
X128505879Y-91436052D01*
X128499413Y-91439509D01*
X128484476Y-91444040D01*
X128461837Y-91453418D01*
X128441463Y-91467032D01*
X128424136Y-91484359D01*
X128410523Y-91504734D01*
X128401147Y-91527369D01*
X128396616Y-91542306D01*
X128393159Y-91548772D01*
X128384597Y-91559206D01*
X128162760Y-91781043D01*
X128152326Y-91789605D01*
X128145859Y-91793062D01*
X128130923Y-91797593D01*
X128108284Y-91806970D01*
X128087910Y-91820584D01*
X128070583Y-91837911D01*
X128056969Y-91858286D01*
X128047593Y-91880923D01*
X128043062Y-91895859D01*
X128039605Y-91902326D01*
X128031043Y-91912760D01*
X127809206Y-92134597D01*
X127798772Y-92143159D01*
X127792306Y-92146616D01*
X127777369Y-92151147D01*
X127754730Y-92160525D01*
X127734356Y-92174139D01*
X127717029Y-92191466D01*
X127703416Y-92211841D01*
X127694040Y-92234476D01*
X127689509Y-92249413D01*
X127686052Y-92255879D01*
X127677490Y-92266313D01*
X127455653Y-92488150D01*
X127445219Y-92496712D01*
X127438753Y-92500169D01*
X127423816Y-92504700D01*
X127401177Y-92514078D01*
X127380803Y-92527692D01*
X127363476Y-92545019D01*
X127349863Y-92565394D01*
X127340487Y-92588029D01*
X127335956Y-92602966D01*
X127332499Y-92609432D01*
X127323937Y-92619866D01*
X127102100Y-92841703D01*
X127091666Y-92850265D01*
X127085199Y-92853722D01*
X127070263Y-92858253D01*
X127047624Y-92867630D01*
X127027250Y-92881244D01*
X127009923Y-92898571D01*
X126996309Y-92918946D01*
X126986933Y-92941583D01*
X126982402Y-92956519D01*
X126978945Y-92962986D01*
X126970383Y-92973420D01*
X126748546Y-93195257D01*
X126738112Y-93203819D01*
X126731646Y-93207276D01*
X126716709Y-93211807D01*
X126694070Y-93221185D01*
X126673696Y-93234799D01*
X126656369Y-93252126D01*
X126642756Y-93272501D01*
X126633380Y-93295136D01*
X126628849Y-93310073D01*
X126625392Y-93316539D01*
X126616830Y-93326973D01*
X126394993Y-93548810D01*
X126384559Y-93557372D01*
X126378092Y-93560829D01*
X126363156Y-93565360D01*
X126340517Y-93574737D01*
X126320143Y-93588351D01*
X126302816Y-93605678D01*
X126289202Y-93626053D01*
X126279826Y-93648690D01*
X126275295Y-93663626D01*
X126271838Y-93670093D01*
X126263276Y-93680527D01*
X126041439Y-93902364D01*
X126031005Y-93910926D01*
X126024539Y-93914383D01*
X126009602Y-93918914D01*
X125986963Y-93928292D01*
X125966589Y-93941906D01*
X125949262Y-93959233D01*
X125935649Y-93979608D01*
X125926273Y-94002243D01*
X125921742Y-94017180D01*
X125918285Y-94023646D01*
X125909723Y-94034080D01*
X125687886Y-94255917D01*
X125677452Y-94264479D01*
X125670986Y-94267936D01*
X125656049Y-94272467D01*
X125633410Y-94281845D01*
X125613036Y-94295459D01*
X125595709Y-94312786D01*
X125582096Y-94333161D01*
X125572720Y-94355796D01*
X125568189Y-94370733D01*
X125564732Y-94377199D01*
X125556170Y-94387633D01*
X125334333Y-94609470D01*
X125323899Y-94618032D01*
X125317433Y-94621489D01*
X125310418Y-94623617D01*
X125303123Y-94624335D01*
X125295828Y-94623617D01*
X125288813Y-94621489D01*
X125282347Y-94618032D01*
X125271913Y-94609470D01*
X124166192Y-93503749D01*
X124157630Y-93493315D01*
X124154173Y-93486849D01*
X124152045Y-93479834D01*
X124151327Y-93472539D01*
X124152045Y-93465244D01*
X124154173Y-93458229D01*
X124157630Y-93451763D01*
X124166192Y-93441329D01*
X124388029Y-93219492D01*
X124398463Y-93210930D01*
X124404929Y-93207473D01*
X124419866Y-93202942D01*
X124442505Y-93193564D01*
X124462879Y-93179950D01*
X124480206Y-93162623D01*
X124493819Y-93142248D01*
X124503195Y-93119613D01*
X124507726Y-93104676D01*
X124511183Y-93098210D01*
X124519745Y-93087776D01*
X124741582Y-92865939D01*
X124752016Y-92857377D01*
X124758482Y-92853920D01*
X124773419Y-92849389D01*
X124796058Y-92840011D01*
X124816432Y-92826397D01*
X124833759Y-92809070D01*
X124847372Y-92788695D01*
X124856748Y-92766060D01*
X124861279Y-92751123D01*
X124864736Y-92744657D01*
X124873298Y-92734223D01*
X125095135Y-92512386D01*
X125105569Y-92503824D01*
X125112036Y-92500367D01*
X125126972Y-92495836D01*
X125149611Y-92486459D01*
X125169985Y-92472845D01*
X125187312Y-92455518D01*
X125200926Y-92435143D01*
X125210302Y-92412506D01*
X125214833Y-92397570D01*
X125218290Y-92391103D01*
X125226852Y-92380669D01*
X125448689Y-92158832D01*
X125459123Y-92150270D01*
X125465589Y-92146813D01*
X125480526Y-92142282D01*
X125503165Y-92132904D01*
X125523539Y-92119290D01*
X125540866Y-92101963D01*
X125554479Y-92081588D01*
X125563855Y-92058953D01*
X125568386Y-92044016D01*
X125571843Y-92037550D01*
X125580405Y-92027116D01*
X125802242Y-91805279D01*
X125812676Y-91796717D01*
X125819143Y-91793260D01*
X125834079Y-91788729D01*
X125856718Y-91779352D01*
X125877092Y-91765738D01*
X125894419Y-91748411D01*
X125908033Y-91728036D01*
X125917409Y-91705399D01*
X125921940Y-91690463D01*
X125925397Y-91683996D01*
X125933959Y-91673562D01*
X126155796Y-91451725D01*
X126166230Y-91443163D01*
X126172696Y-91439706D01*
X126187633Y-91435175D01*
X126210272Y-91425797D01*
X126230646Y-91412183D01*
X126247973Y-91394856D01*
X126261586Y-91374481D01*
X126270962Y-91351846D01*
X126275493Y-91336909D01*
X126278950Y-91330443D01*
X126287512Y-91320009D01*
X126509349Y-91098172D01*
X126519783Y-91089610D01*
X126526249Y-91086153D01*
X126541186Y-91081622D01*
X126563825Y-91072244D01*
X126584199Y-91058630D01*
X126601526Y-91041303D01*
X126615139Y-91020928D01*
X126624515Y-90998293D01*
X126629046Y-90983356D01*
X126632503Y-90976890D01*
X126641065Y-90966456D01*
X126862902Y-90744619D01*
X126873336Y-90736057D01*
X126879803Y-90732600D01*
X126894739Y-90728069D01*
X126917378Y-90718692D01*
X126937752Y-90705078D01*
X126955079Y-90687751D01*
X126968693Y-90667376D01*
X126978069Y-90644739D01*
X126982600Y-90629803D01*
X126986057Y-90623336D01*
X126994619Y-90612902D01*
X127216456Y-90391065D01*
X127226890Y-90382503D01*
X127233356Y-90379046D01*
X127248293Y-90374515D01*
X127270932Y-90365137D01*
X127291306Y-90351523D01*
X127308633Y-90334196D01*
X127322246Y-90313821D01*
X127331622Y-90291186D01*
X127336153Y-90276249D01*
X127339610Y-90269783D01*
X127348172Y-90259349D01*
X127570009Y-90037512D01*
X127580443Y-90028950D01*
X127586909Y-90025493D01*
X127601846Y-90020962D01*
X127624485Y-90011584D01*
X127644859Y-89997970D01*
X127662186Y-89980643D01*
X127675799Y-89960268D01*
X127685175Y-89937633D01*
X127689706Y-89922696D01*
X127693163Y-89916230D01*
X127701725Y-89905796D01*
X127923562Y-89683959D01*
X127933996Y-89675397D01*
X127940463Y-89671940D01*
X127955399Y-89667409D01*
X127978038Y-89658032D01*
X127998412Y-89644418D01*
X128015739Y-89627091D01*
X128029353Y-89606716D01*
X128038729Y-89584079D01*
X128043260Y-89569143D01*
X128046717Y-89562676D01*
X128055279Y-89552242D01*
X128277116Y-89330405D01*
X128287550Y-89321843D01*
X128294016Y-89318386D01*
X128308953Y-89313855D01*
X128331592Y-89304477D01*
X128351966Y-89290863D01*
X128369293Y-89273536D01*
X128382906Y-89253161D01*
X128392282Y-89230526D01*
X128396813Y-89215589D01*
X128400270Y-89209123D01*
X128408832Y-89198689D01*
X128630669Y-88976852D01*
X128641103Y-88968290D01*
X128647570Y-88964833D01*
X128662506Y-88960302D01*
X128685145Y-88950925D01*
X128705519Y-88937311D01*
X128722846Y-88919984D01*
X128736460Y-88899609D01*
X128745836Y-88876972D01*
X128750367Y-88862036D01*
X128753824Y-88855569D01*
X128762386Y-88845135D01*
X128984223Y-88623298D01*
X128994657Y-88614736D01*
X129001123Y-88611279D01*
X129016060Y-88606748D01*
X129038699Y-88597370D01*
X129059073Y-88583756D01*
X129076400Y-88566429D01*
X129090013Y-88546054D01*
X129099389Y-88523419D01*
X129103920Y-88508482D01*
X129107377Y-88502016D01*
X129115939Y-88491582D01*
X129337776Y-88269745D01*
X129348210Y-88261183D01*
X129354676Y-88257726D01*
X129369613Y-88253195D01*
X129392252Y-88243817D01*
X129412626Y-88230203D01*
X129429953Y-88212876D01*
X129443566Y-88192501D01*
X129452942Y-88169866D01*
X129457473Y-88154929D01*
X129460930Y-88148463D01*
X129469492Y-88138029D01*
X129691329Y-87916192D01*
X129701763Y-87907630D01*
X129708229Y-87904173D01*
X129715244Y-87902045D01*
X129722539Y-87901327D01*
X129729834Y-87902045D01*
X129729834Y-87902045D01*
G37*
G36*
X73525331Y-90768211D02*
G01*
X73853092Y-90903974D01*
X74148070Y-91101072D01*
X74398928Y-91351930D01*
X74596026Y-91646908D01*
X74731789Y-91974669D01*
X74801000Y-92322616D01*
X74801000Y-92677384D01*
X74731789Y-93025331D01*
X74596026Y-93353092D01*
X74398928Y-93648070D01*
X74148070Y-93898928D01*
X73853092Y-94096026D01*
X73525331Y-94231789D01*
X73177384Y-94301000D01*
X72822616Y-94301000D01*
X72474669Y-94231789D01*
X72146908Y-94096026D01*
X71851930Y-93898928D01*
X71601072Y-93648070D01*
X71403974Y-93353092D01*
X71268211Y-93025331D01*
X71199000Y-92677384D01*
X71199000Y-92322616D01*
X71268211Y-91974669D01*
X71403974Y-91646908D01*
X71601072Y-91351930D01*
X71851930Y-91101072D01*
X72146908Y-90903974D01*
X72474669Y-90768211D01*
X72822616Y-90699000D01*
X73177384Y-90699000D01*
X73525331Y-90768211D01*
X73525331Y-90768211D01*
G37*
G36*
X138870015Y-92956973D02*
G01*
X138973879Y-92988479D01*
X138991775Y-92998045D01*
X139069600Y-93039643D01*
X139153501Y-93108499D01*
X139222357Y-93192400D01*
X139246496Y-93237561D01*
X139273521Y-93288121D01*
X139305027Y-93391985D01*
X139315666Y-93500000D01*
X139305027Y-93608015D01*
X139273521Y-93711879D01*
X139273519Y-93711882D01*
X139222357Y-93807600D01*
X139153501Y-93891501D01*
X139069600Y-93960357D01*
X139001055Y-93996995D01*
X138973879Y-94011521D01*
X138870015Y-94043027D01*
X138789067Y-94051000D01*
X138210933Y-94051000D01*
X138129985Y-94043027D01*
X138026121Y-94011521D01*
X137998945Y-93996995D01*
X137930400Y-93960357D01*
X137846499Y-93891501D01*
X137777643Y-93807600D01*
X137726481Y-93711882D01*
X137726479Y-93711879D01*
X137694973Y-93608015D01*
X137684334Y-93500000D01*
X137694973Y-93391985D01*
X137726479Y-93288121D01*
X137753504Y-93237561D01*
X137777643Y-93192400D01*
X137846499Y-93108499D01*
X137930400Y-93039643D01*
X138008225Y-92998045D01*
X138026121Y-92988479D01*
X138129985Y-92956973D01*
X138210933Y-92949000D01*
X138789067Y-92949000D01*
X138870015Y-92956973D01*
X138870015Y-92956973D01*
G37*
G36*
X79277395Y-91585546D02*
G01*
X79450466Y-91657234D01*
X79522550Y-91705399D01*
X79606227Y-91761310D01*
X79738690Y-91893773D01*
X79755106Y-91918342D01*
X79842766Y-92049534D01*
X79914454Y-92222605D01*
X79951000Y-92406333D01*
X79951000Y-92593667D01*
X79914454Y-92777395D01*
X79842766Y-92950466D01*
X79822584Y-92980670D01*
X79738690Y-93106227D01*
X79606227Y-93238690D01*
X79575311Y-93259347D01*
X79450466Y-93342766D01*
X79277395Y-93414454D01*
X79093667Y-93451000D01*
X78906333Y-93451000D01*
X78722605Y-93414454D01*
X78549534Y-93342766D01*
X78424689Y-93259347D01*
X78393773Y-93238690D01*
X78261310Y-93106227D01*
X78177416Y-92980670D01*
X78157234Y-92950466D01*
X78085546Y-92777395D01*
X78049000Y-92593667D01*
X78049000Y-92406333D01*
X78085546Y-92222605D01*
X78157234Y-92049534D01*
X78244894Y-91918342D01*
X78261310Y-91893773D01*
X78393773Y-91761310D01*
X78477450Y-91705399D01*
X78549534Y-91657234D01*
X78722605Y-91585546D01*
X78906333Y-91549000D01*
X79093667Y-91549000D01*
X79277395Y-91585546D01*
X79277395Y-91585546D01*
G37*
G36*
X83477395Y-91585546D02*
G01*
X83650466Y-91657234D01*
X83722550Y-91705399D01*
X83806227Y-91761310D01*
X83938690Y-91893773D01*
X83955106Y-91918342D01*
X84042766Y-92049534D01*
X84114454Y-92222605D01*
X84151000Y-92406333D01*
X84151000Y-92593667D01*
X84114454Y-92777395D01*
X84042766Y-92950466D01*
X84022584Y-92980670D01*
X83938690Y-93106227D01*
X83806227Y-93238690D01*
X83775311Y-93259347D01*
X83650466Y-93342766D01*
X83477395Y-93414454D01*
X83293667Y-93451000D01*
X83106333Y-93451000D01*
X82922605Y-93414454D01*
X82749534Y-93342766D01*
X82624689Y-93259347D01*
X82593773Y-93238690D01*
X82461310Y-93106227D01*
X82377416Y-92980670D01*
X82357234Y-92950466D01*
X82285546Y-92777395D01*
X82249000Y-92593667D01*
X82249000Y-92406333D01*
X82285546Y-92222605D01*
X82357234Y-92049534D01*
X82444894Y-91918342D01*
X82461310Y-91893773D01*
X82593773Y-91761310D01*
X82677450Y-91705399D01*
X82749534Y-91657234D01*
X82922605Y-91585546D01*
X83106333Y-91549000D01*
X83293667Y-91549000D01*
X83477395Y-91585546D01*
X83477395Y-91585546D01*
G37*
G36*
X109951000Y-92601000D02*
G01*
X108349000Y-92601000D01*
X108349000Y-89899000D01*
X109951000Y-89899000D01*
X109951000Y-92601000D01*
X109951000Y-92601000D01*
G37*
G36*
X113551000Y-92551000D02*
G01*
X111949000Y-92551000D01*
X111949000Y-89849000D01*
X113551000Y-89849000D01*
X113551000Y-92551000D01*
X113551000Y-92551000D01*
G37*
G36*
X130201977Y-90668855D02*
G01*
X130235955Y-90679163D01*
X130267276Y-90695904D01*
X130299490Y-90722342D01*
X130339341Y-90762193D01*
X130339347Y-90762198D01*
X130737802Y-91160653D01*
X130737807Y-91160659D01*
X130777658Y-91200510D01*
X130804096Y-91232724D01*
X130820837Y-91264045D01*
X130831145Y-91298023D01*
X130834625Y-91333364D01*
X130831145Y-91368705D01*
X130820837Y-91402683D01*
X130804096Y-91434004D01*
X130777658Y-91466218D01*
X130737807Y-91506069D01*
X130737802Y-91506075D01*
X130392381Y-91851496D01*
X130392375Y-91851501D01*
X130352524Y-91891352D01*
X130320310Y-91917790D01*
X130288989Y-91934531D01*
X130255011Y-91944839D01*
X130219670Y-91948319D01*
X130184329Y-91944839D01*
X130150351Y-91934531D01*
X130119030Y-91917790D01*
X130086816Y-91891352D01*
X130046965Y-91851501D01*
X130046959Y-91851496D01*
X129648504Y-91453041D01*
X129648499Y-91453035D01*
X129608648Y-91413184D01*
X129582210Y-91380970D01*
X129565469Y-91349649D01*
X129555161Y-91315671D01*
X129551681Y-91280330D01*
X129555161Y-91244989D01*
X129565469Y-91211011D01*
X129582210Y-91179690D01*
X129608648Y-91147476D01*
X129648499Y-91107625D01*
X129648504Y-91107619D01*
X129993925Y-90762198D01*
X129993931Y-90762193D01*
X130033782Y-90722342D01*
X130065996Y-90695904D01*
X130097317Y-90679163D01*
X130131295Y-90668855D01*
X130166636Y-90665375D01*
X130201977Y-90668855D01*
X130201977Y-90668855D01*
G37*
G36*
X131315671Y-89555161D02*
G01*
X131349649Y-89565469D01*
X131380970Y-89582210D01*
X131413184Y-89608648D01*
X131453035Y-89648499D01*
X131453041Y-89648504D01*
X131851496Y-90046959D01*
X131851501Y-90046965D01*
X131891352Y-90086816D01*
X131917790Y-90119030D01*
X131934531Y-90150351D01*
X131944839Y-90184329D01*
X131948319Y-90219670D01*
X131944839Y-90255011D01*
X131934531Y-90288989D01*
X131917790Y-90320310D01*
X131891352Y-90352524D01*
X131851501Y-90392375D01*
X131851496Y-90392381D01*
X131506075Y-90737802D01*
X131506069Y-90737807D01*
X131466218Y-90777658D01*
X131434004Y-90804096D01*
X131402683Y-90820837D01*
X131368705Y-90831145D01*
X131333364Y-90834625D01*
X131298023Y-90831145D01*
X131264045Y-90820837D01*
X131232724Y-90804096D01*
X131200510Y-90777658D01*
X131160659Y-90737807D01*
X131160653Y-90737802D01*
X130762198Y-90339347D01*
X130762193Y-90339341D01*
X130722342Y-90299490D01*
X130695904Y-90267276D01*
X130679163Y-90235955D01*
X130668855Y-90201977D01*
X130665375Y-90166636D01*
X130668855Y-90131295D01*
X130679163Y-90097317D01*
X130695904Y-90065996D01*
X130722342Y-90033782D01*
X130762193Y-89993931D01*
X130762198Y-89993925D01*
X131107619Y-89648504D01*
X131107625Y-89648499D01*
X131147476Y-89608648D01*
X131179690Y-89582210D01*
X131211011Y-89565469D01*
X131244989Y-89555161D01*
X131280330Y-89551681D01*
X131315671Y-89555161D01*
X131315671Y-89555161D01*
G37*
G36*
X51462865Y-84075855D02*
G01*
X52040581Y-84315153D01*
X52063610Y-84324692D01*
X52604265Y-84685946D01*
X53064054Y-85145735D01*
X53424985Y-85685907D01*
X53425309Y-85686392D01*
X53674145Y-86287135D01*
X53801000Y-86924879D01*
X53801000Y-87575121D01*
X53674145Y-88212865D01*
X53480292Y-88680867D01*
X53425308Y-88813610D01*
X53064054Y-89354265D01*
X52604265Y-89814054D01*
X52063610Y-90175308D01*
X52063609Y-90175309D01*
X52063608Y-90175309D01*
X51462865Y-90424145D01*
X50825121Y-90551000D01*
X50174879Y-90551000D01*
X49537135Y-90424145D01*
X48936392Y-90175309D01*
X48936391Y-90175309D01*
X48936390Y-90175308D01*
X48395735Y-89814054D01*
X47935946Y-89354265D01*
X47574692Y-88813610D01*
X47519708Y-88680867D01*
X47325855Y-88212865D01*
X47199000Y-87575121D01*
X47199000Y-86924879D01*
X47325855Y-86287135D01*
X47574691Y-85686392D01*
X47575015Y-85685907D01*
X47935946Y-85145735D01*
X48395735Y-84685946D01*
X48936390Y-84324692D01*
X48959419Y-84315153D01*
X49537135Y-84075855D01*
X50174879Y-83949000D01*
X50825121Y-83949000D01*
X51462865Y-84075855D01*
X51462865Y-84075855D01*
G37*
G36*
X58462865Y-84075855D02*
G01*
X59040581Y-84315153D01*
X59063610Y-84324692D01*
X59604265Y-84685946D01*
X60064054Y-85145735D01*
X60424985Y-85685907D01*
X60425309Y-85686392D01*
X60674145Y-86287135D01*
X60801000Y-86924879D01*
X60801000Y-87575121D01*
X60674145Y-88212865D01*
X60480292Y-88680867D01*
X60425308Y-88813610D01*
X60064054Y-89354265D01*
X59604265Y-89814054D01*
X59063610Y-90175308D01*
X59063609Y-90175309D01*
X59063608Y-90175309D01*
X58462865Y-90424145D01*
X57825121Y-90551000D01*
X57174879Y-90551000D01*
X56537135Y-90424145D01*
X55936392Y-90175309D01*
X55936391Y-90175309D01*
X55936390Y-90175308D01*
X55395735Y-89814054D01*
X54935946Y-89354265D01*
X54574692Y-88813610D01*
X54519708Y-88680867D01*
X54325855Y-88212865D01*
X54199000Y-87575121D01*
X54199000Y-86924879D01*
X54325855Y-86287135D01*
X54574691Y-85686392D01*
X54575015Y-85685907D01*
X54935946Y-85145735D01*
X55395735Y-84685946D01*
X55936390Y-84324692D01*
X55959419Y-84315153D01*
X56537135Y-84075855D01*
X57174879Y-83949000D01*
X57825121Y-83949000D01*
X58462865Y-84075855D01*
X58462865Y-84075855D01*
G37*
G36*
X142328571Y-88452863D02*
G01*
X142407023Y-88460590D01*
X142507682Y-88491125D01*
X142558013Y-88506392D01*
X142697165Y-88580771D01*
X142819133Y-88680867D01*
X142919229Y-88802835D01*
X142993608Y-88941987D01*
X143000538Y-88964833D01*
X143039410Y-89092977D01*
X143054875Y-89250000D01*
X143039410Y-89407023D01*
X143022578Y-89462511D01*
X142993608Y-89558013D01*
X142919229Y-89697165D01*
X142819133Y-89819133D01*
X142697165Y-89919229D01*
X142558013Y-89993608D01*
X142510337Y-90008070D01*
X142407023Y-90039410D01*
X142330375Y-90046959D01*
X142289346Y-90051000D01*
X141210654Y-90051000D01*
X141169625Y-90046959D01*
X141092977Y-90039410D01*
X140989663Y-90008070D01*
X140941987Y-89993608D01*
X140802835Y-89919229D01*
X140680867Y-89819133D01*
X140580771Y-89697165D01*
X140506392Y-89558013D01*
X140477422Y-89462511D01*
X140460590Y-89407023D01*
X140445125Y-89250000D01*
X140460590Y-89092977D01*
X140499462Y-88964833D01*
X140506392Y-88941987D01*
X140580771Y-88802835D01*
X140680867Y-88680867D01*
X140802835Y-88580771D01*
X140941987Y-88506392D01*
X140992318Y-88491125D01*
X141092977Y-88460590D01*
X141171429Y-88452863D01*
X141210654Y-88449000D01*
X142289346Y-88449000D01*
X142328571Y-88452863D01*
X142328571Y-88452863D01*
G37*
G36*
X98651000Y-89296000D02*
G01*
X97049000Y-89296000D01*
X97049000Y-88594000D01*
X98651000Y-88594000D01*
X98651000Y-89296000D01*
X98651000Y-89296000D01*
G37*
G36*
X107951000Y-89296000D02*
G01*
X106349000Y-89296000D01*
X106349000Y-88594000D01*
X107951000Y-88594000D01*
X107951000Y-89296000D01*
X107951000Y-89296000D01*
G37*
G36*
X98651000Y-88026000D02*
G01*
X97049000Y-88026000D01*
X97049000Y-87324000D01*
X98651000Y-87324000D01*
X98651000Y-88026000D01*
X98651000Y-88026000D01*
G37*
G36*
X109379591Y-87053085D02*
G01*
X109413569Y-87063393D01*
X109444890Y-87080134D01*
X109472339Y-87102661D01*
X109494866Y-87130110D01*
X109511607Y-87161431D01*
X109521915Y-87195409D01*
X109526000Y-87236890D01*
X109526000Y-87838110D01*
X109521915Y-87879591D01*
X109511607Y-87913569D01*
X109494866Y-87944890D01*
X109472339Y-87972339D01*
X109444890Y-87994866D01*
X109413569Y-88011607D01*
X109379591Y-88021915D01*
X109338110Y-88026000D01*
X108661890Y-88026000D01*
X108620409Y-88021915D01*
X108586431Y-88011607D01*
X108555110Y-87994866D01*
X108527661Y-87972339D01*
X108505134Y-87944890D01*
X108488393Y-87913569D01*
X108478085Y-87879591D01*
X108474000Y-87838110D01*
X108474000Y-87236890D01*
X108478085Y-87195409D01*
X108488393Y-87161431D01*
X108505134Y-87130110D01*
X108527661Y-87102661D01*
X108555110Y-87080134D01*
X108586431Y-87063393D01*
X108620409Y-87053085D01*
X108661890Y-87049000D01*
X109338110Y-87049000D01*
X109379591Y-87053085D01*
X109379591Y-87053085D01*
G37*
G36*
X107951000Y-88026000D02*
G01*
X106349000Y-88026000D01*
X106349000Y-87324000D01*
X107951000Y-87324000D01*
X107951000Y-88026000D01*
X107951000Y-88026000D01*
G37*
G36*
X142328571Y-85952863D02*
G01*
X142407023Y-85960590D01*
X142507682Y-85991125D01*
X142558013Y-86006392D01*
X142697165Y-86080771D01*
X142819133Y-86180867D01*
X142919229Y-86302835D01*
X142993608Y-86441987D01*
X142993608Y-86441988D01*
X143039410Y-86592977D01*
X143054875Y-86750000D01*
X143039410Y-86907023D01*
X143033993Y-86924879D01*
X142993608Y-87058013D01*
X142919229Y-87197165D01*
X142819133Y-87319133D01*
X142697165Y-87419229D01*
X142558013Y-87493608D01*
X142507682Y-87508875D01*
X142407023Y-87539410D01*
X142328571Y-87547137D01*
X142289346Y-87551000D01*
X141210654Y-87551000D01*
X141171429Y-87547137D01*
X141092977Y-87539410D01*
X140992318Y-87508875D01*
X140941987Y-87493608D01*
X140802835Y-87419229D01*
X140680867Y-87319133D01*
X140580771Y-87197165D01*
X140506392Y-87058013D01*
X140466007Y-86924879D01*
X140460590Y-86907023D01*
X140445125Y-86750000D01*
X140460590Y-86592977D01*
X140506392Y-86441988D01*
X140506392Y-86441987D01*
X140580771Y-86302835D01*
X140680867Y-86180867D01*
X140802835Y-86080771D01*
X140941987Y-86006392D01*
X140992318Y-85991125D01*
X141092977Y-85960590D01*
X141171429Y-85952863D01*
X141210654Y-85949000D01*
X142289346Y-85949000D01*
X142328571Y-85952863D01*
X142328571Y-85952863D01*
G37*
G36*
X98651000Y-86756000D02*
G01*
X97049000Y-86756000D01*
X97049000Y-86054000D01*
X98651000Y-86054000D01*
X98651000Y-86756000D01*
X98651000Y-86756000D01*
G37*
G36*
X107951000Y-86756000D02*
G01*
X106349000Y-86756000D01*
X106349000Y-86054000D01*
X107951000Y-86054000D01*
X107951000Y-86756000D01*
X107951000Y-86756000D01*
G37*
G36*
X125310418Y-79876383D02*
G01*
X125317433Y-79878511D01*
X125323899Y-79881968D01*
X125334333Y-79890530D01*
X125556170Y-80112367D01*
X125564732Y-80122801D01*
X125568189Y-80129267D01*
X125572720Y-80144204D01*
X125582098Y-80166843D01*
X125595712Y-80187217D01*
X125613039Y-80204544D01*
X125633414Y-80218157D01*
X125656049Y-80227533D01*
X125670986Y-80232064D01*
X125677452Y-80235521D01*
X125687886Y-80244083D01*
X125909723Y-80465920D01*
X125918285Y-80476354D01*
X125921742Y-80482820D01*
X125926273Y-80497757D01*
X125935651Y-80520396D01*
X125949265Y-80540770D01*
X125966592Y-80558097D01*
X125986967Y-80571710D01*
X126009602Y-80581086D01*
X126024539Y-80585617D01*
X126031005Y-80589074D01*
X126041439Y-80597636D01*
X126263276Y-80819473D01*
X126271838Y-80829907D01*
X126275295Y-80836374D01*
X126279826Y-80851310D01*
X126289203Y-80873949D01*
X126302817Y-80894323D01*
X126320144Y-80911650D01*
X126340519Y-80925264D01*
X126363156Y-80934640D01*
X126378092Y-80939171D01*
X126384559Y-80942628D01*
X126394993Y-80951190D01*
X126616830Y-81173027D01*
X126625392Y-81183461D01*
X126628849Y-81189927D01*
X126633380Y-81204864D01*
X126642758Y-81227503D01*
X126656372Y-81247877D01*
X126673699Y-81265204D01*
X126694074Y-81278817D01*
X126716709Y-81288193D01*
X126731646Y-81292724D01*
X126738112Y-81296181D01*
X126748546Y-81304743D01*
X126970383Y-81526580D01*
X126978945Y-81537014D01*
X126982402Y-81543481D01*
X126986933Y-81558417D01*
X126996310Y-81581056D01*
X127009924Y-81601430D01*
X127027251Y-81618757D01*
X127047626Y-81632371D01*
X127070263Y-81641747D01*
X127085199Y-81646278D01*
X127091666Y-81649735D01*
X127102100Y-81658297D01*
X127323937Y-81880134D01*
X127332499Y-81890568D01*
X127335956Y-81897034D01*
X127340487Y-81911971D01*
X127349865Y-81934610D01*
X127363479Y-81954984D01*
X127380806Y-81972311D01*
X127401181Y-81985924D01*
X127423816Y-81995300D01*
X127438753Y-81999831D01*
X127445219Y-82003288D01*
X127455653Y-82011850D01*
X127677490Y-82233687D01*
X127686052Y-82244121D01*
X127689509Y-82250587D01*
X127694040Y-82265524D01*
X127703418Y-82288163D01*
X127717032Y-82308537D01*
X127734359Y-82325864D01*
X127754734Y-82339477D01*
X127777369Y-82348853D01*
X127792306Y-82353384D01*
X127798772Y-82356841D01*
X127809206Y-82365403D01*
X128031043Y-82587240D01*
X128039605Y-82597674D01*
X128043062Y-82604141D01*
X128047593Y-82619077D01*
X128056970Y-82641716D01*
X128070584Y-82662090D01*
X128087911Y-82679417D01*
X128108286Y-82693031D01*
X128130923Y-82702407D01*
X128145859Y-82706938D01*
X128152326Y-82710395D01*
X128162760Y-82718957D01*
X128384597Y-82940794D01*
X128393159Y-82951228D01*
X128396616Y-82957694D01*
X128401147Y-82972631D01*
X128410525Y-82995270D01*
X128424139Y-83015644D01*
X128441466Y-83032971D01*
X128461841Y-83046584D01*
X128484476Y-83055960D01*
X128499413Y-83060491D01*
X128505879Y-83063948D01*
X128516313Y-83072510D01*
X128738150Y-83294347D01*
X128746712Y-83304781D01*
X128750169Y-83311247D01*
X128754700Y-83326184D01*
X128764078Y-83348823D01*
X128777692Y-83369197D01*
X128795019Y-83386524D01*
X128815394Y-83400137D01*
X128838029Y-83409513D01*
X128852966Y-83414044D01*
X128859432Y-83417501D01*
X128869866Y-83426063D01*
X129091703Y-83647900D01*
X129100265Y-83658334D01*
X129103722Y-83664801D01*
X129108253Y-83679737D01*
X129117630Y-83702376D01*
X129131244Y-83722750D01*
X129148571Y-83740077D01*
X129168946Y-83753691D01*
X129191583Y-83763067D01*
X129206519Y-83767598D01*
X129212986Y-83771055D01*
X129223420Y-83779617D01*
X129445257Y-84001454D01*
X129453819Y-84011888D01*
X129457276Y-84018354D01*
X129461807Y-84033291D01*
X129471185Y-84055930D01*
X129484799Y-84076304D01*
X129502126Y-84093631D01*
X129522501Y-84107244D01*
X129545136Y-84116620D01*
X129560073Y-84121151D01*
X129566539Y-84124608D01*
X129576973Y-84133170D01*
X129798810Y-84355007D01*
X129807372Y-84365441D01*
X129810829Y-84371908D01*
X129815360Y-84386844D01*
X129824737Y-84409483D01*
X129838351Y-84429857D01*
X129855678Y-84447184D01*
X129876053Y-84460798D01*
X129898690Y-84470174D01*
X129913626Y-84474705D01*
X129920093Y-84478162D01*
X129930527Y-84486724D01*
X130152364Y-84708561D01*
X130160926Y-84718995D01*
X130164383Y-84725461D01*
X130168914Y-84740398D01*
X130178292Y-84763037D01*
X130191906Y-84783411D01*
X130209233Y-84800738D01*
X130229608Y-84814351D01*
X130252243Y-84823727D01*
X130267180Y-84828258D01*
X130273646Y-84831715D01*
X130284080Y-84840277D01*
X130505917Y-85062114D01*
X130514479Y-85072548D01*
X130517936Y-85079014D01*
X130522467Y-85093951D01*
X130531845Y-85116590D01*
X130545459Y-85136964D01*
X130562786Y-85154291D01*
X130583161Y-85167904D01*
X130605796Y-85177280D01*
X130620733Y-85181811D01*
X130627199Y-85185268D01*
X130637633Y-85193830D01*
X130859470Y-85415667D01*
X130868032Y-85426101D01*
X130871489Y-85432567D01*
X130873617Y-85439582D01*
X130874335Y-85446877D01*
X130873617Y-85454172D01*
X130871489Y-85461187D01*
X130868032Y-85467653D01*
X130859470Y-85478087D01*
X129753749Y-86583808D01*
X129743315Y-86592370D01*
X129736849Y-86595827D01*
X129729834Y-86597955D01*
X129722539Y-86598673D01*
X129715244Y-86597955D01*
X129708229Y-86595827D01*
X129701763Y-86592370D01*
X129691329Y-86583808D01*
X129469492Y-86361971D01*
X129460930Y-86351537D01*
X129457473Y-86345071D01*
X129452942Y-86330134D01*
X129443564Y-86307495D01*
X129429950Y-86287121D01*
X129412623Y-86269794D01*
X129392248Y-86256181D01*
X129369613Y-86246805D01*
X129354676Y-86242274D01*
X129348210Y-86238817D01*
X129337776Y-86230255D01*
X129115939Y-86008418D01*
X129107377Y-85997984D01*
X129103920Y-85991518D01*
X129099389Y-85976581D01*
X129090011Y-85953942D01*
X129076397Y-85933568D01*
X129059070Y-85916241D01*
X129038695Y-85902628D01*
X129016060Y-85893252D01*
X129001123Y-85888721D01*
X128994657Y-85885264D01*
X128984223Y-85876702D01*
X128762386Y-85654865D01*
X128753824Y-85644431D01*
X128750367Y-85637964D01*
X128745836Y-85623028D01*
X128736459Y-85600389D01*
X128722845Y-85580015D01*
X128705518Y-85562688D01*
X128685143Y-85549074D01*
X128662506Y-85539698D01*
X128647570Y-85535167D01*
X128641103Y-85531710D01*
X128630669Y-85523148D01*
X128408832Y-85301311D01*
X128400270Y-85290877D01*
X128396813Y-85284411D01*
X128392282Y-85269474D01*
X128382904Y-85246835D01*
X128369290Y-85226461D01*
X128351963Y-85209134D01*
X128331588Y-85195521D01*
X128308953Y-85186145D01*
X128294016Y-85181614D01*
X128287550Y-85178157D01*
X128277116Y-85169595D01*
X128055279Y-84947758D01*
X128046717Y-84937324D01*
X128043260Y-84930857D01*
X128038729Y-84915921D01*
X128029352Y-84893282D01*
X128015738Y-84872908D01*
X127998411Y-84855581D01*
X127978036Y-84841967D01*
X127955399Y-84832591D01*
X127940463Y-84828060D01*
X127933996Y-84824603D01*
X127923562Y-84816041D01*
X127701725Y-84594204D01*
X127693163Y-84583770D01*
X127689706Y-84577304D01*
X127685175Y-84562367D01*
X127675797Y-84539728D01*
X127662183Y-84519354D01*
X127644856Y-84502027D01*
X127624481Y-84488414D01*
X127601846Y-84479038D01*
X127586909Y-84474507D01*
X127580443Y-84471050D01*
X127570009Y-84462488D01*
X127348172Y-84240651D01*
X127339610Y-84230217D01*
X127336153Y-84223751D01*
X127331622Y-84208814D01*
X127322244Y-84186175D01*
X127308630Y-84165801D01*
X127291303Y-84148474D01*
X127270928Y-84134861D01*
X127248293Y-84125485D01*
X127233356Y-84120954D01*
X127226890Y-84117497D01*
X127216456Y-84108935D01*
X126994619Y-83887098D01*
X126986057Y-83876664D01*
X126982600Y-83870197D01*
X126978069Y-83855261D01*
X126968692Y-83832622D01*
X126955078Y-83812248D01*
X126937751Y-83794921D01*
X126917376Y-83781307D01*
X126894739Y-83771931D01*
X126879803Y-83767400D01*
X126873336Y-83763943D01*
X126862902Y-83755381D01*
X126641065Y-83533544D01*
X126632503Y-83523110D01*
X126629046Y-83516644D01*
X126624515Y-83501707D01*
X126615137Y-83479068D01*
X126601523Y-83458694D01*
X126584196Y-83441367D01*
X126563821Y-83427754D01*
X126541186Y-83418378D01*
X126526249Y-83413847D01*
X126519783Y-83410390D01*
X126509349Y-83401828D01*
X126287512Y-83179991D01*
X126278950Y-83169557D01*
X126275493Y-83163091D01*
X126270962Y-83148154D01*
X126261584Y-83125515D01*
X126247970Y-83105141D01*
X126230643Y-83087814D01*
X126210268Y-83074201D01*
X126187633Y-83064825D01*
X126172696Y-83060294D01*
X126166230Y-83056837D01*
X126155796Y-83048275D01*
X125933959Y-82826438D01*
X125925397Y-82816004D01*
X125921940Y-82809537D01*
X125917409Y-82794601D01*
X125908032Y-82771962D01*
X125894418Y-82751588D01*
X125877091Y-82734261D01*
X125856716Y-82720647D01*
X125834079Y-82711271D01*
X125819143Y-82706740D01*
X125812676Y-82703283D01*
X125802242Y-82694721D01*
X125580405Y-82472884D01*
X125571843Y-82462450D01*
X125568386Y-82455984D01*
X125563855Y-82441047D01*
X125554477Y-82418408D01*
X125540863Y-82398034D01*
X125523536Y-82380707D01*
X125503161Y-82367094D01*
X125480526Y-82357718D01*
X125465589Y-82353187D01*
X125459123Y-82349730D01*
X125448689Y-82341168D01*
X125226852Y-82119331D01*
X125218290Y-82108897D01*
X125214833Y-82102430D01*
X125210302Y-82087494D01*
X125200925Y-82064855D01*
X125187311Y-82044481D01*
X125169984Y-82027154D01*
X125149609Y-82013540D01*
X125126972Y-82004164D01*
X125112036Y-81999633D01*
X125105569Y-81996176D01*
X125095135Y-81987614D01*
X124873298Y-81765777D01*
X124864736Y-81755343D01*
X124861279Y-81748877D01*
X124856748Y-81733940D01*
X124847370Y-81711301D01*
X124833756Y-81690927D01*
X124816429Y-81673600D01*
X124796054Y-81659987D01*
X124773419Y-81650611D01*
X124758482Y-81646080D01*
X124752016Y-81642623D01*
X124741582Y-81634061D01*
X124519745Y-81412224D01*
X124511183Y-81401790D01*
X124507726Y-81395324D01*
X124503195Y-81380387D01*
X124493817Y-81357748D01*
X124480203Y-81337374D01*
X124462876Y-81320047D01*
X124442501Y-81306434D01*
X124419866Y-81297058D01*
X124404929Y-81292527D01*
X124398463Y-81289070D01*
X124388029Y-81280508D01*
X124166192Y-81058671D01*
X124157630Y-81048237D01*
X124154173Y-81041771D01*
X124152045Y-81034756D01*
X124151327Y-81027461D01*
X124152045Y-81020166D01*
X124154173Y-81013151D01*
X124157630Y-81006685D01*
X124166192Y-80996251D01*
X125271913Y-79890530D01*
X125282347Y-79881968D01*
X125288813Y-79878511D01*
X125295828Y-79876383D01*
X125303123Y-79875665D01*
X125310418Y-79876383D01*
X125310418Y-79876383D01*
G37*
G36*
X121704172Y-79876383D02*
G01*
X121711187Y-79878511D01*
X121717653Y-79881968D01*
X121728087Y-79890530D01*
X122833808Y-80996251D01*
X122842370Y-81006685D01*
X122845827Y-81013151D01*
X122847955Y-81020166D01*
X122848673Y-81027461D01*
X122847955Y-81034756D01*
X122845827Y-81041771D01*
X122842370Y-81048237D01*
X122833808Y-81058671D01*
X122611971Y-81280508D01*
X122601537Y-81289070D01*
X122595071Y-81292527D01*
X122580134Y-81297058D01*
X122557495Y-81306436D01*
X122537121Y-81320050D01*
X122519794Y-81337377D01*
X122506181Y-81357752D01*
X122496805Y-81380387D01*
X122492274Y-81395324D01*
X122488817Y-81401790D01*
X122480255Y-81412224D01*
X122258418Y-81634061D01*
X122247984Y-81642623D01*
X122241518Y-81646080D01*
X122226581Y-81650611D01*
X122203942Y-81659989D01*
X122183568Y-81673603D01*
X122166241Y-81690930D01*
X122152628Y-81711305D01*
X122143252Y-81733940D01*
X122138721Y-81748877D01*
X122135264Y-81755343D01*
X122126702Y-81765777D01*
X121904865Y-81987614D01*
X121894431Y-81996176D01*
X121887964Y-81999633D01*
X121873028Y-82004164D01*
X121850389Y-82013541D01*
X121830015Y-82027155D01*
X121812688Y-82044482D01*
X121799074Y-82064857D01*
X121789698Y-82087494D01*
X121785167Y-82102430D01*
X121781710Y-82108897D01*
X121773148Y-82119331D01*
X121551311Y-82341168D01*
X121540877Y-82349730D01*
X121534411Y-82353187D01*
X121519474Y-82357718D01*
X121496835Y-82367096D01*
X121476461Y-82380710D01*
X121459134Y-82398037D01*
X121445521Y-82418412D01*
X121436145Y-82441047D01*
X121431614Y-82455984D01*
X121428157Y-82462450D01*
X121419595Y-82472884D01*
X121197758Y-82694721D01*
X121187324Y-82703283D01*
X121180857Y-82706740D01*
X121165921Y-82711271D01*
X121143282Y-82720648D01*
X121122908Y-82734262D01*
X121105581Y-82751589D01*
X121091967Y-82771964D01*
X121082591Y-82794601D01*
X121078060Y-82809537D01*
X121074603Y-82816004D01*
X121066041Y-82826438D01*
X120844204Y-83048275D01*
X120833770Y-83056837D01*
X120827304Y-83060294D01*
X120812367Y-83064825D01*
X120789728Y-83074203D01*
X120769354Y-83087817D01*
X120752027Y-83105144D01*
X120738414Y-83125519D01*
X120729038Y-83148154D01*
X120724507Y-83163091D01*
X120721050Y-83169557D01*
X120712488Y-83179991D01*
X120490651Y-83401828D01*
X120480217Y-83410390D01*
X120473751Y-83413847D01*
X120458814Y-83418378D01*
X120436175Y-83427756D01*
X120415801Y-83441370D01*
X120398474Y-83458697D01*
X120384861Y-83479072D01*
X120375485Y-83501707D01*
X120370954Y-83516644D01*
X120367497Y-83523110D01*
X120358935Y-83533544D01*
X120137098Y-83755381D01*
X120126664Y-83763943D01*
X120120197Y-83767400D01*
X120105261Y-83771931D01*
X120082622Y-83781308D01*
X120062248Y-83794922D01*
X120044921Y-83812249D01*
X120031307Y-83832624D01*
X120021931Y-83855261D01*
X120017400Y-83870197D01*
X120013943Y-83876664D01*
X120005381Y-83887098D01*
X119783544Y-84108935D01*
X119773110Y-84117497D01*
X119766644Y-84120954D01*
X119751707Y-84125485D01*
X119729068Y-84134863D01*
X119708694Y-84148477D01*
X119691367Y-84165804D01*
X119677754Y-84186179D01*
X119668378Y-84208814D01*
X119663847Y-84223751D01*
X119660390Y-84230217D01*
X119651828Y-84240651D01*
X119429991Y-84462488D01*
X119419557Y-84471050D01*
X119413091Y-84474507D01*
X119398154Y-84479038D01*
X119375515Y-84488416D01*
X119355141Y-84502030D01*
X119337814Y-84519357D01*
X119324201Y-84539732D01*
X119314825Y-84562367D01*
X119310294Y-84577304D01*
X119306837Y-84583770D01*
X119298275Y-84594204D01*
X119076438Y-84816041D01*
X119066004Y-84824603D01*
X119059537Y-84828060D01*
X119044601Y-84832591D01*
X119021962Y-84841968D01*
X119001588Y-84855582D01*
X118984261Y-84872909D01*
X118970647Y-84893284D01*
X118961271Y-84915921D01*
X118956740Y-84930857D01*
X118953283Y-84937324D01*
X118944721Y-84947758D01*
X118722884Y-85169595D01*
X118712450Y-85178157D01*
X118705984Y-85181614D01*
X118691047Y-85186145D01*
X118668408Y-85195523D01*
X118648034Y-85209137D01*
X118630707Y-85226464D01*
X118617094Y-85246839D01*
X118607718Y-85269474D01*
X118603187Y-85284411D01*
X118599730Y-85290877D01*
X118591168Y-85301311D01*
X118369331Y-85523148D01*
X118358897Y-85531710D01*
X118352430Y-85535167D01*
X118337494Y-85539698D01*
X118314855Y-85549075D01*
X118294481Y-85562689D01*
X118277154Y-85580016D01*
X118263540Y-85600391D01*
X118254164Y-85623028D01*
X118249633Y-85637964D01*
X118246176Y-85644431D01*
X118237614Y-85654865D01*
X118015777Y-85876702D01*
X118005343Y-85885264D01*
X117998877Y-85888721D01*
X117983940Y-85893252D01*
X117961301Y-85902630D01*
X117940927Y-85916244D01*
X117923600Y-85933571D01*
X117909987Y-85953946D01*
X117900611Y-85976581D01*
X117896080Y-85991518D01*
X117892623Y-85997984D01*
X117884061Y-86008418D01*
X117662224Y-86230255D01*
X117651790Y-86238817D01*
X117645324Y-86242274D01*
X117630387Y-86246805D01*
X117607748Y-86256183D01*
X117587374Y-86269797D01*
X117570047Y-86287124D01*
X117556434Y-86307499D01*
X117547058Y-86330134D01*
X117542527Y-86345071D01*
X117539070Y-86351537D01*
X117530508Y-86361971D01*
X117308671Y-86583808D01*
X117298237Y-86592370D01*
X117291771Y-86595827D01*
X117284756Y-86597955D01*
X117277461Y-86598673D01*
X117270166Y-86597955D01*
X117263151Y-86595827D01*
X117256685Y-86592370D01*
X117246251Y-86583808D01*
X116140530Y-85478087D01*
X116131968Y-85467653D01*
X116128511Y-85461187D01*
X116126383Y-85454172D01*
X116125665Y-85446877D01*
X116126383Y-85439582D01*
X116128511Y-85432567D01*
X116131968Y-85426101D01*
X116140530Y-85415667D01*
X116362367Y-85193830D01*
X116372801Y-85185268D01*
X116379267Y-85181811D01*
X116394204Y-85177280D01*
X116416843Y-85167902D01*
X116437217Y-85154288D01*
X116454544Y-85136961D01*
X116468157Y-85116586D01*
X116477533Y-85093951D01*
X116482064Y-85079014D01*
X116485521Y-85072548D01*
X116494083Y-85062114D01*
X116715920Y-84840277D01*
X116726354Y-84831715D01*
X116732820Y-84828258D01*
X116747757Y-84823727D01*
X116770396Y-84814349D01*
X116790770Y-84800735D01*
X116808097Y-84783408D01*
X116821710Y-84763033D01*
X116831086Y-84740398D01*
X116835617Y-84725461D01*
X116839074Y-84718995D01*
X116847636Y-84708561D01*
X117069473Y-84486724D01*
X117079907Y-84478162D01*
X117086374Y-84474705D01*
X117101310Y-84470174D01*
X117123949Y-84460797D01*
X117144323Y-84447183D01*
X117161650Y-84429856D01*
X117175264Y-84409481D01*
X117184640Y-84386844D01*
X117189171Y-84371908D01*
X117192628Y-84365441D01*
X117201190Y-84355007D01*
X117423027Y-84133170D01*
X117433461Y-84124608D01*
X117439927Y-84121151D01*
X117454864Y-84116620D01*
X117477503Y-84107242D01*
X117497877Y-84093628D01*
X117515204Y-84076301D01*
X117528817Y-84055926D01*
X117538193Y-84033291D01*
X117542724Y-84018354D01*
X117546181Y-84011888D01*
X117554743Y-84001454D01*
X117776580Y-83779617D01*
X117787014Y-83771055D01*
X117793481Y-83767598D01*
X117808417Y-83763067D01*
X117831056Y-83753690D01*
X117851430Y-83740076D01*
X117868757Y-83722749D01*
X117882371Y-83702374D01*
X117891747Y-83679737D01*
X117896278Y-83664801D01*
X117899735Y-83658334D01*
X117908297Y-83647900D01*
X118130134Y-83426063D01*
X118140568Y-83417501D01*
X118147034Y-83414044D01*
X118161971Y-83409513D01*
X118184610Y-83400135D01*
X118204984Y-83386521D01*
X118222311Y-83369194D01*
X118235924Y-83348819D01*
X118245300Y-83326184D01*
X118249831Y-83311247D01*
X118253288Y-83304781D01*
X118261850Y-83294347D01*
X118483687Y-83072510D01*
X118494121Y-83063948D01*
X118500587Y-83060491D01*
X118515524Y-83055960D01*
X118538163Y-83046582D01*
X118558537Y-83032968D01*
X118575864Y-83015641D01*
X118589477Y-82995266D01*
X118598853Y-82972631D01*
X118603384Y-82957694D01*
X118606841Y-82951228D01*
X118615403Y-82940794D01*
X118837240Y-82718957D01*
X118847674Y-82710395D01*
X118854141Y-82706938D01*
X118869077Y-82702407D01*
X118891716Y-82693030D01*
X118912090Y-82679416D01*
X118929417Y-82662089D01*
X118943031Y-82641714D01*
X118952407Y-82619077D01*
X118956938Y-82604141D01*
X118960395Y-82597674D01*
X118968957Y-82587240D01*
X119190794Y-82365403D01*
X119201228Y-82356841D01*
X119207694Y-82353384D01*
X119222631Y-82348853D01*
X119245270Y-82339475D01*
X119265644Y-82325861D01*
X119282971Y-82308534D01*
X119296584Y-82288159D01*
X119305960Y-82265524D01*
X119310491Y-82250587D01*
X119313948Y-82244121D01*
X119322510Y-82233687D01*
X119544347Y-82011850D01*
X119554781Y-82003288D01*
X119561247Y-81999831D01*
X119576184Y-81995300D01*
X119598823Y-81985922D01*
X119619197Y-81972308D01*
X119636524Y-81954981D01*
X119650137Y-81934606D01*
X119659513Y-81911971D01*
X119664044Y-81897034D01*
X119667501Y-81890568D01*
X119676063Y-81880134D01*
X119897900Y-81658297D01*
X119908334Y-81649735D01*
X119914801Y-81646278D01*
X119929737Y-81641747D01*
X119952376Y-81632370D01*
X119972750Y-81618756D01*
X119990077Y-81601429D01*
X120003691Y-81581054D01*
X120013067Y-81558417D01*
X120017598Y-81543481D01*
X120021055Y-81537014D01*
X120029617Y-81526580D01*
X120251454Y-81304743D01*
X120261888Y-81296181D01*
X120268354Y-81292724D01*
X120283291Y-81288193D01*
X120305930Y-81278815D01*
X120326304Y-81265201D01*
X120343631Y-81247874D01*
X120357244Y-81227499D01*
X120366620Y-81204864D01*
X120371151Y-81189927D01*
X120374608Y-81183461D01*
X120383170Y-81173027D01*
X120605007Y-80951190D01*
X120615441Y-80942628D01*
X120621908Y-80939171D01*
X120636844Y-80934640D01*
X120659483Y-80925263D01*
X120679857Y-80911649D01*
X120697184Y-80894322D01*
X120710798Y-80873947D01*
X120720174Y-80851310D01*
X120724705Y-80836374D01*
X120728162Y-80829907D01*
X120736724Y-80819473D01*
X120958561Y-80597636D01*
X120968995Y-80589074D01*
X120975461Y-80585617D01*
X120990398Y-80581086D01*
X121013037Y-80571708D01*
X121033411Y-80558094D01*
X121050738Y-80540767D01*
X121064351Y-80520392D01*
X121073727Y-80497757D01*
X121078258Y-80482820D01*
X121081715Y-80476354D01*
X121090277Y-80465920D01*
X121312114Y-80244083D01*
X121322548Y-80235521D01*
X121329014Y-80232064D01*
X121343951Y-80227533D01*
X121366590Y-80218155D01*
X121386964Y-80204541D01*
X121404291Y-80187214D01*
X121417904Y-80166839D01*
X121427280Y-80144204D01*
X121431811Y-80129267D01*
X121435268Y-80122801D01*
X121443830Y-80112367D01*
X121665667Y-79890530D01*
X121676101Y-79881968D01*
X121682567Y-79878511D01*
X121689582Y-79876383D01*
X121696877Y-79875665D01*
X121704172Y-79876383D01*
X121704172Y-79876383D01*
G37*
G36*
X109379591Y-85478085D02*
G01*
X109413569Y-85488393D01*
X109444890Y-85505134D01*
X109472339Y-85527661D01*
X109494866Y-85555110D01*
X109511607Y-85586431D01*
X109521915Y-85620409D01*
X109526000Y-85661890D01*
X109526000Y-86263110D01*
X109521915Y-86304591D01*
X109511607Y-86338569D01*
X109494866Y-86369890D01*
X109472339Y-86397339D01*
X109444890Y-86419866D01*
X109413569Y-86436607D01*
X109379591Y-86446915D01*
X109338110Y-86451000D01*
X108661890Y-86451000D01*
X108620409Y-86446915D01*
X108586431Y-86436607D01*
X108555110Y-86419866D01*
X108527661Y-86397339D01*
X108505134Y-86369890D01*
X108488393Y-86338569D01*
X108478085Y-86304591D01*
X108474000Y-86263110D01*
X108474000Y-85661890D01*
X108478085Y-85620409D01*
X108488393Y-85586431D01*
X108505134Y-85555110D01*
X108527661Y-85527661D01*
X108555110Y-85505134D01*
X108586431Y-85488393D01*
X108620409Y-85478085D01*
X108661890Y-85474000D01*
X109338110Y-85474000D01*
X109379591Y-85478085D01*
X109379591Y-85478085D01*
G37*
G36*
X135685908Y-83916727D02*
G01*
X133916727Y-85685908D01*
X132430388Y-84199569D01*
X134199569Y-82430388D01*
X135685908Y-83916727D01*
X135685908Y-83916727D01*
G37*
G36*
X107951000Y-85486000D02*
G01*
X106349000Y-85486000D01*
X106349000Y-84784000D01*
X107951000Y-84784000D01*
X107951000Y-85486000D01*
X107951000Y-85486000D01*
G37*
G36*
X98651000Y-85486000D02*
G01*
X97049000Y-85486000D01*
X97049000Y-84784000D01*
X98651000Y-84784000D01*
X98651000Y-85486000D01*
X98651000Y-85486000D01*
G37*
G36*
X107951000Y-84216000D02*
G01*
X106349000Y-84216000D01*
X106349000Y-83514000D01*
X107951000Y-83514000D01*
X107951000Y-84216000D01*
X107951000Y-84216000D01*
G37*
G36*
X98651000Y-84216000D02*
G01*
X97049000Y-84216000D01*
X97049000Y-83514000D01*
X98651000Y-83514000D01*
X98651000Y-84216000D01*
X98651000Y-84216000D01*
G37*
G36*
X133069612Y-81300431D02*
G01*
X131300431Y-83069612D01*
X129814092Y-81583273D01*
X131583273Y-79814092D01*
X133069612Y-81300431D01*
X133069612Y-81300431D01*
G37*
G36*
X98651000Y-82946000D02*
G01*
X97049000Y-82946000D01*
X97049000Y-82244000D01*
X98651000Y-82244000D01*
X98651000Y-82946000D01*
X98651000Y-82946000D01*
G37*
G36*
X107951000Y-82946000D02*
G01*
X106349000Y-82946000D01*
X106349000Y-82244000D01*
X107951000Y-82244000D01*
X107951000Y-82946000D01*
X107951000Y-82946000D01*
G37*
G36*
X135868705Y-81475702D02*
G01*
X135902683Y-81486010D01*
X135934004Y-81502751D01*
X135966218Y-81529189D01*
X136006069Y-81569040D01*
X136006075Y-81569045D01*
X136351496Y-81914466D01*
X136351501Y-81914472D01*
X136391352Y-81954323D01*
X136417790Y-81986537D01*
X136434531Y-82017858D01*
X136444839Y-82051836D01*
X136448319Y-82087177D01*
X136444839Y-82122518D01*
X136434531Y-82156496D01*
X136417790Y-82187817D01*
X136391352Y-82220031D01*
X136351501Y-82259882D01*
X136351496Y-82259888D01*
X135953041Y-82658343D01*
X135953035Y-82658348D01*
X135913184Y-82698199D01*
X135880970Y-82724637D01*
X135849649Y-82741378D01*
X135815671Y-82751686D01*
X135780330Y-82755166D01*
X135744989Y-82751686D01*
X135711011Y-82741378D01*
X135679690Y-82724637D01*
X135647476Y-82698199D01*
X135607625Y-82658348D01*
X135607619Y-82658343D01*
X135262198Y-82312922D01*
X135262193Y-82312916D01*
X135222342Y-82273065D01*
X135195904Y-82240851D01*
X135179163Y-82209530D01*
X135168855Y-82175552D01*
X135165375Y-82140211D01*
X135168855Y-82104870D01*
X135179163Y-82070892D01*
X135195904Y-82039571D01*
X135222342Y-82007357D01*
X135262193Y-81967506D01*
X135262198Y-81967500D01*
X135660653Y-81569045D01*
X135660659Y-81569040D01*
X135700510Y-81529189D01*
X135732724Y-81502751D01*
X135764045Y-81486010D01*
X135798023Y-81475702D01*
X135833364Y-81472222D01*
X135868705Y-81475702D01*
X135868705Y-81475702D01*
G37*
G36*
X142311581Y-80951190D02*
G01*
X142407023Y-80960590D01*
X142507420Y-80991045D01*
X142558013Y-81006392D01*
X142697165Y-81080771D01*
X142819133Y-81180867D01*
X142919229Y-81302835D01*
X142993608Y-81441987D01*
X143002815Y-81472339D01*
X143039410Y-81592977D01*
X143054875Y-81750000D01*
X143039410Y-81907023D01*
X143012411Y-81996026D01*
X142993608Y-82058013D01*
X142919229Y-82197165D01*
X142819133Y-82319133D01*
X142697165Y-82419229D01*
X142558013Y-82493608D01*
X142507682Y-82508875D01*
X142407023Y-82539410D01*
X142328571Y-82547137D01*
X142289346Y-82551000D01*
X141210654Y-82551000D01*
X141171429Y-82547137D01*
X141092977Y-82539410D01*
X140992318Y-82508875D01*
X140941987Y-82493608D01*
X140802835Y-82419229D01*
X140680867Y-82319133D01*
X140580771Y-82197165D01*
X140506392Y-82058013D01*
X140487589Y-81996026D01*
X140460590Y-81907023D01*
X140445125Y-81750000D01*
X140460590Y-81592977D01*
X140497185Y-81472339D01*
X140506392Y-81441987D01*
X140580771Y-81302835D01*
X140680867Y-81180867D01*
X140802835Y-81080771D01*
X140941987Y-81006392D01*
X140992580Y-80991045D01*
X141092977Y-80960590D01*
X141188419Y-80951190D01*
X141210654Y-80949000D01*
X142289346Y-80949000D01*
X142311581Y-80951190D01*
X142311581Y-80951190D01*
G37*
G36*
X86825331Y-78668211D02*
G01*
X87153092Y-78803974D01*
X87448070Y-79001072D01*
X87698928Y-79251930D01*
X87896026Y-79546908D01*
X88031789Y-79874669D01*
X88101000Y-80222616D01*
X88101000Y-80577384D01*
X88031789Y-80925331D01*
X87896026Y-81253092D01*
X87698928Y-81548070D01*
X87448070Y-81798928D01*
X87153092Y-81996026D01*
X86825331Y-82131789D01*
X86477384Y-82201000D01*
X86122616Y-82201000D01*
X85774669Y-82131789D01*
X85446908Y-81996026D01*
X85151930Y-81798928D01*
X84901072Y-81548070D01*
X84703974Y-81253092D01*
X84568211Y-80925331D01*
X84499000Y-80577384D01*
X84499000Y-80222616D01*
X84568211Y-79874669D01*
X84703974Y-79546908D01*
X84901072Y-79251930D01*
X85151930Y-79001072D01*
X85446908Y-78803974D01*
X85774669Y-78668211D01*
X86122616Y-78599000D01*
X86477384Y-78599000D01*
X86825331Y-78668211D01*
X86825331Y-78668211D01*
G37*
G36*
X75825331Y-78668211D02*
G01*
X76153092Y-78803974D01*
X76448070Y-79001072D01*
X76698928Y-79251930D01*
X76896026Y-79546908D01*
X77031789Y-79874669D01*
X77101000Y-80222616D01*
X77101000Y-80577384D01*
X77031789Y-80925331D01*
X76896026Y-81253092D01*
X76698928Y-81548070D01*
X76448070Y-81798928D01*
X76153092Y-81996026D01*
X75825331Y-82131789D01*
X75477384Y-82201000D01*
X75122616Y-82201000D01*
X74774669Y-82131789D01*
X74446908Y-81996026D01*
X74151930Y-81798928D01*
X73901072Y-81548070D01*
X73703974Y-81253092D01*
X73568211Y-80925331D01*
X73499000Y-80577384D01*
X73499000Y-80222616D01*
X73568211Y-79874669D01*
X73703974Y-79546908D01*
X73901072Y-79251930D01*
X74151930Y-79001072D01*
X74446908Y-78803974D01*
X74774669Y-78668211D01*
X75122616Y-78599000D01*
X75477384Y-78599000D01*
X75825331Y-78668211D01*
X75825331Y-78668211D01*
G37*
G36*
X98651000Y-81676000D02*
G01*
X97049000Y-81676000D01*
X97049000Y-80974000D01*
X98651000Y-80974000D01*
X98651000Y-81676000D01*
X98651000Y-81676000D01*
G37*
G36*
X107951000Y-81676000D02*
G01*
X106349000Y-81676000D01*
X106349000Y-80974000D01*
X107951000Y-80974000D01*
X107951000Y-81676000D01*
X107951000Y-81676000D01*
G37*
G36*
X134311858Y-79918855D02*
G01*
X134345836Y-79929163D01*
X134377157Y-79945904D01*
X134409371Y-79972342D01*
X134449222Y-80012193D01*
X134449228Y-80012198D01*
X134794649Y-80357619D01*
X134794654Y-80357625D01*
X134834504Y-80397475D01*
X134834810Y-80397848D01*
X134852152Y-80415190D01*
X134852525Y-80415496D01*
X134892375Y-80455346D01*
X134892381Y-80455351D01*
X135237802Y-80800772D01*
X135237807Y-80800778D01*
X135277658Y-80840629D01*
X135304096Y-80872843D01*
X135320837Y-80904164D01*
X135331145Y-80938142D01*
X135334625Y-80973483D01*
X135331145Y-81008824D01*
X135320837Y-81042802D01*
X135304096Y-81074123D01*
X135277658Y-81106337D01*
X135237807Y-81146188D01*
X135237802Y-81146194D01*
X134839347Y-81544649D01*
X134839341Y-81544654D01*
X134799490Y-81584505D01*
X134767276Y-81610943D01*
X134735955Y-81627684D01*
X134701977Y-81637992D01*
X134666636Y-81641472D01*
X134631295Y-81637992D01*
X134597317Y-81627684D01*
X134565996Y-81610943D01*
X134533782Y-81584505D01*
X134493931Y-81544654D01*
X134493925Y-81544649D01*
X134148504Y-81199228D01*
X134148499Y-81199222D01*
X134108649Y-81159372D01*
X134108343Y-81158999D01*
X134091001Y-81141657D01*
X134090628Y-81141351D01*
X134050778Y-81101501D01*
X134050772Y-81101496D01*
X133705351Y-80756075D01*
X133705346Y-80756069D01*
X133665495Y-80716218D01*
X133639057Y-80684004D01*
X133622316Y-80652683D01*
X133612008Y-80618705D01*
X133608528Y-80583364D01*
X133612008Y-80548023D01*
X133622316Y-80514045D01*
X133639057Y-80482724D01*
X133665495Y-80450510D01*
X133705346Y-80410659D01*
X133705351Y-80410653D01*
X134103806Y-80012198D01*
X134103812Y-80012193D01*
X134143663Y-79972342D01*
X134175877Y-79945904D01*
X134207198Y-79929163D01*
X134241176Y-79918855D01*
X134276517Y-79915375D01*
X134311858Y-79918855D01*
X134311858Y-79918855D01*
G37*
G36*
X60879591Y-80478085D02*
G01*
X60913569Y-80488393D01*
X60944890Y-80505134D01*
X60972339Y-80527661D01*
X60994866Y-80555110D01*
X61011607Y-80586431D01*
X61021915Y-80620409D01*
X61026000Y-80661890D01*
X61026000Y-81338110D01*
X61021915Y-81379591D01*
X61011607Y-81413569D01*
X60994866Y-81444890D01*
X60972339Y-81472339D01*
X60944890Y-81494866D01*
X60913569Y-81511607D01*
X60879591Y-81521915D01*
X60838110Y-81526000D01*
X60236890Y-81526000D01*
X60195409Y-81521915D01*
X60161431Y-81511607D01*
X60130110Y-81494866D01*
X60102661Y-81472339D01*
X60080134Y-81444890D01*
X60063393Y-81413569D01*
X60053085Y-81379591D01*
X60049000Y-81338110D01*
X60049000Y-80661890D01*
X60053085Y-80620409D01*
X60063393Y-80586431D01*
X60080134Y-80555110D01*
X60102661Y-80527661D01*
X60130110Y-80505134D01*
X60161431Y-80488393D01*
X60195409Y-80478085D01*
X60236890Y-80474000D01*
X60838110Y-80474000D01*
X60879591Y-80478085D01*
X60879591Y-80478085D01*
G37*
G36*
X59304591Y-80478085D02*
G01*
X59338569Y-80488393D01*
X59369890Y-80505134D01*
X59397339Y-80527661D01*
X59419866Y-80555110D01*
X59436607Y-80586431D01*
X59446915Y-80620409D01*
X59451000Y-80661890D01*
X59451000Y-81338110D01*
X59446915Y-81379591D01*
X59436607Y-81413569D01*
X59419866Y-81444890D01*
X59397339Y-81472339D01*
X59369890Y-81494866D01*
X59338569Y-81511607D01*
X59304591Y-81521915D01*
X59263110Y-81526000D01*
X58661890Y-81526000D01*
X58620409Y-81521915D01*
X58586431Y-81511607D01*
X58555110Y-81494866D01*
X58527661Y-81472339D01*
X58505134Y-81444890D01*
X58488393Y-81413569D01*
X58478085Y-81379591D01*
X58474000Y-81338110D01*
X58474000Y-80661890D01*
X58478085Y-80620409D01*
X58488393Y-80586431D01*
X58505134Y-80555110D01*
X58527661Y-80527661D01*
X58555110Y-80505134D01*
X58586431Y-80488393D01*
X58620409Y-80478085D01*
X58661890Y-80474000D01*
X59263110Y-80474000D01*
X59304591Y-80478085D01*
X59304591Y-80478085D01*
G37*
G36*
X109379591Y-79553085D02*
G01*
X109413569Y-79563393D01*
X109444890Y-79580134D01*
X109472339Y-79602661D01*
X109494866Y-79630110D01*
X109511607Y-79661431D01*
X109521915Y-79695409D01*
X109526000Y-79736890D01*
X109526000Y-80338110D01*
X109521915Y-80379591D01*
X109511607Y-80413569D01*
X109494866Y-80444890D01*
X109472339Y-80472339D01*
X109444890Y-80494866D01*
X109413569Y-80511607D01*
X109379591Y-80521915D01*
X109338110Y-80526000D01*
X108661890Y-80526000D01*
X108620409Y-80521915D01*
X108586431Y-80511607D01*
X108555110Y-80494866D01*
X108527661Y-80472339D01*
X108505134Y-80444890D01*
X108488393Y-80413569D01*
X108478085Y-80379591D01*
X108474000Y-80338110D01*
X108474000Y-79736890D01*
X108478085Y-79695409D01*
X108488393Y-79661431D01*
X108505134Y-79630110D01*
X108527661Y-79602661D01*
X108555110Y-79580134D01*
X108586431Y-79563393D01*
X108620409Y-79553085D01*
X108661890Y-79549000D01*
X109338110Y-79549000D01*
X109379591Y-79553085D01*
X109379591Y-79553085D01*
G37*
G36*
X107951000Y-80406000D02*
G01*
X106349000Y-80406000D01*
X106349000Y-79704000D01*
X107951000Y-79704000D01*
X107951000Y-80406000D01*
X107951000Y-80406000D01*
G37*
G36*
X98651000Y-80406000D02*
G01*
X97049000Y-80406000D01*
X97049000Y-79704000D01*
X98651000Y-79704000D01*
X98651000Y-80406000D01*
X98651000Y-80406000D01*
G37*
G36*
X133198164Y-78805161D02*
G01*
X133232142Y-78815469D01*
X133263463Y-78832210D01*
X133295677Y-78858648D01*
X133335528Y-78898499D01*
X133335534Y-78898504D01*
X133680955Y-79243925D01*
X133680960Y-79243931D01*
X133720811Y-79283782D01*
X133747249Y-79315996D01*
X133763990Y-79347317D01*
X133774298Y-79381295D01*
X133777778Y-79416636D01*
X133774298Y-79451977D01*
X133763990Y-79485955D01*
X133747249Y-79517276D01*
X133720811Y-79549490D01*
X133680960Y-79589341D01*
X133680955Y-79589347D01*
X133282500Y-79987802D01*
X133282494Y-79987807D01*
X133242643Y-80027658D01*
X133210429Y-80054096D01*
X133179108Y-80070837D01*
X133145130Y-80081145D01*
X133109789Y-80084625D01*
X133074448Y-80081145D01*
X133040470Y-80070837D01*
X133009149Y-80054096D01*
X132976935Y-80027658D01*
X132937084Y-79987807D01*
X132937078Y-79987802D01*
X132591657Y-79642381D01*
X132591652Y-79642375D01*
X132551801Y-79602524D01*
X132525363Y-79570310D01*
X132508622Y-79538989D01*
X132498314Y-79505011D01*
X132494834Y-79469670D01*
X132498314Y-79434329D01*
X132508622Y-79400351D01*
X132525363Y-79369030D01*
X132551801Y-79336816D01*
X132591652Y-79296965D01*
X132591657Y-79296959D01*
X132990112Y-78898504D01*
X132990118Y-78898499D01*
X133029969Y-78858648D01*
X133062183Y-78832210D01*
X133093504Y-78815469D01*
X133127482Y-78805161D01*
X133162823Y-78801681D01*
X133198164Y-78805161D01*
X133198164Y-78805161D01*
G37*
G36*
X142328571Y-78452863D02*
G01*
X142407023Y-78460590D01*
X142507682Y-78491125D01*
X142558013Y-78506392D01*
X142697165Y-78580771D01*
X142819133Y-78680867D01*
X142919229Y-78802835D01*
X142993608Y-78941987D01*
X142993608Y-78941988D01*
X143039410Y-79092977D01*
X143054875Y-79250000D01*
X143039410Y-79407023D01*
X143025773Y-79451977D01*
X142993608Y-79558013D01*
X142919229Y-79697165D01*
X142819133Y-79819133D01*
X142697165Y-79919229D01*
X142558013Y-79993608D01*
X142507682Y-80008875D01*
X142407023Y-80039410D01*
X142328571Y-80047137D01*
X142289346Y-80051000D01*
X141210654Y-80051000D01*
X141171429Y-80047137D01*
X141092977Y-80039410D01*
X140992318Y-80008875D01*
X140941987Y-79993608D01*
X140802835Y-79919229D01*
X140680867Y-79819133D01*
X140580771Y-79697165D01*
X140506392Y-79558013D01*
X140474227Y-79451977D01*
X140460590Y-79407023D01*
X140445125Y-79250000D01*
X140460590Y-79092977D01*
X140506392Y-78941988D01*
X140506392Y-78941987D01*
X140580771Y-78802835D01*
X140680867Y-78680867D01*
X140802835Y-78580771D01*
X140941987Y-78506392D01*
X140992318Y-78491125D01*
X141092977Y-78460590D01*
X141171429Y-78452863D01*
X141210654Y-78449000D01*
X142289346Y-78449000D01*
X142328571Y-78452863D01*
X142328571Y-78452863D01*
G37*
G36*
X63254554Y-70864284D02*
G01*
X64037286Y-71188502D01*
X64037288Y-71188503D01*
X64741728Y-71659195D01*
X65340805Y-72258272D01*
X65756545Y-72880471D01*
X65811498Y-72962714D01*
X66135716Y-73745446D01*
X66301000Y-74576387D01*
X66301000Y-75423613D01*
X66135716Y-76254554D01*
X65819381Y-77018255D01*
X65811497Y-77037288D01*
X65340805Y-77741728D01*
X64741728Y-78340805D01*
X64037288Y-78811497D01*
X64037287Y-78811498D01*
X64037286Y-78811498D01*
X63254554Y-79135716D01*
X62423613Y-79301000D01*
X61576387Y-79301000D01*
X60745446Y-79135716D01*
X59962714Y-78811498D01*
X59962713Y-78811498D01*
X59962712Y-78811497D01*
X59258272Y-78340805D01*
X58659195Y-77741728D01*
X58188503Y-77037288D01*
X58180619Y-77018255D01*
X57864284Y-76254554D01*
X57699000Y-75423613D01*
X57699000Y-74576387D01*
X57864284Y-73745446D01*
X58188502Y-72962714D01*
X58243455Y-72880471D01*
X58659195Y-72258272D01*
X59258272Y-71659195D01*
X59962712Y-71188503D01*
X59962714Y-71188502D01*
X60745446Y-70864284D01*
X61576387Y-70699000D01*
X62423613Y-70699000D01*
X63254554Y-70864284D01*
X63254554Y-70864284D01*
G37*
G36*
X52254554Y-70864284D02*
G01*
X53037286Y-71188502D01*
X53037288Y-71188503D01*
X53741728Y-71659195D01*
X54340805Y-72258272D01*
X54756545Y-72880471D01*
X54811498Y-72962714D01*
X55135716Y-73745446D01*
X55301000Y-74576387D01*
X55301000Y-75423613D01*
X55135716Y-76254554D01*
X54819381Y-77018255D01*
X54811497Y-77037288D01*
X54340805Y-77741728D01*
X53741728Y-78340805D01*
X53037288Y-78811497D01*
X53037287Y-78811498D01*
X53037286Y-78811498D01*
X52254554Y-79135716D01*
X51423613Y-79301000D01*
X50576387Y-79301000D01*
X49745446Y-79135716D01*
X48962714Y-78811498D01*
X48962713Y-78811498D01*
X48962712Y-78811497D01*
X48258272Y-78340805D01*
X47659195Y-77741728D01*
X47188503Y-77037288D01*
X47180619Y-77018255D01*
X46864284Y-76254554D01*
X46699000Y-75423613D01*
X46699000Y-74576387D01*
X46864284Y-73745446D01*
X47188502Y-72962714D01*
X47243455Y-72880471D01*
X47659195Y-72258272D01*
X48258272Y-71659195D01*
X48962712Y-71188503D01*
X48962714Y-71188502D01*
X49745446Y-70864284D01*
X50576387Y-70699000D01*
X51423613Y-70699000D01*
X52254554Y-70864284D01*
X52254554Y-70864284D01*
G37*
G36*
X109379591Y-77978085D02*
G01*
X109413569Y-77988393D01*
X109444890Y-78005134D01*
X109472339Y-78027661D01*
X109494866Y-78055110D01*
X109511607Y-78086431D01*
X109521915Y-78120409D01*
X109526000Y-78161890D01*
X109526000Y-78763110D01*
X109521915Y-78804591D01*
X109511607Y-78838569D01*
X109494866Y-78869890D01*
X109472339Y-78897339D01*
X109444890Y-78919866D01*
X109413569Y-78936607D01*
X109379591Y-78946915D01*
X109338110Y-78951000D01*
X108661890Y-78951000D01*
X108620409Y-78946915D01*
X108586431Y-78936607D01*
X108555110Y-78919866D01*
X108527661Y-78897339D01*
X108505134Y-78869890D01*
X108488393Y-78838569D01*
X108478085Y-78804591D01*
X108474000Y-78763110D01*
X108474000Y-78161890D01*
X108478085Y-78120409D01*
X108488393Y-78086431D01*
X108505134Y-78055110D01*
X108527661Y-78027661D01*
X108555110Y-78005134D01*
X108586431Y-77988393D01*
X108620409Y-77978085D01*
X108661890Y-77974000D01*
X109338110Y-77974000D01*
X109379591Y-77978085D01*
X109379591Y-77978085D01*
G37*
G36*
X126237142Y-76758242D02*
G01*
X126385101Y-76819529D01*
X126518255Y-76908499D01*
X126631501Y-77021745D01*
X126720471Y-77154899D01*
X126781758Y-77302858D01*
X126813000Y-77459925D01*
X126813000Y-77620075D01*
X126781758Y-77777142D01*
X126720471Y-77925101D01*
X126631501Y-78058255D01*
X126518255Y-78171501D01*
X126385101Y-78260471D01*
X126237142Y-78321758D01*
X126080075Y-78353000D01*
X125919925Y-78353000D01*
X125762858Y-78321758D01*
X125614899Y-78260471D01*
X125481745Y-78171501D01*
X125368499Y-78058255D01*
X125279529Y-77925101D01*
X125218242Y-77777142D01*
X125187000Y-77620075D01*
X125187000Y-77459925D01*
X125218242Y-77302858D01*
X125279529Y-77154899D01*
X125368499Y-77021745D01*
X125481745Y-76908499D01*
X125614899Y-76819529D01*
X125762858Y-76758242D01*
X125919925Y-76727000D01*
X126080075Y-76727000D01*
X126237142Y-76758242D01*
X126237142Y-76758242D01*
G37*
G36*
X136237142Y-76458242D02*
G01*
X136385101Y-76519529D01*
X136518255Y-76608499D01*
X136631501Y-76721745D01*
X136720471Y-76854899D01*
X136781758Y-77002858D01*
X136813000Y-77159925D01*
X136813000Y-77320075D01*
X136781758Y-77477142D01*
X136720471Y-77625101D01*
X136631501Y-77758255D01*
X136518255Y-77871501D01*
X136385101Y-77960471D01*
X136237142Y-78021758D01*
X136080075Y-78053000D01*
X135919925Y-78053000D01*
X135762858Y-78021758D01*
X135614899Y-77960471D01*
X135481745Y-77871501D01*
X135368499Y-77758255D01*
X135279529Y-77625101D01*
X135218242Y-77477142D01*
X135187000Y-77320075D01*
X135187000Y-77159925D01*
X135218242Y-77002858D01*
X135279529Y-76854899D01*
X135368499Y-76721745D01*
X135481745Y-76608499D01*
X135614899Y-76519529D01*
X135762858Y-76458242D01*
X135919925Y-76427000D01*
X136080075Y-76427000D01*
X136237142Y-76458242D01*
X136237142Y-76458242D01*
G37*
G36*
X114301000Y-77551000D02*
G01*
X112199000Y-77551000D01*
X112199000Y-75449000D01*
X114301000Y-75449000D01*
X114301000Y-77551000D01*
X114301000Y-77551000D01*
G37*
G36*
X100379591Y-76478085D02*
G01*
X100413569Y-76488393D01*
X100444890Y-76505134D01*
X100472339Y-76527661D01*
X100494866Y-76555110D01*
X100511607Y-76586431D01*
X100521915Y-76620409D01*
X100526000Y-76661890D01*
X100526000Y-77338110D01*
X100521915Y-77379591D01*
X100511607Y-77413569D01*
X100494866Y-77444890D01*
X100472339Y-77472339D01*
X100444890Y-77494866D01*
X100413569Y-77511607D01*
X100379591Y-77521915D01*
X100338110Y-77526000D01*
X99736890Y-77526000D01*
X99695409Y-77521915D01*
X99661431Y-77511607D01*
X99630110Y-77494866D01*
X99602661Y-77472339D01*
X99580134Y-77444890D01*
X99563393Y-77413569D01*
X99553085Y-77379591D01*
X99549000Y-77338110D01*
X99549000Y-76661890D01*
X99553085Y-76620409D01*
X99563393Y-76586431D01*
X99580134Y-76555110D01*
X99602661Y-76527661D01*
X99630110Y-76505134D01*
X99661431Y-76488393D01*
X99695409Y-76478085D01*
X99736890Y-76474000D01*
X100338110Y-76474000D01*
X100379591Y-76478085D01*
X100379591Y-76478085D01*
G37*
G36*
X96804591Y-76478085D02*
G01*
X96838569Y-76488393D01*
X96869890Y-76505134D01*
X96897339Y-76527661D01*
X96919866Y-76555110D01*
X96936607Y-76586431D01*
X96946915Y-76620409D01*
X96951000Y-76661890D01*
X96951000Y-77338110D01*
X96946915Y-77379591D01*
X96936607Y-77413569D01*
X96919866Y-77444890D01*
X96897339Y-77472339D01*
X96869890Y-77494866D01*
X96838569Y-77511607D01*
X96804591Y-77521915D01*
X96763110Y-77526000D01*
X96161890Y-77526000D01*
X96120409Y-77521915D01*
X96086431Y-77511607D01*
X96055110Y-77494866D01*
X96027661Y-77472339D01*
X96005134Y-77444890D01*
X95988393Y-77413569D01*
X95978085Y-77379591D01*
X95974000Y-77338110D01*
X95974000Y-76661890D01*
X95978085Y-76620409D01*
X95988393Y-76586431D01*
X96005134Y-76555110D01*
X96027661Y-76527661D01*
X96055110Y-76505134D01*
X96086431Y-76488393D01*
X96120409Y-76478085D01*
X96161890Y-76474000D01*
X96763110Y-76474000D01*
X96804591Y-76478085D01*
X96804591Y-76478085D01*
G37*
G36*
X98804591Y-76478085D02*
G01*
X98838569Y-76488393D01*
X98869890Y-76505134D01*
X98897339Y-76527661D01*
X98919866Y-76555110D01*
X98936607Y-76586431D01*
X98946915Y-76620409D01*
X98951000Y-76661890D01*
X98951000Y-77338110D01*
X98946915Y-77379591D01*
X98936607Y-77413569D01*
X98919866Y-77444890D01*
X98897339Y-77472339D01*
X98869890Y-77494866D01*
X98838569Y-77511607D01*
X98804591Y-77521915D01*
X98763110Y-77526000D01*
X97736890Y-77526000D01*
X97695409Y-77521915D01*
X97661431Y-77511607D01*
X97630110Y-77494866D01*
X97602661Y-77472339D01*
X97580134Y-77444890D01*
X97563393Y-77413569D01*
X97553085Y-77379591D01*
X97549000Y-77338110D01*
X97549000Y-76661890D01*
X97553085Y-76620409D01*
X97563393Y-76586431D01*
X97580134Y-76555110D01*
X97602661Y-76527661D01*
X97630110Y-76505134D01*
X97661431Y-76488393D01*
X97695409Y-76478085D01*
X97736890Y-76474000D01*
X98763110Y-76474000D01*
X98804591Y-76478085D01*
X98804591Y-76478085D01*
G37*
G36*
X128697142Y-75718242D02*
G01*
X128845101Y-75779529D01*
X128978255Y-75868499D01*
X129091501Y-75981745D01*
X129180471Y-76114899D01*
X129241758Y-76262858D01*
X129273000Y-76419925D01*
X129273000Y-76580075D01*
X129241758Y-76737142D01*
X129180471Y-76885101D01*
X129091501Y-77018255D01*
X128978255Y-77131501D01*
X128845101Y-77220471D01*
X128697142Y-77281758D01*
X128540075Y-77313000D01*
X128379925Y-77313000D01*
X128222858Y-77281758D01*
X128074899Y-77220471D01*
X127941745Y-77131501D01*
X127828499Y-77018255D01*
X127739529Y-76885101D01*
X127678242Y-76737142D01*
X127647000Y-76580075D01*
X127647000Y-76419925D01*
X127678242Y-76262858D01*
X127739529Y-76114899D01*
X127828499Y-75981745D01*
X127941745Y-75868499D01*
X128074899Y-75779529D01*
X128222858Y-75718242D01*
X128379925Y-75687000D01*
X128540075Y-75687000D01*
X128697142Y-75718242D01*
X128697142Y-75718242D01*
G37*
G36*
X131237142Y-75718242D02*
G01*
X131385101Y-75779529D01*
X131518255Y-75868499D01*
X131631501Y-75981745D01*
X131720471Y-76114899D01*
X131781758Y-76262858D01*
X131813000Y-76419925D01*
X131813000Y-76580075D01*
X131781758Y-76737142D01*
X131720471Y-76885101D01*
X131631501Y-77018255D01*
X131518255Y-77131501D01*
X131385101Y-77220471D01*
X131237142Y-77281758D01*
X131080075Y-77313000D01*
X130919925Y-77313000D01*
X130762858Y-77281758D01*
X130614899Y-77220471D01*
X130481745Y-77131501D01*
X130368499Y-77018255D01*
X130279529Y-76885101D01*
X130218242Y-76737142D01*
X130187000Y-76580075D01*
X130187000Y-76419925D01*
X130218242Y-76262858D01*
X130279529Y-76114899D01*
X130368499Y-75981745D01*
X130481745Y-75868499D01*
X130614899Y-75779529D01*
X130762858Y-75718242D01*
X130919925Y-75687000D01*
X131080075Y-75687000D01*
X131237142Y-75718242D01*
X131237142Y-75718242D01*
G37*
G36*
X133777142Y-75718242D02*
G01*
X133925101Y-75779529D01*
X134058255Y-75868499D01*
X134171501Y-75981745D01*
X134260471Y-76114899D01*
X134321758Y-76262858D01*
X134353000Y-76419925D01*
X134353000Y-76580075D01*
X134321758Y-76737142D01*
X134260471Y-76885101D01*
X134171501Y-77018255D01*
X134058255Y-77131501D01*
X133925101Y-77220471D01*
X133777142Y-77281758D01*
X133620075Y-77313000D01*
X133459925Y-77313000D01*
X133302858Y-77281758D01*
X133154899Y-77220471D01*
X133021745Y-77131501D01*
X132908499Y-77018255D01*
X132819529Y-76885101D01*
X132758242Y-76737142D01*
X132727000Y-76580075D01*
X132727000Y-76419925D01*
X132758242Y-76262858D01*
X132819529Y-76114899D01*
X132908499Y-75981745D01*
X133021745Y-75868499D01*
X133154899Y-75779529D01*
X133302858Y-75718242D01*
X133459925Y-75687000D01*
X133620075Y-75687000D01*
X133777142Y-75718242D01*
X133777142Y-75718242D01*
G37*
G36*
X126237142Y-74218242D02*
G01*
X126385101Y-74279529D01*
X126518255Y-74368499D01*
X126631501Y-74481745D01*
X126720471Y-74614899D01*
X126781758Y-74762858D01*
X126813000Y-74919925D01*
X126813000Y-75080075D01*
X126781758Y-75237142D01*
X126720471Y-75385101D01*
X126631501Y-75518255D01*
X126518255Y-75631501D01*
X126385101Y-75720471D01*
X126237142Y-75781758D01*
X126080075Y-75813000D01*
X125919925Y-75813000D01*
X125762858Y-75781758D01*
X125614899Y-75720471D01*
X125481745Y-75631501D01*
X125368499Y-75518255D01*
X125279529Y-75385101D01*
X125218242Y-75237142D01*
X125187000Y-75080075D01*
X125187000Y-74919925D01*
X125218242Y-74762858D01*
X125279529Y-74614899D01*
X125368499Y-74481745D01*
X125481745Y-74368499D01*
X125614899Y-74279529D01*
X125762858Y-74218242D01*
X125919925Y-74187000D01*
X126080075Y-74187000D01*
X126237142Y-74218242D01*
X126237142Y-74218242D01*
G37*
G36*
X98804591Y-74728085D02*
G01*
X98838569Y-74738393D01*
X98869890Y-74755134D01*
X98897339Y-74777661D01*
X98919866Y-74805110D01*
X98936607Y-74836431D01*
X98946915Y-74870409D01*
X98951000Y-74911890D01*
X98951000Y-75588110D01*
X98946915Y-75629591D01*
X98936607Y-75663569D01*
X98919866Y-75694890D01*
X98897339Y-75722339D01*
X98869890Y-75744866D01*
X98838569Y-75761607D01*
X98804591Y-75771915D01*
X98763110Y-75776000D01*
X97736890Y-75776000D01*
X97695409Y-75771915D01*
X97661431Y-75761607D01*
X97630110Y-75744866D01*
X97602661Y-75722339D01*
X97580134Y-75694890D01*
X97563393Y-75663569D01*
X97553085Y-75629591D01*
X97549000Y-75588110D01*
X97549000Y-74911890D01*
X97553085Y-74870409D01*
X97563393Y-74836431D01*
X97580134Y-74805110D01*
X97602661Y-74777661D01*
X97630110Y-74755134D01*
X97661431Y-74738393D01*
X97695409Y-74728085D01*
X97736890Y-74724000D01*
X98763110Y-74724000D01*
X98804591Y-74728085D01*
X98804591Y-74728085D01*
G37*
G36*
X96804591Y-74728085D02*
G01*
X96838569Y-74738393D01*
X96869890Y-74755134D01*
X96897339Y-74777661D01*
X96919866Y-74805110D01*
X96936607Y-74836431D01*
X96946915Y-74870409D01*
X96951000Y-74911890D01*
X96951000Y-75588110D01*
X96946915Y-75629591D01*
X96936607Y-75663569D01*
X96919866Y-75694890D01*
X96897339Y-75722339D01*
X96869890Y-75744866D01*
X96838569Y-75761607D01*
X96804591Y-75771915D01*
X96763110Y-75776000D01*
X96161890Y-75776000D01*
X96120409Y-75771915D01*
X96086431Y-75761607D01*
X96055110Y-75744866D01*
X96027661Y-75722339D01*
X96005134Y-75694890D01*
X95988393Y-75663569D01*
X95978085Y-75629591D01*
X95974000Y-75588110D01*
X95974000Y-74911890D01*
X95978085Y-74870409D01*
X95988393Y-74836431D01*
X96005134Y-74805110D01*
X96027661Y-74777661D01*
X96055110Y-74755134D01*
X96086431Y-74738393D01*
X96120409Y-74728085D01*
X96161890Y-74724000D01*
X96763110Y-74724000D01*
X96804591Y-74728085D01*
X96804591Y-74728085D01*
G37*
G36*
X100379591Y-74728085D02*
G01*
X100413569Y-74738393D01*
X100444890Y-74755134D01*
X100472339Y-74777661D01*
X100494866Y-74805110D01*
X100511607Y-74836431D01*
X100521915Y-74870409D01*
X100526000Y-74911890D01*
X100526000Y-75588110D01*
X100521915Y-75629591D01*
X100511607Y-75663569D01*
X100494866Y-75694890D01*
X100472339Y-75722339D01*
X100444890Y-75744866D01*
X100413569Y-75761607D01*
X100379591Y-75771915D01*
X100338110Y-75776000D01*
X99736890Y-75776000D01*
X99695409Y-75771915D01*
X99661431Y-75761607D01*
X99630110Y-75744866D01*
X99602661Y-75722339D01*
X99580134Y-75694890D01*
X99563393Y-75663569D01*
X99553085Y-75629591D01*
X99549000Y-75588110D01*
X99549000Y-74911890D01*
X99553085Y-74870409D01*
X99563393Y-74836431D01*
X99580134Y-74805110D01*
X99602661Y-74777661D01*
X99630110Y-74755134D01*
X99661431Y-74738393D01*
X99695409Y-74728085D01*
X99736890Y-74724000D01*
X100338110Y-74724000D01*
X100379591Y-74728085D01*
X100379591Y-74728085D01*
G37*
G36*
X136237142Y-73918242D02*
G01*
X136385101Y-73979529D01*
X136518255Y-74068499D01*
X136631501Y-74181745D01*
X136720471Y-74314899D01*
X136781758Y-74462858D01*
X136813000Y-74619925D01*
X136813000Y-74780075D01*
X136781758Y-74937142D01*
X136720471Y-75085101D01*
X136631501Y-75218255D01*
X136518255Y-75331501D01*
X136385101Y-75420471D01*
X136237142Y-75481758D01*
X136080075Y-75513000D01*
X135919925Y-75513000D01*
X135762858Y-75481758D01*
X135614899Y-75420471D01*
X135481745Y-75331501D01*
X135368499Y-75218255D01*
X135279529Y-75085101D01*
X135218242Y-74937142D01*
X135187000Y-74780075D01*
X135187000Y-74619925D01*
X135218242Y-74462858D01*
X135279529Y-74314899D01*
X135368499Y-74181745D01*
X135481745Y-74068499D01*
X135614899Y-73979529D01*
X135762858Y-73918242D01*
X135919925Y-73887000D01*
X136080075Y-73887000D01*
X136237142Y-73918242D01*
X136237142Y-73918242D01*
G37*
G36*
X141304591Y-73728085D02*
G01*
X141338569Y-73738393D01*
X141369890Y-73755134D01*
X141397339Y-73777661D01*
X141419866Y-73805110D01*
X141436607Y-73836431D01*
X141446915Y-73870409D01*
X141451000Y-73911890D01*
X141451000Y-74588110D01*
X141446915Y-74629591D01*
X141436607Y-74663569D01*
X141419866Y-74694890D01*
X141397339Y-74722339D01*
X141369890Y-74744866D01*
X141338569Y-74761607D01*
X141304591Y-74771915D01*
X141263110Y-74776000D01*
X140486890Y-74776000D01*
X140445409Y-74771915D01*
X140411431Y-74761607D01*
X140380110Y-74744866D01*
X140352661Y-74722339D01*
X140330134Y-74694890D01*
X140313393Y-74663569D01*
X140303085Y-74629591D01*
X140299000Y-74588110D01*
X140299000Y-73911890D01*
X140303085Y-73870409D01*
X140313393Y-73836431D01*
X140330134Y-73805110D01*
X140352661Y-73777661D01*
X140380110Y-73755134D01*
X140411431Y-73738393D01*
X140445409Y-73728085D01*
X140486890Y-73724000D01*
X141263110Y-73724000D01*
X141304591Y-73728085D01*
X141304591Y-73728085D01*
G37*
G36*
X142879591Y-73728085D02*
G01*
X142913569Y-73738393D01*
X142944890Y-73755134D01*
X142972339Y-73777661D01*
X142994866Y-73805110D01*
X143011607Y-73836431D01*
X143021915Y-73870409D01*
X143026000Y-73911890D01*
X143026000Y-74588110D01*
X143021915Y-74629591D01*
X143011607Y-74663569D01*
X142994866Y-74694890D01*
X142972339Y-74722339D01*
X142944890Y-74744866D01*
X142913569Y-74761607D01*
X142879591Y-74771915D01*
X142838110Y-74776000D01*
X142236890Y-74776000D01*
X142195409Y-74771915D01*
X142161431Y-74761607D01*
X142130110Y-74744866D01*
X142102661Y-74722339D01*
X142080134Y-74694890D01*
X142063393Y-74663569D01*
X142053085Y-74629591D01*
X142049000Y-74588110D01*
X142049000Y-73911890D01*
X142053085Y-73870409D01*
X142063393Y-73836431D01*
X142080134Y-73805110D01*
X142102661Y-73777661D01*
X142130110Y-73755134D01*
X142161431Y-73738393D01*
X142195409Y-73728085D01*
X142236890Y-73724000D01*
X142838110Y-73724000D01*
X142879591Y-73728085D01*
X142879591Y-73728085D01*
G37*
G36*
X139554591Y-73728085D02*
G01*
X139588569Y-73738393D01*
X139619890Y-73755134D01*
X139647339Y-73777661D01*
X139669866Y-73805110D01*
X139686607Y-73836431D01*
X139696915Y-73870409D01*
X139701000Y-73911890D01*
X139701000Y-74588110D01*
X139696915Y-74629591D01*
X139686607Y-74663569D01*
X139669866Y-74694890D01*
X139647339Y-74722339D01*
X139619890Y-74744866D01*
X139588569Y-74761607D01*
X139554591Y-74771915D01*
X139513110Y-74776000D01*
X138911890Y-74776000D01*
X138870409Y-74771915D01*
X138836431Y-74761607D01*
X138805110Y-74744866D01*
X138777661Y-74722339D01*
X138755134Y-74694890D01*
X138738393Y-74663569D01*
X138728085Y-74629591D01*
X138724000Y-74588110D01*
X138724000Y-73911890D01*
X138728085Y-73870409D01*
X138738393Y-73836431D01*
X138755134Y-73805110D01*
X138777661Y-73777661D01*
X138805110Y-73755134D01*
X138836431Y-73738393D01*
X138870409Y-73728085D01*
X138911890Y-73724000D01*
X139513110Y-73724000D01*
X139554591Y-73728085D01*
X139554591Y-73728085D01*
G37*
G36*
X131237142Y-72118242D02*
G01*
X131385101Y-72179529D01*
X131518255Y-72268499D01*
X131631501Y-72381745D01*
X131720471Y-72514899D01*
X131781758Y-72662858D01*
X131813000Y-72819925D01*
X131813000Y-72980075D01*
X131781758Y-73137142D01*
X131720471Y-73285101D01*
X131631501Y-73418255D01*
X131518255Y-73531501D01*
X131385101Y-73620471D01*
X131237142Y-73681758D01*
X131080075Y-73713000D01*
X130919925Y-73713000D01*
X130762858Y-73681758D01*
X130614899Y-73620471D01*
X130481745Y-73531501D01*
X130368499Y-73418255D01*
X130279529Y-73285101D01*
X130218242Y-73137142D01*
X130187000Y-72980075D01*
X130187000Y-72819925D01*
X130218242Y-72662858D01*
X130279529Y-72514899D01*
X130368499Y-72381745D01*
X130481745Y-72268499D01*
X130614899Y-72179529D01*
X130762858Y-72118242D01*
X130919925Y-72087000D01*
X131080075Y-72087000D01*
X131237142Y-72118242D01*
X131237142Y-72118242D01*
G37*
G36*
X133777142Y-72118242D02*
G01*
X133925101Y-72179529D01*
X134058255Y-72268499D01*
X134171501Y-72381745D01*
X134260471Y-72514899D01*
X134321758Y-72662858D01*
X134353000Y-72819925D01*
X134353000Y-72980075D01*
X134321758Y-73137142D01*
X134260471Y-73285101D01*
X134171501Y-73418255D01*
X134058255Y-73531501D01*
X133925101Y-73620471D01*
X133777142Y-73681758D01*
X133620075Y-73713000D01*
X133459925Y-73713000D01*
X133302858Y-73681758D01*
X133154899Y-73620471D01*
X133021745Y-73531501D01*
X132908499Y-73418255D01*
X132819529Y-73285101D01*
X132758242Y-73137142D01*
X132727000Y-72980075D01*
X132727000Y-72819925D01*
X132758242Y-72662858D01*
X132819529Y-72514899D01*
X132908499Y-72381745D01*
X133021745Y-72268499D01*
X133154899Y-72179529D01*
X133302858Y-72118242D01*
X133459925Y-72087000D01*
X133620075Y-72087000D01*
X133777142Y-72118242D01*
X133777142Y-72118242D01*
G37*
G36*
X128697142Y-72118242D02*
G01*
X128845101Y-72179529D01*
X128978255Y-72268499D01*
X129091501Y-72381745D01*
X129180471Y-72514899D01*
X129241758Y-72662858D01*
X129273000Y-72819925D01*
X129273000Y-72980075D01*
X129241758Y-73137142D01*
X129180471Y-73285101D01*
X129091501Y-73418255D01*
X128978255Y-73531501D01*
X128845101Y-73620471D01*
X128697142Y-73681758D01*
X128540075Y-73713000D01*
X128379925Y-73713000D01*
X128222858Y-73681758D01*
X128074899Y-73620471D01*
X127941745Y-73531501D01*
X127828499Y-73418255D01*
X127739529Y-73285101D01*
X127678242Y-73137142D01*
X127647000Y-72980075D01*
X127647000Y-72819925D01*
X127678242Y-72662858D01*
X127739529Y-72514899D01*
X127828499Y-72381745D01*
X127941745Y-72268499D01*
X128074899Y-72179529D01*
X128222858Y-72118242D01*
X128379925Y-72087000D01*
X128540075Y-72087000D01*
X128697142Y-72118242D01*
X128697142Y-72118242D01*
G37*
G36*
X126237142Y-71678242D02*
G01*
X126385101Y-71739529D01*
X126518255Y-71828499D01*
X126631501Y-71941745D01*
X126720471Y-72074899D01*
X126781758Y-72222858D01*
X126813000Y-72379925D01*
X126813000Y-72540075D01*
X126781758Y-72697142D01*
X126720471Y-72845101D01*
X126631501Y-72978255D01*
X126518255Y-73091501D01*
X126385101Y-73180471D01*
X126237142Y-73241758D01*
X126080075Y-73273000D01*
X125919925Y-73273000D01*
X125762858Y-73241758D01*
X125614899Y-73180471D01*
X125481745Y-73091501D01*
X125368499Y-72978255D01*
X125279529Y-72845101D01*
X125218242Y-72697142D01*
X125187000Y-72540075D01*
X125187000Y-72379925D01*
X125218242Y-72222858D01*
X125279529Y-72074899D01*
X125368499Y-71941745D01*
X125481745Y-71828499D01*
X125614899Y-71739529D01*
X125762858Y-71678242D01*
X125919925Y-71647000D01*
X126080075Y-71647000D01*
X126237142Y-71678242D01*
X126237142Y-71678242D01*
G37*
G36*
X136237142Y-71378242D02*
G01*
X136385101Y-71439529D01*
X136518255Y-71528499D01*
X136631501Y-71641745D01*
X136720471Y-71774899D01*
X136781758Y-71922858D01*
X136813000Y-72079925D01*
X136813000Y-72240075D01*
X136781758Y-72397142D01*
X136720471Y-72545101D01*
X136631501Y-72678255D01*
X136518255Y-72791501D01*
X136385101Y-72880471D01*
X136237142Y-72941758D01*
X136080075Y-72973000D01*
X135919925Y-72973000D01*
X135762858Y-72941758D01*
X135614899Y-72880471D01*
X135481745Y-72791501D01*
X135368499Y-72678255D01*
X135279529Y-72545101D01*
X135218242Y-72397142D01*
X135187000Y-72240075D01*
X135187000Y-72079925D01*
X135218242Y-71922858D01*
X135279529Y-71774899D01*
X135368499Y-71641745D01*
X135481745Y-71528499D01*
X135614899Y-71439529D01*
X135762858Y-71378242D01*
X135919925Y-71347000D01*
X136080075Y-71347000D01*
X136237142Y-71378242D01*
X136237142Y-71378242D01*
G37*
G36*
X105466564Y-70899389D02*
G01*
X105657833Y-70978615D01*
X105657835Y-70978616D01*
X105829973Y-71093635D01*
X105976365Y-71240027D01*
X106080908Y-71396486D01*
X106091385Y-71412167D01*
X106170611Y-71603436D01*
X106211000Y-71806484D01*
X106211000Y-72013516D01*
X106170611Y-72216564D01*
X106149098Y-72268501D01*
X106091384Y-72407835D01*
X105976365Y-72579973D01*
X105829973Y-72726365D01*
X105657835Y-72841384D01*
X105657834Y-72841385D01*
X105657833Y-72841385D01*
X105466564Y-72920611D01*
X105263516Y-72961000D01*
X105056484Y-72961000D01*
X104853436Y-72920611D01*
X104662167Y-72841385D01*
X104662166Y-72841385D01*
X104662165Y-72841384D01*
X104490027Y-72726365D01*
X104343635Y-72579973D01*
X104228616Y-72407835D01*
X104170902Y-72268501D01*
X104149389Y-72216564D01*
X104109000Y-72013516D01*
X104109000Y-71806484D01*
X104149389Y-71603436D01*
X104228615Y-71412167D01*
X104239093Y-71396486D01*
X104343635Y-71240027D01*
X104490027Y-71093635D01*
X104662165Y-70978616D01*
X104662167Y-70978615D01*
X104853436Y-70899389D01*
X105056484Y-70859000D01*
X105263516Y-70859000D01*
X105466564Y-70899389D01*
X105466564Y-70899389D01*
G37*
G36*
X113556564Y-70489389D02*
G01*
X113747833Y-70568615D01*
X113747835Y-70568616D01*
X113919973Y-70683635D01*
X114066365Y-70830027D01*
X114158723Y-70968250D01*
X114181385Y-71002167D01*
X114260611Y-71193436D01*
X114301000Y-71396484D01*
X114301000Y-71603516D01*
X114260611Y-71806564D01*
X114204618Y-71941743D01*
X114181384Y-71997835D01*
X114066365Y-72169973D01*
X113919973Y-72316365D01*
X113747835Y-72431384D01*
X113747834Y-72431385D01*
X113747833Y-72431385D01*
X113556564Y-72510611D01*
X113353516Y-72551000D01*
X113146484Y-72551000D01*
X112943436Y-72510611D01*
X112752167Y-72431385D01*
X112752166Y-72431385D01*
X112752165Y-72431384D01*
X112580027Y-72316365D01*
X112433635Y-72169973D01*
X112318616Y-71997835D01*
X112295382Y-71941743D01*
X112239389Y-71806564D01*
X112199000Y-71603516D01*
X112199000Y-71396484D01*
X112239389Y-71193436D01*
X112318615Y-71002167D01*
X112341278Y-70968250D01*
X112433635Y-70830027D01*
X112580027Y-70683635D01*
X112752165Y-70568616D01*
X112752167Y-70568615D01*
X112943436Y-70489389D01*
X113146484Y-70449000D01*
X113353516Y-70449000D01*
X113556564Y-70489389D01*
X113556564Y-70489389D01*
G37*
G36*
X141304591Y-70728085D02*
G01*
X141338569Y-70738393D01*
X141369890Y-70755134D01*
X141397339Y-70777661D01*
X141419866Y-70805110D01*
X141436607Y-70836431D01*
X141446915Y-70870409D01*
X141451000Y-70911890D01*
X141451000Y-71588110D01*
X141446915Y-71629591D01*
X141436607Y-71663569D01*
X141419866Y-71694890D01*
X141397339Y-71722339D01*
X141369890Y-71744866D01*
X141338569Y-71761607D01*
X141304591Y-71771915D01*
X141263110Y-71776000D01*
X140486890Y-71776000D01*
X140445409Y-71771915D01*
X140411431Y-71761607D01*
X140380110Y-71744866D01*
X140352661Y-71722339D01*
X140330134Y-71694890D01*
X140313393Y-71663569D01*
X140303085Y-71629591D01*
X140299000Y-71588110D01*
X140299000Y-70911890D01*
X140303085Y-70870409D01*
X140313393Y-70836431D01*
X140330134Y-70805110D01*
X140352661Y-70777661D01*
X140380110Y-70755134D01*
X140411431Y-70738393D01*
X140445409Y-70728085D01*
X140486890Y-70724000D01*
X141263110Y-70724000D01*
X141304591Y-70728085D01*
X141304591Y-70728085D01*
G37*
G36*
X139554591Y-70728085D02*
G01*
X139588569Y-70738393D01*
X139619890Y-70755134D01*
X139647339Y-70777661D01*
X139669866Y-70805110D01*
X139686607Y-70836431D01*
X139696915Y-70870409D01*
X139701000Y-70911890D01*
X139701000Y-71588110D01*
X139696915Y-71629591D01*
X139686607Y-71663569D01*
X139669866Y-71694890D01*
X139647339Y-71722339D01*
X139619890Y-71744866D01*
X139588569Y-71761607D01*
X139554591Y-71771915D01*
X139513110Y-71776000D01*
X138911890Y-71776000D01*
X138870409Y-71771915D01*
X138836431Y-71761607D01*
X138805110Y-71744866D01*
X138777661Y-71722339D01*
X138755134Y-71694890D01*
X138738393Y-71663569D01*
X138728085Y-71629591D01*
X138724000Y-71588110D01*
X138724000Y-70911890D01*
X138728085Y-70870409D01*
X138738393Y-70836431D01*
X138755134Y-70805110D01*
X138777661Y-70777661D01*
X138805110Y-70755134D01*
X138836431Y-70738393D01*
X138870409Y-70728085D01*
X138911890Y-70724000D01*
X139513110Y-70724000D01*
X139554591Y-70728085D01*
X139554591Y-70728085D01*
G37*
G36*
X142879591Y-70728085D02*
G01*
X142913569Y-70738393D01*
X142944890Y-70755134D01*
X142972339Y-70777661D01*
X142994866Y-70805110D01*
X143011607Y-70836431D01*
X143021915Y-70870409D01*
X143026000Y-70911890D01*
X143026000Y-71588110D01*
X143021915Y-71629591D01*
X143011607Y-71663569D01*
X142994866Y-71694890D01*
X142972339Y-71722339D01*
X142944890Y-71744866D01*
X142913569Y-71761607D01*
X142879591Y-71771915D01*
X142838110Y-71776000D01*
X142236890Y-71776000D01*
X142195409Y-71771915D01*
X142161431Y-71761607D01*
X142130110Y-71744866D01*
X142102661Y-71722339D01*
X142080134Y-71694890D01*
X142063393Y-71663569D01*
X142053085Y-71629591D01*
X142049000Y-71588110D01*
X142049000Y-70911890D01*
X142053085Y-70870409D01*
X142063393Y-70836431D01*
X142080134Y-70805110D01*
X142102661Y-70777661D01*
X142130110Y-70755134D01*
X142161431Y-70738393D01*
X142195409Y-70728085D01*
X142236890Y-70724000D01*
X142838110Y-70724000D01*
X142879591Y-70728085D01*
X142879591Y-70728085D01*
G37*
G36*
X129127617Y-67458420D02*
G01*
X129218403Y-67485960D01*
X129250335Y-67495646D01*
X129363424Y-67556094D01*
X129462554Y-67637447D01*
X129543906Y-67736575D01*
X129604354Y-67849664D01*
X129610647Y-67870409D01*
X129641580Y-67972382D01*
X129651000Y-68068027D01*
X129651000Y-68931973D01*
X129641580Y-69027618D01*
X129614040Y-69118404D01*
X129604354Y-69150336D01*
X129543906Y-69263425D01*
X129462554Y-69362554D01*
X129363425Y-69443906D01*
X129250336Y-69504354D01*
X129218404Y-69514040D01*
X129127618Y-69541580D01*
X129000000Y-69554149D01*
X128872383Y-69541580D01*
X128781597Y-69514040D01*
X128749665Y-69504354D01*
X128636576Y-69443906D01*
X128537447Y-69362554D01*
X128456095Y-69263425D01*
X128395647Y-69150335D01*
X128395646Y-69150332D01*
X128369613Y-69064514D01*
X128360241Y-69041888D01*
X128346627Y-69021513D01*
X128329300Y-69004186D01*
X128308926Y-68990572D01*
X128286287Y-68981195D01*
X128262254Y-68976414D01*
X128237750Y-68976414D01*
X128213717Y-68981194D01*
X128191078Y-68990571D01*
X128170703Y-69004185D01*
X128153376Y-69021512D01*
X128139762Y-69041886D01*
X128130384Y-69064526D01*
X128104354Y-69150335D01*
X128043906Y-69263425D01*
X127962554Y-69362554D01*
X127863425Y-69443906D01*
X127750336Y-69504354D01*
X127718404Y-69514040D01*
X127627618Y-69541580D01*
X127500000Y-69554149D01*
X127372383Y-69541580D01*
X127281597Y-69514040D01*
X127249665Y-69504354D01*
X127136576Y-69443906D01*
X127037447Y-69362554D01*
X126956095Y-69263425D01*
X126895647Y-69150335D01*
X126895646Y-69150332D01*
X126869613Y-69064514D01*
X126860241Y-69041888D01*
X126846627Y-69021513D01*
X126829300Y-69004186D01*
X126808926Y-68990572D01*
X126786287Y-68981195D01*
X126762254Y-68976414D01*
X126737750Y-68976414D01*
X126713717Y-68981194D01*
X126691078Y-68990571D01*
X126670703Y-69004185D01*
X126653376Y-69021512D01*
X126639762Y-69041886D01*
X126630384Y-69064526D01*
X126604354Y-69150335D01*
X126543906Y-69263425D01*
X126462554Y-69362554D01*
X126363425Y-69443906D01*
X126250336Y-69504354D01*
X126218404Y-69514040D01*
X126127618Y-69541580D01*
X126000000Y-69554149D01*
X125872383Y-69541580D01*
X125781597Y-69514040D01*
X125749665Y-69504354D01*
X125636576Y-69443906D01*
X125537447Y-69362554D01*
X125456095Y-69263425D01*
X125395647Y-69150335D01*
X125395646Y-69150332D01*
X125369613Y-69064514D01*
X125360241Y-69041888D01*
X125346627Y-69021513D01*
X125329300Y-69004186D01*
X125308926Y-68990572D01*
X125286287Y-68981195D01*
X125262254Y-68976414D01*
X125237750Y-68976414D01*
X125213717Y-68981194D01*
X125191078Y-68990571D01*
X125170703Y-69004185D01*
X125153376Y-69021512D01*
X125139762Y-69041886D01*
X125130384Y-69064526D01*
X125104354Y-69150335D01*
X125043906Y-69263425D01*
X124962554Y-69362554D01*
X124863425Y-69443906D01*
X124750336Y-69504354D01*
X124718404Y-69514040D01*
X124627618Y-69541580D01*
X124500000Y-69554149D01*
X124372383Y-69541580D01*
X124281597Y-69514040D01*
X124249665Y-69504354D01*
X124136576Y-69443906D01*
X124037447Y-69362554D01*
X123956095Y-69263425D01*
X123895647Y-69150335D01*
X123895646Y-69150332D01*
X123869613Y-69064514D01*
X123860241Y-69041888D01*
X123846627Y-69021513D01*
X123829300Y-69004186D01*
X123808926Y-68990572D01*
X123786287Y-68981195D01*
X123762254Y-68976414D01*
X123737750Y-68976414D01*
X123713717Y-68981194D01*
X123691078Y-68990571D01*
X123670703Y-69004185D01*
X123653376Y-69021512D01*
X123639762Y-69041886D01*
X123630384Y-69064526D01*
X123604354Y-69150335D01*
X123543906Y-69263425D01*
X123462554Y-69362554D01*
X123363425Y-69443906D01*
X123250336Y-69504354D01*
X123218404Y-69514040D01*
X123127618Y-69541580D01*
X123000000Y-69554149D01*
X122872383Y-69541580D01*
X122781597Y-69514040D01*
X122749665Y-69504354D01*
X122636576Y-69443906D01*
X122537447Y-69362554D01*
X122456095Y-69263425D01*
X122395647Y-69150335D01*
X122395646Y-69150332D01*
X122369613Y-69064514D01*
X122360241Y-69041888D01*
X122346627Y-69021513D01*
X122329300Y-69004186D01*
X122308926Y-68990572D01*
X122286287Y-68981195D01*
X122262254Y-68976414D01*
X122237750Y-68976414D01*
X122213717Y-68981194D01*
X122191078Y-68990571D01*
X122170703Y-69004185D01*
X122153376Y-69021512D01*
X122139762Y-69041886D01*
X122130384Y-69064526D01*
X122104354Y-69150335D01*
X122043906Y-69263425D01*
X121962554Y-69362554D01*
X121863425Y-69443906D01*
X121750336Y-69504354D01*
X121718404Y-69514040D01*
X121627618Y-69541580D01*
X121500000Y-69554149D01*
X121372383Y-69541580D01*
X121281597Y-69514040D01*
X121249665Y-69504354D01*
X121136576Y-69443906D01*
X121037447Y-69362554D01*
X120956095Y-69263425D01*
X120895647Y-69150335D01*
X120895646Y-69150332D01*
X120869613Y-69064514D01*
X120860241Y-69041888D01*
X120846627Y-69021513D01*
X120829300Y-69004186D01*
X120808926Y-68990572D01*
X120786287Y-68981195D01*
X120762254Y-68976414D01*
X120737750Y-68976414D01*
X120713717Y-68981194D01*
X120691078Y-68990571D01*
X120670703Y-69004185D01*
X120653376Y-69021512D01*
X120639762Y-69041886D01*
X120630384Y-69064526D01*
X120604354Y-69150335D01*
X120543906Y-69263425D01*
X120462554Y-69362554D01*
X120363425Y-69443906D01*
X120250336Y-69504354D01*
X120218404Y-69514040D01*
X120127618Y-69541580D01*
X120000000Y-69554149D01*
X119872383Y-69541580D01*
X119781597Y-69514040D01*
X119749665Y-69504354D01*
X119636576Y-69443906D01*
X119537447Y-69362554D01*
X119456095Y-69263425D01*
X119395647Y-69150335D01*
X119395646Y-69150332D01*
X119369613Y-69064514D01*
X119360241Y-69041888D01*
X119346627Y-69021513D01*
X119329300Y-69004186D01*
X119308926Y-68990572D01*
X119286287Y-68981195D01*
X119262254Y-68976414D01*
X119237750Y-68976414D01*
X119213717Y-68981194D01*
X119191078Y-68990571D01*
X119170703Y-69004185D01*
X119153376Y-69021512D01*
X119139762Y-69041886D01*
X119130384Y-69064526D01*
X119104354Y-69150335D01*
X119043906Y-69263425D01*
X118962554Y-69362554D01*
X118863425Y-69443906D01*
X118750336Y-69504354D01*
X118718404Y-69514040D01*
X118627618Y-69541580D01*
X118500000Y-69554149D01*
X118372383Y-69541580D01*
X118281597Y-69514040D01*
X118249665Y-69504354D01*
X118136576Y-69443906D01*
X118037447Y-69362554D01*
X117956095Y-69263425D01*
X117895647Y-69150335D01*
X117895646Y-69150332D01*
X117869613Y-69064514D01*
X117860241Y-69041888D01*
X117846627Y-69021513D01*
X117829300Y-69004186D01*
X117808926Y-68990572D01*
X117786287Y-68981195D01*
X117762254Y-68976414D01*
X117737750Y-68976414D01*
X117713717Y-68981194D01*
X117691078Y-68990571D01*
X117670703Y-69004185D01*
X117653376Y-69021512D01*
X117639762Y-69041886D01*
X117630384Y-69064526D01*
X117604354Y-69150335D01*
X117543906Y-69263425D01*
X117462554Y-69362554D01*
X117363425Y-69443906D01*
X117250336Y-69504354D01*
X117218404Y-69514040D01*
X117127618Y-69541580D01*
X117000000Y-69554149D01*
X116872383Y-69541580D01*
X116781597Y-69514040D01*
X116749665Y-69504354D01*
X116636576Y-69443906D01*
X116537447Y-69362554D01*
X116456095Y-69263425D01*
X116395647Y-69150336D01*
X116391282Y-69135946D01*
X116358420Y-69027618D01*
X116349000Y-68931973D01*
X116349000Y-68068028D01*
X116358420Y-67972383D01*
X116388028Y-67874780D01*
X116395646Y-67849665D01*
X116456094Y-67736576D01*
X116537447Y-67637446D01*
X116636575Y-67556094D01*
X116749664Y-67495646D01*
X116781596Y-67485960D01*
X116872382Y-67458420D01*
X117000000Y-67445851D01*
X117127617Y-67458420D01*
X117218403Y-67485960D01*
X117250335Y-67495646D01*
X117363424Y-67556094D01*
X117462554Y-67637447D01*
X117543906Y-67736575D01*
X117604354Y-67849664D01*
X117610164Y-67868817D01*
X117630386Y-67935480D01*
X117639760Y-67958111D01*
X117653374Y-67978486D01*
X117670701Y-67995813D01*
X117691075Y-68009427D01*
X117713714Y-68018804D01*
X117737747Y-68023585D01*
X117762251Y-68023585D01*
X117786285Y-68018805D01*
X117808923Y-68009428D01*
X117829298Y-67995814D01*
X117846625Y-67978487D01*
X117860239Y-67958113D01*
X117869617Y-67935473D01*
X117876771Y-67911890D01*
X117895645Y-67849669D01*
X117895646Y-67849665D01*
X117956094Y-67736576D01*
X118037447Y-67637446D01*
X118136575Y-67556094D01*
X118249664Y-67495646D01*
X118281596Y-67485960D01*
X118372382Y-67458420D01*
X118500000Y-67445851D01*
X118627617Y-67458420D01*
X118718403Y-67485960D01*
X118750335Y-67495646D01*
X118863424Y-67556094D01*
X118962554Y-67637447D01*
X119043906Y-67736575D01*
X119104354Y-67849664D01*
X119110164Y-67868817D01*
X119130386Y-67935480D01*
X119139760Y-67958111D01*
X119153374Y-67978486D01*
X119170701Y-67995813D01*
X119191075Y-68009427D01*
X119213714Y-68018804D01*
X119237747Y-68023585D01*
X119262251Y-68023585D01*
X119286285Y-68018805D01*
X119308923Y-68009428D01*
X119329298Y-67995814D01*
X119346625Y-67978487D01*
X119360239Y-67958113D01*
X119369617Y-67935473D01*
X119376771Y-67911890D01*
X119395645Y-67849669D01*
X119395646Y-67849665D01*
X119456094Y-67736576D01*
X119537447Y-67637446D01*
X119636575Y-67556094D01*
X119749664Y-67495646D01*
X119781596Y-67485960D01*
X119872382Y-67458420D01*
X120000000Y-67445851D01*
X120127617Y-67458420D01*
X120218403Y-67485960D01*
X120250335Y-67495646D01*
X120363424Y-67556094D01*
X120462554Y-67637447D01*
X120543906Y-67736575D01*
X120604354Y-67849664D01*
X120610164Y-67868817D01*
X120630386Y-67935480D01*
X120639760Y-67958111D01*
X120653374Y-67978486D01*
X120670701Y-67995813D01*
X120691075Y-68009427D01*
X120713714Y-68018804D01*
X120737747Y-68023585D01*
X120762251Y-68023585D01*
X120786285Y-68018805D01*
X120808923Y-68009428D01*
X120829298Y-67995814D01*
X120846625Y-67978487D01*
X120860239Y-67958113D01*
X120869617Y-67935473D01*
X120876771Y-67911890D01*
X120895645Y-67849669D01*
X120895646Y-67849665D01*
X120956094Y-67736576D01*
X121037447Y-67637446D01*
X121136575Y-67556094D01*
X121249664Y-67495646D01*
X121281596Y-67485960D01*
X121372382Y-67458420D01*
X121500000Y-67445851D01*
X121627617Y-67458420D01*
X121718403Y-67485960D01*
X121750335Y-67495646D01*
X121863424Y-67556094D01*
X121962554Y-67637447D01*
X122043906Y-67736575D01*
X122104354Y-67849664D01*
X122110164Y-67868817D01*
X122130386Y-67935480D01*
X122139760Y-67958111D01*
X122153374Y-67978486D01*
X122170701Y-67995813D01*
X122191075Y-68009427D01*
X122213714Y-68018804D01*
X122237747Y-68023585D01*
X122262251Y-68023585D01*
X122286285Y-68018805D01*
X122308923Y-68009428D01*
X122329298Y-67995814D01*
X122346625Y-67978487D01*
X122360239Y-67958113D01*
X122369617Y-67935473D01*
X122376771Y-67911890D01*
X122395645Y-67849669D01*
X122395646Y-67849665D01*
X122456094Y-67736576D01*
X122537447Y-67637446D01*
X122636575Y-67556094D01*
X122749664Y-67495646D01*
X122781596Y-67485960D01*
X122872382Y-67458420D01*
X123000000Y-67445851D01*
X123127617Y-67458420D01*
X123218403Y-67485960D01*
X123250335Y-67495646D01*
X123363424Y-67556094D01*
X123462554Y-67637447D01*
X123543906Y-67736575D01*
X123604354Y-67849664D01*
X123610164Y-67868817D01*
X123630386Y-67935480D01*
X123639760Y-67958111D01*
X123653374Y-67978486D01*
X123670701Y-67995813D01*
X123691075Y-68009427D01*
X123713714Y-68018804D01*
X123737747Y-68023585D01*
X123762251Y-68023585D01*
X123786285Y-68018805D01*
X123808923Y-68009428D01*
X123829298Y-67995814D01*
X123846625Y-67978487D01*
X123860239Y-67958113D01*
X123869617Y-67935473D01*
X123876771Y-67911890D01*
X123895645Y-67849669D01*
X123895646Y-67849665D01*
X123956094Y-67736576D01*
X124037447Y-67637446D01*
X124136575Y-67556094D01*
X124249664Y-67495646D01*
X124281596Y-67485960D01*
X124372382Y-67458420D01*
X124500000Y-67445851D01*
X124627617Y-67458420D01*
X124718403Y-67485960D01*
X124750335Y-67495646D01*
X124863424Y-67556094D01*
X124962554Y-67637447D01*
X125043906Y-67736575D01*
X125104354Y-67849664D01*
X125110164Y-67868817D01*
X125130386Y-67935480D01*
X125139760Y-67958111D01*
X125153374Y-67978486D01*
X125170701Y-67995813D01*
X125191075Y-68009427D01*
X125213714Y-68018804D01*
X125237747Y-68023585D01*
X125262251Y-68023585D01*
X125286285Y-68018805D01*
X125308923Y-68009428D01*
X125329298Y-67995814D01*
X125346625Y-67978487D01*
X125360239Y-67958113D01*
X125369617Y-67935473D01*
X125376771Y-67911890D01*
X125395645Y-67849669D01*
X125395646Y-67849665D01*
X125456094Y-67736576D01*
X125537447Y-67637446D01*
X125636575Y-67556094D01*
X125749664Y-67495646D01*
X125781596Y-67485960D01*
X125872382Y-67458420D01*
X126000000Y-67445851D01*
X126127617Y-67458420D01*
X126218403Y-67485960D01*
X126250335Y-67495646D01*
X126363424Y-67556094D01*
X126462554Y-67637447D01*
X126543906Y-67736575D01*
X126604354Y-67849664D01*
X126610164Y-67868817D01*
X126630386Y-67935480D01*
X126639760Y-67958111D01*
X126653374Y-67978486D01*
X126670701Y-67995813D01*
X126691075Y-68009427D01*
X126713714Y-68018804D01*
X126737747Y-68023585D01*
X126762251Y-68023585D01*
X126786285Y-68018805D01*
X126808923Y-68009428D01*
X126829298Y-67995814D01*
X126846625Y-67978487D01*
X126860239Y-67958113D01*
X126869617Y-67935473D01*
X126876771Y-67911890D01*
X126895645Y-67849669D01*
X126895646Y-67849665D01*
X126956094Y-67736576D01*
X127037447Y-67637446D01*
X127136575Y-67556094D01*
X127249664Y-67495646D01*
X127281596Y-67485960D01*
X127372382Y-67458420D01*
X127500000Y-67445851D01*
X127627617Y-67458420D01*
X127718403Y-67485960D01*
X127750335Y-67495646D01*
X127863424Y-67556094D01*
X127962554Y-67637447D01*
X128043906Y-67736575D01*
X128104354Y-67849664D01*
X128110164Y-67868817D01*
X128130386Y-67935480D01*
X128139760Y-67958111D01*
X128153374Y-67978486D01*
X128170701Y-67995813D01*
X128191075Y-68009427D01*
X128213714Y-68018804D01*
X128237747Y-68023585D01*
X128262251Y-68023585D01*
X128286285Y-68018805D01*
X128308923Y-68009428D01*
X128329298Y-67995814D01*
X128346625Y-67978487D01*
X128360239Y-67958113D01*
X128369617Y-67935473D01*
X128376771Y-67911890D01*
X128395645Y-67849669D01*
X128395646Y-67849665D01*
X128456094Y-67736576D01*
X128537447Y-67637446D01*
X128636575Y-67556094D01*
X128749664Y-67495646D01*
X128781596Y-67485960D01*
X128872382Y-67458420D01*
X129000000Y-67445851D01*
X129127617Y-67458420D01*
X129127617Y-67458420D01*
G37*
G36*
X140862746Y-67726427D02*
G01*
X140887254Y-67726427D01*
X140911893Y-67724000D01*
X141513110Y-67724000D01*
X141554591Y-67728085D01*
X141588569Y-67738393D01*
X141619890Y-67755134D01*
X141647339Y-67777661D01*
X141669866Y-67805110D01*
X141686607Y-67836431D01*
X141696915Y-67870409D01*
X141701000Y-67911890D01*
X141701000Y-68588110D01*
X141696915Y-68629591D01*
X141686607Y-68663569D01*
X141669866Y-68694890D01*
X141647339Y-68722339D01*
X141619890Y-68744866D01*
X141588569Y-68761607D01*
X141554591Y-68771915D01*
X141513110Y-68776000D01*
X140911893Y-68776000D01*
X140887254Y-68773573D01*
X140862746Y-68773573D01*
X140838107Y-68776000D01*
X140236890Y-68776000D01*
X140195409Y-68771915D01*
X140161431Y-68761607D01*
X140130110Y-68744866D01*
X140102661Y-68722339D01*
X140080134Y-68694890D01*
X140063393Y-68663569D01*
X140053085Y-68629591D01*
X140049000Y-68588110D01*
X140049000Y-67911890D01*
X140053085Y-67870409D01*
X140063393Y-67836431D01*
X140080134Y-67805110D01*
X140102661Y-67777661D01*
X140130110Y-67755134D01*
X140161431Y-67738393D01*
X140195409Y-67728085D01*
X140236890Y-67724000D01*
X140838107Y-67724000D01*
X140862746Y-67726427D01*
X140862746Y-67726427D01*
G37*
G36*
X143129591Y-67728085D02*
G01*
X143163569Y-67738393D01*
X143194890Y-67755134D01*
X143222339Y-67777661D01*
X143244866Y-67805110D01*
X143261607Y-67836431D01*
X143271915Y-67870409D01*
X143276000Y-67911890D01*
X143276000Y-68588110D01*
X143271915Y-68629591D01*
X143261607Y-68663569D01*
X143244866Y-68694890D01*
X143222339Y-68722339D01*
X143194890Y-68744866D01*
X143163569Y-68761607D01*
X143129591Y-68771915D01*
X143088110Y-68776000D01*
X142486890Y-68776000D01*
X142445409Y-68771915D01*
X142411431Y-68761607D01*
X142380110Y-68744866D01*
X142352661Y-68722339D01*
X142330134Y-68694890D01*
X142313393Y-68663569D01*
X142303085Y-68629591D01*
X142299000Y-68588110D01*
X142299000Y-67911890D01*
X142303085Y-67870409D01*
X142313393Y-67836431D01*
X142330134Y-67805110D01*
X142352661Y-67777661D01*
X142380110Y-67755134D01*
X142411431Y-67738393D01*
X142445409Y-67728085D01*
X142486890Y-67724000D01*
X143088110Y-67724000D01*
X143129591Y-67728085D01*
X143129591Y-67728085D01*
G37*
G36*
X139304591Y-67728085D02*
G01*
X139338569Y-67738393D01*
X139369890Y-67755134D01*
X139397339Y-67777661D01*
X139419866Y-67805110D01*
X139436607Y-67836431D01*
X139446915Y-67870409D01*
X139451000Y-67911890D01*
X139451000Y-68588110D01*
X139446915Y-68629591D01*
X139436607Y-68663569D01*
X139419866Y-68694890D01*
X139397339Y-68722339D01*
X139369890Y-68744866D01*
X139338569Y-68761607D01*
X139304591Y-68771915D01*
X139263110Y-68776000D01*
X138661890Y-68776000D01*
X138620409Y-68771915D01*
X138586431Y-68761607D01*
X138555110Y-68744866D01*
X138527661Y-68722339D01*
X138505134Y-68694890D01*
X138488393Y-68663569D01*
X138478085Y-68629591D01*
X138474000Y-68588110D01*
X138474000Y-67911890D01*
X138478085Y-67870409D01*
X138488393Y-67836431D01*
X138505134Y-67805110D01*
X138527661Y-67777661D01*
X138555110Y-67755134D01*
X138586431Y-67738393D01*
X138620409Y-67728085D01*
X138661890Y-67724000D01*
X139263110Y-67724000D01*
X139304591Y-67728085D01*
X139304591Y-67728085D01*
G37*
G36*
X52254554Y-60114284D02*
G01*
X52511250Y-60220611D01*
X53037288Y-60438503D01*
X53741728Y-60909195D01*
X54340805Y-61508272D01*
X54811497Y-62212712D01*
X54811498Y-62212714D01*
X55135716Y-62995446D01*
X55301000Y-63826387D01*
X55301000Y-64673613D01*
X55135716Y-65504554D01*
X54836020Y-66228085D01*
X54811497Y-66287288D01*
X54340805Y-66991728D01*
X53741728Y-67590805D01*
X53037288Y-68061497D01*
X53037287Y-68061498D01*
X53037286Y-68061498D01*
X52254554Y-68385716D01*
X51423613Y-68551000D01*
X50576387Y-68551000D01*
X49745446Y-68385716D01*
X48962714Y-68061498D01*
X48962713Y-68061498D01*
X48962712Y-68061497D01*
X48258272Y-67590805D01*
X47659195Y-66991728D01*
X47188503Y-66287288D01*
X47163980Y-66228085D01*
X46864284Y-65504554D01*
X46699000Y-64673613D01*
X46699000Y-63826387D01*
X46864284Y-62995446D01*
X47188502Y-62212714D01*
X47188503Y-62212712D01*
X47659195Y-61508272D01*
X48258272Y-60909195D01*
X48962712Y-60438503D01*
X49488750Y-60220611D01*
X49745446Y-60114284D01*
X50576387Y-59949000D01*
X51423613Y-59949000D01*
X52254554Y-60114284D01*
X52254554Y-60114284D01*
G37*
G36*
X63254554Y-60114284D02*
G01*
X63511250Y-60220611D01*
X64037288Y-60438503D01*
X64741728Y-60909195D01*
X65340805Y-61508272D01*
X65811497Y-62212712D01*
X65811498Y-62212714D01*
X66135716Y-62995446D01*
X66301000Y-63826387D01*
X66301000Y-64673613D01*
X66135716Y-65504554D01*
X65836020Y-66228085D01*
X65811497Y-66287288D01*
X65340805Y-66991728D01*
X64741728Y-67590805D01*
X64037288Y-68061497D01*
X64037287Y-68061498D01*
X64037286Y-68061498D01*
X63254554Y-68385716D01*
X62423613Y-68551000D01*
X61576387Y-68551000D01*
X60745446Y-68385716D01*
X59962714Y-68061498D01*
X59962713Y-68061498D01*
X59962712Y-68061497D01*
X59258272Y-67590805D01*
X58659195Y-66991728D01*
X58188503Y-66287288D01*
X58163980Y-66228085D01*
X57864284Y-65504554D01*
X57699000Y-64673613D01*
X57699000Y-63826387D01*
X57864284Y-62995446D01*
X58188502Y-62212714D01*
X58188503Y-62212712D01*
X58659195Y-61508272D01*
X59258272Y-60909195D01*
X59962712Y-60438503D01*
X60488750Y-60220611D01*
X60745446Y-60114284D01*
X61576387Y-59949000D01*
X62423613Y-59949000D01*
X63254554Y-60114284D01*
X63254554Y-60114284D01*
G37*
G36*
X132351000Y-67301000D02*
G01*
X129649000Y-67301000D01*
X129649000Y-65499000D01*
X132351000Y-65499000D01*
X132351000Y-67301000D01*
X132351000Y-67301000D01*
G37*
G36*
X116351000Y-67301000D02*
G01*
X113649000Y-67301000D01*
X113649000Y-65499000D01*
X116351000Y-65499000D01*
X116351000Y-67301000D01*
X116351000Y-67301000D01*
G37*
G36*
X139304591Y-66228085D02*
G01*
X139338569Y-66238393D01*
X139369890Y-66255134D01*
X139397339Y-66277661D01*
X139419866Y-66305110D01*
X139436607Y-66336431D01*
X139446915Y-66370409D01*
X139451000Y-66411890D01*
X139451000Y-67088110D01*
X139446915Y-67129591D01*
X139436607Y-67163569D01*
X139419866Y-67194890D01*
X139397339Y-67222339D01*
X139369890Y-67244866D01*
X139338569Y-67261607D01*
X139304591Y-67271915D01*
X139263110Y-67276000D01*
X138661890Y-67276000D01*
X138620409Y-67271915D01*
X138586431Y-67261607D01*
X138555110Y-67244866D01*
X138527661Y-67222339D01*
X138505134Y-67194890D01*
X138488393Y-67163569D01*
X138478085Y-67129591D01*
X138474000Y-67088110D01*
X138474000Y-66411890D01*
X138478085Y-66370409D01*
X138488393Y-66336431D01*
X138505134Y-66305110D01*
X138527661Y-66277661D01*
X138555110Y-66255134D01*
X138586431Y-66238393D01*
X138620409Y-66228085D01*
X138661890Y-66224000D01*
X139263110Y-66224000D01*
X139304591Y-66228085D01*
X139304591Y-66228085D01*
G37*
G36*
X143129591Y-66228085D02*
G01*
X143163569Y-66238393D01*
X143194890Y-66255134D01*
X143222339Y-66277661D01*
X143244866Y-66305110D01*
X143261607Y-66336431D01*
X143271915Y-66370409D01*
X143276000Y-66411890D01*
X143276000Y-67088110D01*
X143271915Y-67129591D01*
X143261607Y-67163569D01*
X143244866Y-67194890D01*
X143222339Y-67222339D01*
X143194890Y-67244866D01*
X143163569Y-67261607D01*
X143129591Y-67271915D01*
X143088110Y-67276000D01*
X142486890Y-67276000D01*
X142445409Y-67271915D01*
X142411431Y-67261607D01*
X142380110Y-67244866D01*
X142352661Y-67222339D01*
X142330134Y-67194890D01*
X142313393Y-67163569D01*
X142303085Y-67129591D01*
X142299000Y-67088110D01*
X142299000Y-66411890D01*
X142303085Y-66370409D01*
X142313393Y-66336431D01*
X142330134Y-66305110D01*
X142352661Y-66277661D01*
X142380110Y-66255134D01*
X142411431Y-66238393D01*
X142445409Y-66228085D01*
X142486890Y-66224000D01*
X143088110Y-66224000D01*
X143129591Y-66228085D01*
X143129591Y-66228085D01*
G37*
G36*
X140862746Y-66226427D02*
G01*
X140887254Y-66226427D01*
X140911893Y-66224000D01*
X141513110Y-66224000D01*
X141554591Y-66228085D01*
X141588569Y-66238393D01*
X141619890Y-66255134D01*
X141647339Y-66277661D01*
X141669866Y-66305110D01*
X141686607Y-66336431D01*
X141696915Y-66370409D01*
X141701000Y-66411890D01*
X141701000Y-67088110D01*
X141696915Y-67129591D01*
X141686607Y-67163569D01*
X141669866Y-67194890D01*
X141647339Y-67222339D01*
X141619890Y-67244866D01*
X141588569Y-67261607D01*
X141554591Y-67271915D01*
X141513110Y-67276000D01*
X140911893Y-67276000D01*
X140887254Y-67273573D01*
X140862746Y-67273573D01*
X140838107Y-67276000D01*
X140236890Y-67276000D01*
X140195409Y-67271915D01*
X140161431Y-67261607D01*
X140130110Y-67244866D01*
X140102661Y-67222339D01*
X140080134Y-67194890D01*
X140063393Y-67163569D01*
X140053085Y-67129591D01*
X140049000Y-67088110D01*
X140049000Y-66411890D01*
X140053085Y-66370409D01*
X140063393Y-66336431D01*
X140080134Y-66305110D01*
X140102661Y-66277661D01*
X140130110Y-66255134D01*
X140161431Y-66238393D01*
X140195409Y-66228085D01*
X140236890Y-66224000D01*
X140838107Y-66224000D01*
X140862746Y-66226427D01*
X140862746Y-66226427D01*
G37*
G36*
X75271030Y-63774923D02*
G01*
X75462299Y-63854149D01*
X75462301Y-63854150D01*
X75634439Y-63969169D01*
X75780831Y-64115561D01*
X75828222Y-64186486D01*
X75895851Y-64287701D01*
X75975077Y-64478970D01*
X76015466Y-64682018D01*
X76015466Y-64889050D01*
X75975077Y-65092098D01*
X75895851Y-65283367D01*
X75895850Y-65283369D01*
X75780831Y-65455507D01*
X75634439Y-65601899D01*
X75462301Y-65716918D01*
X75462300Y-65716919D01*
X75462299Y-65716919D01*
X75271030Y-65796145D01*
X75067982Y-65836534D01*
X74860950Y-65836534D01*
X74657902Y-65796145D01*
X74466633Y-65716919D01*
X74466632Y-65716919D01*
X74466631Y-65716918D01*
X74294493Y-65601899D01*
X74148101Y-65455507D01*
X74033082Y-65283369D01*
X74033081Y-65283367D01*
X73953855Y-65092098D01*
X73913466Y-64889050D01*
X73913466Y-64682018D01*
X73953855Y-64478970D01*
X74033081Y-64287701D01*
X74100711Y-64186486D01*
X74148101Y-64115561D01*
X74294493Y-63969169D01*
X74466631Y-63854150D01*
X74466633Y-63854149D01*
X74657902Y-63774923D01*
X74860950Y-63734534D01*
X75067982Y-63734534D01*
X75271030Y-63774923D01*
X75271030Y-63774923D01*
G37*
G36*
X140887748Y-64728889D02*
G01*
X140912252Y-64728889D01*
X140961890Y-64724000D01*
X141563110Y-64724000D01*
X141604591Y-64728085D01*
X141638569Y-64738393D01*
X141669890Y-64755134D01*
X141697339Y-64777661D01*
X141719866Y-64805110D01*
X141736607Y-64836431D01*
X141746915Y-64870409D01*
X141751000Y-64911890D01*
X141751000Y-65588110D01*
X141746915Y-65629591D01*
X141736607Y-65663569D01*
X141719866Y-65694890D01*
X141697339Y-65722339D01*
X141669890Y-65744866D01*
X141638569Y-65761607D01*
X141604591Y-65771915D01*
X141563110Y-65776000D01*
X140961890Y-65776000D01*
X140912252Y-65771111D01*
X140887748Y-65771111D01*
X140838110Y-65776000D01*
X140236890Y-65776000D01*
X140195409Y-65771915D01*
X140161431Y-65761607D01*
X140130110Y-65744866D01*
X140102661Y-65722339D01*
X140080134Y-65694890D01*
X140063393Y-65663569D01*
X140053085Y-65629591D01*
X140049000Y-65588110D01*
X140049000Y-64911890D01*
X140053085Y-64870409D01*
X140063393Y-64836431D01*
X140080134Y-64805110D01*
X140102661Y-64777661D01*
X140130110Y-64755134D01*
X140161431Y-64738393D01*
X140195409Y-64728085D01*
X140236890Y-64724000D01*
X140838110Y-64724000D01*
X140887748Y-64728889D01*
X140887748Y-64728889D01*
G37*
G36*
X139304591Y-64728085D02*
G01*
X139338569Y-64738393D01*
X139369890Y-64755134D01*
X139397339Y-64777661D01*
X139419866Y-64805110D01*
X139436607Y-64836431D01*
X139446915Y-64870409D01*
X139451000Y-64911890D01*
X139451000Y-65588110D01*
X139446915Y-65629591D01*
X139436607Y-65663569D01*
X139419866Y-65694890D01*
X139397339Y-65722339D01*
X139369890Y-65744866D01*
X139338569Y-65761607D01*
X139304591Y-65771915D01*
X139263110Y-65776000D01*
X138661890Y-65776000D01*
X138620409Y-65771915D01*
X138586431Y-65761607D01*
X138555110Y-65744866D01*
X138527661Y-65722339D01*
X138505134Y-65694890D01*
X138488393Y-65663569D01*
X138478085Y-65629591D01*
X138474000Y-65588110D01*
X138474000Y-64911890D01*
X138478085Y-64870409D01*
X138488393Y-64836431D01*
X138505134Y-64805110D01*
X138527661Y-64777661D01*
X138555110Y-64755134D01*
X138586431Y-64738393D01*
X138620409Y-64728085D01*
X138661890Y-64724000D01*
X139263110Y-64724000D01*
X139304591Y-64728085D01*
X139304591Y-64728085D01*
G37*
G36*
X143179591Y-64728085D02*
G01*
X143213569Y-64738393D01*
X143244890Y-64755134D01*
X143272339Y-64777661D01*
X143294866Y-64805110D01*
X143311607Y-64836431D01*
X143321915Y-64870409D01*
X143326000Y-64911890D01*
X143326000Y-65588110D01*
X143321915Y-65629591D01*
X143311607Y-65663569D01*
X143294866Y-65694890D01*
X143272339Y-65722339D01*
X143244890Y-65744866D01*
X143213569Y-65761607D01*
X143179591Y-65771915D01*
X143138110Y-65776000D01*
X142536890Y-65776000D01*
X142495409Y-65771915D01*
X142461431Y-65761607D01*
X142430110Y-65744866D01*
X142402661Y-65722339D01*
X142380134Y-65694890D01*
X142363393Y-65663569D01*
X142353085Y-65629591D01*
X142349000Y-65588110D01*
X142349000Y-64911890D01*
X142353085Y-64870409D01*
X142363393Y-64836431D01*
X142380134Y-64805110D01*
X142402661Y-64777661D01*
X142430110Y-64755134D01*
X142461431Y-64738393D01*
X142495409Y-64728085D01*
X142536890Y-64724000D01*
X143138110Y-64724000D01*
X143179591Y-64728085D01*
X143179591Y-64728085D01*
G37*
G36*
X85146564Y-63279389D02*
G01*
X85337833Y-63358615D01*
X85337835Y-63358616D01*
X85363850Y-63375999D01*
X85509973Y-63473635D01*
X85656365Y-63620027D01*
X85771385Y-63792167D01*
X85850611Y-63983436D01*
X85891000Y-64186484D01*
X85891000Y-64393516D01*
X85850611Y-64596564D01*
X85790124Y-64742592D01*
X85771384Y-64787835D01*
X85656365Y-64959973D01*
X85509973Y-65106365D01*
X85337835Y-65221384D01*
X85337834Y-65221385D01*
X85337833Y-65221385D01*
X85146564Y-65300611D01*
X84943516Y-65341000D01*
X84736484Y-65341000D01*
X84533436Y-65300611D01*
X84342167Y-65221385D01*
X84342166Y-65221385D01*
X84342165Y-65221384D01*
X84170027Y-65106365D01*
X84023635Y-64959973D01*
X83908616Y-64787835D01*
X83889876Y-64742592D01*
X83829389Y-64596564D01*
X83789000Y-64393516D01*
X83789000Y-64186484D01*
X83829389Y-63983436D01*
X83908615Y-63792167D01*
X84023635Y-63620027D01*
X84170027Y-63473635D01*
X84316150Y-63375999D01*
X84342165Y-63358616D01*
X84342167Y-63358615D01*
X84533436Y-63279389D01*
X84736484Y-63239000D01*
X84943516Y-63239000D01*
X85146564Y-63279389D01*
X85146564Y-63279389D01*
G37*
G36*
X144451000Y-59798500D02*
G01*
X142449000Y-59798500D01*
X142449000Y-58450999D01*
X142446598Y-58426613D01*
X142439485Y-58403164D01*
X142427934Y-58381553D01*
X142412389Y-58362611D01*
X142393447Y-58347066D01*
X142371836Y-58335515D01*
X142348387Y-58328402D01*
X142324001Y-58326000D01*
X141655999Y-58326000D01*
X141631613Y-58328402D01*
X141608164Y-58335515D01*
X141586553Y-58347066D01*
X141567611Y-58362611D01*
X141552066Y-58381553D01*
X141540515Y-58403164D01*
X141533402Y-58426613D01*
X141531000Y-58450999D01*
X141531000Y-61549001D01*
X141533402Y-61573387D01*
X141540515Y-61596836D01*
X141552066Y-61618447D01*
X141567611Y-61637389D01*
X141586553Y-61652934D01*
X141608164Y-61664485D01*
X141631613Y-61671598D01*
X141655999Y-61674000D01*
X142324001Y-61674000D01*
X142348387Y-61671598D01*
X142371836Y-61664485D01*
X142393447Y-61652934D01*
X142412389Y-61637389D01*
X142427934Y-61618447D01*
X142439485Y-61596836D01*
X142446598Y-61573387D01*
X142449000Y-61549001D01*
X142449000Y-60201500D01*
X144451000Y-60201500D01*
X144451000Y-64148500D01*
X142449000Y-64148500D01*
X142449000Y-63375999D01*
X142446598Y-63351613D01*
X142439485Y-63328164D01*
X142427934Y-63306553D01*
X142412389Y-63287611D01*
X142393447Y-63272066D01*
X142371836Y-63260515D01*
X142348387Y-63253402D01*
X142324001Y-63251000D01*
X140049000Y-63251000D01*
X140049000Y-56749000D01*
X142324001Y-56749000D01*
X142348387Y-56746598D01*
X142371836Y-56739485D01*
X142393447Y-56727934D01*
X142412389Y-56712389D01*
X142427934Y-56693447D01*
X142439485Y-56671836D01*
X142446598Y-56648387D01*
X142449000Y-56624001D01*
X142449000Y-55851500D01*
X144451000Y-55851500D01*
X144451000Y-59798500D01*
X144451000Y-59798500D01*
G37*
G36*
X105466564Y-60739389D02*
G01*
X105657833Y-60818615D01*
X105657835Y-60818616D01*
X105793396Y-60909195D01*
X105829973Y-60933635D01*
X105976365Y-61080027D01*
X106091385Y-61252167D01*
X106170611Y-61443436D01*
X106211000Y-61646484D01*
X106211000Y-61853516D01*
X106170611Y-62056564D01*
X106091385Y-62247833D01*
X106091384Y-62247835D01*
X105976365Y-62419973D01*
X105829973Y-62566365D01*
X105657835Y-62681384D01*
X105657834Y-62681385D01*
X105657833Y-62681385D01*
X105466564Y-62760611D01*
X105263516Y-62801000D01*
X105056484Y-62801000D01*
X104853436Y-62760611D01*
X104662167Y-62681385D01*
X104662166Y-62681385D01*
X104662165Y-62681384D01*
X104490027Y-62566365D01*
X104343635Y-62419973D01*
X104228616Y-62247835D01*
X104228615Y-62247833D01*
X104149389Y-62056564D01*
X104109000Y-61853516D01*
X104109000Y-61646484D01*
X104149389Y-61443436D01*
X104228615Y-61252167D01*
X104343635Y-61080027D01*
X104490027Y-60933635D01*
X104526604Y-60909195D01*
X104662165Y-60818616D01*
X104662167Y-60818615D01*
X104853436Y-60739389D01*
X105056484Y-60699000D01*
X105263516Y-60699000D01*
X105466564Y-60739389D01*
X105466564Y-60739389D01*
G37*
G36*
X79986338Y-61250000D02*
G01*
X78500000Y-62736338D01*
X77013662Y-61250000D01*
X78500000Y-59763662D01*
X79986338Y-61250000D01*
X79986338Y-61250000D01*
G37*
G36*
X85146564Y-58199389D02*
G01*
X85337833Y-58278615D01*
X85337835Y-58278616D01*
X85463542Y-58362611D01*
X85509973Y-58393635D01*
X85656365Y-58540027D01*
X85771385Y-58712167D01*
X85850611Y-58903436D01*
X85891000Y-59106484D01*
X85891000Y-59313516D01*
X85850611Y-59516564D01*
X85805281Y-59626000D01*
X85771384Y-59707835D01*
X85656365Y-59879973D01*
X85509973Y-60026365D01*
X85337835Y-60141384D01*
X85337834Y-60141385D01*
X85337833Y-60141385D01*
X85146564Y-60220611D01*
X84943516Y-60261000D01*
X84736484Y-60261000D01*
X84533436Y-60220611D01*
X84342167Y-60141385D01*
X84342166Y-60141385D01*
X84342165Y-60141384D01*
X84170027Y-60026365D01*
X84023635Y-59879973D01*
X83908616Y-59707835D01*
X83874719Y-59626000D01*
X83829389Y-59516564D01*
X83789000Y-59313516D01*
X83789000Y-59106484D01*
X83829389Y-58903436D01*
X83908615Y-58712167D01*
X84023635Y-58540027D01*
X84170027Y-58393635D01*
X84216458Y-58362611D01*
X84342165Y-58278616D01*
X84342167Y-58278615D01*
X84533436Y-58199389D01*
X84736484Y-58159000D01*
X84943516Y-58159000D01*
X85146564Y-58199389D01*
X85146564Y-58199389D01*
G37*
G36*
X56634239Y-49561467D02*
G01*
X56948282Y-49623934D01*
X57539926Y-49869001D01*
X58072392Y-50224784D01*
X58525216Y-50677608D01*
X58880999Y-51210074D01*
X59126066Y-51801718D01*
X59149713Y-51920599D01*
X59251000Y-52429803D01*
X59251000Y-53070197D01*
X59201484Y-53319132D01*
X59126066Y-53698282D01*
X58880999Y-54289926D01*
X58525216Y-54822392D01*
X58072392Y-55275216D01*
X57539926Y-55630999D01*
X56948282Y-55876066D01*
X56634239Y-55938533D01*
X56320197Y-56001000D01*
X55679803Y-56001000D01*
X55365761Y-55938533D01*
X55051718Y-55876066D01*
X54460074Y-55630999D01*
X53927608Y-55275216D01*
X53474784Y-54822392D01*
X53119001Y-54289926D01*
X52873934Y-53698282D01*
X52798516Y-53319132D01*
X52749000Y-53070197D01*
X52749000Y-52429803D01*
X52850287Y-51920599D01*
X52873934Y-51801718D01*
X53119001Y-51210074D01*
X53474784Y-50677608D01*
X53927608Y-50224784D01*
X54460074Y-49869001D01*
X55051718Y-49623934D01*
X55365761Y-49561467D01*
X55679803Y-49499000D01*
X56320197Y-49499000D01*
X56634239Y-49561467D01*
X56634239Y-49561467D01*
G37*
G36*
X74907023Y-50960590D02*
G01*
X75007682Y-50991125D01*
X75058013Y-51006392D01*
X75197165Y-51080771D01*
X75319133Y-51180867D01*
X75419229Y-51302835D01*
X75493608Y-51441987D01*
X75493608Y-51441988D01*
X75539410Y-51592977D01*
X75551000Y-51710655D01*
X75551000Y-52789345D01*
X75539410Y-52907023D01*
X75508875Y-53007682D01*
X75493608Y-53058013D01*
X75487096Y-53070196D01*
X75419229Y-53197165D01*
X75319133Y-53319133D01*
X75197164Y-53419229D01*
X75058012Y-53493608D01*
X75007681Y-53508875D01*
X74907022Y-53539410D01*
X74750000Y-53554875D01*
X74592977Y-53539410D01*
X74492318Y-53508875D01*
X74441987Y-53493608D01*
X74302835Y-53419229D01*
X74180867Y-53319133D01*
X74080771Y-53197164D01*
X74029003Y-53100314D01*
X74006392Y-53058012D01*
X73977762Y-52963629D01*
X73960590Y-52907022D01*
X73949000Y-52789344D01*
X73949001Y-51710655D01*
X73960591Y-51592977D01*
X74006393Y-51441988D01*
X74006393Y-51441987D01*
X74080772Y-51302835D01*
X74180868Y-51180867D01*
X74302836Y-51080771D01*
X74441988Y-51006392D01*
X74492319Y-50991125D01*
X74592978Y-50960590D01*
X74750000Y-50945125D01*
X74907023Y-50960590D01*
X74907023Y-50960590D01*
G37*
G36*
X72407023Y-50960590D02*
G01*
X72507682Y-50991125D01*
X72558013Y-51006392D01*
X72697165Y-51080771D01*
X72819133Y-51180867D01*
X72919229Y-51302835D01*
X72993608Y-51441987D01*
X72993608Y-51441988D01*
X73039410Y-51592977D01*
X73051000Y-51710655D01*
X73051000Y-52789345D01*
X73039410Y-52907023D01*
X73008875Y-53007682D01*
X72993608Y-53058013D01*
X72987096Y-53070196D01*
X72919229Y-53197165D01*
X72819133Y-53319133D01*
X72697164Y-53419229D01*
X72558012Y-53493608D01*
X72507681Y-53508875D01*
X72407022Y-53539410D01*
X72250000Y-53554875D01*
X72092977Y-53539410D01*
X71992318Y-53508875D01*
X71941987Y-53493608D01*
X71802835Y-53419229D01*
X71680867Y-53319133D01*
X71580771Y-53197164D01*
X71529003Y-53100314D01*
X71506392Y-53058012D01*
X71477762Y-52963629D01*
X71460590Y-52907022D01*
X71449000Y-52789344D01*
X71449001Y-51710655D01*
X71460591Y-51592977D01*
X71506393Y-51441988D01*
X71506393Y-51441987D01*
X71580772Y-51302835D01*
X71680868Y-51180867D01*
X71802836Y-51080771D01*
X71941988Y-51006392D01*
X71992319Y-50991125D01*
X72092978Y-50960590D01*
X72250000Y-50945125D01*
X72407023Y-50960590D01*
X72407023Y-50960590D01*
G37*
G36*
X80879591Y-51728085D02*
G01*
X80913569Y-51738393D01*
X80944890Y-51755134D01*
X80972339Y-51777661D01*
X80994866Y-51805110D01*
X81011607Y-51836431D01*
X81021915Y-51870409D01*
X81026000Y-51911890D01*
X81026000Y-52588110D01*
X81021915Y-52629591D01*
X81011607Y-52663569D01*
X80994866Y-52694890D01*
X80972339Y-52722339D01*
X80944890Y-52744866D01*
X80913569Y-52761607D01*
X80879591Y-52771915D01*
X80838110Y-52776000D01*
X80236890Y-52776000D01*
X80195409Y-52771915D01*
X80161431Y-52761607D01*
X80130110Y-52744866D01*
X80102661Y-52722339D01*
X80080134Y-52694890D01*
X80063393Y-52663569D01*
X80053085Y-52629591D01*
X80049000Y-52588110D01*
X80049000Y-51911890D01*
X80053085Y-51870409D01*
X80063393Y-51836431D01*
X80080134Y-51805110D01*
X80102661Y-51777661D01*
X80130110Y-51755134D01*
X80161431Y-51738393D01*
X80195409Y-51728085D01*
X80236890Y-51724000D01*
X80838110Y-51724000D01*
X80879591Y-51728085D01*
X80879591Y-51728085D01*
G37*
G36*
X79304591Y-51728085D02*
G01*
X79338569Y-51738393D01*
X79369890Y-51755134D01*
X79397339Y-51777661D01*
X79419866Y-51805110D01*
X79436607Y-51836431D01*
X79446915Y-51870409D01*
X79451000Y-51911890D01*
X79451000Y-52588110D01*
X79446915Y-52629591D01*
X79436607Y-52663569D01*
X79419866Y-52694890D01*
X79397339Y-52722339D01*
X79369890Y-52744866D01*
X79338569Y-52761607D01*
X79304591Y-52771915D01*
X79263110Y-52776000D01*
X78661890Y-52776000D01*
X78620409Y-52771915D01*
X78586431Y-52761607D01*
X78555110Y-52744866D01*
X78527661Y-52722339D01*
X78505134Y-52694890D01*
X78488393Y-52663569D01*
X78478085Y-52629591D01*
X78474000Y-52588110D01*
X78474000Y-51911890D01*
X78478085Y-51870409D01*
X78488393Y-51836431D01*
X78505134Y-51805110D01*
X78527661Y-51777661D01*
X78555110Y-51755134D01*
X78586431Y-51738393D01*
X78620409Y-51728085D01*
X78661890Y-51724000D01*
X79263110Y-51724000D01*
X79304591Y-51728085D01*
X79304591Y-51728085D01*
G37*
G36*
X105466564Y-50579389D02*
G01*
X105644936Y-50653273D01*
X105657835Y-50658616D01*
X105829973Y-50773635D01*
X105976365Y-50920027D01*
X106083771Y-51080771D01*
X106091385Y-51092167D01*
X106170611Y-51283436D01*
X106211000Y-51486484D01*
X106211000Y-51693516D01*
X106170611Y-51896564D01*
X106091385Y-52087833D01*
X106091384Y-52087835D01*
X105976365Y-52259973D01*
X105829973Y-52406365D01*
X105657835Y-52521384D01*
X105657834Y-52521385D01*
X105657833Y-52521385D01*
X105466564Y-52600611D01*
X105263516Y-52641000D01*
X105056484Y-52641000D01*
X104853436Y-52600611D01*
X104662167Y-52521385D01*
X104662166Y-52521385D01*
X104662165Y-52521384D01*
X104490027Y-52406365D01*
X104343635Y-52259973D01*
X104228616Y-52087835D01*
X104228615Y-52087833D01*
X104149389Y-51896564D01*
X104109000Y-51693516D01*
X104109000Y-51486484D01*
X104149389Y-51283436D01*
X104228615Y-51092167D01*
X104236230Y-51080771D01*
X104343635Y-50920027D01*
X104490027Y-50773635D01*
X104662165Y-50658616D01*
X104675064Y-50653273D01*
X104853436Y-50579389D01*
X105056484Y-50539000D01*
X105263516Y-50539000D01*
X105466564Y-50579389D01*
X105466564Y-50579389D01*
G37*
G36*
X85146564Y-50579389D02*
G01*
X85324936Y-50653273D01*
X85337835Y-50658616D01*
X85509973Y-50773635D01*
X85656365Y-50920027D01*
X85763771Y-51080771D01*
X85771385Y-51092167D01*
X85850611Y-51283436D01*
X85891000Y-51486484D01*
X85891000Y-51693516D01*
X85850611Y-51896564D01*
X85771385Y-52087833D01*
X85771384Y-52087835D01*
X85656365Y-52259973D01*
X85509973Y-52406365D01*
X85337835Y-52521384D01*
X85337834Y-52521385D01*
X85337833Y-52521385D01*
X85146564Y-52600611D01*
X84943516Y-52641000D01*
X84736484Y-52641000D01*
X84533436Y-52600611D01*
X84342167Y-52521385D01*
X84342166Y-52521385D01*
X84342165Y-52521384D01*
X84170027Y-52406365D01*
X84023635Y-52259973D01*
X83908616Y-52087835D01*
X83908615Y-52087833D01*
X83829389Y-51896564D01*
X83789000Y-51693516D01*
X83789000Y-51486484D01*
X83829389Y-51283436D01*
X83908615Y-51092167D01*
X83916230Y-51080771D01*
X84023635Y-50920027D01*
X84170027Y-50773635D01*
X84342165Y-50658616D01*
X84355064Y-50653273D01*
X84533436Y-50579389D01*
X84736484Y-50539000D01*
X84943516Y-50539000D01*
X85146564Y-50579389D01*
X85146564Y-50579389D01*
G37*
M02*
