G04 #@! TF.GenerationSoftware,KiCad,Pcbnew,(5.1.2)-1*
G04 #@! TF.CreationDate,2019-06-09T17:51:18+09:00*
G04 #@! TF.ProjectId,STEPPER_MOTOR04,53544550-5045-4525-9f4d-4f544f523034,rev?*
G04 #@! TF.SameCoordinates,Original*
G04 #@! TF.FileFunction,Copper,L2,Bot*
G04 #@! TF.FilePolarity,Positive*
%FSLAX46Y46*%
G04 Gerber Fmt 4.6, Leading zero omitted, Abs format (unit mm)*
G04 Created by KiCad (PCBNEW (5.1.2)-1) date 2019-06-09 17:51:18*
%MOMM*%
%LPD*%
G04 APERTURE LIST*
%ADD10C,0.100000*%
%ADD11C,1.700000*%
%ADD12O,1.950000X1.700000*%
%ADD13R,1.700000X0.650000*%
%ADD14C,0.875000*%
%ADD15R,1.500000X2.400000*%
%ADD16R,1.500000X1.050000*%
%ADD17C,0.850000*%
%ADD18R,1.000000X1.500000*%
%ADD19R,1.000000X1.800000*%
%ADD20R,2.200000X1.840000*%
%ADD21C,1.000000*%
%ADD22O,1.700000X2.000000*%
%ADD23C,1.600000*%
%ADD24R,1.600000X1.600000*%
%ADD25O,1.600000X1.600000*%
%ADD26C,6.000000*%
%ADD27C,0.600000*%
%ADD28C,0.800000*%
%ADD29C,0.500000*%
%ADD30C,0.700000*%
%ADD31C,0.300000*%
%ADD32C,1.000000*%
%ADD33C,0.254000*%
G04 APERTURE END LIST*
D10*
G36*
X101499504Y-86401204D02*
G01*
X101523773Y-86404804D01*
X101547571Y-86410765D01*
X101570671Y-86419030D01*
X101592849Y-86429520D01*
X101613893Y-86442133D01*
X101633598Y-86456747D01*
X101651777Y-86473223D01*
X101668253Y-86491402D01*
X101682867Y-86511107D01*
X101695480Y-86532151D01*
X101705970Y-86554329D01*
X101714235Y-86577429D01*
X101720196Y-86601227D01*
X101723796Y-86625496D01*
X101725000Y-86650000D01*
X101725000Y-87850000D01*
X101723796Y-87874504D01*
X101720196Y-87898773D01*
X101714235Y-87922571D01*
X101705970Y-87945671D01*
X101695480Y-87967849D01*
X101682867Y-87988893D01*
X101668253Y-88008598D01*
X101651777Y-88026777D01*
X101633598Y-88043253D01*
X101613893Y-88057867D01*
X101592849Y-88070480D01*
X101570671Y-88080970D01*
X101547571Y-88089235D01*
X101523773Y-88095196D01*
X101499504Y-88098796D01*
X101475000Y-88100000D01*
X100025000Y-88100000D01*
X100000496Y-88098796D01*
X99976227Y-88095196D01*
X99952429Y-88089235D01*
X99929329Y-88080970D01*
X99907151Y-88070480D01*
X99886107Y-88057867D01*
X99866402Y-88043253D01*
X99848223Y-88026777D01*
X99831747Y-88008598D01*
X99817133Y-87988893D01*
X99804520Y-87967849D01*
X99794030Y-87945671D01*
X99785765Y-87922571D01*
X99779804Y-87898773D01*
X99776204Y-87874504D01*
X99775000Y-87850000D01*
X99775000Y-86650000D01*
X99776204Y-86625496D01*
X99779804Y-86601227D01*
X99785765Y-86577429D01*
X99794030Y-86554329D01*
X99804520Y-86532151D01*
X99817133Y-86511107D01*
X99831747Y-86491402D01*
X99848223Y-86473223D01*
X99866402Y-86456747D01*
X99886107Y-86442133D01*
X99907151Y-86429520D01*
X99929329Y-86419030D01*
X99952429Y-86410765D01*
X99976227Y-86404804D01*
X100000496Y-86401204D01*
X100025000Y-86400000D01*
X101475000Y-86400000D01*
X101499504Y-86401204D01*
X101499504Y-86401204D01*
G37*
D11*
X100750000Y-87250000D03*
D12*
X100750000Y-89750000D03*
X100750000Y-92250000D03*
X100750000Y-94750000D03*
X100750000Y-97250000D03*
X100750000Y-99750000D03*
D13*
X110050000Y-101885000D03*
X110050000Y-100615000D03*
X103450000Y-100615000D03*
X103450000Y-101885000D03*
X103450000Y-95885000D03*
X103450000Y-94615000D03*
X110050000Y-94615000D03*
X110050000Y-95885000D03*
X103450000Y-89885000D03*
X103450000Y-88615000D03*
X110050000Y-88615000D03*
X110050000Y-89885000D03*
D10*
G36*
X114627691Y-88026053D02*
G01*
X114648926Y-88029203D01*
X114669750Y-88034419D01*
X114689962Y-88041651D01*
X114709368Y-88050830D01*
X114727781Y-88061866D01*
X114745024Y-88074654D01*
X114760930Y-88089070D01*
X114775346Y-88104976D01*
X114788134Y-88122219D01*
X114799170Y-88140632D01*
X114808349Y-88160038D01*
X114815581Y-88180250D01*
X114820797Y-88201074D01*
X114823947Y-88222309D01*
X114825000Y-88243750D01*
X114825000Y-88681250D01*
X114823947Y-88702691D01*
X114820797Y-88723926D01*
X114815581Y-88744750D01*
X114808349Y-88764962D01*
X114799170Y-88784368D01*
X114788134Y-88802781D01*
X114775346Y-88820024D01*
X114760930Y-88835930D01*
X114745024Y-88850346D01*
X114727781Y-88863134D01*
X114709368Y-88874170D01*
X114689962Y-88883349D01*
X114669750Y-88890581D01*
X114648926Y-88895797D01*
X114627691Y-88898947D01*
X114606250Y-88900000D01*
X114093750Y-88900000D01*
X114072309Y-88898947D01*
X114051074Y-88895797D01*
X114030250Y-88890581D01*
X114010038Y-88883349D01*
X113990632Y-88874170D01*
X113972219Y-88863134D01*
X113954976Y-88850346D01*
X113939070Y-88835930D01*
X113924654Y-88820024D01*
X113911866Y-88802781D01*
X113900830Y-88784368D01*
X113891651Y-88764962D01*
X113884419Y-88744750D01*
X113879203Y-88723926D01*
X113876053Y-88702691D01*
X113875000Y-88681250D01*
X113875000Y-88243750D01*
X113876053Y-88222309D01*
X113879203Y-88201074D01*
X113884419Y-88180250D01*
X113891651Y-88160038D01*
X113900830Y-88140632D01*
X113911866Y-88122219D01*
X113924654Y-88104976D01*
X113939070Y-88089070D01*
X113954976Y-88074654D01*
X113972219Y-88061866D01*
X113990632Y-88050830D01*
X114010038Y-88041651D01*
X114030250Y-88034419D01*
X114051074Y-88029203D01*
X114072309Y-88026053D01*
X114093750Y-88025000D01*
X114606250Y-88025000D01*
X114627691Y-88026053D01*
X114627691Y-88026053D01*
G37*
D14*
X114350000Y-88462500D03*
D10*
G36*
X114627691Y-89601053D02*
G01*
X114648926Y-89604203D01*
X114669750Y-89609419D01*
X114689962Y-89616651D01*
X114709368Y-89625830D01*
X114727781Y-89636866D01*
X114745024Y-89649654D01*
X114760930Y-89664070D01*
X114775346Y-89679976D01*
X114788134Y-89697219D01*
X114799170Y-89715632D01*
X114808349Y-89735038D01*
X114815581Y-89755250D01*
X114820797Y-89776074D01*
X114823947Y-89797309D01*
X114825000Y-89818750D01*
X114825000Y-90256250D01*
X114823947Y-90277691D01*
X114820797Y-90298926D01*
X114815581Y-90319750D01*
X114808349Y-90339962D01*
X114799170Y-90359368D01*
X114788134Y-90377781D01*
X114775346Y-90395024D01*
X114760930Y-90410930D01*
X114745024Y-90425346D01*
X114727781Y-90438134D01*
X114709368Y-90449170D01*
X114689962Y-90458349D01*
X114669750Y-90465581D01*
X114648926Y-90470797D01*
X114627691Y-90473947D01*
X114606250Y-90475000D01*
X114093750Y-90475000D01*
X114072309Y-90473947D01*
X114051074Y-90470797D01*
X114030250Y-90465581D01*
X114010038Y-90458349D01*
X113990632Y-90449170D01*
X113972219Y-90438134D01*
X113954976Y-90425346D01*
X113939070Y-90410930D01*
X113924654Y-90395024D01*
X113911866Y-90377781D01*
X113900830Y-90359368D01*
X113891651Y-90339962D01*
X113884419Y-90319750D01*
X113879203Y-90298926D01*
X113876053Y-90277691D01*
X113875000Y-90256250D01*
X113875000Y-89818750D01*
X113876053Y-89797309D01*
X113879203Y-89776074D01*
X113884419Y-89755250D01*
X113891651Y-89735038D01*
X113900830Y-89715632D01*
X113911866Y-89697219D01*
X113924654Y-89679976D01*
X113939070Y-89664070D01*
X113954976Y-89649654D01*
X113972219Y-89636866D01*
X113990632Y-89625830D01*
X114010038Y-89616651D01*
X114030250Y-89609419D01*
X114051074Y-89604203D01*
X114072309Y-89601053D01*
X114093750Y-89600000D01*
X114606250Y-89600000D01*
X114627691Y-89601053D01*
X114627691Y-89601053D01*
G37*
D14*
X114350000Y-90037500D03*
D10*
G36*
X120277691Y-83601053D02*
G01*
X120298926Y-83604203D01*
X120319750Y-83609419D01*
X120339962Y-83616651D01*
X120359368Y-83625830D01*
X120377781Y-83636866D01*
X120395024Y-83649654D01*
X120410930Y-83664070D01*
X120425346Y-83679976D01*
X120438134Y-83697219D01*
X120449170Y-83715632D01*
X120458349Y-83735038D01*
X120465581Y-83755250D01*
X120470797Y-83776074D01*
X120473947Y-83797309D01*
X120475000Y-83818750D01*
X120475000Y-84256250D01*
X120473947Y-84277691D01*
X120470797Y-84298926D01*
X120465581Y-84319750D01*
X120458349Y-84339962D01*
X120449170Y-84359368D01*
X120438134Y-84377781D01*
X120425346Y-84395024D01*
X120410930Y-84410930D01*
X120395024Y-84425346D01*
X120377781Y-84438134D01*
X120359368Y-84449170D01*
X120339962Y-84458349D01*
X120319750Y-84465581D01*
X120298926Y-84470797D01*
X120277691Y-84473947D01*
X120256250Y-84475000D01*
X119743750Y-84475000D01*
X119722309Y-84473947D01*
X119701074Y-84470797D01*
X119680250Y-84465581D01*
X119660038Y-84458349D01*
X119640632Y-84449170D01*
X119622219Y-84438134D01*
X119604976Y-84425346D01*
X119589070Y-84410930D01*
X119574654Y-84395024D01*
X119561866Y-84377781D01*
X119550830Y-84359368D01*
X119541651Y-84339962D01*
X119534419Y-84319750D01*
X119529203Y-84298926D01*
X119526053Y-84277691D01*
X119525000Y-84256250D01*
X119525000Y-83818750D01*
X119526053Y-83797309D01*
X119529203Y-83776074D01*
X119534419Y-83755250D01*
X119541651Y-83735038D01*
X119550830Y-83715632D01*
X119561866Y-83697219D01*
X119574654Y-83679976D01*
X119589070Y-83664070D01*
X119604976Y-83649654D01*
X119622219Y-83636866D01*
X119640632Y-83625830D01*
X119660038Y-83616651D01*
X119680250Y-83609419D01*
X119701074Y-83604203D01*
X119722309Y-83601053D01*
X119743750Y-83600000D01*
X120256250Y-83600000D01*
X120277691Y-83601053D01*
X120277691Y-83601053D01*
G37*
D14*
X120000000Y-84037500D03*
D10*
G36*
X120277691Y-82026053D02*
G01*
X120298926Y-82029203D01*
X120319750Y-82034419D01*
X120339962Y-82041651D01*
X120359368Y-82050830D01*
X120377781Y-82061866D01*
X120395024Y-82074654D01*
X120410930Y-82089070D01*
X120425346Y-82104976D01*
X120438134Y-82122219D01*
X120449170Y-82140632D01*
X120458349Y-82160038D01*
X120465581Y-82180250D01*
X120470797Y-82201074D01*
X120473947Y-82222309D01*
X120475000Y-82243750D01*
X120475000Y-82681250D01*
X120473947Y-82702691D01*
X120470797Y-82723926D01*
X120465581Y-82744750D01*
X120458349Y-82764962D01*
X120449170Y-82784368D01*
X120438134Y-82802781D01*
X120425346Y-82820024D01*
X120410930Y-82835930D01*
X120395024Y-82850346D01*
X120377781Y-82863134D01*
X120359368Y-82874170D01*
X120339962Y-82883349D01*
X120319750Y-82890581D01*
X120298926Y-82895797D01*
X120277691Y-82898947D01*
X120256250Y-82900000D01*
X119743750Y-82900000D01*
X119722309Y-82898947D01*
X119701074Y-82895797D01*
X119680250Y-82890581D01*
X119660038Y-82883349D01*
X119640632Y-82874170D01*
X119622219Y-82863134D01*
X119604976Y-82850346D01*
X119589070Y-82835930D01*
X119574654Y-82820024D01*
X119561866Y-82802781D01*
X119550830Y-82784368D01*
X119541651Y-82764962D01*
X119534419Y-82744750D01*
X119529203Y-82723926D01*
X119526053Y-82702691D01*
X119525000Y-82681250D01*
X119525000Y-82243750D01*
X119526053Y-82222309D01*
X119529203Y-82201074D01*
X119534419Y-82180250D01*
X119541651Y-82160038D01*
X119550830Y-82140632D01*
X119561866Y-82122219D01*
X119574654Y-82104976D01*
X119589070Y-82089070D01*
X119604976Y-82074654D01*
X119622219Y-82061866D01*
X119640632Y-82050830D01*
X119660038Y-82041651D01*
X119680250Y-82034419D01*
X119701074Y-82029203D01*
X119722309Y-82026053D01*
X119743750Y-82025000D01*
X120256250Y-82025000D01*
X120277691Y-82026053D01*
X120277691Y-82026053D01*
G37*
D14*
X120000000Y-82462500D03*
D10*
G36*
X111952691Y-83526053D02*
G01*
X111973926Y-83529203D01*
X111994750Y-83534419D01*
X112014962Y-83541651D01*
X112034368Y-83550830D01*
X112052781Y-83561866D01*
X112070024Y-83574654D01*
X112085930Y-83589070D01*
X112100346Y-83604976D01*
X112113134Y-83622219D01*
X112124170Y-83640632D01*
X112133349Y-83660038D01*
X112140581Y-83680250D01*
X112145797Y-83701074D01*
X112148947Y-83722309D01*
X112150000Y-83743750D01*
X112150000Y-84256250D01*
X112148947Y-84277691D01*
X112145797Y-84298926D01*
X112140581Y-84319750D01*
X112133349Y-84339962D01*
X112124170Y-84359368D01*
X112113134Y-84377781D01*
X112100346Y-84395024D01*
X112085930Y-84410930D01*
X112070024Y-84425346D01*
X112052781Y-84438134D01*
X112034368Y-84449170D01*
X112014962Y-84458349D01*
X111994750Y-84465581D01*
X111973926Y-84470797D01*
X111952691Y-84473947D01*
X111931250Y-84475000D01*
X111493750Y-84475000D01*
X111472309Y-84473947D01*
X111451074Y-84470797D01*
X111430250Y-84465581D01*
X111410038Y-84458349D01*
X111390632Y-84449170D01*
X111372219Y-84438134D01*
X111354976Y-84425346D01*
X111339070Y-84410930D01*
X111324654Y-84395024D01*
X111311866Y-84377781D01*
X111300830Y-84359368D01*
X111291651Y-84339962D01*
X111284419Y-84319750D01*
X111279203Y-84298926D01*
X111276053Y-84277691D01*
X111275000Y-84256250D01*
X111275000Y-83743750D01*
X111276053Y-83722309D01*
X111279203Y-83701074D01*
X111284419Y-83680250D01*
X111291651Y-83660038D01*
X111300830Y-83640632D01*
X111311866Y-83622219D01*
X111324654Y-83604976D01*
X111339070Y-83589070D01*
X111354976Y-83574654D01*
X111372219Y-83561866D01*
X111390632Y-83550830D01*
X111410038Y-83541651D01*
X111430250Y-83534419D01*
X111451074Y-83529203D01*
X111472309Y-83526053D01*
X111493750Y-83525000D01*
X111931250Y-83525000D01*
X111952691Y-83526053D01*
X111952691Y-83526053D01*
G37*
D14*
X111712500Y-84000000D03*
D10*
G36*
X113527691Y-83526053D02*
G01*
X113548926Y-83529203D01*
X113569750Y-83534419D01*
X113589962Y-83541651D01*
X113609368Y-83550830D01*
X113627781Y-83561866D01*
X113645024Y-83574654D01*
X113660930Y-83589070D01*
X113675346Y-83604976D01*
X113688134Y-83622219D01*
X113699170Y-83640632D01*
X113708349Y-83660038D01*
X113715581Y-83680250D01*
X113720797Y-83701074D01*
X113723947Y-83722309D01*
X113725000Y-83743750D01*
X113725000Y-84256250D01*
X113723947Y-84277691D01*
X113720797Y-84298926D01*
X113715581Y-84319750D01*
X113708349Y-84339962D01*
X113699170Y-84359368D01*
X113688134Y-84377781D01*
X113675346Y-84395024D01*
X113660930Y-84410930D01*
X113645024Y-84425346D01*
X113627781Y-84438134D01*
X113609368Y-84449170D01*
X113589962Y-84458349D01*
X113569750Y-84465581D01*
X113548926Y-84470797D01*
X113527691Y-84473947D01*
X113506250Y-84475000D01*
X113068750Y-84475000D01*
X113047309Y-84473947D01*
X113026074Y-84470797D01*
X113005250Y-84465581D01*
X112985038Y-84458349D01*
X112965632Y-84449170D01*
X112947219Y-84438134D01*
X112929976Y-84425346D01*
X112914070Y-84410930D01*
X112899654Y-84395024D01*
X112886866Y-84377781D01*
X112875830Y-84359368D01*
X112866651Y-84339962D01*
X112859419Y-84319750D01*
X112854203Y-84298926D01*
X112851053Y-84277691D01*
X112850000Y-84256250D01*
X112850000Y-83743750D01*
X112851053Y-83722309D01*
X112854203Y-83701074D01*
X112859419Y-83680250D01*
X112866651Y-83660038D01*
X112875830Y-83640632D01*
X112886866Y-83622219D01*
X112899654Y-83604976D01*
X112914070Y-83589070D01*
X112929976Y-83574654D01*
X112947219Y-83561866D01*
X112965632Y-83550830D01*
X112985038Y-83541651D01*
X113005250Y-83534419D01*
X113026074Y-83529203D01*
X113047309Y-83526053D01*
X113068750Y-83525000D01*
X113506250Y-83525000D01*
X113527691Y-83526053D01*
X113527691Y-83526053D01*
G37*
D14*
X113287500Y-84000000D03*
D10*
G36*
X103452691Y-92276053D02*
G01*
X103473926Y-92279203D01*
X103494750Y-92284419D01*
X103514962Y-92291651D01*
X103534368Y-92300830D01*
X103552781Y-92311866D01*
X103570024Y-92324654D01*
X103585930Y-92339070D01*
X103600346Y-92354976D01*
X103613134Y-92372219D01*
X103624170Y-92390632D01*
X103633349Y-92410038D01*
X103640581Y-92430250D01*
X103645797Y-92451074D01*
X103648947Y-92472309D01*
X103650000Y-92493750D01*
X103650000Y-93006250D01*
X103648947Y-93027691D01*
X103645797Y-93048926D01*
X103640581Y-93069750D01*
X103633349Y-93089962D01*
X103624170Y-93109368D01*
X103613134Y-93127781D01*
X103600346Y-93145024D01*
X103585930Y-93160930D01*
X103570024Y-93175346D01*
X103552781Y-93188134D01*
X103534368Y-93199170D01*
X103514962Y-93208349D01*
X103494750Y-93215581D01*
X103473926Y-93220797D01*
X103452691Y-93223947D01*
X103431250Y-93225000D01*
X102993750Y-93225000D01*
X102972309Y-93223947D01*
X102951074Y-93220797D01*
X102930250Y-93215581D01*
X102910038Y-93208349D01*
X102890632Y-93199170D01*
X102872219Y-93188134D01*
X102854976Y-93175346D01*
X102839070Y-93160930D01*
X102824654Y-93145024D01*
X102811866Y-93127781D01*
X102800830Y-93109368D01*
X102791651Y-93089962D01*
X102784419Y-93069750D01*
X102779203Y-93048926D01*
X102776053Y-93027691D01*
X102775000Y-93006250D01*
X102775000Y-92493750D01*
X102776053Y-92472309D01*
X102779203Y-92451074D01*
X102784419Y-92430250D01*
X102791651Y-92410038D01*
X102800830Y-92390632D01*
X102811866Y-92372219D01*
X102824654Y-92354976D01*
X102839070Y-92339070D01*
X102854976Y-92324654D01*
X102872219Y-92311866D01*
X102890632Y-92300830D01*
X102910038Y-92291651D01*
X102930250Y-92284419D01*
X102951074Y-92279203D01*
X102972309Y-92276053D01*
X102993750Y-92275000D01*
X103431250Y-92275000D01*
X103452691Y-92276053D01*
X103452691Y-92276053D01*
G37*
D14*
X103212500Y-92750000D03*
D10*
G36*
X105027691Y-92276053D02*
G01*
X105048926Y-92279203D01*
X105069750Y-92284419D01*
X105089962Y-92291651D01*
X105109368Y-92300830D01*
X105127781Y-92311866D01*
X105145024Y-92324654D01*
X105160930Y-92339070D01*
X105175346Y-92354976D01*
X105188134Y-92372219D01*
X105199170Y-92390632D01*
X105208349Y-92410038D01*
X105215581Y-92430250D01*
X105220797Y-92451074D01*
X105223947Y-92472309D01*
X105225000Y-92493750D01*
X105225000Y-93006250D01*
X105223947Y-93027691D01*
X105220797Y-93048926D01*
X105215581Y-93069750D01*
X105208349Y-93089962D01*
X105199170Y-93109368D01*
X105188134Y-93127781D01*
X105175346Y-93145024D01*
X105160930Y-93160930D01*
X105145024Y-93175346D01*
X105127781Y-93188134D01*
X105109368Y-93199170D01*
X105089962Y-93208349D01*
X105069750Y-93215581D01*
X105048926Y-93220797D01*
X105027691Y-93223947D01*
X105006250Y-93225000D01*
X104568750Y-93225000D01*
X104547309Y-93223947D01*
X104526074Y-93220797D01*
X104505250Y-93215581D01*
X104485038Y-93208349D01*
X104465632Y-93199170D01*
X104447219Y-93188134D01*
X104429976Y-93175346D01*
X104414070Y-93160930D01*
X104399654Y-93145024D01*
X104386866Y-93127781D01*
X104375830Y-93109368D01*
X104366651Y-93089962D01*
X104359419Y-93069750D01*
X104354203Y-93048926D01*
X104351053Y-93027691D01*
X104350000Y-93006250D01*
X104350000Y-92493750D01*
X104351053Y-92472309D01*
X104354203Y-92451074D01*
X104359419Y-92430250D01*
X104366651Y-92410038D01*
X104375830Y-92390632D01*
X104386866Y-92372219D01*
X104399654Y-92354976D01*
X104414070Y-92339070D01*
X104429976Y-92324654D01*
X104447219Y-92311866D01*
X104465632Y-92300830D01*
X104485038Y-92291651D01*
X104505250Y-92284419D01*
X104526074Y-92279203D01*
X104547309Y-92276053D01*
X104568750Y-92275000D01*
X105006250Y-92275000D01*
X105027691Y-92276053D01*
X105027691Y-92276053D01*
G37*
D14*
X104787500Y-92750000D03*
D10*
G36*
X105027691Y-98276053D02*
G01*
X105048926Y-98279203D01*
X105069750Y-98284419D01*
X105089962Y-98291651D01*
X105109368Y-98300830D01*
X105127781Y-98311866D01*
X105145024Y-98324654D01*
X105160930Y-98339070D01*
X105175346Y-98354976D01*
X105188134Y-98372219D01*
X105199170Y-98390632D01*
X105208349Y-98410038D01*
X105215581Y-98430250D01*
X105220797Y-98451074D01*
X105223947Y-98472309D01*
X105225000Y-98493750D01*
X105225000Y-99006250D01*
X105223947Y-99027691D01*
X105220797Y-99048926D01*
X105215581Y-99069750D01*
X105208349Y-99089962D01*
X105199170Y-99109368D01*
X105188134Y-99127781D01*
X105175346Y-99145024D01*
X105160930Y-99160930D01*
X105145024Y-99175346D01*
X105127781Y-99188134D01*
X105109368Y-99199170D01*
X105089962Y-99208349D01*
X105069750Y-99215581D01*
X105048926Y-99220797D01*
X105027691Y-99223947D01*
X105006250Y-99225000D01*
X104568750Y-99225000D01*
X104547309Y-99223947D01*
X104526074Y-99220797D01*
X104505250Y-99215581D01*
X104485038Y-99208349D01*
X104465632Y-99199170D01*
X104447219Y-99188134D01*
X104429976Y-99175346D01*
X104414070Y-99160930D01*
X104399654Y-99145024D01*
X104386866Y-99127781D01*
X104375830Y-99109368D01*
X104366651Y-99089962D01*
X104359419Y-99069750D01*
X104354203Y-99048926D01*
X104351053Y-99027691D01*
X104350000Y-99006250D01*
X104350000Y-98493750D01*
X104351053Y-98472309D01*
X104354203Y-98451074D01*
X104359419Y-98430250D01*
X104366651Y-98410038D01*
X104375830Y-98390632D01*
X104386866Y-98372219D01*
X104399654Y-98354976D01*
X104414070Y-98339070D01*
X104429976Y-98324654D01*
X104447219Y-98311866D01*
X104465632Y-98300830D01*
X104485038Y-98291651D01*
X104505250Y-98284419D01*
X104526074Y-98279203D01*
X104547309Y-98276053D01*
X104568750Y-98275000D01*
X105006250Y-98275000D01*
X105027691Y-98276053D01*
X105027691Y-98276053D01*
G37*
D14*
X104787500Y-98750000D03*
D10*
G36*
X103452691Y-98276053D02*
G01*
X103473926Y-98279203D01*
X103494750Y-98284419D01*
X103514962Y-98291651D01*
X103534368Y-98300830D01*
X103552781Y-98311866D01*
X103570024Y-98324654D01*
X103585930Y-98339070D01*
X103600346Y-98354976D01*
X103613134Y-98372219D01*
X103624170Y-98390632D01*
X103633349Y-98410038D01*
X103640581Y-98430250D01*
X103645797Y-98451074D01*
X103648947Y-98472309D01*
X103650000Y-98493750D01*
X103650000Y-99006250D01*
X103648947Y-99027691D01*
X103645797Y-99048926D01*
X103640581Y-99069750D01*
X103633349Y-99089962D01*
X103624170Y-99109368D01*
X103613134Y-99127781D01*
X103600346Y-99145024D01*
X103585930Y-99160930D01*
X103570024Y-99175346D01*
X103552781Y-99188134D01*
X103534368Y-99199170D01*
X103514962Y-99208349D01*
X103494750Y-99215581D01*
X103473926Y-99220797D01*
X103452691Y-99223947D01*
X103431250Y-99225000D01*
X102993750Y-99225000D01*
X102972309Y-99223947D01*
X102951074Y-99220797D01*
X102930250Y-99215581D01*
X102910038Y-99208349D01*
X102890632Y-99199170D01*
X102872219Y-99188134D01*
X102854976Y-99175346D01*
X102839070Y-99160930D01*
X102824654Y-99145024D01*
X102811866Y-99127781D01*
X102800830Y-99109368D01*
X102791651Y-99089962D01*
X102784419Y-99069750D01*
X102779203Y-99048926D01*
X102776053Y-99027691D01*
X102775000Y-99006250D01*
X102775000Y-98493750D01*
X102776053Y-98472309D01*
X102779203Y-98451074D01*
X102784419Y-98430250D01*
X102791651Y-98410038D01*
X102800830Y-98390632D01*
X102811866Y-98372219D01*
X102824654Y-98354976D01*
X102839070Y-98339070D01*
X102854976Y-98324654D01*
X102872219Y-98311866D01*
X102890632Y-98300830D01*
X102910038Y-98291651D01*
X102930250Y-98284419D01*
X102951074Y-98279203D01*
X102972309Y-98276053D01*
X102993750Y-98275000D01*
X103431250Y-98275000D01*
X103452691Y-98276053D01*
X103452691Y-98276053D01*
G37*
D14*
X103212500Y-98750000D03*
D10*
G36*
X102952691Y-86276053D02*
G01*
X102973926Y-86279203D01*
X102994750Y-86284419D01*
X103014962Y-86291651D01*
X103034368Y-86300830D01*
X103052781Y-86311866D01*
X103070024Y-86324654D01*
X103085930Y-86339070D01*
X103100346Y-86354976D01*
X103113134Y-86372219D01*
X103124170Y-86390632D01*
X103133349Y-86410038D01*
X103140581Y-86430250D01*
X103145797Y-86451074D01*
X103148947Y-86472309D01*
X103150000Y-86493750D01*
X103150000Y-87006250D01*
X103148947Y-87027691D01*
X103145797Y-87048926D01*
X103140581Y-87069750D01*
X103133349Y-87089962D01*
X103124170Y-87109368D01*
X103113134Y-87127781D01*
X103100346Y-87145024D01*
X103085930Y-87160930D01*
X103070024Y-87175346D01*
X103052781Y-87188134D01*
X103034368Y-87199170D01*
X103014962Y-87208349D01*
X102994750Y-87215581D01*
X102973926Y-87220797D01*
X102952691Y-87223947D01*
X102931250Y-87225000D01*
X102493750Y-87225000D01*
X102472309Y-87223947D01*
X102451074Y-87220797D01*
X102430250Y-87215581D01*
X102410038Y-87208349D01*
X102390632Y-87199170D01*
X102372219Y-87188134D01*
X102354976Y-87175346D01*
X102339070Y-87160930D01*
X102324654Y-87145024D01*
X102311866Y-87127781D01*
X102300830Y-87109368D01*
X102291651Y-87089962D01*
X102284419Y-87069750D01*
X102279203Y-87048926D01*
X102276053Y-87027691D01*
X102275000Y-87006250D01*
X102275000Y-86493750D01*
X102276053Y-86472309D01*
X102279203Y-86451074D01*
X102284419Y-86430250D01*
X102291651Y-86410038D01*
X102300830Y-86390632D01*
X102311866Y-86372219D01*
X102324654Y-86354976D01*
X102339070Y-86339070D01*
X102354976Y-86324654D01*
X102372219Y-86311866D01*
X102390632Y-86300830D01*
X102410038Y-86291651D01*
X102430250Y-86284419D01*
X102451074Y-86279203D01*
X102472309Y-86276053D01*
X102493750Y-86275000D01*
X102931250Y-86275000D01*
X102952691Y-86276053D01*
X102952691Y-86276053D01*
G37*
D14*
X102712500Y-86750000D03*
D10*
G36*
X104527691Y-86276053D02*
G01*
X104548926Y-86279203D01*
X104569750Y-86284419D01*
X104589962Y-86291651D01*
X104609368Y-86300830D01*
X104627781Y-86311866D01*
X104645024Y-86324654D01*
X104660930Y-86339070D01*
X104675346Y-86354976D01*
X104688134Y-86372219D01*
X104699170Y-86390632D01*
X104708349Y-86410038D01*
X104715581Y-86430250D01*
X104720797Y-86451074D01*
X104723947Y-86472309D01*
X104725000Y-86493750D01*
X104725000Y-87006250D01*
X104723947Y-87027691D01*
X104720797Y-87048926D01*
X104715581Y-87069750D01*
X104708349Y-87089962D01*
X104699170Y-87109368D01*
X104688134Y-87127781D01*
X104675346Y-87145024D01*
X104660930Y-87160930D01*
X104645024Y-87175346D01*
X104627781Y-87188134D01*
X104609368Y-87199170D01*
X104589962Y-87208349D01*
X104569750Y-87215581D01*
X104548926Y-87220797D01*
X104527691Y-87223947D01*
X104506250Y-87225000D01*
X104068750Y-87225000D01*
X104047309Y-87223947D01*
X104026074Y-87220797D01*
X104005250Y-87215581D01*
X103985038Y-87208349D01*
X103965632Y-87199170D01*
X103947219Y-87188134D01*
X103929976Y-87175346D01*
X103914070Y-87160930D01*
X103899654Y-87145024D01*
X103886866Y-87127781D01*
X103875830Y-87109368D01*
X103866651Y-87089962D01*
X103859419Y-87069750D01*
X103854203Y-87048926D01*
X103851053Y-87027691D01*
X103850000Y-87006250D01*
X103850000Y-86493750D01*
X103851053Y-86472309D01*
X103854203Y-86451074D01*
X103859419Y-86430250D01*
X103866651Y-86410038D01*
X103875830Y-86390632D01*
X103886866Y-86372219D01*
X103899654Y-86354976D01*
X103914070Y-86339070D01*
X103929976Y-86324654D01*
X103947219Y-86311866D01*
X103965632Y-86300830D01*
X103985038Y-86291651D01*
X104005250Y-86284419D01*
X104026074Y-86279203D01*
X104047309Y-86276053D01*
X104068750Y-86275000D01*
X104506250Y-86275000D01*
X104527691Y-86276053D01*
X104527691Y-86276053D01*
G37*
D14*
X104287500Y-86750000D03*
D15*
X124000000Y-82600000D03*
D16*
X124000000Y-80225000D03*
D17*
X116500000Y-88243200D03*
D10*
G36*
X116000000Y-88668200D02*
G01*
X115400000Y-87818200D01*
X117600000Y-87818200D01*
X117000000Y-88668200D01*
X116000000Y-88668200D01*
X116000000Y-88668200D01*
G37*
D18*
X115000000Y-84096200D03*
D19*
X116500000Y-84242700D03*
D18*
X118000000Y-84096200D03*
D20*
X116500000Y-86909700D03*
D21*
X116500000Y-85500000D03*
D10*
G36*
X116900000Y-85000000D02*
G01*
X117600000Y-86000000D01*
X115400000Y-86000000D01*
X116100000Y-85000000D01*
X116900000Y-85000000D01*
X116900000Y-85000000D01*
G37*
D22*
X106800000Y-81500000D03*
D10*
G36*
X109924504Y-80501204D02*
G01*
X109948773Y-80504804D01*
X109972571Y-80510765D01*
X109995671Y-80519030D01*
X110017849Y-80529520D01*
X110038893Y-80542133D01*
X110058598Y-80556747D01*
X110076777Y-80573223D01*
X110093253Y-80591402D01*
X110107867Y-80611107D01*
X110120480Y-80632151D01*
X110130970Y-80654329D01*
X110139235Y-80677429D01*
X110145196Y-80701227D01*
X110148796Y-80725496D01*
X110150000Y-80750000D01*
X110150000Y-82250000D01*
X110148796Y-82274504D01*
X110145196Y-82298773D01*
X110139235Y-82322571D01*
X110130970Y-82345671D01*
X110120480Y-82367849D01*
X110107867Y-82388893D01*
X110093253Y-82408598D01*
X110076777Y-82426777D01*
X110058598Y-82443253D01*
X110038893Y-82457867D01*
X110017849Y-82470480D01*
X109995671Y-82480970D01*
X109972571Y-82489235D01*
X109948773Y-82495196D01*
X109924504Y-82498796D01*
X109900000Y-82500000D01*
X108700000Y-82500000D01*
X108675496Y-82498796D01*
X108651227Y-82495196D01*
X108627429Y-82489235D01*
X108604329Y-82480970D01*
X108582151Y-82470480D01*
X108561107Y-82457867D01*
X108541402Y-82443253D01*
X108523223Y-82426777D01*
X108506747Y-82408598D01*
X108492133Y-82388893D01*
X108479520Y-82367849D01*
X108469030Y-82345671D01*
X108460765Y-82322571D01*
X108454804Y-82298773D01*
X108451204Y-82274504D01*
X108450000Y-82250000D01*
X108450000Y-80750000D01*
X108451204Y-80725496D01*
X108454804Y-80701227D01*
X108460765Y-80677429D01*
X108469030Y-80654329D01*
X108479520Y-80632151D01*
X108492133Y-80611107D01*
X108506747Y-80591402D01*
X108523223Y-80573223D01*
X108541402Y-80556747D01*
X108561107Y-80542133D01*
X108582151Y-80529520D01*
X108604329Y-80519030D01*
X108627429Y-80510765D01*
X108651227Y-80504804D01*
X108675496Y-80501204D01*
X108700000Y-80500000D01*
X109900000Y-80500000D01*
X109924504Y-80501204D01*
X109924504Y-80501204D01*
G37*
D11*
X109300000Y-81500000D03*
D10*
G36*
X125389504Y-99223204D02*
G01*
X125413773Y-99226804D01*
X125437571Y-99232765D01*
X125460671Y-99241030D01*
X125482849Y-99251520D01*
X125503893Y-99264133D01*
X125523598Y-99278747D01*
X125541777Y-99295223D01*
X125558253Y-99313402D01*
X125572867Y-99333107D01*
X125585480Y-99354151D01*
X125595970Y-99376329D01*
X125604235Y-99399429D01*
X125610196Y-99423227D01*
X125613796Y-99447496D01*
X125615000Y-99472000D01*
X125615000Y-100672000D01*
X125613796Y-100696504D01*
X125610196Y-100720773D01*
X125604235Y-100744571D01*
X125595970Y-100767671D01*
X125585480Y-100789849D01*
X125572867Y-100810893D01*
X125558253Y-100830598D01*
X125541777Y-100848777D01*
X125523598Y-100865253D01*
X125503893Y-100879867D01*
X125482849Y-100892480D01*
X125460671Y-100902970D01*
X125437571Y-100911235D01*
X125413773Y-100917196D01*
X125389504Y-100920796D01*
X125365000Y-100922000D01*
X123915000Y-100922000D01*
X123890496Y-100920796D01*
X123866227Y-100917196D01*
X123842429Y-100911235D01*
X123819329Y-100902970D01*
X123797151Y-100892480D01*
X123776107Y-100879867D01*
X123756402Y-100865253D01*
X123738223Y-100848777D01*
X123721747Y-100830598D01*
X123707133Y-100810893D01*
X123694520Y-100789849D01*
X123684030Y-100767671D01*
X123675765Y-100744571D01*
X123669804Y-100720773D01*
X123666204Y-100696504D01*
X123665000Y-100672000D01*
X123665000Y-99472000D01*
X123666204Y-99447496D01*
X123669804Y-99423227D01*
X123675765Y-99399429D01*
X123684030Y-99376329D01*
X123694520Y-99354151D01*
X123707133Y-99333107D01*
X123721747Y-99313402D01*
X123738223Y-99295223D01*
X123756402Y-99278747D01*
X123776107Y-99264133D01*
X123797151Y-99251520D01*
X123819329Y-99241030D01*
X123842429Y-99232765D01*
X123866227Y-99226804D01*
X123890496Y-99223204D01*
X123915000Y-99222000D01*
X125365000Y-99222000D01*
X125389504Y-99223204D01*
X125389504Y-99223204D01*
G37*
D11*
X124640000Y-100072000D03*
D12*
X124640000Y-97572000D03*
X124640000Y-95072000D03*
X124640000Y-92572000D03*
X124640000Y-90072000D03*
X124640000Y-87572000D03*
D10*
G36*
X118124504Y-80501204D02*
G01*
X118148773Y-80504804D01*
X118172571Y-80510765D01*
X118195671Y-80519030D01*
X118217849Y-80529520D01*
X118238893Y-80542133D01*
X118258598Y-80556747D01*
X118276777Y-80573223D01*
X118293253Y-80591402D01*
X118307867Y-80611107D01*
X118320480Y-80632151D01*
X118330970Y-80654329D01*
X118339235Y-80677429D01*
X118345196Y-80701227D01*
X118348796Y-80725496D01*
X118350000Y-80750000D01*
X118350000Y-82250000D01*
X118348796Y-82274504D01*
X118345196Y-82298773D01*
X118339235Y-82322571D01*
X118330970Y-82345671D01*
X118320480Y-82367849D01*
X118307867Y-82388893D01*
X118293253Y-82408598D01*
X118276777Y-82426777D01*
X118258598Y-82443253D01*
X118238893Y-82457867D01*
X118217849Y-82470480D01*
X118195671Y-82480970D01*
X118172571Y-82489235D01*
X118148773Y-82495196D01*
X118124504Y-82498796D01*
X118100000Y-82500000D01*
X116900000Y-82500000D01*
X116875496Y-82498796D01*
X116851227Y-82495196D01*
X116827429Y-82489235D01*
X116804329Y-82480970D01*
X116782151Y-82470480D01*
X116761107Y-82457867D01*
X116741402Y-82443253D01*
X116723223Y-82426777D01*
X116706747Y-82408598D01*
X116692133Y-82388893D01*
X116679520Y-82367849D01*
X116669030Y-82345671D01*
X116660765Y-82322571D01*
X116654804Y-82298773D01*
X116651204Y-82274504D01*
X116650000Y-82250000D01*
X116650000Y-80750000D01*
X116651204Y-80725496D01*
X116654804Y-80701227D01*
X116660765Y-80677429D01*
X116669030Y-80654329D01*
X116679520Y-80632151D01*
X116692133Y-80611107D01*
X116706747Y-80591402D01*
X116723223Y-80573223D01*
X116741402Y-80556747D01*
X116761107Y-80542133D01*
X116782151Y-80529520D01*
X116804329Y-80519030D01*
X116827429Y-80510765D01*
X116851227Y-80504804D01*
X116875496Y-80501204D01*
X116900000Y-80500000D01*
X118100000Y-80500000D01*
X118124504Y-80501204D01*
X118124504Y-80501204D01*
G37*
D11*
X117500000Y-81500000D03*
D22*
X115000000Y-81500000D03*
D23*
X124000000Y-78000000D03*
X124000000Y-75500000D03*
D24*
X112500000Y-88500000D03*
D25*
X120120000Y-106280000D03*
X112500000Y-91040000D03*
X120120000Y-103740000D03*
X112500000Y-93580000D03*
X120120000Y-101200000D03*
X112500000Y-96120000D03*
X120120000Y-98660000D03*
X112500000Y-98660000D03*
X120120000Y-96120000D03*
X112500000Y-101200000D03*
X120120000Y-93580000D03*
X112500000Y-103740000D03*
X120120000Y-91040000D03*
X112500000Y-106280000D03*
X120120000Y-88500000D03*
D10*
G36*
X110777691Y-86776053D02*
G01*
X110798926Y-86779203D01*
X110819750Y-86784419D01*
X110839962Y-86791651D01*
X110859368Y-86800830D01*
X110877781Y-86811866D01*
X110895024Y-86824654D01*
X110910930Y-86839070D01*
X110925346Y-86854976D01*
X110938134Y-86872219D01*
X110949170Y-86890632D01*
X110958349Y-86910038D01*
X110965581Y-86930250D01*
X110970797Y-86951074D01*
X110973947Y-86972309D01*
X110975000Y-86993750D01*
X110975000Y-87506250D01*
X110973947Y-87527691D01*
X110970797Y-87548926D01*
X110965581Y-87569750D01*
X110958349Y-87589962D01*
X110949170Y-87609368D01*
X110938134Y-87627781D01*
X110925346Y-87645024D01*
X110910930Y-87660930D01*
X110895024Y-87675346D01*
X110877781Y-87688134D01*
X110859368Y-87699170D01*
X110839962Y-87708349D01*
X110819750Y-87715581D01*
X110798926Y-87720797D01*
X110777691Y-87723947D01*
X110756250Y-87725000D01*
X110318750Y-87725000D01*
X110297309Y-87723947D01*
X110276074Y-87720797D01*
X110255250Y-87715581D01*
X110235038Y-87708349D01*
X110215632Y-87699170D01*
X110197219Y-87688134D01*
X110179976Y-87675346D01*
X110164070Y-87660930D01*
X110149654Y-87645024D01*
X110136866Y-87627781D01*
X110125830Y-87609368D01*
X110116651Y-87589962D01*
X110109419Y-87569750D01*
X110104203Y-87548926D01*
X110101053Y-87527691D01*
X110100000Y-87506250D01*
X110100000Y-86993750D01*
X110101053Y-86972309D01*
X110104203Y-86951074D01*
X110109419Y-86930250D01*
X110116651Y-86910038D01*
X110125830Y-86890632D01*
X110136866Y-86872219D01*
X110149654Y-86854976D01*
X110164070Y-86839070D01*
X110179976Y-86824654D01*
X110197219Y-86811866D01*
X110215632Y-86800830D01*
X110235038Y-86791651D01*
X110255250Y-86784419D01*
X110276074Y-86779203D01*
X110297309Y-86776053D01*
X110318750Y-86775000D01*
X110756250Y-86775000D01*
X110777691Y-86776053D01*
X110777691Y-86776053D01*
G37*
D14*
X110537500Y-87250000D03*
D10*
G36*
X109202691Y-86776053D02*
G01*
X109223926Y-86779203D01*
X109244750Y-86784419D01*
X109264962Y-86791651D01*
X109284368Y-86800830D01*
X109302781Y-86811866D01*
X109320024Y-86824654D01*
X109335930Y-86839070D01*
X109350346Y-86854976D01*
X109363134Y-86872219D01*
X109374170Y-86890632D01*
X109383349Y-86910038D01*
X109390581Y-86930250D01*
X109395797Y-86951074D01*
X109398947Y-86972309D01*
X109400000Y-86993750D01*
X109400000Y-87506250D01*
X109398947Y-87527691D01*
X109395797Y-87548926D01*
X109390581Y-87569750D01*
X109383349Y-87589962D01*
X109374170Y-87609368D01*
X109363134Y-87627781D01*
X109350346Y-87645024D01*
X109335930Y-87660930D01*
X109320024Y-87675346D01*
X109302781Y-87688134D01*
X109284368Y-87699170D01*
X109264962Y-87708349D01*
X109244750Y-87715581D01*
X109223926Y-87720797D01*
X109202691Y-87723947D01*
X109181250Y-87725000D01*
X108743750Y-87725000D01*
X108722309Y-87723947D01*
X108701074Y-87720797D01*
X108680250Y-87715581D01*
X108660038Y-87708349D01*
X108640632Y-87699170D01*
X108622219Y-87688134D01*
X108604976Y-87675346D01*
X108589070Y-87660930D01*
X108574654Y-87645024D01*
X108561866Y-87627781D01*
X108550830Y-87609368D01*
X108541651Y-87589962D01*
X108534419Y-87569750D01*
X108529203Y-87548926D01*
X108526053Y-87527691D01*
X108525000Y-87506250D01*
X108525000Y-86993750D01*
X108526053Y-86972309D01*
X108529203Y-86951074D01*
X108534419Y-86930250D01*
X108541651Y-86910038D01*
X108550830Y-86890632D01*
X108561866Y-86872219D01*
X108574654Y-86854976D01*
X108589070Y-86839070D01*
X108604976Y-86824654D01*
X108622219Y-86811866D01*
X108640632Y-86800830D01*
X108660038Y-86791651D01*
X108680250Y-86784419D01*
X108701074Y-86779203D01*
X108722309Y-86776053D01*
X108743750Y-86775000D01*
X109181250Y-86775000D01*
X109202691Y-86776053D01*
X109202691Y-86776053D01*
G37*
D14*
X108962500Y-87250000D03*
D10*
G36*
X108952691Y-92276053D02*
G01*
X108973926Y-92279203D01*
X108994750Y-92284419D01*
X109014962Y-92291651D01*
X109034368Y-92300830D01*
X109052781Y-92311866D01*
X109070024Y-92324654D01*
X109085930Y-92339070D01*
X109100346Y-92354976D01*
X109113134Y-92372219D01*
X109124170Y-92390632D01*
X109133349Y-92410038D01*
X109140581Y-92430250D01*
X109145797Y-92451074D01*
X109148947Y-92472309D01*
X109150000Y-92493750D01*
X109150000Y-93006250D01*
X109148947Y-93027691D01*
X109145797Y-93048926D01*
X109140581Y-93069750D01*
X109133349Y-93089962D01*
X109124170Y-93109368D01*
X109113134Y-93127781D01*
X109100346Y-93145024D01*
X109085930Y-93160930D01*
X109070024Y-93175346D01*
X109052781Y-93188134D01*
X109034368Y-93199170D01*
X109014962Y-93208349D01*
X108994750Y-93215581D01*
X108973926Y-93220797D01*
X108952691Y-93223947D01*
X108931250Y-93225000D01*
X108493750Y-93225000D01*
X108472309Y-93223947D01*
X108451074Y-93220797D01*
X108430250Y-93215581D01*
X108410038Y-93208349D01*
X108390632Y-93199170D01*
X108372219Y-93188134D01*
X108354976Y-93175346D01*
X108339070Y-93160930D01*
X108324654Y-93145024D01*
X108311866Y-93127781D01*
X108300830Y-93109368D01*
X108291651Y-93089962D01*
X108284419Y-93069750D01*
X108279203Y-93048926D01*
X108276053Y-93027691D01*
X108275000Y-93006250D01*
X108275000Y-92493750D01*
X108276053Y-92472309D01*
X108279203Y-92451074D01*
X108284419Y-92430250D01*
X108291651Y-92410038D01*
X108300830Y-92390632D01*
X108311866Y-92372219D01*
X108324654Y-92354976D01*
X108339070Y-92339070D01*
X108354976Y-92324654D01*
X108372219Y-92311866D01*
X108390632Y-92300830D01*
X108410038Y-92291651D01*
X108430250Y-92284419D01*
X108451074Y-92279203D01*
X108472309Y-92276053D01*
X108493750Y-92275000D01*
X108931250Y-92275000D01*
X108952691Y-92276053D01*
X108952691Y-92276053D01*
G37*
D14*
X108712500Y-92750000D03*
D10*
G36*
X110527691Y-92276053D02*
G01*
X110548926Y-92279203D01*
X110569750Y-92284419D01*
X110589962Y-92291651D01*
X110609368Y-92300830D01*
X110627781Y-92311866D01*
X110645024Y-92324654D01*
X110660930Y-92339070D01*
X110675346Y-92354976D01*
X110688134Y-92372219D01*
X110699170Y-92390632D01*
X110708349Y-92410038D01*
X110715581Y-92430250D01*
X110720797Y-92451074D01*
X110723947Y-92472309D01*
X110725000Y-92493750D01*
X110725000Y-93006250D01*
X110723947Y-93027691D01*
X110720797Y-93048926D01*
X110715581Y-93069750D01*
X110708349Y-93089962D01*
X110699170Y-93109368D01*
X110688134Y-93127781D01*
X110675346Y-93145024D01*
X110660930Y-93160930D01*
X110645024Y-93175346D01*
X110627781Y-93188134D01*
X110609368Y-93199170D01*
X110589962Y-93208349D01*
X110569750Y-93215581D01*
X110548926Y-93220797D01*
X110527691Y-93223947D01*
X110506250Y-93225000D01*
X110068750Y-93225000D01*
X110047309Y-93223947D01*
X110026074Y-93220797D01*
X110005250Y-93215581D01*
X109985038Y-93208349D01*
X109965632Y-93199170D01*
X109947219Y-93188134D01*
X109929976Y-93175346D01*
X109914070Y-93160930D01*
X109899654Y-93145024D01*
X109886866Y-93127781D01*
X109875830Y-93109368D01*
X109866651Y-93089962D01*
X109859419Y-93069750D01*
X109854203Y-93048926D01*
X109851053Y-93027691D01*
X109850000Y-93006250D01*
X109850000Y-92493750D01*
X109851053Y-92472309D01*
X109854203Y-92451074D01*
X109859419Y-92430250D01*
X109866651Y-92410038D01*
X109875830Y-92390632D01*
X109886866Y-92372219D01*
X109899654Y-92354976D01*
X109914070Y-92339070D01*
X109929976Y-92324654D01*
X109947219Y-92311866D01*
X109965632Y-92300830D01*
X109985038Y-92291651D01*
X110005250Y-92284419D01*
X110026074Y-92279203D01*
X110047309Y-92276053D01*
X110068750Y-92275000D01*
X110506250Y-92275000D01*
X110527691Y-92276053D01*
X110527691Y-92276053D01*
G37*
D14*
X110287500Y-92750000D03*
D10*
G36*
X110527691Y-98276053D02*
G01*
X110548926Y-98279203D01*
X110569750Y-98284419D01*
X110589962Y-98291651D01*
X110609368Y-98300830D01*
X110627781Y-98311866D01*
X110645024Y-98324654D01*
X110660930Y-98339070D01*
X110675346Y-98354976D01*
X110688134Y-98372219D01*
X110699170Y-98390632D01*
X110708349Y-98410038D01*
X110715581Y-98430250D01*
X110720797Y-98451074D01*
X110723947Y-98472309D01*
X110725000Y-98493750D01*
X110725000Y-99006250D01*
X110723947Y-99027691D01*
X110720797Y-99048926D01*
X110715581Y-99069750D01*
X110708349Y-99089962D01*
X110699170Y-99109368D01*
X110688134Y-99127781D01*
X110675346Y-99145024D01*
X110660930Y-99160930D01*
X110645024Y-99175346D01*
X110627781Y-99188134D01*
X110609368Y-99199170D01*
X110589962Y-99208349D01*
X110569750Y-99215581D01*
X110548926Y-99220797D01*
X110527691Y-99223947D01*
X110506250Y-99225000D01*
X110068750Y-99225000D01*
X110047309Y-99223947D01*
X110026074Y-99220797D01*
X110005250Y-99215581D01*
X109985038Y-99208349D01*
X109965632Y-99199170D01*
X109947219Y-99188134D01*
X109929976Y-99175346D01*
X109914070Y-99160930D01*
X109899654Y-99145024D01*
X109886866Y-99127781D01*
X109875830Y-99109368D01*
X109866651Y-99089962D01*
X109859419Y-99069750D01*
X109854203Y-99048926D01*
X109851053Y-99027691D01*
X109850000Y-99006250D01*
X109850000Y-98493750D01*
X109851053Y-98472309D01*
X109854203Y-98451074D01*
X109859419Y-98430250D01*
X109866651Y-98410038D01*
X109875830Y-98390632D01*
X109886866Y-98372219D01*
X109899654Y-98354976D01*
X109914070Y-98339070D01*
X109929976Y-98324654D01*
X109947219Y-98311866D01*
X109965632Y-98300830D01*
X109985038Y-98291651D01*
X110005250Y-98284419D01*
X110026074Y-98279203D01*
X110047309Y-98276053D01*
X110068750Y-98275000D01*
X110506250Y-98275000D01*
X110527691Y-98276053D01*
X110527691Y-98276053D01*
G37*
D14*
X110287500Y-98750000D03*
D10*
G36*
X108952691Y-98276053D02*
G01*
X108973926Y-98279203D01*
X108994750Y-98284419D01*
X109014962Y-98291651D01*
X109034368Y-98300830D01*
X109052781Y-98311866D01*
X109070024Y-98324654D01*
X109085930Y-98339070D01*
X109100346Y-98354976D01*
X109113134Y-98372219D01*
X109124170Y-98390632D01*
X109133349Y-98410038D01*
X109140581Y-98430250D01*
X109145797Y-98451074D01*
X109148947Y-98472309D01*
X109150000Y-98493750D01*
X109150000Y-99006250D01*
X109148947Y-99027691D01*
X109145797Y-99048926D01*
X109140581Y-99069750D01*
X109133349Y-99089962D01*
X109124170Y-99109368D01*
X109113134Y-99127781D01*
X109100346Y-99145024D01*
X109085930Y-99160930D01*
X109070024Y-99175346D01*
X109052781Y-99188134D01*
X109034368Y-99199170D01*
X109014962Y-99208349D01*
X108994750Y-99215581D01*
X108973926Y-99220797D01*
X108952691Y-99223947D01*
X108931250Y-99225000D01*
X108493750Y-99225000D01*
X108472309Y-99223947D01*
X108451074Y-99220797D01*
X108430250Y-99215581D01*
X108410038Y-99208349D01*
X108390632Y-99199170D01*
X108372219Y-99188134D01*
X108354976Y-99175346D01*
X108339070Y-99160930D01*
X108324654Y-99145024D01*
X108311866Y-99127781D01*
X108300830Y-99109368D01*
X108291651Y-99089962D01*
X108284419Y-99069750D01*
X108279203Y-99048926D01*
X108276053Y-99027691D01*
X108275000Y-99006250D01*
X108275000Y-98493750D01*
X108276053Y-98472309D01*
X108279203Y-98451074D01*
X108284419Y-98430250D01*
X108291651Y-98410038D01*
X108300830Y-98390632D01*
X108311866Y-98372219D01*
X108324654Y-98354976D01*
X108339070Y-98339070D01*
X108354976Y-98324654D01*
X108372219Y-98311866D01*
X108390632Y-98300830D01*
X108410038Y-98291651D01*
X108430250Y-98284419D01*
X108451074Y-98279203D01*
X108472309Y-98276053D01*
X108493750Y-98275000D01*
X108931250Y-98275000D01*
X108952691Y-98276053D01*
X108952691Y-98276053D01*
G37*
D14*
X108712500Y-98750000D03*
D26*
X131000000Y-75000000D03*
X131000000Y-106000000D03*
X100000000Y-106000000D03*
D27*
X103250000Y-104000000D03*
X104500000Y-108250000D03*
X104750000Y-105750000D03*
X104750000Y-102750000D03*
X104750000Y-97750000D03*
X104750000Y-96750000D03*
X104750000Y-93750000D03*
X104750000Y-91750000D03*
X104750000Y-90750000D03*
X97750000Y-86750000D03*
X97750000Y-90250000D03*
X97750000Y-93750000D03*
X97750000Y-100750000D03*
X97750000Y-103000000D03*
X99750000Y-102250000D03*
X97750000Y-97250000D03*
X104750000Y-99750000D03*
X124000000Y-82600000D03*
D28*
X120537500Y-86250000D03*
D27*
X108287500Y-106750000D03*
X106030000Y-101110000D03*
X102750000Y-97250000D03*
D28*
X121750000Y-92630000D03*
D27*
X98000000Y-82750000D03*
X98000000Y-79250000D03*
X98000000Y-75750000D03*
X100750000Y-72750000D03*
X104000000Y-72750000D03*
X108000000Y-72750000D03*
X112000000Y-72750000D03*
X116000000Y-72750000D03*
X120000000Y-72750000D03*
X124000000Y-72750000D03*
X128000000Y-72750000D03*
X127250000Y-75750000D03*
X129250000Y-78250000D03*
X133250000Y-78000000D03*
X133250000Y-82000000D03*
X133250000Y-86000000D03*
X133250000Y-90000000D03*
X133250000Y-94000000D03*
X133250000Y-98000000D03*
X133250000Y-102500000D03*
X130500000Y-102250000D03*
X128000000Y-103500000D03*
X127250000Y-106250000D03*
X128000000Y-108250000D03*
X124750000Y-108250000D03*
X121000000Y-108250000D03*
X113500000Y-108250000D03*
X110250000Y-108250000D03*
X110250000Y-105750000D03*
X108500000Y-102500000D03*
X108500000Y-100000000D03*
X108500000Y-97500000D03*
X108500000Y-94000000D03*
X114750000Y-93500000D03*
X117500000Y-90500000D03*
X118500000Y-88500000D03*
X113250000Y-87000000D03*
X111750000Y-87000000D03*
X108500000Y-86000000D03*
X108500000Y-83000000D03*
X105750000Y-83000000D03*
X101750000Y-83000000D03*
X108250000Y-80000000D03*
X111000000Y-80000000D03*
X113750000Y-80000000D03*
X113750000Y-82750000D03*
X116500000Y-79750000D03*
X119250000Y-79750000D03*
X122500000Y-79250000D03*
X122500000Y-81500000D03*
X122500000Y-83750000D03*
X122500000Y-76750000D03*
X125750000Y-78250000D03*
X125750000Y-80500000D03*
X125750000Y-82000000D03*
X119250000Y-77250000D03*
X116500000Y-77250000D03*
X113750000Y-77250000D03*
X111000000Y-77250000D03*
X108250000Y-77250000D03*
X105500000Y-80250000D03*
X118750000Y-85750000D03*
X123250000Y-102250000D03*
X126250000Y-101750000D03*
X126250000Y-86250000D03*
X123250000Y-86250000D03*
X123250000Y-89000000D03*
X121500000Y-105000000D03*
X114750000Y-105250000D03*
X117500000Y-105250000D03*
X117500000Y-102500000D03*
X114750000Y-102500000D03*
X114750000Y-99750000D03*
X117500000Y-99750000D03*
X117500000Y-96750000D03*
X114750000Y-96750000D03*
X117500000Y-93500000D03*
X110250000Y-103250000D03*
X117250000Y-108250000D03*
X126250000Y-89000000D03*
X126250000Y-91500000D03*
X126250000Y-94000000D03*
X126250000Y-96500000D03*
X126250000Y-99000000D03*
D28*
X113037500Y-85250000D03*
D27*
X110537500Y-87250000D03*
X110287500Y-92750000D03*
X110287500Y-98750000D03*
X110050000Y-94615000D03*
X110050000Y-100615000D03*
X110050000Y-88615000D03*
D29*
X121437500Y-82600000D02*
X120000000Y-84037500D01*
X124000000Y-82600000D02*
X121437500Y-82600000D01*
X118058700Y-84037500D02*
X118000000Y-84096200D01*
X120000000Y-84037500D02*
X118058700Y-84037500D01*
D30*
X120000000Y-85712500D02*
X120537500Y-86250000D01*
X120000000Y-84037500D02*
X120000000Y-85712500D01*
X120120000Y-88500000D02*
X118500000Y-90120000D01*
X118500000Y-104660000D02*
X120120000Y-106280000D01*
X118500000Y-90120000D02*
X118500000Y-104660000D01*
D31*
X106038750Y-104501250D02*
X106038750Y-101428750D01*
X106038750Y-104501250D02*
X108287500Y-106750000D01*
X106030000Y-101110000D02*
X106038750Y-101118750D01*
X106038750Y-101118750D02*
X106038750Y-101428750D01*
X102750000Y-97250000D02*
X102250000Y-97750000D01*
X102925000Y-101885000D02*
X103450000Y-101885000D01*
X102250000Y-101210000D02*
X102925000Y-101885000D01*
X102250000Y-97750000D02*
X102250000Y-101210000D01*
X102300000Y-95885000D02*
X103450000Y-95885000D01*
X102010000Y-95885000D02*
X102300000Y-95885000D01*
X100875000Y-94750000D02*
X102010000Y-95885000D01*
X100750000Y-94750000D02*
X100875000Y-94750000D01*
X103315000Y-89750000D02*
X103450000Y-89885000D01*
X100750000Y-89750000D02*
X103315000Y-89750000D01*
D30*
X120120000Y-91040000D02*
X121790000Y-91040000D01*
X121790000Y-91040000D02*
X122750000Y-92000000D01*
X122750000Y-98182000D02*
X124640000Y-100072000D01*
X122750000Y-92000000D02*
X122750000Y-98182000D01*
X120120000Y-101200000D02*
X121750000Y-99570000D01*
X121750000Y-99570000D02*
X121750000Y-92630000D01*
D29*
X113383700Y-84096200D02*
X113287500Y-84000000D01*
X115000000Y-84096200D02*
X113383700Y-84096200D01*
X113287500Y-84000000D02*
X113287500Y-85000000D01*
X113287500Y-85000000D02*
X113037500Y-85250000D01*
X114350000Y-84746200D02*
X114350000Y-88462500D01*
X115000000Y-84096200D02*
X114350000Y-84746200D01*
X112537500Y-88462500D02*
X112500000Y-88500000D01*
X114350000Y-88462500D02*
X112537500Y-88462500D01*
X112500000Y-88500000D02*
X112500000Y-91040000D01*
X111115000Y-89885000D02*
X112500000Y-88500000D01*
X110050000Y-89885000D02*
X111115000Y-89885000D01*
X113750001Y-94219999D02*
X113220000Y-94750000D01*
X112500000Y-91040000D02*
X113750001Y-92290001D01*
X113750001Y-92290001D02*
X113750001Y-94219999D01*
X110884998Y-95885000D02*
X110050000Y-95885000D01*
X111899999Y-94869999D02*
X110884998Y-95885000D01*
X113060003Y-94869999D02*
X111899999Y-94869999D01*
X113180002Y-94750000D02*
X113060003Y-94869999D01*
X113220000Y-94750000D02*
X113180002Y-94750000D01*
X111400000Y-101885000D02*
X110050000Y-101885000D01*
X111965001Y-102450001D02*
X111400000Y-101885000D01*
X113100001Y-102450001D02*
X111965001Y-102450001D01*
X113750001Y-101800001D02*
X113100001Y-102450001D01*
X113750001Y-94219999D02*
X113750001Y-101800001D01*
X113750001Y-105029999D02*
X112500000Y-106280000D01*
X113750001Y-101800001D02*
X113750001Y-105029999D01*
D31*
X103450000Y-92987500D02*
X103212500Y-92750000D01*
X103450000Y-94615000D02*
X103450000Y-92987500D01*
X103450000Y-98987500D02*
X103212500Y-98750000D01*
X103450000Y-100615000D02*
X103450000Y-98987500D01*
X103450000Y-87487500D02*
X102712500Y-86750000D01*
X103450000Y-88615000D02*
X103450000Y-87487500D01*
D32*
X115000000Y-79500000D02*
X115000000Y-81500000D01*
X114000000Y-78500000D02*
X115000000Y-79500000D01*
X121000000Y-78500000D02*
X121500000Y-78000000D01*
X114000000Y-78500000D02*
X121000000Y-78500000D01*
X121500000Y-78000000D02*
X124000000Y-78000000D01*
X124000000Y-78000000D02*
X124000000Y-80225000D01*
X107800000Y-78500000D02*
X114000000Y-78500000D01*
X106800000Y-79500000D02*
X107800000Y-78500000D01*
X106800000Y-81500000D02*
X106800000Y-79500000D01*
D31*
X110050000Y-94087500D02*
X108712500Y-92750000D01*
X110050000Y-94615000D02*
X110050000Y-94087500D01*
X110050000Y-100087500D02*
X108712500Y-98750000D01*
X110050000Y-100615000D02*
X110050000Y-100087500D01*
X110050000Y-88337500D02*
X108962500Y-87250000D01*
X110050000Y-88615000D02*
X110050000Y-88337500D01*
D33*
G36*
X101845934Y-86493750D02*
G01*
X101845934Y-87006250D01*
X101858382Y-87132633D01*
X101895246Y-87254158D01*
X101955111Y-87366157D01*
X102035675Y-87464325D01*
X102133843Y-87544889D01*
X102245842Y-87604754D01*
X102367367Y-87641618D01*
X102493750Y-87654066D01*
X102800565Y-87654066D01*
X102873001Y-87726502D01*
X102873001Y-87860934D01*
X102600000Y-87860934D01*
X102516293Y-87869178D01*
X102435804Y-87893595D01*
X102361624Y-87933245D01*
X102296605Y-87986605D01*
X102243245Y-88051624D01*
X102203595Y-88125804D01*
X102179178Y-88206293D01*
X102170934Y-88290000D01*
X102170934Y-88940000D01*
X102179178Y-89023707D01*
X102203595Y-89104196D01*
X102240371Y-89173000D01*
X102014562Y-89173000D01*
X101941924Y-89037104D01*
X101782344Y-88842656D01*
X101587896Y-88683076D01*
X101366051Y-88564498D01*
X101125336Y-88491478D01*
X100937726Y-88473000D01*
X100562274Y-88473000D01*
X100374664Y-88491478D01*
X100133949Y-88564498D01*
X99912104Y-88683076D01*
X99717656Y-88842656D01*
X99558076Y-89037104D01*
X99439498Y-89258949D01*
X99366478Y-89499664D01*
X99341822Y-89750000D01*
X99366478Y-90000336D01*
X99439498Y-90241051D01*
X99558076Y-90462896D01*
X99717656Y-90657344D01*
X99912104Y-90816924D01*
X100133949Y-90935502D01*
X100346571Y-91000000D01*
X100133949Y-91064498D01*
X99912104Y-91183076D01*
X99717656Y-91342656D01*
X99558076Y-91537104D01*
X99439498Y-91758949D01*
X99366478Y-91999664D01*
X99341822Y-92250000D01*
X99366478Y-92500336D01*
X99439498Y-92741051D01*
X99558076Y-92962896D01*
X99717656Y-93157344D01*
X99912104Y-93316924D01*
X100133949Y-93435502D01*
X100346571Y-93500000D01*
X100133949Y-93564498D01*
X99912104Y-93683076D01*
X99717656Y-93842656D01*
X99558076Y-94037104D01*
X99439498Y-94258949D01*
X99366478Y-94499664D01*
X99341822Y-94750000D01*
X99366478Y-95000336D01*
X99439498Y-95241051D01*
X99558076Y-95462896D01*
X99717656Y-95657344D01*
X99912104Y-95816924D01*
X100133949Y-95935502D01*
X100346571Y-96000000D01*
X100133949Y-96064498D01*
X99912104Y-96183076D01*
X99717656Y-96342656D01*
X99558076Y-96537104D01*
X99439498Y-96758949D01*
X99366478Y-96999664D01*
X99341822Y-97250000D01*
X99366478Y-97500336D01*
X99439498Y-97741051D01*
X99558076Y-97962896D01*
X99717656Y-98157344D01*
X99912104Y-98316924D01*
X100133949Y-98435502D01*
X100346571Y-98500000D01*
X100133949Y-98564498D01*
X99912104Y-98683076D01*
X99717656Y-98842656D01*
X99558076Y-99037104D01*
X99439498Y-99258949D01*
X99366478Y-99499664D01*
X99341822Y-99750000D01*
X99366478Y-100000336D01*
X99439498Y-100241051D01*
X99558076Y-100462896D01*
X99717656Y-100657344D01*
X99912104Y-100816924D01*
X100133949Y-100935502D01*
X100374664Y-101008522D01*
X100562274Y-101027000D01*
X100937726Y-101027000D01*
X101125336Y-101008522D01*
X101366051Y-100935502D01*
X101587896Y-100816924D01*
X101673001Y-100747080D01*
X101673001Y-101181659D01*
X101670210Y-101210000D01*
X101681349Y-101323111D01*
X101714344Y-101431876D01*
X101767922Y-101532115D01*
X101790807Y-101560000D01*
X101821963Y-101597964D01*
X101821966Y-101597967D01*
X101840027Y-101619974D01*
X101862033Y-101638034D01*
X102170934Y-101946935D01*
X102170934Y-102210000D01*
X102179178Y-102293707D01*
X102203595Y-102374196D01*
X102243245Y-102448376D01*
X102296605Y-102513395D01*
X102361624Y-102566755D01*
X102435804Y-102606405D01*
X102516293Y-102630822D01*
X102600000Y-102639066D01*
X104300000Y-102639066D01*
X104383707Y-102630822D01*
X104464196Y-102606405D01*
X104538376Y-102566755D01*
X104603395Y-102513395D01*
X104656755Y-102448376D01*
X104696405Y-102374196D01*
X104720822Y-102293707D01*
X104729066Y-102210000D01*
X104729066Y-101560000D01*
X104720822Y-101476293D01*
X104696405Y-101395804D01*
X104656755Y-101321624D01*
X104603395Y-101256605D01*
X104595347Y-101250000D01*
X104603395Y-101243395D01*
X104656755Y-101178376D01*
X104696405Y-101104196D01*
X104720822Y-101023707D01*
X104729066Y-100940000D01*
X104729066Y-100290000D01*
X104720822Y-100206293D01*
X104696405Y-100125804D01*
X104656755Y-100051624D01*
X104603395Y-99986605D01*
X104538376Y-99933245D01*
X104464196Y-99893595D01*
X104383707Y-99869178D01*
X104300000Y-99860934D01*
X104027000Y-99860934D01*
X104027000Y-99259310D01*
X104029754Y-99254158D01*
X104066618Y-99132633D01*
X104079066Y-99006250D01*
X104079066Y-98493750D01*
X104066618Y-98367367D01*
X104029754Y-98245842D01*
X103969889Y-98133843D01*
X103889325Y-98035675D01*
X103791157Y-97955111D01*
X103679158Y-97895246D01*
X103557633Y-97858382D01*
X103431250Y-97845934D01*
X103166688Y-97845934D01*
X103213436Y-97814698D01*
X103314698Y-97713436D01*
X103394259Y-97594364D01*
X103449062Y-97462058D01*
X103477000Y-97321603D01*
X103477000Y-97178397D01*
X103449062Y-97037942D01*
X103394259Y-96905636D01*
X103314698Y-96786564D01*
X103213436Y-96685302D01*
X103144239Y-96639066D01*
X104300000Y-96639066D01*
X104383707Y-96630822D01*
X104464196Y-96606405D01*
X104538376Y-96566755D01*
X104603395Y-96513395D01*
X104656755Y-96448376D01*
X104696405Y-96374196D01*
X104720822Y-96293707D01*
X104729066Y-96210000D01*
X104729066Y-95560000D01*
X104720822Y-95476293D01*
X104696405Y-95395804D01*
X104656755Y-95321624D01*
X104603395Y-95256605D01*
X104595347Y-95250000D01*
X104603395Y-95243395D01*
X104656755Y-95178376D01*
X104696405Y-95104196D01*
X104720822Y-95023707D01*
X104729066Y-94940000D01*
X104729066Y-94290000D01*
X104720822Y-94206293D01*
X104696405Y-94125804D01*
X104656755Y-94051624D01*
X104603395Y-93986605D01*
X104538376Y-93933245D01*
X104464196Y-93893595D01*
X104383707Y-93869178D01*
X104300000Y-93860934D01*
X104027000Y-93860934D01*
X104027000Y-93259310D01*
X104029754Y-93254158D01*
X104066618Y-93132633D01*
X104079066Y-93006250D01*
X104079066Y-92493750D01*
X104066618Y-92367367D01*
X104029754Y-92245842D01*
X103969889Y-92133843D01*
X103889325Y-92035675D01*
X103791157Y-91955111D01*
X103679158Y-91895246D01*
X103557633Y-91858382D01*
X103431250Y-91845934D01*
X102993750Y-91845934D01*
X102867367Y-91858382D01*
X102745842Y-91895246D01*
X102633843Y-91955111D01*
X102535675Y-92035675D01*
X102455111Y-92133843D01*
X102395246Y-92245842D01*
X102358382Y-92367367D01*
X102345934Y-92493750D01*
X102345934Y-93006250D01*
X102358382Y-93132633D01*
X102395246Y-93254158D01*
X102455111Y-93366157D01*
X102535675Y-93464325D01*
X102633843Y-93544889D01*
X102745842Y-93604754D01*
X102867367Y-93641618D01*
X102873001Y-93642173D01*
X102873000Y-93860934D01*
X102600000Y-93860934D01*
X102516293Y-93869178D01*
X102435804Y-93893595D01*
X102361624Y-93933245D01*
X102296605Y-93986605D01*
X102243245Y-94051624D01*
X102203595Y-94125804D01*
X102179178Y-94206293D01*
X102170934Y-94290000D01*
X102170934Y-94940000D01*
X102179178Y-95023707D01*
X102203595Y-95104196D01*
X102243245Y-95178376D01*
X102296605Y-95243395D01*
X102304653Y-95250000D01*
X102296605Y-95256605D01*
X102254426Y-95308000D01*
X102249001Y-95308000D01*
X102088792Y-95147791D01*
X102133522Y-95000336D01*
X102158178Y-94750000D01*
X102133522Y-94499664D01*
X102060502Y-94258949D01*
X101941924Y-94037104D01*
X101782344Y-93842656D01*
X101587896Y-93683076D01*
X101366051Y-93564498D01*
X101153429Y-93500000D01*
X101366051Y-93435502D01*
X101587896Y-93316924D01*
X101782344Y-93157344D01*
X101941924Y-92962896D01*
X102060502Y-92741051D01*
X102133522Y-92500336D01*
X102158178Y-92250000D01*
X102133522Y-91999664D01*
X102060502Y-91758949D01*
X101941924Y-91537104D01*
X101782344Y-91342656D01*
X101587896Y-91183076D01*
X101366051Y-91064498D01*
X101153429Y-91000000D01*
X101366051Y-90935502D01*
X101587896Y-90816924D01*
X101782344Y-90657344D01*
X101941924Y-90462896D01*
X102014562Y-90327000D01*
X102189278Y-90327000D01*
X102203595Y-90374196D01*
X102243245Y-90448376D01*
X102296605Y-90513395D01*
X102361624Y-90566755D01*
X102435804Y-90606405D01*
X102516293Y-90630822D01*
X102600000Y-90639066D01*
X104300000Y-90639066D01*
X104383707Y-90630822D01*
X104464196Y-90606405D01*
X104538376Y-90566755D01*
X104603395Y-90513395D01*
X104656755Y-90448376D01*
X104696405Y-90374196D01*
X104720822Y-90293707D01*
X104729066Y-90210000D01*
X104729066Y-89560000D01*
X104720822Y-89476293D01*
X104696405Y-89395804D01*
X104656755Y-89321624D01*
X104603395Y-89256605D01*
X104595347Y-89250000D01*
X104603395Y-89243395D01*
X104656755Y-89178376D01*
X104696405Y-89104196D01*
X104720822Y-89023707D01*
X104729066Y-88940000D01*
X104729066Y-88290000D01*
X104720822Y-88206293D01*
X104696405Y-88125804D01*
X104656755Y-88051624D01*
X104603395Y-87986605D01*
X104538376Y-87933245D01*
X104464196Y-87893595D01*
X104383707Y-87869178D01*
X104300000Y-87860934D01*
X104027000Y-87860934D01*
X104027000Y-87515839D01*
X104029791Y-87487500D01*
X104018651Y-87374388D01*
X103985657Y-87265623D01*
X103971816Y-87239728D01*
X103932079Y-87165385D01*
X103859974Y-87077526D01*
X103837962Y-87059461D01*
X103579066Y-86800565D01*
X103579066Y-86493750D01*
X103567567Y-86377000D01*
X104873000Y-86377000D01*
X104873000Y-108498000D01*
X102348510Y-108498000D01*
X102661925Y-108184585D01*
X103036968Y-107623293D01*
X103295303Y-106999619D01*
X103427000Y-106337530D01*
X103427000Y-105662470D01*
X103295303Y-105000381D01*
X103036968Y-104376707D01*
X102661925Y-103815415D01*
X102184585Y-103338075D01*
X101623293Y-102963032D01*
X100999619Y-102704697D01*
X100337530Y-102573000D01*
X99662470Y-102573000D01*
X99000381Y-102704697D01*
X98376707Y-102963032D01*
X97815415Y-103338075D01*
X97502000Y-103651490D01*
X97502000Y-86377000D01*
X101857433Y-86377000D01*
X101845934Y-86493750D01*
X101845934Y-86493750D01*
G37*
X101845934Y-86493750D02*
X101845934Y-87006250D01*
X101858382Y-87132633D01*
X101895246Y-87254158D01*
X101955111Y-87366157D01*
X102035675Y-87464325D01*
X102133843Y-87544889D01*
X102245842Y-87604754D01*
X102367367Y-87641618D01*
X102493750Y-87654066D01*
X102800565Y-87654066D01*
X102873001Y-87726502D01*
X102873001Y-87860934D01*
X102600000Y-87860934D01*
X102516293Y-87869178D01*
X102435804Y-87893595D01*
X102361624Y-87933245D01*
X102296605Y-87986605D01*
X102243245Y-88051624D01*
X102203595Y-88125804D01*
X102179178Y-88206293D01*
X102170934Y-88290000D01*
X102170934Y-88940000D01*
X102179178Y-89023707D01*
X102203595Y-89104196D01*
X102240371Y-89173000D01*
X102014562Y-89173000D01*
X101941924Y-89037104D01*
X101782344Y-88842656D01*
X101587896Y-88683076D01*
X101366051Y-88564498D01*
X101125336Y-88491478D01*
X100937726Y-88473000D01*
X100562274Y-88473000D01*
X100374664Y-88491478D01*
X100133949Y-88564498D01*
X99912104Y-88683076D01*
X99717656Y-88842656D01*
X99558076Y-89037104D01*
X99439498Y-89258949D01*
X99366478Y-89499664D01*
X99341822Y-89750000D01*
X99366478Y-90000336D01*
X99439498Y-90241051D01*
X99558076Y-90462896D01*
X99717656Y-90657344D01*
X99912104Y-90816924D01*
X100133949Y-90935502D01*
X100346571Y-91000000D01*
X100133949Y-91064498D01*
X99912104Y-91183076D01*
X99717656Y-91342656D01*
X99558076Y-91537104D01*
X99439498Y-91758949D01*
X99366478Y-91999664D01*
X99341822Y-92250000D01*
X99366478Y-92500336D01*
X99439498Y-92741051D01*
X99558076Y-92962896D01*
X99717656Y-93157344D01*
X99912104Y-93316924D01*
X100133949Y-93435502D01*
X100346571Y-93500000D01*
X100133949Y-93564498D01*
X99912104Y-93683076D01*
X99717656Y-93842656D01*
X99558076Y-94037104D01*
X99439498Y-94258949D01*
X99366478Y-94499664D01*
X99341822Y-94750000D01*
X99366478Y-95000336D01*
X99439498Y-95241051D01*
X99558076Y-95462896D01*
X99717656Y-95657344D01*
X99912104Y-95816924D01*
X100133949Y-95935502D01*
X100346571Y-96000000D01*
X100133949Y-96064498D01*
X99912104Y-96183076D01*
X99717656Y-96342656D01*
X99558076Y-96537104D01*
X99439498Y-96758949D01*
X99366478Y-96999664D01*
X99341822Y-97250000D01*
X99366478Y-97500336D01*
X99439498Y-97741051D01*
X99558076Y-97962896D01*
X99717656Y-98157344D01*
X99912104Y-98316924D01*
X100133949Y-98435502D01*
X100346571Y-98500000D01*
X100133949Y-98564498D01*
X99912104Y-98683076D01*
X99717656Y-98842656D01*
X99558076Y-99037104D01*
X99439498Y-99258949D01*
X99366478Y-99499664D01*
X99341822Y-99750000D01*
X99366478Y-100000336D01*
X99439498Y-100241051D01*
X99558076Y-100462896D01*
X99717656Y-100657344D01*
X99912104Y-100816924D01*
X100133949Y-100935502D01*
X100374664Y-101008522D01*
X100562274Y-101027000D01*
X100937726Y-101027000D01*
X101125336Y-101008522D01*
X101366051Y-100935502D01*
X101587896Y-100816924D01*
X101673001Y-100747080D01*
X101673001Y-101181659D01*
X101670210Y-101210000D01*
X101681349Y-101323111D01*
X101714344Y-101431876D01*
X101767922Y-101532115D01*
X101790807Y-101560000D01*
X101821963Y-101597964D01*
X101821966Y-101597967D01*
X101840027Y-101619974D01*
X101862033Y-101638034D01*
X102170934Y-101946935D01*
X102170934Y-102210000D01*
X102179178Y-102293707D01*
X102203595Y-102374196D01*
X102243245Y-102448376D01*
X102296605Y-102513395D01*
X102361624Y-102566755D01*
X102435804Y-102606405D01*
X102516293Y-102630822D01*
X102600000Y-102639066D01*
X104300000Y-102639066D01*
X104383707Y-102630822D01*
X104464196Y-102606405D01*
X104538376Y-102566755D01*
X104603395Y-102513395D01*
X104656755Y-102448376D01*
X104696405Y-102374196D01*
X104720822Y-102293707D01*
X104729066Y-102210000D01*
X104729066Y-101560000D01*
X104720822Y-101476293D01*
X104696405Y-101395804D01*
X104656755Y-101321624D01*
X104603395Y-101256605D01*
X104595347Y-101250000D01*
X104603395Y-101243395D01*
X104656755Y-101178376D01*
X104696405Y-101104196D01*
X104720822Y-101023707D01*
X104729066Y-100940000D01*
X104729066Y-100290000D01*
X104720822Y-100206293D01*
X104696405Y-100125804D01*
X104656755Y-100051624D01*
X104603395Y-99986605D01*
X104538376Y-99933245D01*
X104464196Y-99893595D01*
X104383707Y-99869178D01*
X104300000Y-99860934D01*
X104027000Y-99860934D01*
X104027000Y-99259310D01*
X104029754Y-99254158D01*
X104066618Y-99132633D01*
X104079066Y-99006250D01*
X104079066Y-98493750D01*
X104066618Y-98367367D01*
X104029754Y-98245842D01*
X103969889Y-98133843D01*
X103889325Y-98035675D01*
X103791157Y-97955111D01*
X103679158Y-97895246D01*
X103557633Y-97858382D01*
X103431250Y-97845934D01*
X103166688Y-97845934D01*
X103213436Y-97814698D01*
X103314698Y-97713436D01*
X103394259Y-97594364D01*
X103449062Y-97462058D01*
X103477000Y-97321603D01*
X103477000Y-97178397D01*
X103449062Y-97037942D01*
X103394259Y-96905636D01*
X103314698Y-96786564D01*
X103213436Y-96685302D01*
X103144239Y-96639066D01*
X104300000Y-96639066D01*
X104383707Y-96630822D01*
X104464196Y-96606405D01*
X104538376Y-96566755D01*
X104603395Y-96513395D01*
X104656755Y-96448376D01*
X104696405Y-96374196D01*
X104720822Y-96293707D01*
X104729066Y-96210000D01*
X104729066Y-95560000D01*
X104720822Y-95476293D01*
X104696405Y-95395804D01*
X104656755Y-95321624D01*
X104603395Y-95256605D01*
X104595347Y-95250000D01*
X104603395Y-95243395D01*
X104656755Y-95178376D01*
X104696405Y-95104196D01*
X104720822Y-95023707D01*
X104729066Y-94940000D01*
X104729066Y-94290000D01*
X104720822Y-94206293D01*
X104696405Y-94125804D01*
X104656755Y-94051624D01*
X104603395Y-93986605D01*
X104538376Y-93933245D01*
X104464196Y-93893595D01*
X104383707Y-93869178D01*
X104300000Y-93860934D01*
X104027000Y-93860934D01*
X104027000Y-93259310D01*
X104029754Y-93254158D01*
X104066618Y-93132633D01*
X104079066Y-93006250D01*
X104079066Y-92493750D01*
X104066618Y-92367367D01*
X104029754Y-92245842D01*
X103969889Y-92133843D01*
X103889325Y-92035675D01*
X103791157Y-91955111D01*
X103679158Y-91895246D01*
X103557633Y-91858382D01*
X103431250Y-91845934D01*
X102993750Y-91845934D01*
X102867367Y-91858382D01*
X102745842Y-91895246D01*
X102633843Y-91955111D01*
X102535675Y-92035675D01*
X102455111Y-92133843D01*
X102395246Y-92245842D01*
X102358382Y-92367367D01*
X102345934Y-92493750D01*
X102345934Y-93006250D01*
X102358382Y-93132633D01*
X102395246Y-93254158D01*
X102455111Y-93366157D01*
X102535675Y-93464325D01*
X102633843Y-93544889D01*
X102745842Y-93604754D01*
X102867367Y-93641618D01*
X102873001Y-93642173D01*
X102873000Y-93860934D01*
X102600000Y-93860934D01*
X102516293Y-93869178D01*
X102435804Y-93893595D01*
X102361624Y-93933245D01*
X102296605Y-93986605D01*
X102243245Y-94051624D01*
X102203595Y-94125804D01*
X102179178Y-94206293D01*
X102170934Y-94290000D01*
X102170934Y-94940000D01*
X102179178Y-95023707D01*
X102203595Y-95104196D01*
X102243245Y-95178376D01*
X102296605Y-95243395D01*
X102304653Y-95250000D01*
X102296605Y-95256605D01*
X102254426Y-95308000D01*
X102249001Y-95308000D01*
X102088792Y-95147791D01*
X102133522Y-95000336D01*
X102158178Y-94750000D01*
X102133522Y-94499664D01*
X102060502Y-94258949D01*
X101941924Y-94037104D01*
X101782344Y-93842656D01*
X101587896Y-93683076D01*
X101366051Y-93564498D01*
X101153429Y-93500000D01*
X101366051Y-93435502D01*
X101587896Y-93316924D01*
X101782344Y-93157344D01*
X101941924Y-92962896D01*
X102060502Y-92741051D01*
X102133522Y-92500336D01*
X102158178Y-92250000D01*
X102133522Y-91999664D01*
X102060502Y-91758949D01*
X101941924Y-91537104D01*
X101782344Y-91342656D01*
X101587896Y-91183076D01*
X101366051Y-91064498D01*
X101153429Y-91000000D01*
X101366051Y-90935502D01*
X101587896Y-90816924D01*
X101782344Y-90657344D01*
X101941924Y-90462896D01*
X102014562Y-90327000D01*
X102189278Y-90327000D01*
X102203595Y-90374196D01*
X102243245Y-90448376D01*
X102296605Y-90513395D01*
X102361624Y-90566755D01*
X102435804Y-90606405D01*
X102516293Y-90630822D01*
X102600000Y-90639066D01*
X104300000Y-90639066D01*
X104383707Y-90630822D01*
X104464196Y-90606405D01*
X104538376Y-90566755D01*
X104603395Y-90513395D01*
X104656755Y-90448376D01*
X104696405Y-90374196D01*
X104720822Y-90293707D01*
X104729066Y-90210000D01*
X104729066Y-89560000D01*
X104720822Y-89476293D01*
X104696405Y-89395804D01*
X104656755Y-89321624D01*
X104603395Y-89256605D01*
X104595347Y-89250000D01*
X104603395Y-89243395D01*
X104656755Y-89178376D01*
X104696405Y-89104196D01*
X104720822Y-89023707D01*
X104729066Y-88940000D01*
X104729066Y-88290000D01*
X104720822Y-88206293D01*
X104696405Y-88125804D01*
X104656755Y-88051624D01*
X104603395Y-87986605D01*
X104538376Y-87933245D01*
X104464196Y-87893595D01*
X104383707Y-87869178D01*
X104300000Y-87860934D01*
X104027000Y-87860934D01*
X104027000Y-87515839D01*
X104029791Y-87487500D01*
X104018651Y-87374388D01*
X103985657Y-87265623D01*
X103971816Y-87239728D01*
X103932079Y-87165385D01*
X103859974Y-87077526D01*
X103837962Y-87059461D01*
X103579066Y-86800565D01*
X103579066Y-86493750D01*
X103567567Y-86377000D01*
X104873000Y-86377000D01*
X104873000Y-108498000D01*
X102348510Y-108498000D01*
X102661925Y-108184585D01*
X103036968Y-107623293D01*
X103295303Y-106999619D01*
X103427000Y-106337530D01*
X103427000Y-105662470D01*
X103295303Y-105000381D01*
X103036968Y-104376707D01*
X102661925Y-103815415D01*
X102184585Y-103338075D01*
X101623293Y-102963032D01*
X100999619Y-102704697D01*
X100337530Y-102573000D01*
X99662470Y-102573000D01*
X99000381Y-102704697D01*
X98376707Y-102963032D01*
X97815415Y-103338075D01*
X97502000Y-103651490D01*
X97502000Y-86377000D01*
X101857433Y-86377000D01*
X101845934Y-86493750D01*
G36*
X128338075Y-72815415D02*
G01*
X127963032Y-73376707D01*
X127704697Y-74000381D01*
X127573000Y-74662470D01*
X127573000Y-75337530D01*
X127704697Y-75999619D01*
X127963032Y-76623293D01*
X128338075Y-77184585D01*
X128815415Y-77661925D01*
X129376707Y-78036968D01*
X130000381Y-78295303D01*
X130662470Y-78427000D01*
X131337530Y-78427000D01*
X131999619Y-78295303D01*
X132623293Y-78036968D01*
X133184585Y-77661925D01*
X133498001Y-77348509D01*
X133498000Y-103651490D01*
X133184585Y-103338075D01*
X132623293Y-102963032D01*
X131999619Y-102704697D01*
X131337530Y-102573000D01*
X130662470Y-102573000D01*
X130000381Y-102704697D01*
X129376707Y-102963032D01*
X128815415Y-103338075D01*
X128338075Y-103815415D01*
X127963032Y-104376707D01*
X127704697Y-105000381D01*
X127573000Y-105662470D01*
X127573000Y-106337530D01*
X127704697Y-106999619D01*
X127963032Y-107623293D01*
X128338075Y-108184585D01*
X128651490Y-108498000D01*
X109877000Y-108498000D01*
X109877000Y-103000000D01*
X109874560Y-102975224D01*
X109867333Y-102951399D01*
X109855597Y-102929443D01*
X109839803Y-102910197D01*
X109820557Y-102894403D01*
X109798601Y-102882667D01*
X109774776Y-102875440D01*
X109750000Y-102873000D01*
X108127000Y-102873000D01*
X108127000Y-99539273D01*
X108133843Y-99544889D01*
X108245842Y-99604754D01*
X108367367Y-99641618D01*
X108493750Y-99654066D01*
X108800565Y-99654066D01*
X109039095Y-99892596D01*
X109035804Y-99893595D01*
X108961624Y-99933245D01*
X108896605Y-99986605D01*
X108843245Y-100051624D01*
X108803595Y-100125804D01*
X108779178Y-100206293D01*
X108770934Y-100290000D01*
X108770934Y-100940000D01*
X108779178Y-101023707D01*
X108803595Y-101104196D01*
X108843245Y-101178376D01*
X108896605Y-101243395D01*
X108904653Y-101250000D01*
X108896605Y-101256605D01*
X108843245Y-101321624D01*
X108803595Y-101395804D01*
X108779178Y-101476293D01*
X108770934Y-101560000D01*
X108770934Y-102210000D01*
X108779178Y-102293707D01*
X108803595Y-102374196D01*
X108843245Y-102448376D01*
X108896605Y-102513395D01*
X108961624Y-102566755D01*
X109035804Y-102606405D01*
X109116293Y-102630822D01*
X109200000Y-102639066D01*
X110900000Y-102639066D01*
X110983707Y-102630822D01*
X111064196Y-102606405D01*
X111129225Y-102571647D01*
X111462775Y-102905197D01*
X111483974Y-102931028D01*
X111539326Y-102976455D01*
X111474851Y-103055017D01*
X111360916Y-103268176D01*
X111290755Y-103499466D01*
X111267064Y-103740000D01*
X111290755Y-103980534D01*
X111360916Y-104211824D01*
X111474851Y-104424983D01*
X111628183Y-104611817D01*
X111815017Y-104765149D01*
X112028176Y-104879084D01*
X112259466Y-104949245D01*
X112439732Y-104967000D01*
X112560268Y-104967000D01*
X112740534Y-104949245D01*
X112931158Y-104891420D01*
X112749196Y-105073382D01*
X112740534Y-105070755D01*
X112560268Y-105053000D01*
X112439732Y-105053000D01*
X112259466Y-105070755D01*
X112028176Y-105140916D01*
X111815017Y-105254851D01*
X111628183Y-105408183D01*
X111474851Y-105595017D01*
X111360916Y-105808176D01*
X111290755Y-106039466D01*
X111267064Y-106280000D01*
X111290755Y-106520534D01*
X111360916Y-106751824D01*
X111474851Y-106964983D01*
X111628183Y-107151817D01*
X111815017Y-107305149D01*
X112028176Y-107419084D01*
X112259466Y-107489245D01*
X112439732Y-107507000D01*
X112560268Y-107507000D01*
X112740534Y-107489245D01*
X112971824Y-107419084D01*
X113184983Y-107305149D01*
X113371817Y-107151817D01*
X113525149Y-106964983D01*
X113639084Y-106751824D01*
X113709245Y-106520534D01*
X113732936Y-106280000D01*
X113709245Y-106039466D01*
X113706618Y-106030804D01*
X114205197Y-105532225D01*
X114231028Y-105511026D01*
X114315629Y-105407940D01*
X114378493Y-105290329D01*
X114417205Y-105162714D01*
X114427001Y-105063251D01*
X114427001Y-105063242D01*
X114430275Y-105030000D01*
X114427001Y-104996758D01*
X114427001Y-101833253D01*
X114430276Y-101800001D01*
X114427001Y-101766749D01*
X114427001Y-94253251D01*
X114430276Y-94219999D01*
X114427001Y-94186747D01*
X114427001Y-92323242D01*
X114430275Y-92290000D01*
X114427001Y-92256758D01*
X114427001Y-92256749D01*
X114417205Y-92157286D01*
X114378493Y-92029671D01*
X114315629Y-91912060D01*
X114231027Y-91808974D01*
X114205201Y-91787779D01*
X113706618Y-91289196D01*
X113709245Y-91280534D01*
X113732936Y-91040000D01*
X113709245Y-90799466D01*
X113639084Y-90568176D01*
X113525149Y-90355017D01*
X113371817Y-90168183D01*
X113313107Y-90120000D01*
X117719241Y-90120000D01*
X117723000Y-90158163D01*
X117723001Y-104621827D01*
X117719241Y-104660000D01*
X117729598Y-104765149D01*
X117734244Y-104812319D01*
X117737595Y-104823365D01*
X117778673Y-104958783D01*
X117850823Y-105093766D01*
X117923591Y-105182434D01*
X117947921Y-105212080D01*
X117977565Y-105236408D01*
X118899087Y-106157931D01*
X118887064Y-106280000D01*
X118910755Y-106520534D01*
X118980916Y-106751824D01*
X119094851Y-106964983D01*
X119248183Y-107151817D01*
X119435017Y-107305149D01*
X119648176Y-107419084D01*
X119879466Y-107489245D01*
X120059732Y-107507000D01*
X120180268Y-107507000D01*
X120360534Y-107489245D01*
X120591824Y-107419084D01*
X120804983Y-107305149D01*
X120991817Y-107151817D01*
X121145149Y-106964983D01*
X121259084Y-106751824D01*
X121329245Y-106520534D01*
X121352936Y-106280000D01*
X121329245Y-106039466D01*
X121259084Y-105808176D01*
X121145149Y-105595017D01*
X120991817Y-105408183D01*
X120804983Y-105254851D01*
X120591824Y-105140916D01*
X120360534Y-105070755D01*
X120180268Y-105053000D01*
X120059732Y-105053000D01*
X119997931Y-105059087D01*
X119889031Y-104950187D01*
X120059732Y-104967000D01*
X120180268Y-104967000D01*
X120360534Y-104949245D01*
X120591824Y-104879084D01*
X120804983Y-104765149D01*
X120991817Y-104611817D01*
X121145149Y-104424983D01*
X121259084Y-104211824D01*
X121329245Y-103980534D01*
X121352936Y-103740000D01*
X121329245Y-103499466D01*
X121259084Y-103268176D01*
X121145149Y-103055017D01*
X120991817Y-102868183D01*
X120804983Y-102714851D01*
X120591824Y-102600916D01*
X120360534Y-102530755D01*
X120180268Y-102513000D01*
X120059732Y-102513000D01*
X119879466Y-102530755D01*
X119648176Y-102600916D01*
X119435017Y-102714851D01*
X119277000Y-102844533D01*
X119277000Y-102095467D01*
X119435017Y-102225149D01*
X119648176Y-102339084D01*
X119879466Y-102409245D01*
X120059732Y-102427000D01*
X120180268Y-102427000D01*
X120360534Y-102409245D01*
X120591824Y-102339084D01*
X120804983Y-102225149D01*
X120991817Y-102071817D01*
X121145149Y-101884983D01*
X121259084Y-101671824D01*
X121329245Y-101440534D01*
X121352936Y-101200000D01*
X121340913Y-101077930D01*
X122272437Y-100146407D01*
X122302080Y-100122080D01*
X122330459Y-100087500D01*
X122399177Y-100003767D01*
X122471327Y-99868784D01*
X122485639Y-99821603D01*
X122515757Y-99722319D01*
X122527000Y-99608166D01*
X122527000Y-99608157D01*
X122530758Y-99570001D01*
X122527000Y-99531845D01*
X122527000Y-99057843D01*
X123235934Y-99766778D01*
X123235934Y-100672000D01*
X123248982Y-100804479D01*
X123287625Y-100931867D01*
X123350377Y-101049269D01*
X123434828Y-101152172D01*
X123537731Y-101236623D01*
X123655133Y-101299375D01*
X123782521Y-101338018D01*
X123915000Y-101351066D01*
X125365000Y-101351066D01*
X125497479Y-101338018D01*
X125624867Y-101299375D01*
X125742269Y-101236623D01*
X125845172Y-101152172D01*
X125929623Y-101049269D01*
X125992375Y-100931867D01*
X126031018Y-100804479D01*
X126044066Y-100672000D01*
X126044066Y-99472000D01*
X126031018Y-99339521D01*
X125992375Y-99212133D01*
X125929623Y-99094731D01*
X125845172Y-98991828D01*
X125742269Y-98907377D01*
X125624867Y-98844625D01*
X125497479Y-98805982D01*
X125365000Y-98792934D01*
X125139247Y-98792934D01*
X125256051Y-98757502D01*
X125477896Y-98638924D01*
X125672344Y-98479344D01*
X125831924Y-98284896D01*
X125950502Y-98063051D01*
X126023522Y-97822336D01*
X126048178Y-97572000D01*
X126023522Y-97321664D01*
X125950502Y-97080949D01*
X125831924Y-96859104D01*
X125672344Y-96664656D01*
X125477896Y-96505076D01*
X125256051Y-96386498D01*
X125043429Y-96322000D01*
X125256051Y-96257502D01*
X125477896Y-96138924D01*
X125672344Y-95979344D01*
X125831924Y-95784896D01*
X125950502Y-95563051D01*
X126023522Y-95322336D01*
X126048178Y-95072000D01*
X126023522Y-94821664D01*
X125950502Y-94580949D01*
X125831924Y-94359104D01*
X125672344Y-94164656D01*
X125477896Y-94005076D01*
X125256051Y-93886498D01*
X125043429Y-93822000D01*
X125256051Y-93757502D01*
X125477896Y-93638924D01*
X125672344Y-93479344D01*
X125831924Y-93284896D01*
X125950502Y-93063051D01*
X126023522Y-92822336D01*
X126048178Y-92572000D01*
X126023522Y-92321664D01*
X125950502Y-92080949D01*
X125831924Y-91859104D01*
X125672344Y-91664656D01*
X125477896Y-91505076D01*
X125256051Y-91386498D01*
X125043429Y-91322000D01*
X125256051Y-91257502D01*
X125477896Y-91138924D01*
X125672344Y-90979344D01*
X125831924Y-90784896D01*
X125950502Y-90563051D01*
X126023522Y-90322336D01*
X126048178Y-90072000D01*
X126023522Y-89821664D01*
X125950502Y-89580949D01*
X125831924Y-89359104D01*
X125672344Y-89164656D01*
X125477896Y-89005076D01*
X125256051Y-88886498D01*
X125043429Y-88822000D01*
X125256051Y-88757502D01*
X125477896Y-88638924D01*
X125672344Y-88479344D01*
X125831924Y-88284896D01*
X125950502Y-88063051D01*
X126023522Y-87822336D01*
X126048178Y-87572000D01*
X126023522Y-87321664D01*
X125950502Y-87080949D01*
X125831924Y-86859104D01*
X125672344Y-86664656D01*
X125477896Y-86505076D01*
X125256051Y-86386498D01*
X125015336Y-86313478D01*
X124827726Y-86295000D01*
X124452274Y-86295000D01*
X124264664Y-86313478D01*
X124023949Y-86386498D01*
X123802104Y-86505076D01*
X123607656Y-86664656D01*
X123448076Y-86859104D01*
X123329498Y-87080949D01*
X123256478Y-87321664D01*
X123231822Y-87572000D01*
X123256478Y-87822336D01*
X123329498Y-88063051D01*
X123448076Y-88284896D01*
X123607656Y-88479344D01*
X123802104Y-88638924D01*
X124023949Y-88757502D01*
X124236571Y-88822000D01*
X124023949Y-88886498D01*
X123802104Y-89005076D01*
X123607656Y-89164656D01*
X123448076Y-89359104D01*
X123329498Y-89580949D01*
X123256478Y-89821664D01*
X123231822Y-90072000D01*
X123256478Y-90322336D01*
X123329498Y-90563051D01*
X123448076Y-90784896D01*
X123607656Y-90979344D01*
X123802104Y-91138924D01*
X124023949Y-91257502D01*
X124236571Y-91322000D01*
X124023949Y-91386498D01*
X123802104Y-91505076D01*
X123607656Y-91664656D01*
X123500022Y-91795808D01*
X123471327Y-91701216D01*
X123429411Y-91622797D01*
X123399177Y-91566233D01*
X123326409Y-91477565D01*
X123326408Y-91477564D01*
X123302080Y-91447920D01*
X123272437Y-91423593D01*
X122366412Y-90517569D01*
X122342080Y-90487920D01*
X122223766Y-90390823D01*
X122088784Y-90318673D01*
X121942319Y-90274243D01*
X121828166Y-90263000D01*
X121828163Y-90263000D01*
X121790000Y-90259241D01*
X121751837Y-90263000D01*
X121069632Y-90263000D01*
X120991817Y-90168183D01*
X120804983Y-90014851D01*
X120591824Y-89900916D01*
X120360534Y-89830755D01*
X120180268Y-89813000D01*
X120059732Y-89813000D01*
X119889031Y-89829813D01*
X119997931Y-89720913D01*
X120059732Y-89727000D01*
X120180268Y-89727000D01*
X120360534Y-89709245D01*
X120591824Y-89639084D01*
X120804983Y-89525149D01*
X120991817Y-89371817D01*
X121145149Y-89184983D01*
X121259084Y-88971824D01*
X121329245Y-88740534D01*
X121352936Y-88500000D01*
X121329245Y-88259466D01*
X121259084Y-88028176D01*
X121145149Y-87815017D01*
X120991817Y-87628183D01*
X120804983Y-87474851D01*
X120591824Y-87360916D01*
X120360534Y-87290755D01*
X120180268Y-87273000D01*
X120059732Y-87273000D01*
X119879466Y-87290755D01*
X119648176Y-87360916D01*
X119435017Y-87474851D01*
X119248183Y-87628183D01*
X119094851Y-87815017D01*
X118980916Y-88028176D01*
X118910755Y-88259466D01*
X118887064Y-88500000D01*
X118899087Y-88622069D01*
X117977569Y-89543588D01*
X117947920Y-89567920D01*
X117923591Y-89597566D01*
X117850823Y-89686234D01*
X117783065Y-89813000D01*
X117778673Y-89821217D01*
X117734243Y-89967682D01*
X117723000Y-90081834D01*
X117719241Y-90120000D01*
X113313107Y-90120000D01*
X113184983Y-90014851D01*
X113177000Y-90010584D01*
X113177000Y-89729066D01*
X113300000Y-89729066D01*
X113383707Y-89720822D01*
X113464196Y-89696405D01*
X113538376Y-89656755D01*
X113603395Y-89603395D01*
X113656755Y-89538376D01*
X113696405Y-89464196D01*
X113720822Y-89383707D01*
X113729066Y-89300000D01*
X113729066Y-89215969D01*
X113733843Y-89219889D01*
X113845842Y-89279754D01*
X113967367Y-89316618D01*
X114093750Y-89329066D01*
X114606250Y-89329066D01*
X114732633Y-89316618D01*
X114854158Y-89279754D01*
X114966157Y-89219889D01*
X115064325Y-89139325D01*
X115144889Y-89041157D01*
X115204754Y-88929158D01*
X115241618Y-88807633D01*
X115254066Y-88681250D01*
X115254066Y-88243750D01*
X115241618Y-88117367D01*
X115204754Y-87995842D01*
X115144889Y-87883843D01*
X115064325Y-87785675D01*
X115027000Y-87755043D01*
X115027000Y-85275266D01*
X115500000Y-85275266D01*
X115583707Y-85267022D01*
X115664196Y-85242605D01*
X115738376Y-85202955D01*
X115803395Y-85149595D01*
X115856755Y-85084576D01*
X115896405Y-85010396D01*
X115920822Y-84929907D01*
X115929066Y-84846200D01*
X115929066Y-83346200D01*
X115920822Y-83262493D01*
X115896405Y-83182004D01*
X115856755Y-83107824D01*
X115803395Y-83042805D01*
X115738376Y-82989445D01*
X115664196Y-82949795D01*
X115583707Y-82925378D01*
X115500000Y-82917134D01*
X115162896Y-82917134D01*
X115250335Y-82908522D01*
X115491050Y-82835502D01*
X115712895Y-82716924D01*
X115907344Y-82557344D01*
X116066924Y-82362896D01*
X116185502Y-82141051D01*
X116258522Y-81900336D01*
X116277000Y-81712726D01*
X116277000Y-81287275D01*
X116258522Y-81099665D01*
X116185502Y-80858950D01*
X116066924Y-80637105D01*
X115927000Y-80466607D01*
X115927000Y-79545527D01*
X115931484Y-79500000D01*
X115927000Y-79454473D01*
X115927000Y-79454462D01*
X115924295Y-79427000D01*
X120954473Y-79427000D01*
X121000000Y-79431484D01*
X121045527Y-79427000D01*
X121045538Y-79427000D01*
X121181724Y-79413587D01*
X121356464Y-79360580D01*
X121517505Y-79274501D01*
X121658659Y-79158659D01*
X121687688Y-79123287D01*
X121883975Y-78927000D01*
X123073000Y-78927000D01*
X123073001Y-79310439D01*
X123011624Y-79343245D01*
X122946605Y-79396605D01*
X122893245Y-79461624D01*
X122853595Y-79535804D01*
X122829178Y-79616293D01*
X122820934Y-79700000D01*
X122820934Y-80750000D01*
X122829178Y-80833707D01*
X122853595Y-80914196D01*
X122893245Y-80988376D01*
X122946605Y-81053395D01*
X122972931Y-81075000D01*
X122946605Y-81096605D01*
X122893245Y-81161624D01*
X122853595Y-81235804D01*
X122829178Y-81316293D01*
X122820934Y-81400000D01*
X122820934Y-81923000D01*
X121470745Y-81923000D01*
X121437500Y-81919726D01*
X121404255Y-81923000D01*
X121404248Y-81923000D01*
X121304785Y-81932796D01*
X121177170Y-81971508D01*
X121059559Y-82034372D01*
X120956473Y-82118973D01*
X120935278Y-82144799D01*
X119909144Y-83170934D01*
X119743750Y-83170934D01*
X119617367Y-83183382D01*
X119495842Y-83220246D01*
X119383843Y-83280111D01*
X119285888Y-83360500D01*
X118929066Y-83360500D01*
X118929066Y-83346200D01*
X118920822Y-83262493D01*
X118896405Y-83182004D01*
X118856755Y-83107824D01*
X118803395Y-83042805D01*
X118738376Y-82989445D01*
X118664196Y-82949795D01*
X118583707Y-82925378D01*
X118500000Y-82917134D01*
X117500000Y-82917134D01*
X117416293Y-82925378D01*
X117335804Y-82949795D01*
X117261624Y-82989445D01*
X117196605Y-83042805D01*
X117143245Y-83107824D01*
X117103595Y-83182004D01*
X117079178Y-83262493D01*
X117070934Y-83346200D01*
X117070934Y-84846200D01*
X117079178Y-84929907D01*
X117103595Y-85010396D01*
X117143245Y-85084576D01*
X117196605Y-85149595D01*
X117261624Y-85202955D01*
X117335804Y-85242605D01*
X117416293Y-85267022D01*
X117500000Y-85275266D01*
X118500000Y-85275266D01*
X118583707Y-85267022D01*
X118664196Y-85242605D01*
X118738376Y-85202955D01*
X118803395Y-85149595D01*
X118856755Y-85084576D01*
X118896405Y-85010396D01*
X118920822Y-84929907D01*
X118929066Y-84846200D01*
X118929066Y-84714500D01*
X119223000Y-84714500D01*
X119223001Y-85674327D01*
X119219241Y-85712500D01*
X119234244Y-85864818D01*
X119278673Y-86011283D01*
X119350823Y-86146266D01*
X119423591Y-86234934D01*
X119447921Y-86264580D01*
X119477565Y-86288908D01*
X119786405Y-86597748D01*
X119804623Y-86641731D01*
X119895128Y-86777181D01*
X120010319Y-86892372D01*
X120145769Y-86982877D01*
X120296273Y-87045218D01*
X120456048Y-87077000D01*
X120618952Y-87077000D01*
X120778727Y-87045218D01*
X120929231Y-86982877D01*
X121064681Y-86892372D01*
X121179872Y-86777181D01*
X121270377Y-86641731D01*
X121332718Y-86491227D01*
X121364500Y-86331452D01*
X121364500Y-86168548D01*
X121332718Y-86008773D01*
X121270377Y-85858269D01*
X121179872Y-85722819D01*
X121064681Y-85607628D01*
X120929231Y-85517123D01*
X120885248Y-85498905D01*
X120777000Y-85390657D01*
X120777000Y-84637955D01*
X120794889Y-84616157D01*
X120854754Y-84504158D01*
X120891618Y-84382633D01*
X120904066Y-84256250D01*
X120904066Y-84090856D01*
X121717923Y-83277000D01*
X122820934Y-83277000D01*
X122820934Y-83800000D01*
X122829178Y-83883707D01*
X122853595Y-83964196D01*
X122893245Y-84038376D01*
X122946605Y-84103395D01*
X123011624Y-84156755D01*
X123085804Y-84196405D01*
X123166293Y-84220822D01*
X123250000Y-84229066D01*
X124750000Y-84229066D01*
X124833707Y-84220822D01*
X124914196Y-84196405D01*
X124988376Y-84156755D01*
X125053395Y-84103395D01*
X125106755Y-84038376D01*
X125146405Y-83964196D01*
X125170822Y-83883707D01*
X125179066Y-83800000D01*
X125179066Y-81400000D01*
X125170822Y-81316293D01*
X125146405Y-81235804D01*
X125106755Y-81161624D01*
X125053395Y-81096605D01*
X125027069Y-81075000D01*
X125053395Y-81053395D01*
X125106755Y-80988376D01*
X125146405Y-80914196D01*
X125170822Y-80833707D01*
X125179066Y-80750000D01*
X125179066Y-79700000D01*
X125170822Y-79616293D01*
X125146405Y-79535804D01*
X125106755Y-79461624D01*
X125053395Y-79396605D01*
X124988376Y-79343245D01*
X124927000Y-79310439D01*
X124927000Y-78808240D01*
X124953073Y-78782167D01*
X125087353Y-78581202D01*
X125179847Y-78357903D01*
X125227000Y-78120849D01*
X125227000Y-77879151D01*
X125179847Y-77642097D01*
X125087353Y-77418798D01*
X124953073Y-77217833D01*
X124782167Y-77046927D01*
X124581202Y-76912647D01*
X124357903Y-76820153D01*
X124120849Y-76773000D01*
X123879151Y-76773000D01*
X123642097Y-76820153D01*
X123418798Y-76912647D01*
X123217833Y-77046927D01*
X123191760Y-77073000D01*
X121545527Y-77073000D01*
X121500000Y-77068516D01*
X121454473Y-77073000D01*
X121454462Y-77073000D01*
X121318276Y-77086413D01*
X121143536Y-77139420D01*
X120982495Y-77225499D01*
X120841341Y-77341341D01*
X120812312Y-77376713D01*
X120616025Y-77573000D01*
X114045527Y-77573000D01*
X114000000Y-77568516D01*
X113954473Y-77573000D01*
X107845527Y-77573000D01*
X107800000Y-77568516D01*
X107754473Y-77573000D01*
X107754462Y-77573000D01*
X107618276Y-77586413D01*
X107443536Y-77639420D01*
X107282495Y-77725498D01*
X107176712Y-77812312D01*
X107176708Y-77812316D01*
X107141341Y-77841341D01*
X107112316Y-77876708D01*
X106176708Y-78812317D01*
X106141342Y-78841341D01*
X106112317Y-78876708D01*
X106112312Y-78876713D01*
X106025499Y-78982495D01*
X105939420Y-79143537D01*
X105914102Y-79227000D01*
X105886414Y-79318276D01*
X105878699Y-79396605D01*
X105868516Y-79500000D01*
X105873001Y-79545537D01*
X105873001Y-80466607D01*
X105733076Y-80637104D01*
X105614498Y-80858949D01*
X105541478Y-81099664D01*
X105523000Y-81287274D01*
X105523000Y-81712725D01*
X105541478Y-81900335D01*
X105614498Y-82141050D01*
X105733076Y-82362895D01*
X105892656Y-82557344D01*
X106087104Y-82716924D01*
X106308949Y-82835502D01*
X106549664Y-82908522D01*
X106800000Y-82933178D01*
X107050335Y-82908522D01*
X107291050Y-82835502D01*
X107512895Y-82716924D01*
X107707344Y-82557344D01*
X107866924Y-82362896D01*
X107985502Y-82141051D01*
X108058522Y-81900336D01*
X108077000Y-81712726D01*
X108077000Y-81287275D01*
X108058522Y-81099665D01*
X107985502Y-80858950D01*
X107866924Y-80637105D01*
X107727000Y-80466607D01*
X107727000Y-79883975D01*
X108183976Y-79427000D01*
X113616025Y-79427000D01*
X114073000Y-79883976D01*
X114073000Y-80466607D01*
X113933076Y-80637104D01*
X113814498Y-80858949D01*
X113741478Y-81099664D01*
X113723000Y-81287274D01*
X113723000Y-81712725D01*
X113741478Y-81900335D01*
X113814498Y-82141050D01*
X113933076Y-82362895D01*
X114092656Y-82557344D01*
X114287104Y-82716924D01*
X114508949Y-82835502D01*
X114749664Y-82908522D01*
X114837103Y-82917134D01*
X114500000Y-82917134D01*
X114416293Y-82925378D01*
X114335804Y-82949795D01*
X114261624Y-82989445D01*
X114196605Y-83042805D01*
X114143245Y-83107824D01*
X114103595Y-83182004D01*
X114079178Y-83262493D01*
X114070934Y-83346200D01*
X114070934Y-83419200D01*
X114063788Y-83419200D01*
X114044889Y-83383843D01*
X113964325Y-83285675D01*
X113866157Y-83205111D01*
X113754158Y-83145246D01*
X113632633Y-83108382D01*
X113506250Y-83095934D01*
X113068750Y-83095934D01*
X112942367Y-83108382D01*
X112820842Y-83145246D01*
X112708843Y-83205111D01*
X112610675Y-83285675D01*
X112530111Y-83383843D01*
X112470246Y-83495842D01*
X112433382Y-83617367D01*
X112420934Y-83743750D01*
X112420934Y-84256250D01*
X112433382Y-84382633D01*
X112470246Y-84504158D01*
X112521543Y-84600128D01*
X112510319Y-84607628D01*
X112395128Y-84722819D01*
X112304623Y-84858269D01*
X112242282Y-85008773D01*
X112210500Y-85168548D01*
X112210500Y-85331452D01*
X112242282Y-85491227D01*
X112304623Y-85641731D01*
X112395128Y-85777181D01*
X112510319Y-85892372D01*
X112645769Y-85982877D01*
X112796273Y-86045218D01*
X112956048Y-86077000D01*
X113118952Y-86077000D01*
X113278727Y-86045218D01*
X113429231Y-85982877D01*
X113564681Y-85892372D01*
X113673000Y-85784053D01*
X113673001Y-87492018D01*
X113656755Y-87461624D01*
X113603395Y-87396605D01*
X113538376Y-87343245D01*
X113464196Y-87303595D01*
X113383707Y-87279178D01*
X113300000Y-87270934D01*
X111700000Y-87270934D01*
X111616293Y-87279178D01*
X111535804Y-87303595D01*
X111461624Y-87343245D01*
X111404066Y-87390482D01*
X111404066Y-86993750D01*
X111391618Y-86867367D01*
X111354754Y-86745842D01*
X111294889Y-86633843D01*
X111214325Y-86535675D01*
X111116157Y-86455111D01*
X111004158Y-86395246D01*
X110882633Y-86358382D01*
X110756250Y-86345934D01*
X110318750Y-86345934D01*
X110192367Y-86358382D01*
X110070842Y-86395246D01*
X109958843Y-86455111D01*
X109860675Y-86535675D01*
X109780111Y-86633843D01*
X109750000Y-86690176D01*
X109719889Y-86633843D01*
X109639325Y-86535675D01*
X109541157Y-86455111D01*
X109429158Y-86395246D01*
X109307633Y-86358382D01*
X109181250Y-86345934D01*
X108743750Y-86345934D01*
X108617367Y-86358382D01*
X108495842Y-86395246D01*
X108383843Y-86455111D01*
X108285675Y-86535675D01*
X108205111Y-86633843D01*
X108145246Y-86745842D01*
X108127000Y-86805991D01*
X108127000Y-83250000D01*
X108124560Y-83225224D01*
X108117333Y-83201399D01*
X108105597Y-83179443D01*
X108089803Y-83160197D01*
X108070557Y-83144403D01*
X108048601Y-83132667D01*
X108024776Y-83125440D01*
X108000000Y-83123000D01*
X97502000Y-83123000D01*
X97502000Y-75024551D01*
X97551936Y-74515269D01*
X97692709Y-74049005D01*
X97921367Y-73618960D01*
X98229200Y-73241521D01*
X98604480Y-72931061D01*
X99032918Y-72699406D01*
X99498189Y-72555379D01*
X100006059Y-72502000D01*
X128651490Y-72502000D01*
X128338075Y-72815415D01*
X128338075Y-72815415D01*
G37*
X128338075Y-72815415D02*
X127963032Y-73376707D01*
X127704697Y-74000381D01*
X127573000Y-74662470D01*
X127573000Y-75337530D01*
X127704697Y-75999619D01*
X127963032Y-76623293D01*
X128338075Y-77184585D01*
X128815415Y-77661925D01*
X129376707Y-78036968D01*
X130000381Y-78295303D01*
X130662470Y-78427000D01*
X131337530Y-78427000D01*
X131999619Y-78295303D01*
X132623293Y-78036968D01*
X133184585Y-77661925D01*
X133498001Y-77348509D01*
X133498000Y-103651490D01*
X133184585Y-103338075D01*
X132623293Y-102963032D01*
X131999619Y-102704697D01*
X131337530Y-102573000D01*
X130662470Y-102573000D01*
X130000381Y-102704697D01*
X129376707Y-102963032D01*
X128815415Y-103338075D01*
X128338075Y-103815415D01*
X127963032Y-104376707D01*
X127704697Y-105000381D01*
X127573000Y-105662470D01*
X127573000Y-106337530D01*
X127704697Y-106999619D01*
X127963032Y-107623293D01*
X128338075Y-108184585D01*
X128651490Y-108498000D01*
X109877000Y-108498000D01*
X109877000Y-103000000D01*
X109874560Y-102975224D01*
X109867333Y-102951399D01*
X109855597Y-102929443D01*
X109839803Y-102910197D01*
X109820557Y-102894403D01*
X109798601Y-102882667D01*
X109774776Y-102875440D01*
X109750000Y-102873000D01*
X108127000Y-102873000D01*
X108127000Y-99539273D01*
X108133843Y-99544889D01*
X108245842Y-99604754D01*
X108367367Y-99641618D01*
X108493750Y-99654066D01*
X108800565Y-99654066D01*
X109039095Y-99892596D01*
X109035804Y-99893595D01*
X108961624Y-99933245D01*
X108896605Y-99986605D01*
X108843245Y-100051624D01*
X108803595Y-100125804D01*
X108779178Y-100206293D01*
X108770934Y-100290000D01*
X108770934Y-100940000D01*
X108779178Y-101023707D01*
X108803595Y-101104196D01*
X108843245Y-101178376D01*
X108896605Y-101243395D01*
X108904653Y-101250000D01*
X108896605Y-101256605D01*
X108843245Y-101321624D01*
X108803595Y-101395804D01*
X108779178Y-101476293D01*
X108770934Y-101560000D01*
X108770934Y-102210000D01*
X108779178Y-102293707D01*
X108803595Y-102374196D01*
X108843245Y-102448376D01*
X108896605Y-102513395D01*
X108961624Y-102566755D01*
X109035804Y-102606405D01*
X109116293Y-102630822D01*
X109200000Y-102639066D01*
X110900000Y-102639066D01*
X110983707Y-102630822D01*
X111064196Y-102606405D01*
X111129225Y-102571647D01*
X111462775Y-102905197D01*
X111483974Y-102931028D01*
X111539326Y-102976455D01*
X111474851Y-103055017D01*
X111360916Y-103268176D01*
X111290755Y-103499466D01*
X111267064Y-103740000D01*
X111290755Y-103980534D01*
X111360916Y-104211824D01*
X111474851Y-104424983D01*
X111628183Y-104611817D01*
X111815017Y-104765149D01*
X112028176Y-104879084D01*
X112259466Y-104949245D01*
X112439732Y-104967000D01*
X112560268Y-104967000D01*
X112740534Y-104949245D01*
X112931158Y-104891420D01*
X112749196Y-105073382D01*
X112740534Y-105070755D01*
X112560268Y-105053000D01*
X112439732Y-105053000D01*
X112259466Y-105070755D01*
X112028176Y-105140916D01*
X111815017Y-105254851D01*
X111628183Y-105408183D01*
X111474851Y-105595017D01*
X111360916Y-105808176D01*
X111290755Y-106039466D01*
X111267064Y-106280000D01*
X111290755Y-106520534D01*
X111360916Y-106751824D01*
X111474851Y-106964983D01*
X111628183Y-107151817D01*
X111815017Y-107305149D01*
X112028176Y-107419084D01*
X112259466Y-107489245D01*
X112439732Y-107507000D01*
X112560268Y-107507000D01*
X112740534Y-107489245D01*
X112971824Y-107419084D01*
X113184983Y-107305149D01*
X113371817Y-107151817D01*
X113525149Y-106964983D01*
X113639084Y-106751824D01*
X113709245Y-106520534D01*
X113732936Y-106280000D01*
X113709245Y-106039466D01*
X113706618Y-106030804D01*
X114205197Y-105532225D01*
X114231028Y-105511026D01*
X114315629Y-105407940D01*
X114378493Y-105290329D01*
X114417205Y-105162714D01*
X114427001Y-105063251D01*
X114427001Y-105063242D01*
X114430275Y-105030000D01*
X114427001Y-104996758D01*
X114427001Y-101833253D01*
X114430276Y-101800001D01*
X114427001Y-101766749D01*
X114427001Y-94253251D01*
X114430276Y-94219999D01*
X114427001Y-94186747D01*
X114427001Y-92323242D01*
X114430275Y-92290000D01*
X114427001Y-92256758D01*
X114427001Y-92256749D01*
X114417205Y-92157286D01*
X114378493Y-92029671D01*
X114315629Y-91912060D01*
X114231027Y-91808974D01*
X114205201Y-91787779D01*
X113706618Y-91289196D01*
X113709245Y-91280534D01*
X113732936Y-91040000D01*
X113709245Y-90799466D01*
X113639084Y-90568176D01*
X113525149Y-90355017D01*
X113371817Y-90168183D01*
X113313107Y-90120000D01*
X117719241Y-90120000D01*
X117723000Y-90158163D01*
X117723001Y-104621827D01*
X117719241Y-104660000D01*
X117729598Y-104765149D01*
X117734244Y-104812319D01*
X117737595Y-104823365D01*
X117778673Y-104958783D01*
X117850823Y-105093766D01*
X117923591Y-105182434D01*
X117947921Y-105212080D01*
X117977565Y-105236408D01*
X118899087Y-106157931D01*
X118887064Y-106280000D01*
X118910755Y-106520534D01*
X118980916Y-106751824D01*
X119094851Y-106964983D01*
X119248183Y-107151817D01*
X119435017Y-107305149D01*
X119648176Y-107419084D01*
X119879466Y-107489245D01*
X120059732Y-107507000D01*
X120180268Y-107507000D01*
X120360534Y-107489245D01*
X120591824Y-107419084D01*
X120804983Y-107305149D01*
X120991817Y-107151817D01*
X121145149Y-106964983D01*
X121259084Y-106751824D01*
X121329245Y-106520534D01*
X121352936Y-106280000D01*
X121329245Y-106039466D01*
X121259084Y-105808176D01*
X121145149Y-105595017D01*
X120991817Y-105408183D01*
X120804983Y-105254851D01*
X120591824Y-105140916D01*
X120360534Y-105070755D01*
X120180268Y-105053000D01*
X120059732Y-105053000D01*
X119997931Y-105059087D01*
X119889031Y-104950187D01*
X120059732Y-104967000D01*
X120180268Y-104967000D01*
X120360534Y-104949245D01*
X120591824Y-104879084D01*
X120804983Y-104765149D01*
X120991817Y-104611817D01*
X121145149Y-104424983D01*
X121259084Y-104211824D01*
X121329245Y-103980534D01*
X121352936Y-103740000D01*
X121329245Y-103499466D01*
X121259084Y-103268176D01*
X121145149Y-103055017D01*
X120991817Y-102868183D01*
X120804983Y-102714851D01*
X120591824Y-102600916D01*
X120360534Y-102530755D01*
X120180268Y-102513000D01*
X120059732Y-102513000D01*
X119879466Y-102530755D01*
X119648176Y-102600916D01*
X119435017Y-102714851D01*
X119277000Y-102844533D01*
X119277000Y-102095467D01*
X119435017Y-102225149D01*
X119648176Y-102339084D01*
X119879466Y-102409245D01*
X120059732Y-102427000D01*
X120180268Y-102427000D01*
X120360534Y-102409245D01*
X120591824Y-102339084D01*
X120804983Y-102225149D01*
X120991817Y-102071817D01*
X121145149Y-101884983D01*
X121259084Y-101671824D01*
X121329245Y-101440534D01*
X121352936Y-101200000D01*
X121340913Y-101077930D01*
X122272437Y-100146407D01*
X122302080Y-100122080D01*
X122330459Y-100087500D01*
X122399177Y-100003767D01*
X122471327Y-99868784D01*
X122485639Y-99821603D01*
X122515757Y-99722319D01*
X122527000Y-99608166D01*
X122527000Y-99608157D01*
X122530758Y-99570001D01*
X122527000Y-99531845D01*
X122527000Y-99057843D01*
X123235934Y-99766778D01*
X123235934Y-100672000D01*
X123248982Y-100804479D01*
X123287625Y-100931867D01*
X123350377Y-101049269D01*
X123434828Y-101152172D01*
X123537731Y-101236623D01*
X123655133Y-101299375D01*
X123782521Y-101338018D01*
X123915000Y-101351066D01*
X125365000Y-101351066D01*
X125497479Y-101338018D01*
X125624867Y-101299375D01*
X125742269Y-101236623D01*
X125845172Y-101152172D01*
X125929623Y-101049269D01*
X125992375Y-100931867D01*
X126031018Y-100804479D01*
X126044066Y-100672000D01*
X126044066Y-99472000D01*
X126031018Y-99339521D01*
X125992375Y-99212133D01*
X125929623Y-99094731D01*
X125845172Y-98991828D01*
X125742269Y-98907377D01*
X125624867Y-98844625D01*
X125497479Y-98805982D01*
X125365000Y-98792934D01*
X125139247Y-98792934D01*
X125256051Y-98757502D01*
X125477896Y-98638924D01*
X125672344Y-98479344D01*
X125831924Y-98284896D01*
X125950502Y-98063051D01*
X126023522Y-97822336D01*
X126048178Y-97572000D01*
X126023522Y-97321664D01*
X125950502Y-97080949D01*
X125831924Y-96859104D01*
X125672344Y-96664656D01*
X125477896Y-96505076D01*
X125256051Y-96386498D01*
X125043429Y-96322000D01*
X125256051Y-96257502D01*
X125477896Y-96138924D01*
X125672344Y-95979344D01*
X125831924Y-95784896D01*
X125950502Y-95563051D01*
X126023522Y-95322336D01*
X126048178Y-95072000D01*
X126023522Y-94821664D01*
X125950502Y-94580949D01*
X125831924Y-94359104D01*
X125672344Y-94164656D01*
X125477896Y-94005076D01*
X125256051Y-93886498D01*
X125043429Y-93822000D01*
X125256051Y-93757502D01*
X125477896Y-93638924D01*
X125672344Y-93479344D01*
X125831924Y-93284896D01*
X125950502Y-93063051D01*
X126023522Y-92822336D01*
X126048178Y-92572000D01*
X126023522Y-92321664D01*
X125950502Y-92080949D01*
X125831924Y-91859104D01*
X125672344Y-91664656D01*
X125477896Y-91505076D01*
X125256051Y-91386498D01*
X125043429Y-91322000D01*
X125256051Y-91257502D01*
X125477896Y-91138924D01*
X125672344Y-90979344D01*
X125831924Y-90784896D01*
X125950502Y-90563051D01*
X126023522Y-90322336D01*
X126048178Y-90072000D01*
X126023522Y-89821664D01*
X125950502Y-89580949D01*
X125831924Y-89359104D01*
X125672344Y-89164656D01*
X125477896Y-89005076D01*
X125256051Y-88886498D01*
X125043429Y-88822000D01*
X125256051Y-88757502D01*
X125477896Y-88638924D01*
X125672344Y-88479344D01*
X125831924Y-88284896D01*
X125950502Y-88063051D01*
X126023522Y-87822336D01*
X126048178Y-87572000D01*
X126023522Y-87321664D01*
X125950502Y-87080949D01*
X125831924Y-86859104D01*
X125672344Y-86664656D01*
X125477896Y-86505076D01*
X125256051Y-86386498D01*
X125015336Y-86313478D01*
X124827726Y-86295000D01*
X124452274Y-86295000D01*
X124264664Y-86313478D01*
X124023949Y-86386498D01*
X123802104Y-86505076D01*
X123607656Y-86664656D01*
X123448076Y-86859104D01*
X123329498Y-87080949D01*
X123256478Y-87321664D01*
X123231822Y-87572000D01*
X123256478Y-87822336D01*
X123329498Y-88063051D01*
X123448076Y-88284896D01*
X123607656Y-88479344D01*
X123802104Y-88638924D01*
X124023949Y-88757502D01*
X124236571Y-88822000D01*
X124023949Y-88886498D01*
X123802104Y-89005076D01*
X123607656Y-89164656D01*
X123448076Y-89359104D01*
X123329498Y-89580949D01*
X123256478Y-89821664D01*
X123231822Y-90072000D01*
X123256478Y-90322336D01*
X123329498Y-90563051D01*
X123448076Y-90784896D01*
X123607656Y-90979344D01*
X123802104Y-91138924D01*
X124023949Y-91257502D01*
X124236571Y-91322000D01*
X124023949Y-91386498D01*
X123802104Y-91505076D01*
X123607656Y-91664656D01*
X123500022Y-91795808D01*
X123471327Y-91701216D01*
X123429411Y-91622797D01*
X123399177Y-91566233D01*
X123326409Y-91477565D01*
X123326408Y-91477564D01*
X123302080Y-91447920D01*
X123272437Y-91423593D01*
X122366412Y-90517569D01*
X122342080Y-90487920D01*
X122223766Y-90390823D01*
X122088784Y-90318673D01*
X121942319Y-90274243D01*
X121828166Y-90263000D01*
X121828163Y-90263000D01*
X121790000Y-90259241D01*
X121751837Y-90263000D01*
X121069632Y-90263000D01*
X120991817Y-90168183D01*
X120804983Y-90014851D01*
X120591824Y-89900916D01*
X120360534Y-89830755D01*
X120180268Y-89813000D01*
X120059732Y-89813000D01*
X119889031Y-89829813D01*
X119997931Y-89720913D01*
X120059732Y-89727000D01*
X120180268Y-89727000D01*
X120360534Y-89709245D01*
X120591824Y-89639084D01*
X120804983Y-89525149D01*
X120991817Y-89371817D01*
X121145149Y-89184983D01*
X121259084Y-88971824D01*
X121329245Y-88740534D01*
X121352936Y-88500000D01*
X121329245Y-88259466D01*
X121259084Y-88028176D01*
X121145149Y-87815017D01*
X120991817Y-87628183D01*
X120804983Y-87474851D01*
X120591824Y-87360916D01*
X120360534Y-87290755D01*
X120180268Y-87273000D01*
X120059732Y-87273000D01*
X119879466Y-87290755D01*
X119648176Y-87360916D01*
X119435017Y-87474851D01*
X119248183Y-87628183D01*
X119094851Y-87815017D01*
X118980916Y-88028176D01*
X118910755Y-88259466D01*
X118887064Y-88500000D01*
X118899087Y-88622069D01*
X117977569Y-89543588D01*
X117947920Y-89567920D01*
X117923591Y-89597566D01*
X117850823Y-89686234D01*
X117783065Y-89813000D01*
X117778673Y-89821217D01*
X117734243Y-89967682D01*
X117723000Y-90081834D01*
X117719241Y-90120000D01*
X113313107Y-90120000D01*
X113184983Y-90014851D01*
X113177000Y-90010584D01*
X113177000Y-89729066D01*
X113300000Y-89729066D01*
X113383707Y-89720822D01*
X113464196Y-89696405D01*
X113538376Y-89656755D01*
X113603395Y-89603395D01*
X113656755Y-89538376D01*
X113696405Y-89464196D01*
X113720822Y-89383707D01*
X113729066Y-89300000D01*
X113729066Y-89215969D01*
X113733843Y-89219889D01*
X113845842Y-89279754D01*
X113967367Y-89316618D01*
X114093750Y-89329066D01*
X114606250Y-89329066D01*
X114732633Y-89316618D01*
X114854158Y-89279754D01*
X114966157Y-89219889D01*
X115064325Y-89139325D01*
X115144889Y-89041157D01*
X115204754Y-88929158D01*
X115241618Y-88807633D01*
X115254066Y-88681250D01*
X115254066Y-88243750D01*
X115241618Y-88117367D01*
X115204754Y-87995842D01*
X115144889Y-87883843D01*
X115064325Y-87785675D01*
X115027000Y-87755043D01*
X115027000Y-85275266D01*
X115500000Y-85275266D01*
X115583707Y-85267022D01*
X115664196Y-85242605D01*
X115738376Y-85202955D01*
X115803395Y-85149595D01*
X115856755Y-85084576D01*
X115896405Y-85010396D01*
X115920822Y-84929907D01*
X115929066Y-84846200D01*
X115929066Y-83346200D01*
X115920822Y-83262493D01*
X115896405Y-83182004D01*
X115856755Y-83107824D01*
X115803395Y-83042805D01*
X115738376Y-82989445D01*
X115664196Y-82949795D01*
X115583707Y-82925378D01*
X115500000Y-82917134D01*
X115162896Y-82917134D01*
X115250335Y-82908522D01*
X115491050Y-82835502D01*
X115712895Y-82716924D01*
X115907344Y-82557344D01*
X116066924Y-82362896D01*
X116185502Y-82141051D01*
X116258522Y-81900336D01*
X116277000Y-81712726D01*
X116277000Y-81287275D01*
X116258522Y-81099665D01*
X116185502Y-80858950D01*
X116066924Y-80637105D01*
X115927000Y-80466607D01*
X115927000Y-79545527D01*
X115931484Y-79500000D01*
X115927000Y-79454473D01*
X115927000Y-79454462D01*
X115924295Y-79427000D01*
X120954473Y-79427000D01*
X121000000Y-79431484D01*
X121045527Y-79427000D01*
X121045538Y-79427000D01*
X121181724Y-79413587D01*
X121356464Y-79360580D01*
X121517505Y-79274501D01*
X121658659Y-79158659D01*
X121687688Y-79123287D01*
X121883975Y-78927000D01*
X123073000Y-78927000D01*
X123073001Y-79310439D01*
X123011624Y-79343245D01*
X122946605Y-79396605D01*
X122893245Y-79461624D01*
X122853595Y-79535804D01*
X122829178Y-79616293D01*
X122820934Y-79700000D01*
X122820934Y-80750000D01*
X122829178Y-80833707D01*
X122853595Y-80914196D01*
X122893245Y-80988376D01*
X122946605Y-81053395D01*
X122972931Y-81075000D01*
X122946605Y-81096605D01*
X122893245Y-81161624D01*
X122853595Y-81235804D01*
X122829178Y-81316293D01*
X122820934Y-81400000D01*
X122820934Y-81923000D01*
X121470745Y-81923000D01*
X121437500Y-81919726D01*
X121404255Y-81923000D01*
X121404248Y-81923000D01*
X121304785Y-81932796D01*
X121177170Y-81971508D01*
X121059559Y-82034372D01*
X120956473Y-82118973D01*
X120935278Y-82144799D01*
X119909144Y-83170934D01*
X119743750Y-83170934D01*
X119617367Y-83183382D01*
X119495842Y-83220246D01*
X119383843Y-83280111D01*
X119285888Y-83360500D01*
X118929066Y-83360500D01*
X118929066Y-83346200D01*
X118920822Y-83262493D01*
X118896405Y-83182004D01*
X118856755Y-83107824D01*
X118803395Y-83042805D01*
X118738376Y-82989445D01*
X118664196Y-82949795D01*
X118583707Y-82925378D01*
X118500000Y-82917134D01*
X117500000Y-82917134D01*
X117416293Y-82925378D01*
X117335804Y-82949795D01*
X117261624Y-82989445D01*
X117196605Y-83042805D01*
X117143245Y-83107824D01*
X117103595Y-83182004D01*
X117079178Y-83262493D01*
X117070934Y-83346200D01*
X117070934Y-84846200D01*
X117079178Y-84929907D01*
X117103595Y-85010396D01*
X117143245Y-85084576D01*
X117196605Y-85149595D01*
X117261624Y-85202955D01*
X117335804Y-85242605D01*
X117416293Y-85267022D01*
X117500000Y-85275266D01*
X118500000Y-85275266D01*
X118583707Y-85267022D01*
X118664196Y-85242605D01*
X118738376Y-85202955D01*
X118803395Y-85149595D01*
X118856755Y-85084576D01*
X118896405Y-85010396D01*
X118920822Y-84929907D01*
X118929066Y-84846200D01*
X118929066Y-84714500D01*
X119223000Y-84714500D01*
X119223001Y-85674327D01*
X119219241Y-85712500D01*
X119234244Y-85864818D01*
X119278673Y-86011283D01*
X119350823Y-86146266D01*
X119423591Y-86234934D01*
X119447921Y-86264580D01*
X119477565Y-86288908D01*
X119786405Y-86597748D01*
X119804623Y-86641731D01*
X119895128Y-86777181D01*
X120010319Y-86892372D01*
X120145769Y-86982877D01*
X120296273Y-87045218D01*
X120456048Y-87077000D01*
X120618952Y-87077000D01*
X120778727Y-87045218D01*
X120929231Y-86982877D01*
X121064681Y-86892372D01*
X121179872Y-86777181D01*
X121270377Y-86641731D01*
X121332718Y-86491227D01*
X121364500Y-86331452D01*
X121364500Y-86168548D01*
X121332718Y-86008773D01*
X121270377Y-85858269D01*
X121179872Y-85722819D01*
X121064681Y-85607628D01*
X120929231Y-85517123D01*
X120885248Y-85498905D01*
X120777000Y-85390657D01*
X120777000Y-84637955D01*
X120794889Y-84616157D01*
X120854754Y-84504158D01*
X120891618Y-84382633D01*
X120904066Y-84256250D01*
X120904066Y-84090856D01*
X121717923Y-83277000D01*
X122820934Y-83277000D01*
X122820934Y-83800000D01*
X122829178Y-83883707D01*
X122853595Y-83964196D01*
X122893245Y-84038376D01*
X122946605Y-84103395D01*
X123011624Y-84156755D01*
X123085804Y-84196405D01*
X123166293Y-84220822D01*
X123250000Y-84229066D01*
X124750000Y-84229066D01*
X124833707Y-84220822D01*
X124914196Y-84196405D01*
X124988376Y-84156755D01*
X125053395Y-84103395D01*
X125106755Y-84038376D01*
X125146405Y-83964196D01*
X125170822Y-83883707D01*
X125179066Y-83800000D01*
X125179066Y-81400000D01*
X125170822Y-81316293D01*
X125146405Y-81235804D01*
X125106755Y-81161624D01*
X125053395Y-81096605D01*
X125027069Y-81075000D01*
X125053395Y-81053395D01*
X125106755Y-80988376D01*
X125146405Y-80914196D01*
X125170822Y-80833707D01*
X125179066Y-80750000D01*
X125179066Y-79700000D01*
X125170822Y-79616293D01*
X125146405Y-79535804D01*
X125106755Y-79461624D01*
X125053395Y-79396605D01*
X124988376Y-79343245D01*
X124927000Y-79310439D01*
X124927000Y-78808240D01*
X124953073Y-78782167D01*
X125087353Y-78581202D01*
X125179847Y-78357903D01*
X125227000Y-78120849D01*
X125227000Y-77879151D01*
X125179847Y-77642097D01*
X125087353Y-77418798D01*
X124953073Y-77217833D01*
X124782167Y-77046927D01*
X124581202Y-76912647D01*
X124357903Y-76820153D01*
X124120849Y-76773000D01*
X123879151Y-76773000D01*
X123642097Y-76820153D01*
X123418798Y-76912647D01*
X123217833Y-77046927D01*
X123191760Y-77073000D01*
X121545527Y-77073000D01*
X121500000Y-77068516D01*
X121454473Y-77073000D01*
X121454462Y-77073000D01*
X121318276Y-77086413D01*
X121143536Y-77139420D01*
X120982495Y-77225499D01*
X120841341Y-77341341D01*
X120812312Y-77376713D01*
X120616025Y-77573000D01*
X114045527Y-77573000D01*
X114000000Y-77568516D01*
X113954473Y-77573000D01*
X107845527Y-77573000D01*
X107800000Y-77568516D01*
X107754473Y-77573000D01*
X107754462Y-77573000D01*
X107618276Y-77586413D01*
X107443536Y-77639420D01*
X107282495Y-77725498D01*
X107176712Y-77812312D01*
X107176708Y-77812316D01*
X107141341Y-77841341D01*
X107112316Y-77876708D01*
X106176708Y-78812317D01*
X106141342Y-78841341D01*
X106112317Y-78876708D01*
X106112312Y-78876713D01*
X106025499Y-78982495D01*
X105939420Y-79143537D01*
X105914102Y-79227000D01*
X105886414Y-79318276D01*
X105878699Y-79396605D01*
X105868516Y-79500000D01*
X105873001Y-79545537D01*
X105873001Y-80466607D01*
X105733076Y-80637104D01*
X105614498Y-80858949D01*
X105541478Y-81099664D01*
X105523000Y-81287274D01*
X105523000Y-81712725D01*
X105541478Y-81900335D01*
X105614498Y-82141050D01*
X105733076Y-82362895D01*
X105892656Y-82557344D01*
X106087104Y-82716924D01*
X106308949Y-82835502D01*
X106549664Y-82908522D01*
X106800000Y-82933178D01*
X107050335Y-82908522D01*
X107291050Y-82835502D01*
X107512895Y-82716924D01*
X107707344Y-82557344D01*
X107866924Y-82362896D01*
X107985502Y-82141051D01*
X108058522Y-81900336D01*
X108077000Y-81712726D01*
X108077000Y-81287275D01*
X108058522Y-81099665D01*
X107985502Y-80858950D01*
X107866924Y-80637105D01*
X107727000Y-80466607D01*
X107727000Y-79883975D01*
X108183976Y-79427000D01*
X113616025Y-79427000D01*
X114073000Y-79883976D01*
X114073000Y-80466607D01*
X113933076Y-80637104D01*
X113814498Y-80858949D01*
X113741478Y-81099664D01*
X113723000Y-81287274D01*
X113723000Y-81712725D01*
X113741478Y-81900335D01*
X113814498Y-82141050D01*
X113933076Y-82362895D01*
X114092656Y-82557344D01*
X114287104Y-82716924D01*
X114508949Y-82835502D01*
X114749664Y-82908522D01*
X114837103Y-82917134D01*
X114500000Y-82917134D01*
X114416293Y-82925378D01*
X114335804Y-82949795D01*
X114261624Y-82989445D01*
X114196605Y-83042805D01*
X114143245Y-83107824D01*
X114103595Y-83182004D01*
X114079178Y-83262493D01*
X114070934Y-83346200D01*
X114070934Y-83419200D01*
X114063788Y-83419200D01*
X114044889Y-83383843D01*
X113964325Y-83285675D01*
X113866157Y-83205111D01*
X113754158Y-83145246D01*
X113632633Y-83108382D01*
X113506250Y-83095934D01*
X113068750Y-83095934D01*
X112942367Y-83108382D01*
X112820842Y-83145246D01*
X112708843Y-83205111D01*
X112610675Y-83285675D01*
X112530111Y-83383843D01*
X112470246Y-83495842D01*
X112433382Y-83617367D01*
X112420934Y-83743750D01*
X112420934Y-84256250D01*
X112433382Y-84382633D01*
X112470246Y-84504158D01*
X112521543Y-84600128D01*
X112510319Y-84607628D01*
X112395128Y-84722819D01*
X112304623Y-84858269D01*
X112242282Y-85008773D01*
X112210500Y-85168548D01*
X112210500Y-85331452D01*
X112242282Y-85491227D01*
X112304623Y-85641731D01*
X112395128Y-85777181D01*
X112510319Y-85892372D01*
X112645769Y-85982877D01*
X112796273Y-86045218D01*
X112956048Y-86077000D01*
X113118952Y-86077000D01*
X113278727Y-86045218D01*
X113429231Y-85982877D01*
X113564681Y-85892372D01*
X113673000Y-85784053D01*
X113673001Y-87492018D01*
X113656755Y-87461624D01*
X113603395Y-87396605D01*
X113538376Y-87343245D01*
X113464196Y-87303595D01*
X113383707Y-87279178D01*
X113300000Y-87270934D01*
X111700000Y-87270934D01*
X111616293Y-87279178D01*
X111535804Y-87303595D01*
X111461624Y-87343245D01*
X111404066Y-87390482D01*
X111404066Y-86993750D01*
X111391618Y-86867367D01*
X111354754Y-86745842D01*
X111294889Y-86633843D01*
X111214325Y-86535675D01*
X111116157Y-86455111D01*
X111004158Y-86395246D01*
X110882633Y-86358382D01*
X110756250Y-86345934D01*
X110318750Y-86345934D01*
X110192367Y-86358382D01*
X110070842Y-86395246D01*
X109958843Y-86455111D01*
X109860675Y-86535675D01*
X109780111Y-86633843D01*
X109750000Y-86690176D01*
X109719889Y-86633843D01*
X109639325Y-86535675D01*
X109541157Y-86455111D01*
X109429158Y-86395246D01*
X109307633Y-86358382D01*
X109181250Y-86345934D01*
X108743750Y-86345934D01*
X108617367Y-86358382D01*
X108495842Y-86395246D01*
X108383843Y-86455111D01*
X108285675Y-86535675D01*
X108205111Y-86633843D01*
X108145246Y-86745842D01*
X108127000Y-86805991D01*
X108127000Y-83250000D01*
X108124560Y-83225224D01*
X108117333Y-83201399D01*
X108105597Y-83179443D01*
X108089803Y-83160197D01*
X108070557Y-83144403D01*
X108048601Y-83132667D01*
X108024776Y-83125440D01*
X108000000Y-83123000D01*
X97502000Y-83123000D01*
X97502000Y-75024551D01*
X97551936Y-74515269D01*
X97692709Y-74049005D01*
X97921367Y-73618960D01*
X98229200Y-73241521D01*
X98604480Y-72931061D01*
X99032918Y-72699406D01*
X99498189Y-72555379D01*
X100006059Y-72502000D01*
X128651490Y-72502000D01*
X128338075Y-72815415D01*
G36*
X120973000Y-99248156D02*
G01*
X120242070Y-99979087D01*
X120180268Y-99973000D01*
X120059732Y-99973000D01*
X119879466Y-99990755D01*
X119648176Y-100060916D01*
X119435017Y-100174851D01*
X119277000Y-100304533D01*
X119277000Y-94475467D01*
X119435017Y-94605149D01*
X119648176Y-94719084D01*
X119879466Y-94789245D01*
X120059732Y-94807000D01*
X120180268Y-94807000D01*
X120360534Y-94789245D01*
X120591824Y-94719084D01*
X120804983Y-94605149D01*
X120973001Y-94467259D01*
X120973000Y-99248156D01*
X120973000Y-99248156D01*
G37*
X120973000Y-99248156D02*
X120242070Y-99979087D01*
X120180268Y-99973000D01*
X120059732Y-99973000D01*
X119879466Y-99990755D01*
X119648176Y-100060916D01*
X119435017Y-100174851D01*
X119277000Y-100304533D01*
X119277000Y-94475467D01*
X119435017Y-94605149D01*
X119648176Y-94719084D01*
X119879466Y-94789245D01*
X120059732Y-94807000D01*
X120180268Y-94807000D01*
X120360534Y-94789245D01*
X120591824Y-94719084D01*
X120804983Y-94605149D01*
X120973001Y-94467259D01*
X120973000Y-99248156D01*
G36*
X108133843Y-93544889D02*
G01*
X108245842Y-93604754D01*
X108367367Y-93641618D01*
X108493750Y-93654066D01*
X108800565Y-93654066D01*
X109039095Y-93892596D01*
X109035804Y-93893595D01*
X108961624Y-93933245D01*
X108896605Y-93986605D01*
X108843245Y-94051624D01*
X108803595Y-94125804D01*
X108779178Y-94206293D01*
X108770934Y-94290000D01*
X108770934Y-94940000D01*
X108779178Y-95023707D01*
X108803595Y-95104196D01*
X108843245Y-95178376D01*
X108896605Y-95243395D01*
X108904653Y-95250000D01*
X108896605Y-95256605D01*
X108843245Y-95321624D01*
X108803595Y-95395804D01*
X108779178Y-95476293D01*
X108770934Y-95560000D01*
X108770934Y-96210000D01*
X108779178Y-96293707D01*
X108803595Y-96374196D01*
X108843245Y-96448376D01*
X108896605Y-96513395D01*
X108961624Y-96566755D01*
X109035804Y-96606405D01*
X109116293Y-96630822D01*
X109200000Y-96639066D01*
X110900000Y-96639066D01*
X110983707Y-96630822D01*
X111064196Y-96606405D01*
X111138376Y-96566755D01*
X111203395Y-96513395D01*
X111248630Y-96458276D01*
X111262939Y-96450628D01*
X111366025Y-96366027D01*
X111387224Y-96340196D01*
X112180421Y-95546999D01*
X113026758Y-95546999D01*
X113060003Y-95550273D01*
X113073001Y-95548993D01*
X113073002Y-100114996D01*
X112971824Y-100060916D01*
X112740534Y-99990755D01*
X112560268Y-99973000D01*
X112439732Y-99973000D01*
X112259466Y-99990755D01*
X112028176Y-100060916D01*
X111815017Y-100174851D01*
X111628183Y-100328183D01*
X111474851Y-100515017D01*
X111360916Y-100728176D01*
X111329066Y-100833171D01*
X111329066Y-100290000D01*
X111320822Y-100206293D01*
X111296405Y-100125804D01*
X111256755Y-100051624D01*
X111203395Y-99986605D01*
X111138376Y-99933245D01*
X111064196Y-99893595D01*
X110983707Y-99869178D01*
X110900000Y-99860934D01*
X110583150Y-99860934D01*
X110532079Y-99765385D01*
X110459974Y-99677526D01*
X110437962Y-99659461D01*
X110432567Y-99654066D01*
X110506250Y-99654066D01*
X110632633Y-99641618D01*
X110754158Y-99604754D01*
X110866157Y-99544889D01*
X110964325Y-99464325D01*
X111044889Y-99366157D01*
X111104754Y-99254158D01*
X111141618Y-99132633D01*
X111154066Y-99006250D01*
X111154066Y-98493750D01*
X111141618Y-98367367D01*
X111104754Y-98245842D01*
X111044889Y-98133843D01*
X110964325Y-98035675D01*
X110866157Y-97955111D01*
X110754158Y-97895246D01*
X110632633Y-97858382D01*
X110506250Y-97845934D01*
X110068750Y-97845934D01*
X109942367Y-97858382D01*
X109820842Y-97895246D01*
X109708843Y-97955111D01*
X109610675Y-98035675D01*
X109530111Y-98133843D01*
X109500000Y-98190176D01*
X109469889Y-98133843D01*
X109389325Y-98035675D01*
X109291157Y-97955111D01*
X109179158Y-97895246D01*
X109057633Y-97858382D01*
X108931250Y-97845934D01*
X108493750Y-97845934D01*
X108367367Y-97858382D01*
X108245842Y-97895246D01*
X108133843Y-97955111D01*
X108127000Y-97960727D01*
X108127000Y-93539273D01*
X108133843Y-93544889D01*
X108133843Y-93544889D01*
G37*
X108133843Y-93544889D02*
X108245842Y-93604754D01*
X108367367Y-93641618D01*
X108493750Y-93654066D01*
X108800565Y-93654066D01*
X109039095Y-93892596D01*
X109035804Y-93893595D01*
X108961624Y-93933245D01*
X108896605Y-93986605D01*
X108843245Y-94051624D01*
X108803595Y-94125804D01*
X108779178Y-94206293D01*
X108770934Y-94290000D01*
X108770934Y-94940000D01*
X108779178Y-95023707D01*
X108803595Y-95104196D01*
X108843245Y-95178376D01*
X108896605Y-95243395D01*
X108904653Y-95250000D01*
X108896605Y-95256605D01*
X108843245Y-95321624D01*
X108803595Y-95395804D01*
X108779178Y-95476293D01*
X108770934Y-95560000D01*
X108770934Y-96210000D01*
X108779178Y-96293707D01*
X108803595Y-96374196D01*
X108843245Y-96448376D01*
X108896605Y-96513395D01*
X108961624Y-96566755D01*
X109035804Y-96606405D01*
X109116293Y-96630822D01*
X109200000Y-96639066D01*
X110900000Y-96639066D01*
X110983707Y-96630822D01*
X111064196Y-96606405D01*
X111138376Y-96566755D01*
X111203395Y-96513395D01*
X111248630Y-96458276D01*
X111262939Y-96450628D01*
X111366025Y-96366027D01*
X111387224Y-96340196D01*
X112180421Y-95546999D01*
X113026758Y-95546999D01*
X113060003Y-95550273D01*
X113073001Y-95548993D01*
X113073002Y-100114996D01*
X112971824Y-100060916D01*
X112740534Y-99990755D01*
X112560268Y-99973000D01*
X112439732Y-99973000D01*
X112259466Y-99990755D01*
X112028176Y-100060916D01*
X111815017Y-100174851D01*
X111628183Y-100328183D01*
X111474851Y-100515017D01*
X111360916Y-100728176D01*
X111329066Y-100833171D01*
X111329066Y-100290000D01*
X111320822Y-100206293D01*
X111296405Y-100125804D01*
X111256755Y-100051624D01*
X111203395Y-99986605D01*
X111138376Y-99933245D01*
X111064196Y-99893595D01*
X110983707Y-99869178D01*
X110900000Y-99860934D01*
X110583150Y-99860934D01*
X110532079Y-99765385D01*
X110459974Y-99677526D01*
X110437962Y-99659461D01*
X110432567Y-99654066D01*
X110506250Y-99654066D01*
X110632633Y-99641618D01*
X110754158Y-99604754D01*
X110866157Y-99544889D01*
X110964325Y-99464325D01*
X111044889Y-99366157D01*
X111104754Y-99254158D01*
X111141618Y-99132633D01*
X111154066Y-99006250D01*
X111154066Y-98493750D01*
X111141618Y-98367367D01*
X111104754Y-98245842D01*
X111044889Y-98133843D01*
X110964325Y-98035675D01*
X110866157Y-97955111D01*
X110754158Y-97895246D01*
X110632633Y-97858382D01*
X110506250Y-97845934D01*
X110068750Y-97845934D01*
X109942367Y-97858382D01*
X109820842Y-97895246D01*
X109708843Y-97955111D01*
X109610675Y-98035675D01*
X109530111Y-98133843D01*
X109500000Y-98190176D01*
X109469889Y-98133843D01*
X109389325Y-98035675D01*
X109291157Y-97955111D01*
X109179158Y-97895246D01*
X109057633Y-97858382D01*
X108931250Y-97845934D01*
X108493750Y-97845934D01*
X108367367Y-97858382D01*
X108245842Y-97895246D01*
X108133843Y-97955111D01*
X108127000Y-97960727D01*
X108127000Y-93539273D01*
X108133843Y-93544889D01*
M02*
