M48
; DRILL file {KiCad (5.1.2)-1} date 2019/06/09 17:51:23
; FORMAT={-:-/ absolute / inch / decimal}
; #@! TF.CreationDate,2019-06-09T17:51:23+09:00
; #@! TF.GenerationSoftware,Kicad,Pcbnew,(5.1.2)-1
; #@! TF.FileFunction,Plated,1,2,PTH
FMAT,2
INCH
T1C0.0157
T2C0.0197
T3C0.0315
T4C0.0374
T5C0.0394
T6C0.1181
%
G90
G05
T1
X3.8484Y-3.4154
X3.8484Y-3.5531
X3.8484Y-3.6909
X3.8484Y-3.8287
X3.8484Y-3.9665
X3.8484Y-4.0551
X3.8583Y-2.9823
X3.8583Y-3.1201
X3.8583Y-3.2579
X3.9272Y-4.0256
X3.9665Y-2.8642
X4.0059Y-3.2677
X4.0453Y-3.8287
X4.065Y-4.0945
X4.0945Y-2.8642
X4.1142Y-4.2618
X4.124Y-3.5728
X4.124Y-3.6122
X4.124Y-3.6909
X4.124Y-3.8091
X4.124Y-3.8484
X4.124Y-3.9272
X4.124Y-4.0453
X4.124Y-4.1634
X4.1535Y-3.1594
X4.1634Y-3.2677
X4.1744Y-3.9807
X4.252Y-2.8642
X4.2618Y-3.0413
X4.2618Y-3.1496
X4.2633Y-4.2028
X4.2717Y-3.2677
X4.2717Y-3.3858
X4.2717Y-3.7008
X4.2717Y-3.8386
X4.2717Y-3.937
X4.2717Y-4.0354
X4.3327Y-3.4888
X4.3327Y-3.725
X4.3327Y-3.9612
X4.3406Y-4.065
X4.3406Y-4.1634
X4.3406Y-4.2618
X4.342Y-3.6516
X4.342Y-3.8878
X4.3519Y-3.435
X4.3701Y-3.0413
X4.3701Y-3.1496
X4.3996Y-3.4252
X4.4094Y-2.8642
X4.4587Y-3.4252
X4.4685Y-4.2618
X4.4783Y-3.0413
X4.4783Y-3.1496
X4.4783Y-3.2579
X4.5177Y-3.6811
X4.5177Y-3.8091
X4.5177Y-3.9272
X4.5177Y-4.0354
X4.5177Y-4.1437
X4.5669Y-2.8642
X4.5866Y-3.0413
X4.5866Y-3.1398
X4.6161Y-4.2618
X4.626Y-3.563
X4.626Y-3.6811
X4.626Y-3.8091
X4.626Y-3.9272
X4.626Y-4.0354
X4.626Y-4.1437
X4.6654Y-3.4843
X4.6752Y-3.376
X4.6949Y-3.0413
X4.6949Y-3.1398
X4.7244Y-2.8642
X4.7638Y-4.2618
X4.7835Y-4.1339
X4.8228Y-3.0217
X4.8228Y-3.1201
X4.8228Y-3.2087
X4.8228Y-3.2972
X4.8524Y-3.3957
X4.8524Y-3.5039
X4.8524Y-4.0256
X4.8819Y-2.8642
X4.8819Y-3.252
X4.9114Y-4.2618
X4.9508Y-3.0807
X4.9508Y-3.1693
X4.9508Y-3.2283
X4.9705Y-3.3957
X4.9705Y-3.5039
X4.9705Y-3.6024
X4.9705Y-3.7008
X4.9705Y-3.7992
X4.9705Y-3.8976
X4.9705Y-4.0059
X5.0098Y-2.9823
X5.0098Y-4.1831
X5.0394Y-2.8642
X5.0394Y-4.0748
X5.0394Y-4.2618
X5.0886Y-3.0807
X5.1378Y-4.0256
X5.2461Y-3.0709
X5.2461Y-3.2283
X5.2461Y-3.3858
X5.2461Y-3.5433
X5.2461Y-3.7008
X5.2461Y-3.8583
X5.2461Y-4.0354
T2
X4.4503Y-3.3563
X4.7456Y-3.3957
X4.7933Y-3.6469
T3
X4.4291Y-3.4843
X4.4291Y-3.5843
X4.4291Y-3.6843
X4.4291Y-3.7843
X4.4291Y-3.8843
X4.4291Y-3.9843
X4.4291Y-4.0843
X4.4291Y-4.1843
X4.7291Y-3.4843
X4.7291Y-3.5843
X4.7291Y-3.6843
X4.7291Y-3.7843
X4.7291Y-3.8843
X4.7291Y-3.9843
X4.7291Y-4.0843
X4.7291Y-4.1843
X4.8819Y-2.9724
X4.8819Y-3.0709
T4
X4.9071Y-3.4477
X4.9071Y-3.5461
X4.9071Y-3.6446
X4.9071Y-3.743
X4.9071Y-3.8414
X4.9071Y-3.9398
X3.9665Y-3.435
X3.9665Y-3.5335
X3.9665Y-3.6319
X3.9665Y-3.7303
X3.9665Y-3.8287
X3.9665Y-3.9272
T5
X4.2047Y-3.2087
X4.3031Y-3.2087
X4.5276Y-3.2087
X4.626Y-3.2087
T6
X3.937Y-4.1732
X5.1575Y-2.9528
X5.1575Y-4.1732
T0
M30
