G04 #@! TF.GenerationSoftware,KiCad,Pcbnew,(5.1.2)-1*
G04 #@! TF.CreationDate,2019-06-09T17:51:18+09:00*
G04 #@! TF.ProjectId,STEPPER_MOTOR04,53544550-5045-4525-9f4d-4f544f523034,rev?*
G04 #@! TF.SameCoordinates,Original*
G04 #@! TF.FileFunction,Copper,L1,Top*
G04 #@! TF.FilePolarity,Positive*
%FSLAX46Y46*%
G04 Gerber Fmt 4.6, Leading zero omitted, Abs format (unit mm)*
G04 Created by KiCad (PCBNEW (5.1.2)-1) date 2019-06-09 17:51:18*
%MOMM*%
%LPD*%
G04 APERTURE LIST*
%ADD10C,0.100000*%
%ADD11C,1.700000*%
%ADD12O,1.950000X1.700000*%
%ADD13C,0.875000*%
%ADD14O,1.700000X2.000000*%
%ADD15C,1.600000*%
%ADD16R,1.600000X1.600000*%
%ADD17O,1.600000X1.600000*%
%ADD18C,6.000000*%
%ADD19C,0.600000*%
%ADD20C,0.800000*%
%ADD21C,0.300000*%
%ADD22C,0.700000*%
%ADD23C,0.254000*%
G04 APERTURE END LIST*
D10*
G36*
X101499504Y-86401204D02*
G01*
X101523773Y-86404804D01*
X101547571Y-86410765D01*
X101570671Y-86419030D01*
X101592849Y-86429520D01*
X101613893Y-86442133D01*
X101633598Y-86456747D01*
X101651777Y-86473223D01*
X101668253Y-86491402D01*
X101682867Y-86511107D01*
X101695480Y-86532151D01*
X101705970Y-86554329D01*
X101714235Y-86577429D01*
X101720196Y-86601227D01*
X101723796Y-86625496D01*
X101725000Y-86650000D01*
X101725000Y-87850000D01*
X101723796Y-87874504D01*
X101720196Y-87898773D01*
X101714235Y-87922571D01*
X101705970Y-87945671D01*
X101695480Y-87967849D01*
X101682867Y-87988893D01*
X101668253Y-88008598D01*
X101651777Y-88026777D01*
X101633598Y-88043253D01*
X101613893Y-88057867D01*
X101592849Y-88070480D01*
X101570671Y-88080970D01*
X101547571Y-88089235D01*
X101523773Y-88095196D01*
X101499504Y-88098796D01*
X101475000Y-88100000D01*
X100025000Y-88100000D01*
X100000496Y-88098796D01*
X99976227Y-88095196D01*
X99952429Y-88089235D01*
X99929329Y-88080970D01*
X99907151Y-88070480D01*
X99886107Y-88057867D01*
X99866402Y-88043253D01*
X99848223Y-88026777D01*
X99831747Y-88008598D01*
X99817133Y-87988893D01*
X99804520Y-87967849D01*
X99794030Y-87945671D01*
X99785765Y-87922571D01*
X99779804Y-87898773D01*
X99776204Y-87874504D01*
X99775000Y-87850000D01*
X99775000Y-86650000D01*
X99776204Y-86625496D01*
X99779804Y-86601227D01*
X99785765Y-86577429D01*
X99794030Y-86554329D01*
X99804520Y-86532151D01*
X99817133Y-86511107D01*
X99831747Y-86491402D01*
X99848223Y-86473223D01*
X99866402Y-86456747D01*
X99886107Y-86442133D01*
X99907151Y-86429520D01*
X99929329Y-86419030D01*
X99952429Y-86410765D01*
X99976227Y-86404804D01*
X100000496Y-86401204D01*
X100025000Y-86400000D01*
X101475000Y-86400000D01*
X101499504Y-86401204D01*
X101499504Y-86401204D01*
G37*
D11*
X100750000Y-87250000D03*
D12*
X100750000Y-89750000D03*
X100750000Y-92250000D03*
X100750000Y-94750000D03*
X100750000Y-97250000D03*
X100750000Y-99750000D03*
D10*
G36*
X109202691Y-84776053D02*
G01*
X109223926Y-84779203D01*
X109244750Y-84784419D01*
X109264962Y-84791651D01*
X109284368Y-84800830D01*
X109302781Y-84811866D01*
X109320024Y-84824654D01*
X109335930Y-84839070D01*
X109350346Y-84854976D01*
X109363134Y-84872219D01*
X109374170Y-84890632D01*
X109383349Y-84910038D01*
X109390581Y-84930250D01*
X109395797Y-84951074D01*
X109398947Y-84972309D01*
X109400000Y-84993750D01*
X109400000Y-85506250D01*
X109398947Y-85527691D01*
X109395797Y-85548926D01*
X109390581Y-85569750D01*
X109383349Y-85589962D01*
X109374170Y-85609368D01*
X109363134Y-85627781D01*
X109350346Y-85645024D01*
X109335930Y-85660930D01*
X109320024Y-85675346D01*
X109302781Y-85688134D01*
X109284368Y-85699170D01*
X109264962Y-85708349D01*
X109244750Y-85715581D01*
X109223926Y-85720797D01*
X109202691Y-85723947D01*
X109181250Y-85725000D01*
X108743750Y-85725000D01*
X108722309Y-85723947D01*
X108701074Y-85720797D01*
X108680250Y-85715581D01*
X108660038Y-85708349D01*
X108640632Y-85699170D01*
X108622219Y-85688134D01*
X108604976Y-85675346D01*
X108589070Y-85660930D01*
X108574654Y-85645024D01*
X108561866Y-85627781D01*
X108550830Y-85609368D01*
X108541651Y-85589962D01*
X108534419Y-85569750D01*
X108529203Y-85548926D01*
X108526053Y-85527691D01*
X108525000Y-85506250D01*
X108525000Y-84993750D01*
X108526053Y-84972309D01*
X108529203Y-84951074D01*
X108534419Y-84930250D01*
X108541651Y-84910038D01*
X108550830Y-84890632D01*
X108561866Y-84872219D01*
X108574654Y-84854976D01*
X108589070Y-84839070D01*
X108604976Y-84824654D01*
X108622219Y-84811866D01*
X108640632Y-84800830D01*
X108660038Y-84791651D01*
X108680250Y-84784419D01*
X108701074Y-84779203D01*
X108722309Y-84776053D01*
X108743750Y-84775000D01*
X109181250Y-84775000D01*
X109202691Y-84776053D01*
X109202691Y-84776053D01*
G37*
D13*
X108962500Y-85250000D03*
D10*
G36*
X110777691Y-84776053D02*
G01*
X110798926Y-84779203D01*
X110819750Y-84784419D01*
X110839962Y-84791651D01*
X110859368Y-84800830D01*
X110877781Y-84811866D01*
X110895024Y-84824654D01*
X110910930Y-84839070D01*
X110925346Y-84854976D01*
X110938134Y-84872219D01*
X110949170Y-84890632D01*
X110958349Y-84910038D01*
X110965581Y-84930250D01*
X110970797Y-84951074D01*
X110973947Y-84972309D01*
X110975000Y-84993750D01*
X110975000Y-85506250D01*
X110973947Y-85527691D01*
X110970797Y-85548926D01*
X110965581Y-85569750D01*
X110958349Y-85589962D01*
X110949170Y-85609368D01*
X110938134Y-85627781D01*
X110925346Y-85645024D01*
X110910930Y-85660930D01*
X110895024Y-85675346D01*
X110877781Y-85688134D01*
X110859368Y-85699170D01*
X110839962Y-85708349D01*
X110819750Y-85715581D01*
X110798926Y-85720797D01*
X110777691Y-85723947D01*
X110756250Y-85725000D01*
X110318750Y-85725000D01*
X110297309Y-85723947D01*
X110276074Y-85720797D01*
X110255250Y-85715581D01*
X110235038Y-85708349D01*
X110215632Y-85699170D01*
X110197219Y-85688134D01*
X110179976Y-85675346D01*
X110164070Y-85660930D01*
X110149654Y-85645024D01*
X110136866Y-85627781D01*
X110125830Y-85609368D01*
X110116651Y-85589962D01*
X110109419Y-85569750D01*
X110104203Y-85548926D01*
X110101053Y-85527691D01*
X110100000Y-85506250D01*
X110100000Y-84993750D01*
X110101053Y-84972309D01*
X110104203Y-84951074D01*
X110109419Y-84930250D01*
X110116651Y-84910038D01*
X110125830Y-84890632D01*
X110136866Y-84872219D01*
X110149654Y-84854976D01*
X110164070Y-84839070D01*
X110179976Y-84824654D01*
X110197219Y-84811866D01*
X110215632Y-84800830D01*
X110235038Y-84791651D01*
X110255250Y-84784419D01*
X110276074Y-84779203D01*
X110297309Y-84776053D01*
X110318750Y-84775000D01*
X110756250Y-84775000D01*
X110777691Y-84776053D01*
X110777691Y-84776053D01*
G37*
D13*
X110537500Y-85250000D03*
D10*
G36*
X106027691Y-106276053D02*
G01*
X106048926Y-106279203D01*
X106069750Y-106284419D01*
X106089962Y-106291651D01*
X106109368Y-106300830D01*
X106127781Y-106311866D01*
X106145024Y-106324654D01*
X106160930Y-106339070D01*
X106175346Y-106354976D01*
X106188134Y-106372219D01*
X106199170Y-106390632D01*
X106208349Y-106410038D01*
X106215581Y-106430250D01*
X106220797Y-106451074D01*
X106223947Y-106472309D01*
X106225000Y-106493750D01*
X106225000Y-107006250D01*
X106223947Y-107027691D01*
X106220797Y-107048926D01*
X106215581Y-107069750D01*
X106208349Y-107089962D01*
X106199170Y-107109368D01*
X106188134Y-107127781D01*
X106175346Y-107145024D01*
X106160930Y-107160930D01*
X106145024Y-107175346D01*
X106127781Y-107188134D01*
X106109368Y-107199170D01*
X106089962Y-107208349D01*
X106069750Y-107215581D01*
X106048926Y-107220797D01*
X106027691Y-107223947D01*
X106006250Y-107225000D01*
X105568750Y-107225000D01*
X105547309Y-107223947D01*
X105526074Y-107220797D01*
X105505250Y-107215581D01*
X105485038Y-107208349D01*
X105465632Y-107199170D01*
X105447219Y-107188134D01*
X105429976Y-107175346D01*
X105414070Y-107160930D01*
X105399654Y-107145024D01*
X105386866Y-107127781D01*
X105375830Y-107109368D01*
X105366651Y-107089962D01*
X105359419Y-107069750D01*
X105354203Y-107048926D01*
X105351053Y-107027691D01*
X105350000Y-107006250D01*
X105350000Y-106493750D01*
X105351053Y-106472309D01*
X105354203Y-106451074D01*
X105359419Y-106430250D01*
X105366651Y-106410038D01*
X105375830Y-106390632D01*
X105386866Y-106372219D01*
X105399654Y-106354976D01*
X105414070Y-106339070D01*
X105429976Y-106324654D01*
X105447219Y-106311866D01*
X105465632Y-106300830D01*
X105485038Y-106291651D01*
X105505250Y-106284419D01*
X105526074Y-106279203D01*
X105547309Y-106276053D01*
X105568750Y-106275000D01*
X106006250Y-106275000D01*
X106027691Y-106276053D01*
X106027691Y-106276053D01*
G37*
D13*
X105787500Y-106750000D03*
D10*
G36*
X104452691Y-106276053D02*
G01*
X104473926Y-106279203D01*
X104494750Y-106284419D01*
X104514962Y-106291651D01*
X104534368Y-106300830D01*
X104552781Y-106311866D01*
X104570024Y-106324654D01*
X104585930Y-106339070D01*
X104600346Y-106354976D01*
X104613134Y-106372219D01*
X104624170Y-106390632D01*
X104633349Y-106410038D01*
X104640581Y-106430250D01*
X104645797Y-106451074D01*
X104648947Y-106472309D01*
X104650000Y-106493750D01*
X104650000Y-107006250D01*
X104648947Y-107027691D01*
X104645797Y-107048926D01*
X104640581Y-107069750D01*
X104633349Y-107089962D01*
X104624170Y-107109368D01*
X104613134Y-107127781D01*
X104600346Y-107145024D01*
X104585930Y-107160930D01*
X104570024Y-107175346D01*
X104552781Y-107188134D01*
X104534368Y-107199170D01*
X104514962Y-107208349D01*
X104494750Y-107215581D01*
X104473926Y-107220797D01*
X104452691Y-107223947D01*
X104431250Y-107225000D01*
X103993750Y-107225000D01*
X103972309Y-107223947D01*
X103951074Y-107220797D01*
X103930250Y-107215581D01*
X103910038Y-107208349D01*
X103890632Y-107199170D01*
X103872219Y-107188134D01*
X103854976Y-107175346D01*
X103839070Y-107160930D01*
X103824654Y-107145024D01*
X103811866Y-107127781D01*
X103800830Y-107109368D01*
X103791651Y-107089962D01*
X103784419Y-107069750D01*
X103779203Y-107048926D01*
X103776053Y-107027691D01*
X103775000Y-107006250D01*
X103775000Y-106493750D01*
X103776053Y-106472309D01*
X103779203Y-106451074D01*
X103784419Y-106430250D01*
X103791651Y-106410038D01*
X103800830Y-106390632D01*
X103811866Y-106372219D01*
X103824654Y-106354976D01*
X103839070Y-106339070D01*
X103854976Y-106324654D01*
X103872219Y-106311866D01*
X103890632Y-106300830D01*
X103910038Y-106291651D01*
X103930250Y-106284419D01*
X103951074Y-106279203D01*
X103972309Y-106276053D01*
X103993750Y-106275000D01*
X104431250Y-106275000D01*
X104452691Y-106276053D01*
X104452691Y-106276053D01*
G37*
D13*
X104212500Y-106750000D03*
D10*
G36*
X132277691Y-82276053D02*
G01*
X132298926Y-82279203D01*
X132319750Y-82284419D01*
X132339962Y-82291651D01*
X132359368Y-82300830D01*
X132377781Y-82311866D01*
X132395024Y-82324654D01*
X132410930Y-82339070D01*
X132425346Y-82354976D01*
X132438134Y-82372219D01*
X132449170Y-82390632D01*
X132458349Y-82410038D01*
X132465581Y-82430250D01*
X132470797Y-82451074D01*
X132473947Y-82472309D01*
X132475000Y-82493750D01*
X132475000Y-83006250D01*
X132473947Y-83027691D01*
X132470797Y-83048926D01*
X132465581Y-83069750D01*
X132458349Y-83089962D01*
X132449170Y-83109368D01*
X132438134Y-83127781D01*
X132425346Y-83145024D01*
X132410930Y-83160930D01*
X132395024Y-83175346D01*
X132377781Y-83188134D01*
X132359368Y-83199170D01*
X132339962Y-83208349D01*
X132319750Y-83215581D01*
X132298926Y-83220797D01*
X132277691Y-83223947D01*
X132256250Y-83225000D01*
X131818750Y-83225000D01*
X131797309Y-83223947D01*
X131776074Y-83220797D01*
X131755250Y-83215581D01*
X131735038Y-83208349D01*
X131715632Y-83199170D01*
X131697219Y-83188134D01*
X131679976Y-83175346D01*
X131664070Y-83160930D01*
X131649654Y-83145024D01*
X131636866Y-83127781D01*
X131625830Y-83109368D01*
X131616651Y-83089962D01*
X131609419Y-83069750D01*
X131604203Y-83048926D01*
X131601053Y-83027691D01*
X131600000Y-83006250D01*
X131600000Y-82493750D01*
X131601053Y-82472309D01*
X131604203Y-82451074D01*
X131609419Y-82430250D01*
X131616651Y-82410038D01*
X131625830Y-82390632D01*
X131636866Y-82372219D01*
X131649654Y-82354976D01*
X131664070Y-82339070D01*
X131679976Y-82324654D01*
X131697219Y-82311866D01*
X131715632Y-82300830D01*
X131735038Y-82291651D01*
X131755250Y-82284419D01*
X131776074Y-82279203D01*
X131797309Y-82276053D01*
X131818750Y-82275000D01*
X132256250Y-82275000D01*
X132277691Y-82276053D01*
X132277691Y-82276053D01*
G37*
D13*
X132037500Y-82750000D03*
D10*
G36*
X130702691Y-82276053D02*
G01*
X130723926Y-82279203D01*
X130744750Y-82284419D01*
X130764962Y-82291651D01*
X130784368Y-82300830D01*
X130802781Y-82311866D01*
X130820024Y-82324654D01*
X130835930Y-82339070D01*
X130850346Y-82354976D01*
X130863134Y-82372219D01*
X130874170Y-82390632D01*
X130883349Y-82410038D01*
X130890581Y-82430250D01*
X130895797Y-82451074D01*
X130898947Y-82472309D01*
X130900000Y-82493750D01*
X130900000Y-83006250D01*
X130898947Y-83027691D01*
X130895797Y-83048926D01*
X130890581Y-83069750D01*
X130883349Y-83089962D01*
X130874170Y-83109368D01*
X130863134Y-83127781D01*
X130850346Y-83145024D01*
X130835930Y-83160930D01*
X130820024Y-83175346D01*
X130802781Y-83188134D01*
X130784368Y-83199170D01*
X130764962Y-83208349D01*
X130744750Y-83215581D01*
X130723926Y-83220797D01*
X130702691Y-83223947D01*
X130681250Y-83225000D01*
X130243750Y-83225000D01*
X130222309Y-83223947D01*
X130201074Y-83220797D01*
X130180250Y-83215581D01*
X130160038Y-83208349D01*
X130140632Y-83199170D01*
X130122219Y-83188134D01*
X130104976Y-83175346D01*
X130089070Y-83160930D01*
X130074654Y-83145024D01*
X130061866Y-83127781D01*
X130050830Y-83109368D01*
X130041651Y-83089962D01*
X130034419Y-83069750D01*
X130029203Y-83048926D01*
X130026053Y-83027691D01*
X130025000Y-83006250D01*
X130025000Y-82493750D01*
X130026053Y-82472309D01*
X130029203Y-82451074D01*
X130034419Y-82430250D01*
X130041651Y-82410038D01*
X130050830Y-82390632D01*
X130061866Y-82372219D01*
X130074654Y-82354976D01*
X130089070Y-82339070D01*
X130104976Y-82324654D01*
X130122219Y-82311866D01*
X130140632Y-82300830D01*
X130160038Y-82291651D01*
X130180250Y-82284419D01*
X130201074Y-82279203D01*
X130222309Y-82276053D01*
X130243750Y-82275000D01*
X130681250Y-82275000D01*
X130702691Y-82276053D01*
X130702691Y-82276053D01*
G37*
D13*
X130462500Y-82750000D03*
D10*
G36*
X106952691Y-106276053D02*
G01*
X106973926Y-106279203D01*
X106994750Y-106284419D01*
X107014962Y-106291651D01*
X107034368Y-106300830D01*
X107052781Y-106311866D01*
X107070024Y-106324654D01*
X107085930Y-106339070D01*
X107100346Y-106354976D01*
X107113134Y-106372219D01*
X107124170Y-106390632D01*
X107133349Y-106410038D01*
X107140581Y-106430250D01*
X107145797Y-106451074D01*
X107148947Y-106472309D01*
X107150000Y-106493750D01*
X107150000Y-107006250D01*
X107148947Y-107027691D01*
X107145797Y-107048926D01*
X107140581Y-107069750D01*
X107133349Y-107089962D01*
X107124170Y-107109368D01*
X107113134Y-107127781D01*
X107100346Y-107145024D01*
X107085930Y-107160930D01*
X107070024Y-107175346D01*
X107052781Y-107188134D01*
X107034368Y-107199170D01*
X107014962Y-107208349D01*
X106994750Y-107215581D01*
X106973926Y-107220797D01*
X106952691Y-107223947D01*
X106931250Y-107225000D01*
X106493750Y-107225000D01*
X106472309Y-107223947D01*
X106451074Y-107220797D01*
X106430250Y-107215581D01*
X106410038Y-107208349D01*
X106390632Y-107199170D01*
X106372219Y-107188134D01*
X106354976Y-107175346D01*
X106339070Y-107160930D01*
X106324654Y-107145024D01*
X106311866Y-107127781D01*
X106300830Y-107109368D01*
X106291651Y-107089962D01*
X106284419Y-107069750D01*
X106279203Y-107048926D01*
X106276053Y-107027691D01*
X106275000Y-107006250D01*
X106275000Y-106493750D01*
X106276053Y-106472309D01*
X106279203Y-106451074D01*
X106284419Y-106430250D01*
X106291651Y-106410038D01*
X106300830Y-106390632D01*
X106311866Y-106372219D01*
X106324654Y-106354976D01*
X106339070Y-106339070D01*
X106354976Y-106324654D01*
X106372219Y-106311866D01*
X106390632Y-106300830D01*
X106410038Y-106291651D01*
X106430250Y-106284419D01*
X106451074Y-106279203D01*
X106472309Y-106276053D01*
X106493750Y-106275000D01*
X106931250Y-106275000D01*
X106952691Y-106276053D01*
X106952691Y-106276053D01*
G37*
D13*
X106712500Y-106750000D03*
D10*
G36*
X108527691Y-106276053D02*
G01*
X108548926Y-106279203D01*
X108569750Y-106284419D01*
X108589962Y-106291651D01*
X108609368Y-106300830D01*
X108627781Y-106311866D01*
X108645024Y-106324654D01*
X108660930Y-106339070D01*
X108675346Y-106354976D01*
X108688134Y-106372219D01*
X108699170Y-106390632D01*
X108708349Y-106410038D01*
X108715581Y-106430250D01*
X108720797Y-106451074D01*
X108723947Y-106472309D01*
X108725000Y-106493750D01*
X108725000Y-107006250D01*
X108723947Y-107027691D01*
X108720797Y-107048926D01*
X108715581Y-107069750D01*
X108708349Y-107089962D01*
X108699170Y-107109368D01*
X108688134Y-107127781D01*
X108675346Y-107145024D01*
X108660930Y-107160930D01*
X108645024Y-107175346D01*
X108627781Y-107188134D01*
X108609368Y-107199170D01*
X108589962Y-107208349D01*
X108569750Y-107215581D01*
X108548926Y-107220797D01*
X108527691Y-107223947D01*
X108506250Y-107225000D01*
X108068750Y-107225000D01*
X108047309Y-107223947D01*
X108026074Y-107220797D01*
X108005250Y-107215581D01*
X107985038Y-107208349D01*
X107965632Y-107199170D01*
X107947219Y-107188134D01*
X107929976Y-107175346D01*
X107914070Y-107160930D01*
X107899654Y-107145024D01*
X107886866Y-107127781D01*
X107875830Y-107109368D01*
X107866651Y-107089962D01*
X107859419Y-107069750D01*
X107854203Y-107048926D01*
X107851053Y-107027691D01*
X107850000Y-107006250D01*
X107850000Y-106493750D01*
X107851053Y-106472309D01*
X107854203Y-106451074D01*
X107859419Y-106430250D01*
X107866651Y-106410038D01*
X107875830Y-106390632D01*
X107886866Y-106372219D01*
X107899654Y-106354976D01*
X107914070Y-106339070D01*
X107929976Y-106324654D01*
X107947219Y-106311866D01*
X107965632Y-106300830D01*
X107985038Y-106291651D01*
X108005250Y-106284419D01*
X108026074Y-106279203D01*
X108047309Y-106276053D01*
X108068750Y-106275000D01*
X108506250Y-106275000D01*
X108527691Y-106276053D01*
X108527691Y-106276053D01*
G37*
D13*
X108287500Y-106750000D03*
D10*
G36*
X129777691Y-82276053D02*
G01*
X129798926Y-82279203D01*
X129819750Y-82284419D01*
X129839962Y-82291651D01*
X129859368Y-82300830D01*
X129877781Y-82311866D01*
X129895024Y-82324654D01*
X129910930Y-82339070D01*
X129925346Y-82354976D01*
X129938134Y-82372219D01*
X129949170Y-82390632D01*
X129958349Y-82410038D01*
X129965581Y-82430250D01*
X129970797Y-82451074D01*
X129973947Y-82472309D01*
X129975000Y-82493750D01*
X129975000Y-83006250D01*
X129973947Y-83027691D01*
X129970797Y-83048926D01*
X129965581Y-83069750D01*
X129958349Y-83089962D01*
X129949170Y-83109368D01*
X129938134Y-83127781D01*
X129925346Y-83145024D01*
X129910930Y-83160930D01*
X129895024Y-83175346D01*
X129877781Y-83188134D01*
X129859368Y-83199170D01*
X129839962Y-83208349D01*
X129819750Y-83215581D01*
X129798926Y-83220797D01*
X129777691Y-83223947D01*
X129756250Y-83225000D01*
X129318750Y-83225000D01*
X129297309Y-83223947D01*
X129276074Y-83220797D01*
X129255250Y-83215581D01*
X129235038Y-83208349D01*
X129215632Y-83199170D01*
X129197219Y-83188134D01*
X129179976Y-83175346D01*
X129164070Y-83160930D01*
X129149654Y-83145024D01*
X129136866Y-83127781D01*
X129125830Y-83109368D01*
X129116651Y-83089962D01*
X129109419Y-83069750D01*
X129104203Y-83048926D01*
X129101053Y-83027691D01*
X129100000Y-83006250D01*
X129100000Y-82493750D01*
X129101053Y-82472309D01*
X129104203Y-82451074D01*
X129109419Y-82430250D01*
X129116651Y-82410038D01*
X129125830Y-82390632D01*
X129136866Y-82372219D01*
X129149654Y-82354976D01*
X129164070Y-82339070D01*
X129179976Y-82324654D01*
X129197219Y-82311866D01*
X129215632Y-82300830D01*
X129235038Y-82291651D01*
X129255250Y-82284419D01*
X129276074Y-82279203D01*
X129297309Y-82276053D01*
X129318750Y-82275000D01*
X129756250Y-82275000D01*
X129777691Y-82276053D01*
X129777691Y-82276053D01*
G37*
D13*
X129537500Y-82750000D03*
D10*
G36*
X128202691Y-82276053D02*
G01*
X128223926Y-82279203D01*
X128244750Y-82284419D01*
X128264962Y-82291651D01*
X128284368Y-82300830D01*
X128302781Y-82311866D01*
X128320024Y-82324654D01*
X128335930Y-82339070D01*
X128350346Y-82354976D01*
X128363134Y-82372219D01*
X128374170Y-82390632D01*
X128383349Y-82410038D01*
X128390581Y-82430250D01*
X128395797Y-82451074D01*
X128398947Y-82472309D01*
X128400000Y-82493750D01*
X128400000Y-83006250D01*
X128398947Y-83027691D01*
X128395797Y-83048926D01*
X128390581Y-83069750D01*
X128383349Y-83089962D01*
X128374170Y-83109368D01*
X128363134Y-83127781D01*
X128350346Y-83145024D01*
X128335930Y-83160930D01*
X128320024Y-83175346D01*
X128302781Y-83188134D01*
X128284368Y-83199170D01*
X128264962Y-83208349D01*
X128244750Y-83215581D01*
X128223926Y-83220797D01*
X128202691Y-83223947D01*
X128181250Y-83225000D01*
X127743750Y-83225000D01*
X127722309Y-83223947D01*
X127701074Y-83220797D01*
X127680250Y-83215581D01*
X127660038Y-83208349D01*
X127640632Y-83199170D01*
X127622219Y-83188134D01*
X127604976Y-83175346D01*
X127589070Y-83160930D01*
X127574654Y-83145024D01*
X127561866Y-83127781D01*
X127550830Y-83109368D01*
X127541651Y-83089962D01*
X127534419Y-83069750D01*
X127529203Y-83048926D01*
X127526053Y-83027691D01*
X127525000Y-83006250D01*
X127525000Y-82493750D01*
X127526053Y-82472309D01*
X127529203Y-82451074D01*
X127534419Y-82430250D01*
X127541651Y-82410038D01*
X127550830Y-82390632D01*
X127561866Y-82372219D01*
X127574654Y-82354976D01*
X127589070Y-82339070D01*
X127604976Y-82324654D01*
X127622219Y-82311866D01*
X127640632Y-82300830D01*
X127660038Y-82291651D01*
X127680250Y-82284419D01*
X127701074Y-82279203D01*
X127722309Y-82276053D01*
X127743750Y-82275000D01*
X128181250Y-82275000D01*
X128202691Y-82276053D01*
X128202691Y-82276053D01*
G37*
D13*
X127962500Y-82750000D03*
D10*
G36*
X110527691Y-94276053D02*
G01*
X110548926Y-94279203D01*
X110569750Y-94284419D01*
X110589962Y-94291651D01*
X110609368Y-94300830D01*
X110627781Y-94311866D01*
X110645024Y-94324654D01*
X110660930Y-94339070D01*
X110675346Y-94354976D01*
X110688134Y-94372219D01*
X110699170Y-94390632D01*
X110708349Y-94410038D01*
X110715581Y-94430250D01*
X110720797Y-94451074D01*
X110723947Y-94472309D01*
X110725000Y-94493750D01*
X110725000Y-94931250D01*
X110723947Y-94952691D01*
X110720797Y-94973926D01*
X110715581Y-94994750D01*
X110708349Y-95014962D01*
X110699170Y-95034368D01*
X110688134Y-95052781D01*
X110675346Y-95070024D01*
X110660930Y-95085930D01*
X110645024Y-95100346D01*
X110627781Y-95113134D01*
X110609368Y-95124170D01*
X110589962Y-95133349D01*
X110569750Y-95140581D01*
X110548926Y-95145797D01*
X110527691Y-95148947D01*
X110506250Y-95150000D01*
X109993750Y-95150000D01*
X109972309Y-95148947D01*
X109951074Y-95145797D01*
X109930250Y-95140581D01*
X109910038Y-95133349D01*
X109890632Y-95124170D01*
X109872219Y-95113134D01*
X109854976Y-95100346D01*
X109839070Y-95085930D01*
X109824654Y-95070024D01*
X109811866Y-95052781D01*
X109800830Y-95034368D01*
X109791651Y-95014962D01*
X109784419Y-94994750D01*
X109779203Y-94973926D01*
X109776053Y-94952691D01*
X109775000Y-94931250D01*
X109775000Y-94493750D01*
X109776053Y-94472309D01*
X109779203Y-94451074D01*
X109784419Y-94430250D01*
X109791651Y-94410038D01*
X109800830Y-94390632D01*
X109811866Y-94372219D01*
X109824654Y-94354976D01*
X109839070Y-94339070D01*
X109854976Y-94324654D01*
X109872219Y-94311866D01*
X109890632Y-94300830D01*
X109910038Y-94291651D01*
X109930250Y-94284419D01*
X109951074Y-94279203D01*
X109972309Y-94276053D01*
X109993750Y-94275000D01*
X110506250Y-94275000D01*
X110527691Y-94276053D01*
X110527691Y-94276053D01*
G37*
D13*
X110250000Y-94712500D03*
D10*
G36*
X110527691Y-95851053D02*
G01*
X110548926Y-95854203D01*
X110569750Y-95859419D01*
X110589962Y-95866651D01*
X110609368Y-95875830D01*
X110627781Y-95886866D01*
X110645024Y-95899654D01*
X110660930Y-95914070D01*
X110675346Y-95929976D01*
X110688134Y-95947219D01*
X110699170Y-95965632D01*
X110708349Y-95985038D01*
X110715581Y-96005250D01*
X110720797Y-96026074D01*
X110723947Y-96047309D01*
X110725000Y-96068750D01*
X110725000Y-96506250D01*
X110723947Y-96527691D01*
X110720797Y-96548926D01*
X110715581Y-96569750D01*
X110708349Y-96589962D01*
X110699170Y-96609368D01*
X110688134Y-96627781D01*
X110675346Y-96645024D01*
X110660930Y-96660930D01*
X110645024Y-96675346D01*
X110627781Y-96688134D01*
X110609368Y-96699170D01*
X110589962Y-96708349D01*
X110569750Y-96715581D01*
X110548926Y-96720797D01*
X110527691Y-96723947D01*
X110506250Y-96725000D01*
X109993750Y-96725000D01*
X109972309Y-96723947D01*
X109951074Y-96720797D01*
X109930250Y-96715581D01*
X109910038Y-96708349D01*
X109890632Y-96699170D01*
X109872219Y-96688134D01*
X109854976Y-96675346D01*
X109839070Y-96660930D01*
X109824654Y-96645024D01*
X109811866Y-96627781D01*
X109800830Y-96609368D01*
X109791651Y-96589962D01*
X109784419Y-96569750D01*
X109779203Y-96548926D01*
X109776053Y-96527691D01*
X109775000Y-96506250D01*
X109775000Y-96068750D01*
X109776053Y-96047309D01*
X109779203Y-96026074D01*
X109784419Y-96005250D01*
X109791651Y-95985038D01*
X109800830Y-95965632D01*
X109811866Y-95947219D01*
X109824654Y-95929976D01*
X109839070Y-95914070D01*
X109854976Y-95899654D01*
X109872219Y-95886866D01*
X109890632Y-95875830D01*
X109910038Y-95866651D01*
X109930250Y-95859419D01*
X109951074Y-95854203D01*
X109972309Y-95851053D01*
X109993750Y-95850000D01*
X110506250Y-95850000D01*
X110527691Y-95851053D01*
X110527691Y-95851053D01*
G37*
D13*
X110250000Y-96287500D03*
D10*
G36*
X110527691Y-100276053D02*
G01*
X110548926Y-100279203D01*
X110569750Y-100284419D01*
X110589962Y-100291651D01*
X110609368Y-100300830D01*
X110627781Y-100311866D01*
X110645024Y-100324654D01*
X110660930Y-100339070D01*
X110675346Y-100354976D01*
X110688134Y-100372219D01*
X110699170Y-100390632D01*
X110708349Y-100410038D01*
X110715581Y-100430250D01*
X110720797Y-100451074D01*
X110723947Y-100472309D01*
X110725000Y-100493750D01*
X110725000Y-100931250D01*
X110723947Y-100952691D01*
X110720797Y-100973926D01*
X110715581Y-100994750D01*
X110708349Y-101014962D01*
X110699170Y-101034368D01*
X110688134Y-101052781D01*
X110675346Y-101070024D01*
X110660930Y-101085930D01*
X110645024Y-101100346D01*
X110627781Y-101113134D01*
X110609368Y-101124170D01*
X110589962Y-101133349D01*
X110569750Y-101140581D01*
X110548926Y-101145797D01*
X110527691Y-101148947D01*
X110506250Y-101150000D01*
X109993750Y-101150000D01*
X109972309Y-101148947D01*
X109951074Y-101145797D01*
X109930250Y-101140581D01*
X109910038Y-101133349D01*
X109890632Y-101124170D01*
X109872219Y-101113134D01*
X109854976Y-101100346D01*
X109839070Y-101085930D01*
X109824654Y-101070024D01*
X109811866Y-101052781D01*
X109800830Y-101034368D01*
X109791651Y-101014962D01*
X109784419Y-100994750D01*
X109779203Y-100973926D01*
X109776053Y-100952691D01*
X109775000Y-100931250D01*
X109775000Y-100493750D01*
X109776053Y-100472309D01*
X109779203Y-100451074D01*
X109784419Y-100430250D01*
X109791651Y-100410038D01*
X109800830Y-100390632D01*
X109811866Y-100372219D01*
X109824654Y-100354976D01*
X109839070Y-100339070D01*
X109854976Y-100324654D01*
X109872219Y-100311866D01*
X109890632Y-100300830D01*
X109910038Y-100291651D01*
X109930250Y-100284419D01*
X109951074Y-100279203D01*
X109972309Y-100276053D01*
X109993750Y-100275000D01*
X110506250Y-100275000D01*
X110527691Y-100276053D01*
X110527691Y-100276053D01*
G37*
D13*
X110250000Y-100712500D03*
D10*
G36*
X110527691Y-101851053D02*
G01*
X110548926Y-101854203D01*
X110569750Y-101859419D01*
X110589962Y-101866651D01*
X110609368Y-101875830D01*
X110627781Y-101886866D01*
X110645024Y-101899654D01*
X110660930Y-101914070D01*
X110675346Y-101929976D01*
X110688134Y-101947219D01*
X110699170Y-101965632D01*
X110708349Y-101985038D01*
X110715581Y-102005250D01*
X110720797Y-102026074D01*
X110723947Y-102047309D01*
X110725000Y-102068750D01*
X110725000Y-102506250D01*
X110723947Y-102527691D01*
X110720797Y-102548926D01*
X110715581Y-102569750D01*
X110708349Y-102589962D01*
X110699170Y-102609368D01*
X110688134Y-102627781D01*
X110675346Y-102645024D01*
X110660930Y-102660930D01*
X110645024Y-102675346D01*
X110627781Y-102688134D01*
X110609368Y-102699170D01*
X110589962Y-102708349D01*
X110569750Y-102715581D01*
X110548926Y-102720797D01*
X110527691Y-102723947D01*
X110506250Y-102725000D01*
X109993750Y-102725000D01*
X109972309Y-102723947D01*
X109951074Y-102720797D01*
X109930250Y-102715581D01*
X109910038Y-102708349D01*
X109890632Y-102699170D01*
X109872219Y-102688134D01*
X109854976Y-102675346D01*
X109839070Y-102660930D01*
X109824654Y-102645024D01*
X109811866Y-102627781D01*
X109800830Y-102609368D01*
X109791651Y-102589962D01*
X109784419Y-102569750D01*
X109779203Y-102548926D01*
X109776053Y-102527691D01*
X109775000Y-102506250D01*
X109775000Y-102068750D01*
X109776053Y-102047309D01*
X109779203Y-102026074D01*
X109784419Y-102005250D01*
X109791651Y-101985038D01*
X109800830Y-101965632D01*
X109811866Y-101947219D01*
X109824654Y-101929976D01*
X109839070Y-101914070D01*
X109854976Y-101899654D01*
X109872219Y-101886866D01*
X109890632Y-101875830D01*
X109910038Y-101866651D01*
X109930250Y-101859419D01*
X109951074Y-101854203D01*
X109972309Y-101851053D01*
X109993750Y-101850000D01*
X110506250Y-101850000D01*
X110527691Y-101851053D01*
X110527691Y-101851053D01*
G37*
D13*
X110250000Y-102287500D03*
D10*
G36*
X110527691Y-89851053D02*
G01*
X110548926Y-89854203D01*
X110569750Y-89859419D01*
X110589962Y-89866651D01*
X110609368Y-89875830D01*
X110627781Y-89886866D01*
X110645024Y-89899654D01*
X110660930Y-89914070D01*
X110675346Y-89929976D01*
X110688134Y-89947219D01*
X110699170Y-89965632D01*
X110708349Y-89985038D01*
X110715581Y-90005250D01*
X110720797Y-90026074D01*
X110723947Y-90047309D01*
X110725000Y-90068750D01*
X110725000Y-90506250D01*
X110723947Y-90527691D01*
X110720797Y-90548926D01*
X110715581Y-90569750D01*
X110708349Y-90589962D01*
X110699170Y-90609368D01*
X110688134Y-90627781D01*
X110675346Y-90645024D01*
X110660930Y-90660930D01*
X110645024Y-90675346D01*
X110627781Y-90688134D01*
X110609368Y-90699170D01*
X110589962Y-90708349D01*
X110569750Y-90715581D01*
X110548926Y-90720797D01*
X110527691Y-90723947D01*
X110506250Y-90725000D01*
X109993750Y-90725000D01*
X109972309Y-90723947D01*
X109951074Y-90720797D01*
X109930250Y-90715581D01*
X109910038Y-90708349D01*
X109890632Y-90699170D01*
X109872219Y-90688134D01*
X109854976Y-90675346D01*
X109839070Y-90660930D01*
X109824654Y-90645024D01*
X109811866Y-90627781D01*
X109800830Y-90609368D01*
X109791651Y-90589962D01*
X109784419Y-90569750D01*
X109779203Y-90548926D01*
X109776053Y-90527691D01*
X109775000Y-90506250D01*
X109775000Y-90068750D01*
X109776053Y-90047309D01*
X109779203Y-90026074D01*
X109784419Y-90005250D01*
X109791651Y-89985038D01*
X109800830Y-89965632D01*
X109811866Y-89947219D01*
X109824654Y-89929976D01*
X109839070Y-89914070D01*
X109854976Y-89899654D01*
X109872219Y-89886866D01*
X109890632Y-89875830D01*
X109910038Y-89866651D01*
X109930250Y-89859419D01*
X109951074Y-89854203D01*
X109972309Y-89851053D01*
X109993750Y-89850000D01*
X110506250Y-89850000D01*
X110527691Y-89851053D01*
X110527691Y-89851053D01*
G37*
D13*
X110250000Y-90287500D03*
D10*
G36*
X110527691Y-88276053D02*
G01*
X110548926Y-88279203D01*
X110569750Y-88284419D01*
X110589962Y-88291651D01*
X110609368Y-88300830D01*
X110627781Y-88311866D01*
X110645024Y-88324654D01*
X110660930Y-88339070D01*
X110675346Y-88354976D01*
X110688134Y-88372219D01*
X110699170Y-88390632D01*
X110708349Y-88410038D01*
X110715581Y-88430250D01*
X110720797Y-88451074D01*
X110723947Y-88472309D01*
X110725000Y-88493750D01*
X110725000Y-88931250D01*
X110723947Y-88952691D01*
X110720797Y-88973926D01*
X110715581Y-88994750D01*
X110708349Y-89014962D01*
X110699170Y-89034368D01*
X110688134Y-89052781D01*
X110675346Y-89070024D01*
X110660930Y-89085930D01*
X110645024Y-89100346D01*
X110627781Y-89113134D01*
X110609368Y-89124170D01*
X110589962Y-89133349D01*
X110569750Y-89140581D01*
X110548926Y-89145797D01*
X110527691Y-89148947D01*
X110506250Y-89150000D01*
X109993750Y-89150000D01*
X109972309Y-89148947D01*
X109951074Y-89145797D01*
X109930250Y-89140581D01*
X109910038Y-89133349D01*
X109890632Y-89124170D01*
X109872219Y-89113134D01*
X109854976Y-89100346D01*
X109839070Y-89085930D01*
X109824654Y-89070024D01*
X109811866Y-89052781D01*
X109800830Y-89034368D01*
X109791651Y-89014962D01*
X109784419Y-88994750D01*
X109779203Y-88973926D01*
X109776053Y-88952691D01*
X109775000Y-88931250D01*
X109775000Y-88493750D01*
X109776053Y-88472309D01*
X109779203Y-88451074D01*
X109784419Y-88430250D01*
X109791651Y-88410038D01*
X109800830Y-88390632D01*
X109811866Y-88372219D01*
X109824654Y-88354976D01*
X109839070Y-88339070D01*
X109854976Y-88324654D01*
X109872219Y-88311866D01*
X109890632Y-88300830D01*
X109910038Y-88291651D01*
X109930250Y-88284419D01*
X109951074Y-88279203D01*
X109972309Y-88276053D01*
X109993750Y-88275000D01*
X110506250Y-88275000D01*
X110527691Y-88276053D01*
X110527691Y-88276053D01*
G37*
D13*
X110250000Y-88712500D03*
D10*
G36*
X113277691Y-84776053D02*
G01*
X113298926Y-84779203D01*
X113319750Y-84784419D01*
X113339962Y-84791651D01*
X113359368Y-84800830D01*
X113377781Y-84811866D01*
X113395024Y-84824654D01*
X113410930Y-84839070D01*
X113425346Y-84854976D01*
X113438134Y-84872219D01*
X113449170Y-84890632D01*
X113458349Y-84910038D01*
X113465581Y-84930250D01*
X113470797Y-84951074D01*
X113473947Y-84972309D01*
X113475000Y-84993750D01*
X113475000Y-85506250D01*
X113473947Y-85527691D01*
X113470797Y-85548926D01*
X113465581Y-85569750D01*
X113458349Y-85589962D01*
X113449170Y-85609368D01*
X113438134Y-85627781D01*
X113425346Y-85645024D01*
X113410930Y-85660930D01*
X113395024Y-85675346D01*
X113377781Y-85688134D01*
X113359368Y-85699170D01*
X113339962Y-85708349D01*
X113319750Y-85715581D01*
X113298926Y-85720797D01*
X113277691Y-85723947D01*
X113256250Y-85725000D01*
X112818750Y-85725000D01*
X112797309Y-85723947D01*
X112776074Y-85720797D01*
X112755250Y-85715581D01*
X112735038Y-85708349D01*
X112715632Y-85699170D01*
X112697219Y-85688134D01*
X112679976Y-85675346D01*
X112664070Y-85660930D01*
X112649654Y-85645024D01*
X112636866Y-85627781D01*
X112625830Y-85609368D01*
X112616651Y-85589962D01*
X112609419Y-85569750D01*
X112604203Y-85548926D01*
X112601053Y-85527691D01*
X112600000Y-85506250D01*
X112600000Y-84993750D01*
X112601053Y-84972309D01*
X112604203Y-84951074D01*
X112609419Y-84930250D01*
X112616651Y-84910038D01*
X112625830Y-84890632D01*
X112636866Y-84872219D01*
X112649654Y-84854976D01*
X112664070Y-84839070D01*
X112679976Y-84824654D01*
X112697219Y-84811866D01*
X112715632Y-84800830D01*
X112735038Y-84791651D01*
X112755250Y-84784419D01*
X112776074Y-84779203D01*
X112797309Y-84776053D01*
X112818750Y-84775000D01*
X113256250Y-84775000D01*
X113277691Y-84776053D01*
X113277691Y-84776053D01*
G37*
D13*
X113037500Y-85250000D03*
D10*
G36*
X111702691Y-84776053D02*
G01*
X111723926Y-84779203D01*
X111744750Y-84784419D01*
X111764962Y-84791651D01*
X111784368Y-84800830D01*
X111802781Y-84811866D01*
X111820024Y-84824654D01*
X111835930Y-84839070D01*
X111850346Y-84854976D01*
X111863134Y-84872219D01*
X111874170Y-84890632D01*
X111883349Y-84910038D01*
X111890581Y-84930250D01*
X111895797Y-84951074D01*
X111898947Y-84972309D01*
X111900000Y-84993750D01*
X111900000Y-85506250D01*
X111898947Y-85527691D01*
X111895797Y-85548926D01*
X111890581Y-85569750D01*
X111883349Y-85589962D01*
X111874170Y-85609368D01*
X111863134Y-85627781D01*
X111850346Y-85645024D01*
X111835930Y-85660930D01*
X111820024Y-85675346D01*
X111802781Y-85688134D01*
X111784368Y-85699170D01*
X111764962Y-85708349D01*
X111744750Y-85715581D01*
X111723926Y-85720797D01*
X111702691Y-85723947D01*
X111681250Y-85725000D01*
X111243750Y-85725000D01*
X111222309Y-85723947D01*
X111201074Y-85720797D01*
X111180250Y-85715581D01*
X111160038Y-85708349D01*
X111140632Y-85699170D01*
X111122219Y-85688134D01*
X111104976Y-85675346D01*
X111089070Y-85660930D01*
X111074654Y-85645024D01*
X111061866Y-85627781D01*
X111050830Y-85609368D01*
X111041651Y-85589962D01*
X111034419Y-85569750D01*
X111029203Y-85548926D01*
X111026053Y-85527691D01*
X111025000Y-85506250D01*
X111025000Y-84993750D01*
X111026053Y-84972309D01*
X111029203Y-84951074D01*
X111034419Y-84930250D01*
X111041651Y-84910038D01*
X111050830Y-84890632D01*
X111061866Y-84872219D01*
X111074654Y-84854976D01*
X111089070Y-84839070D01*
X111104976Y-84824654D01*
X111122219Y-84811866D01*
X111140632Y-84800830D01*
X111160038Y-84791651D01*
X111180250Y-84784419D01*
X111201074Y-84779203D01*
X111222309Y-84776053D01*
X111243750Y-84775000D01*
X111681250Y-84775000D01*
X111702691Y-84776053D01*
X111702691Y-84776053D01*
G37*
D13*
X111462500Y-85250000D03*
D10*
G36*
X120777691Y-85776053D02*
G01*
X120798926Y-85779203D01*
X120819750Y-85784419D01*
X120839962Y-85791651D01*
X120859368Y-85800830D01*
X120877781Y-85811866D01*
X120895024Y-85824654D01*
X120910930Y-85839070D01*
X120925346Y-85854976D01*
X120938134Y-85872219D01*
X120949170Y-85890632D01*
X120958349Y-85910038D01*
X120965581Y-85930250D01*
X120970797Y-85951074D01*
X120973947Y-85972309D01*
X120975000Y-85993750D01*
X120975000Y-86506250D01*
X120973947Y-86527691D01*
X120970797Y-86548926D01*
X120965581Y-86569750D01*
X120958349Y-86589962D01*
X120949170Y-86609368D01*
X120938134Y-86627781D01*
X120925346Y-86645024D01*
X120910930Y-86660930D01*
X120895024Y-86675346D01*
X120877781Y-86688134D01*
X120859368Y-86699170D01*
X120839962Y-86708349D01*
X120819750Y-86715581D01*
X120798926Y-86720797D01*
X120777691Y-86723947D01*
X120756250Y-86725000D01*
X120318750Y-86725000D01*
X120297309Y-86723947D01*
X120276074Y-86720797D01*
X120255250Y-86715581D01*
X120235038Y-86708349D01*
X120215632Y-86699170D01*
X120197219Y-86688134D01*
X120179976Y-86675346D01*
X120164070Y-86660930D01*
X120149654Y-86645024D01*
X120136866Y-86627781D01*
X120125830Y-86609368D01*
X120116651Y-86589962D01*
X120109419Y-86569750D01*
X120104203Y-86548926D01*
X120101053Y-86527691D01*
X120100000Y-86506250D01*
X120100000Y-85993750D01*
X120101053Y-85972309D01*
X120104203Y-85951074D01*
X120109419Y-85930250D01*
X120116651Y-85910038D01*
X120125830Y-85890632D01*
X120136866Y-85872219D01*
X120149654Y-85854976D01*
X120164070Y-85839070D01*
X120179976Y-85824654D01*
X120197219Y-85811866D01*
X120215632Y-85800830D01*
X120235038Y-85791651D01*
X120255250Y-85784419D01*
X120276074Y-85779203D01*
X120297309Y-85776053D01*
X120318750Y-85775000D01*
X120756250Y-85775000D01*
X120777691Y-85776053D01*
X120777691Y-85776053D01*
G37*
D13*
X120537500Y-86250000D03*
D10*
G36*
X119202691Y-85776053D02*
G01*
X119223926Y-85779203D01*
X119244750Y-85784419D01*
X119264962Y-85791651D01*
X119284368Y-85800830D01*
X119302781Y-85811866D01*
X119320024Y-85824654D01*
X119335930Y-85839070D01*
X119350346Y-85854976D01*
X119363134Y-85872219D01*
X119374170Y-85890632D01*
X119383349Y-85910038D01*
X119390581Y-85930250D01*
X119395797Y-85951074D01*
X119398947Y-85972309D01*
X119400000Y-85993750D01*
X119400000Y-86506250D01*
X119398947Y-86527691D01*
X119395797Y-86548926D01*
X119390581Y-86569750D01*
X119383349Y-86589962D01*
X119374170Y-86609368D01*
X119363134Y-86627781D01*
X119350346Y-86645024D01*
X119335930Y-86660930D01*
X119320024Y-86675346D01*
X119302781Y-86688134D01*
X119284368Y-86699170D01*
X119264962Y-86708349D01*
X119244750Y-86715581D01*
X119223926Y-86720797D01*
X119202691Y-86723947D01*
X119181250Y-86725000D01*
X118743750Y-86725000D01*
X118722309Y-86723947D01*
X118701074Y-86720797D01*
X118680250Y-86715581D01*
X118660038Y-86708349D01*
X118640632Y-86699170D01*
X118622219Y-86688134D01*
X118604976Y-86675346D01*
X118589070Y-86660930D01*
X118574654Y-86645024D01*
X118561866Y-86627781D01*
X118550830Y-86609368D01*
X118541651Y-86589962D01*
X118534419Y-86569750D01*
X118529203Y-86548926D01*
X118526053Y-86527691D01*
X118525000Y-86506250D01*
X118525000Y-85993750D01*
X118526053Y-85972309D01*
X118529203Y-85951074D01*
X118534419Y-85930250D01*
X118541651Y-85910038D01*
X118550830Y-85890632D01*
X118561866Y-85872219D01*
X118574654Y-85854976D01*
X118589070Y-85839070D01*
X118604976Y-85824654D01*
X118622219Y-85811866D01*
X118640632Y-85800830D01*
X118660038Y-85791651D01*
X118680250Y-85784419D01*
X118701074Y-85779203D01*
X118722309Y-85776053D01*
X118743750Y-85775000D01*
X119181250Y-85775000D01*
X119202691Y-85776053D01*
X119202691Y-85776053D01*
G37*
D13*
X118962500Y-86250000D03*
D10*
G36*
X104452691Y-103526053D02*
G01*
X104473926Y-103529203D01*
X104494750Y-103534419D01*
X104514962Y-103541651D01*
X104534368Y-103550830D01*
X104552781Y-103561866D01*
X104570024Y-103574654D01*
X104585930Y-103589070D01*
X104600346Y-103604976D01*
X104613134Y-103622219D01*
X104624170Y-103640632D01*
X104633349Y-103660038D01*
X104640581Y-103680250D01*
X104645797Y-103701074D01*
X104648947Y-103722309D01*
X104650000Y-103743750D01*
X104650000Y-104256250D01*
X104648947Y-104277691D01*
X104645797Y-104298926D01*
X104640581Y-104319750D01*
X104633349Y-104339962D01*
X104624170Y-104359368D01*
X104613134Y-104377781D01*
X104600346Y-104395024D01*
X104585930Y-104410930D01*
X104570024Y-104425346D01*
X104552781Y-104438134D01*
X104534368Y-104449170D01*
X104514962Y-104458349D01*
X104494750Y-104465581D01*
X104473926Y-104470797D01*
X104452691Y-104473947D01*
X104431250Y-104475000D01*
X103993750Y-104475000D01*
X103972309Y-104473947D01*
X103951074Y-104470797D01*
X103930250Y-104465581D01*
X103910038Y-104458349D01*
X103890632Y-104449170D01*
X103872219Y-104438134D01*
X103854976Y-104425346D01*
X103839070Y-104410930D01*
X103824654Y-104395024D01*
X103811866Y-104377781D01*
X103800830Y-104359368D01*
X103791651Y-104339962D01*
X103784419Y-104319750D01*
X103779203Y-104298926D01*
X103776053Y-104277691D01*
X103775000Y-104256250D01*
X103775000Y-103743750D01*
X103776053Y-103722309D01*
X103779203Y-103701074D01*
X103784419Y-103680250D01*
X103791651Y-103660038D01*
X103800830Y-103640632D01*
X103811866Y-103622219D01*
X103824654Y-103604976D01*
X103839070Y-103589070D01*
X103854976Y-103574654D01*
X103872219Y-103561866D01*
X103890632Y-103550830D01*
X103910038Y-103541651D01*
X103930250Y-103534419D01*
X103951074Y-103529203D01*
X103972309Y-103526053D01*
X103993750Y-103525000D01*
X104431250Y-103525000D01*
X104452691Y-103526053D01*
X104452691Y-103526053D01*
G37*
D13*
X104212500Y-104000000D03*
D10*
G36*
X106027691Y-103526053D02*
G01*
X106048926Y-103529203D01*
X106069750Y-103534419D01*
X106089962Y-103541651D01*
X106109368Y-103550830D01*
X106127781Y-103561866D01*
X106145024Y-103574654D01*
X106160930Y-103589070D01*
X106175346Y-103604976D01*
X106188134Y-103622219D01*
X106199170Y-103640632D01*
X106208349Y-103660038D01*
X106215581Y-103680250D01*
X106220797Y-103701074D01*
X106223947Y-103722309D01*
X106225000Y-103743750D01*
X106225000Y-104256250D01*
X106223947Y-104277691D01*
X106220797Y-104298926D01*
X106215581Y-104319750D01*
X106208349Y-104339962D01*
X106199170Y-104359368D01*
X106188134Y-104377781D01*
X106175346Y-104395024D01*
X106160930Y-104410930D01*
X106145024Y-104425346D01*
X106127781Y-104438134D01*
X106109368Y-104449170D01*
X106089962Y-104458349D01*
X106069750Y-104465581D01*
X106048926Y-104470797D01*
X106027691Y-104473947D01*
X106006250Y-104475000D01*
X105568750Y-104475000D01*
X105547309Y-104473947D01*
X105526074Y-104470797D01*
X105505250Y-104465581D01*
X105485038Y-104458349D01*
X105465632Y-104449170D01*
X105447219Y-104438134D01*
X105429976Y-104425346D01*
X105414070Y-104410930D01*
X105399654Y-104395024D01*
X105386866Y-104377781D01*
X105375830Y-104359368D01*
X105366651Y-104339962D01*
X105359419Y-104319750D01*
X105354203Y-104298926D01*
X105351053Y-104277691D01*
X105350000Y-104256250D01*
X105350000Y-103743750D01*
X105351053Y-103722309D01*
X105354203Y-103701074D01*
X105359419Y-103680250D01*
X105366651Y-103660038D01*
X105375830Y-103640632D01*
X105386866Y-103622219D01*
X105399654Y-103604976D01*
X105414070Y-103589070D01*
X105429976Y-103574654D01*
X105447219Y-103561866D01*
X105465632Y-103550830D01*
X105485038Y-103541651D01*
X105505250Y-103534419D01*
X105526074Y-103529203D01*
X105547309Y-103526053D01*
X105568750Y-103525000D01*
X106006250Y-103525000D01*
X106027691Y-103526053D01*
X106027691Y-103526053D01*
G37*
D13*
X105787500Y-104000000D03*
D10*
G36*
X130702691Y-79276053D02*
G01*
X130723926Y-79279203D01*
X130744750Y-79284419D01*
X130764962Y-79291651D01*
X130784368Y-79300830D01*
X130802781Y-79311866D01*
X130820024Y-79324654D01*
X130835930Y-79339070D01*
X130850346Y-79354976D01*
X130863134Y-79372219D01*
X130874170Y-79390632D01*
X130883349Y-79410038D01*
X130890581Y-79430250D01*
X130895797Y-79451074D01*
X130898947Y-79472309D01*
X130900000Y-79493750D01*
X130900000Y-80006250D01*
X130898947Y-80027691D01*
X130895797Y-80048926D01*
X130890581Y-80069750D01*
X130883349Y-80089962D01*
X130874170Y-80109368D01*
X130863134Y-80127781D01*
X130850346Y-80145024D01*
X130835930Y-80160930D01*
X130820024Y-80175346D01*
X130802781Y-80188134D01*
X130784368Y-80199170D01*
X130764962Y-80208349D01*
X130744750Y-80215581D01*
X130723926Y-80220797D01*
X130702691Y-80223947D01*
X130681250Y-80225000D01*
X130243750Y-80225000D01*
X130222309Y-80223947D01*
X130201074Y-80220797D01*
X130180250Y-80215581D01*
X130160038Y-80208349D01*
X130140632Y-80199170D01*
X130122219Y-80188134D01*
X130104976Y-80175346D01*
X130089070Y-80160930D01*
X130074654Y-80145024D01*
X130061866Y-80127781D01*
X130050830Y-80109368D01*
X130041651Y-80089962D01*
X130034419Y-80069750D01*
X130029203Y-80048926D01*
X130026053Y-80027691D01*
X130025000Y-80006250D01*
X130025000Y-79493750D01*
X130026053Y-79472309D01*
X130029203Y-79451074D01*
X130034419Y-79430250D01*
X130041651Y-79410038D01*
X130050830Y-79390632D01*
X130061866Y-79372219D01*
X130074654Y-79354976D01*
X130089070Y-79339070D01*
X130104976Y-79324654D01*
X130122219Y-79311866D01*
X130140632Y-79300830D01*
X130160038Y-79291651D01*
X130180250Y-79284419D01*
X130201074Y-79279203D01*
X130222309Y-79276053D01*
X130243750Y-79275000D01*
X130681250Y-79275000D01*
X130702691Y-79276053D01*
X130702691Y-79276053D01*
G37*
D13*
X130462500Y-79750000D03*
D10*
G36*
X132277691Y-79276053D02*
G01*
X132298926Y-79279203D01*
X132319750Y-79284419D01*
X132339962Y-79291651D01*
X132359368Y-79300830D01*
X132377781Y-79311866D01*
X132395024Y-79324654D01*
X132410930Y-79339070D01*
X132425346Y-79354976D01*
X132438134Y-79372219D01*
X132449170Y-79390632D01*
X132458349Y-79410038D01*
X132465581Y-79430250D01*
X132470797Y-79451074D01*
X132473947Y-79472309D01*
X132475000Y-79493750D01*
X132475000Y-80006250D01*
X132473947Y-80027691D01*
X132470797Y-80048926D01*
X132465581Y-80069750D01*
X132458349Y-80089962D01*
X132449170Y-80109368D01*
X132438134Y-80127781D01*
X132425346Y-80145024D01*
X132410930Y-80160930D01*
X132395024Y-80175346D01*
X132377781Y-80188134D01*
X132359368Y-80199170D01*
X132339962Y-80208349D01*
X132319750Y-80215581D01*
X132298926Y-80220797D01*
X132277691Y-80223947D01*
X132256250Y-80225000D01*
X131818750Y-80225000D01*
X131797309Y-80223947D01*
X131776074Y-80220797D01*
X131755250Y-80215581D01*
X131735038Y-80208349D01*
X131715632Y-80199170D01*
X131697219Y-80188134D01*
X131679976Y-80175346D01*
X131664070Y-80160930D01*
X131649654Y-80145024D01*
X131636866Y-80127781D01*
X131625830Y-80109368D01*
X131616651Y-80089962D01*
X131609419Y-80069750D01*
X131604203Y-80048926D01*
X131601053Y-80027691D01*
X131600000Y-80006250D01*
X131600000Y-79493750D01*
X131601053Y-79472309D01*
X131604203Y-79451074D01*
X131609419Y-79430250D01*
X131616651Y-79410038D01*
X131625830Y-79390632D01*
X131636866Y-79372219D01*
X131649654Y-79354976D01*
X131664070Y-79339070D01*
X131679976Y-79324654D01*
X131697219Y-79311866D01*
X131715632Y-79300830D01*
X131735038Y-79291651D01*
X131755250Y-79284419D01*
X131776074Y-79279203D01*
X131797309Y-79276053D01*
X131818750Y-79275000D01*
X132256250Y-79275000D01*
X132277691Y-79276053D01*
X132277691Y-79276053D01*
G37*
D13*
X132037500Y-79750000D03*
D10*
G36*
X108777691Y-103526053D02*
G01*
X108798926Y-103529203D01*
X108819750Y-103534419D01*
X108839962Y-103541651D01*
X108859368Y-103550830D01*
X108877781Y-103561866D01*
X108895024Y-103574654D01*
X108910930Y-103589070D01*
X108925346Y-103604976D01*
X108938134Y-103622219D01*
X108949170Y-103640632D01*
X108958349Y-103660038D01*
X108965581Y-103680250D01*
X108970797Y-103701074D01*
X108973947Y-103722309D01*
X108975000Y-103743750D01*
X108975000Y-104256250D01*
X108973947Y-104277691D01*
X108970797Y-104298926D01*
X108965581Y-104319750D01*
X108958349Y-104339962D01*
X108949170Y-104359368D01*
X108938134Y-104377781D01*
X108925346Y-104395024D01*
X108910930Y-104410930D01*
X108895024Y-104425346D01*
X108877781Y-104438134D01*
X108859368Y-104449170D01*
X108839962Y-104458349D01*
X108819750Y-104465581D01*
X108798926Y-104470797D01*
X108777691Y-104473947D01*
X108756250Y-104475000D01*
X108318750Y-104475000D01*
X108297309Y-104473947D01*
X108276074Y-104470797D01*
X108255250Y-104465581D01*
X108235038Y-104458349D01*
X108215632Y-104449170D01*
X108197219Y-104438134D01*
X108179976Y-104425346D01*
X108164070Y-104410930D01*
X108149654Y-104395024D01*
X108136866Y-104377781D01*
X108125830Y-104359368D01*
X108116651Y-104339962D01*
X108109419Y-104319750D01*
X108104203Y-104298926D01*
X108101053Y-104277691D01*
X108100000Y-104256250D01*
X108100000Y-103743750D01*
X108101053Y-103722309D01*
X108104203Y-103701074D01*
X108109419Y-103680250D01*
X108116651Y-103660038D01*
X108125830Y-103640632D01*
X108136866Y-103622219D01*
X108149654Y-103604976D01*
X108164070Y-103589070D01*
X108179976Y-103574654D01*
X108197219Y-103561866D01*
X108215632Y-103550830D01*
X108235038Y-103541651D01*
X108255250Y-103534419D01*
X108276074Y-103529203D01*
X108297309Y-103526053D01*
X108318750Y-103525000D01*
X108756250Y-103525000D01*
X108777691Y-103526053D01*
X108777691Y-103526053D01*
G37*
D13*
X108537500Y-104000000D03*
D10*
G36*
X107202691Y-103526053D02*
G01*
X107223926Y-103529203D01*
X107244750Y-103534419D01*
X107264962Y-103541651D01*
X107284368Y-103550830D01*
X107302781Y-103561866D01*
X107320024Y-103574654D01*
X107335930Y-103589070D01*
X107350346Y-103604976D01*
X107363134Y-103622219D01*
X107374170Y-103640632D01*
X107383349Y-103660038D01*
X107390581Y-103680250D01*
X107395797Y-103701074D01*
X107398947Y-103722309D01*
X107400000Y-103743750D01*
X107400000Y-104256250D01*
X107398947Y-104277691D01*
X107395797Y-104298926D01*
X107390581Y-104319750D01*
X107383349Y-104339962D01*
X107374170Y-104359368D01*
X107363134Y-104377781D01*
X107350346Y-104395024D01*
X107335930Y-104410930D01*
X107320024Y-104425346D01*
X107302781Y-104438134D01*
X107284368Y-104449170D01*
X107264962Y-104458349D01*
X107244750Y-104465581D01*
X107223926Y-104470797D01*
X107202691Y-104473947D01*
X107181250Y-104475000D01*
X106743750Y-104475000D01*
X106722309Y-104473947D01*
X106701074Y-104470797D01*
X106680250Y-104465581D01*
X106660038Y-104458349D01*
X106640632Y-104449170D01*
X106622219Y-104438134D01*
X106604976Y-104425346D01*
X106589070Y-104410930D01*
X106574654Y-104395024D01*
X106561866Y-104377781D01*
X106550830Y-104359368D01*
X106541651Y-104339962D01*
X106534419Y-104319750D01*
X106529203Y-104298926D01*
X106526053Y-104277691D01*
X106525000Y-104256250D01*
X106525000Y-103743750D01*
X106526053Y-103722309D01*
X106529203Y-103701074D01*
X106534419Y-103680250D01*
X106541651Y-103660038D01*
X106550830Y-103640632D01*
X106561866Y-103622219D01*
X106574654Y-103604976D01*
X106589070Y-103589070D01*
X106604976Y-103574654D01*
X106622219Y-103561866D01*
X106640632Y-103550830D01*
X106660038Y-103541651D01*
X106680250Y-103534419D01*
X106701074Y-103529203D01*
X106722309Y-103526053D01*
X106743750Y-103525000D01*
X107181250Y-103525000D01*
X107202691Y-103526053D01*
X107202691Y-103526053D01*
G37*
D13*
X106962500Y-104000000D03*
D10*
G36*
X129777691Y-79276053D02*
G01*
X129798926Y-79279203D01*
X129819750Y-79284419D01*
X129839962Y-79291651D01*
X129859368Y-79300830D01*
X129877781Y-79311866D01*
X129895024Y-79324654D01*
X129910930Y-79339070D01*
X129925346Y-79354976D01*
X129938134Y-79372219D01*
X129949170Y-79390632D01*
X129958349Y-79410038D01*
X129965581Y-79430250D01*
X129970797Y-79451074D01*
X129973947Y-79472309D01*
X129975000Y-79493750D01*
X129975000Y-80006250D01*
X129973947Y-80027691D01*
X129970797Y-80048926D01*
X129965581Y-80069750D01*
X129958349Y-80089962D01*
X129949170Y-80109368D01*
X129938134Y-80127781D01*
X129925346Y-80145024D01*
X129910930Y-80160930D01*
X129895024Y-80175346D01*
X129877781Y-80188134D01*
X129859368Y-80199170D01*
X129839962Y-80208349D01*
X129819750Y-80215581D01*
X129798926Y-80220797D01*
X129777691Y-80223947D01*
X129756250Y-80225000D01*
X129318750Y-80225000D01*
X129297309Y-80223947D01*
X129276074Y-80220797D01*
X129255250Y-80215581D01*
X129235038Y-80208349D01*
X129215632Y-80199170D01*
X129197219Y-80188134D01*
X129179976Y-80175346D01*
X129164070Y-80160930D01*
X129149654Y-80145024D01*
X129136866Y-80127781D01*
X129125830Y-80109368D01*
X129116651Y-80089962D01*
X129109419Y-80069750D01*
X129104203Y-80048926D01*
X129101053Y-80027691D01*
X129100000Y-80006250D01*
X129100000Y-79493750D01*
X129101053Y-79472309D01*
X129104203Y-79451074D01*
X129109419Y-79430250D01*
X129116651Y-79410038D01*
X129125830Y-79390632D01*
X129136866Y-79372219D01*
X129149654Y-79354976D01*
X129164070Y-79339070D01*
X129179976Y-79324654D01*
X129197219Y-79311866D01*
X129215632Y-79300830D01*
X129235038Y-79291651D01*
X129255250Y-79284419D01*
X129276074Y-79279203D01*
X129297309Y-79276053D01*
X129318750Y-79275000D01*
X129756250Y-79275000D01*
X129777691Y-79276053D01*
X129777691Y-79276053D01*
G37*
D13*
X129537500Y-79750000D03*
D10*
G36*
X128202691Y-79276053D02*
G01*
X128223926Y-79279203D01*
X128244750Y-79284419D01*
X128264962Y-79291651D01*
X128284368Y-79300830D01*
X128302781Y-79311866D01*
X128320024Y-79324654D01*
X128335930Y-79339070D01*
X128350346Y-79354976D01*
X128363134Y-79372219D01*
X128374170Y-79390632D01*
X128383349Y-79410038D01*
X128390581Y-79430250D01*
X128395797Y-79451074D01*
X128398947Y-79472309D01*
X128400000Y-79493750D01*
X128400000Y-80006250D01*
X128398947Y-80027691D01*
X128395797Y-80048926D01*
X128390581Y-80069750D01*
X128383349Y-80089962D01*
X128374170Y-80109368D01*
X128363134Y-80127781D01*
X128350346Y-80145024D01*
X128335930Y-80160930D01*
X128320024Y-80175346D01*
X128302781Y-80188134D01*
X128284368Y-80199170D01*
X128264962Y-80208349D01*
X128244750Y-80215581D01*
X128223926Y-80220797D01*
X128202691Y-80223947D01*
X128181250Y-80225000D01*
X127743750Y-80225000D01*
X127722309Y-80223947D01*
X127701074Y-80220797D01*
X127680250Y-80215581D01*
X127660038Y-80208349D01*
X127640632Y-80199170D01*
X127622219Y-80188134D01*
X127604976Y-80175346D01*
X127589070Y-80160930D01*
X127574654Y-80145024D01*
X127561866Y-80127781D01*
X127550830Y-80109368D01*
X127541651Y-80089962D01*
X127534419Y-80069750D01*
X127529203Y-80048926D01*
X127526053Y-80027691D01*
X127525000Y-80006250D01*
X127525000Y-79493750D01*
X127526053Y-79472309D01*
X127529203Y-79451074D01*
X127534419Y-79430250D01*
X127541651Y-79410038D01*
X127550830Y-79390632D01*
X127561866Y-79372219D01*
X127574654Y-79354976D01*
X127589070Y-79339070D01*
X127604976Y-79324654D01*
X127622219Y-79311866D01*
X127640632Y-79300830D01*
X127660038Y-79291651D01*
X127680250Y-79284419D01*
X127701074Y-79279203D01*
X127722309Y-79276053D01*
X127743750Y-79275000D01*
X128181250Y-79275000D01*
X128202691Y-79276053D01*
X128202691Y-79276053D01*
G37*
D13*
X127962500Y-79750000D03*
D14*
X106800000Y-81500000D03*
D10*
G36*
X109924504Y-80501204D02*
G01*
X109948773Y-80504804D01*
X109972571Y-80510765D01*
X109995671Y-80519030D01*
X110017849Y-80529520D01*
X110038893Y-80542133D01*
X110058598Y-80556747D01*
X110076777Y-80573223D01*
X110093253Y-80591402D01*
X110107867Y-80611107D01*
X110120480Y-80632151D01*
X110130970Y-80654329D01*
X110139235Y-80677429D01*
X110145196Y-80701227D01*
X110148796Y-80725496D01*
X110150000Y-80750000D01*
X110150000Y-82250000D01*
X110148796Y-82274504D01*
X110145196Y-82298773D01*
X110139235Y-82322571D01*
X110130970Y-82345671D01*
X110120480Y-82367849D01*
X110107867Y-82388893D01*
X110093253Y-82408598D01*
X110076777Y-82426777D01*
X110058598Y-82443253D01*
X110038893Y-82457867D01*
X110017849Y-82470480D01*
X109995671Y-82480970D01*
X109972571Y-82489235D01*
X109948773Y-82495196D01*
X109924504Y-82498796D01*
X109900000Y-82500000D01*
X108700000Y-82500000D01*
X108675496Y-82498796D01*
X108651227Y-82495196D01*
X108627429Y-82489235D01*
X108604329Y-82480970D01*
X108582151Y-82470480D01*
X108561107Y-82457867D01*
X108541402Y-82443253D01*
X108523223Y-82426777D01*
X108506747Y-82408598D01*
X108492133Y-82388893D01*
X108479520Y-82367849D01*
X108469030Y-82345671D01*
X108460765Y-82322571D01*
X108454804Y-82298773D01*
X108451204Y-82274504D01*
X108450000Y-82250000D01*
X108450000Y-80750000D01*
X108451204Y-80725496D01*
X108454804Y-80701227D01*
X108460765Y-80677429D01*
X108469030Y-80654329D01*
X108479520Y-80632151D01*
X108492133Y-80611107D01*
X108506747Y-80591402D01*
X108523223Y-80573223D01*
X108541402Y-80556747D01*
X108561107Y-80542133D01*
X108582151Y-80529520D01*
X108604329Y-80519030D01*
X108627429Y-80510765D01*
X108651227Y-80504804D01*
X108675496Y-80501204D01*
X108700000Y-80500000D01*
X109900000Y-80500000D01*
X109924504Y-80501204D01*
X109924504Y-80501204D01*
G37*
D11*
X109300000Y-81500000D03*
D10*
G36*
X125389504Y-99223204D02*
G01*
X125413773Y-99226804D01*
X125437571Y-99232765D01*
X125460671Y-99241030D01*
X125482849Y-99251520D01*
X125503893Y-99264133D01*
X125523598Y-99278747D01*
X125541777Y-99295223D01*
X125558253Y-99313402D01*
X125572867Y-99333107D01*
X125585480Y-99354151D01*
X125595970Y-99376329D01*
X125604235Y-99399429D01*
X125610196Y-99423227D01*
X125613796Y-99447496D01*
X125615000Y-99472000D01*
X125615000Y-100672000D01*
X125613796Y-100696504D01*
X125610196Y-100720773D01*
X125604235Y-100744571D01*
X125595970Y-100767671D01*
X125585480Y-100789849D01*
X125572867Y-100810893D01*
X125558253Y-100830598D01*
X125541777Y-100848777D01*
X125523598Y-100865253D01*
X125503893Y-100879867D01*
X125482849Y-100892480D01*
X125460671Y-100902970D01*
X125437571Y-100911235D01*
X125413773Y-100917196D01*
X125389504Y-100920796D01*
X125365000Y-100922000D01*
X123915000Y-100922000D01*
X123890496Y-100920796D01*
X123866227Y-100917196D01*
X123842429Y-100911235D01*
X123819329Y-100902970D01*
X123797151Y-100892480D01*
X123776107Y-100879867D01*
X123756402Y-100865253D01*
X123738223Y-100848777D01*
X123721747Y-100830598D01*
X123707133Y-100810893D01*
X123694520Y-100789849D01*
X123684030Y-100767671D01*
X123675765Y-100744571D01*
X123669804Y-100720773D01*
X123666204Y-100696504D01*
X123665000Y-100672000D01*
X123665000Y-99472000D01*
X123666204Y-99447496D01*
X123669804Y-99423227D01*
X123675765Y-99399429D01*
X123684030Y-99376329D01*
X123694520Y-99354151D01*
X123707133Y-99333107D01*
X123721747Y-99313402D01*
X123738223Y-99295223D01*
X123756402Y-99278747D01*
X123776107Y-99264133D01*
X123797151Y-99251520D01*
X123819329Y-99241030D01*
X123842429Y-99232765D01*
X123866227Y-99226804D01*
X123890496Y-99223204D01*
X123915000Y-99222000D01*
X125365000Y-99222000D01*
X125389504Y-99223204D01*
X125389504Y-99223204D01*
G37*
D11*
X124640000Y-100072000D03*
D12*
X124640000Y-97572000D03*
X124640000Y-95072000D03*
X124640000Y-92572000D03*
X124640000Y-90072000D03*
X124640000Y-87572000D03*
D10*
G36*
X118124504Y-80501204D02*
G01*
X118148773Y-80504804D01*
X118172571Y-80510765D01*
X118195671Y-80519030D01*
X118217849Y-80529520D01*
X118238893Y-80542133D01*
X118258598Y-80556747D01*
X118276777Y-80573223D01*
X118293253Y-80591402D01*
X118307867Y-80611107D01*
X118320480Y-80632151D01*
X118330970Y-80654329D01*
X118339235Y-80677429D01*
X118345196Y-80701227D01*
X118348796Y-80725496D01*
X118350000Y-80750000D01*
X118350000Y-82250000D01*
X118348796Y-82274504D01*
X118345196Y-82298773D01*
X118339235Y-82322571D01*
X118330970Y-82345671D01*
X118320480Y-82367849D01*
X118307867Y-82388893D01*
X118293253Y-82408598D01*
X118276777Y-82426777D01*
X118258598Y-82443253D01*
X118238893Y-82457867D01*
X118217849Y-82470480D01*
X118195671Y-82480970D01*
X118172571Y-82489235D01*
X118148773Y-82495196D01*
X118124504Y-82498796D01*
X118100000Y-82500000D01*
X116900000Y-82500000D01*
X116875496Y-82498796D01*
X116851227Y-82495196D01*
X116827429Y-82489235D01*
X116804329Y-82480970D01*
X116782151Y-82470480D01*
X116761107Y-82457867D01*
X116741402Y-82443253D01*
X116723223Y-82426777D01*
X116706747Y-82408598D01*
X116692133Y-82388893D01*
X116679520Y-82367849D01*
X116669030Y-82345671D01*
X116660765Y-82322571D01*
X116654804Y-82298773D01*
X116651204Y-82274504D01*
X116650000Y-82250000D01*
X116650000Y-80750000D01*
X116651204Y-80725496D01*
X116654804Y-80701227D01*
X116660765Y-80677429D01*
X116669030Y-80654329D01*
X116679520Y-80632151D01*
X116692133Y-80611107D01*
X116706747Y-80591402D01*
X116723223Y-80573223D01*
X116741402Y-80556747D01*
X116761107Y-80542133D01*
X116782151Y-80529520D01*
X116804329Y-80519030D01*
X116827429Y-80510765D01*
X116851227Y-80504804D01*
X116875496Y-80501204D01*
X116900000Y-80500000D01*
X118100000Y-80500000D01*
X118124504Y-80501204D01*
X118124504Y-80501204D01*
G37*
D11*
X117500000Y-81500000D03*
D14*
X115000000Y-81500000D03*
D15*
X124000000Y-78000000D03*
X124000000Y-75500000D03*
D16*
X112500000Y-88500000D03*
D17*
X120120000Y-106280000D03*
X112500000Y-91040000D03*
X120120000Y-103740000D03*
X112500000Y-93580000D03*
X120120000Y-101200000D03*
X112500000Y-96120000D03*
X120120000Y-98660000D03*
X112500000Y-98660000D03*
X120120000Y-96120000D03*
X112500000Y-101200000D03*
X120120000Y-93580000D03*
X112500000Y-103740000D03*
X120120000Y-91040000D03*
X112500000Y-106280000D03*
X120120000Y-88500000D03*
D10*
G36*
X109202691Y-86776053D02*
G01*
X109223926Y-86779203D01*
X109244750Y-86784419D01*
X109264962Y-86791651D01*
X109284368Y-86800830D01*
X109302781Y-86811866D01*
X109320024Y-86824654D01*
X109335930Y-86839070D01*
X109350346Y-86854976D01*
X109363134Y-86872219D01*
X109374170Y-86890632D01*
X109383349Y-86910038D01*
X109390581Y-86930250D01*
X109395797Y-86951074D01*
X109398947Y-86972309D01*
X109400000Y-86993750D01*
X109400000Y-87506250D01*
X109398947Y-87527691D01*
X109395797Y-87548926D01*
X109390581Y-87569750D01*
X109383349Y-87589962D01*
X109374170Y-87609368D01*
X109363134Y-87627781D01*
X109350346Y-87645024D01*
X109335930Y-87660930D01*
X109320024Y-87675346D01*
X109302781Y-87688134D01*
X109284368Y-87699170D01*
X109264962Y-87708349D01*
X109244750Y-87715581D01*
X109223926Y-87720797D01*
X109202691Y-87723947D01*
X109181250Y-87725000D01*
X108743750Y-87725000D01*
X108722309Y-87723947D01*
X108701074Y-87720797D01*
X108680250Y-87715581D01*
X108660038Y-87708349D01*
X108640632Y-87699170D01*
X108622219Y-87688134D01*
X108604976Y-87675346D01*
X108589070Y-87660930D01*
X108574654Y-87645024D01*
X108561866Y-87627781D01*
X108550830Y-87609368D01*
X108541651Y-87589962D01*
X108534419Y-87569750D01*
X108529203Y-87548926D01*
X108526053Y-87527691D01*
X108525000Y-87506250D01*
X108525000Y-86993750D01*
X108526053Y-86972309D01*
X108529203Y-86951074D01*
X108534419Y-86930250D01*
X108541651Y-86910038D01*
X108550830Y-86890632D01*
X108561866Y-86872219D01*
X108574654Y-86854976D01*
X108589070Y-86839070D01*
X108604976Y-86824654D01*
X108622219Y-86811866D01*
X108640632Y-86800830D01*
X108660038Y-86791651D01*
X108680250Y-86784419D01*
X108701074Y-86779203D01*
X108722309Y-86776053D01*
X108743750Y-86775000D01*
X109181250Y-86775000D01*
X109202691Y-86776053D01*
X109202691Y-86776053D01*
G37*
D13*
X108962500Y-87250000D03*
D10*
G36*
X110777691Y-86776053D02*
G01*
X110798926Y-86779203D01*
X110819750Y-86784419D01*
X110839962Y-86791651D01*
X110859368Y-86800830D01*
X110877781Y-86811866D01*
X110895024Y-86824654D01*
X110910930Y-86839070D01*
X110925346Y-86854976D01*
X110938134Y-86872219D01*
X110949170Y-86890632D01*
X110958349Y-86910038D01*
X110965581Y-86930250D01*
X110970797Y-86951074D01*
X110973947Y-86972309D01*
X110975000Y-86993750D01*
X110975000Y-87506250D01*
X110973947Y-87527691D01*
X110970797Y-87548926D01*
X110965581Y-87569750D01*
X110958349Y-87589962D01*
X110949170Y-87609368D01*
X110938134Y-87627781D01*
X110925346Y-87645024D01*
X110910930Y-87660930D01*
X110895024Y-87675346D01*
X110877781Y-87688134D01*
X110859368Y-87699170D01*
X110839962Y-87708349D01*
X110819750Y-87715581D01*
X110798926Y-87720797D01*
X110777691Y-87723947D01*
X110756250Y-87725000D01*
X110318750Y-87725000D01*
X110297309Y-87723947D01*
X110276074Y-87720797D01*
X110255250Y-87715581D01*
X110235038Y-87708349D01*
X110215632Y-87699170D01*
X110197219Y-87688134D01*
X110179976Y-87675346D01*
X110164070Y-87660930D01*
X110149654Y-87645024D01*
X110136866Y-87627781D01*
X110125830Y-87609368D01*
X110116651Y-87589962D01*
X110109419Y-87569750D01*
X110104203Y-87548926D01*
X110101053Y-87527691D01*
X110100000Y-87506250D01*
X110100000Y-86993750D01*
X110101053Y-86972309D01*
X110104203Y-86951074D01*
X110109419Y-86930250D01*
X110116651Y-86910038D01*
X110125830Y-86890632D01*
X110136866Y-86872219D01*
X110149654Y-86854976D01*
X110164070Y-86839070D01*
X110179976Y-86824654D01*
X110197219Y-86811866D01*
X110215632Y-86800830D01*
X110235038Y-86791651D01*
X110255250Y-86784419D01*
X110276074Y-86779203D01*
X110297309Y-86776053D01*
X110318750Y-86775000D01*
X110756250Y-86775000D01*
X110777691Y-86776053D01*
X110777691Y-86776053D01*
G37*
D13*
X110537500Y-87250000D03*
D10*
G36*
X110527691Y-92526053D02*
G01*
X110548926Y-92529203D01*
X110569750Y-92534419D01*
X110589962Y-92541651D01*
X110609368Y-92550830D01*
X110627781Y-92561866D01*
X110645024Y-92574654D01*
X110660930Y-92589070D01*
X110675346Y-92604976D01*
X110688134Y-92622219D01*
X110699170Y-92640632D01*
X110708349Y-92660038D01*
X110715581Y-92680250D01*
X110720797Y-92701074D01*
X110723947Y-92722309D01*
X110725000Y-92743750D01*
X110725000Y-93256250D01*
X110723947Y-93277691D01*
X110720797Y-93298926D01*
X110715581Y-93319750D01*
X110708349Y-93339962D01*
X110699170Y-93359368D01*
X110688134Y-93377781D01*
X110675346Y-93395024D01*
X110660930Y-93410930D01*
X110645024Y-93425346D01*
X110627781Y-93438134D01*
X110609368Y-93449170D01*
X110589962Y-93458349D01*
X110569750Y-93465581D01*
X110548926Y-93470797D01*
X110527691Y-93473947D01*
X110506250Y-93475000D01*
X110068750Y-93475000D01*
X110047309Y-93473947D01*
X110026074Y-93470797D01*
X110005250Y-93465581D01*
X109985038Y-93458349D01*
X109965632Y-93449170D01*
X109947219Y-93438134D01*
X109929976Y-93425346D01*
X109914070Y-93410930D01*
X109899654Y-93395024D01*
X109886866Y-93377781D01*
X109875830Y-93359368D01*
X109866651Y-93339962D01*
X109859419Y-93319750D01*
X109854203Y-93298926D01*
X109851053Y-93277691D01*
X109850000Y-93256250D01*
X109850000Y-92743750D01*
X109851053Y-92722309D01*
X109854203Y-92701074D01*
X109859419Y-92680250D01*
X109866651Y-92660038D01*
X109875830Y-92640632D01*
X109886866Y-92622219D01*
X109899654Y-92604976D01*
X109914070Y-92589070D01*
X109929976Y-92574654D01*
X109947219Y-92561866D01*
X109965632Y-92550830D01*
X109985038Y-92541651D01*
X110005250Y-92534419D01*
X110026074Y-92529203D01*
X110047309Y-92526053D01*
X110068750Y-92525000D01*
X110506250Y-92525000D01*
X110527691Y-92526053D01*
X110527691Y-92526053D01*
G37*
D13*
X110287500Y-93000000D03*
D10*
G36*
X108952691Y-92526053D02*
G01*
X108973926Y-92529203D01*
X108994750Y-92534419D01*
X109014962Y-92541651D01*
X109034368Y-92550830D01*
X109052781Y-92561866D01*
X109070024Y-92574654D01*
X109085930Y-92589070D01*
X109100346Y-92604976D01*
X109113134Y-92622219D01*
X109124170Y-92640632D01*
X109133349Y-92660038D01*
X109140581Y-92680250D01*
X109145797Y-92701074D01*
X109148947Y-92722309D01*
X109150000Y-92743750D01*
X109150000Y-93256250D01*
X109148947Y-93277691D01*
X109145797Y-93298926D01*
X109140581Y-93319750D01*
X109133349Y-93339962D01*
X109124170Y-93359368D01*
X109113134Y-93377781D01*
X109100346Y-93395024D01*
X109085930Y-93410930D01*
X109070024Y-93425346D01*
X109052781Y-93438134D01*
X109034368Y-93449170D01*
X109014962Y-93458349D01*
X108994750Y-93465581D01*
X108973926Y-93470797D01*
X108952691Y-93473947D01*
X108931250Y-93475000D01*
X108493750Y-93475000D01*
X108472309Y-93473947D01*
X108451074Y-93470797D01*
X108430250Y-93465581D01*
X108410038Y-93458349D01*
X108390632Y-93449170D01*
X108372219Y-93438134D01*
X108354976Y-93425346D01*
X108339070Y-93410930D01*
X108324654Y-93395024D01*
X108311866Y-93377781D01*
X108300830Y-93359368D01*
X108291651Y-93339962D01*
X108284419Y-93319750D01*
X108279203Y-93298926D01*
X108276053Y-93277691D01*
X108275000Y-93256250D01*
X108275000Y-92743750D01*
X108276053Y-92722309D01*
X108279203Y-92701074D01*
X108284419Y-92680250D01*
X108291651Y-92660038D01*
X108300830Y-92640632D01*
X108311866Y-92622219D01*
X108324654Y-92604976D01*
X108339070Y-92589070D01*
X108354976Y-92574654D01*
X108372219Y-92561866D01*
X108390632Y-92550830D01*
X108410038Y-92541651D01*
X108430250Y-92534419D01*
X108451074Y-92529203D01*
X108472309Y-92526053D01*
X108493750Y-92525000D01*
X108931250Y-92525000D01*
X108952691Y-92526053D01*
X108952691Y-92526053D01*
G37*
D13*
X108712500Y-93000000D03*
D10*
G36*
X108952691Y-98276053D02*
G01*
X108973926Y-98279203D01*
X108994750Y-98284419D01*
X109014962Y-98291651D01*
X109034368Y-98300830D01*
X109052781Y-98311866D01*
X109070024Y-98324654D01*
X109085930Y-98339070D01*
X109100346Y-98354976D01*
X109113134Y-98372219D01*
X109124170Y-98390632D01*
X109133349Y-98410038D01*
X109140581Y-98430250D01*
X109145797Y-98451074D01*
X109148947Y-98472309D01*
X109150000Y-98493750D01*
X109150000Y-99006250D01*
X109148947Y-99027691D01*
X109145797Y-99048926D01*
X109140581Y-99069750D01*
X109133349Y-99089962D01*
X109124170Y-99109368D01*
X109113134Y-99127781D01*
X109100346Y-99145024D01*
X109085930Y-99160930D01*
X109070024Y-99175346D01*
X109052781Y-99188134D01*
X109034368Y-99199170D01*
X109014962Y-99208349D01*
X108994750Y-99215581D01*
X108973926Y-99220797D01*
X108952691Y-99223947D01*
X108931250Y-99225000D01*
X108493750Y-99225000D01*
X108472309Y-99223947D01*
X108451074Y-99220797D01*
X108430250Y-99215581D01*
X108410038Y-99208349D01*
X108390632Y-99199170D01*
X108372219Y-99188134D01*
X108354976Y-99175346D01*
X108339070Y-99160930D01*
X108324654Y-99145024D01*
X108311866Y-99127781D01*
X108300830Y-99109368D01*
X108291651Y-99089962D01*
X108284419Y-99069750D01*
X108279203Y-99048926D01*
X108276053Y-99027691D01*
X108275000Y-99006250D01*
X108275000Y-98493750D01*
X108276053Y-98472309D01*
X108279203Y-98451074D01*
X108284419Y-98430250D01*
X108291651Y-98410038D01*
X108300830Y-98390632D01*
X108311866Y-98372219D01*
X108324654Y-98354976D01*
X108339070Y-98339070D01*
X108354976Y-98324654D01*
X108372219Y-98311866D01*
X108390632Y-98300830D01*
X108410038Y-98291651D01*
X108430250Y-98284419D01*
X108451074Y-98279203D01*
X108472309Y-98276053D01*
X108493750Y-98275000D01*
X108931250Y-98275000D01*
X108952691Y-98276053D01*
X108952691Y-98276053D01*
G37*
D13*
X108712500Y-98750000D03*
D10*
G36*
X110527691Y-98276053D02*
G01*
X110548926Y-98279203D01*
X110569750Y-98284419D01*
X110589962Y-98291651D01*
X110609368Y-98300830D01*
X110627781Y-98311866D01*
X110645024Y-98324654D01*
X110660930Y-98339070D01*
X110675346Y-98354976D01*
X110688134Y-98372219D01*
X110699170Y-98390632D01*
X110708349Y-98410038D01*
X110715581Y-98430250D01*
X110720797Y-98451074D01*
X110723947Y-98472309D01*
X110725000Y-98493750D01*
X110725000Y-99006250D01*
X110723947Y-99027691D01*
X110720797Y-99048926D01*
X110715581Y-99069750D01*
X110708349Y-99089962D01*
X110699170Y-99109368D01*
X110688134Y-99127781D01*
X110675346Y-99145024D01*
X110660930Y-99160930D01*
X110645024Y-99175346D01*
X110627781Y-99188134D01*
X110609368Y-99199170D01*
X110589962Y-99208349D01*
X110569750Y-99215581D01*
X110548926Y-99220797D01*
X110527691Y-99223947D01*
X110506250Y-99225000D01*
X110068750Y-99225000D01*
X110047309Y-99223947D01*
X110026074Y-99220797D01*
X110005250Y-99215581D01*
X109985038Y-99208349D01*
X109965632Y-99199170D01*
X109947219Y-99188134D01*
X109929976Y-99175346D01*
X109914070Y-99160930D01*
X109899654Y-99145024D01*
X109886866Y-99127781D01*
X109875830Y-99109368D01*
X109866651Y-99089962D01*
X109859419Y-99069750D01*
X109854203Y-99048926D01*
X109851053Y-99027691D01*
X109850000Y-99006250D01*
X109850000Y-98493750D01*
X109851053Y-98472309D01*
X109854203Y-98451074D01*
X109859419Y-98430250D01*
X109866651Y-98410038D01*
X109875830Y-98390632D01*
X109886866Y-98372219D01*
X109899654Y-98354976D01*
X109914070Y-98339070D01*
X109929976Y-98324654D01*
X109947219Y-98311866D01*
X109965632Y-98300830D01*
X109985038Y-98291651D01*
X110005250Y-98284419D01*
X110026074Y-98279203D01*
X110047309Y-98276053D01*
X110068750Y-98275000D01*
X110506250Y-98275000D01*
X110527691Y-98276053D01*
X110527691Y-98276053D01*
G37*
D13*
X110287500Y-98750000D03*
D18*
X131000000Y-75000000D03*
X131000000Y-106000000D03*
X100000000Y-106000000D03*
D19*
X103250000Y-104000000D03*
X104500000Y-108250000D03*
X104750000Y-105750000D03*
X104750000Y-102750000D03*
X104750000Y-97750000D03*
X104750000Y-96750000D03*
X104750000Y-93750000D03*
X104750000Y-91750000D03*
X104750000Y-90750000D03*
X97750000Y-86750000D03*
X97750000Y-90250000D03*
X97750000Y-93750000D03*
X97750000Y-100750000D03*
X97750000Y-103000000D03*
X99750000Y-102250000D03*
X97750000Y-97250000D03*
X104750000Y-99750000D03*
X124000000Y-82600000D03*
D20*
X120537500Y-86250000D03*
D19*
X108287500Y-106750000D03*
X106030000Y-101110000D03*
X102750000Y-97250000D03*
D20*
X121750000Y-92630000D03*
D19*
X98000000Y-82750000D03*
X98000000Y-79250000D03*
X98000000Y-75750000D03*
X100750000Y-72750000D03*
X104000000Y-72750000D03*
X108000000Y-72750000D03*
X112000000Y-72750000D03*
X116000000Y-72750000D03*
X120000000Y-72750000D03*
X124000000Y-72750000D03*
X128000000Y-72750000D03*
X127250000Y-75750000D03*
X129250000Y-78250000D03*
X133250000Y-78000000D03*
X133250000Y-82000000D03*
X133250000Y-86000000D03*
X133250000Y-90000000D03*
X133250000Y-94000000D03*
X133250000Y-98000000D03*
X133250000Y-102500000D03*
X130500000Y-102250000D03*
X128000000Y-103500000D03*
X127250000Y-106250000D03*
X128000000Y-108250000D03*
X124750000Y-108250000D03*
X121000000Y-108250000D03*
X113500000Y-108250000D03*
X110250000Y-108250000D03*
X110250000Y-105750000D03*
X108500000Y-102500000D03*
X108500000Y-100000000D03*
X108500000Y-97500000D03*
X108500000Y-94000000D03*
X114750000Y-93500000D03*
X117500000Y-90500000D03*
X118500000Y-88500000D03*
X113250000Y-87000000D03*
X111750000Y-87000000D03*
X108500000Y-86000000D03*
X108500000Y-83000000D03*
X105750000Y-83000000D03*
X101750000Y-83000000D03*
X108250000Y-80000000D03*
X111000000Y-80000000D03*
X113750000Y-80000000D03*
X113750000Y-82750000D03*
X116500000Y-79750000D03*
X119250000Y-79750000D03*
X122500000Y-79250000D03*
X122500000Y-81500000D03*
X122500000Y-83750000D03*
X122500000Y-76750000D03*
X125750000Y-78250000D03*
X125750000Y-80500000D03*
X125750000Y-82000000D03*
X119250000Y-77250000D03*
X116500000Y-77250000D03*
X113750000Y-77250000D03*
X111000000Y-77250000D03*
X108250000Y-77250000D03*
X105500000Y-80250000D03*
X118750000Y-85750000D03*
X123250000Y-102250000D03*
X126250000Y-101750000D03*
X126250000Y-86250000D03*
X123250000Y-86250000D03*
X123250000Y-89000000D03*
X121500000Y-105000000D03*
X114750000Y-105250000D03*
X117500000Y-105250000D03*
X117500000Y-102500000D03*
X114750000Y-102500000D03*
X114750000Y-99750000D03*
X117500000Y-99750000D03*
X117500000Y-96750000D03*
X114750000Y-96750000D03*
X117500000Y-93500000D03*
X110250000Y-103250000D03*
X117250000Y-108250000D03*
X126250000Y-89000000D03*
X126250000Y-91500000D03*
X126250000Y-94000000D03*
X126250000Y-96500000D03*
X126250000Y-99000000D03*
D20*
X113037500Y-85250000D03*
D19*
X110537500Y-87250000D03*
X110287500Y-92750000D03*
X110287500Y-98750000D03*
X110050000Y-94615000D03*
X110050000Y-100615000D03*
X110050000Y-88615000D03*
D21*
X106537500Y-102000000D02*
X108537500Y-104000000D01*
X101850000Y-102000000D02*
X106537500Y-102000000D01*
X100750000Y-99750000D02*
X100750000Y-100900000D01*
X100750000Y-100900000D02*
X101850000Y-102000000D01*
X124150000Y-82750000D02*
X124000000Y-82600000D01*
X127962500Y-82750000D02*
X124150000Y-82750000D01*
D22*
X120537500Y-88082500D02*
X120120000Y-88500000D01*
X120537500Y-86250000D02*
X120537500Y-88082500D01*
D21*
X106712500Y-106750000D02*
X105787500Y-106750000D01*
X100875000Y-97250000D02*
X100750000Y-97250000D01*
X100875000Y-97250000D02*
X104495000Y-100870000D01*
X104495000Y-100870000D02*
X105790000Y-100870000D01*
X105790000Y-100870000D02*
X106030000Y-101110000D01*
X102750000Y-94250000D02*
X102750000Y-97250000D01*
X102750000Y-94125000D02*
X102750000Y-94250000D01*
X100750000Y-92250000D02*
X100875000Y-92250000D01*
X100875000Y-92250000D02*
X102750000Y-94125000D01*
D22*
X122965000Y-97572000D02*
X122250000Y-98287000D01*
X124640000Y-97572000D02*
X122965000Y-97572000D01*
X122250000Y-101610000D02*
X120120000Y-103740000D01*
X122250000Y-98287000D02*
X122250000Y-101610000D01*
X123148000Y-93580000D02*
X124640000Y-95072000D01*
X120120000Y-93580000D02*
X123148000Y-93580000D01*
X121808000Y-92572000D02*
X121750000Y-92630000D01*
X124640000Y-92572000D02*
X121808000Y-92572000D01*
D21*
X129537500Y-82750000D02*
X130462500Y-82750000D01*
X111462500Y-85250000D02*
X110537500Y-85250000D01*
X106962500Y-104000000D02*
X105787500Y-104000000D01*
X129537500Y-79750000D02*
X130462500Y-79750000D01*
X125750000Y-79750000D02*
X127962500Y-79750000D01*
X124000000Y-78000000D02*
X125750000Y-79750000D01*
X111700001Y-100400001D02*
X112500000Y-101200000D01*
X111075010Y-99775010D02*
X111700001Y-100400001D01*
X111075010Y-95537510D02*
X111075010Y-99775010D01*
X110250000Y-94712500D02*
X111075010Y-95537510D01*
X112500000Y-102962500D02*
X112500000Y-103740000D01*
X110250000Y-100712500D02*
X112500000Y-102962500D01*
X111700001Y-92780001D02*
X112500000Y-93580000D01*
X111075010Y-92155010D02*
X111700001Y-92780001D01*
X111075010Y-89537510D02*
X111075010Y-92155010D01*
X110250000Y-88712500D02*
X111075010Y-89537510D01*
D23*
G36*
X128338075Y-72815415D02*
G01*
X127963032Y-73376707D01*
X127704697Y-74000381D01*
X127573000Y-74662470D01*
X127573000Y-75337530D01*
X127704697Y-75999619D01*
X127963032Y-76623293D01*
X128338075Y-77184585D01*
X128815415Y-77661925D01*
X129376707Y-78036968D01*
X130000381Y-78295303D01*
X130662470Y-78427000D01*
X131337530Y-78427000D01*
X131999619Y-78295303D01*
X132623293Y-78036968D01*
X133184585Y-77661925D01*
X133498001Y-77348509D01*
X133498000Y-103651490D01*
X133184585Y-103338075D01*
X132623293Y-102963032D01*
X131999619Y-102704697D01*
X131337530Y-102573000D01*
X130662470Y-102573000D01*
X130000381Y-102704697D01*
X129376707Y-102963032D01*
X128815415Y-103338075D01*
X128338075Y-103815415D01*
X127963032Y-104376707D01*
X127704697Y-105000381D01*
X127573000Y-105662470D01*
X127573000Y-106337530D01*
X127704697Y-106999619D01*
X127963032Y-107623293D01*
X128338075Y-108184585D01*
X128651490Y-108498000D01*
X109877000Y-108498000D01*
X109877000Y-106280000D01*
X111267064Y-106280000D01*
X111290755Y-106520534D01*
X111360916Y-106751824D01*
X111474851Y-106964983D01*
X111628183Y-107151817D01*
X111815017Y-107305149D01*
X112028176Y-107419084D01*
X112259466Y-107489245D01*
X112439732Y-107507000D01*
X112560268Y-107507000D01*
X112740534Y-107489245D01*
X112971824Y-107419084D01*
X113184983Y-107305149D01*
X113371817Y-107151817D01*
X113525149Y-106964983D01*
X113639084Y-106751824D01*
X113709245Y-106520534D01*
X113732936Y-106280000D01*
X118887064Y-106280000D01*
X118910755Y-106520534D01*
X118980916Y-106751824D01*
X119094851Y-106964983D01*
X119248183Y-107151817D01*
X119435017Y-107305149D01*
X119648176Y-107419084D01*
X119879466Y-107489245D01*
X120059732Y-107507000D01*
X120180268Y-107507000D01*
X120360534Y-107489245D01*
X120591824Y-107419084D01*
X120804983Y-107305149D01*
X120991817Y-107151817D01*
X121145149Y-106964983D01*
X121259084Y-106751824D01*
X121329245Y-106520534D01*
X121352936Y-106280000D01*
X121329245Y-106039466D01*
X121259084Y-105808176D01*
X121145149Y-105595017D01*
X120991817Y-105408183D01*
X120804983Y-105254851D01*
X120591824Y-105140916D01*
X120360534Y-105070755D01*
X120180268Y-105053000D01*
X120059732Y-105053000D01*
X119879466Y-105070755D01*
X119648176Y-105140916D01*
X119435017Y-105254851D01*
X119248183Y-105408183D01*
X119094851Y-105595017D01*
X118980916Y-105808176D01*
X118910755Y-106039466D01*
X118887064Y-106280000D01*
X113732936Y-106280000D01*
X113709245Y-106039466D01*
X113639084Y-105808176D01*
X113525149Y-105595017D01*
X113371817Y-105408183D01*
X113184983Y-105254851D01*
X112971824Y-105140916D01*
X112740534Y-105070755D01*
X112560268Y-105053000D01*
X112439732Y-105053000D01*
X112259466Y-105070755D01*
X112028176Y-105140916D01*
X111815017Y-105254851D01*
X111628183Y-105408183D01*
X111474851Y-105595017D01*
X111360916Y-105808176D01*
X111290755Y-106039466D01*
X111267064Y-106280000D01*
X109877000Y-106280000D01*
X109877000Y-103000000D01*
X109874560Y-102975224D01*
X109867333Y-102951399D01*
X109855597Y-102929443D01*
X109839803Y-102910197D01*
X109820557Y-102894403D01*
X109798601Y-102882667D01*
X109774776Y-102875440D01*
X109750000Y-102873000D01*
X108226502Y-102873000D01*
X108127000Y-102773498D01*
X108127000Y-88543397D01*
X109323000Y-88543397D01*
X109323000Y-88686603D01*
X109345934Y-88801901D01*
X109345934Y-88931250D01*
X109358382Y-89057633D01*
X109395246Y-89179158D01*
X109455111Y-89291157D01*
X109535675Y-89389325D01*
X109633843Y-89469889D01*
X109745842Y-89529754D01*
X109867367Y-89566618D01*
X109993750Y-89579066D01*
X110300565Y-89579066D01*
X110498010Y-89776511D01*
X110498011Y-92050630D01*
X110359103Y-92023000D01*
X110215897Y-92023000D01*
X110075442Y-92050938D01*
X109943136Y-92105741D01*
X109936536Y-92110151D01*
X109820842Y-92145246D01*
X109708843Y-92205111D01*
X109610675Y-92285675D01*
X109530111Y-92383843D01*
X109470246Y-92495842D01*
X109433382Y-92617367D01*
X109420934Y-92743750D01*
X109420934Y-93256250D01*
X109433382Y-93382633D01*
X109470246Y-93504158D01*
X109530111Y-93616157D01*
X109610675Y-93714325D01*
X109708843Y-93794889D01*
X109820842Y-93854754D01*
X109850084Y-93863625D01*
X109745842Y-93895246D01*
X109633843Y-93955111D01*
X109535675Y-94035675D01*
X109455111Y-94133843D01*
X109395246Y-94245842D01*
X109358382Y-94367367D01*
X109356107Y-94390462D01*
X109350938Y-94402942D01*
X109323000Y-94543397D01*
X109323000Y-94686603D01*
X109345934Y-94801901D01*
X109345934Y-94931250D01*
X109358382Y-95057633D01*
X109395246Y-95179158D01*
X109455111Y-95291157D01*
X109535675Y-95389325D01*
X109633843Y-95469889D01*
X109745842Y-95529754D01*
X109867367Y-95566618D01*
X109993750Y-95579066D01*
X110300565Y-95579066D01*
X110498010Y-95776511D01*
X110498011Y-97845934D01*
X110068750Y-97845934D01*
X109942367Y-97858382D01*
X109820842Y-97895246D01*
X109708843Y-97955111D01*
X109610675Y-98035675D01*
X109530111Y-98133843D01*
X109470246Y-98245842D01*
X109433382Y-98367367D01*
X109420934Y-98493750D01*
X109420934Y-99006250D01*
X109433382Y-99132633D01*
X109470246Y-99254158D01*
X109530111Y-99366157D01*
X109610675Y-99464325D01*
X109708843Y-99544889D01*
X109820842Y-99604754D01*
X109942367Y-99641618D01*
X110068750Y-99654066D01*
X110498011Y-99654066D01*
X110498011Y-99746669D01*
X110495220Y-99775010D01*
X110502204Y-99845934D01*
X109993750Y-99845934D01*
X109867367Y-99858382D01*
X109745842Y-99895246D01*
X109633843Y-99955111D01*
X109535675Y-100035675D01*
X109455111Y-100133843D01*
X109395246Y-100245842D01*
X109358382Y-100367367D01*
X109356107Y-100390462D01*
X109350938Y-100402942D01*
X109323000Y-100543397D01*
X109323000Y-100686603D01*
X109345934Y-100801901D01*
X109345934Y-100931250D01*
X109358382Y-101057633D01*
X109395246Y-101179158D01*
X109455111Y-101291157D01*
X109535675Y-101389325D01*
X109633843Y-101469889D01*
X109745842Y-101529754D01*
X109867367Y-101566618D01*
X109993750Y-101579066D01*
X110300565Y-101579066D01*
X111610828Y-102889329D01*
X111474851Y-103055017D01*
X111360916Y-103268176D01*
X111290755Y-103499466D01*
X111267064Y-103740000D01*
X111290755Y-103980534D01*
X111360916Y-104211824D01*
X111474851Y-104424983D01*
X111628183Y-104611817D01*
X111815017Y-104765149D01*
X112028176Y-104879084D01*
X112259466Y-104949245D01*
X112439732Y-104967000D01*
X112560268Y-104967000D01*
X112740534Y-104949245D01*
X112971824Y-104879084D01*
X113184983Y-104765149D01*
X113371817Y-104611817D01*
X113525149Y-104424983D01*
X113639084Y-104211824D01*
X113709245Y-103980534D01*
X113732936Y-103740000D01*
X113709245Y-103499466D01*
X113639084Y-103268176D01*
X113525149Y-103055017D01*
X113371817Y-102868183D01*
X113184983Y-102714851D01*
X112971824Y-102600916D01*
X112942349Y-102591975D01*
X112909974Y-102552526D01*
X112887963Y-102534462D01*
X112757576Y-102404075D01*
X112971824Y-102339084D01*
X113184983Y-102225149D01*
X113371817Y-102071817D01*
X113525149Y-101884983D01*
X113639084Y-101671824D01*
X113709245Y-101440534D01*
X113732936Y-101200000D01*
X113709245Y-100959466D01*
X113639084Y-100728176D01*
X113525149Y-100515017D01*
X113371817Y-100328183D01*
X113184983Y-100174851D01*
X112971824Y-100060916D01*
X112740534Y-99990755D01*
X112560268Y-99973000D01*
X112439732Y-99973000D01*
X112259466Y-99990755D01*
X112142298Y-100026297D01*
X111652010Y-99536009D01*
X111652010Y-95565838D01*
X111654800Y-95537509D01*
X111652010Y-95509180D01*
X111652010Y-95509174D01*
X111643660Y-95424398D01*
X111610667Y-95315634D01*
X111557089Y-95215395D01*
X111484984Y-95127536D01*
X111462973Y-95109472D01*
X111154066Y-94800565D01*
X111154066Y-94493750D01*
X111141618Y-94367367D01*
X111104754Y-94245842D01*
X111044889Y-94133843D01*
X110964325Y-94035675D01*
X110866157Y-93955111D01*
X110754158Y-93895246D01*
X110687416Y-93875000D01*
X110754158Y-93854754D01*
X110866157Y-93794889D01*
X110964325Y-93714325D01*
X111044889Y-93616157D01*
X111104754Y-93504158D01*
X111141618Y-93382633D01*
X111154066Y-93256250D01*
X111154066Y-93050067D01*
X111326297Y-93222298D01*
X111290755Y-93339466D01*
X111267064Y-93580000D01*
X111290755Y-93820534D01*
X111360916Y-94051824D01*
X111474851Y-94264983D01*
X111628183Y-94451817D01*
X111815017Y-94605149D01*
X112028176Y-94719084D01*
X112259466Y-94789245D01*
X112439732Y-94807000D01*
X112560268Y-94807000D01*
X112740534Y-94789245D01*
X112971824Y-94719084D01*
X113184983Y-94605149D01*
X113371817Y-94451817D01*
X113525149Y-94264983D01*
X113639084Y-94051824D01*
X113709245Y-93820534D01*
X113732936Y-93580000D01*
X118887064Y-93580000D01*
X118910755Y-93820534D01*
X118980916Y-94051824D01*
X119094851Y-94264983D01*
X119248183Y-94451817D01*
X119435017Y-94605149D01*
X119648176Y-94719084D01*
X119879466Y-94789245D01*
X120059732Y-94807000D01*
X120180268Y-94807000D01*
X120360534Y-94789245D01*
X120591824Y-94719084D01*
X120804983Y-94605149D01*
X120991817Y-94451817D01*
X121069632Y-94357000D01*
X122826157Y-94357000D01*
X123264471Y-94795314D01*
X123256478Y-94821664D01*
X123231822Y-95072000D01*
X123256478Y-95322336D01*
X123329498Y-95563051D01*
X123448076Y-95784896D01*
X123607656Y-95979344D01*
X123802104Y-96138924D01*
X124023949Y-96257502D01*
X124236571Y-96322000D01*
X124023949Y-96386498D01*
X123802104Y-96505076D01*
X123607656Y-96664656D01*
X123500685Y-96795000D01*
X123003163Y-96795000D01*
X122965000Y-96791241D01*
X122926836Y-96795000D01*
X122926834Y-96795000D01*
X122812681Y-96806243D01*
X122666216Y-96850673D01*
X122531234Y-96922823D01*
X122412920Y-97019920D01*
X122388592Y-97049564D01*
X121727569Y-97710588D01*
X121697920Y-97734920D01*
X121673591Y-97764566D01*
X121600823Y-97853234D01*
X121578895Y-97894259D01*
X121528673Y-97988217D01*
X121484243Y-98134682D01*
X121475724Y-98221177D01*
X121469241Y-98287000D01*
X121473000Y-98325163D01*
X121473001Y-101288155D01*
X121330187Y-101430969D01*
X121352936Y-101200000D01*
X121329245Y-100959466D01*
X121259084Y-100728176D01*
X121145149Y-100515017D01*
X120991817Y-100328183D01*
X120804983Y-100174851D01*
X120591824Y-100060916D01*
X120360534Y-99990755D01*
X120180268Y-99973000D01*
X120059732Y-99973000D01*
X119879466Y-99990755D01*
X119648176Y-100060916D01*
X119435017Y-100174851D01*
X119248183Y-100328183D01*
X119094851Y-100515017D01*
X118980916Y-100728176D01*
X118910755Y-100959466D01*
X118887064Y-101200000D01*
X118910755Y-101440534D01*
X118980916Y-101671824D01*
X119094851Y-101884983D01*
X119248183Y-102071817D01*
X119435017Y-102225149D01*
X119648176Y-102339084D01*
X119879466Y-102409245D01*
X120059732Y-102427000D01*
X120180268Y-102427000D01*
X120350970Y-102410187D01*
X120242070Y-102519087D01*
X120180268Y-102513000D01*
X120059732Y-102513000D01*
X119879466Y-102530755D01*
X119648176Y-102600916D01*
X119435017Y-102714851D01*
X119248183Y-102868183D01*
X119094851Y-103055017D01*
X118980916Y-103268176D01*
X118910755Y-103499466D01*
X118887064Y-103740000D01*
X118910755Y-103980534D01*
X118980916Y-104211824D01*
X119094851Y-104424983D01*
X119248183Y-104611817D01*
X119435017Y-104765149D01*
X119648176Y-104879084D01*
X119879466Y-104949245D01*
X120059732Y-104967000D01*
X120180268Y-104967000D01*
X120360534Y-104949245D01*
X120591824Y-104879084D01*
X120804983Y-104765149D01*
X120991817Y-104611817D01*
X121145149Y-104424983D01*
X121259084Y-104211824D01*
X121329245Y-103980534D01*
X121352936Y-103740000D01*
X121340913Y-103617930D01*
X122772436Y-102186408D01*
X122802080Y-102162080D01*
X122842267Y-102113112D01*
X122899177Y-102043767D01*
X122935252Y-101976275D01*
X122971327Y-101908784D01*
X123015757Y-101762319D01*
X123027000Y-101648166D01*
X123027000Y-101648164D01*
X123030759Y-101610000D01*
X123027000Y-101571837D01*
X123027000Y-98608843D01*
X123286844Y-98349000D01*
X123500685Y-98349000D01*
X123607656Y-98479344D01*
X123802104Y-98638924D01*
X124023949Y-98757502D01*
X124140753Y-98792934D01*
X123915000Y-98792934D01*
X123782521Y-98805982D01*
X123655133Y-98844625D01*
X123537731Y-98907377D01*
X123434828Y-98991828D01*
X123350377Y-99094731D01*
X123287625Y-99212133D01*
X123248982Y-99339521D01*
X123235934Y-99472000D01*
X123235934Y-100672000D01*
X123248982Y-100804479D01*
X123287625Y-100931867D01*
X123350377Y-101049269D01*
X123434828Y-101152172D01*
X123537731Y-101236623D01*
X123655133Y-101299375D01*
X123782521Y-101338018D01*
X123915000Y-101351066D01*
X125365000Y-101351066D01*
X125497479Y-101338018D01*
X125624867Y-101299375D01*
X125742269Y-101236623D01*
X125845172Y-101152172D01*
X125929623Y-101049269D01*
X125992375Y-100931867D01*
X126031018Y-100804479D01*
X126044066Y-100672000D01*
X126044066Y-99472000D01*
X126031018Y-99339521D01*
X125992375Y-99212133D01*
X125929623Y-99094731D01*
X125845172Y-98991828D01*
X125742269Y-98907377D01*
X125624867Y-98844625D01*
X125497479Y-98805982D01*
X125365000Y-98792934D01*
X125139247Y-98792934D01*
X125256051Y-98757502D01*
X125477896Y-98638924D01*
X125672344Y-98479344D01*
X125831924Y-98284896D01*
X125950502Y-98063051D01*
X126023522Y-97822336D01*
X126048178Y-97572000D01*
X126023522Y-97321664D01*
X125950502Y-97080949D01*
X125831924Y-96859104D01*
X125672344Y-96664656D01*
X125477896Y-96505076D01*
X125256051Y-96386498D01*
X125043429Y-96322000D01*
X125256051Y-96257502D01*
X125477896Y-96138924D01*
X125672344Y-95979344D01*
X125831924Y-95784896D01*
X125950502Y-95563051D01*
X126023522Y-95322336D01*
X126048178Y-95072000D01*
X126023522Y-94821664D01*
X125950502Y-94580949D01*
X125831924Y-94359104D01*
X125672344Y-94164656D01*
X125477896Y-94005076D01*
X125256051Y-93886498D01*
X125043429Y-93822000D01*
X125256051Y-93757502D01*
X125477896Y-93638924D01*
X125672344Y-93479344D01*
X125831924Y-93284896D01*
X125950502Y-93063051D01*
X126023522Y-92822336D01*
X126048178Y-92572000D01*
X126023522Y-92321664D01*
X125950502Y-92080949D01*
X125831924Y-91859104D01*
X125672344Y-91664656D01*
X125477896Y-91505076D01*
X125256051Y-91386498D01*
X125043429Y-91322000D01*
X125256051Y-91257502D01*
X125477896Y-91138924D01*
X125672344Y-90979344D01*
X125831924Y-90784896D01*
X125950502Y-90563051D01*
X126023522Y-90322336D01*
X126048178Y-90072000D01*
X126023522Y-89821664D01*
X125950502Y-89580949D01*
X125831924Y-89359104D01*
X125672344Y-89164656D01*
X125477896Y-89005076D01*
X125256051Y-88886498D01*
X125043429Y-88822000D01*
X125256051Y-88757502D01*
X125477896Y-88638924D01*
X125672344Y-88479344D01*
X125831924Y-88284896D01*
X125950502Y-88063051D01*
X126023522Y-87822336D01*
X126048178Y-87572000D01*
X126023522Y-87321664D01*
X125950502Y-87080949D01*
X125831924Y-86859104D01*
X125672344Y-86664656D01*
X125477896Y-86505076D01*
X125256051Y-86386498D01*
X125015336Y-86313478D01*
X124827726Y-86295000D01*
X124452274Y-86295000D01*
X124264664Y-86313478D01*
X124023949Y-86386498D01*
X123802104Y-86505076D01*
X123607656Y-86664656D01*
X123448076Y-86859104D01*
X123329498Y-87080949D01*
X123256478Y-87321664D01*
X123231822Y-87572000D01*
X123256478Y-87822336D01*
X123329498Y-88063051D01*
X123448076Y-88284896D01*
X123607656Y-88479344D01*
X123802104Y-88638924D01*
X124023949Y-88757502D01*
X124236571Y-88822000D01*
X124023949Y-88886498D01*
X123802104Y-89005076D01*
X123607656Y-89164656D01*
X123448076Y-89359104D01*
X123329498Y-89580949D01*
X123256478Y-89821664D01*
X123231822Y-90072000D01*
X123256478Y-90322336D01*
X123329498Y-90563051D01*
X123448076Y-90784896D01*
X123607656Y-90979344D01*
X123802104Y-91138924D01*
X124023949Y-91257502D01*
X124236571Y-91322000D01*
X124023949Y-91386498D01*
X123802104Y-91505076D01*
X123607656Y-91664656D01*
X123500685Y-91795000D01*
X121846155Y-91795000D01*
X121807999Y-91791242D01*
X121769844Y-91795000D01*
X121769834Y-91795000D01*
X121688608Y-91803000D01*
X121668548Y-91803000D01*
X121508773Y-91834782D01*
X121358269Y-91897123D01*
X121222819Y-91987628D01*
X121107628Y-92102819D01*
X121017123Y-92238269D01*
X120954782Y-92388773D01*
X120923000Y-92548548D01*
X120923000Y-92651706D01*
X120804983Y-92554851D01*
X120591824Y-92440916D01*
X120360534Y-92370755D01*
X120180268Y-92353000D01*
X120059732Y-92353000D01*
X119879466Y-92370755D01*
X119648176Y-92440916D01*
X119435017Y-92554851D01*
X119248183Y-92708183D01*
X119094851Y-92895017D01*
X118980916Y-93108176D01*
X118910755Y-93339466D01*
X118887064Y-93580000D01*
X113732936Y-93580000D01*
X113709245Y-93339466D01*
X113639084Y-93108176D01*
X113525149Y-92895017D01*
X113371817Y-92708183D01*
X113184983Y-92554851D01*
X112971824Y-92440916D01*
X112740534Y-92370755D01*
X112560268Y-92353000D01*
X112439732Y-92353000D01*
X112259466Y-92370755D01*
X112142298Y-92406297D01*
X111737683Y-92001682D01*
X111815017Y-92065149D01*
X112028176Y-92179084D01*
X112259466Y-92249245D01*
X112439732Y-92267000D01*
X112560268Y-92267000D01*
X112740534Y-92249245D01*
X112971824Y-92179084D01*
X113184983Y-92065149D01*
X113371817Y-91911817D01*
X113525149Y-91724983D01*
X113639084Y-91511824D01*
X113709245Y-91280534D01*
X113732936Y-91040000D01*
X118887064Y-91040000D01*
X118910755Y-91280534D01*
X118980916Y-91511824D01*
X119094851Y-91724983D01*
X119248183Y-91911817D01*
X119435017Y-92065149D01*
X119648176Y-92179084D01*
X119879466Y-92249245D01*
X120059732Y-92267000D01*
X120180268Y-92267000D01*
X120360534Y-92249245D01*
X120591824Y-92179084D01*
X120804983Y-92065149D01*
X120991817Y-91911817D01*
X121145149Y-91724983D01*
X121259084Y-91511824D01*
X121329245Y-91280534D01*
X121352936Y-91040000D01*
X121329245Y-90799466D01*
X121259084Y-90568176D01*
X121145149Y-90355017D01*
X120991817Y-90168183D01*
X120804983Y-90014851D01*
X120591824Y-89900916D01*
X120360534Y-89830755D01*
X120180268Y-89813000D01*
X120059732Y-89813000D01*
X119879466Y-89830755D01*
X119648176Y-89900916D01*
X119435017Y-90014851D01*
X119248183Y-90168183D01*
X119094851Y-90355017D01*
X118980916Y-90568176D01*
X118910755Y-90799466D01*
X118887064Y-91040000D01*
X113732936Y-91040000D01*
X113709245Y-90799466D01*
X113639084Y-90568176D01*
X113525149Y-90355017D01*
X113371817Y-90168183D01*
X113184983Y-90014851D01*
X112971824Y-89900916D01*
X112740534Y-89830755D01*
X112560268Y-89813000D01*
X112439732Y-89813000D01*
X112259466Y-89830755D01*
X112028176Y-89900916D01*
X111815017Y-90014851D01*
X111652010Y-90148629D01*
X111652010Y-89724340D01*
X111700000Y-89729066D01*
X113300000Y-89729066D01*
X113383707Y-89720822D01*
X113464196Y-89696405D01*
X113538376Y-89656755D01*
X113603395Y-89603395D01*
X113656755Y-89538376D01*
X113696405Y-89464196D01*
X113720822Y-89383707D01*
X113729066Y-89300000D01*
X113729066Y-88500000D01*
X118887064Y-88500000D01*
X118910755Y-88740534D01*
X118980916Y-88971824D01*
X119094851Y-89184983D01*
X119248183Y-89371817D01*
X119435017Y-89525149D01*
X119648176Y-89639084D01*
X119879466Y-89709245D01*
X120059732Y-89727000D01*
X120180268Y-89727000D01*
X120360534Y-89709245D01*
X120591824Y-89639084D01*
X120804983Y-89525149D01*
X120991817Y-89371817D01*
X121145149Y-89184983D01*
X121259084Y-88971824D01*
X121329245Y-88740534D01*
X121352936Y-88500000D01*
X121329245Y-88259466D01*
X121307794Y-88188752D01*
X121314500Y-88120666D01*
X121314500Y-88120657D01*
X121318258Y-88082501D01*
X121314500Y-88044345D01*
X121314500Y-86829468D01*
X121354754Y-86754158D01*
X121391618Y-86632633D01*
X121404066Y-86506250D01*
X121404066Y-85993750D01*
X121391618Y-85867367D01*
X121354754Y-85745842D01*
X121294889Y-85633843D01*
X121214325Y-85535675D01*
X121116157Y-85455111D01*
X121004158Y-85395246D01*
X120882633Y-85358382D01*
X120756250Y-85345934D01*
X120318750Y-85345934D01*
X120192367Y-85358382D01*
X120070842Y-85395246D01*
X119958843Y-85455111D01*
X119860675Y-85535675D01*
X119780111Y-85633843D01*
X119720246Y-85745842D01*
X119683382Y-85867367D01*
X119670934Y-85993750D01*
X119670934Y-86506250D01*
X119683382Y-86632633D01*
X119720246Y-86754158D01*
X119760500Y-86829468D01*
X119760501Y-87326843D01*
X119648176Y-87360916D01*
X119435017Y-87474851D01*
X119248183Y-87628183D01*
X119094851Y-87815017D01*
X118980916Y-88028176D01*
X118910755Y-88259466D01*
X118887064Y-88500000D01*
X113729066Y-88500000D01*
X113729066Y-87700000D01*
X113720822Y-87616293D01*
X113696405Y-87535804D01*
X113656755Y-87461624D01*
X113603395Y-87396605D01*
X113538376Y-87343245D01*
X113464196Y-87303595D01*
X113383707Y-87279178D01*
X113300000Y-87270934D01*
X111700000Y-87270934D01*
X111616293Y-87279178D01*
X111535804Y-87303595D01*
X111461624Y-87343245D01*
X111404066Y-87390482D01*
X111404066Y-86993750D01*
X111391618Y-86867367D01*
X111354754Y-86745842D01*
X111294889Y-86633843D01*
X111214325Y-86535675D01*
X111116157Y-86455111D01*
X111004158Y-86395246D01*
X110882633Y-86358382D01*
X110756250Y-86345934D01*
X110318750Y-86345934D01*
X110192367Y-86358382D01*
X110070842Y-86395246D01*
X109958843Y-86455111D01*
X109860675Y-86535675D01*
X109780111Y-86633843D01*
X109720246Y-86745842D01*
X109683382Y-86867367D01*
X109670934Y-86993750D01*
X109670934Y-87506250D01*
X109683382Y-87632633D01*
X109720246Y-87754158D01*
X109780111Y-87866157D01*
X109792394Y-87881125D01*
X109745842Y-87895246D01*
X109633843Y-87955111D01*
X109535675Y-88035675D01*
X109455111Y-88133843D01*
X109395246Y-88245842D01*
X109358382Y-88367367D01*
X109356107Y-88390462D01*
X109350938Y-88402942D01*
X109323000Y-88543397D01*
X108127000Y-88543397D01*
X108127000Y-84993750D01*
X109670934Y-84993750D01*
X109670934Y-85506250D01*
X109683382Y-85632633D01*
X109720246Y-85754158D01*
X109780111Y-85866157D01*
X109860675Y-85964325D01*
X109958843Y-86044889D01*
X110070842Y-86104754D01*
X110192367Y-86141618D01*
X110318750Y-86154066D01*
X110756250Y-86154066D01*
X110882633Y-86141618D01*
X111000000Y-86106015D01*
X111117367Y-86141618D01*
X111243750Y-86154066D01*
X111681250Y-86154066D01*
X111807633Y-86141618D01*
X111929158Y-86104754D01*
X112041157Y-86044889D01*
X112139325Y-85964325D01*
X112219889Y-85866157D01*
X112250000Y-85809824D01*
X112280111Y-85866157D01*
X112360675Y-85964325D01*
X112458843Y-86044889D01*
X112570842Y-86104754D01*
X112692367Y-86141618D01*
X112818750Y-86154066D01*
X113256250Y-86154066D01*
X113382633Y-86141618D01*
X113504158Y-86104754D01*
X113616157Y-86044889D01*
X113714325Y-85964325D01*
X113794889Y-85866157D01*
X113854754Y-85754158D01*
X113891618Y-85632633D01*
X113904066Y-85506250D01*
X113904066Y-84993750D01*
X113891618Y-84867367D01*
X113854754Y-84745842D01*
X113794889Y-84633843D01*
X113714325Y-84535675D01*
X113616157Y-84455111D01*
X113504158Y-84395246D01*
X113382633Y-84358382D01*
X113256250Y-84345934D01*
X112818750Y-84345934D01*
X112692367Y-84358382D01*
X112570842Y-84395246D01*
X112458843Y-84455111D01*
X112360675Y-84535675D01*
X112280111Y-84633843D01*
X112250000Y-84690176D01*
X112219889Y-84633843D01*
X112139325Y-84535675D01*
X112041157Y-84455111D01*
X111929158Y-84395246D01*
X111807633Y-84358382D01*
X111681250Y-84345934D01*
X111243750Y-84345934D01*
X111117367Y-84358382D01*
X111000000Y-84393985D01*
X110882633Y-84358382D01*
X110756250Y-84345934D01*
X110318750Y-84345934D01*
X110192367Y-84358382D01*
X110070842Y-84395246D01*
X109958843Y-84455111D01*
X109860675Y-84535675D01*
X109780111Y-84633843D01*
X109720246Y-84745842D01*
X109683382Y-84867367D01*
X109670934Y-84993750D01*
X108127000Y-84993750D01*
X108127000Y-83250000D01*
X108124560Y-83225224D01*
X108117333Y-83201399D01*
X108105597Y-83179443D01*
X108089803Y-83160197D01*
X108070557Y-83144403D01*
X108048601Y-83132667D01*
X108024776Y-83125440D01*
X108000000Y-83123000D01*
X97502000Y-83123000D01*
X97502000Y-81287274D01*
X105523000Y-81287274D01*
X105523000Y-81712725D01*
X105541478Y-81900335D01*
X105614498Y-82141050D01*
X105733076Y-82362895D01*
X105892656Y-82557344D01*
X106087104Y-82716924D01*
X106308949Y-82835502D01*
X106549664Y-82908522D01*
X106800000Y-82933178D01*
X107050335Y-82908522D01*
X107291050Y-82835502D01*
X107512895Y-82716924D01*
X107707344Y-82557344D01*
X107866924Y-82362896D01*
X107985502Y-82141051D01*
X108058522Y-81900336D01*
X108077000Y-81712726D01*
X108077000Y-81287275D01*
X108077000Y-81287274D01*
X113723000Y-81287274D01*
X113723000Y-81712725D01*
X113741478Y-81900335D01*
X113814498Y-82141050D01*
X113933076Y-82362895D01*
X114092656Y-82557344D01*
X114287104Y-82716924D01*
X114508949Y-82835502D01*
X114749664Y-82908522D01*
X115000000Y-82933178D01*
X115250335Y-82908522D01*
X115491050Y-82835502D01*
X115712895Y-82716924D01*
X115907344Y-82557344D01*
X115931100Y-82528397D01*
X123273000Y-82528397D01*
X123273000Y-82671603D01*
X123300938Y-82812058D01*
X123355741Y-82944364D01*
X123435302Y-83063436D01*
X123536564Y-83164698D01*
X123655636Y-83244259D01*
X123787942Y-83299062D01*
X123928397Y-83327000D01*
X124071603Y-83327000D01*
X124088182Y-83323702D01*
X124097971Y-83324666D01*
X124121664Y-83327000D01*
X124121668Y-83327000D01*
X124149999Y-83329790D01*
X124178330Y-83327000D01*
X127184181Y-83327000D01*
X127205111Y-83366157D01*
X127285675Y-83464325D01*
X127383843Y-83544889D01*
X127495842Y-83604754D01*
X127617367Y-83641618D01*
X127743750Y-83654066D01*
X128181250Y-83654066D01*
X128307633Y-83641618D01*
X128429158Y-83604754D01*
X128541157Y-83544889D01*
X128639325Y-83464325D01*
X128719889Y-83366157D01*
X128750000Y-83309824D01*
X128780111Y-83366157D01*
X128860675Y-83464325D01*
X128958843Y-83544889D01*
X129070842Y-83604754D01*
X129192367Y-83641618D01*
X129318750Y-83654066D01*
X129756250Y-83654066D01*
X129882633Y-83641618D01*
X130000000Y-83606015D01*
X130117367Y-83641618D01*
X130243750Y-83654066D01*
X130681250Y-83654066D01*
X130807633Y-83641618D01*
X130929158Y-83604754D01*
X131041157Y-83544889D01*
X131139325Y-83464325D01*
X131219889Y-83366157D01*
X131279754Y-83254158D01*
X131316618Y-83132633D01*
X131329066Y-83006250D01*
X131329066Y-82493750D01*
X131316618Y-82367367D01*
X131279754Y-82245842D01*
X131219889Y-82133843D01*
X131139325Y-82035675D01*
X131041157Y-81955111D01*
X130929158Y-81895246D01*
X130807633Y-81858382D01*
X130681250Y-81845934D01*
X130243750Y-81845934D01*
X130117367Y-81858382D01*
X130000000Y-81893985D01*
X129882633Y-81858382D01*
X129756250Y-81845934D01*
X129318750Y-81845934D01*
X129192367Y-81858382D01*
X129070842Y-81895246D01*
X128958843Y-81955111D01*
X128860675Y-82035675D01*
X128780111Y-82133843D01*
X128750000Y-82190176D01*
X128719889Y-82133843D01*
X128639325Y-82035675D01*
X128541157Y-81955111D01*
X128429158Y-81895246D01*
X128307633Y-81858382D01*
X128181250Y-81845934D01*
X127743750Y-81845934D01*
X127617367Y-81858382D01*
X127495842Y-81895246D01*
X127383843Y-81955111D01*
X127285675Y-82035675D01*
X127205111Y-82133843D01*
X127184181Y-82173000D01*
X124589044Y-82173000D01*
X124564698Y-82136564D01*
X124463436Y-82035302D01*
X124344364Y-81955741D01*
X124212058Y-81900938D01*
X124071603Y-81873000D01*
X123928397Y-81873000D01*
X123787942Y-81900938D01*
X123655636Y-81955741D01*
X123536564Y-82035302D01*
X123435302Y-82136564D01*
X123355741Y-82255636D01*
X123300938Y-82387942D01*
X123273000Y-82528397D01*
X115931100Y-82528397D01*
X116066924Y-82362896D01*
X116185502Y-82141051D01*
X116258522Y-81900336D01*
X116277000Y-81712726D01*
X116277000Y-81287275D01*
X116258522Y-81099665D01*
X116185502Y-80858950D01*
X116066924Y-80637105D01*
X115907344Y-80442656D01*
X115712896Y-80283076D01*
X115491051Y-80164498D01*
X115250336Y-80091478D01*
X115000000Y-80066822D01*
X114749665Y-80091478D01*
X114508950Y-80164498D01*
X114287105Y-80283076D01*
X114092657Y-80442656D01*
X113933076Y-80637104D01*
X113814498Y-80858949D01*
X113741478Y-81099664D01*
X113723000Y-81287274D01*
X108077000Y-81287274D01*
X108058522Y-81099665D01*
X107985502Y-80858950D01*
X107866924Y-80637105D01*
X107707344Y-80442656D01*
X107512896Y-80283076D01*
X107291051Y-80164498D01*
X107050336Y-80091478D01*
X106800000Y-80066822D01*
X106549665Y-80091478D01*
X106308950Y-80164498D01*
X106087105Y-80283076D01*
X105892657Y-80442656D01*
X105733076Y-80637104D01*
X105614498Y-80858949D01*
X105541478Y-81099664D01*
X105523000Y-81287274D01*
X97502000Y-81287274D01*
X97502000Y-77879151D01*
X122773000Y-77879151D01*
X122773000Y-78120849D01*
X122820153Y-78357903D01*
X122912647Y-78581202D01*
X123046927Y-78782167D01*
X123217833Y-78953073D01*
X123418798Y-79087353D01*
X123642097Y-79179847D01*
X123879151Y-79227000D01*
X124120849Y-79227000D01*
X124357903Y-79179847D01*
X124362105Y-79178106D01*
X125321961Y-80137962D01*
X125340026Y-80159974D01*
X125427885Y-80232079D01*
X125528124Y-80285657D01*
X125572782Y-80299204D01*
X125636888Y-80318651D01*
X125694886Y-80324363D01*
X125721664Y-80327000D01*
X125721669Y-80327000D01*
X125750000Y-80329790D01*
X125778331Y-80327000D01*
X127184181Y-80327000D01*
X127205111Y-80366157D01*
X127285675Y-80464325D01*
X127383843Y-80544889D01*
X127495842Y-80604754D01*
X127617367Y-80641618D01*
X127743750Y-80654066D01*
X128181250Y-80654066D01*
X128307633Y-80641618D01*
X128429158Y-80604754D01*
X128541157Y-80544889D01*
X128639325Y-80464325D01*
X128719889Y-80366157D01*
X128750000Y-80309824D01*
X128780111Y-80366157D01*
X128860675Y-80464325D01*
X128958843Y-80544889D01*
X129070842Y-80604754D01*
X129192367Y-80641618D01*
X129318750Y-80654066D01*
X129756250Y-80654066D01*
X129882633Y-80641618D01*
X130000000Y-80606015D01*
X130117367Y-80641618D01*
X130243750Y-80654066D01*
X130681250Y-80654066D01*
X130807633Y-80641618D01*
X130929158Y-80604754D01*
X131041157Y-80544889D01*
X131139325Y-80464325D01*
X131219889Y-80366157D01*
X131279754Y-80254158D01*
X131316618Y-80132633D01*
X131329066Y-80006250D01*
X131329066Y-79493750D01*
X131316618Y-79367367D01*
X131279754Y-79245842D01*
X131219889Y-79133843D01*
X131139325Y-79035675D01*
X131041157Y-78955111D01*
X130929158Y-78895246D01*
X130807633Y-78858382D01*
X130681250Y-78845934D01*
X130243750Y-78845934D01*
X130117367Y-78858382D01*
X130000000Y-78893985D01*
X129882633Y-78858382D01*
X129756250Y-78845934D01*
X129318750Y-78845934D01*
X129192367Y-78858382D01*
X129070842Y-78895246D01*
X128958843Y-78955111D01*
X128860675Y-79035675D01*
X128780111Y-79133843D01*
X128750000Y-79190176D01*
X128719889Y-79133843D01*
X128639325Y-79035675D01*
X128541157Y-78955111D01*
X128429158Y-78895246D01*
X128307633Y-78858382D01*
X128181250Y-78845934D01*
X127743750Y-78845934D01*
X127617367Y-78858382D01*
X127495842Y-78895246D01*
X127383843Y-78955111D01*
X127285675Y-79035675D01*
X127205111Y-79133843D01*
X127184181Y-79173000D01*
X125989001Y-79173000D01*
X125178106Y-78362105D01*
X125179847Y-78357903D01*
X125227000Y-78120849D01*
X125227000Y-77879151D01*
X125179847Y-77642097D01*
X125087353Y-77418798D01*
X124953073Y-77217833D01*
X124782167Y-77046927D01*
X124581202Y-76912647D01*
X124357903Y-76820153D01*
X124120849Y-76773000D01*
X123879151Y-76773000D01*
X123642097Y-76820153D01*
X123418798Y-76912647D01*
X123217833Y-77046927D01*
X123046927Y-77217833D01*
X122912647Y-77418798D01*
X122820153Y-77642097D01*
X122773000Y-77879151D01*
X97502000Y-77879151D01*
X97502000Y-75024551D01*
X97551936Y-74515269D01*
X97692709Y-74049005D01*
X97921367Y-73618960D01*
X98229200Y-73241521D01*
X98604480Y-72931061D01*
X99032918Y-72699406D01*
X99498189Y-72555379D01*
X100006059Y-72502000D01*
X128651490Y-72502000D01*
X128338075Y-72815415D01*
X128338075Y-72815415D01*
G37*
X128338075Y-72815415D02*
X127963032Y-73376707D01*
X127704697Y-74000381D01*
X127573000Y-74662470D01*
X127573000Y-75337530D01*
X127704697Y-75999619D01*
X127963032Y-76623293D01*
X128338075Y-77184585D01*
X128815415Y-77661925D01*
X129376707Y-78036968D01*
X130000381Y-78295303D01*
X130662470Y-78427000D01*
X131337530Y-78427000D01*
X131999619Y-78295303D01*
X132623293Y-78036968D01*
X133184585Y-77661925D01*
X133498001Y-77348509D01*
X133498000Y-103651490D01*
X133184585Y-103338075D01*
X132623293Y-102963032D01*
X131999619Y-102704697D01*
X131337530Y-102573000D01*
X130662470Y-102573000D01*
X130000381Y-102704697D01*
X129376707Y-102963032D01*
X128815415Y-103338075D01*
X128338075Y-103815415D01*
X127963032Y-104376707D01*
X127704697Y-105000381D01*
X127573000Y-105662470D01*
X127573000Y-106337530D01*
X127704697Y-106999619D01*
X127963032Y-107623293D01*
X128338075Y-108184585D01*
X128651490Y-108498000D01*
X109877000Y-108498000D01*
X109877000Y-106280000D01*
X111267064Y-106280000D01*
X111290755Y-106520534D01*
X111360916Y-106751824D01*
X111474851Y-106964983D01*
X111628183Y-107151817D01*
X111815017Y-107305149D01*
X112028176Y-107419084D01*
X112259466Y-107489245D01*
X112439732Y-107507000D01*
X112560268Y-107507000D01*
X112740534Y-107489245D01*
X112971824Y-107419084D01*
X113184983Y-107305149D01*
X113371817Y-107151817D01*
X113525149Y-106964983D01*
X113639084Y-106751824D01*
X113709245Y-106520534D01*
X113732936Y-106280000D01*
X118887064Y-106280000D01*
X118910755Y-106520534D01*
X118980916Y-106751824D01*
X119094851Y-106964983D01*
X119248183Y-107151817D01*
X119435017Y-107305149D01*
X119648176Y-107419084D01*
X119879466Y-107489245D01*
X120059732Y-107507000D01*
X120180268Y-107507000D01*
X120360534Y-107489245D01*
X120591824Y-107419084D01*
X120804983Y-107305149D01*
X120991817Y-107151817D01*
X121145149Y-106964983D01*
X121259084Y-106751824D01*
X121329245Y-106520534D01*
X121352936Y-106280000D01*
X121329245Y-106039466D01*
X121259084Y-105808176D01*
X121145149Y-105595017D01*
X120991817Y-105408183D01*
X120804983Y-105254851D01*
X120591824Y-105140916D01*
X120360534Y-105070755D01*
X120180268Y-105053000D01*
X120059732Y-105053000D01*
X119879466Y-105070755D01*
X119648176Y-105140916D01*
X119435017Y-105254851D01*
X119248183Y-105408183D01*
X119094851Y-105595017D01*
X118980916Y-105808176D01*
X118910755Y-106039466D01*
X118887064Y-106280000D01*
X113732936Y-106280000D01*
X113709245Y-106039466D01*
X113639084Y-105808176D01*
X113525149Y-105595017D01*
X113371817Y-105408183D01*
X113184983Y-105254851D01*
X112971824Y-105140916D01*
X112740534Y-105070755D01*
X112560268Y-105053000D01*
X112439732Y-105053000D01*
X112259466Y-105070755D01*
X112028176Y-105140916D01*
X111815017Y-105254851D01*
X111628183Y-105408183D01*
X111474851Y-105595017D01*
X111360916Y-105808176D01*
X111290755Y-106039466D01*
X111267064Y-106280000D01*
X109877000Y-106280000D01*
X109877000Y-103000000D01*
X109874560Y-102975224D01*
X109867333Y-102951399D01*
X109855597Y-102929443D01*
X109839803Y-102910197D01*
X109820557Y-102894403D01*
X109798601Y-102882667D01*
X109774776Y-102875440D01*
X109750000Y-102873000D01*
X108226502Y-102873000D01*
X108127000Y-102773498D01*
X108127000Y-88543397D01*
X109323000Y-88543397D01*
X109323000Y-88686603D01*
X109345934Y-88801901D01*
X109345934Y-88931250D01*
X109358382Y-89057633D01*
X109395246Y-89179158D01*
X109455111Y-89291157D01*
X109535675Y-89389325D01*
X109633843Y-89469889D01*
X109745842Y-89529754D01*
X109867367Y-89566618D01*
X109993750Y-89579066D01*
X110300565Y-89579066D01*
X110498010Y-89776511D01*
X110498011Y-92050630D01*
X110359103Y-92023000D01*
X110215897Y-92023000D01*
X110075442Y-92050938D01*
X109943136Y-92105741D01*
X109936536Y-92110151D01*
X109820842Y-92145246D01*
X109708843Y-92205111D01*
X109610675Y-92285675D01*
X109530111Y-92383843D01*
X109470246Y-92495842D01*
X109433382Y-92617367D01*
X109420934Y-92743750D01*
X109420934Y-93256250D01*
X109433382Y-93382633D01*
X109470246Y-93504158D01*
X109530111Y-93616157D01*
X109610675Y-93714325D01*
X109708843Y-93794889D01*
X109820842Y-93854754D01*
X109850084Y-93863625D01*
X109745842Y-93895246D01*
X109633843Y-93955111D01*
X109535675Y-94035675D01*
X109455111Y-94133843D01*
X109395246Y-94245842D01*
X109358382Y-94367367D01*
X109356107Y-94390462D01*
X109350938Y-94402942D01*
X109323000Y-94543397D01*
X109323000Y-94686603D01*
X109345934Y-94801901D01*
X109345934Y-94931250D01*
X109358382Y-95057633D01*
X109395246Y-95179158D01*
X109455111Y-95291157D01*
X109535675Y-95389325D01*
X109633843Y-95469889D01*
X109745842Y-95529754D01*
X109867367Y-95566618D01*
X109993750Y-95579066D01*
X110300565Y-95579066D01*
X110498010Y-95776511D01*
X110498011Y-97845934D01*
X110068750Y-97845934D01*
X109942367Y-97858382D01*
X109820842Y-97895246D01*
X109708843Y-97955111D01*
X109610675Y-98035675D01*
X109530111Y-98133843D01*
X109470246Y-98245842D01*
X109433382Y-98367367D01*
X109420934Y-98493750D01*
X109420934Y-99006250D01*
X109433382Y-99132633D01*
X109470246Y-99254158D01*
X109530111Y-99366157D01*
X109610675Y-99464325D01*
X109708843Y-99544889D01*
X109820842Y-99604754D01*
X109942367Y-99641618D01*
X110068750Y-99654066D01*
X110498011Y-99654066D01*
X110498011Y-99746669D01*
X110495220Y-99775010D01*
X110502204Y-99845934D01*
X109993750Y-99845934D01*
X109867367Y-99858382D01*
X109745842Y-99895246D01*
X109633843Y-99955111D01*
X109535675Y-100035675D01*
X109455111Y-100133843D01*
X109395246Y-100245842D01*
X109358382Y-100367367D01*
X109356107Y-100390462D01*
X109350938Y-100402942D01*
X109323000Y-100543397D01*
X109323000Y-100686603D01*
X109345934Y-100801901D01*
X109345934Y-100931250D01*
X109358382Y-101057633D01*
X109395246Y-101179158D01*
X109455111Y-101291157D01*
X109535675Y-101389325D01*
X109633843Y-101469889D01*
X109745842Y-101529754D01*
X109867367Y-101566618D01*
X109993750Y-101579066D01*
X110300565Y-101579066D01*
X111610828Y-102889329D01*
X111474851Y-103055017D01*
X111360916Y-103268176D01*
X111290755Y-103499466D01*
X111267064Y-103740000D01*
X111290755Y-103980534D01*
X111360916Y-104211824D01*
X111474851Y-104424983D01*
X111628183Y-104611817D01*
X111815017Y-104765149D01*
X112028176Y-104879084D01*
X112259466Y-104949245D01*
X112439732Y-104967000D01*
X112560268Y-104967000D01*
X112740534Y-104949245D01*
X112971824Y-104879084D01*
X113184983Y-104765149D01*
X113371817Y-104611817D01*
X113525149Y-104424983D01*
X113639084Y-104211824D01*
X113709245Y-103980534D01*
X113732936Y-103740000D01*
X113709245Y-103499466D01*
X113639084Y-103268176D01*
X113525149Y-103055017D01*
X113371817Y-102868183D01*
X113184983Y-102714851D01*
X112971824Y-102600916D01*
X112942349Y-102591975D01*
X112909974Y-102552526D01*
X112887963Y-102534462D01*
X112757576Y-102404075D01*
X112971824Y-102339084D01*
X113184983Y-102225149D01*
X113371817Y-102071817D01*
X113525149Y-101884983D01*
X113639084Y-101671824D01*
X113709245Y-101440534D01*
X113732936Y-101200000D01*
X113709245Y-100959466D01*
X113639084Y-100728176D01*
X113525149Y-100515017D01*
X113371817Y-100328183D01*
X113184983Y-100174851D01*
X112971824Y-100060916D01*
X112740534Y-99990755D01*
X112560268Y-99973000D01*
X112439732Y-99973000D01*
X112259466Y-99990755D01*
X112142298Y-100026297D01*
X111652010Y-99536009D01*
X111652010Y-95565838D01*
X111654800Y-95537509D01*
X111652010Y-95509180D01*
X111652010Y-95509174D01*
X111643660Y-95424398D01*
X111610667Y-95315634D01*
X111557089Y-95215395D01*
X111484984Y-95127536D01*
X111462973Y-95109472D01*
X111154066Y-94800565D01*
X111154066Y-94493750D01*
X111141618Y-94367367D01*
X111104754Y-94245842D01*
X111044889Y-94133843D01*
X110964325Y-94035675D01*
X110866157Y-93955111D01*
X110754158Y-93895246D01*
X110687416Y-93875000D01*
X110754158Y-93854754D01*
X110866157Y-93794889D01*
X110964325Y-93714325D01*
X111044889Y-93616157D01*
X111104754Y-93504158D01*
X111141618Y-93382633D01*
X111154066Y-93256250D01*
X111154066Y-93050067D01*
X111326297Y-93222298D01*
X111290755Y-93339466D01*
X111267064Y-93580000D01*
X111290755Y-93820534D01*
X111360916Y-94051824D01*
X111474851Y-94264983D01*
X111628183Y-94451817D01*
X111815017Y-94605149D01*
X112028176Y-94719084D01*
X112259466Y-94789245D01*
X112439732Y-94807000D01*
X112560268Y-94807000D01*
X112740534Y-94789245D01*
X112971824Y-94719084D01*
X113184983Y-94605149D01*
X113371817Y-94451817D01*
X113525149Y-94264983D01*
X113639084Y-94051824D01*
X113709245Y-93820534D01*
X113732936Y-93580000D01*
X118887064Y-93580000D01*
X118910755Y-93820534D01*
X118980916Y-94051824D01*
X119094851Y-94264983D01*
X119248183Y-94451817D01*
X119435017Y-94605149D01*
X119648176Y-94719084D01*
X119879466Y-94789245D01*
X120059732Y-94807000D01*
X120180268Y-94807000D01*
X120360534Y-94789245D01*
X120591824Y-94719084D01*
X120804983Y-94605149D01*
X120991817Y-94451817D01*
X121069632Y-94357000D01*
X122826157Y-94357000D01*
X123264471Y-94795314D01*
X123256478Y-94821664D01*
X123231822Y-95072000D01*
X123256478Y-95322336D01*
X123329498Y-95563051D01*
X123448076Y-95784896D01*
X123607656Y-95979344D01*
X123802104Y-96138924D01*
X124023949Y-96257502D01*
X124236571Y-96322000D01*
X124023949Y-96386498D01*
X123802104Y-96505076D01*
X123607656Y-96664656D01*
X123500685Y-96795000D01*
X123003163Y-96795000D01*
X122965000Y-96791241D01*
X122926836Y-96795000D01*
X122926834Y-96795000D01*
X122812681Y-96806243D01*
X122666216Y-96850673D01*
X122531234Y-96922823D01*
X122412920Y-97019920D01*
X122388592Y-97049564D01*
X121727569Y-97710588D01*
X121697920Y-97734920D01*
X121673591Y-97764566D01*
X121600823Y-97853234D01*
X121578895Y-97894259D01*
X121528673Y-97988217D01*
X121484243Y-98134682D01*
X121475724Y-98221177D01*
X121469241Y-98287000D01*
X121473000Y-98325163D01*
X121473001Y-101288155D01*
X121330187Y-101430969D01*
X121352936Y-101200000D01*
X121329245Y-100959466D01*
X121259084Y-100728176D01*
X121145149Y-100515017D01*
X120991817Y-100328183D01*
X120804983Y-100174851D01*
X120591824Y-100060916D01*
X120360534Y-99990755D01*
X120180268Y-99973000D01*
X120059732Y-99973000D01*
X119879466Y-99990755D01*
X119648176Y-100060916D01*
X119435017Y-100174851D01*
X119248183Y-100328183D01*
X119094851Y-100515017D01*
X118980916Y-100728176D01*
X118910755Y-100959466D01*
X118887064Y-101200000D01*
X118910755Y-101440534D01*
X118980916Y-101671824D01*
X119094851Y-101884983D01*
X119248183Y-102071817D01*
X119435017Y-102225149D01*
X119648176Y-102339084D01*
X119879466Y-102409245D01*
X120059732Y-102427000D01*
X120180268Y-102427000D01*
X120350970Y-102410187D01*
X120242070Y-102519087D01*
X120180268Y-102513000D01*
X120059732Y-102513000D01*
X119879466Y-102530755D01*
X119648176Y-102600916D01*
X119435017Y-102714851D01*
X119248183Y-102868183D01*
X119094851Y-103055017D01*
X118980916Y-103268176D01*
X118910755Y-103499466D01*
X118887064Y-103740000D01*
X118910755Y-103980534D01*
X118980916Y-104211824D01*
X119094851Y-104424983D01*
X119248183Y-104611817D01*
X119435017Y-104765149D01*
X119648176Y-104879084D01*
X119879466Y-104949245D01*
X120059732Y-104967000D01*
X120180268Y-104967000D01*
X120360534Y-104949245D01*
X120591824Y-104879084D01*
X120804983Y-104765149D01*
X120991817Y-104611817D01*
X121145149Y-104424983D01*
X121259084Y-104211824D01*
X121329245Y-103980534D01*
X121352936Y-103740000D01*
X121340913Y-103617930D01*
X122772436Y-102186408D01*
X122802080Y-102162080D01*
X122842267Y-102113112D01*
X122899177Y-102043767D01*
X122935252Y-101976275D01*
X122971327Y-101908784D01*
X123015757Y-101762319D01*
X123027000Y-101648166D01*
X123027000Y-101648164D01*
X123030759Y-101610000D01*
X123027000Y-101571837D01*
X123027000Y-98608843D01*
X123286844Y-98349000D01*
X123500685Y-98349000D01*
X123607656Y-98479344D01*
X123802104Y-98638924D01*
X124023949Y-98757502D01*
X124140753Y-98792934D01*
X123915000Y-98792934D01*
X123782521Y-98805982D01*
X123655133Y-98844625D01*
X123537731Y-98907377D01*
X123434828Y-98991828D01*
X123350377Y-99094731D01*
X123287625Y-99212133D01*
X123248982Y-99339521D01*
X123235934Y-99472000D01*
X123235934Y-100672000D01*
X123248982Y-100804479D01*
X123287625Y-100931867D01*
X123350377Y-101049269D01*
X123434828Y-101152172D01*
X123537731Y-101236623D01*
X123655133Y-101299375D01*
X123782521Y-101338018D01*
X123915000Y-101351066D01*
X125365000Y-101351066D01*
X125497479Y-101338018D01*
X125624867Y-101299375D01*
X125742269Y-101236623D01*
X125845172Y-101152172D01*
X125929623Y-101049269D01*
X125992375Y-100931867D01*
X126031018Y-100804479D01*
X126044066Y-100672000D01*
X126044066Y-99472000D01*
X126031018Y-99339521D01*
X125992375Y-99212133D01*
X125929623Y-99094731D01*
X125845172Y-98991828D01*
X125742269Y-98907377D01*
X125624867Y-98844625D01*
X125497479Y-98805982D01*
X125365000Y-98792934D01*
X125139247Y-98792934D01*
X125256051Y-98757502D01*
X125477896Y-98638924D01*
X125672344Y-98479344D01*
X125831924Y-98284896D01*
X125950502Y-98063051D01*
X126023522Y-97822336D01*
X126048178Y-97572000D01*
X126023522Y-97321664D01*
X125950502Y-97080949D01*
X125831924Y-96859104D01*
X125672344Y-96664656D01*
X125477896Y-96505076D01*
X125256051Y-96386498D01*
X125043429Y-96322000D01*
X125256051Y-96257502D01*
X125477896Y-96138924D01*
X125672344Y-95979344D01*
X125831924Y-95784896D01*
X125950502Y-95563051D01*
X126023522Y-95322336D01*
X126048178Y-95072000D01*
X126023522Y-94821664D01*
X125950502Y-94580949D01*
X125831924Y-94359104D01*
X125672344Y-94164656D01*
X125477896Y-94005076D01*
X125256051Y-93886498D01*
X125043429Y-93822000D01*
X125256051Y-93757502D01*
X125477896Y-93638924D01*
X125672344Y-93479344D01*
X125831924Y-93284896D01*
X125950502Y-93063051D01*
X126023522Y-92822336D01*
X126048178Y-92572000D01*
X126023522Y-92321664D01*
X125950502Y-92080949D01*
X125831924Y-91859104D01*
X125672344Y-91664656D01*
X125477896Y-91505076D01*
X125256051Y-91386498D01*
X125043429Y-91322000D01*
X125256051Y-91257502D01*
X125477896Y-91138924D01*
X125672344Y-90979344D01*
X125831924Y-90784896D01*
X125950502Y-90563051D01*
X126023522Y-90322336D01*
X126048178Y-90072000D01*
X126023522Y-89821664D01*
X125950502Y-89580949D01*
X125831924Y-89359104D01*
X125672344Y-89164656D01*
X125477896Y-89005076D01*
X125256051Y-88886498D01*
X125043429Y-88822000D01*
X125256051Y-88757502D01*
X125477896Y-88638924D01*
X125672344Y-88479344D01*
X125831924Y-88284896D01*
X125950502Y-88063051D01*
X126023522Y-87822336D01*
X126048178Y-87572000D01*
X126023522Y-87321664D01*
X125950502Y-87080949D01*
X125831924Y-86859104D01*
X125672344Y-86664656D01*
X125477896Y-86505076D01*
X125256051Y-86386498D01*
X125015336Y-86313478D01*
X124827726Y-86295000D01*
X124452274Y-86295000D01*
X124264664Y-86313478D01*
X124023949Y-86386498D01*
X123802104Y-86505076D01*
X123607656Y-86664656D01*
X123448076Y-86859104D01*
X123329498Y-87080949D01*
X123256478Y-87321664D01*
X123231822Y-87572000D01*
X123256478Y-87822336D01*
X123329498Y-88063051D01*
X123448076Y-88284896D01*
X123607656Y-88479344D01*
X123802104Y-88638924D01*
X124023949Y-88757502D01*
X124236571Y-88822000D01*
X124023949Y-88886498D01*
X123802104Y-89005076D01*
X123607656Y-89164656D01*
X123448076Y-89359104D01*
X123329498Y-89580949D01*
X123256478Y-89821664D01*
X123231822Y-90072000D01*
X123256478Y-90322336D01*
X123329498Y-90563051D01*
X123448076Y-90784896D01*
X123607656Y-90979344D01*
X123802104Y-91138924D01*
X124023949Y-91257502D01*
X124236571Y-91322000D01*
X124023949Y-91386498D01*
X123802104Y-91505076D01*
X123607656Y-91664656D01*
X123500685Y-91795000D01*
X121846155Y-91795000D01*
X121807999Y-91791242D01*
X121769844Y-91795000D01*
X121769834Y-91795000D01*
X121688608Y-91803000D01*
X121668548Y-91803000D01*
X121508773Y-91834782D01*
X121358269Y-91897123D01*
X121222819Y-91987628D01*
X121107628Y-92102819D01*
X121017123Y-92238269D01*
X120954782Y-92388773D01*
X120923000Y-92548548D01*
X120923000Y-92651706D01*
X120804983Y-92554851D01*
X120591824Y-92440916D01*
X120360534Y-92370755D01*
X120180268Y-92353000D01*
X120059732Y-92353000D01*
X119879466Y-92370755D01*
X119648176Y-92440916D01*
X119435017Y-92554851D01*
X119248183Y-92708183D01*
X119094851Y-92895017D01*
X118980916Y-93108176D01*
X118910755Y-93339466D01*
X118887064Y-93580000D01*
X113732936Y-93580000D01*
X113709245Y-93339466D01*
X113639084Y-93108176D01*
X113525149Y-92895017D01*
X113371817Y-92708183D01*
X113184983Y-92554851D01*
X112971824Y-92440916D01*
X112740534Y-92370755D01*
X112560268Y-92353000D01*
X112439732Y-92353000D01*
X112259466Y-92370755D01*
X112142298Y-92406297D01*
X111737683Y-92001682D01*
X111815017Y-92065149D01*
X112028176Y-92179084D01*
X112259466Y-92249245D01*
X112439732Y-92267000D01*
X112560268Y-92267000D01*
X112740534Y-92249245D01*
X112971824Y-92179084D01*
X113184983Y-92065149D01*
X113371817Y-91911817D01*
X113525149Y-91724983D01*
X113639084Y-91511824D01*
X113709245Y-91280534D01*
X113732936Y-91040000D01*
X118887064Y-91040000D01*
X118910755Y-91280534D01*
X118980916Y-91511824D01*
X119094851Y-91724983D01*
X119248183Y-91911817D01*
X119435017Y-92065149D01*
X119648176Y-92179084D01*
X119879466Y-92249245D01*
X120059732Y-92267000D01*
X120180268Y-92267000D01*
X120360534Y-92249245D01*
X120591824Y-92179084D01*
X120804983Y-92065149D01*
X120991817Y-91911817D01*
X121145149Y-91724983D01*
X121259084Y-91511824D01*
X121329245Y-91280534D01*
X121352936Y-91040000D01*
X121329245Y-90799466D01*
X121259084Y-90568176D01*
X121145149Y-90355017D01*
X120991817Y-90168183D01*
X120804983Y-90014851D01*
X120591824Y-89900916D01*
X120360534Y-89830755D01*
X120180268Y-89813000D01*
X120059732Y-89813000D01*
X119879466Y-89830755D01*
X119648176Y-89900916D01*
X119435017Y-90014851D01*
X119248183Y-90168183D01*
X119094851Y-90355017D01*
X118980916Y-90568176D01*
X118910755Y-90799466D01*
X118887064Y-91040000D01*
X113732936Y-91040000D01*
X113709245Y-90799466D01*
X113639084Y-90568176D01*
X113525149Y-90355017D01*
X113371817Y-90168183D01*
X113184983Y-90014851D01*
X112971824Y-89900916D01*
X112740534Y-89830755D01*
X112560268Y-89813000D01*
X112439732Y-89813000D01*
X112259466Y-89830755D01*
X112028176Y-89900916D01*
X111815017Y-90014851D01*
X111652010Y-90148629D01*
X111652010Y-89724340D01*
X111700000Y-89729066D01*
X113300000Y-89729066D01*
X113383707Y-89720822D01*
X113464196Y-89696405D01*
X113538376Y-89656755D01*
X113603395Y-89603395D01*
X113656755Y-89538376D01*
X113696405Y-89464196D01*
X113720822Y-89383707D01*
X113729066Y-89300000D01*
X113729066Y-88500000D01*
X118887064Y-88500000D01*
X118910755Y-88740534D01*
X118980916Y-88971824D01*
X119094851Y-89184983D01*
X119248183Y-89371817D01*
X119435017Y-89525149D01*
X119648176Y-89639084D01*
X119879466Y-89709245D01*
X120059732Y-89727000D01*
X120180268Y-89727000D01*
X120360534Y-89709245D01*
X120591824Y-89639084D01*
X120804983Y-89525149D01*
X120991817Y-89371817D01*
X121145149Y-89184983D01*
X121259084Y-88971824D01*
X121329245Y-88740534D01*
X121352936Y-88500000D01*
X121329245Y-88259466D01*
X121307794Y-88188752D01*
X121314500Y-88120666D01*
X121314500Y-88120657D01*
X121318258Y-88082501D01*
X121314500Y-88044345D01*
X121314500Y-86829468D01*
X121354754Y-86754158D01*
X121391618Y-86632633D01*
X121404066Y-86506250D01*
X121404066Y-85993750D01*
X121391618Y-85867367D01*
X121354754Y-85745842D01*
X121294889Y-85633843D01*
X121214325Y-85535675D01*
X121116157Y-85455111D01*
X121004158Y-85395246D01*
X120882633Y-85358382D01*
X120756250Y-85345934D01*
X120318750Y-85345934D01*
X120192367Y-85358382D01*
X120070842Y-85395246D01*
X119958843Y-85455111D01*
X119860675Y-85535675D01*
X119780111Y-85633843D01*
X119720246Y-85745842D01*
X119683382Y-85867367D01*
X119670934Y-85993750D01*
X119670934Y-86506250D01*
X119683382Y-86632633D01*
X119720246Y-86754158D01*
X119760500Y-86829468D01*
X119760501Y-87326843D01*
X119648176Y-87360916D01*
X119435017Y-87474851D01*
X119248183Y-87628183D01*
X119094851Y-87815017D01*
X118980916Y-88028176D01*
X118910755Y-88259466D01*
X118887064Y-88500000D01*
X113729066Y-88500000D01*
X113729066Y-87700000D01*
X113720822Y-87616293D01*
X113696405Y-87535804D01*
X113656755Y-87461624D01*
X113603395Y-87396605D01*
X113538376Y-87343245D01*
X113464196Y-87303595D01*
X113383707Y-87279178D01*
X113300000Y-87270934D01*
X111700000Y-87270934D01*
X111616293Y-87279178D01*
X111535804Y-87303595D01*
X111461624Y-87343245D01*
X111404066Y-87390482D01*
X111404066Y-86993750D01*
X111391618Y-86867367D01*
X111354754Y-86745842D01*
X111294889Y-86633843D01*
X111214325Y-86535675D01*
X111116157Y-86455111D01*
X111004158Y-86395246D01*
X110882633Y-86358382D01*
X110756250Y-86345934D01*
X110318750Y-86345934D01*
X110192367Y-86358382D01*
X110070842Y-86395246D01*
X109958843Y-86455111D01*
X109860675Y-86535675D01*
X109780111Y-86633843D01*
X109720246Y-86745842D01*
X109683382Y-86867367D01*
X109670934Y-86993750D01*
X109670934Y-87506250D01*
X109683382Y-87632633D01*
X109720246Y-87754158D01*
X109780111Y-87866157D01*
X109792394Y-87881125D01*
X109745842Y-87895246D01*
X109633843Y-87955111D01*
X109535675Y-88035675D01*
X109455111Y-88133843D01*
X109395246Y-88245842D01*
X109358382Y-88367367D01*
X109356107Y-88390462D01*
X109350938Y-88402942D01*
X109323000Y-88543397D01*
X108127000Y-88543397D01*
X108127000Y-84993750D01*
X109670934Y-84993750D01*
X109670934Y-85506250D01*
X109683382Y-85632633D01*
X109720246Y-85754158D01*
X109780111Y-85866157D01*
X109860675Y-85964325D01*
X109958843Y-86044889D01*
X110070842Y-86104754D01*
X110192367Y-86141618D01*
X110318750Y-86154066D01*
X110756250Y-86154066D01*
X110882633Y-86141618D01*
X111000000Y-86106015D01*
X111117367Y-86141618D01*
X111243750Y-86154066D01*
X111681250Y-86154066D01*
X111807633Y-86141618D01*
X111929158Y-86104754D01*
X112041157Y-86044889D01*
X112139325Y-85964325D01*
X112219889Y-85866157D01*
X112250000Y-85809824D01*
X112280111Y-85866157D01*
X112360675Y-85964325D01*
X112458843Y-86044889D01*
X112570842Y-86104754D01*
X112692367Y-86141618D01*
X112818750Y-86154066D01*
X113256250Y-86154066D01*
X113382633Y-86141618D01*
X113504158Y-86104754D01*
X113616157Y-86044889D01*
X113714325Y-85964325D01*
X113794889Y-85866157D01*
X113854754Y-85754158D01*
X113891618Y-85632633D01*
X113904066Y-85506250D01*
X113904066Y-84993750D01*
X113891618Y-84867367D01*
X113854754Y-84745842D01*
X113794889Y-84633843D01*
X113714325Y-84535675D01*
X113616157Y-84455111D01*
X113504158Y-84395246D01*
X113382633Y-84358382D01*
X113256250Y-84345934D01*
X112818750Y-84345934D01*
X112692367Y-84358382D01*
X112570842Y-84395246D01*
X112458843Y-84455111D01*
X112360675Y-84535675D01*
X112280111Y-84633843D01*
X112250000Y-84690176D01*
X112219889Y-84633843D01*
X112139325Y-84535675D01*
X112041157Y-84455111D01*
X111929158Y-84395246D01*
X111807633Y-84358382D01*
X111681250Y-84345934D01*
X111243750Y-84345934D01*
X111117367Y-84358382D01*
X111000000Y-84393985D01*
X110882633Y-84358382D01*
X110756250Y-84345934D01*
X110318750Y-84345934D01*
X110192367Y-84358382D01*
X110070842Y-84395246D01*
X109958843Y-84455111D01*
X109860675Y-84535675D01*
X109780111Y-84633843D01*
X109720246Y-84745842D01*
X109683382Y-84867367D01*
X109670934Y-84993750D01*
X108127000Y-84993750D01*
X108127000Y-83250000D01*
X108124560Y-83225224D01*
X108117333Y-83201399D01*
X108105597Y-83179443D01*
X108089803Y-83160197D01*
X108070557Y-83144403D01*
X108048601Y-83132667D01*
X108024776Y-83125440D01*
X108000000Y-83123000D01*
X97502000Y-83123000D01*
X97502000Y-81287274D01*
X105523000Y-81287274D01*
X105523000Y-81712725D01*
X105541478Y-81900335D01*
X105614498Y-82141050D01*
X105733076Y-82362895D01*
X105892656Y-82557344D01*
X106087104Y-82716924D01*
X106308949Y-82835502D01*
X106549664Y-82908522D01*
X106800000Y-82933178D01*
X107050335Y-82908522D01*
X107291050Y-82835502D01*
X107512895Y-82716924D01*
X107707344Y-82557344D01*
X107866924Y-82362896D01*
X107985502Y-82141051D01*
X108058522Y-81900336D01*
X108077000Y-81712726D01*
X108077000Y-81287275D01*
X108077000Y-81287274D01*
X113723000Y-81287274D01*
X113723000Y-81712725D01*
X113741478Y-81900335D01*
X113814498Y-82141050D01*
X113933076Y-82362895D01*
X114092656Y-82557344D01*
X114287104Y-82716924D01*
X114508949Y-82835502D01*
X114749664Y-82908522D01*
X115000000Y-82933178D01*
X115250335Y-82908522D01*
X115491050Y-82835502D01*
X115712895Y-82716924D01*
X115907344Y-82557344D01*
X115931100Y-82528397D01*
X123273000Y-82528397D01*
X123273000Y-82671603D01*
X123300938Y-82812058D01*
X123355741Y-82944364D01*
X123435302Y-83063436D01*
X123536564Y-83164698D01*
X123655636Y-83244259D01*
X123787942Y-83299062D01*
X123928397Y-83327000D01*
X124071603Y-83327000D01*
X124088182Y-83323702D01*
X124097971Y-83324666D01*
X124121664Y-83327000D01*
X124121668Y-83327000D01*
X124149999Y-83329790D01*
X124178330Y-83327000D01*
X127184181Y-83327000D01*
X127205111Y-83366157D01*
X127285675Y-83464325D01*
X127383843Y-83544889D01*
X127495842Y-83604754D01*
X127617367Y-83641618D01*
X127743750Y-83654066D01*
X128181250Y-83654066D01*
X128307633Y-83641618D01*
X128429158Y-83604754D01*
X128541157Y-83544889D01*
X128639325Y-83464325D01*
X128719889Y-83366157D01*
X128750000Y-83309824D01*
X128780111Y-83366157D01*
X128860675Y-83464325D01*
X128958843Y-83544889D01*
X129070842Y-83604754D01*
X129192367Y-83641618D01*
X129318750Y-83654066D01*
X129756250Y-83654066D01*
X129882633Y-83641618D01*
X130000000Y-83606015D01*
X130117367Y-83641618D01*
X130243750Y-83654066D01*
X130681250Y-83654066D01*
X130807633Y-83641618D01*
X130929158Y-83604754D01*
X131041157Y-83544889D01*
X131139325Y-83464325D01*
X131219889Y-83366157D01*
X131279754Y-83254158D01*
X131316618Y-83132633D01*
X131329066Y-83006250D01*
X131329066Y-82493750D01*
X131316618Y-82367367D01*
X131279754Y-82245842D01*
X131219889Y-82133843D01*
X131139325Y-82035675D01*
X131041157Y-81955111D01*
X130929158Y-81895246D01*
X130807633Y-81858382D01*
X130681250Y-81845934D01*
X130243750Y-81845934D01*
X130117367Y-81858382D01*
X130000000Y-81893985D01*
X129882633Y-81858382D01*
X129756250Y-81845934D01*
X129318750Y-81845934D01*
X129192367Y-81858382D01*
X129070842Y-81895246D01*
X128958843Y-81955111D01*
X128860675Y-82035675D01*
X128780111Y-82133843D01*
X128750000Y-82190176D01*
X128719889Y-82133843D01*
X128639325Y-82035675D01*
X128541157Y-81955111D01*
X128429158Y-81895246D01*
X128307633Y-81858382D01*
X128181250Y-81845934D01*
X127743750Y-81845934D01*
X127617367Y-81858382D01*
X127495842Y-81895246D01*
X127383843Y-81955111D01*
X127285675Y-82035675D01*
X127205111Y-82133843D01*
X127184181Y-82173000D01*
X124589044Y-82173000D01*
X124564698Y-82136564D01*
X124463436Y-82035302D01*
X124344364Y-81955741D01*
X124212058Y-81900938D01*
X124071603Y-81873000D01*
X123928397Y-81873000D01*
X123787942Y-81900938D01*
X123655636Y-81955741D01*
X123536564Y-82035302D01*
X123435302Y-82136564D01*
X123355741Y-82255636D01*
X123300938Y-82387942D01*
X123273000Y-82528397D01*
X115931100Y-82528397D01*
X116066924Y-82362896D01*
X116185502Y-82141051D01*
X116258522Y-81900336D01*
X116277000Y-81712726D01*
X116277000Y-81287275D01*
X116258522Y-81099665D01*
X116185502Y-80858950D01*
X116066924Y-80637105D01*
X115907344Y-80442656D01*
X115712896Y-80283076D01*
X115491051Y-80164498D01*
X115250336Y-80091478D01*
X115000000Y-80066822D01*
X114749665Y-80091478D01*
X114508950Y-80164498D01*
X114287105Y-80283076D01*
X114092657Y-80442656D01*
X113933076Y-80637104D01*
X113814498Y-80858949D01*
X113741478Y-81099664D01*
X113723000Y-81287274D01*
X108077000Y-81287274D01*
X108058522Y-81099665D01*
X107985502Y-80858950D01*
X107866924Y-80637105D01*
X107707344Y-80442656D01*
X107512896Y-80283076D01*
X107291051Y-80164498D01*
X107050336Y-80091478D01*
X106800000Y-80066822D01*
X106549665Y-80091478D01*
X106308950Y-80164498D01*
X106087105Y-80283076D01*
X105892657Y-80442656D01*
X105733076Y-80637104D01*
X105614498Y-80858949D01*
X105541478Y-81099664D01*
X105523000Y-81287274D01*
X97502000Y-81287274D01*
X97502000Y-77879151D01*
X122773000Y-77879151D01*
X122773000Y-78120849D01*
X122820153Y-78357903D01*
X122912647Y-78581202D01*
X123046927Y-78782167D01*
X123217833Y-78953073D01*
X123418798Y-79087353D01*
X123642097Y-79179847D01*
X123879151Y-79227000D01*
X124120849Y-79227000D01*
X124357903Y-79179847D01*
X124362105Y-79178106D01*
X125321961Y-80137962D01*
X125340026Y-80159974D01*
X125427885Y-80232079D01*
X125528124Y-80285657D01*
X125572782Y-80299204D01*
X125636888Y-80318651D01*
X125694886Y-80324363D01*
X125721664Y-80327000D01*
X125721669Y-80327000D01*
X125750000Y-80329790D01*
X125778331Y-80327000D01*
X127184181Y-80327000D01*
X127205111Y-80366157D01*
X127285675Y-80464325D01*
X127383843Y-80544889D01*
X127495842Y-80604754D01*
X127617367Y-80641618D01*
X127743750Y-80654066D01*
X128181250Y-80654066D01*
X128307633Y-80641618D01*
X128429158Y-80604754D01*
X128541157Y-80544889D01*
X128639325Y-80464325D01*
X128719889Y-80366157D01*
X128750000Y-80309824D01*
X128780111Y-80366157D01*
X128860675Y-80464325D01*
X128958843Y-80544889D01*
X129070842Y-80604754D01*
X129192367Y-80641618D01*
X129318750Y-80654066D01*
X129756250Y-80654066D01*
X129882633Y-80641618D01*
X130000000Y-80606015D01*
X130117367Y-80641618D01*
X130243750Y-80654066D01*
X130681250Y-80654066D01*
X130807633Y-80641618D01*
X130929158Y-80604754D01*
X131041157Y-80544889D01*
X131139325Y-80464325D01*
X131219889Y-80366157D01*
X131279754Y-80254158D01*
X131316618Y-80132633D01*
X131329066Y-80006250D01*
X131329066Y-79493750D01*
X131316618Y-79367367D01*
X131279754Y-79245842D01*
X131219889Y-79133843D01*
X131139325Y-79035675D01*
X131041157Y-78955111D01*
X130929158Y-78895246D01*
X130807633Y-78858382D01*
X130681250Y-78845934D01*
X130243750Y-78845934D01*
X130117367Y-78858382D01*
X130000000Y-78893985D01*
X129882633Y-78858382D01*
X129756250Y-78845934D01*
X129318750Y-78845934D01*
X129192367Y-78858382D01*
X129070842Y-78895246D01*
X128958843Y-78955111D01*
X128860675Y-79035675D01*
X128780111Y-79133843D01*
X128750000Y-79190176D01*
X128719889Y-79133843D01*
X128639325Y-79035675D01*
X128541157Y-78955111D01*
X128429158Y-78895246D01*
X128307633Y-78858382D01*
X128181250Y-78845934D01*
X127743750Y-78845934D01*
X127617367Y-78858382D01*
X127495842Y-78895246D01*
X127383843Y-78955111D01*
X127285675Y-79035675D01*
X127205111Y-79133843D01*
X127184181Y-79173000D01*
X125989001Y-79173000D01*
X125178106Y-78362105D01*
X125179847Y-78357903D01*
X125227000Y-78120849D01*
X125227000Y-77879151D01*
X125179847Y-77642097D01*
X125087353Y-77418798D01*
X124953073Y-77217833D01*
X124782167Y-77046927D01*
X124581202Y-76912647D01*
X124357903Y-76820153D01*
X124120849Y-76773000D01*
X123879151Y-76773000D01*
X123642097Y-76820153D01*
X123418798Y-76912647D01*
X123217833Y-77046927D01*
X123046927Y-77217833D01*
X122912647Y-77418798D01*
X122820153Y-77642097D01*
X122773000Y-77879151D01*
X97502000Y-77879151D01*
X97502000Y-75024551D01*
X97551936Y-74515269D01*
X97692709Y-74049005D01*
X97921367Y-73618960D01*
X98229200Y-73241521D01*
X98604480Y-72931061D01*
X99032918Y-72699406D01*
X99498189Y-72555379D01*
X100006059Y-72502000D01*
X128651490Y-72502000D01*
X128338075Y-72815415D01*
G36*
X104873000Y-100293000D02*
G01*
X104734002Y-100293000D01*
X102088792Y-97647791D01*
X102105313Y-97593330D01*
X102105741Y-97594364D01*
X102185302Y-97713436D01*
X102286564Y-97814698D01*
X102405636Y-97894259D01*
X102537942Y-97949062D01*
X102678397Y-97977000D01*
X102821603Y-97977000D01*
X102962058Y-97949062D01*
X103094364Y-97894259D01*
X103213436Y-97814698D01*
X103314698Y-97713436D01*
X103394259Y-97594364D01*
X103449062Y-97462058D01*
X103477000Y-97321603D01*
X103477000Y-97178397D01*
X103449062Y-97037942D01*
X103394259Y-96905636D01*
X103327000Y-96804975D01*
X103327000Y-94153328D01*
X103329790Y-94124999D01*
X103327000Y-94096670D01*
X103327000Y-94096664D01*
X103318650Y-94011888D01*
X103285657Y-93903124D01*
X103232079Y-93802885D01*
X103159974Y-93715026D01*
X103137963Y-93696962D01*
X102088792Y-92647791D01*
X102133522Y-92500336D01*
X102158178Y-92250000D01*
X102133522Y-91999664D01*
X102060502Y-91758949D01*
X101941924Y-91537104D01*
X101782344Y-91342656D01*
X101587896Y-91183076D01*
X101366051Y-91064498D01*
X101153429Y-91000000D01*
X101366051Y-90935502D01*
X101587896Y-90816924D01*
X101782344Y-90657344D01*
X101941924Y-90462896D01*
X102060502Y-90241051D01*
X102133522Y-90000336D01*
X102158178Y-89750000D01*
X102133522Y-89499664D01*
X102060502Y-89258949D01*
X101941924Y-89037104D01*
X101782344Y-88842656D01*
X101587896Y-88683076D01*
X101366051Y-88564498D01*
X101125336Y-88491478D01*
X100937726Y-88473000D01*
X100562274Y-88473000D01*
X100374664Y-88491478D01*
X100133949Y-88564498D01*
X99912104Y-88683076D01*
X99717656Y-88842656D01*
X99558076Y-89037104D01*
X99439498Y-89258949D01*
X99366478Y-89499664D01*
X99341822Y-89750000D01*
X99366478Y-90000336D01*
X99439498Y-90241051D01*
X99558076Y-90462896D01*
X99717656Y-90657344D01*
X99912104Y-90816924D01*
X100133949Y-90935502D01*
X100346571Y-91000000D01*
X100133949Y-91064498D01*
X99912104Y-91183076D01*
X99717656Y-91342656D01*
X99558076Y-91537104D01*
X99439498Y-91758949D01*
X99366478Y-91999664D01*
X99341822Y-92250000D01*
X99366478Y-92500336D01*
X99439498Y-92741051D01*
X99558076Y-92962896D01*
X99717656Y-93157344D01*
X99912104Y-93316924D01*
X100133949Y-93435502D01*
X100346571Y-93500000D01*
X100133949Y-93564498D01*
X99912104Y-93683076D01*
X99717656Y-93842656D01*
X99558076Y-94037104D01*
X99439498Y-94258949D01*
X99366478Y-94499664D01*
X99341822Y-94750000D01*
X99366478Y-95000336D01*
X99439498Y-95241051D01*
X99558076Y-95462896D01*
X99717656Y-95657344D01*
X99912104Y-95816924D01*
X100133949Y-95935502D01*
X100346571Y-96000000D01*
X100133949Y-96064498D01*
X99912104Y-96183076D01*
X99717656Y-96342656D01*
X99558076Y-96537104D01*
X99439498Y-96758949D01*
X99366478Y-96999664D01*
X99341822Y-97250000D01*
X99366478Y-97500336D01*
X99439498Y-97741051D01*
X99558076Y-97962896D01*
X99717656Y-98157344D01*
X99912104Y-98316924D01*
X100133949Y-98435502D01*
X100346571Y-98500000D01*
X100133949Y-98564498D01*
X99912104Y-98683076D01*
X99717656Y-98842656D01*
X99558076Y-99037104D01*
X99439498Y-99258949D01*
X99366478Y-99499664D01*
X99341822Y-99750000D01*
X99366478Y-100000336D01*
X99439498Y-100241051D01*
X99558076Y-100462896D01*
X99717656Y-100657344D01*
X99912104Y-100816924D01*
X100133949Y-100935502D01*
X100174930Y-100947934D01*
X100181349Y-101013111D01*
X100214344Y-101121876D01*
X100267922Y-101222115D01*
X100298840Y-101259788D01*
X100321963Y-101287964D01*
X100321966Y-101287967D01*
X100340027Y-101309974D01*
X100362034Y-101328035D01*
X101421961Y-102387962D01*
X101440026Y-102409974D01*
X101527885Y-102482079D01*
X101628124Y-102535657D01*
X101672782Y-102549204D01*
X101736888Y-102568651D01*
X101794886Y-102574363D01*
X101821664Y-102577000D01*
X101821669Y-102577000D01*
X101850000Y-102579790D01*
X101878331Y-102577000D01*
X104873000Y-102577000D01*
X104873000Y-108498000D01*
X102348510Y-108498000D01*
X102661925Y-108184585D01*
X103036968Y-107623293D01*
X103295303Y-106999619D01*
X103427000Y-106337530D01*
X103427000Y-105662470D01*
X103295303Y-105000381D01*
X103036968Y-104376707D01*
X102661925Y-103815415D01*
X102184585Y-103338075D01*
X101623293Y-102963032D01*
X100999619Y-102704697D01*
X100337530Y-102573000D01*
X99662470Y-102573000D01*
X99000381Y-102704697D01*
X98376707Y-102963032D01*
X97815415Y-103338075D01*
X97502000Y-103651490D01*
X97502000Y-86377000D01*
X104873000Y-86377000D01*
X104873000Y-100293000D01*
X104873000Y-100293000D01*
G37*
X104873000Y-100293000D02*
X104734002Y-100293000D01*
X102088792Y-97647791D01*
X102105313Y-97593330D01*
X102105741Y-97594364D01*
X102185302Y-97713436D01*
X102286564Y-97814698D01*
X102405636Y-97894259D01*
X102537942Y-97949062D01*
X102678397Y-97977000D01*
X102821603Y-97977000D01*
X102962058Y-97949062D01*
X103094364Y-97894259D01*
X103213436Y-97814698D01*
X103314698Y-97713436D01*
X103394259Y-97594364D01*
X103449062Y-97462058D01*
X103477000Y-97321603D01*
X103477000Y-97178397D01*
X103449062Y-97037942D01*
X103394259Y-96905636D01*
X103327000Y-96804975D01*
X103327000Y-94153328D01*
X103329790Y-94124999D01*
X103327000Y-94096670D01*
X103327000Y-94096664D01*
X103318650Y-94011888D01*
X103285657Y-93903124D01*
X103232079Y-93802885D01*
X103159974Y-93715026D01*
X103137963Y-93696962D01*
X102088792Y-92647791D01*
X102133522Y-92500336D01*
X102158178Y-92250000D01*
X102133522Y-91999664D01*
X102060502Y-91758949D01*
X101941924Y-91537104D01*
X101782344Y-91342656D01*
X101587896Y-91183076D01*
X101366051Y-91064498D01*
X101153429Y-91000000D01*
X101366051Y-90935502D01*
X101587896Y-90816924D01*
X101782344Y-90657344D01*
X101941924Y-90462896D01*
X102060502Y-90241051D01*
X102133522Y-90000336D01*
X102158178Y-89750000D01*
X102133522Y-89499664D01*
X102060502Y-89258949D01*
X101941924Y-89037104D01*
X101782344Y-88842656D01*
X101587896Y-88683076D01*
X101366051Y-88564498D01*
X101125336Y-88491478D01*
X100937726Y-88473000D01*
X100562274Y-88473000D01*
X100374664Y-88491478D01*
X100133949Y-88564498D01*
X99912104Y-88683076D01*
X99717656Y-88842656D01*
X99558076Y-89037104D01*
X99439498Y-89258949D01*
X99366478Y-89499664D01*
X99341822Y-89750000D01*
X99366478Y-90000336D01*
X99439498Y-90241051D01*
X99558076Y-90462896D01*
X99717656Y-90657344D01*
X99912104Y-90816924D01*
X100133949Y-90935502D01*
X100346571Y-91000000D01*
X100133949Y-91064498D01*
X99912104Y-91183076D01*
X99717656Y-91342656D01*
X99558076Y-91537104D01*
X99439498Y-91758949D01*
X99366478Y-91999664D01*
X99341822Y-92250000D01*
X99366478Y-92500336D01*
X99439498Y-92741051D01*
X99558076Y-92962896D01*
X99717656Y-93157344D01*
X99912104Y-93316924D01*
X100133949Y-93435502D01*
X100346571Y-93500000D01*
X100133949Y-93564498D01*
X99912104Y-93683076D01*
X99717656Y-93842656D01*
X99558076Y-94037104D01*
X99439498Y-94258949D01*
X99366478Y-94499664D01*
X99341822Y-94750000D01*
X99366478Y-95000336D01*
X99439498Y-95241051D01*
X99558076Y-95462896D01*
X99717656Y-95657344D01*
X99912104Y-95816924D01*
X100133949Y-95935502D01*
X100346571Y-96000000D01*
X100133949Y-96064498D01*
X99912104Y-96183076D01*
X99717656Y-96342656D01*
X99558076Y-96537104D01*
X99439498Y-96758949D01*
X99366478Y-96999664D01*
X99341822Y-97250000D01*
X99366478Y-97500336D01*
X99439498Y-97741051D01*
X99558076Y-97962896D01*
X99717656Y-98157344D01*
X99912104Y-98316924D01*
X100133949Y-98435502D01*
X100346571Y-98500000D01*
X100133949Y-98564498D01*
X99912104Y-98683076D01*
X99717656Y-98842656D01*
X99558076Y-99037104D01*
X99439498Y-99258949D01*
X99366478Y-99499664D01*
X99341822Y-99750000D01*
X99366478Y-100000336D01*
X99439498Y-100241051D01*
X99558076Y-100462896D01*
X99717656Y-100657344D01*
X99912104Y-100816924D01*
X100133949Y-100935502D01*
X100174930Y-100947934D01*
X100181349Y-101013111D01*
X100214344Y-101121876D01*
X100267922Y-101222115D01*
X100298840Y-101259788D01*
X100321963Y-101287964D01*
X100321966Y-101287967D01*
X100340027Y-101309974D01*
X100362034Y-101328035D01*
X101421961Y-102387962D01*
X101440026Y-102409974D01*
X101527885Y-102482079D01*
X101628124Y-102535657D01*
X101672782Y-102549204D01*
X101736888Y-102568651D01*
X101794886Y-102574363D01*
X101821664Y-102577000D01*
X101821669Y-102577000D01*
X101850000Y-102579790D01*
X101878331Y-102577000D01*
X104873000Y-102577000D01*
X104873000Y-108498000D01*
X102348510Y-108498000D01*
X102661925Y-108184585D01*
X103036968Y-107623293D01*
X103295303Y-106999619D01*
X103427000Y-106337530D01*
X103427000Y-105662470D01*
X103295303Y-105000381D01*
X103036968Y-104376707D01*
X102661925Y-103815415D01*
X102184585Y-103338075D01*
X101623293Y-102963032D01*
X100999619Y-102704697D01*
X100337530Y-102573000D01*
X99662470Y-102573000D01*
X99000381Y-102704697D01*
X98376707Y-102963032D01*
X97815415Y-103338075D01*
X97502000Y-103651490D01*
X97502000Y-86377000D01*
X104873000Y-86377000D01*
X104873000Y-100293000D01*
M02*
