M48
; DRILL file {KiCad (5.1.4)-1} date 2019/10/14 17:43:05
; FORMAT={-:-/ absolute / metric / decimal}
; #@! TF.CreationDate,2019-10-14T17:43:05+09:00
; #@! TF.GenerationSoftware,Kicad,Pcbnew,(5.1.4)-1
FMAT,2
METRIC
T1C0.762
T2C0.900
T3C1.000
T4C1.100
T5C1.200
T6C2.100
T7C3.000
%
G90
G05
T1
X173.365Y-149.59
X173.365Y-152.13
X173.365Y-154.67
X173.365Y-157.21
X173.365Y-159.75
X173.365Y-162.29
X173.365Y-164.83
X173.365Y-167.37
X173.365Y-169.91
T2
X156.5Y-115.0
X159.04Y-115.0
X156.46Y-120.25
X159.0Y-120.25
X156.46Y-136.0
X159.0Y-136.0
X135.25Y-71.71
X135.25Y-74.25
X186.5Y-71.2
X189.04Y-71.2
X156.46Y-141.25
X159.0Y-141.25
X156.46Y-125.5
X159.0Y-125.5
X156.46Y-109.75
X159.0Y-109.75
X156.46Y-130.75
X159.0Y-130.75
X156.46Y-104.5
X159.0Y-104.5
X179.2Y-69.96
X179.2Y-72.5
T3
X139.71Y-63.75
X139.71Y-66.29
X139.71Y-68.83
X139.71Y-71.37
X139.71Y-73.91
X139.71Y-76.45
X139.71Y-78.99
X139.71Y-81.53
X139.71Y-84.07
X139.71Y-86.61
X139.71Y-89.15
X139.71Y-91.69
X139.71Y-94.23
X139.71Y-96.77
X139.71Y-99.31
X142.25Y-63.75
X142.25Y-66.29
X142.25Y-68.83
X142.25Y-71.37
X142.25Y-73.91
X142.25Y-76.45
X142.25Y-78.99
X142.25Y-81.53
X142.25Y-84.07
X142.25Y-86.61
X142.25Y-89.15
X142.25Y-91.69
X142.25Y-94.23
X142.25Y-96.77
X142.25Y-99.31
X167.71Y-63.75
X167.71Y-66.29
X167.71Y-68.83
X167.71Y-71.37
X167.71Y-73.91
X167.71Y-76.45
X167.71Y-78.99
X167.71Y-81.53
X167.71Y-84.07
X167.71Y-86.61
X167.71Y-89.15
X167.71Y-91.69
X167.71Y-94.23
X167.71Y-96.77
X167.71Y-99.31
X170.25Y-63.75
X170.25Y-66.29
X170.25Y-68.83
X170.25Y-71.37
X170.25Y-73.91
X170.25Y-76.45
X170.25Y-78.99
X170.25Y-81.53
X170.25Y-84.07
X170.25Y-86.61
X170.25Y-89.15
X170.25Y-91.69
X170.25Y-94.23
X170.25Y-96.77
X170.25Y-99.31
X135.5Y-114.96
X135.5Y-117.5
X135.5Y-120.04
X135.5Y-122.58
X135.5Y-125.12
X135.5Y-127.66
X135.5Y-130.2
X135.5Y-132.74
X188.0Y-77.2
X188.0Y-79.7
X188.0Y-82.2
X188.0Y-84.7
X187.25Y-62.5
X187.25Y-65.0
X177.2Y-117.55
X177.2Y-120.15
X177.2Y-122.65
X191.7Y-116.15
X191.7Y-118.15
X191.7Y-120.15
X191.7Y-122.15
X191.7Y-124.15
X181.3Y-90.5
X181.3Y-93.0
X181.3Y-95.5
X181.3Y-98.0
X181.3Y-77.2
X181.3Y-79.7
X181.3Y-82.2
X181.3Y-84.7
T5
X139.42Y-125.5
X141.96Y-125.5
X144.5Y-125.5
X147.03Y-125.5
X149.58Y-125.5
X139.42Y-104.5
X141.96Y-104.5
X144.5Y-104.5
X147.03Y-104.5
X149.58Y-104.5
X139.42Y-109.75
X141.96Y-109.75
X144.5Y-109.75
X147.03Y-109.75
X149.58Y-109.75
X139.42Y-115.0
X141.96Y-115.0
X144.5Y-115.0
X147.03Y-115.0
X149.58Y-115.0
X139.42Y-130.75
X141.96Y-130.75
X144.5Y-130.75
X147.03Y-130.75
X149.58Y-130.75
X139.42Y-136.0
X141.96Y-136.0
X144.5Y-136.0
X147.03Y-136.0
X149.58Y-136.0
X139.42Y-120.25
X141.96Y-120.25
X144.5Y-120.25
X147.03Y-120.25
X149.58Y-120.25
X139.42Y-141.25
X141.97Y-141.25
X144.5Y-141.25
X147.04Y-141.25
X149.58Y-141.25
T6
X184.7Y-113.55
X184.7Y-126.75
T7
X135.0Y-63.0
X135.0Y-184.0
X194.0Y-63.0
X194.0Y-184.0
X194.5Y-80.95
T4
G00X177.165Y-141.45
M15
G01X177.165Y-142.85
M16
G05
G00X177.165Y-176.65
M15
G01X177.165Y-178.05
M16
G05
T0
M30
