G04 #@! TF.GenerationSoftware,KiCad,Pcbnew,(5.1.4)-1*
G04 #@! TF.CreationDate,2019-10-14T17:42:59+09:00*
G04 #@! TF.ProjectId,ControlPanel,436f6e74-726f-46c5-9061-6e656c2e6b69,rev?*
G04 #@! TF.SameCoordinates,Original*
G04 #@! TF.FileFunction,Profile,NP*
%FSLAX46Y46*%
G04 Gerber Fmt 4.6, Leading zero omitted, Abs format (unit mm)*
G04 Created by KiCad (PCBNEW (5.1.4)-1) date 2019-10-14 17:42:59*
%MOMM*%
%LPD*%
G04 APERTURE LIST*
%ADD10C,0.150000*%
G04 APERTURE END LIST*
D10*
X139250000Y-173750000D02*
X168250000Y-173750000D01*
X139250000Y-184750000D02*
X139250000Y-173750000D01*
X168250000Y-184750000D02*
X139250000Y-184750000D01*
X168250000Y-173750000D02*
X168250000Y-184750000D01*
X139250000Y-159500000D02*
X168250000Y-159500000D01*
X139250000Y-170500000D02*
X139250000Y-159500000D01*
X168250000Y-170500000D02*
X139250000Y-170500000D01*
X168250000Y-159500000D02*
X168250000Y-170500000D01*
X139250000Y-145250000D02*
X168250000Y-145250000D01*
X139250000Y-156250000D02*
X139250000Y-145250000D01*
X168250000Y-156250000D02*
X139250000Y-156250000D01*
X168250000Y-145250000D02*
X168250000Y-156250000D01*
X194000000Y-60000000D02*
X135000000Y-60000000D01*
X197000000Y-184000000D02*
X197000000Y-63000000D01*
X135000000Y-187000000D02*
X194000000Y-187000000D01*
X132000000Y-63000000D02*
X132000000Y-184000000D01*
X194000000Y-187000000D02*
G75*
G03X197000000Y-184000000I0J3000000D01*
G01*
X132000000Y-184000000D02*
G75*
G03X135000000Y-187000000I3000000J0D01*
G01*
X135000000Y-60000000D02*
G75*
G03X132000000Y-63000000I0J-3000000D01*
G01*
X197000000Y-63000000D02*
G75*
G03X194000000Y-60000000I-3000000J0D01*
G01*
M02*
